<?xml version="1.0" encoding="UTF-8"?>
<svg xmlns="http://www.w3.org/2000/svg" xmlns:xlink="http://www.w3.org/1999/xlink" fill-opacity="1" color-rendering="auto" color-interpolation="auto" stroke="black" text-rendering="auto" stroke-linecap="square" width="244" stroke-miterlimit="10" stroke-opacity="1" shape-rendering="auto" fill="black" stroke-dasharray="none" font-weight="normal" stroke-width="1" height="335" font-family="'Dialog'" font-style="normal" stroke-linejoin="miter" font-size="12" stroke-dashoffset="0" image-rendering="auto">
  <!--Generated by ySVG-->
  <defs id="genericDefs"/>
  <g>
    <defs id="defs1">
      <clipPath clipPathUnits="userSpaceOnUse" id="clipPath1">
        <path d="M0 0 L244 0 L244 335 L0 335 L0 0 Z"/>
      </clipPath>
      <clipPath clipPathUnits="userSpaceOnUse" id="clipPath2">
        <path d="M54.075 -107.125 L111.755 -107.125 L111.755 -84 L54.075 -84 L54.075 -107.125 Z"/>
      </clipPath>
      <clipPath clipPathUnits="userSpaceOnUse" id="clipPath3">
        <path d="M0 0 L165.83 0 L165.83 157.3906 L0 157.3906 L0 0 Z"/>
      </clipPath>
      <script type="text/ecmascript"><![CDATA[
function umlload(newLocation)
{
if (newLocation.charAt(0) != '#') {
if (newLocation.indexOf("://") > -1) {
window.parent.location.href = newLocation;
} else {
var tmp = window.parent.location.href;
tmp = tmp.substring(0, tmp.lastIndexOf("/") + 1);
window.parent.location.href = tmp.concat(newLocation);
}
} else {
window.parent.location.hash = newLocation;
}
}
]]></script>
    </defs>
    <g fill="rgb(238,238,255)" transform="matrix(1,0,0,1,8,134)" stroke="rgb(238,238,255)">
      <rect width="76.1412" x="46.075" height="17.9688" y="-133.125" stroke="none"/>
    </g>
    <g fill="rgb(166,166,178)" stroke-miterlimit="1.45" transform="matrix(1,0,0,1,8,134)" stroke-linecap="butt" stroke="rgb(166,166,178)">
      <rect fill="none" width="76.1412" x="46.075" height="17.9688" y="-133.125"/>
    </g>
    <g fill="rgb(238,238,255)" transform="matrix(1,0,0,1,8,134)" stroke="rgb(238,238,255)">
      <rect width="76.1412" x="46.075" height="39.1562" y="-115.1562" stroke="none"/>
    </g>
    <g fill="rgb(166,166,178)" stroke-miterlimit="1.45" transform="matrix(1,0,0,1,8,134)" stroke-linecap="butt" stroke="rgb(166,166,178)">
      <rect fill="none" width="76.1412" x="46.075" height="39.1562" y="-115.1562"/>
    </g>
    <g font-family="sans-serif" transform="matrix(1,0,0,1,8,134)">
      <text xml:space="preserve" x="52.075" y="-119.9844" stroke="none">java.lang</text>
    </g>
    <g fill="rgb(187,187,255)" transform="matrix(1,0,0,1,8,134)" stroke="rgb(187,187,255)">
      <rect x="54.075" y="-107.125" clip-path="url(#clipPath2)" width="57.68" height="23.125" stroke="none"/>
    </g>
    <g fill="rgb(130,130,178)" stroke-miterlimit="1.45" transform="matrix(1,0,0,1,8,134)" stroke-linecap="butt" stroke="rgb(130,130,178)">
      <rect fill="none" width="57.68" x="54.075" height="23.125" y="-107.125"/>
    </g>
    <g font-size="13" font-weight="bold" font-family="sans-serif" transform="matrix(1,0,0,1,8,134)">
      <text xml:space="preserve" x="58.915" y="-91.0625" stroke="none">Object</text>
    </g>
    <g fill="rgb(238,238,255)" transform="matrix(1,0,0,1,8,134)" stroke="rgb(238,238,255)">
      <rect width="243.7634" x="-8" height="17.9688" y="-26" stroke="none"/>
    </g>
    <g fill="rgb(166,166,178)" stroke-miterlimit="1.45" transform="matrix(1,0,0,1,8,134)" stroke-linecap="butt" stroke="rgb(166,166,178)">
      <rect fill="none" width="243.7634" x="-8" height="17.9688" y="-26"/>
    </g>
    <g fill="rgb(238,238,255)" transform="matrix(1,0,0,1,8,134)" stroke="rgb(238,238,255)">
      <rect width="243.83" x="-8" height="173.4219" y="-8.0312" stroke="none"/>
    </g>
    <g fill="rgb(166,166,178)" stroke-miterlimit="1.45" transform="matrix(1,0,0,1,8,134)" stroke-linecap="butt" stroke="rgb(166,166,178)">
      <rect fill="none" width="243.83" x="-8" height="173.4219" y="-8.0312"/>
    </g>
    <g font-family="sans-serif" transform="matrix(1,0,0,1,8,134)">
      <text xml:space="preserve" x="-2" y="-12.8594" onclick="umlload('package-summary.html')" stroke="none">lamparski.areabase.cardproviders</text>
    </g>
    <g fill="rgb(187,187,255)" transform="matrix(1,0,0,1,8,134)" stroke="rgb(187,187,255)">
      <rect x="0" y="0" clip-path="url(#clipPath3)" width="165.83" height="26.6406" stroke="none"/>
      <line clip-path="url(#clipPath3)" fill="none" x1="0" x2="165.83" y1="26.6406" y2="26.6406" stroke="black"/>
      <rect x="0" y="27.6406" clip-path="url(#clipPath3)" width="165.83" height="111.7812" stroke="none"/>
      <line clip-path="url(#clipPath3)" fill="none" x1="0" x2="165.83" y1="139.4219" y2="139.4219" stroke="black"/>
      <rect x="0" y="140.4219" clip-path="url(#clipPath3)" width="165.83" height="15.9688" stroke="none"/>
      <line clip-path="url(#clipPath3)" fill="none" x1="0" x2="165.83" y1="156.3906" y2="156.3906" stroke="black"/>
      <line clip-path="url(#clipPath3)" x1="0" x2="165.83" y1="157.3906" y2="157.3906" stroke="none"/>
    </g>
    <g fill="rgb(130,130,178)" stroke-miterlimit="1.45" transform="matrix(1,0,0,1,8,134)" stroke-linecap="butt" stroke="rgb(130,130,178)">
      <rect fill="none" width="165.83" x="0" height="157.3906" y="0"/>
    </g>
    <g font-size="16" font-weight="bold" font-family="sans-serif" transform="matrix(1,0,0,1,8,134)">
      <text xml:space="preserve" x="6.415" y="18.8594" onclick="umlload('#')" stroke="none">TrendDescription</text>
    </g>
    <g font-family="sans-serif" transform="matrix(1,0,0,1,8,134)">
      <text xml:space="preserve" x="4" y="38.1719" stroke="none">+</text>
      <text xml:space="preserve" x="19" y="39.7812" onclick="umlload('#FALLING')" stroke="none">FALLING : int</text>
      <line y2="42.6094" fill="none" x1="19" x2="95" y1="42.6094"/>
    </g>
    <g font-family="sans-serif" transform="matrix(1,0,0,1,8,134)">
      <text xml:space="preserve" x="4" y="54.1719" stroke="none">+</text>
      <text xml:space="preserve" x="19" y="55.75" onclick="umlload('#FALLING_RAPIDLY')" stroke="none">FALLING_RAPIDLY : int</text>
      <line y2="58.5781" fill="none" x1="19" x2="150" y1="58.5781"/>
    </g>
    <g font-family="sans-serif" transform="matrix(1,0,0,1,8,134)">
      <text xml:space="preserve" x="4" y="70.1719" stroke="none">+</text>
      <text xml:space="preserve" x="19" y="71.7188" onclick="umlload('#RISING')" stroke="none">RISING : int</text>
      <line y2="74.5469" fill="none" x1="19" x2="87" y1="74.5469"/>
    </g>
    <g font-family="sans-serif" transform="matrix(1,0,0,1,8,134)">
      <text xml:space="preserve" x="4" y="86.1719" stroke="none">+</text>
      <text xml:space="preserve" x="19" y="87.6875" onclick="umlload('#RISING_RAPIDLY')" stroke="none">RISING_RAPIDLY : int</text>
      <line y2="90.5156" fill="none" x1="19" x2="142" y1="90.5156"/>
    </g>
    <g font-family="sans-serif" transform="matrix(1,0,0,1,8,134)">
      <text xml:space="preserve" x="4" y="102.1719" stroke="none">+</text>
      <text xml:space="preserve" x="19" y="103.6562" onclick="umlload('#STABLE')" stroke="none">STABLE : int</text>
      <line y2="106.4844" fill="none" x1="19" x2="92" y1="106.4844"/>
    </g>
    <g font-family="sans-serif" transform="matrix(1,0,0,1,8,134)">
      <text xml:space="preserve" x="4" y="118.1719" stroke="none">+</text>
      <text xml:space="preserve" x="19" y="119.625" onclick="umlload('#currentValue')" stroke="none">currentValue : float</text>
    </g>
    <g font-family="sans-serif" transform="matrix(1,0,0,1,8,134)">
      <text xml:space="preserve" x="4" y="134.1719" stroke="none">+</text>
      <text xml:space="preserve" x="19" y="135.5938" onclick="umlload('#which')" stroke="none">which : int</text>
    </g>
    <g font-family="sans-serif" transform="matrix(1,0,0,1,8,134)">
      <text xml:space="preserve" x="4" y="151.1719" stroke="none">+</text>
      <text xml:space="preserve" x="19" y="152.5625" onclick="umlload('#TrendDescription()')" stroke="none">TrendDescription()</text>
    </g>
    <g font-family="sans-serif" transform="matrix(1,0,0,1,8,134)">
      <text xml:space="preserve" x="-2" y="190.1562" onclick="umlload('http://www.yworks.com/')" stroke="none">yWorks UML Doclet</text>
    </g>
    <g stroke-miterlimit="1.45" transform="matrix(1,0,0,1,8,134)" stroke-linecap="butt">
      <path fill="none" d="M82.915 0 L82.915 -69"/>
      <path fill="white" d="M82.915 -84 L76.915 -68 L88.915 -68 Z" stroke="none"/>
      <path fill="none" d="M82.915 -84 L76.915 -68 L88.915 -68 Z"/>
    </g>
  </g>
</svg>
