<?xml version="1.0" encoding="UTF-8"?>
<svg xmlns="http://www.w3.org/2000/svg" xmlns:xlink="http://www.w3.org/1999/xlink" fill-opacity="1" color-rendering="auto" color-interpolation="auto" stroke="black" text-rendering="auto" stroke-linecap="square" width="696" stroke-miterlimit="10" stroke-opacity="1" shape-rendering="auto" fill="black" stroke-dasharray="none" font-weight="normal" stroke-width="1" height="283" font-family="'Dialog'" font-style="normal" stroke-linejoin="miter" font-size="12" stroke-dashoffset="0" image-rendering="auto">
  <!--Generated by ySVG-->
  <defs id="genericDefs"/>
  <g>
    <defs id="defs1">
      <clipPath clipPathUnits="userSpaceOnUse" id="clipPath1">
        <path d="M0 0 L696 0 L696 283 L0 283 L0 0 Z"/>
      </clipPath>
      <clipPath clipPathUnits="userSpaceOnUse" id="clipPath2">
        <path d="M548.7542 16.3518 C548.7542 25.3827 519.0809 32.7037 482.4771 32.7037 C445.8733 32.7037 416.2 25.3827 416.2 16.3518 C416.2 7.321 445.8733 0 482.4771 0 C519.0809 0 548.7542 7.321 548.7542 16.3518 Z"/>
      </clipPath>
      <clipPath clipPathUnits="userSpaceOnUse" id="clipPath3">
        <path d="M507.9683 59.0555 C507.9683 68.0864 487.4253 75.4074 462.0842 75.4074 C436.743 75.4074 416.2 68.0864 416.2 59.0555 C416.2 50.0247 436.743 42.7037 462.0842 42.7037 C487.4253 42.7037 507.9683 50.0247 507.9683 59.0555 Z"/>
      </clipPath>
      <clipPath clipPathUnits="userSpaceOnUse" id="clipPath4">
        <path d="M-130.04 0 L-76.48 0 L-76.48 23.125 L-130.04 23.125 L-130.04 0 Z"/>
      </clipPath>
      <clipPath clipPathUnits="userSpaceOnUse" id="clipPath5">
        <path d="M109.695 -107.125 L240.505 -107.125 L240.505 -84 L109.695 -84 L109.695 -107.125 Z"/>
      </clipPath>
      <clipPath clipPathUnits="userSpaceOnUse" id="clipPath6">
        <path d="M0 0 L350.2 0 L350.2 105.4844 L0 105.4844 L0 0 Z"/>
      </clipPath>
      <script type="text/ecmascript"><![CDATA[
function umlload(newLocation)
{
if (newLocation.charAt(0) != '#') {
if (newLocation.indexOf("://") > -1) {
window.parent.location.href = newLocation;
} else {
var tmp = window.parent.location.href;
tmp = tmp.substring(0, tmp.lastIndexOf("/") + 1);
window.parent.location.href = tmp.concat(newLocation);
}
} else {
window.parent.location.hash = newLocation;
}
}
]]></script>
    </defs>
    <g fill="rgb(238,238,255)" transform="matrix(1,0,0,1,139,134)" stroke="rgb(238,238,255)">
      <rect width="67.654" x="408.2" height="17.9688" y="-26" stroke="none"/>
    </g>
    <g fill="rgb(166,166,178)" stroke-miterlimit="1.45" transform="matrix(1,0,0,1,139,134)" stroke-linecap="butt" stroke="rgb(166,166,178)">
      <rect fill="none" width="67.654" x="408.2" height="17.9688" y="-26"/>
    </g>
    <g fill="rgb(238,238,255)" transform="matrix(1,0,0,1,139,134)" stroke="rgb(238,238,255)">
      <rect width="148.5542" x="408.2" height="91.4386" y="-8.0312" stroke="none"/>
    </g>
    <g fill="rgb(166,166,178)" stroke-miterlimit="1.45" transform="matrix(1,0,0,1,139,134)" stroke-linecap="butt" stroke="rgb(166,166,178)">
      <rect fill="none" width="148.5542" x="408.2" height="91.4386" y="-8.0312"/>
    </g>
    <g font-family="sans-serif" transform="matrix(1,0,0,1,139,134)">
      <text xml:space="preserve" x="414.2" y="-12.8594" stroke="none">java.util</text>
    </g>
    <g fill="rgb(221,221,255)" transform="matrix(1,0,0,1,139,134)" stroke="rgb(221,221,255)">
      <rect x="416.2" y="0" clip-path="url(#clipPath2)" width="132.5542" height="32.7037" stroke="none"/>
    </g>
    <g fill="rgb(154,154,178)" stroke-miterlimit="1.45" transform="matrix(1,0,0,1,139,134)" stroke-linecap="butt" stroke="rgb(154,154,178)">
      <ellipse rx="66.2771" fill="none" ry="16.3518" cx="482.4771" cy="16.3518"/>
    </g>
    <g font-style="italic" font-size="13" font-weight="bold" font-family="sans-serif" transform="matrix(1,0,0,1,139,134)">
      <text xml:space="preserve" x="440.9771" y="20.8518" stroke="none">Map&lt;K, V&gt;</text>
    </g>
    <g fill="rgb(221,221,255)" transform="matrix(1,0,0,1,139,134)" stroke="rgb(221,221,255)">
      <rect x="416.2" y="42.7037" clip-path="url(#clipPath3)" width="91.7683" height="32.7037" stroke="none"/>
    </g>
    <g fill="rgb(154,154,178)" stroke-miterlimit="1.45" transform="matrix(1,0,0,1,139,134)" stroke-linecap="butt" stroke="rgb(154,154,178)">
      <ellipse rx="45.8842" fill="none" ry="16.3518" cx="462.0842" cy="59.0555"/>
    </g>
    <g font-style="italic" font-size="13" font-weight="bold" font-family="sans-serif" transform="matrix(1,0,0,1,139,134)">
      <text xml:space="preserve" x="434.5842" y="63.5555" stroke="none">Set&lt;E&gt;</text>
    </g>
    <g fill="rgb(238,238,255)" transform="matrix(1,0,0,1,139,134)" stroke="rgb(238,238,255)">
      <rect width="76.1412" x="-138.04" height="17.9688" y="-26" stroke="none"/>
    </g>
    <g fill="rgb(166,166,178)" stroke-miterlimit="1.45" transform="matrix(1,0,0,1,139,134)" stroke-linecap="butt" stroke="rgb(166,166,178)">
      <rect fill="none" width="76.1412" x="-138.04" height="17.9688" y="-26"/>
    </g>
    <g fill="rgb(238,238,255)" transform="matrix(1,0,0,1,139,134)" stroke="rgb(238,238,255)">
      <rect width="79.56" x="-138.04" height="39.1562" y="-8.0312" stroke="none"/>
    </g>
    <g fill="rgb(166,166,178)" stroke-miterlimit="1.45" transform="matrix(1,0,0,1,139,134)" stroke-linecap="butt" stroke="rgb(166,166,178)">
      <rect fill="none" width="79.56" x="-138.04" height="39.1562" y="-8.0312"/>
    </g>
    <g font-family="sans-serif" transform="matrix(1,0,0,1,139,134)">
      <text xml:space="preserve" x="-132.04" y="-12.8594" stroke="none">java.lang</text>
    </g>
    <g fill="rgb(187,187,255)" transform="matrix(1,0,0,1,139,134)" stroke="rgb(187,187,255)">
      <rect x="-130.04" y="0" clip-path="url(#clipPath4)" width="53.56" height="23.125" stroke="none"/>
    </g>
    <g fill="rgb(130,130,178)" stroke-miterlimit="1.45" transform="matrix(1,0,0,1,139,134)" stroke-linecap="butt" stroke="rgb(130,130,178)">
      <rect fill="none" width="53.56" x="-130.04" height="23.125" y="0"/>
    </g>
    <g font-size="13" font-weight="bold" font-family="sans-serif" transform="matrix(1,0,0,1,139,134)">
      <text xml:space="preserve" x="-125.26" y="16.0625" stroke="none">String</text>
    </g>
    <g fill="rgb(238,238,255)" transform="matrix(1,0,0,1,139,134)" stroke="rgb(238,238,255)">
      <rect width="163.135" x="97.695" height="17.9688" y="-133.125" stroke="none"/>
    </g>
    <g fill="rgb(166,166,178)" stroke-miterlimit="1.45" transform="matrix(1,0,0,1,139,134)" stroke-linecap="butt" stroke="rgb(166,166,178)">
      <rect fill="none" width="163.135" x="97.695" height="17.9688" y="-133.125"/>
    </g>
    <g fill="rgb(238,238,255)" transform="matrix(1,0,0,1,139,134)" stroke="rgb(238,238,255)">
      <rect width="163.135" x="97.695" height="39.1562" y="-115.1562" stroke="none"/>
    </g>
    <g fill="rgb(166,166,178)" stroke-miterlimit="1.45" transform="matrix(1,0,0,1,139,134)" stroke-linecap="butt" stroke="rgb(166,166,178)">
      <rect fill="none" width="163.135" x="97.695" height="39.1562" y="-115.1562"/>
    </g>
    <g font-family="sans-serif" transform="matrix(1,0,0,1,139,134)">
      <text xml:space="preserve" x="103.695" y="-119.9844" onclick="umlload('../../../../nde2/pull/methodcalls/package-summary.html')" stroke="none">nde2.pull.methodcalls</text>
    </g>
    <g fill="rgb(204,204,255)" transform="matrix(1,0,0,1,139,134)" stroke="rgb(204,204,255)">
      <rect x="109.695" y="-107.125" clip-path="url(#clipPath5)" width="130.81" height="23.125" stroke="none"/>
    </g>
    <g fill="rgb(142,142,178)" stroke-miterlimit="1.45" transform="matrix(1,0,0,1,139,134)" stroke-linecap="butt" stroke="rgb(142,142,178)">
      <rect fill="none" width="130.81" x="109.695" height="23.125" y="-107.125"/>
    </g>
    <g font-size="13" font-weight="bold" font-family="sans-serif" transform="matrix(1,0,0,1,139,134)">
      <text xml:space="preserve" x="115.6" y="-91.0625" onclick="umlload('../../../../nde2/pull/methodcalls/BaseMethodCall.html')" stroke="none">BaseMethodCall</text>
    </g>
    <g fill="rgb(238,238,255)" transform="matrix(1,0,0,1,139,134)" stroke="rgb(238,238,255)">
      <rect width="228.9108" x="-8" height="17.9688" y="-26" stroke="none"/>
    </g>
    <g fill="rgb(166,166,178)" stroke-miterlimit="1.45" transform="matrix(1,0,0,1,139,134)" stroke-linecap="butt" stroke="rgb(166,166,178)">
      <rect fill="none" width="228.9108" x="-8" height="17.9688" y="-26"/>
    </g>
    <g fill="rgb(238,238,255)" transform="matrix(1,0,0,1,139,134)" stroke="rgb(238,238,255)">
      <rect width="366.2" x="-8" height="121.5156" y="-8.0312" stroke="none"/>
    </g>
    <g fill="rgb(166,166,178)" stroke-miterlimit="1.45" transform="matrix(1,0,0,1,139,134)" stroke-linecap="butt" stroke="rgb(166,166,178)">
      <rect fill="none" width="366.2" x="-8" height="121.5156" y="-8.0312"/>
    </g>
    <g font-family="sans-serif" transform="matrix(1,0,0,1,139,134)">
      <text xml:space="preserve" x="-2" y="-12.8594" onclick="umlload('package-summary.html')" stroke="none">nde2.pull.methodcalls.discovery</text>
    </g>
    <g fill="rgb(204,204,255)" transform="matrix(1,0,0,1,139,134)" stroke="rgb(204,204,255)">
      <rect x="0" y="0" clip-path="url(#clipPath6)" width="350.2" height="38.6094" stroke="none"/>
      <line clip-path="url(#clipPath6)" fill="none" x1="0" x2="350.2" y1="38.6094" y2="38.6094" stroke="black"/>
      <rect x="0" y="39.6094" clip-path="url(#clipPath6)" width="350.2" height="15.9688" stroke="none"/>
      <line clip-path="url(#clipPath6)" fill="none" x1="0" x2="350.2" y1="55.5781" y2="55.5781" stroke="black"/>
      <rect x="0" y="56.5781" clip-path="url(#clipPath6)" width="350.2" height="15.9688" stroke="none"/>
      <line clip-path="url(#clipPath6)" fill="none" x1="0" x2="350.2" y1="72.5469" y2="72.5469" stroke="black"/>
      <rect x="0" y="73.5469" clip-path="url(#clipPath6)" width="350.2" height="31.9375" stroke="none"/>
    </g>
    <g fill="rgb(142,142,178)" stroke-miterlimit="1.45" transform="matrix(1,0,0,1,139,134)" stroke-linecap="butt" stroke="rgb(142,142,178)">
      <rect fill="none" width="350.2" x="0" height="105.4844" y="0"/>
    </g>
    <g font-size="16" font-weight="bold" font-family="sans-serif" transform="matrix(1,0,0,1,139,134)">
      <text xml:space="preserve" x="82.6" y="16.8594" onclick="umlload('#')" stroke="none">DiscoveryMethodCall</text>
    </g>
    <g font-family="sans-serif" transform="matrix(1,0,0,1,139,134)">
      <text xml:space="preserve" x="277.2" y="33.7812" stroke="none">{abstract}</text>
    </g>
    <g font-family="sans-serif" transform="matrix(1,0,0,1,139,134)">
      <text xml:space="preserve" x="4" y="50.1719" stroke="none">#</text>
      <text xml:space="preserve" x="19" y="51.75" onclick="umlload('#DISCOVERY_ENDPOINT')" stroke="none">DISCOVERY_ENDPOINT : String</text>
      <line y2="54.5781" fill="none" x1="19" x2="204" y1="54.5781"/>
    </g>
    <g font-family="sans-serif" transform="matrix(1,0,0,1,139,134)">
      <text xml:space="preserve" x="4" y="67.1719" stroke="none">+</text>
      <text xml:space="preserve" x="19" y="68.7188" onclick="umlload('#DiscoveryMethodCall()')" stroke="none">DiscoveryMethodCall()</text>
    </g>
    <g font-family="sans-serif" transform="matrix(1,0,0,1,139,134)">
      <text xml:space="preserve" x="4" y="84.1719" stroke="none">#</text>
      <text xml:space="preserve" x="19" y="85.6875" onclick="umlload('#doCall(java.lang.String, java.util.Map)')" stroke="none">doCall(String, Map&lt;String, String&gt;) : XmlPullParser</text>
    </g>
    <g font-family="sans-serif" transform="matrix(1,0,0,1,139,134)">
      <text xml:space="preserve" x="4" y="100.1719" stroke="none">#</text>
      <text xml:space="preserve" x="19" y="101.6562" onclick="umlload('#processAreaSet(XmlPullParser)')" stroke="none">processAreaSet(XmlPullParser) : Set&lt;Area&gt;</text>
    </g>
    <g font-family="sans-serif" transform="matrix(1,0,0,1,139,134)">
      <text xml:space="preserve" x="-133" y="138.1562" onclick="umlload('http://www.yworks.com/')" stroke="none">yWorks UML Doclet</text>
    </g>
    <g stroke-miterlimit="1.45" transform="matrix(1,0,0,1,139,134)" stroke-linecap="butt">
      <path fill="none" d="M175.1 0 L175.1 -69"/>
      <path fill="white" d="M175.1 -84 L169.1 -68 L181.1 -68 Z" stroke="none"/>
      <path fill="none" d="M175.1 -84 L169.1 -68 L181.1 -68 Z"/>
      <path fill="none" d="M0.0037 11.5625 L-76.48 11.5625"/>
      <line stroke-linecap="square" transform="matrix(-1,0,0,-1,-76.48,11.5625)" fill="none" x1="0" x2="-14" y1="0" y2="-4" stroke-miterlimit="10"/>
      <line stroke-linecap="square" transform="matrix(-1,0,0,-1,-76.48,11.5625)" fill="none" x1="0" x2="-14" y1="0" y2="4" stroke-miterlimit="10"/>
    </g>
    <g stroke-dasharray="6,2" stroke-miterlimit="1.45" transform="matrix(1,0,0,1,139,134)" stroke-linecap="butt">
      <path fill="none" d="M350.2134 16.3518 L416.2 16.3518"/>
      <line stroke-linecap="square" transform="matrix(1,0,0,1,416.2,16.3518)" fill="none" x1="0" x2="-14" y1="0" y2="-4" stroke-dasharray="none" stroke-miterlimit="10"/>
      <line stroke-linecap="square" transform="matrix(1,0,0,1,416.2,16.3518)" fill="none" x1="0" x2="-14" y1="0" y2="4" stroke-dasharray="none" stroke-miterlimit="10"/>
    </g>
    <g stroke-dasharray="6,2" stroke-miterlimit="1.45" transform="matrix(1,0,0,1,139,134)" stroke-linecap="butt">
      <path fill="none" d="M350.2262 59.0555 L416.2 59.0555"/>
      <line stroke-linecap="square" transform="matrix(1,0,0,1,416.2,59.0555)" fill="none" x1="0" x2="-14" y1="0" y2="-4" stroke-dasharray="none" stroke-miterlimit="10"/>
      <line stroke-linecap="square" transform="matrix(1,0,0,1,416.2,59.0555)" fill="none" x1="0" x2="-14" y1="0" y2="4" stroke-dasharray="none" stroke-miterlimit="10"/>
    </g>
  </g>
</svg>
