<?xml version="1.0" encoding="UTF-8"?>
<svg xmlns="http://www.w3.org/2000/svg" xmlns:xlink="http://www.w3.org/1999/xlink" fill-opacity="1" color-rendering="auto" color-interpolation="auto" stroke="black" text-rendering="auto" stroke-linecap="square" width="703" stroke-miterlimit="10" stroke-opacity="1" shape-rendering="auto" fill="black" stroke-dasharray="none" font-weight="normal" stroke-width="1" height="329" font-family="'Dialog'" font-style="normal" stroke-linejoin="miter" font-size="12" stroke-dashoffset="0" image-rendering="auto">
  <!--Generated by ySVG-->
  <defs id="genericDefs"/>
  <g>
    <defs id="defs1">
      <clipPath clipPathUnits="userSpaceOnUse" id="clipPath1">
        <path d="M0 0 L703 0 L703 329 L0 329 L0 0 Z"/>
      </clipPath>
      <clipPath clipPathUnits="userSpaceOnUse" id="clipPath2">
        <path d="M476.8916 16.3518 C476.8916 25.3827 455.6964 32.7037 429.5508 32.7037 C403.4052 32.7037 382.21 25.3827 382.21 16.3518 C382.21 7.321 403.4052 0 429.5508 0 C455.6964 0 476.8916 7.321 476.8916 16.3518 Z"/>
      </clipPath>
      <clipPath clipPathUnits="userSpaceOnUse" id="clipPath3">
        <path d="M514.7642 59.0555 C514.7642 68.0864 485.091 75.4074 448.4871 75.4074 C411.8833 75.4074 382.21 68.0864 382.21 59.0555 C382.21 50.0247 411.8833 42.7037 448.4871 42.7037 C485.091 42.7037 514.7642 50.0247 514.7642 59.0555 Z"/>
      </clipPath>
      <clipPath clipPathUnits="userSpaceOnUse" id="clipPath4">
        <path d="M-171.24 87.125 L-127.98 87.125 L-127.98 110.25 L-171.24 110.25 L-171.24 87.125 Z"/>
      </clipPath>
      <clipPath clipPathUnits="userSpaceOnUse" id="clipPath5">
        <path d="M-171.24 120.25 L-106.35 120.25 L-106.35 143.375 L-171.24 143.375 L-171.24 120.25 Z"/>
      </clipPath>
      <clipPath clipPathUnits="userSpaceOnUse" id="clipPath6">
        <path d="M-130.04 0 L-76.48 0 L-76.48 23.125 L-130.04 23.125 L-130.04 0 Z"/>
      </clipPath>
      <clipPath clipPathUnits="userSpaceOnUse" id="clipPath7">
        <path d="M74.675 -107.125 L241.535 -107.125 L241.535 -84 L74.675 -84 L74.675 -107.125 Z"/>
      </clipPath>
      <clipPath clipPathUnits="userSpaceOnUse" id="clipPath8">
        <path d="M0 0 L316.21 0 L316.21 151.375 L0 151.375 L0 0 Z"/>
      </clipPath>
      <script type="text/ecmascript"><![CDATA[
function umlload(newLocation)
{
if (newLocation.charAt(0) != '#') {
if (newLocation.indexOf("://") > -1) {
window.parent.location.href = newLocation;
} else {
var tmp = window.parent.location.href;
tmp = tmp.substring(0, tmp.lastIndexOf("/") + 1);
window.parent.location.href = tmp.concat(newLocation);
}
} else {
window.parent.location.hash = newLocation;
}
}
]]></script>
    </defs>
    <g fill="rgb(238,238,255)" transform="matrix(1,0,0,1,180,134)" stroke="rgb(238,238,255)">
      <rect width="67.654" x="374.21" height="17.9688" y="-26" stroke="none"/>
    </g>
    <g fill="rgb(166,166,178)" stroke-miterlimit="1.45" transform="matrix(1,0,0,1,180,134)" stroke-linecap="butt" stroke="rgb(166,166,178)">
      <rect fill="none" width="67.654" x="374.21" height="17.9688" y="-26"/>
    </g>
    <g fill="rgb(238,238,255)" transform="matrix(1,0,0,1,180,134)" stroke="rgb(238,238,255)">
      <rect width="148.5542" x="374.21" height="91.4386" y="-8.0312" stroke="none"/>
    </g>
    <g fill="rgb(166,166,178)" stroke-miterlimit="1.45" transform="matrix(1,0,0,1,180,134)" stroke-linecap="butt" stroke="rgb(166,166,178)">
      <rect fill="none" width="148.5542" x="374.21" height="91.4386" y="-8.0312"/>
    </g>
    <g font-family="sans-serif" transform="matrix(1,0,0,1,180,134)">
      <text xml:space="preserve" x="380.21" y="-12.8594" stroke="none">java.util</text>
    </g>
    <g fill="rgb(221,221,255)" transform="matrix(1,0,0,1,180,134)" stroke="rgb(221,221,255)">
      <rect x="382.21" y="0" clip-path="url(#clipPath2)" width="94.6816" height="32.7037" stroke="none"/>
    </g>
    <g fill="rgb(154,154,178)" stroke-miterlimit="1.45" transform="matrix(1,0,0,1,180,134)" stroke-linecap="butt" stroke="rgb(154,154,178)">
      <ellipse rx="47.3408" fill="none" ry="16.3518" cx="429.5508" cy="16.3518"/>
    </g>
    <g font-style="italic" font-size="13" font-weight="bold" font-family="sans-serif" transform="matrix(1,0,0,1,180,134)">
      <text xml:space="preserve" x="401.0508" y="20.8518" stroke="none">List&lt;E&gt;</text>
    </g>
    <g fill="rgb(221,221,255)" transform="matrix(1,0,0,1,180,134)" stroke="rgb(221,221,255)">
      <rect x="382.21" y="42.7037" clip-path="url(#clipPath3)" width="132.5542" height="32.7037" stroke="none"/>
    </g>
    <g fill="rgb(154,154,178)" stroke-miterlimit="1.45" transform="matrix(1,0,0,1,180,134)" stroke-linecap="butt" stroke="rgb(154,154,178)">
      <ellipse rx="66.2771" fill="none" ry="16.3518" cx="448.4871" cy="59.0555"/>
    </g>
    <g font-style="italic" font-size="13" font-weight="bold" font-family="sans-serif" transform="matrix(1,0,0,1,180,134)">
      <text xml:space="preserve" x="406.9871" y="63.5555" stroke="none">Map&lt;K, V&gt;</text>
    </g>
    <g fill="rgb(238,238,255)" transform="matrix(1,0,0,1,180,134)" stroke="rgb(238,238,255)">
      <rect width="118.5772" x="-179.24" height="17.9688" y="61.125" stroke="none"/>
    </g>
    <g fill="rgb(166,166,178)" stroke-miterlimit="1.45" transform="matrix(1,0,0,1,180,134)" stroke-linecap="butt" stroke="rgb(166,166,178)">
      <rect fill="none" width="118.5772" x="-179.24" height="17.9688" y="61.125"/>
    </g>
    <g fill="rgb(238,238,255)" transform="matrix(1,0,0,1,180,134)" stroke="rgb(238,238,255)">
      <rect width="120.89" x="-179.24" height="72.2812" y="79.0938" stroke="none"/>
    </g>
    <g fill="rgb(166,166,178)" stroke-miterlimit="1.45" transform="matrix(1,0,0,1,180,134)" stroke-linecap="butt" stroke="rgb(166,166,178)">
      <rect fill="none" width="120.89" x="-179.24" height="72.2812" y="79.0938"/>
    </g>
    <g font-family="sans-serif" transform="matrix(1,0,0,1,180,134)">
      <text xml:space="preserve" x="-173.24" y="74.2656" onclick="umlload('../../../../nde2/pull/types/package-summary.html')" stroke="none">nde2.pull.types</text>
    </g>
    <g fill="rgb(187,187,255)" transform="matrix(1,0,0,1,180,134)" stroke="rgb(187,187,255)">
      <rect x="-171.24" y="87.125" clip-path="url(#clipPath4)" width="43.26" height="23.125" stroke="none"/>
    </g>
    <g fill="rgb(130,130,178)" stroke-miterlimit="1.45" transform="matrix(1,0,0,1,180,134)" stroke-linecap="butt" stroke="rgb(130,130,178)">
      <rect fill="none" width="43.26" x="-171.24" height="23.125" y="87.125"/>
    </g>
    <g font-size="13" font-weight="bold" font-family="sans-serif" transform="matrix(1,0,0,1,180,134)">
      <text xml:space="preserve" x="-166.61" y="103.1875" onclick="umlload('../../../../nde2/pull/types/Area.html')" stroke="none">Area</text>
    </g>
    <g fill="rgb(187,187,255)" transform="matrix(1,0,0,1,180,134)" stroke="rgb(187,187,255)">
      <rect x="-171.24" y="120.25" clip-path="url(#clipPath5)" width="64.89" height="23.125" stroke="none"/>
    </g>
    <g fill="rgb(130,130,178)" stroke-miterlimit="1.45" transform="matrix(1,0,0,1,180,134)" stroke-linecap="butt" stroke="rgb(130,130,178)">
      <rect fill="none" width="64.89" x="-171.24" height="23.125" y="120.25"/>
    </g>
    <g font-size="13" font-weight="bold" font-family="sans-serif" transform="matrix(1,0,0,1,180,134)">
      <text xml:space="preserve" x="-166.295" y="136.3125" onclick="umlload('../../../../nde2/pull/types/Subject.html')" stroke="none">Subject</text>
    </g>
    <g fill="rgb(238,238,255)" transform="matrix(1,0,0,1,180,134)" stroke="rgb(238,238,255)">
      <rect width="76.1412" x="-138.04" height="17.9688" y="-26" stroke="none"/>
    </g>
    <g fill="rgb(166,166,178)" stroke-miterlimit="1.45" transform="matrix(1,0,0,1,180,134)" stroke-linecap="butt" stroke="rgb(166,166,178)">
      <rect fill="none" width="76.1412" x="-138.04" height="17.9688" y="-26"/>
    </g>
    <g fill="rgb(238,238,255)" transform="matrix(1,0,0,1,180,134)" stroke="rgb(238,238,255)">
      <rect width="79.56" x="-138.04" height="39.1562" y="-8.0312" stroke="none"/>
    </g>
    <g fill="rgb(166,166,178)" stroke-miterlimit="1.45" transform="matrix(1,0,0,1,180,134)" stroke-linecap="butt" stroke="rgb(166,166,178)">
      <rect fill="none" width="79.56" x="-138.04" height="39.1562" y="-8.0312"/>
    </g>
    <g font-family="sans-serif" transform="matrix(1,0,0,1,180,134)">
      <text xml:space="preserve" x="-132.04" y="-12.8594" stroke="none">java.lang</text>
    </g>
    <g fill="rgb(187,187,255)" transform="matrix(1,0,0,1,180,134)" stroke="rgb(187,187,255)">
      <rect x="-130.04" y="0" clip-path="url(#clipPath6)" width="53.56" height="23.125" stroke="none"/>
    </g>
    <g fill="rgb(130,130,178)" stroke-miterlimit="1.45" transform="matrix(1,0,0,1,180,134)" stroke-linecap="butt" stroke="rgb(130,130,178)">
      <rect fill="none" width="53.56" x="-130.04" height="23.125" y="0"/>
    </g>
    <g font-size="13" font-weight="bold" font-family="sans-serif" transform="matrix(1,0,0,1,180,134)">
      <text xml:space="preserve" x="-125.26" y="16.0625" stroke="none">String</text>
    </g>
    <g fill="rgb(238,238,255)" transform="matrix(1,0,0,1,180,134)" stroke="rgb(238,238,255)">
      <rect width="228.9108" x="48.675" height="17.9688" y="-133.125" stroke="none"/>
    </g>
    <g fill="rgb(166,166,178)" stroke-miterlimit="1.45" transform="matrix(1,0,0,1,180,134)" stroke-linecap="butt" stroke="rgb(166,166,178)">
      <rect fill="none" width="228.9108" x="48.675" height="17.9688" y="-133.125"/>
    </g>
    <g fill="rgb(238,238,255)" transform="matrix(1,0,0,1,180,134)" stroke="rgb(238,238,255)">
      <rect width="228.9108" x="48.675" height="39.1562" y="-115.1562" stroke="none"/>
    </g>
    <g fill="rgb(166,166,178)" stroke-miterlimit="1.45" transform="matrix(1,0,0,1,180,134)" stroke-linecap="butt" stroke="rgb(166,166,178)">
      <rect fill="none" width="228.9108" x="48.675" height="39.1562" y="-115.1562"/>
    </g>
    <g font-family="sans-serif" transform="matrix(1,0,0,1,180,134)">
      <text xml:space="preserve" x="54.675" y="-119.9844" onclick="umlload('../../../../nde2/pull/methodcalls/discovery/package-summary.html')" stroke="none">nde2.pull.methodcalls.discovery</text>
    </g>
    <g fill="rgb(204,204,255)" transform="matrix(1,0,0,1,180,134)" stroke="rgb(204,204,255)">
      <rect x="74.675" y="-107.125" clip-path="url(#clipPath7)" width="166.86" height="23.125" stroke="none"/>
    </g>
    <g fill="rgb(142,142,178)" stroke-miterlimit="1.45" transform="matrix(1,0,0,1,180,134)" stroke-linecap="butt" stroke="rgb(142,142,178)">
      <rect fill="none" width="166.86" x="74.675" height="23.125" y="-107.125"/>
    </g>
    <g font-size="13" font-weight="bold" font-family="sans-serif" transform="matrix(1,0,0,1,180,134)">
      <text xml:space="preserve" x="81.105" y="-91.0625" onclick="umlload('../../../../nde2/pull/methodcalls/discovery/DiscoveryMethodCall.html')" stroke="none">DiscoveryMethodCall</text>
    </g>
    <g fill="rgb(238,238,255)" transform="matrix(1,0,0,1,180,134)" stroke="rgb(238,238,255)">
      <rect width="228.9108" x="-8" height="17.9688" y="-26" stroke="none"/>
    </g>
    <g fill="rgb(166,166,178)" stroke-miterlimit="1.45" transform="matrix(1,0,0,1,180,134)" stroke-linecap="butt" stroke="rgb(166,166,178)">
      <rect fill="none" width="228.9108" x="-8" height="17.9688" y="-26"/>
    </g>
    <g fill="rgb(238,238,255)" transform="matrix(1,0,0,1,180,134)" stroke="rgb(238,238,255)">
      <rect width="332.21" x="-8" height="167.4062" y="-8.0312" stroke="none"/>
    </g>
    <g fill="rgb(166,166,178)" stroke-miterlimit="1.45" transform="matrix(1,0,0,1,180,134)" stroke-linecap="butt" stroke="rgb(166,166,178)">
      <rect fill="none" width="332.21" x="-8" height="167.4062" y="-8.0312"/>
    </g>
    <g font-family="sans-serif" transform="matrix(1,0,0,1,180,134)">
      <text xml:space="preserve" x="-2" y="-12.8594" onclick="umlload('package-summary.html')" stroke="none">nde2.pull.methodcalls.discovery</text>
    </g>
    <g fill="rgb(187,187,255)" transform="matrix(1,0,0,1,180,134)" stroke="rgb(187,187,255)">
      <rect x="0" y="0" clip-path="url(#clipPath8)" width="316.21" height="26.6406" stroke="none"/>
      <line clip-path="url(#clipPath8)" fill="none" x1="0" x2="316.21" y1="26.6406" y2="26.6406" stroke="black"/>
      <rect x="0" y="27.6406" clip-path="url(#clipPath8)" width="316.21" height="15.9688" stroke="none"/>
      <line clip-path="url(#clipPath8)" fill="none" x1="0" x2="316.21" y1="43.6094" y2="43.6094" stroke="black"/>
      <rect x="0" y="44.6094" clip-path="url(#clipPath8)" width="316.21" height="106.7656" stroke="none"/>
    </g>
    <g fill="rgb(130,130,178)" stroke-miterlimit="1.45" transform="matrix(1,0,0,1,180,134)" stroke-linecap="butt" stroke="rgb(130,130,178)">
      <rect fill="none" width="316.21" x="0" height="151.375" y="0"/>
    </g>
    <g font-size="16" font-weight="bold" font-family="sans-serif" transform="matrix(1,0,0,1,180,134)">
      <text xml:space="preserve" x="72.605" y="18.8594" onclick="umlload('#')" stroke="none">GetDatasetFamilies</text>
    </g>
    <g font-family="sans-serif" transform="matrix(1,0,0,1,180,134)">
      <text xml:space="preserve" x="4" y="38.1719" stroke="none">+</text>
      <text xml:space="preserve" x="19" y="39.7812" onclick="umlload('#GetDatasetFamilies(nde2.pull.types.Subject)')" stroke="none">GetDatasetFamilies(Subject)</text>
    </g>
    <g font-family="sans-serif" transform="matrix(1,0,0,1,180,134)">
      <text xml:space="preserve" x="4" y="55.1719" stroke="none">#</text>
      <text xml:space="preserve" x="19" y="56.75" onclick="umlload('#collectParams()')" stroke="none">collectParams() : Map&lt;String, String&gt;</text>
    </g>
    <g font-family="sans-serif" transform="matrix(1,0,0,1,180,134)">
      <text xml:space="preserve" x="4" y="71.1719" stroke="none">+</text>
      <text xml:space="preserve" x="19" y="72.7188" onclick="umlload('#execute()')" stroke="none">execute() : List&lt;DataSetFamily&gt;</text>
    </g>
    <g font-family="sans-serif" transform="matrix(1,0,0,1,180,134)">
      <text xml:space="preserve" x="4" y="87.1719" stroke="none">#</text>
      <text xml:space="preserve" x="19" y="88.6875" onclick="umlload('#execute(java.util.Map)')" stroke="none">execute(Map&lt;String, String&gt;) : XmlPullParser</text>
    </g>
    <g font-family="sans-serif" transform="matrix(1,0,0,1,180,134)">
      <text xml:space="preserve" x="4" y="103.1719" stroke="none">+</text>
      <text xml:space="preserve" x="19" y="104.6562" onclick="umlload('#forArea(nde2.pull.types.Area)')" stroke="none">forArea(Area) : GetDatasetFamilies</text>
    </g>
    <g font-family="sans-serif" transform="matrix(1,0,0,1,180,134)">
      <text xml:space="preserve" x="4" y="119.1719" stroke="none">+</text>
      <text xml:space="preserve" x="19" y="120.625" onclick="umlload('#toURLString()')" stroke="none">toURLString() : String</text>
    </g>
    <g font-family="sans-serif" transform="matrix(1,0,0,1,180,134)">
      <text xml:space="preserve" x="-174" y="184.1562" onclick="umlload('http://www.yworks.com/')" stroke="none">yWorks UML Doclet</text>
    </g>
    <g stroke-miterlimit="1.45" transform="matrix(1,0,0,1,180,134)" stroke-linecap="butt">
      <path fill="none" d="M158.105 0.0124 L158.105 -69"/>
      <path fill="white" d="M158.105 -84 L152.105 -68 L164.105 -68 Z" stroke="none"/>
      <path fill="none" d="M158.105 -84 L152.105 -68 L164.105 -68 Z"/>
      <path fill="none" d="M0.0162 11.5625 L-76.48 11.5625"/>
      <line stroke-linecap="square" transform="matrix(-1,0,0,-1,-76.48,11.5625)" fill="none" x1="0" x2="-14" y1="0" y2="-4" stroke-miterlimit="10"/>
      <line stroke-linecap="square" transform="matrix(-1,0,0,-1,-76.48,11.5625)" fill="none" x1="0" x2="-14" y1="0" y2="4" stroke-miterlimit="10"/>
    </g>
    <g stroke-miterlimit="1.45" transform="matrix(1,0,0,1,180,134)" stroke-linecap="butt">
      <path fill="none" d="M0.0029 98.6875 L-127.98 98.6875"/>
      <line stroke-linecap="square" transform="matrix(-1,0,0,-1,-127.98,98.6875)" fill="none" x1="0" x2="-14" y1="0" y2="-4" stroke-miterlimit="10"/>
      <line stroke-linecap="square" transform="matrix(-1,0,0,-1,-127.98,98.6875)" fill="none" x1="0" x2="-14" y1="0" y2="4" stroke-miterlimit="10"/>
    </g>
    <g stroke-miterlimit="1.45" transform="matrix(1,0,0,1,180,134)" stroke-linecap="butt">
      <path fill="none" d="M-0.0218 131.8125 L-106.35 131.8125"/>
      <line stroke-linecap="square" transform="matrix(-1,0,0,-1,-106.35,131.8125)" fill="none" x1="0" x2="-14" y1="0" y2="-4" stroke-miterlimit="10"/>
      <line stroke-linecap="square" transform="matrix(-1,0,0,-1,-106.35,131.8125)" fill="none" x1="0" x2="-14" y1="0" y2="4" stroke-miterlimit="10"/>
    </g>
    <g stroke-dasharray="6,2" stroke-miterlimit="1.45" transform="matrix(1,0,0,1,180,134)" stroke-linecap="butt">
      <path fill="none" d="M316.1943 16.3518 L382.21 16.3518"/>
      <line stroke-linecap="square" transform="matrix(1,0,0,1,382.21,16.3518)" fill="none" x1="0" x2="-14" y1="0" y2="-4" stroke-dasharray="none" stroke-miterlimit="10"/>
      <line stroke-linecap="square" transform="matrix(1,0,0,1,382.21,16.3518)" fill="none" x1="0" x2="-14" y1="0" y2="4" stroke-dasharray="none" stroke-miterlimit="10"/>
    </g>
    <g stroke-dasharray="6,2" stroke-miterlimit="1.45" transform="matrix(1,0,0,1,180,134)" stroke-linecap="butt">
      <path fill="none" d="M316.2342 59.0555 L382.21 59.0555"/>
      <line stroke-linecap="square" transform="matrix(1,0,0,1,382.21,59.0555)" fill="none" x1="0" x2="-14" y1="0" y2="-4" stroke-dasharray="none" stroke-miterlimit="10"/>
      <line stroke-linecap="square" transform="matrix(1,0,0,1,382.21,59.0555)" fill="none" x1="0" x2="-14" y1="0" y2="4" stroke-dasharray="none" stroke-miterlimit="10"/>
    </g>
  </g>
</svg>
