<?xml version="1.0" encoding="UTF-8"?>
<svg xmlns="http://www.w3.org/2000/svg" xmlns:xlink="http://www.w3.org/1999/xlink" fill-opacity="1" color-rendering="auto" color-interpolation="auto" stroke="black" text-rendering="auto" stroke-linecap="square" width="1250" stroke-miterlimit="10" stroke-opacity="1" shape-rendering="auto" fill="black" stroke-dasharray="none" font-weight="normal" stroke-width="1" height="166" font-family="'Dialog'" font-style="normal" stroke-linejoin="miter" font-size="12" stroke-dashoffset="0" image-rendering="auto">
  <!--Generated by ySVG-->
  <defs id="genericDefs"/>
  <g>
    <defs id="defs1">
      <clipPath clipPathUnits="userSpaceOnUse" id="clipPath1">
        <path d="M0 0 L1250 0 L1250 166 L0 166 L0 0 Z"/>
      </clipPath>
      <clipPath clipPathUnits="userSpaceOnUse" id="clipPath2">
        <path d="M466.4853 26 L633.3453 26 L633.3453 49.125 L466.4853 49.125 L466.4853 26 Z"/>
      </clipPath>
      <clipPath clipPathUnits="userSpaceOnUse" id="clipPath3">
        <path d="M8 99.125 L92.46 99.125 L92.46 122.25 L8 122.25 L8 99.125 Z"/>
      </clipPath>
      <clipPath clipPathUnits="userSpaceOnUse" id="clipPath4">
        <path d="M142.4601 99.125 L275.3301 99.125 L275.3301 122.25 L142.4601 122.25 L142.4601 99.125 Z"/>
      </clipPath>
      <clipPath clipPathUnits="userSpaceOnUse" id="clipPath5">
        <path d="M325.3301 99.125 L439.6601 99.125 L439.6601 122.25 L325.3301 122.25 L325.3301 99.125 Z"/>
      </clipPath>
      <clipPath clipPathUnits="userSpaceOnUse" id="clipPath6">
        <path d="M489.6603 99.125 L610.1703 99.125 L610.1703 122.25 L489.6603 122.25 L489.6603 99.125 Z"/>
      </clipPath>
      <clipPath clipPathUnits="userSpaceOnUse" id="clipPath7">
        <path d="M660.1707 99.125 L847.6306 99.125 L847.6306 122.25 L660.1707 122.25 L660.1707 99.125 Z"/>
      </clipPath>
      <clipPath clipPathUnits="userSpaceOnUse" id="clipPath8">
        <path d="M897.6306 99.125 L1055.2206 99.125 L1055.2206 122.25 L897.6306 122.25 L897.6306 99.125 Z"/>
      </clipPath>
      <clipPath clipPathUnits="userSpaceOnUse" id="clipPath9">
        <path d="M1105.2206 99.125 L1241.1807 99.125 L1241.1807 122.25 L1105.2206 122.25 L1105.2206 99.125 Z"/>
      </clipPath>
      <script type="text/ecmascript"><![CDATA[
function umlload(newLocation)
{
if (newLocation.charAt(0) != '#') {
if (newLocation.indexOf("://") > -1) {
window.parent.location.href = newLocation;
} else {
var tmp = window.parent.location.href;
tmp = tmp.substring(0, tmp.lastIndexOf("/") + 1);
window.parent.location.href = tmp.concat(newLocation);
}
} else {
window.parent.location.hash = newLocation;
}
}
]]></script>
    </defs>
    <g fill="rgb(238,238,255)" stroke="rgb(238,238,255)">
      <rect width="228.9108" x="0" height="17.9688" y="0" stroke="none"/>
    </g>
    <g fill="rgb(166,166,178)" stroke-miterlimit="1.45" stroke-linecap="butt" stroke="rgb(166,166,178)">
      <rect fill="none" width="228.9108" x="0" height="17.9688" y="0"/>
    </g>
    <g fill="rgb(238,238,255)" stroke="rgb(238,238,255)">
      <rect width="1249.1806" x="0" height="112.2812" y="17.9688" stroke="none"/>
    </g>
    <g fill="rgb(166,166,178)" stroke-miterlimit="1.45" stroke-linecap="butt" stroke="rgb(166,166,178)">
      <rect fill="none" width="1249.1806" x="0" height="112.2812" y="17.9688"/>
    </g>
    <g font-family="sans-serif">
      <text xml:space="preserve" x="6" y="13.1406" onclick="umlload('#')" stroke="none">nde2.pull.methodcalls.discovery</text>
    </g>
    <g fill="rgb(204,204,255)" stroke="rgb(204,204,255)">
      <rect x="466.4853" y="26" clip-path="url(#clipPath2)" width="166.86" height="23.125" stroke="none"/>
    </g>
    <g fill="rgb(142,142,178)" stroke-miterlimit="1.45" stroke-linecap="butt" stroke="rgb(142,142,178)">
      <rect fill="none" width="166.86" x="466.4853" height="23.125" y="26"/>
    </g>
    <g font-size="13" font-weight="bold" font-family="sans-serif">
      <text xml:space="preserve" x="472.9153" y="42.0625" onclick="umlload('DiscoveryMethodCall.html')" stroke="none">DiscoveryMethodCall</text>
    </g>
    <g fill="rgb(187,187,255)" stroke="rgb(187,187,255)">
      <rect x="8" y="99.125" clip-path="url(#clipPath3)" width="84.46" height="23.125" stroke="none"/>
    </g>
    <g fill="rgb(130,130,178)" stroke-miterlimit="1.45" stroke-linecap="butt" stroke="rgb(130,130,178)">
      <rect fill="none" width="84.46" x="8" height="23.125" y="99.125"/>
    </g>
    <g font-size="13" font-weight="bold" font-family="sans-serif">
      <text xml:space="preserve" x="13.23" y="115.1875" onclick="umlload('FindAreas.html')" stroke="none">FindAreas</text>
    </g>
    <g fill="rgb(187,187,255)" stroke="rgb(187,187,255)">
      <rect x="142.4601" y="99.125" clip-path="url(#clipPath4)" width="132.87" height="23.125" stroke="none"/>
    </g>
    <g fill="rgb(130,130,178)" stroke-miterlimit="1.45" stroke-linecap="butt" stroke="rgb(130,130,178)">
      <rect fill="none" width="132.87" x="142.4601" height="23.125" y="99.125"/>
    </g>
    <g font-size="13" font-weight="bold" font-family="sans-serif">
      <text xml:space="preserve" x="148.3951" y="115.1875" onclick="umlload('GetAreaChildren.html')" stroke="none">GetAreaChildren</text>
    </g>
    <g fill="rgb(187,187,255)" stroke="rgb(187,187,255)">
      <rect x="325.3301" y="99.125" clip-path="url(#clipPath5)" width="114.33" height="23.125" stroke="none"/>
    </g>
    <g fill="rgb(130,130,178)" stroke-miterlimit="1.45" stroke-linecap="butt" stroke="rgb(130,130,178)">
      <rect fill="none" width="114.33" x="325.3301" height="23.125" y="99.125"/>
    </g>
    <g font-size="13" font-weight="bold" font-family="sans-serif">
      <text xml:space="preserve" x="330.9951" y="115.1875" onclick="umlload('GetAreaDetail.html')" stroke="none">GetAreaDetail</text>
    </g>
    <g fill="rgb(187,187,255)" stroke="rgb(187,187,255)">
      <rect x="489.6603" y="99.125" clip-path="url(#clipPath6)" width="120.51" height="23.125" stroke="none"/>
    </g>
    <g fill="rgb(130,130,178)" stroke-miterlimit="1.45" stroke-linecap="butt" stroke="rgb(130,130,178)">
      <rect fill="none" width="120.51" x="489.6603" height="23.125" y="99.125"/>
    </g>
    <g font-size="13" font-weight="bold" font-family="sans-serif">
      <text xml:space="preserve" x="495.4153" y="115.1875" onclick="umlload('GetAreaParent.html')" stroke="none">GetAreaParent</text>
    </g>
    <g fill="rgb(187,187,255)" stroke="rgb(187,187,255)">
      <rect x="660.1706" y="99.125" clip-path="url(#clipPath7)" width="187.46" height="23.125" stroke="none"/>
    </g>
    <g fill="rgb(130,130,178)" stroke-miterlimit="1.45" stroke-linecap="butt" stroke="rgb(130,130,178)">
      <rect fill="none" width="187.46" x="660.1706" height="23.125" y="99.125"/>
    </g>
    <g font-size="13" font-weight="bold" font-family="sans-serif">
      <text xml:space="preserve" x="666.9006" y="115.1875" onclick="umlload('GetCompatibleSubjects.html')" stroke="none">GetCompatibleSubjects</text>
    </g>
    <g fill="rgb(187,187,255)" stroke="rgb(187,187,255)">
      <rect x="897.6306" y="99.125" clip-path="url(#clipPath8)" width="157.59" height="23.125" stroke="none"/>
    </g>
    <g fill="rgb(130,130,178)" stroke-miterlimit="1.45" stroke-linecap="butt" stroke="rgb(130,130,178)">
      <rect fill="none" width="157.59" x="897.6306" height="23.125" y="99.125"/>
    </g>
    <g font-size="13" font-weight="bold" font-family="sans-serif">
      <text xml:space="preserve" x="903.9257" y="115.1875" onclick="umlload('GetDatasetFamilies.html')" stroke="none">GetDatasetFamilies</text>
    </g>
    <g fill="rgb(187,187,255)" stroke="rgb(187,187,255)">
      <rect x="1105.2206" y="99.125" clip-path="url(#clipPath9)" width="135.96" height="23.125" stroke="none"/>
    </g>
    <g fill="rgb(130,130,178)" stroke-miterlimit="1.45" stroke-linecap="butt" stroke="rgb(130,130,178)">
      <rect fill="none" width="135.96" x="1105.2206" height="23.125" y="99.125"/>
    </g>
    <g font-size="13" font-weight="bold" font-family="sans-serif">
      <text xml:space="preserve" x="1111.2007" y="115.1875" onclick="umlload('GetSubjectDetail.html')" stroke="none">GetSubjectDetail</text>
    </g>
    <g font-family="sans-serif">
      <text xml:space="preserve" x="6" y="155.1562" onclick="umlload('http://www.yworks.com/')" stroke="none">yWorks UML Doclet</text>
    </g>
    <g stroke-linecap="butt" stroke-miterlimit="1.45">
      <path fill="none" d="M50.23 99.125 L50.23 74.125 L549.9153 74.125 L549.9153 64.125"/>
      <path fill="white" d="M549.9153 49.125 L543.9153 65.125 L555.9153 65.125 Z" stroke="none"/>
      <path fill="none" d="M549.9153 49.125 L543.9153 65.125 L555.9153 65.125 Z"/>
      <path fill="none" d="M208.8951 99.125 L208.8951 74.125 L549.9153 74.125 L549.9153 64.125"/>
      <path fill="white" d="M549.9153 49.125 L543.9153 65.125 L555.9153 65.125 Z" stroke="none"/>
      <path fill="none" d="M549.9153 49.125 L543.9153 65.125 L555.9153 65.125 Z"/>
      <path fill="none" d="M382.4951 99.125 L382.4951 74.125 L549.9153 74.125 L549.9153 64.125"/>
      <path fill="white" d="M549.9153 49.125 L543.9153 65.125 L555.9153 65.125 Z" stroke="none"/>
      <path fill="none" d="M549.9153 49.125 L543.9153 65.125 L555.9153 65.125 Z"/>
      <path fill="none" d="M549.9153 99.125 L549.9153 64.125"/>
      <path fill="white" d="M549.9153 49.125 L543.9153 65.125 L555.9153 65.125 Z" stroke="none"/>
      <path fill="none" d="M549.9153 49.125 L543.9153 65.125 L555.9153 65.125 Z"/>
      <path fill="none" d="M753.9006 99.125 L753.9006 74.125 L549.9153 74.125 L549.9153 64.125"/>
      <path fill="white" d="M549.9153 49.125 L543.9153 65.125 L555.9153 65.125 Z" stroke="none"/>
      <path fill="none" d="M549.9153 49.125 L543.9153 65.125 L555.9153 65.125 Z"/>
      <path fill="none" d="M976.4257 99.125 L976.4257 74.125 L549.9153 74.125 L549.9153 64.125"/>
      <path fill="white" d="M549.9153 49.125 L543.9153 65.125 L555.9153 65.125 Z" stroke="none"/>
      <path fill="none" d="M549.9153 49.125 L543.9153 65.125 L555.9153 65.125 Z"/>
      <path fill="none" d="M1173.2007 99.125 L1173.2007 74.125 L549.9153 74.125 L549.9153 64.125"/>
      <path fill="white" d="M549.9153 49.125 L543.9153 65.125 L555.9153 65.125 Z" stroke="none"/>
      <path fill="none" d="M549.9153 49.125 L543.9153 65.125 L555.9153 65.125 Z"/>
    </g>
  </g>
</svg>
