<?xml version="1.0" encoding="UTF-8"?>
<svg xmlns="http://www.w3.org/2000/svg" xmlns:xlink="http://www.w3.org/1999/xlink" fill-opacity="1" color-rendering="auto" color-interpolation="auto" stroke="black" text-rendering="auto" stroke-linecap="square" width="832" stroke-miterlimit="10" stroke-opacity="1" shape-rendering="auto" fill="black" stroke-dasharray="none" font-weight="normal" stroke-width="1" height="430" font-family="'Dialog'" font-style="normal" stroke-linejoin="miter" font-size="12" stroke-dashoffset="0" image-rendering="auto">
  <!--Generated by ySVG-->
  <defs id="genericDefs"/>
  <g>
    <defs id="defs1">
      <clipPath clipPathUnits="userSpaceOnUse" id="clipPath1">
        <path d="M0 0 L832 0 L832 430 L0 430 L0 0 Z"/>
      </clipPath>
      <clipPath clipPathUnits="userSpaceOnUse" id="clipPath2">
        <path d="M553.19 0 L610.87 0 L610.87 23.125 L553.19 23.125 L553.19 0 Z"/>
      </clipPath>
      <clipPath clipPathUnits="userSpaceOnUse" id="clipPath3">
        <path d="M-103.8726 16.3518 C-103.8726 25.3827 -125.0678 32.7037 -151.2134 32.7037 C-177.359 32.7037 -198.5542 25.3827 -198.5542 16.3518 C-198.5542 7.321 -177.359 0 -151.2134 0 C-125.0678 0 -103.8726 7.321 -103.8726 16.3518 Z"/>
      </clipPath>
      <clipPath clipPathUnits="userSpaceOnUse" id="clipPath4">
        <path d="M-66 59.0555 C-66 68.0864 -95.6733 75.4074 -132.2771 75.4074 C-168.881 75.4074 -198.5542 68.0864 -198.5542 59.0555 C-198.5542 50.0247 -168.881 42.7037 -132.2771 42.7037 C-95.6733 42.7037 -66 50.0247 -66 59.0555 Z"/>
      </clipPath>
      <clipPath clipPathUnits="userSpaceOnUse" id="clipPath5">
        <path d="M131.84 -107.125 L355.35 -107.125 L355.35 -84 L131.84 -84 L131.84 -107.125 Z"/>
      </clipPath>
      <clipPath clipPathUnits="userSpaceOnUse" id="clipPath6">
        <path d="M0 0 L487.19 0 L487.19 252.2031 L0 252.2031 L0 0 Z"/>
      </clipPath>
      <script type="text/ecmascript"><![CDATA[
function umlload(newLocation)
{
if (newLocation.charAt(0) != '#') {
if (newLocation.indexOf("://") > -1) {
window.parent.location.href = newLocation;
} else {
var tmp = window.parent.location.href;
tmp = tmp.substring(0, tmp.lastIndexOf("/") + 1);
window.parent.location.href = tmp.concat(newLocation);
}
} else {
window.parent.location.hash = newLocation;
}
}
]]></script>
    </defs>
    <g fill="rgb(238,238,255)" transform="matrix(1,0,0,1,207,134)" stroke="rgb(238,238,255)">
      <rect width="76.1412" x="545.19" height="17.9688" y="-26" stroke="none"/>
    </g>
    <g fill="rgb(166,166,178)" stroke-miterlimit="1.45" transform="matrix(1,0,0,1,207,134)" stroke-linecap="butt" stroke="rgb(166,166,178)">
      <rect fill="none" width="76.1412" x="545.19" height="17.9688" y="-26"/>
    </g>
    <g fill="rgb(238,238,255)" transform="matrix(1,0,0,1,207,134)" stroke="rgb(238,238,255)">
      <rect width="79.68" x="545.19" height="39.1562" y="-8.0312" stroke="none"/>
    </g>
    <g fill="rgb(166,166,178)" stroke-miterlimit="1.45" transform="matrix(1,0,0,1,207,134)" stroke-linecap="butt" stroke="rgb(166,166,178)">
      <rect fill="none" width="79.68" x="545.19" height="39.1562" y="-8.0312"/>
    </g>
    <g font-family="sans-serif" transform="matrix(1,0,0,1,207,134)">
      <text xml:space="preserve" x="551.19" y="-12.8594" stroke="none">java.lang</text>
    </g>
    <g fill="rgb(187,187,255)" transform="matrix(1,0,0,1,207,134)" stroke="rgb(187,187,255)">
      <rect x="553.19" y="0" clip-path="url(#clipPath2)" width="57.68" height="23.125" stroke="none"/>
    </g>
    <g fill="rgb(130,130,178)" stroke-miterlimit="1.45" transform="matrix(1,0,0,1,207,134)" stroke-linecap="butt" stroke="rgb(130,130,178)">
      <rect fill="none" width="57.68" x="553.19" height="23.125" y="0"/>
    </g>
    <g font-size="13" font-weight="bold" font-family="sans-serif" transform="matrix(1,0,0,1,207,134)">
      <text xml:space="preserve" x="558.03" y="16.0625" stroke="none">Object</text>
    </g>
    <g fill="rgb(238,238,255)" transform="matrix(1,0,0,1,207,134)" stroke="rgb(238,238,255)">
      <rect width="67.654" x="-206.5542" height="17.9688" y="-26" stroke="none"/>
    </g>
    <g fill="rgb(166,166,178)" stroke-miterlimit="1.45" transform="matrix(1,0,0,1,207,134)" stroke-linecap="butt" stroke="rgb(166,166,178)">
      <rect fill="none" width="67.654" x="-206.5542" height="17.9688" y="-26"/>
    </g>
    <g fill="rgb(238,238,255)" transform="matrix(1,0,0,1,207,134)" stroke="rgb(238,238,255)">
      <rect width="148.5542" x="-206.5542" height="91.4386" y="-8.0312" stroke="none"/>
    </g>
    <g fill="rgb(166,166,178)" stroke-miterlimit="1.45" transform="matrix(1,0,0,1,207,134)" stroke-linecap="butt" stroke="rgb(166,166,178)">
      <rect fill="none" width="148.5542" x="-206.5542" height="91.4386" y="-8.0312"/>
    </g>
    <g font-family="sans-serif" transform="matrix(1,0,0,1,207,134)">
      <text xml:space="preserve" x="-200.5542" y="-12.8594" stroke="none">java.util</text>
    </g>
    <g fill="rgb(221,221,255)" transform="matrix(1,0,0,1,207,134)" stroke="rgb(221,221,255)">
      <rect x="-198.5542" y="0" clip-path="url(#clipPath3)" width="94.6816" height="32.7037" stroke="none"/>
    </g>
    <g fill="rgb(154,154,178)" stroke-miterlimit="1.45" transform="matrix(1,0,0,1,207,134)" stroke-linecap="butt" stroke="rgb(154,154,178)">
      <ellipse rx="47.3408" fill="none" ry="16.3518" cx="-151.2134" cy="16.3518"/>
    </g>
    <g font-style="italic" font-size="13" font-weight="bold" font-family="sans-serif" transform="matrix(1,0,0,1,207,134)">
      <text xml:space="preserve" x="-179.7134" y="20.8518" stroke="none">List&lt;E&gt;</text>
    </g>
    <g fill="rgb(221,221,255)" transform="matrix(1,0,0,1,207,134)" stroke="rgb(221,221,255)">
      <rect x="-198.5542" y="42.7037" clip-path="url(#clipPath4)" width="132.5542" height="32.7037" stroke="none"/>
    </g>
    <g fill="rgb(154,154,178)" stroke-miterlimit="1.45" transform="matrix(1,0,0,1,207,134)" stroke-linecap="butt" stroke="rgb(154,154,178)">
      <ellipse rx="66.2771" fill="none" ry="16.3518" cx="-132.2771" cy="59.0555"/>
    </g>
    <g font-style="italic" font-size="13" font-weight="bold" font-family="sans-serif" transform="matrix(1,0,0,1,207,134)">
      <text xml:space="preserve" x="-173.7771" y="63.5555" stroke="none">Map&lt;K, V&gt;</text>
    </g>
    <g fill="rgb(238,238,255)" transform="matrix(1,0,0,1,207,134)" stroke="rgb(238,238,255)">
      <rect width="162.0741" x="123.84" height="17.9688" y="-133.125" stroke="none"/>
    </g>
    <g fill="rgb(166,166,178)" stroke-miterlimit="1.45" transform="matrix(1,0,0,1,207,134)" stroke-linecap="butt" stroke="rgb(166,166,178)">
      <rect fill="none" width="162.0741" x="123.84" height="17.9688" y="-133.125"/>
    </g>
    <g fill="rgb(238,238,255)" transform="matrix(1,0,0,1,207,134)" stroke="rgb(238,238,255)">
      <rect width="239.51" x="123.84" height="39.1562" y="-115.1562" stroke="none"/>
    </g>
    <g fill="rgb(166,166,178)" stroke-miterlimit="1.45" transform="matrix(1,0,0,1,207,134)" stroke-linecap="butt" stroke="rgb(166,166,178)">
      <rect fill="none" width="239.51" x="123.84" height="39.1562" y="-115.1562"/>
    </g>
    <g font-family="sans-serif" transform="matrix(1,0,0,1,207,134)">
      <text xml:space="preserve" x="129.84" y="-119.9844" onclick="umlload('package-summary.html')" stroke="none">&lt;unnamed package&gt;</text>
    </g>
    <g fill="rgb(187,187,255)" transform="matrix(1,0,0,1,207,134)" stroke="rgb(187,187,255)">
      <rect x="131.84" y="-107.125" clip-path="url(#clipPath5)" width="223.51" height="23.125" stroke="none"/>
    </g>
    <g fill="rgb(130,130,178)" stroke-miterlimit="1.45" transform="matrix(1,0,0,1,207,134)" stroke-linecap="butt" stroke="rgb(130,130,178)">
      <rect fill="none" width="223.51" x="131.84" height="23.125" y="-107.125"/>
    </g>
    <g font-size="13" font-weight="bold" font-family="sans-serif" transform="matrix(1,0,0,1,207,134)">
      <text xml:space="preserve" x="139.095" y="-91.0625" stroke="none">BaseExpandableListAdapter</text>
    </g>
    <g fill="rgb(238,238,255)" transform="matrix(1,0,0,1,207,134)" stroke="rgb(238,238,255)">
      <rect width="203.4492" x="-8" height="17.9688" y="-26" stroke="none"/>
    </g>
    <g fill="rgb(166,166,178)" stroke-miterlimit="1.45" transform="matrix(1,0,0,1,207,134)" stroke-linecap="butt" stroke="rgb(166,166,178)">
      <rect fill="none" width="203.4492" x="-8" height="17.9688" y="-26"/>
    </g>
    <g fill="rgb(238,238,255)" transform="matrix(1,0,0,1,207,134)" stroke="rgb(238,238,255)">
      <rect width="503.19" x="-8" height="268.2344" y="-8.0312" stroke="none"/>
    </g>
    <g fill="rgb(166,166,178)" stroke-miterlimit="1.45" transform="matrix(1,0,0,1,207,134)" stroke-linecap="butt" stroke="rgb(166,166,178)">
      <rect fill="none" width="503.19" x="-8" height="268.2344" y="-8.0312"/>
    </g>
    <g font-family="sans-serif" transform="matrix(1,0,0,1,207,134)">
      <text xml:space="preserve" x="-2" y="-12.8594" onclick="umlload('package-summary.html')" stroke="none">lamparski.areabase.widgets</text>
    </g>
    <g fill="rgb(187,187,255)" transform="matrix(1,0,0,1,207,134)" stroke="rgb(187,187,255)">
      <rect x="0" y="0" clip-path="url(#clipPath6)" width="487.19" height="26.6406" stroke="none"/>
      <line clip-path="url(#clipPath6)" fill="none" x1="0" x2="487.19" y1="26.6406" y2="26.6406" stroke="black"/>
      <rect x="0" y="27.6406" clip-path="url(#clipPath6)" width="487.19" height="15.9688" stroke="none"/>
      <line clip-path="url(#clipPath6)" fill="none" x1="0" x2="487.19" y1="43.6094" y2="43.6094" stroke="black"/>
      <rect x="0" y="44.6094" clip-path="url(#clipPath6)" width="487.19" height="207.5938" stroke="none"/>
    </g>
    <g fill="rgb(130,130,178)" stroke-miterlimit="1.45" transform="matrix(1,0,0,1,207,134)" stroke-linecap="butt" stroke="rgb(130,130,178)">
      <rect fill="none" width="487.19" x="0" height="252.2031" y="0"/>
    </g>
    <g font-size="16" font-weight="bold" font-family="sans-serif" transform="matrix(1,0,0,1,207,134)">
      <text xml:space="preserve" x="109.595" y="18.8594" onclick="umlload('#')" stroke="none">SubjectExpandableListAdapter</text>
    </g>
    <g font-family="sans-serif" transform="matrix(1,0,0,1,207,134)">
      <text xml:space="preserve" x="4" y="38.1719" stroke="none">+</text>
      <text xml:space="preserve" x="19" y="39.7812" onclick="umlload('#SubjectExpandableListAdapter(Context, java.util.Map)')" stroke="none">SubjectExpandableListAdapter(Context, Map&lt;DataSetFamily, Dataset&gt;)</text>
    </g>
    <g font-family="sans-serif" transform="matrix(1,0,0,1,207,134)">
      <text xml:space="preserve" x="4" y="55.1719" stroke="none">+</text>
      <text xml:space="preserve" x="19" y="56.75" onclick="umlload('#getChild(int, int)')" stroke="none">getChild(int, int) : Object</text>
    </g>
    <g font-family="sans-serif" transform="matrix(1,0,0,1,207,134)">
      <text xml:space="preserve" x="4" y="71.1719" stroke="none">+</text>
      <text xml:space="preserve" x="19" y="72.7188" onclick="umlload('#getChildId(int, int)')" stroke="none">getChildId(int, int) : long</text>
    </g>
    <g font-family="sans-serif" transform="matrix(1,0,0,1,207,134)">
      <text xml:space="preserve" x="4" y="87.1719" stroke="none">+</text>
      <text xml:space="preserve" x="19" y="88.6875" onclick="umlload('#getChildItems()')" stroke="none">getChildItems() : Map&lt;DataSetFamily, List&lt;DataSetItem&gt;&gt;</text>
    </g>
    <g font-family="sans-serif" transform="matrix(1,0,0,1,207,134)">
      <text xml:space="preserve" x="4" y="103.1719" stroke="none">+</text>
      <text xml:space="preserve" x="19" y="104.6562" onclick="umlload('#getChildrenCount(int)')" stroke="none">getChildrenCount(int) : int</text>
    </g>
    <g font-family="sans-serif" transform="matrix(1,0,0,1,207,134)">
      <text xml:space="preserve" x="4" y="119.1719" stroke="none">+</text>
      <text xml:space="preserve" x="19" y="120.625" onclick="umlload('#getChildView(int, int, boolean, View, ViewGroup)')" stroke="none">getChildView(int, int, boolean, View, ViewGroup) : View</text>
    </g>
    <g font-family="sans-serif" transform="matrix(1,0,0,1,207,134)">
      <text xml:space="preserve" x="4" y="135.1719" stroke="none">+</text>
      <text xml:space="preserve" x="19" y="136.5938" onclick="umlload('#getGroup(int)')" stroke="none">getGroup(int) : Object</text>
    </g>
    <g font-family="sans-serif" transform="matrix(1,0,0,1,207,134)">
      <text xml:space="preserve" x="4" y="151.1719" stroke="none">+</text>
      <text xml:space="preserve" x="19" y="152.5625" onclick="umlload('#getGroupCount()')" stroke="none">getGroupCount() : int</text>
    </g>
    <g font-family="sans-serif" transform="matrix(1,0,0,1,207,134)">
      <text xml:space="preserve" x="4" y="167.1719" stroke="none">+</text>
      <text xml:space="preserve" x="19" y="168.5312" onclick="umlload('#getGroupId(int)')" stroke="none">getGroupId(int) : long</text>
    </g>
    <g font-family="sans-serif" transform="matrix(1,0,0,1,207,134)">
      <text xml:space="preserve" x="4" y="183.1719" stroke="none">+</text>
      <text xml:space="preserve" x="19" y="184.5" onclick="umlload('#getGroupView(int, boolean, View, ViewGroup)')" stroke="none">getGroupView(int, boolean, View, ViewGroup) : View</text>
    </g>
    <g font-family="sans-serif" transform="matrix(1,0,0,1,207,134)">
      <text xml:space="preserve" x="4" y="199.1719" stroke="none">+</text>
      <text xml:space="preserve" x="19" y="200.4688" onclick="umlload('#hasStableIds()')" stroke="none">hasStableIds() : boolean</text>
    </g>
    <g font-family="sans-serif" transform="matrix(1,0,0,1,207,134)">
      <text xml:space="preserve" x="4" y="215.1719" stroke="none">+</text>
      <text xml:space="preserve" x="19" y="216.4375" onclick="umlload('#isChildSelectable(int, int)')" stroke="none">isChildSelectable(int, int) : boolean</text>
    </g>
    <g font-family="sans-serif" transform="matrix(1,0,0,1,207,134)">
      <text xml:space="preserve" x="4" y="231.1719" stroke="none">+</text>
      <text xml:space="preserve" x="19" y="232.4062" onclick="umlload('#isGraphable(int)')" stroke="none">isGraphable(int) : boolean</text>
    </g>
    <g font-family="sans-serif" transform="matrix(1,0,0,1,207,134)">
      <text xml:space="preserve" x="4" y="247.1719" stroke="none">+</text>
      <text xml:space="preserve" x="19" y="248.375" onclick="umlload('#setItems(java.util.Map)')" stroke="none">setItems(Map&lt;DataSetFamily, Dataset&gt;) : void</text>
    </g>
    <g font-family="sans-serif" transform="matrix(1,0,0,1,207,134)">
      <text xml:space="preserve" x="-201" y="285.1562" onclick="umlload('http://www.yworks.com/')" stroke="none">yWorks UML Doclet</text>
    </g>
    <g stroke-miterlimit="1.45" transform="matrix(1,0,0,1,207,134)" stroke-linecap="butt">
      <path fill="none" d="M243.595 -0.0186 L243.595 -69"/>
      <path fill="white" d="M243.595 -84 L237.595 -68 L249.595 -68 Z" stroke="none"/>
      <path fill="none" d="M243.595 -84 L237.595 -68 L249.595 -68 Z"/>
      <path fill="none" d="M-0.0276 16.3518 L-103.8726 16.3518"/>
      <line stroke-linecap="square" transform="matrix(-1,0,0,-1,-103.8726,16.3518)" fill="none" x1="0" x2="-14" y1="0" y2="-4" stroke-miterlimit="10"/>
      <line stroke-linecap="square" transform="matrix(-1,0,0,-1,-103.8726,16.3518)" fill="none" x1="0" x2="-14" y1="0" y2="4" stroke-miterlimit="10"/>
    </g>
    <g stroke-miterlimit="1.45" transform="matrix(1,0,0,1,207,134)" stroke-linecap="butt">
      <path fill="none" d="M0.0031 59.0555 L-66 59.0555"/>
      <line stroke-linecap="square" transform="matrix(-1,0,0,-1,-66,59.0555)" fill="none" x1="0" x2="-14" y1="0" y2="-4" stroke-miterlimit="10"/>
      <line stroke-linecap="square" transform="matrix(-1,0,0,-1,-66,59.0555)" fill="none" x1="0" x2="-14" y1="0" y2="4" stroke-miterlimit="10"/>
    </g>
    <g stroke-dasharray="6,2" stroke-miterlimit="1.45" transform="matrix(1,0,0,1,207,134)" stroke-linecap="butt">
      <path fill="none" d="M487.217 11.5625 L553.19 11.5625"/>
      <line stroke-linecap="square" transform="matrix(1,0,0,1,553.19,11.5625)" fill="none" x1="0" x2="-14" y1="0" y2="-4" stroke-dasharray="none" stroke-miterlimit="10"/>
      <line stroke-linecap="square" transform="matrix(1,0,0,1,553.19,11.5625)" fill="none" x1="0" x2="-14" y1="0" y2="4" stroke-dasharray="none" stroke-miterlimit="10"/>
    </g>
  </g>
</svg>
