<?xml version="1.0" encoding="UTF-8"?>
<svg xmlns="http://www.w3.org/2000/svg" xmlns:xlink="http://www.w3.org/1999/xlink" fill-opacity="1" color-rendering="auto" color-interpolation="auto" stroke="black" text-rendering="auto" stroke-linecap="square" width="940" stroke-miterlimit="10" stroke-opacity="1" shape-rendering="auto" fill="black" stroke-dasharray="none" font-weight="normal" stroke-width="1" height="338" font-family="'Dialog'" font-style="normal" stroke-linejoin="miter" font-size="12" stroke-dashoffset="0" image-rendering="auto">
  <!--Generated by ySVG-->
  <defs id="genericDefs"/>
  <g>
    <defs id="defs1">
      <clipPath clipPathUnits="userSpaceOnUse" id="clipPath1">
        <path d="M0 0 L940 0 L940 338 L0 338 L0 0 Z"/>
      </clipPath>
      <clipPath clipPathUnits="userSpaceOnUse" id="clipPath2">
        <path d="M695.8497 136.6018 C695.8497 145.6327 652.155 152.9537 598.2549 152.9537 C544.3547 152.9537 500.66 145.6327 500.66 136.6018 C500.66 127.571 544.3547 120.25 598.2549 120.25 C652.155 120.25 695.8497 127.571 695.8497 136.6018 Z"/>
      </clipPath>
      <clipPath clipPathUnits="userSpaceOnUse" id="clipPath3">
        <path d="M500.66 0 L558.34 0 L558.34 23.125 L500.66 23.125 L500.66 0 Z"/>
      </clipPath>
      <clipPath clipPathUnits="userSpaceOnUse" id="clipPath4">
        <path d="M500.66 33.125 L554.22 33.125 L554.22 56.25 L500.66 56.25 L500.66 33.125 Z"/>
      </clipPath>
      <clipPath clipPathUnits="userSpaceOnUse" id="clipPath5">
        <path d="M-149.61 96.7037 L-97.08 96.7037 L-97.08 119.8287 L-149.61 119.8287 L-149.61 96.7037 Z"/>
      </clipPath>
      <clipPath clipPathUnits="userSpaceOnUse" id="clipPath6">
        <path d="M-66 16.3518 C-66 25.3827 -102.1949 32.7037 -146.8435 32.7037 C-191.4922 32.7037 -227.687 25.3827 -227.687 16.3518 C-227.687 7.321 -191.4922 0 -146.8435 0 C-102.1949 0 -66 7.321 -66 16.3518 Z"/>
      </clipPath>
      <clipPath clipPathUnits="userSpaceOnUse" id="clipPath7">
        <path d="M188.49 -107.125 L246.17 -107.125 L246.17 -84 L188.49 -84 L188.49 -107.125 Z"/>
      </clipPath>
      <clipPath clipPathUnits="userSpaceOnUse" id="clipPath8">
        <path d="M0 0 L434.66 0 L434.66 160.9537 L0 160.9537 L0 0 Z"/>
      </clipPath>
      <script type="text/ecmascript"><![CDATA[
function umlload(newLocation)
{
if (newLocation.charAt(0) != '#') {
if (newLocation.indexOf("://") > -1) {
window.parent.location.href = newLocation;
} else {
var tmp = window.parent.location.href;
tmp = tmp.substring(0, tmp.lastIndexOf("/") + 1);
window.parent.location.href = tmp.concat(newLocation);
}
} else {
window.parent.location.hash = newLocation;
}
}
]]></script>
    </defs>
    <g fill="rgb(238,238,255)" transform="matrix(1,0,0,1,236,134)" stroke="rgb(238,238,255)">
      <rect width="67.654" x="492.66" height="17.9688" y="94.25" stroke="none"/>
    </g>
    <g fill="rgb(166,166,178)" stroke-miterlimit="1.45" transform="matrix(1,0,0,1,236,134)" stroke-linecap="butt" stroke="rgb(166,166,178)">
      <rect fill="none" width="67.654" x="492.66" height="17.9688" y="94.25"/>
    </g>
    <g fill="rgb(238,238,255)" transform="matrix(1,0,0,1,236,134)" stroke="rgb(238,238,255)">
      <rect width="211.1898" x="492.66" height="48.7349" y="112.2188" stroke="none"/>
    </g>
    <g fill="rgb(166,166,178)" stroke-miterlimit="1.45" transform="matrix(1,0,0,1,236,134)" stroke-linecap="butt" stroke="rgb(166,166,178)">
      <rect fill="none" width="211.1898" x="492.66" height="48.7349" y="112.2188"/>
    </g>
    <g font-family="sans-serif" transform="matrix(1,0,0,1,236,134)">
      <text xml:space="preserve" x="498.66" y="107.3906" stroke="none">java.util</text>
    </g>
    <g fill="rgb(221,221,255)" transform="matrix(1,0,0,1,236,134)" stroke="rgb(221,221,255)">
      <rect x="500.66" y="120.25" clip-path="url(#clipPath2)" width="195.1898" height="32.7037" stroke="none"/>
    </g>
    <g fill="rgb(154,154,178)" stroke-miterlimit="1.45" transform="matrix(1,0,0,1,236,134)" stroke-linecap="butt" stroke="rgb(154,154,178)">
      <ellipse rx="97.5949" fill="none" ry="16.3518" cx="598.2549" cy="136.6018"/>
    </g>
    <g font-style="italic" font-size="13" font-weight="bold" font-family="sans-serif" transform="matrix(1,0,0,1,236,134)">
      <text xml:space="preserve" x="535.2549" y="141.1018" stroke="none">Map.Entry&lt;K, V&gt;</text>
    </g>
    <g fill="rgb(238,238,255)" transform="matrix(1,0,0,1,236,134)" stroke="rgb(238,238,255)">
      <rect width="76.1412" x="492.66" height="17.9688" y="-26" stroke="none"/>
    </g>
    <g fill="rgb(166,166,178)" stroke-miterlimit="1.45" transform="matrix(1,0,0,1,236,134)" stroke-linecap="butt" stroke="rgb(166,166,178)">
      <rect fill="none" width="76.1412" x="492.66" height="17.9688" y="-26"/>
    </g>
    <g fill="rgb(238,238,255)" transform="matrix(1,0,0,1,236,134)" stroke="rgb(238,238,255)">
      <rect width="79.68" x="492.66" height="72.2812" y="-8.0312" stroke="none"/>
    </g>
    <g fill="rgb(166,166,178)" stroke-miterlimit="1.45" transform="matrix(1,0,0,1,236,134)" stroke-linecap="butt" stroke="rgb(166,166,178)">
      <rect fill="none" width="79.68" x="492.66" height="72.2812" y="-8.0312"/>
    </g>
    <g font-family="sans-serif" transform="matrix(1,0,0,1,236,134)">
      <text xml:space="preserve" x="498.66" y="-12.8594" stroke="none">java.lang</text>
    </g>
    <g fill="rgb(187,187,255)" transform="matrix(1,0,0,1,236,134)" stroke="rgb(187,187,255)">
      <rect x="500.66" y="0" clip-path="url(#clipPath3)" width="57.68" height="23.125" stroke="none"/>
    </g>
    <g fill="rgb(130,130,178)" stroke-miterlimit="1.45" transform="matrix(1,0,0,1,236,134)" stroke-linecap="butt" stroke="rgb(130,130,178)">
      <rect fill="none" width="57.68" x="500.66" height="23.125" y="0"/>
    </g>
    <g font-size="13" font-weight="bold" font-family="sans-serif" transform="matrix(1,0,0,1,236,134)">
      <text xml:space="preserve" x="505.5" y="16.0625" stroke="none">Object</text>
    </g>
    <g fill="rgb(187,187,255)" transform="matrix(1,0,0,1,236,134)" stroke="rgb(187,187,255)">
      <rect x="500.66" y="33.125" clip-path="url(#clipPath4)" width="53.56" height="23.125" stroke="none"/>
    </g>
    <g fill="rgb(130,130,178)" stroke-miterlimit="1.45" transform="matrix(1,0,0,1,236,134)" stroke-linecap="butt" stroke="rgb(130,130,178)">
      <rect fill="none" width="53.56" x="500.66" height="23.125" y="33.125"/>
    </g>
    <g font-size="13" font-weight="bold" font-family="sans-serif" transform="matrix(1,0,0,1,236,134)">
      <text xml:space="preserve" x="505.44" y="49.1875" stroke="none">String</text>
    </g>
    <g fill="rgb(238,238,255)" transform="matrix(1,0,0,1,236,134)" stroke="rgb(238,238,255)">
      <rect width="96.2983" x="-157.61" height="17.9688" y="70.7037" stroke="none"/>
    </g>
    <g fill="rgb(166,166,178)" stroke-miterlimit="1.45" transform="matrix(1,0,0,1,236,134)" stroke-linecap="butt" stroke="rgb(166,166,178)">
      <rect fill="none" width="96.2983" x="-157.61" height="17.9688" y="70.7037"/>
    </g>
    <g fill="rgb(238,238,255)" transform="matrix(1,0,0,1,236,134)" stroke="rgb(238,238,255)">
      <rect width="99.53" x="-157.61" height="39.1562" y="88.6724" stroke="none"/>
    </g>
    <g fill="rgb(166,166,178)" stroke-miterlimit="1.45" transform="matrix(1,0,0,1,236,134)" stroke-linecap="butt" stroke="rgb(166,166,178)">
      <rect fill="none" width="99.53" x="-157.61" height="39.1562" y="88.6724"/>
    </g>
    <g font-family="sans-serif" transform="matrix(1,0,0,1,236,134)">
      <text xml:space="preserve" x="-151.61" y="83.8443" onclick="umlload('../../police/types/package-summary.html')" stroke="none">police.types</text>
    </g>
    <g fill="rgb(187,187,255)" transform="matrix(1,0,0,1,236,134)" stroke="rgb(187,187,255)">
      <rect x="-149.61" y="96.7037" clip-path="url(#clipPath5)" width="52.53" height="23.125" stroke="none"/>
    </g>
    <g fill="rgb(130,130,178)" stroke-miterlimit="1.45" transform="matrix(1,0,0,1,236,134)" stroke-linecap="butt" stroke="rgb(130,130,178)">
      <rect fill="none" width="52.53" x="-149.61" height="23.125" y="96.7037"/>
    </g>
    <g font-size="13" font-weight="bold" font-family="sans-serif" transform="matrix(1,0,0,1,236,134)">
      <text xml:space="preserve" x="-144.845" y="112.7662" onclick="umlload('../../police/types/Crime.html')" stroke="none">Crime</text>
    </g>
    <g fill="rgb(238,238,255)" transform="matrix(1,0,0,1,236,134)" stroke="rgb(238,238,255)">
      <rect width="67.654" x="-235.687" height="17.9688" y="-26" stroke="none"/>
    </g>
    <g fill="rgb(166,166,178)" stroke-miterlimit="1.45" transform="matrix(1,0,0,1,236,134)" stroke-linecap="butt" stroke="rgb(166,166,178)">
      <rect fill="none" width="67.654" x="-235.687" height="17.9688" y="-26"/>
    </g>
    <g fill="rgb(238,238,255)" transform="matrix(1,0,0,1,236,134)" stroke="rgb(238,238,255)">
      <rect width="177.687" x="-235.687" height="48.7349" y="-8.0312" stroke="none"/>
    </g>
    <g fill="rgb(166,166,178)" stroke-miterlimit="1.45" transform="matrix(1,0,0,1,236,134)" stroke-linecap="butt" stroke="rgb(166,166,178)">
      <rect fill="none" width="177.687" x="-235.687" height="48.7349" y="-8.0312"/>
    </g>
    <g font-family="sans-serif" transform="matrix(1,0,0,1,236,134)">
      <text xml:space="preserve" x="-229.687" y="-12.8594" stroke="none">java.util</text>
    </g>
    <g fill="rgb(221,221,255)" transform="matrix(1,0,0,1,236,134)" stroke="rgb(221,221,255)">
      <rect x="-227.687" y="0" clip-path="url(#clipPath6)" width="161.687" height="32.7037" stroke="none"/>
    </g>
    <g fill="rgb(154,154,178)" stroke-miterlimit="1.45" transform="matrix(1,0,0,1,236,134)" stroke-linecap="butt" stroke="rgb(154,154,178)">
      <ellipse rx="80.8435" fill="none" ry="16.3518" cx="-146.8435" cy="16.3518"/>
    </g>
    <g font-style="italic" font-size="13" font-weight="bold" font-family="sans-serif" transform="matrix(1,0,0,1,236,134)">
      <text xml:space="preserve" x="-198.3435" y="20.8518" stroke="none">Collection&lt;E&gt;</text>
    </g>
    <g fill="rgb(238,238,255)" transform="matrix(1,0,0,1,236,134)" stroke="rgb(238,238,255)">
      <rect width="76.1412" x="180.49" height="17.9688" y="-133.125" stroke="none"/>
    </g>
    <g fill="rgb(166,166,178)" stroke-miterlimit="1.45" transform="matrix(1,0,0,1,236,134)" stroke-linecap="butt" stroke="rgb(166,166,178)">
      <rect fill="none" width="76.1412" x="180.49" height="17.9688" y="-133.125"/>
    </g>
    <g fill="rgb(238,238,255)" transform="matrix(1,0,0,1,236,134)" stroke="rgb(238,238,255)">
      <rect width="76.1412" x="180.49" height="39.1562" y="-115.1562" stroke="none"/>
    </g>
    <g fill="rgb(166,166,178)" stroke-miterlimit="1.45" transform="matrix(1,0,0,1,236,134)" stroke-linecap="butt" stroke="rgb(166,166,178)">
      <rect fill="none" width="76.1412" x="180.49" height="39.1562" y="-115.1562"/>
    </g>
    <g font-family="sans-serif" transform="matrix(1,0,0,1,236,134)">
      <text xml:space="preserve" x="186.49" y="-119.9844" stroke="none">java.lang</text>
    </g>
    <g fill="rgb(187,187,255)" transform="matrix(1,0,0,1,236,134)" stroke="rgb(187,187,255)">
      <rect x="188.49" y="-107.125" clip-path="url(#clipPath7)" width="57.68" height="23.125" stroke="none"/>
    </g>
    <g fill="rgb(130,130,178)" stroke-miterlimit="1.45" transform="matrix(1,0,0,1,236,134)" stroke-linecap="butt" stroke="rgb(130,130,178)">
      <rect fill="none" width="57.68" x="188.49" height="23.125" y="-107.125"/>
    </g>
    <g font-size="13" font-weight="bold" font-family="sans-serif" transform="matrix(1,0,0,1,236,134)">
      <text xml:space="preserve" x="193.33" y="-91.0625" stroke="none">Object</text>
    </g>
    <g fill="rgb(238,238,255)" transform="matrix(1,0,0,1,236,134)" stroke="rgb(238,238,255)">
      <rect width="96.2983" x="-8" height="17.9688" y="-26" stroke="none"/>
    </g>
    <g fill="rgb(166,166,178)" stroke-miterlimit="1.45" transform="matrix(1,0,0,1,236,134)" stroke-linecap="butt" stroke="rgb(166,166,178)">
      <rect fill="none" width="96.2983" x="-8" height="17.9688" y="-26"/>
    </g>
    <g fill="rgb(238,238,255)" transform="matrix(1,0,0,1,236,134)" stroke="rgb(238,238,255)">
      <rect width="450.66" x="-8" height="176.9849" y="-8.0312" stroke="none"/>
    </g>
    <g fill="rgb(166,166,178)" stroke-miterlimit="1.45" transform="matrix(1,0,0,1,236,134)" stroke-linecap="butt" stroke="rgb(166,166,178)">
      <rect fill="none" width="450.66" x="-8" height="176.9849" y="-8.0312"/>
    </g>
    <g font-family="sans-serif" transform="matrix(1,0,0,1,236,134)">
      <text xml:space="preserve" x="-2" y="-12.8594" onclick="umlload('package-summary.html')" stroke="none">police.types</text>
    </g>
    <g fill="rgb(187,187,255)" transform="matrix(1,0,0,1,236,134)" stroke="rgb(187,187,255)">
      <rect x="0" y="0" clip-path="url(#clipPath8)" width="434.66" height="26.6406" stroke="none"/>
      <line clip-path="url(#clipPath8)" fill="none" x1="0" x2="434.66" y1="26.6406" y2="26.6406" stroke="black"/>
      <rect x="0" y="27.6406" clip-path="url(#clipPath8)" width="434.66" height="15.9688" stroke="none"/>
      <line clip-path="url(#clipPath8)" fill="none" x1="0" x2="434.66" y1="43.6094" y2="43.6094" stroke="black"/>
      <rect x="0" y="44.6094" clip-path="url(#clipPath8)" width="434.66" height="116.3443" stroke="none"/>
    </g>
    <g fill="rgb(130,130,178)" stroke-miterlimit="1.45" transform="matrix(1,0,0,1,236,134)" stroke-linecap="butt" stroke="rgb(130,130,178)">
      <rect fill="none" width="434.66" x="0" height="160.9537" y="0"/>
    </g>
    <g font-size="16" font-weight="bold" font-family="sans-serif" transform="matrix(1,0,0,1,236,134)">
      <text xml:space="preserve" x="164.33" y="18.8594" onclick="umlload('#')" stroke="none">CaseHistory</text>
    </g>
    <g font-family="sans-serif" transform="matrix(1,0,0,1,236,134)">
      <text xml:space="preserve" x="4" y="38.1719" stroke="none">+</text>
      <text xml:space="preserve" x="19" y="39.7812" onclick="umlload('#CaseHistory(java.util.Collection, police.types.Crime)')" stroke="none">CaseHistory(Collection&lt;Outcome&gt;, Crime)</text>
    </g>
    <g font-family="sans-serif" transform="matrix(1,0,0,1,236,134)">
      <text xml:space="preserve" x="4" y="55.1719" stroke="none">+</text>
      <text xml:space="preserve" x="19" y="56.75" onclick="umlload('#equals(java.lang.Object)')" stroke="none">equals(Object) : boolean</text>
    </g>
    <g font-family="sans-serif" transform="matrix(1,0,0,1,236,134)">
      <text xml:space="preserve" x="4" y="71.1719" stroke="none">+</text>
      <text xml:space="preserve" x="19" y="72.7188" onclick="umlload('#getCrime()')" stroke="none">getCrime() : Crime</text>
    </g>
    <g font-family="sans-serif" transform="matrix(1,0,0,1,236,134)">
      <text xml:space="preserve" x="4" y="87.1719" stroke="none">+</text>
      <text xml:space="preserve" x="19" y="88.6875" onclick="umlload('#getOutcomes()')" stroke="none">getOutcomes() : Collection&lt;Outcome&gt;</text>
    </g>
    <g font-family="sans-serif" transform="matrix(1,0,0,1,236,134)">
      <text xml:space="preserve" x="4" y="103.1719" stroke="none">+</text>
      <text xml:space="preserve" x="19" y="104.6562" onclick="umlload('#hashCode()')" stroke="none">hashCode() : int</text>
    </g>
    <g font-family="sans-serif" transform="matrix(1,0,0,1,236,134)">
      <text xml:space="preserve" x="4" y="119.1719" stroke="none">+</text>
      <text xml:space="preserve" x="19" y="120.625" onclick="umlload('#toString()')" stroke="none">toString() : String</text>
    </g>
    <g font-family="sans-serif" transform="matrix(1,0,0,1,236,134)">
      <text xml:space="preserve" x="4" y="135.1719" stroke="none">+</text>
      <text xml:space="preserve" x="19" y="136.5938" onclick="umlload('#toStringWithExtraInfo()')" stroke="none">toStringWithExtraInfo() : Map.Entry&lt;String, Collection&lt;String&gt;&gt;</text>
    </g>
    <g font-family="sans-serif" transform="matrix(1,0,0,1,236,134)">
      <text xml:space="preserve" x="-230" y="193.1562" onclick="umlload('http://www.yworks.com/')" stroke="none">yWorks UML Doclet</text>
    </g>
    <g stroke-miterlimit="1.45" transform="matrix(1,0,0,1,236,134)" stroke-linecap="butt">
      <path fill="none" d="M217.33 -0.008 L217.33 -69"/>
      <path fill="white" d="M217.33 -84 L211.33 -68 L223.33 -68 Z" stroke="none"/>
      <path fill="none" d="M217.33 -84 L211.33 -68 L223.33 -68 Z"/>
      <path fill="none" d="M-0.0094 16.3518 L-66 16.3518"/>
      <line stroke-linecap="square" transform="matrix(-1,0,0,-1,-66,16.3518)" fill="none" x1="0" x2="-14" y1="0" y2="-4" stroke-miterlimit="10"/>
      <line stroke-linecap="square" transform="matrix(-1,0,0,-1,-66,16.3518)" fill="none" x1="0" x2="-14" y1="0" y2="4" stroke-miterlimit="10"/>
    </g>
    <g stroke-miterlimit="1.45" transform="matrix(1,0,0,1,236,134)" stroke-linecap="butt">
      <path fill="none" d="M0.0416 108.2662 L-97.08 108.2662"/>
      <line stroke-linecap="square" transform="matrix(-1,0,0,-1,-97.08,108.2662)" fill="none" x1="0" x2="-14" y1="0" y2="-4" stroke-miterlimit="10"/>
      <line stroke-linecap="square" transform="matrix(-1,0,0,-1,-97.08,108.2662)" fill="none" x1="0" x2="-14" y1="0" y2="4" stroke-miterlimit="10"/>
    </g>
    <g stroke-dasharray="6,2" stroke-miterlimit="1.45" transform="matrix(1,0,0,1,236,134)" stroke-linecap="butt">
      <path fill="none" d="M434.6524 11.5625 L500.66 11.5625"/>
      <line stroke-linecap="square" transform="matrix(1,0,0,1,500.66,11.5625)" fill="none" x1="0" x2="-14" y1="0" y2="-4" stroke-dasharray="none" stroke-miterlimit="10"/>
      <line stroke-linecap="square" transform="matrix(1,0,0,1,500.66,11.5625)" fill="none" x1="0" x2="-14" y1="0" y2="4" stroke-dasharray="none" stroke-miterlimit="10"/>
    </g>
    <g stroke-dasharray="6,2" stroke-miterlimit="1.45" transform="matrix(1,0,0,1,236,134)" stroke-linecap="butt">
      <path fill="none" d="M434.6568 44.6875 L500.66 44.6875"/>
      <line stroke-linecap="square" transform="matrix(1,0,0,1,500.66,44.6875)" fill="none" x1="0" x2="-14" y1="0" y2="-4" stroke-dasharray="none" stroke-miterlimit="10"/>
      <line stroke-linecap="square" transform="matrix(1,0,0,1,500.66,44.6875)" fill="none" x1="0" x2="-14" y1="0" y2="4" stroke-dasharray="none" stroke-miterlimit="10"/>
    </g>
    <g stroke-dasharray="6,2" stroke-miterlimit="1.45" transform="matrix(1,0,0,1,236,134)" stroke-linecap="butt">
      <path fill="none" d="M434.6227 136.6018 L500.66 136.6018"/>
      <line stroke-linecap="square" transform="matrix(1,0,0,1,500.66,136.6018)" fill="none" x1="0" x2="-14" y1="0" y2="-4" stroke-dasharray="none" stroke-miterlimit="10"/>
      <line stroke-linecap="square" transform="matrix(1,0,0,1,500.66,136.6018)" fill="none" x1="0" x2="-14" y1="0" y2="4" stroke-dasharray="none" stroke-miterlimit="10"/>
    </g>
  </g>
</svg>
