<?xml version="1.0" encoding="UTF-8"?>
<svg xmlns="http://www.w3.org/2000/svg" xmlns:xlink="http://www.w3.org/1999/xlink" fill-opacity="1" color-rendering="auto" color-interpolation="auto" stroke="black" text-rendering="auto" stroke-linecap="square" width="963" stroke-miterlimit="10" stroke-opacity="1" shape-rendering="auto" fill="black" stroke-dasharray="none" font-weight="normal" stroke-width="1" height="366" font-family="'Dialog'" font-style="normal" stroke-linejoin="miter" font-size="12" stroke-dashoffset="0" image-rendering="auto">
  <!--Generated by ySVG-->
  <defs id="genericDefs"/>
  <g>
    <defs id="defs1">
      <clipPath clipPathUnits="userSpaceOnUse" id="clipPath1">
        <path d="M0 0 L963 0 L963 366 L0 366 L0 0 Z"/>
      </clipPath>
      <clipPath clipPathUnits="userSpaceOnUse" id="clipPath2">
        <path d="M655.16 0 L712.84 0 L712.84 23.125 L655.16 23.125 L655.16 0 Z"/>
      </clipPath>
      <clipPath clipPathUnits="userSpaceOnUse" id="clipPath3">
        <path d="M-66 103.4768 C-66 112.5077 -102.1949 119.8287 -146.8435 119.8287 C-191.4922 119.8287 -227.687 112.5077 -227.687 103.4768 C-227.687 94.446 -191.4922 87.125 -146.8435 87.125 C-102.1949 87.125 -66 94.446 -66 103.4768 Z"/>
      </clipPath>
      <clipPath clipPathUnits="userSpaceOnUse" id="clipPath4">
        <path d="M-130.04 0 L-76.48 0 L-76.48 23.125 L-130.04 23.125 L-130.04 0 Z"/>
      </clipPath>
      <clipPath clipPathUnits="userSpaceOnUse" id="clipPath5">
        <path d="M265.74 -107.125 L323.42 -107.125 L323.42 -84 L265.74 -84 L265.74 -107.125 Z"/>
      </clipPath>
      <clipPath clipPathUnits="userSpaceOnUse" id="clipPath6">
        <path d="M0 0 L589.16 0 L589.16 188.3281 L0 188.3281 L0 0 Z"/>
      </clipPath>
      <script type="text/ecmascript"><![CDATA[
function umlload(newLocation)
{
if (newLocation.charAt(0) != '#') {
if (newLocation.indexOf("://") > -1) {
window.parent.location.href = newLocation;
} else {
var tmp = window.parent.location.href;
tmp = tmp.substring(0, tmp.lastIndexOf("/") + 1);
window.parent.location.href = tmp.concat(newLocation);
}
} else {
window.parent.location.hash = newLocation;
}
}
]]></script>
    </defs>
    <g fill="rgb(238,238,255)" transform="matrix(1,0,0,1,236,134)" stroke="rgb(238,238,255)">
      <rect width="76.1412" x="647.16" height="17.9688" y="-26" stroke="none"/>
    </g>
    <g fill="rgb(166,166,178)" stroke-miterlimit="1.45" transform="matrix(1,0,0,1,236,134)" stroke-linecap="butt" stroke="rgb(166,166,178)">
      <rect fill="none" width="76.1412" x="647.16" height="17.9688" y="-26"/>
    </g>
    <g fill="rgb(238,238,255)" transform="matrix(1,0,0,1,236,134)" stroke="rgb(238,238,255)">
      <rect width="79.68" x="647.16" height="39.1562" y="-8.0312" stroke="none"/>
    </g>
    <g fill="rgb(166,166,178)" stroke-miterlimit="1.45" transform="matrix(1,0,0,1,236,134)" stroke-linecap="butt" stroke="rgb(166,166,178)">
      <rect fill="none" width="79.68" x="647.16" height="39.1562" y="-8.0312"/>
    </g>
    <g font-family="sans-serif" transform="matrix(1,0,0,1,236,134)">
      <text xml:space="preserve" x="653.16" y="-12.8594" stroke="none">java.lang</text>
    </g>
    <g fill="rgb(187,187,255)" transform="matrix(1,0,0,1,236,134)" stroke="rgb(187,187,255)">
      <rect x="655.16" y="0" clip-path="url(#clipPath2)" width="57.68" height="23.125" stroke="none"/>
    </g>
    <g fill="rgb(130,130,178)" stroke-miterlimit="1.45" transform="matrix(1,0,0,1,236,134)" stroke-linecap="butt" stroke="rgb(130,130,178)">
      <rect fill="none" width="57.68" x="655.16" height="23.125" y="0"/>
    </g>
    <g font-size="13" font-weight="bold" font-family="sans-serif" transform="matrix(1,0,0,1,236,134)">
      <text xml:space="preserve" x="660" y="16.0625" stroke="none">Object</text>
    </g>
    <g fill="rgb(238,238,255)" transform="matrix(1,0,0,1,236,134)" stroke="rgb(238,238,255)">
      <rect width="67.654" x="-235.687" height="17.9688" y="61.125" stroke="none"/>
    </g>
    <g fill="rgb(166,166,178)" stroke-miterlimit="1.45" transform="matrix(1,0,0,1,236,134)" stroke-linecap="butt" stroke="rgb(166,166,178)">
      <rect fill="none" width="67.654" x="-235.687" height="17.9688" y="61.125"/>
    </g>
    <g fill="rgb(238,238,255)" transform="matrix(1,0,0,1,236,134)" stroke="rgb(238,238,255)">
      <rect width="177.687" x="-235.687" height="48.7349" y="79.0938" stroke="none"/>
    </g>
    <g fill="rgb(166,166,178)" stroke-miterlimit="1.45" transform="matrix(1,0,0,1,236,134)" stroke-linecap="butt" stroke="rgb(166,166,178)">
      <rect fill="none" width="177.687" x="-235.687" height="48.7349" y="79.0938"/>
    </g>
    <g font-family="sans-serif" transform="matrix(1,0,0,1,236,134)">
      <text xml:space="preserve" x="-229.687" y="74.2656" stroke="none">java.util</text>
    </g>
    <g fill="rgb(221,221,255)" transform="matrix(1,0,0,1,236,134)" stroke="rgb(221,221,255)">
      <rect x="-227.687" y="87.125" clip-path="url(#clipPath3)" width="161.687" height="32.7037" stroke="none"/>
    </g>
    <g fill="rgb(154,154,178)" stroke-miterlimit="1.45" transform="matrix(1,0,0,1,236,134)" stroke-linecap="butt" stroke="rgb(154,154,178)">
      <ellipse rx="80.8435" fill="none" ry="16.3518" cx="-146.8435" cy="103.4768"/>
    </g>
    <g font-style="italic" font-size="13" font-weight="bold" font-family="sans-serif" transform="matrix(1,0,0,1,236,134)">
      <text xml:space="preserve" x="-198.3435" y="107.9768" stroke="none">Collection&lt;E&gt;</text>
    </g>
    <g fill="rgb(238,238,255)" transform="matrix(1,0,0,1,236,134)" stroke="rgb(238,238,255)">
      <rect width="76.1412" x="-138.04" height="17.9688" y="-26" stroke="none"/>
    </g>
    <g fill="rgb(166,166,178)" stroke-miterlimit="1.45" transform="matrix(1,0,0,1,236,134)" stroke-linecap="butt" stroke="rgb(166,166,178)">
      <rect fill="none" width="76.1412" x="-138.04" height="17.9688" y="-26"/>
    </g>
    <g fill="rgb(238,238,255)" transform="matrix(1,0,0,1,236,134)" stroke="rgb(238,238,255)">
      <rect width="79.56" x="-138.04" height="39.1562" y="-8.0312" stroke="none"/>
    </g>
    <g fill="rgb(166,166,178)" stroke-miterlimit="1.45" transform="matrix(1,0,0,1,236,134)" stroke-linecap="butt" stroke="rgb(166,166,178)">
      <rect fill="none" width="79.56" x="-138.04" height="39.1562" y="-8.0312"/>
    </g>
    <g font-family="sans-serif" transform="matrix(1,0,0,1,236,134)">
      <text xml:space="preserve" x="-132.04" y="-12.8594" stroke="none">java.lang</text>
    </g>
    <g fill="rgb(187,187,255)" transform="matrix(1,0,0,1,236,134)" stroke="rgb(187,187,255)">
      <rect x="-130.04" y="0" clip-path="url(#clipPath4)" width="53.56" height="23.125" stroke="none"/>
    </g>
    <g fill="rgb(130,130,178)" stroke-miterlimit="1.45" transform="matrix(1,0,0,1,236,134)" stroke-linecap="butt" stroke="rgb(130,130,178)">
      <rect fill="none" width="53.56" x="-130.04" height="23.125" y="0"/>
    </g>
    <g font-size="13" font-weight="bold" font-family="sans-serif" transform="matrix(1,0,0,1,236,134)">
      <text xml:space="preserve" x="-125.26" y="16.0625" stroke="none">String</text>
    </g>
    <g fill="rgb(238,238,255)" transform="matrix(1,0,0,1,236,134)" stroke="rgb(238,238,255)">
      <rect width="76.1412" x="257.74" height="17.9688" y="-133.125" stroke="none"/>
    </g>
    <g fill="rgb(166,166,178)" stroke-miterlimit="1.45" transform="matrix(1,0,0,1,236,134)" stroke-linecap="butt" stroke="rgb(166,166,178)">
      <rect fill="none" width="76.1412" x="257.74" height="17.9688" y="-133.125"/>
    </g>
    <g fill="rgb(238,238,255)" transform="matrix(1,0,0,1,236,134)" stroke="rgb(238,238,255)">
      <rect width="76.1412" x="257.74" height="39.1562" y="-115.1562" stroke="none"/>
    </g>
    <g fill="rgb(166,166,178)" stroke-miterlimit="1.45" transform="matrix(1,0,0,1,236,134)" stroke-linecap="butt" stroke="rgb(166,166,178)">
      <rect fill="none" width="76.1412" x="257.74" height="39.1562" y="-115.1562"/>
    </g>
    <g font-family="sans-serif" transform="matrix(1,0,0,1,236,134)">
      <text xml:space="preserve" x="263.74" y="-119.9844" stroke="none">java.lang</text>
    </g>
    <g fill="rgb(187,187,255)" transform="matrix(1,0,0,1,236,134)" stroke="rgb(187,187,255)">
      <rect x="265.74" y="-107.125" clip-path="url(#clipPath5)" width="57.68" height="23.125" stroke="none"/>
    </g>
    <g fill="rgb(130,130,178)" stroke-miterlimit="1.45" transform="matrix(1,0,0,1,236,134)" stroke-linecap="butt" stroke="rgb(130,130,178)">
      <rect fill="none" width="57.68" x="265.74" height="23.125" y="-107.125"/>
    </g>
    <g font-size="13" font-weight="bold" font-family="sans-serif" transform="matrix(1,0,0,1,236,134)">
      <text xml:space="preserve" x="270.58" y="-91.0625" stroke="none">Object</text>
    </g>
    <g fill="rgb(238,238,255)" transform="matrix(1,0,0,1,236,134)" stroke="rgb(238,238,255)">
      <rect width="96.2983" x="-8" height="17.9688" y="-26" stroke="none"/>
    </g>
    <g fill="rgb(166,166,178)" stroke-miterlimit="1.45" transform="matrix(1,0,0,1,236,134)" stroke-linecap="butt" stroke="rgb(166,166,178)">
      <rect fill="none" width="96.2983" x="-8" height="17.9688" y="-26"/>
    </g>
    <g fill="rgb(238,238,255)" transform="matrix(1,0,0,1,236,134)" stroke="rgb(238,238,255)">
      <rect width="605.16" x="-8" height="204.3594" y="-8.0312" stroke="none"/>
    </g>
    <g fill="rgb(166,166,178)" stroke-miterlimit="1.45" transform="matrix(1,0,0,1,236,134)" stroke-linecap="butt" stroke="rgb(166,166,178)">
      <rect fill="none" width="605.16" x="-8" height="204.3594" y="-8.0312"/>
    </g>
    <g font-family="sans-serif" transform="matrix(1,0,0,1,236,134)">
      <text xml:space="preserve" x="-2" y="-12.8594" onclick="umlload('package-summary.html')" stroke="none">police.types</text>
    </g>
    <g fill="rgb(187,187,255)" transform="matrix(1,0,0,1,236,134)" stroke="rgb(187,187,255)">
      <rect x="0" y="0" clip-path="url(#clipPath6)" width="589.16" height="26.6406" stroke="none"/>
      <line clip-path="url(#clipPath6)" fill="none" x1="0" x2="589.16" y1="26.6406" y2="26.6406" stroke="black"/>
      <rect x="0" y="27.6406" clip-path="url(#clipPath6)" width="589.16" height="15.9688" stroke="none"/>
      <line clip-path="url(#clipPath6)" fill="none" x1="0" x2="589.16" y1="43.6094" y2="43.6094" stroke="black"/>
      <rect x="0" y="44.6094" clip-path="url(#clipPath6)" width="589.16" height="143.7188" stroke="none"/>
    </g>
    <g fill="rgb(130,130,178)" stroke-miterlimit="1.45" transform="matrix(1,0,0,1,236,134)" stroke-linecap="butt" stroke="rgb(130,130,178)">
      <rect fill="none" width="589.16" x="0" height="188.3281" y="0"/>
    </g>
    <g font-size="16" font-weight="bold" font-family="sans-serif" transform="matrix(1,0,0,1,236,134)">
      <text xml:space="preserve" x="218.08" y="18.8594" onclick="umlload('#')" stroke="none">ForceInformation</text>
    </g>
    <g font-family="sans-serif" transform="matrix(1,0,0,1,236,134)">
      <text xml:space="preserve" x="4" y="38.1719" stroke="none">+</text>
      <text xml:space="preserve" x="19" y="39.7812" onclick="umlload('#ForceInformation(java.lang.String, java.lang.String, java.lang.String, java.lang.String, java.lang.String, java.util.Collection)')" stroke="none">ForceInformation(String, String, String, String, String, Collection&lt;EngagementMethod&gt;)</text>
    </g>
    <g font-family="sans-serif" transform="matrix(1,0,0,1,236,134)">
      <text xml:space="preserve" x="4" y="55.1719" stroke="none">+</text>
      <text xml:space="preserve" x="19" y="56.75" onclick="umlload('#equals(java.lang.Object)')" stroke="none">equals(Object) : boolean</text>
    </g>
    <g font-family="sans-serif" transform="matrix(1,0,0,1,236,134)">
      <text xml:space="preserve" x="4" y="71.1719" stroke="none">+</text>
      <text xml:space="preserve" x="19" y="72.7188" onclick="umlload('#getDescription()')" stroke="none">getDescription() : String</text>
    </g>
    <g font-family="sans-serif" transform="matrix(1,0,0,1,236,134)">
      <text xml:space="preserve" x="4" y="87.1719" stroke="none">+</text>
      <text xml:space="preserve" x="19" y="88.6875" onclick="umlload('#getEngagement_methods()')" stroke="none">getEngagement_methods() : Collection&lt;EngagementMethod&gt;</text>
    </g>
    <g font-family="sans-serif" transform="matrix(1,0,0,1,236,134)">
      <text xml:space="preserve" x="4" y="103.1719" stroke="none">+</text>
      <text xml:space="preserve" x="19" y="104.6562" onclick="umlload('#getId()')" stroke="none">getId() : String</text>
    </g>
    <g font-family="sans-serif" transform="matrix(1,0,0,1,236,134)">
      <text xml:space="preserve" x="4" y="119.1719" stroke="none">+</text>
      <text xml:space="preserve" x="19" y="120.625" onclick="umlload('#getName()')" stroke="none">getName() : String</text>
    </g>
    <g font-family="sans-serif" transform="matrix(1,0,0,1,236,134)">
      <text xml:space="preserve" x="4" y="135.1719" stroke="none">+</text>
      <text xml:space="preserve" x="19" y="136.5938" onclick="umlload('#getTelephone()')" stroke="none">getTelephone() : String</text>
    </g>
    <g font-family="sans-serif" transform="matrix(1,0,0,1,236,134)">
      <text xml:space="preserve" x="4" y="151.1719" stroke="none">+</text>
      <text xml:space="preserve" x="19" y="152.5625" onclick="umlload('#getUrl()')" stroke="none">getUrl() : String</text>
    </g>
    <g font-family="sans-serif" transform="matrix(1,0,0,1,236,134)">
      <text xml:space="preserve" x="4" y="167.1719" stroke="none">+</text>
      <text xml:space="preserve" x="19" y="168.5312" onclick="umlload('#hashCode()')" stroke="none">hashCode() : int</text>
    </g>
    <g font-family="sans-serif" transform="matrix(1,0,0,1,236,134)">
      <text xml:space="preserve" x="4" y="183.1719" stroke="none">+</text>
      <text xml:space="preserve" x="19" y="184.5" onclick="umlload('#toString()')" stroke="none">toString() : String</text>
    </g>
    <g font-family="sans-serif" transform="matrix(1,0,0,1,236,134)">
      <text xml:space="preserve" x="-230" y="221.1562" onclick="umlload('http://www.yworks.com/')" stroke="none">yWorks UML Doclet</text>
    </g>
    <g stroke-miterlimit="1.45" transform="matrix(1,0,0,1,236,134)" stroke-linecap="butt">
      <path fill="none" d="M294.58 0 L294.58 -69"/>
      <path fill="white" d="M294.58 -84 L288.58 -68 L300.58 -68 Z" stroke="none"/>
      <path fill="none" d="M294.58 -84 L288.58 -68 L300.58 -68 Z"/>
      <path fill="none" d="M0.0366 11.5625 L-76.48 11.5625"/>
      <line stroke-linecap="square" transform="matrix(-1,0,0,-1,-76.48,11.5625)" fill="none" x1="0" x2="-14" y1="0" y2="-4" stroke-miterlimit="10"/>
      <line stroke-linecap="square" transform="matrix(-1,0,0,-1,-76.48,11.5625)" fill="none" x1="0" x2="-14" y1="0" y2="4" stroke-miterlimit="10"/>
    </g>
    <g stroke-miterlimit="1.45" transform="matrix(1,0,0,1,236,134)" stroke-linecap="butt">
      <path fill="none" d="M0.0193 103.4768 L-66 103.4768"/>
      <line stroke-linecap="square" transform="matrix(-1,0,0,-1,-66,103.4768)" fill="none" x1="0" x2="-14" y1="0" y2="-4" stroke-miterlimit="10"/>
      <line stroke-linecap="square" transform="matrix(-1,0,0,-1,-66,103.4768)" fill="none" x1="0" x2="-14" y1="0" y2="4" stroke-miterlimit="10"/>
    </g>
    <g stroke-dasharray="6,2" stroke-miterlimit="1.45" transform="matrix(1,0,0,1,236,134)" stroke-linecap="butt">
      <path fill="none" d="M589.1644 11.5625 L655.16 11.5625"/>
      <line stroke-linecap="square" transform="matrix(1,0,0,1,655.16,11.5625)" fill="none" x1="0" x2="-14" y1="0" y2="-4" stroke-dasharray="none" stroke-miterlimit="10"/>
      <line stroke-linecap="square" transform="matrix(1,0,0,1,655.16,11.5625)" fill="none" x1="0" x2="-14" y1="0" y2="4" stroke-dasharray="none" stroke-miterlimit="10"/>
    </g>
  </g>
</svg>
