<?xml version="1.0" encoding="UTF-8"?>
<svg xmlns="http://www.w3.org/2000/svg" xmlns:xlink="http://www.w3.org/1999/xlink" fill-opacity="1" color-rendering="auto" color-interpolation="auto" stroke="black" text-rendering="auto" stroke-linecap="square" width="1415" stroke-miterlimit="10" stroke-opacity="1" shape-rendering="auto" fill="black" stroke-dasharray="none" font-weight="normal" stroke-width="1" height="935" font-family="'Dialog'" font-style="normal" stroke-linejoin="miter" font-size="12" stroke-dashoffset="0" image-rendering="auto">
  <!--Generated by ySVG-->
  <defs id="genericDefs"/>
  <g>
    <defs id="defs1">
      <clipPath clipPathUnits="userSpaceOnUse" id="clipPath1">
        <path d="M0 0 L1415 0 L1415 935 L0 935 L0 0 Z"/>
      </clipPath>
      <clipPath clipPathUnits="userSpaceOnUse" id="clipPath2">
        <path d="M413.11 183.8287 L531.56 183.8287 L531.56 206.9537 L413.11 206.9537 L413.11 183.8287 Z"/>
      </clipPath>
      <clipPath clipPathUnits="userSpaceOnUse" id="clipPath3">
        <path d="M507.7916 103.4768 C507.7916 112.5077 486.5964 119.8287 460.4508 119.8287 C434.3052 119.8287 413.11 112.5077 413.11 103.4768 C413.11 94.446 434.3052 87.125 460.4508 87.125 C486.5964 87.125 507.7916 94.446 507.7916 103.4768 Z"/>
      </clipPath>
      <clipPath clipPathUnits="userSpaceOnUse" id="clipPath4">
        <path d="M413.11 0 L499.63 0 L499.63 23.125 L413.11 23.125 L413.11 0 Z"/>
      </clipPath>
      <clipPath clipPathUnits="userSpaceOnUse" id="clipPath5">
        <path d="M-171.24 313.6574 L-127.98 313.6574 L-127.98 336.7824 L-171.24 336.7824 L-171.24 313.6574 Z"/>
      </clipPath>
      <clipPath clipPathUnits="userSpaceOnUse" id="clipPath6">
        <path d="M-256.73 226.5324 L-122.83 226.5324 L-122.83 249.6574 L-256.73 249.6574 L-256.73 226.5324 Z"/>
      </clipPath>
      <clipPath clipPathUnits="userSpaceOnUse" id="clipPath7">
        <path d="M-66 146.1805 C-66 155.2114 -115.8902 162.5324 -177.433 162.5324 C-238.9757 162.5324 -288.8659 155.2114 -288.8659 146.1805 C-288.8659 137.1497 -238.9757 129.8287 -177.433 129.8287 C-115.8902 129.8287 -66 137.1497 -66 146.1805 Z"/>
      </clipPath>
      <clipPath clipPathUnits="userSpaceOnUse" id="clipPath8">
        <path d="M-66 16.3518 C-66 25.3827 -102.847 32.7037 -148.3002 32.7037 C-193.7533 32.7037 -230.6003 25.3827 -230.6003 16.3518 C-230.6003 7.321 -193.7533 0 -148.3002 0 C-102.847 0 -66 7.321 -66 16.3518 Z"/>
      </clipPath>
      <clipPath clipPathUnits="userSpaceOnUse" id="clipPath9">
        <path d="M-230.6003 42.7037 L-177.0403 42.7037 L-177.0403 65.8287 L-230.6003 65.8287 L-230.6003 42.7037 Z"/>
      </clipPath>
      <clipPath clipPathUnits="userSpaceOnUse" id="clipPath10">
        <path d="M674.2996 -100.3518 C674.2996 -91.321 587.8884 -84 481.2948 -84 C374.7012 -84 288.29 -91.321 288.29 -100.3518 C288.29 -109.3827 374.7012 -116.7037 481.2948 -116.7037 C587.8884 -116.7037 674.2996 -109.3827 674.2996 -100.3518 Z"/>
      </clipPath>
      <clipPath clipPathUnits="userSpaceOnUse" id="clipPath11">
        <path d="M1109.6384 -100.3518 C1109.6384 -91.321 1014.4231 -84 896.9691 -84 C779.515 -84 684.2996 -91.321 684.2996 -100.3518 C684.2996 -109.3827 779.515 -116.7037 896.9691 -116.7037 C1014.4231 -116.7037 1109.6384 -109.3827 1109.6384 -100.3518 Z"/>
      </clipPath>
      <clipPath clipPathUnits="userSpaceOnUse" id="clipPath12">
        <path d="M141.625 -107.125 L205.485 -107.125 L205.485 -84 L141.625 -84 L141.625 -107.125 Z"/>
      </clipPath>
      <clipPath clipPathUnits="userSpaceOnUse" id="clipPath13">
        <path d="M0 0 L347.11 0 L347.11 748.2344 L0 748.2344 L0 0 Z"/>
      </clipPath>
      <script type="text/ecmascript"><![CDATA[
function umlload(newLocation)
{
if (newLocation.charAt(0) != '#') {
if (newLocation.indexOf("://") > -1) {
window.parent.location.href = newLocation;
} else {
var tmp = window.parent.location.href;
tmp = tmp.substring(0, tmp.lastIndexOf("/") + 1);
window.parent.location.href = tmp.concat(newLocation);
}
} else {
window.parent.location.hash = newLocation;
}
}
]]></script>
    </defs>
    <g fill="rgb(238,238,255)" transform="matrix(1,0,0,1,297,143)" stroke="rgb(238,238,255)">
      <rect width="118.5772" x="405.11" height="17.9688" y="157.8287" stroke="none"/>
    </g>
    <g fill="rgb(166,166,178)" stroke-miterlimit="1.45" transform="matrix(1,0,0,1,297,143)" stroke-linecap="butt" stroke="rgb(166,166,178)">
      <rect fill="none" width="118.5772" x="405.11" height="17.9688" y="157.8287"/>
    </g>
    <g fill="rgb(238,238,255)" transform="matrix(1,0,0,1,297,143)" stroke="rgb(238,238,255)">
      <rect width="134.45" x="405.11" height="39.1562" y="175.7974" stroke="none"/>
    </g>
    <g fill="rgb(166,166,178)" stroke-miterlimit="1.45" transform="matrix(1,0,0,1,297,143)" stroke-linecap="butt" stroke="rgb(166,166,178)">
      <rect fill="none" width="134.45" x="405.11" height="39.1562" y="175.7974"/>
    </g>
    <g font-family="sans-serif" transform="matrix(1,0,0,1,297,143)">
      <text xml:space="preserve" x="411.11" y="170.9693" stroke="none">nde2.pull.types</text>
    </g>
    <g fill="rgb(187,187,255)" transform="matrix(1,0,0,1,297,143)" stroke="rgb(187,187,255)">
      <rect x="413.11" y="183.8287" clip-path="url(#clipPath2)" width="118.45" height="23.125" stroke="none"/>
    </g>
    <g fill="rgb(130,130,178)" stroke-miterlimit="1.45" transform="matrix(1,0,0,1,297,143)" stroke-linecap="butt" stroke="rgb(130,130,178)">
      <rect fill="none" width="118.45" x="413.11" height="23.125" y="183.8287"/>
    </g>
    <g font-size="13" font-weight="bold" font-family="sans-serif" transform="matrix(1,0,0,1,297,143)">
      <text xml:space="preserve" x="418.835" y="199.8912" stroke="none">DataSetFamily</text>
    </g>
    <g fill="rgb(238,238,255)" transform="matrix(1,0,0,1,297,143)" stroke="rgb(238,238,255)">
      <rect width="67.654" x="405.11" height="17.9688" y="61.125" stroke="none"/>
    </g>
    <g fill="rgb(166,166,178)" stroke-miterlimit="1.45" transform="matrix(1,0,0,1,297,143)" stroke-linecap="butt" stroke="rgb(166,166,178)">
      <rect fill="none" width="67.654" x="405.11" height="17.9688" y="61.125"/>
    </g>
    <g fill="rgb(238,238,255)" transform="matrix(1,0,0,1,297,143)" stroke="rgb(238,238,255)">
      <rect width="110.6816" x="405.11" height="48.7349" y="79.0938" stroke="none"/>
    </g>
    <g fill="rgb(166,166,178)" stroke-miterlimit="1.45" transform="matrix(1,0,0,1,297,143)" stroke-linecap="butt" stroke="rgb(166,166,178)">
      <rect fill="none" width="110.6816" x="405.11" height="48.7349" y="79.0938"/>
    </g>
    <g font-family="sans-serif" transform="matrix(1,0,0,1,297,143)">
      <text xml:space="preserve" x="411.11" y="74.2656" stroke="none">java.util</text>
    </g>
    <g fill="rgb(221,221,255)" transform="matrix(1,0,0,1,297,143)" stroke="rgb(221,221,255)">
      <rect x="413.11" y="87.125" clip-path="url(#clipPath3)" width="94.6816" height="32.7037" stroke="none"/>
    </g>
    <g fill="rgb(154,154,178)" stroke-miterlimit="1.45" transform="matrix(1,0,0,1,297,143)" stroke-linecap="butt" stroke="rgb(154,154,178)">
      <ellipse rx="47.3408" fill="none" ry="16.3518" cx="460.4508" cy="103.4768"/>
    </g>
    <g font-style="italic" font-size="13" font-weight="bold" font-family="sans-serif" transform="matrix(1,0,0,1,297,143)">
      <text xml:space="preserve" x="431.9508" y="107.9768" stroke="none">List&lt;E&gt;</text>
    </g>
    <g fill="rgb(238,238,255)" transform="matrix(1,0,0,1,297,143)" stroke="rgb(238,238,255)">
      <rect width="76.1412" x="405.11" height="17.9688" y="-26" stroke="none"/>
    </g>
    <g fill="rgb(166,166,178)" stroke-miterlimit="1.45" transform="matrix(1,0,0,1,297,143)" stroke-linecap="butt" stroke="rgb(166,166,178)">
      <rect fill="none" width="76.1412" x="405.11" height="17.9688" y="-26"/>
    </g>
    <g fill="rgb(238,238,255)" transform="matrix(1,0,0,1,297,143)" stroke="rgb(238,238,255)">
      <rect width="102.52" x="405.11" height="39.1562" y="-8.0312" stroke="none"/>
    </g>
    <g fill="rgb(166,166,178)" stroke-miterlimit="1.45" transform="matrix(1,0,0,1,297,143)" stroke-linecap="butt" stroke="rgb(166,166,178)">
      <rect fill="none" width="102.52" x="405.11" height="39.1562" y="-8.0312"/>
    </g>
    <g font-family="sans-serif" transform="matrix(1,0,0,1,297,143)">
      <text xml:space="preserve" x="411.11" y="-12.8594" stroke="none">java.lang</text>
    </g>
    <g fill="rgb(187,187,255)" transform="matrix(1,0,0,1,297,143)" stroke="rgb(187,187,255)">
      <rect x="413.11" y="0" clip-path="url(#clipPath4)" width="86.52" height="23.125" stroke="none"/>
    </g>
    <g fill="rgb(130,130,178)" stroke-miterlimit="1.45" transform="matrix(1,0,0,1,297,143)" stroke-linecap="butt" stroke="rgb(130,130,178)">
      <rect fill="none" width="86.52" x="413.11" height="23.125" y="0"/>
    </g>
    <g font-size="13" font-weight="bold" font-family="sans-serif" transform="matrix(1,0,0,1,297,143)">
      <text xml:space="preserve" x="418.37" y="16.0625" stroke="none">Throwable</text>
    </g>
    <g fill="rgb(238,238,255)" transform="matrix(1,0,0,1,297,143)" stroke="rgb(238,238,255)">
      <rect width="118.5772" x="-179.24" height="17.9688" y="287.6574" stroke="none"/>
    </g>
    <g fill="rgb(166,166,178)" stroke-miterlimit="1.45" transform="matrix(1,0,0,1,297,143)" stroke-linecap="butt" stroke="rgb(166,166,178)">
      <rect fill="none" width="118.5772" x="-179.24" height="17.9688" y="287.6574"/>
    </g>
    <g fill="rgb(238,238,255)" transform="matrix(1,0,0,1,297,143)" stroke="rgb(238,238,255)">
      <rect width="121.26" x="-179.24" height="39.1562" y="305.6261" stroke="none"/>
    </g>
    <g fill="rgb(166,166,178)" stroke-miterlimit="1.45" transform="matrix(1,0,0,1,297,143)" stroke-linecap="butt" stroke="rgb(166,166,178)">
      <rect fill="none" width="121.26" x="-179.24" height="39.1562" y="305.6261"/>
    </g>
    <g font-family="sans-serif" transform="matrix(1,0,0,1,297,143)">
      <text xml:space="preserve" x="-173.24" y="300.798" stroke="none">nde2.pull.types</text>
    </g>
    <g fill="rgb(187,187,255)" transform="matrix(1,0,0,1,297,143)" stroke="rgb(187,187,255)">
      <rect x="-171.24" y="313.6574" clip-path="url(#clipPath5)" width="43.26" height="23.125" stroke="none"/>
    </g>
    <g fill="rgb(130,130,178)" stroke-miterlimit="1.45" transform="matrix(1,0,0,1,297,143)" stroke-linecap="butt" stroke="rgb(130,130,178)">
      <rect fill="none" width="43.26" x="-171.24" height="23.125" y="313.6574"/>
    </g>
    <g font-size="13" font-weight="bold" font-family="sans-serif" transform="matrix(1,0,0,1,297,143)">
      <text xml:space="preserve" x="-166.61" y="329.7199" stroke="none">Area</text>
    </g>
    <g fill="rgb(238,238,255)" transform="matrix(1,0,0,1,297,143)" stroke="rgb(238,238,255)">
      <rect width="206.6319" x="-264.73" height="17.9688" y="200.5324" stroke="none"/>
    </g>
    <g fill="rgb(166,166,178)" stroke-miterlimit="1.45" transform="matrix(1,0,0,1,297,143)" stroke-linecap="butt" stroke="rgb(166,166,178)">
      <rect fill="none" width="206.6319" x="-264.73" height="17.9688" y="200.5324"/>
    </g>
    <g fill="rgb(238,238,255)" transform="matrix(1,0,0,1,297,143)" stroke="rgb(238,238,255)">
      <rect width="206.9" x="-264.73" height="39.1562" y="218.5011" stroke="none"/>
    </g>
    <g fill="rgb(166,166,178)" stroke-miterlimit="1.45" transform="matrix(1,0,0,1,297,143)" stroke-linecap="butt" stroke="rgb(166,166,178)">
      <rect fill="none" width="206.9" x="-264.73" height="39.1562" y="218.5011"/>
    </g>
    <g font-family="sans-serif" transform="matrix(1,0,0,1,297,143)">
      <text xml:space="preserve" x="-258.73" y="213.673" onclick="umlload('../../lamparski/areabase/services/package-summary.html')" stroke="none">lamparski.areabase.services</text>
    </g>
    <g fill="rgb(187,187,255)" transform="matrix(1,0,0,1,297,143)" stroke="rgb(187,187,255)">
      <rect x="-256.73" y="226.5324" clip-path="url(#clipPath6)" width="133.9" height="23.125" stroke="none"/>
    </g>
    <g fill="rgb(130,130,178)" stroke-miterlimit="1.45" transform="matrix(1,0,0,1,297,143)" stroke-linecap="butt" stroke="rgb(130,130,178)">
      <rect fill="none" width="133.9" x="-256.73" height="23.125" y="226.5324"/>
    </g>
    <g font-size="13" font-weight="bold" font-family="sans-serif" transform="matrix(1,0,0,1,297,143)">
      <text xml:space="preserve" x="-250.78" y="242.5949" onclick="umlload('../../lamparski/areabase/services/AreaDataService.html')" stroke="none">AreaDataService</text>
    </g>
    <g fill="rgb(238,238,255)" transform="matrix(1,0,0,1,297,143)" stroke="rgb(238,238,255)">
      <rect width="220.4236" x="-296.8659" height="17.9688" y="103.8287" stroke="none"/>
    </g>
    <g fill="rgb(166,166,178)" stroke-miterlimit="1.45" transform="matrix(1,0,0,1,297,143)" stroke-linecap="butt" stroke="rgb(166,166,178)">
      <rect fill="none" width="220.4236" x="-296.8659" height="17.9688" y="103.8287"/>
    </g>
    <g fill="rgb(238,238,255)" transform="matrix(1,0,0,1,297,143)" stroke="rgb(238,238,255)">
      <rect width="238.8659" x="-296.8659" height="48.7349" y="121.7974" stroke="none"/>
    </g>
    <g fill="rgb(166,166,178)" stroke-miterlimit="1.45" transform="matrix(1,0,0,1,297,143)" stroke-linecap="butt" stroke="rgb(166,166,178)">
      <rect fill="none" width="238.8659" x="-296.8659" height="48.7349" y="121.7974"/>
    </g>
    <g font-family="sans-serif" transform="matrix(1,0,0,1,297,143)">
      <text xml:space="preserve" x="-290.8659" y="116.9693" onclick="umlload('../../lamparski/areabase/fragments/package-summary.html')" stroke="none">lamparski.areabase.fragments</text>
    </g>
    <g fill="rgb(221,221,255)" transform="matrix(1,0,0,1,297,143)" stroke="rgb(221,221,255)">
      <rect x="-288.8659" y="129.8287" clip-path="url(#clipPath7)" width="222.8659" height="32.7037" stroke="none"/>
    </g>
    <g fill="rgb(154,154,178)" stroke-miterlimit="1.45" transform="matrix(1,0,0,1,297,143)" stroke-linecap="butt" stroke="rgb(154,154,178)">
      <ellipse rx="111.433" fill="none" ry="16.3518" cx="-177.433" cy="146.1805"/>
    </g>
    <g font-style="italic" font-size="13" font-weight="bold" font-family="sans-serif" transform="matrix(1,0,0,1,297,143)">
      <text xml:space="preserve" x="-249.933" y="150.6805" onclick="umlload('../../lamparski/areabase/fragments/IAreabaseFragment.html')" stroke="none">IAreabaseFragment</text>
    </g>
    <g fill="rgb(238,238,255)" transform="matrix(1,0,0,1,297,143)" stroke="rgb(238,238,255)">
      <rect width="76.1412" x="-238.6003" height="17.9688" y="-26" stroke="none"/>
    </g>
    <g fill="rgb(166,166,178)" stroke-miterlimit="1.45" transform="matrix(1,0,0,1,297,143)" stroke-linecap="butt" stroke="rgb(166,166,178)">
      <rect fill="none" width="76.1412" x="-238.6003" height="17.9688" y="-26"/>
    </g>
    <g fill="rgb(238,238,255)" transform="matrix(1,0,0,1,297,143)" stroke="rgb(238,238,255)">
      <rect width="180.6003" x="-238.6003" height="81.8599" y="-8.0312" stroke="none"/>
    </g>
    <g fill="rgb(166,166,178)" stroke-miterlimit="1.45" transform="matrix(1,0,0,1,297,143)" stroke-linecap="butt" stroke="rgb(166,166,178)">
      <rect fill="none" width="180.6003" x="-238.6003" height="81.8599" y="-8.0312"/>
    </g>
    <g font-family="sans-serif" transform="matrix(1,0,0,1,297,143)">
      <text xml:space="preserve" x="-232.6003" y="-12.8594" stroke="none">java.lang</text>
    </g>
    <g fill="rgb(221,221,255)" transform="matrix(1,0,0,1,297,143)" stroke="rgb(221,221,255)">
      <rect x="-230.6003" y="0" clip-path="url(#clipPath8)" width="164.6003" height="32.7037" stroke="none"/>
    </g>
    <g fill="rgb(154,154,178)" stroke-miterlimit="1.45" transform="matrix(1,0,0,1,297,143)" stroke-linecap="butt" stroke="rgb(154,154,178)">
      <ellipse rx="82.3002" fill="none" ry="16.3518" cx="-148.3002" cy="16.3518"/>
    </g>
    <g font-style="italic" font-size="13" font-weight="bold" font-family="sans-serif" transform="matrix(1,0,0,1,297,143)">
      <text xml:space="preserve" x="-200.8002" y="20.8518" stroke="none">CharSequence</text>
    </g>
    <g fill="rgb(187,187,255)" transform="matrix(1,0,0,1,297,143)" stroke="rgb(187,187,255)">
      <rect x="-230.6003" y="42.7037" clip-path="url(#clipPath9)" width="53.56" height="23.125" stroke="none"/>
    </g>
    <g fill="rgb(130,130,178)" stroke-miterlimit="1.45" transform="matrix(1,0,0,1,297,143)" stroke-linecap="butt" stroke="rgb(130,130,178)">
      <rect fill="none" width="53.56" x="-230.6003" height="23.125" y="42.7037"/>
    </g>
    <g font-size="13" font-weight="bold" font-family="sans-serif" transform="matrix(1,0,0,1,297,143)">
      <text xml:space="preserve" x="-225.8203" y="58.7662" stroke="none">String</text>
    </g>
    <g fill="rgb(238,238,255)" transform="matrix(1,0,0,1,297,143)" stroke="rgb(238,238,255)">
      <rect width="206.6319" x="280.29" height="17.9688" y="-142.7037" stroke="none"/>
    </g>
    <g fill="rgb(166,166,178)" stroke-miterlimit="1.45" transform="matrix(1,0,0,1,297,143)" stroke-linecap="butt" stroke="rgb(166,166,178)">
      <rect fill="none" width="206.6319" x="280.29" height="17.9688" y="-142.7037"/>
    </g>
    <g fill="rgb(238,238,255)" transform="matrix(1,0,0,1,297,143)" stroke="rgb(238,238,255)">
      <rect width="837.3485" x="280.29" height="48.7349" y="-124.7349" stroke="none"/>
    </g>
    <g fill="rgb(166,166,178)" stroke-miterlimit="1.45" transform="matrix(1,0,0,1,297,143)" stroke-linecap="butt" stroke="rgb(166,166,178)">
      <rect fill="none" width="837.3485" x="280.29" height="48.7349" y="-124.7349"/>
    </g>
    <g font-family="sans-serif" transform="matrix(1,0,0,1,297,143)">
      <text xml:space="preserve" x="286.29" y="-129.5631" onclick="umlload('../../lamparski/areabase/services/package-summary.html')" stroke="none">lamparski.areabase.services</text>
    </g>
    <g fill="rgb(221,221,255)" transform="matrix(1,0,0,1,297,143)" stroke="rgb(221,221,255)">
      <rect x="288.29" y="-116.7037" clip-path="url(#clipPath10)" width="386.0096" height="32.7037" stroke="none"/>
    </g>
    <g fill="rgb(154,154,178)" stroke-miterlimit="1.45" transform="matrix(1,0,0,1,297,143)" stroke-linecap="butt" stroke="rgb(154,154,178)">
      <ellipse rx="193.0048" fill="none" ry="16.3518" cx="481.2948" cy="-100.3518"/>
    </g>
    <g font-style="italic" font-size="13" font-weight="bold" font-family="sans-serif" transform="matrix(1,0,0,1,297,143)">
      <text xml:space="preserve" x="352.7948" y="-95.8518" onclick="umlload('../../lamparski/areabase/services/AreaDataService.AreaListCallbacks.html')" stroke="none">AreaDataService.AreaListCallbacks</text>
    </g>
    <g fill="rgb(221,221,255)" transform="matrix(1,0,0,1,297,143)" stroke="rgb(221,221,255)">
      <rect x="684.2996" y="-116.7037" clip-path="url(#clipPath11)" width="425.3389" height="32.7037" stroke="none"/>
    </g>
    <g fill="rgb(154,154,178)" stroke-miterlimit="1.45" transform="matrix(1,0,0,1,297,143)" stroke-linecap="butt" stroke="rgb(154,154,178)">
      <ellipse rx="212.6694" fill="none" ry="16.3518" cx="896.969" cy="-100.3518"/>
    </g>
    <g font-style="italic" font-size="13" font-weight="bold" font-family="sans-serif" transform="matrix(1,0,0,1,297,143)">
      <text xml:space="preserve" x="754.9691" y="-95.8518" onclick="umlload('../../lamparski/areabase/services/AreaDataService.AreaLookupCallbacks.html')" stroke="none">AreaDataService.AreaLookupCallbacks</text>
    </g>
    <g fill="rgb(238,238,255)" transform="matrix(1,0,0,1,297,143)" stroke="rgb(238,238,255)">
      <rect width="162.0741" x="96.625" height="17.9688" y="-133.125" stroke="none"/>
    </g>
    <g fill="rgb(166,166,178)" stroke-miterlimit="1.45" transform="matrix(1,0,0,1,297,143)" stroke-linecap="butt" stroke="rgb(166,166,178)">
      <rect fill="none" width="162.0741" x="96.625" height="17.9688" y="-133.125"/>
    </g>
    <g fill="rgb(238,238,255)" transform="matrix(1,0,0,1,297,143)" stroke="rgb(238,238,255)">
      <rect width="162.0741" x="96.625" height="39.1562" y="-115.1562" stroke="none"/>
    </g>
    <g fill="rgb(166,166,178)" stroke-miterlimit="1.45" transform="matrix(1,0,0,1,297,143)" stroke-linecap="butt" stroke="rgb(166,166,178)">
      <rect fill="none" width="162.0741" x="96.625" height="39.1562" y="-115.1562"/>
    </g>
    <g font-family="sans-serif" transform="matrix(1,0,0,1,297,143)">
      <text xml:space="preserve" x="102.625" y="-119.9844" onclick="umlload('package-summary.html')" stroke="none">&lt;unnamed package&gt;</text>
    </g>
    <g fill="rgb(187,187,255)" transform="matrix(1,0,0,1,297,143)" stroke="rgb(187,187,255)">
      <rect x="141.625" y="-107.125" clip-path="url(#clipPath12)" width="63.86" height="23.125" stroke="none"/>
    </g>
    <g fill="rgb(130,130,178)" stroke-miterlimit="1.45" transform="matrix(1,0,0,1,297,143)" stroke-linecap="butt" stroke="rgb(130,130,178)">
      <rect fill="none" width="63.86" x="141.625" height="23.125" y="-107.125"/>
    </g>
    <g font-size="13" font-weight="bold" font-family="sans-serif" transform="matrix(1,0,0,1,297,143)">
      <text xml:space="preserve" x="146.555" y="-91.0625" stroke="none">Activity</text>
    </g>
    <g fill="rgb(238,238,255)" transform="matrix(1,0,0,1,297,143)" stroke="rgb(238,238,255)">
      <rect width="148.2824" x="-8" height="17.9688" y="-26" stroke="none"/>
    </g>
    <g fill="rgb(166,166,178)" stroke-miterlimit="1.45" transform="matrix(1,0,0,1,297,143)" stroke-linecap="butt" stroke="rgb(166,166,178)">
      <rect fill="none" width="148.2824" x="-8" height="17.9688" y="-26"/>
    </g>
    <g fill="rgb(238,238,255)" transform="matrix(1,0,0,1,297,143)" stroke="rgb(238,238,255)">
      <rect width="363.11" x="-8" height="764.2656" y="-8.0312" stroke="none"/>
    </g>
    <g fill="rgb(166,166,178)" stroke-miterlimit="1.45" transform="matrix(1,0,0,1,297,143)" stroke-linecap="butt" stroke="rgb(166,166,178)">
      <rect fill="none" width="363.11" x="-8" height="764.2656" y="-8.0312"/>
    </g>
    <g font-family="sans-serif" transform="matrix(1,0,0,1,297,143)">
      <text xml:space="preserve" x="-2" y="-12.8594" onclick="umlload('package-summary.html')" stroke="none">lamparski.areabase</text>
    </g>
    <g fill="rgb(187,187,255)" transform="matrix(1,0,0,1,297,143)" stroke="rgb(187,187,255)">
      <rect x="0" y="0" clip-path="url(#clipPath13)" width="347.11" height="26.6406" stroke="none"/>
      <line clip-path="url(#clipPath13)" fill="none" x1="0" x2="347.11" y1="26.6406" y2="26.6406" stroke="black"/>
      <rect x="0" y="27.6406" clip-path="url(#clipPath13)" width="347.11" height="271.4688" stroke="none"/>
      <line clip-path="url(#clipPath13)" fill="none" x1="0" x2="347.11" y1="299.1094" y2="299.1094" stroke="black"/>
      <rect x="0" y="300.1094" clip-path="url(#clipPath13)" width="347.11" height="15.9688" stroke="none"/>
      <line clip-path="url(#clipPath13)" fill="none" x1="0" x2="347.11" y1="316.0781" y2="316.0781" stroke="black"/>
      <rect x="0" y="317.0781" clip-path="url(#clipPath13)" width="347.11" height="431.1562" stroke="none"/>
    </g>
    <g fill="rgb(130,130,178)" stroke-miterlimit="1.45" transform="matrix(1,0,0,1,297,143)" stroke-linecap="butt" stroke="rgb(130,130,178)">
      <rect fill="none" width="347.11" x="0" height="748.2344" y="0"/>
    </g>
    <g font-size="16" font-weight="bold" font-family="sans-serif" transform="matrix(1,0,0,1,297,143)">
      <text xml:space="preserve" x="120.055" y="18.8594" onclick="umlload('#')" stroke="none">AreaActivity</text>
    </g>
    <g font-family="sans-serif" transform="matrix(1,0,0,1,297,143)">
      <text xml:space="preserve" x="4" y="38.1719" stroke="none">+</text>
      <text xml:space="preserve" x="19" y="39.7812" onclick="umlload('#AREA_COMPARE')" stroke="none">AREA_COMPARE : int</text>
      <line y2="42.6094" fill="none" x1="19" x2="144" y1="42.6094"/>
    </g>
    <g font-family="sans-serif" transform="matrix(1,0,0,1,297,143)">
      <text xml:space="preserve" x="4" y="54.1719" stroke="none">+</text>
      <text xml:space="preserve" x="19" y="55.75" onclick="umlload('#AREA_HIERARCHY')" stroke="none">AREA_HIERARCHY : int</text>
      <line y2="58.5781" fill="none" x1="19" x2="153" y1="58.5781"/>
    </g>
    <g font-family="sans-serif" transform="matrix(1,0,0,1,297,143)">
      <text xml:space="preserve" x="4" y="70.1719" stroke="none">+</text>
      <text xml:space="preserve" x="19" y="71.7188" onclick="umlload('#CRIME')" stroke="none">CRIME : int</text>
      <line y2="74.5469" fill="none" x1="19" x2="84" y1="74.5469"/>
    </g>
    <g font-family="sans-serif" transform="matrix(1,0,0,1,297,143)">
      <text xml:space="preserve" x="4" y="86.1719" stroke="none">+</text>
      <text xml:space="preserve" x="19" y="87.6875" onclick="umlload('#CURRENT_COORDS')" stroke="none">CURRENT_COORDS : String</text>
      <line y2="90.5156" fill="none" x1="19" x2="182" y1="90.5156"/>
    </g>
    <g font-family="sans-serif" transform="matrix(1,0,0,1,297,143)">
      <text xml:space="preserve" x="4" y="102.1719" stroke="none">+</text>
      <text xml:space="preserve" x="19" y="103.6562" onclick="umlload('#ECONOMY')" stroke="none">ECONOMY : int</text>
      <line y2="106.4844" fill="none" x1="19" x2="107" y1="106.4844"/>
    </g>
    <g font-family="sans-serif" transform="matrix(1,0,0,1,297,143)">
      <text xml:space="preserve" x="4" y="118.1719" stroke="none">+</text>
      <text xml:space="preserve" x="19" y="119.625" onclick="umlload('#ENVIRONMENT')" stroke="none">ENVIRONMENT : int</text>
      <line y2="122.4531" fill="none" x1="19" x2="135" y1="122.4531"/>
    </g>
    <g font-family="sans-serif" transform="matrix(1,0,0,1,297,143)">
      <text xml:space="preserve" x="4" y="134.1719" stroke="none">+</text>
      <text xml:space="preserve" x="19" y="135.5938" onclick="umlload('#EXPLORE_ONS')" stroke="none">EXPLORE_ONS : int</text>
      <line y2="138.4219" fill="none" x1="19" x2="133" y1="138.4219"/>
    </g>
    <g font-family="sans-serif" transform="matrix(1,0,0,1,297,143)">
      <text xml:space="preserve" x="4" y="150.1719" stroke="none">+</text>
      <text xml:space="preserve" x="19" y="151.5625" onclick="umlload('#EXPLORE_POLICE')" stroke="none">EXPLORE_POLICE : int</text>
      <line y2="154.3906" fill="none" x1="19" x2="149" y1="154.3906"/>
    </g>
    <g font-family="sans-serif" transform="matrix(1,0,0,1,297,143)">
      <text xml:space="preserve" x="4" y="166.1719" stroke="none">+</text>
      <text xml:space="preserve" x="19" y="167.5312" onclick="umlload('#GET_HELP')" stroke="none">GET_HELP : int</text>
      <line y2="170.3594" fill="none" x1="19" x2="108" y1="170.3594"/>
    </g>
    <g font-family="sans-serif" transform="matrix(1,0,0,1,297,143)">
      <text xml:space="preserve" x="4" y="182.1719" stroke="none">+</text>
      <text xml:space="preserve" x="19" y="183.5" onclick="umlload('#SUMMARY')" stroke="none">SUMMARY : int</text>
      <line y2="186.3281" fill="none" x1="19" x2="107" y1="186.3281"/>
    </g>
    <g font-family="sans-serif" transform="matrix(1,0,0,1,297,143)">
      <text xml:space="preserve" x="4" y="198.1719" stroke="none">#</text>
      <text xml:space="preserve" x="19" y="199.4688" onclick="umlload('#isAreaDataServiceBound')" stroke="none">isAreaDataServiceBound : boolean</text>
    </g>
    <g font-family="sans-serif" transform="matrix(1,0,0,1,297,143)">
      <text xml:space="preserve" x="4" y="214.1719" stroke="none">#</text>
      <text xml:space="preserve" x="19" y="215.4375" onclick="umlload('#is_landscape')" stroke="none">is_landscape : boolean</text>
    </g>
    <g font-family="sans-serif" transform="matrix(1,0,0,1,297,143)">
      <text xml:space="preserve" x="4" y="230.1719" stroke="none">#</text>
      <text xml:space="preserve" x="19" y="231.4062" onclick="umlload('#is_live')" stroke="none">is_live : boolean</text>
    </g>
    <g font-family="sans-serif" transform="matrix(1,0,0,1,297,143)">
      <text xml:space="preserve" x="4" y="246.1719" stroke="none">#</text>
      <text xml:space="preserve" x="19" y="247.375" onclick="umlload('#is_requesting_updates')" stroke="none">is_requesting_updates : boolean</text>
    </g>
    <g font-family="sans-serif" transform="matrix(1,0,0,1,297,143)">
      <text xml:space="preserve" x="4" y="262.1719" stroke="none">#</text>
      <text xml:space="preserve" x="19" y="263.3438" onclick="umlload('#is_tablet')" stroke="none">is_tablet : boolean</text>
    </g>
    <g font-family="sans-serif" transform="matrix(1,0,0,1,297,143)">
      <text xml:space="preserve" x="4" y="278.1719" stroke="none">#</text>
      <text xml:space="preserve" x="19" y="279.3125" onclick="umlload('#mAreaDataServiceConnection')" stroke="none">mAreaDataServiceConnection : ServiceConnection</text>
    </g>
    <g font-family="sans-serif" transform="matrix(1,0,0,1,297,143)">
      <text xml:space="preserve" x="4" y="294.1719" stroke="none">#</text>
      <text xml:space="preserve" x="19" y="295.2812" onclick="umlload('#request_location_updates')" stroke="none">request_location_updates : boolean</text>
    </g>
    <g font-family="sans-serif" transform="matrix(1,0,0,1,297,143)">
      <text xml:space="preserve" x="4" y="311.1719" stroke="none">+</text>
      <text xml:space="preserve" x="19" y="312.25" onclick="umlload('#AreaActivity()')" stroke="none">AreaActivity()</text>
    </g>
    <g font-family="sans-serif" transform="matrix(1,0,0,1,297,143)">
      <text xml:space="preserve" x="4" y="328.1719" stroke="none">+</text>
      <text xml:space="preserve" x="19" y="329.2188" onclick="umlload('#areaReady(nde2.pull.types.Area)')" stroke="none">areaReady(Area) : void</text>
    </g>
    <g font-family="sans-serif" transform="matrix(1,0,0,1,297,143)">
      <text xml:space="preserve" x="4" y="344.1719" stroke="none">+</text>
      <text xml:space="preserve" x="19" y="345.1875" onclick="umlload('#areasReady(java.util.List)')" stroke="none">areasReady(List&lt;Area&gt;) : void</text>
    </g>
    <g font-family="sans-serif" transform="matrix(1,0,0,1,297,143)">
      <text xml:space="preserve" x="4" y="360.1719" stroke="none">+</text>
      <text xml:space="preserve" x="19" y="361.1562" onclick="umlload('#getArea()')" stroke="none">getArea() : Area</text>
    </g>
    <g font-family="sans-serif" transform="matrix(1,0,0,1,297,143)">
      <text xml:space="preserve" x="4" y="375.1719" stroke="none">+</text>
      <text xml:space="preserve" x="19" y="377.125" onclick="umlload('#getAreabaseApplicationContext()')" stroke="none">getAreabaseApplicationContext() : Context</text>
      <line y2="379.9531" fill="none" x1="19" x2="287" y1="379.9531"/>
    </g>
    <g font-family="sans-serif" transform="matrix(1,0,0,1,297,143)">
      <text xml:space="preserve" x="4" y="391.1719" stroke="none">+</text>
      <text xml:space="preserve" x="19" y="393.0938" onclick="umlload('#getLocation()')" stroke="none">getLocation() : Location</text>
    </g>
    <g font-family="sans-serif" transform="matrix(1,0,0,1,297,143)">
      <text xml:space="preserve" x="4" y="407.1719" stroke="none">+</text>
      <text xml:space="preserve" x="19" y="409.0625" onclick="umlload('#isLandscape()')" stroke="none">isLandscape() : boolean</text>
    </g>
    <g font-family="sans-serif" transform="matrix(1,0,0,1,297,143)">
      <text xml:space="preserve" x="4" y="423.1719" stroke="none">+</text>
      <text xml:space="preserve" x="19" y="425.0312" onclick="umlload('#isTablet()')" stroke="none">isTablet() : boolean</text>
    </g>
    <g font-family="sans-serif" transform="matrix(1,0,0,1,297,143)">
      <text xml:space="preserve" x="4" y="439.1719" stroke="none">#</text>
      <text xml:space="preserve" x="19" y="441" onclick="umlload('#onActivityResult(int, int, Intent)')" stroke="none">onActivityResult(int, int, Intent) : void</text>
    </g>
    <g font-family="sans-serif" transform="matrix(1,0,0,1,297,143)">
      <text xml:space="preserve" x="4" y="455.1719" stroke="none">+</text>
      <text xml:space="preserve" x="19" y="456.9688" onclick="umlload('#onBackStackChanged()')" stroke="none">onBackStackChanged() : void</text>
    </g>
    <g font-family="sans-serif" transform="matrix(1,0,0,1,297,143)">
      <text xml:space="preserve" x="4" y="471.1719" stroke="none">+</text>
      <text xml:space="preserve" x="19" y="472.9375" onclick="umlload('#onConfigurationChanged(Configuration)')" stroke="none">onConfigurationChanged(Configuration) : void</text>
    </g>
    <g font-family="sans-serif" transform="matrix(1,0,0,1,297,143)">
      <text xml:space="preserve" x="4" y="487.1719" stroke="none">+</text>
      <text xml:space="preserve" x="19" y="488.9062" onclick="umlload('#onConnected(Bundle)')" stroke="none">onConnected(Bundle) : void</text>
    </g>
    <g font-family="sans-serif" transform="matrix(1,0,0,1,297,143)">
      <text xml:space="preserve" x="4" y="503.1719" stroke="none">+</text>
      <text xml:space="preserve" x="19" y="504.875" onclick="umlload('#onConnectionFailed(ConnectionResult)')" stroke="none">onConnectionFailed(ConnectionResult) : void</text>
    </g>
    <g font-family="sans-serif" transform="matrix(1,0,0,1,297,143)">
      <text xml:space="preserve" x="4" y="519.1719" stroke="none">#</text>
      <text xml:space="preserve" x="19" y="520.8438" onclick="umlload('#onCreate(Bundle)')" stroke="none">onCreate(Bundle) : void</text>
    </g>
    <g font-family="sans-serif" transform="matrix(1,0,0,1,297,143)">
      <text xml:space="preserve" x="4" y="535.1719" stroke="none">+</text>
      <text xml:space="preserve" x="19" y="536.8125" onclick="umlload('#onCreateOptionsMenu(Menu)')" stroke="none">onCreateOptionsMenu(Menu) : boolean</text>
    </g>
    <g font-family="sans-serif" transform="matrix(1,0,0,1,297,143)">
      <text xml:space="preserve" x="4" y="551.1719" stroke="none">+</text>
      <text xml:space="preserve" x="19" y="552.7812" onclick="umlload('#onDisconnected()')" stroke="none">onDisconnected() : void</text>
    </g>
    <g font-family="sans-serif" transform="matrix(1,0,0,1,297,143)">
      <text xml:space="preserve" x="4" y="567.1719" stroke="none">+</text>
      <text xml:space="preserve" x="19" y="568.75" onclick="umlload('#onError(java.lang.Throwable)')" stroke="none">onError(Throwable) : void</text>
    </g>
    <g font-family="sans-serif" transform="matrix(1,0,0,1,297,143)">
      <text xml:space="preserve" x="4" y="583.1719" stroke="none">+</text>
      <text xml:space="preserve" x="19" y="584.7188" onclick="umlload('#onLocationChanged(Location)')" stroke="none">onLocationChanged(Location) : void</text>
    </g>
    <g font-family="sans-serif" transform="matrix(1,0,0,1,297,143)">
      <text xml:space="preserve" x="4" y="599.1719" stroke="none">+</text>
      <text xml:space="preserve" x="19" y="600.6875" onclick="umlload('#onOptionsItemSelected(MenuItem)')" stroke="none">onOptionsItemSelected(MenuItem) : boolean</text>
    </g>
    <g font-family="sans-serif" transform="matrix(1,0,0,1,297,143)">
      <text xml:space="preserve" x="4" y="615.1719" stroke="none">#</text>
      <text xml:space="preserve" x="19" y="616.6562" onclick="umlload('#onPause()')" stroke="none">onPause() : void</text>
    </g>
    <g font-family="sans-serif" transform="matrix(1,0,0,1,297,143)">
      <text xml:space="preserve" x="4" y="631.1719" stroke="none">#</text>
      <text xml:space="preserve" x="19" y="632.625" onclick="umlload('#onPostCreate(Bundle)')" stroke="none">onPostCreate(Bundle) : void</text>
    </g>
    <g font-family="sans-serif" transform="matrix(1,0,0,1,297,143)">
      <text xml:space="preserve" x="4" y="647.1719" stroke="none">#</text>
      <text xml:space="preserve" x="19" y="648.5938" onclick="umlload('#onResume()')" stroke="none">onResume() : void</text>
    </g>
    <g font-family="sans-serif" transform="matrix(1,0,0,1,297,143)">
      <text xml:space="preserve" x="4" y="663.1719" stroke="none">#</text>
      <text xml:space="preserve" x="19" y="664.5625" onclick="umlload('#onSaveInstanceState(Bundle)')" stroke="none">onSaveInstanceState(Bundle) : void</text>
    </g>
    <g font-family="sans-serif" transform="matrix(1,0,0,1,297,143)">
      <text xml:space="preserve" x="4" y="679.1719" stroke="none">#</text>
      <text xml:space="preserve" x="19" y="680.5312" onclick="umlload('#onStart()')" stroke="none">onStart() : void</text>
    </g>
    <g font-family="sans-serif" transform="matrix(1,0,0,1,297,143)">
      <text xml:space="preserve" x="4" y="695.1719" stroke="none">#</text>
      <text xml:space="preserve" x="19" y="696.5" onclick="umlload('#onStop()')" stroke="none">onStop() : void</text>
    </g>
    <g font-family="sans-serif" transform="matrix(1,0,0,1,297,143)">
      <text xml:space="preserve" x="4" y="711.1719" stroke="none">+</text>
      <text xml:space="preserve" x="19" y="712.4688" onclick="umlload('#setTitle(java.lang.CharSequence)')" stroke="none">setTitle(CharSequence) : void</text>
    </g>
    <g font-family="sans-serif" transform="matrix(1,0,0,1,297,143)">
      <text xml:space="preserve" x="4" y="727.1719" stroke="none">+</text>
      <text xml:space="preserve" x="19" y="728.4375" onclick="umlload('#showSubjectView(nde2.pull.types.Area, java.lang.String)')" stroke="none">showSubjectView(Area, String) : void</text>
    </g>
    <g font-family="sans-serif" transform="matrix(1,0,0,1,297,143)">
      <text xml:space="preserve" x="4" y="743.1719" stroke="none">+</text>
      <text xml:space="preserve" x="19" y="744.4062" onclick="umlload('#startGraphActivity(nde2.pull.types.DataSetFamily, nde2.pull.types.Area)')" stroke="none">startGraphActivity(DataSetFamily, Area) : void</text>
    </g>
    <g font-family="sans-serif" transform="matrix(1,0,0,1,297,143)">
      <text xml:space="preserve" x="-291" y="781.1562" onclick="umlload('http://www.yworks.com/')" stroke="none">yWorks UML Doclet</text>
    </g>
    <g stroke-miterlimit="1.45" transform="matrix(1,0,0,1,297,143)" stroke-linecap="butt">
      <path fill="none" d="M173.555 0 L173.555 -69"/>
      <path fill="white" d="M173.555 -84 L167.555 -68 L179.555 -68 Z" stroke="none"/>
      <path fill="none" d="M173.555 -84 L167.555 -68 L179.555 -68 Z"/>
      <path fill="none" stroke-dasharray="6,2" d="M260.3325 -0.014 L260.3325 -51 L481.2948 -51 L481.2948 -69"/>
      <path fill="white" stroke-dasharray="6,2" d="M481.2948 -84 L475.2948 -68 L487.2948 -68 Z" stroke="none"/>
      <path fill="none" d="M481.2948 -84 L475.2948 -68 L487.2948 -68 Z"/>
      <path fill="none" stroke-dasharray="6,2" d="M260.3325 -0.014 L260.3325 -51 L896.9691 -51 L896.9691 -69"/>
      <path fill="white" stroke-dasharray="6,2" d="M896.9691 -84 L890.9691 -68 L902.9691 -68 Z" stroke="none"/>
      <path fill="none" d="M896.9691 -84 L890.9691 -68 L902.9691 -68 Z"/>
      <path fill="none" d="M0.0157 16.3518 L-66 16.3518"/>
      <line stroke-linecap="square" transform="matrix(-1,0,0,-1,-66,16.3518)" fill="none" x1="0" x2="-14" y1="0" y2="-4" stroke-miterlimit="10"/>
      <line stroke-linecap="square" transform="matrix(-1,0,0,-1,-66,16.3518)" fill="none" x1="0" x2="-14" y1="0" y2="4" stroke-miterlimit="10"/>
    </g>
    <g stroke-miterlimit="1.45" transform="matrix(1,0,0,1,297,143)" stroke-linecap="butt">
      <path fill="none" d="M0.0232 54.2662 L-177.0403 54.2662"/>
      <line stroke-linecap="square" transform="matrix(-1,0,0,-1,-177.0403,54.2662)" fill="none" x1="0" x2="-14" y1="0" y2="-4" stroke-miterlimit="10"/>
      <line stroke-linecap="square" transform="matrix(-1,0,0,-1,-177.0403,54.2662)" fill="none" x1="0" x2="-14" y1="0" y2="4" stroke-miterlimit="10"/>
    </g>
    <g stroke-miterlimit="1.45" transform="matrix(1,0,0,1,297,143)" stroke-linecap="butt">
      <path fill="none" d="M-0.0109 146.1805 L-66 146.1805"/>
      <line stroke-linecap="square" transform="matrix(-1,0,0,-1,-66,146.1805)" fill="none" x1="0" x2="-14" y1="0" y2="-4" stroke-miterlimit="10"/>
      <line stroke-linecap="square" transform="matrix(-1,0,0,-1,-66,146.1805)" fill="none" x1="0" x2="-14" y1="0" y2="4" stroke-miterlimit="10"/>
    </g>
    <g stroke-miterlimit="1.45" transform="matrix(1,0,0,1,297,143)" stroke-linecap="butt">
      <path fill="none" d="M0.004 238.0949 L-122.83 238.0949"/>
      <line stroke-linecap="square" transform="matrix(-1,0,0,-1,-122.83,238.0949)" fill="none" x1="0" x2="-14" y1="0" y2="-4" stroke-miterlimit="10"/>
      <line stroke-linecap="square" transform="matrix(-1,0,0,-1,-122.83,238.0949)" fill="none" x1="0" x2="-14" y1="0" y2="4" stroke-miterlimit="10"/>
    </g>
    <g stroke-miterlimit="1.45" transform="matrix(1,0,0,1,297,143)" stroke-linecap="butt">
      <path fill="none" d="M0.0195 325.2199 L-127.98 325.2199"/>
      <line stroke-linecap="square" transform="matrix(-1,0,0,-1,-127.98,325.2199)" fill="none" x1="0" x2="-14" y1="0" y2="-4" stroke-miterlimit="10"/>
      <line stroke-linecap="square" transform="matrix(-1,0,0,-1,-127.98,325.2199)" fill="none" x1="0" x2="-14" y1="0" y2="4" stroke-miterlimit="10"/>
    </g>
    <g stroke-dasharray="6,2" stroke-miterlimit="1.45" transform="matrix(1,0,0,1,297,143)" stroke-linecap="butt">
      <path fill="none" d="M347.1037 11.5625 L413.11 11.5625"/>
      <line stroke-linecap="square" transform="matrix(1,0,0,1,413.11,11.5625)" fill="none" x1="0" x2="-14" y1="0" y2="-4" stroke-dasharray="none" stroke-miterlimit="10"/>
      <line stroke-linecap="square" transform="matrix(1,0,0,1,413.11,11.5625)" fill="none" x1="0" x2="-14" y1="0" y2="4" stroke-dasharray="none" stroke-miterlimit="10"/>
    </g>
    <g stroke-dasharray="6,2" stroke-miterlimit="1.45" transform="matrix(1,0,0,1,297,143)" stroke-linecap="butt">
      <path fill="none" d="M347.0863 103.4768 L413.11 103.4768"/>
      <line stroke-linecap="square" transform="matrix(1,0,0,1,413.11,103.4768)" fill="none" x1="0" x2="-14" y1="0" y2="-4" stroke-dasharray="none" stroke-miterlimit="10"/>
      <line stroke-linecap="square" transform="matrix(1,0,0,1,413.11,103.4768)" fill="none" x1="0" x2="-14" y1="0" y2="4" stroke-dasharray="none" stroke-miterlimit="10"/>
    </g>
    <g stroke-dasharray="6,2" stroke-miterlimit="1.45" transform="matrix(1,0,0,1,297,143)" stroke-linecap="butt">
      <path fill="none" d="M347.126 195.3912 L413.11 195.3912"/>
      <line stroke-linecap="square" transform="matrix(1,0,0,1,413.11,195.3912)" fill="none" x1="0" x2="-14" y1="0" y2="-4" stroke-dasharray="none" stroke-miterlimit="10"/>
      <line stroke-linecap="square" transform="matrix(1,0,0,1,413.11,195.3912)" fill="none" x1="0" x2="-14" y1="0" y2="4" stroke-dasharray="none" stroke-miterlimit="10"/>
    </g>
  </g>
</svg>
