<?xml version="1.0" encoding="UTF-8"?>
<svg xmlns="http://www.w3.org/2000/svg" xmlns:xlink="http://www.w3.org/1999/xlink" fill-opacity="1" color-rendering="auto" color-interpolation="auto" stroke="black" text-rendering="auto" stroke-linecap="square" width="598" stroke-miterlimit="10" stroke-opacity="1" shape-rendering="auto" fill="black" stroke-dasharray="none" font-weight="normal" stroke-width="1" height="415" font-family="'Dialog'" font-style="normal" stroke-linejoin="miter" font-size="12" stroke-dashoffset="0" image-rendering="auto">
  <!--Generated by ySVG-->
  <defs id="genericDefs"/>
  <g>
    <defs id="defs1">
      <clipPath clipPathUnits="userSpaceOnUse" id="clipPath1">
        <path d="M0 0 L598 0 L598 415 L0 415 L0 0 Z"/>
      </clipPath>
      <clipPath clipPathUnits="userSpaceOnUse" id="clipPath2">
        <path d="M-232.86 87.125 L-66 87.125 L-66 110.25 L-232.86 110.25 L-232.86 87.125 Z"/>
      </clipPath>
      <clipPath clipPathUnits="userSpaceOnUse" id="clipPath3">
        <path d="M-130.04 0 L-76.48 0 L-76.48 23.125 L-130.04 23.125 L-130.04 0 Z"/>
      </clipPath>
      <clipPath clipPathUnits="userSpaceOnUse" id="clipPath4">
        <path d="M108.15 -107.125 L239.99 -107.125 L239.99 -84 L108.15 -84 L108.15 -107.125 Z"/>
      </clipPath>
      <clipPath clipPathUnits="userSpaceOnUse" id="clipPath5">
        <path d="M0 0 L348.14 0 L348.14 237.2344 L0 237.2344 L0 0 Z"/>
      </clipPath>
      <script type="text/ecmascript"><![CDATA[
function umlload(newLocation)
{
if (newLocation.charAt(0) != '#') {
if (newLocation.indexOf("://") > -1) {
window.parent.location.href = newLocation;
} else {
var tmp = window.parent.location.href;
tmp = tmp.substring(0, tmp.lastIndexOf("/") + 1);
window.parent.location.href = tmp.concat(newLocation);
}
} else {
window.parent.location.hash = newLocation;
}
}
]]></script>
    </defs>
    <g fill="rgb(238,238,255)" transform="matrix(1,0,0,1,241,134)" stroke="rgb(238,238,255)">
      <rect width="148.2824" x="-240.86" height="17.9688" y="61.125" stroke="none"/>
    </g>
    <g fill="rgb(166,166,178)" stroke-miterlimit="1.45" transform="matrix(1,0,0,1,241,134)" stroke-linecap="butt" stroke="rgb(166,166,178)">
      <rect fill="none" width="148.2824" x="-240.86" height="17.9688" y="61.125"/>
    </g>
    <g fill="rgb(238,238,255)" transform="matrix(1,0,0,1,241,134)" stroke="rgb(238,238,255)">
      <rect width="182.86" x="-240.86" height="39.1562" y="79.0938" stroke="none"/>
    </g>
    <g fill="rgb(166,166,178)" stroke-miterlimit="1.45" transform="matrix(1,0,0,1,241,134)" stroke-linecap="butt" stroke="rgb(166,166,178)">
      <rect fill="none" width="182.86" x="-240.86" height="39.1562" y="79.0938"/>
    </g>
    <g font-family="sans-serif" transform="matrix(1,0,0,1,241,134)">
      <text xml:space="preserve" x="-234.86" y="74.2656" onclick="umlload('../../lamparski/areabase/package-summary.html')" stroke="none">lamparski.areabase</text>
    </g>
    <g fill="rgb(187,187,255)" transform="matrix(1,0,0,1,241,134)" stroke="rgb(187,187,255)">
      <rect x="-232.86" y="87.125" clip-path="url(#clipPath2)" width="166.86" height="23.125" stroke="none"/>
    </g>
    <g fill="rgb(130,130,178)" stroke-miterlimit="1.45" transform="matrix(1,0,0,1,241,134)" stroke-linecap="butt" stroke="rgb(130,130,178)">
      <rect fill="none" width="166.86" x="-232.86" height="23.125" y="87.125"/>
    </g>
    <g font-size="13" font-weight="bold" font-family="sans-serif" transform="matrix(1,0,0,1,241,134)">
      <text xml:space="preserve" x="-226.43" y="103.1875" onclick="umlload('../../lamparski/areabase/CacheDbOpenHelper.html')" stroke="none">CacheDbOpenHelper</text>
    </g>
    <g fill="rgb(238,238,255)" transform="matrix(1,0,0,1,241,134)" stroke="rgb(238,238,255)">
      <rect width="76.1412" x="-138.04" height="17.9688" y="-26" stroke="none"/>
    </g>
    <g fill="rgb(166,166,178)" stroke-miterlimit="1.45" transform="matrix(1,0,0,1,241,134)" stroke-linecap="butt" stroke="rgb(166,166,178)">
      <rect fill="none" width="76.1412" x="-138.04" height="17.9688" y="-26"/>
    </g>
    <g fill="rgb(238,238,255)" transform="matrix(1,0,0,1,241,134)" stroke="rgb(238,238,255)">
      <rect width="79.56" x="-138.04" height="39.1562" y="-8.0312" stroke="none"/>
    </g>
    <g fill="rgb(166,166,178)" stroke-miterlimit="1.45" transform="matrix(1,0,0,1,241,134)" stroke-linecap="butt" stroke="rgb(166,166,178)">
      <rect fill="none" width="79.56" x="-138.04" height="39.1562" y="-8.0312"/>
    </g>
    <g font-family="sans-serif" transform="matrix(1,0,0,1,241,134)">
      <text xml:space="preserve" x="-132.04" y="-12.8594" stroke="none">java.lang</text>
    </g>
    <g fill="rgb(187,187,255)" transform="matrix(1,0,0,1,241,134)" stroke="rgb(187,187,255)">
      <rect x="-130.04" y="0" clip-path="url(#clipPath3)" width="53.56" height="23.125" stroke="none"/>
    </g>
    <g fill="rgb(130,130,178)" stroke-miterlimit="1.45" transform="matrix(1,0,0,1,241,134)" stroke-linecap="butt" stroke="rgb(130,130,178)">
      <rect fill="none" width="53.56" x="-130.04" height="23.125" y="0"/>
    </g>
    <g font-size="13" font-weight="bold" font-family="sans-serif" transform="matrix(1,0,0,1,241,134)">
      <text xml:space="preserve" x="-125.26" y="16.0625" stroke="none">String</text>
    </g>
    <g fill="rgb(238,238,255)" transform="matrix(1,0,0,1,241,134)" stroke="rgb(238,238,255)">
      <rect width="162.0741" x="97.15" height="17.9688" y="-133.125" stroke="none"/>
    </g>
    <g fill="rgb(166,166,178)" stroke-miterlimit="1.45" transform="matrix(1,0,0,1,241,134)" stroke-linecap="butt" stroke="rgb(166,166,178)">
      <rect fill="none" width="162.0741" x="97.15" height="17.9688" y="-133.125"/>
    </g>
    <g fill="rgb(238,238,255)" transform="matrix(1,0,0,1,241,134)" stroke="rgb(238,238,255)">
      <rect width="162.0741" x="97.15" height="39.1562" y="-115.1562" stroke="none"/>
    </g>
    <g fill="rgb(166,166,178)" stroke-miterlimit="1.45" transform="matrix(1,0,0,1,241,134)" stroke-linecap="butt" stroke="rgb(166,166,178)">
      <rect fill="none" width="162.0741" x="97.15" height="39.1562" y="-115.1562"/>
    </g>
    <g font-family="sans-serif" transform="matrix(1,0,0,1,241,134)">
      <text xml:space="preserve" x="103.15" y="-119.9844" onclick="umlload('package-summary.html')" stroke="none">&lt;unnamed package&gt;</text>
    </g>
    <g fill="rgb(187,187,255)" transform="matrix(1,0,0,1,241,134)" stroke="rgb(187,187,255)">
      <rect x="108.15" y="-107.125" clip-path="url(#clipPath4)" width="131.84" height="23.125" stroke="none"/>
    </g>
    <g fill="rgb(130,130,178)" stroke-miterlimit="1.45" transform="matrix(1,0,0,1,241,134)" stroke-linecap="butt" stroke="rgb(130,130,178)">
      <rect fill="none" width="131.84" x="108.15" height="23.125" y="-107.125"/>
    </g>
    <g font-size="13" font-weight="bold" font-family="sans-serif" transform="matrix(1,0,0,1,241,134)">
      <text xml:space="preserve" x="114.07" y="-91.0625" stroke="none">ContentProvider</text>
    </g>
    <g fill="rgb(238,238,255)" transform="matrix(1,0,0,1,241,134)" stroke="rgb(238,238,255)">
      <rect width="148.2824" x="-8" height="17.9688" y="-26" stroke="none"/>
    </g>
    <g fill="rgb(166,166,178)" stroke-miterlimit="1.45" transform="matrix(1,0,0,1,241,134)" stroke-linecap="butt" stroke="rgb(166,166,178)">
      <rect fill="none" width="148.2824" x="-8" height="17.9688" y="-26"/>
    </g>
    <g fill="rgb(238,238,255)" transform="matrix(1,0,0,1,241,134)" stroke="rgb(238,238,255)">
      <rect width="364.14" x="-8" height="253.2656" y="-8.0312" stroke="none"/>
    </g>
    <g fill="rgb(166,166,178)" stroke-miterlimit="1.45" transform="matrix(1,0,0,1,241,134)" stroke-linecap="butt" stroke="rgb(166,166,178)">
      <rect fill="none" width="364.14" x="-8" height="253.2656" y="-8.0312"/>
    </g>
    <g font-family="sans-serif" transform="matrix(1,0,0,1,241,134)">
      <text xml:space="preserve" x="-2" y="-12.8594" onclick="umlload('package-summary.html')" stroke="none">lamparski.areabase</text>
    </g>
    <g fill="rgb(187,187,255)" transform="matrix(1,0,0,1,241,134)" stroke="rgb(187,187,255)">
      <rect x="0" y="0" clip-path="url(#clipPath5)" width="348.14" height="26.6406" stroke="none"/>
      <line clip-path="url(#clipPath5)" fill="none" x1="0" x2="348.14" y1="26.6406" y2="26.6406" stroke="black"/>
      <rect x="0" y="27.6406" clip-path="url(#clipPath5)" width="348.14" height="95.8125" stroke="none"/>
      <line clip-path="url(#clipPath5)" fill="none" x1="0" x2="348.14" y1="123.4531" y2="123.4531" stroke="black"/>
      <rect x="0" y="124.4531" clip-path="url(#clipPath5)" width="348.14" height="15.9688" stroke="none"/>
      <line clip-path="url(#clipPath5)" fill="none" x1="0" x2="348.14" y1="140.4219" y2="140.4219" stroke="black"/>
      <rect x="0" y="141.4219" clip-path="url(#clipPath5)" width="348.14" height="95.8125" stroke="none"/>
    </g>
    <g fill="rgb(130,130,178)" stroke-miterlimit="1.45" transform="matrix(1,0,0,1,241,134)" stroke-linecap="butt" stroke="rgb(130,130,178)">
      <rect fill="none" width="348.14" x="0" height="237.2344" y="0"/>
    </g>
    <g font-size="16" font-weight="bold" font-family="sans-serif" transform="matrix(1,0,0,1,241,134)">
      <text xml:space="preserve" x="73.57" y="18.8594" onclick="umlload('#')" stroke="none">CacheContentProvider</text>
    </g>
    <g font-family="sans-serif" transform="matrix(1,0,0,1,241,134)">
      <text xml:space="preserve" x="4" y="38.1719" stroke="none">+</text>
      <text xml:space="preserve" x="19" y="39.7812" onclick="umlload('#AREARANK_CACHE_URI')" stroke="none">AREARANK_CACHE_URI : Uri</text>
      <line y2="42.6094" fill="none" x1="19" x2="185" y1="42.6094"/>
    </g>
    <g font-family="sans-serif" transform="matrix(1,0,0,1,241,134)">
      <text xml:space="preserve" x="4" y="54.1719" stroke="none">+</text>
      <text xml:space="preserve" x="19" y="55.75" onclick="umlload('#AUTHORITY')" stroke="none">AUTHORITY : String</text>
      <line y2="58.5781" fill="none" x1="19" x2="135" y1="58.5781"/>
    </g>
    <g font-family="sans-serif" transform="matrix(1,0,0,1,241,134)">
      <text xml:space="preserve" x="4" y="70.1719" stroke="none">+</text>
      <text xml:space="preserve" x="19" y="71.7188" onclick="umlload('#CONTENT_URI')" stroke="none">CONTENT_URI : Uri</text>
      <line y2="74.5469" fill="none" x1="19" x2="131" y1="74.5469"/>
    </g>
    <g font-family="sans-serif" transform="matrix(1,0,0,1,241,134)">
      <text xml:space="preserve" x="4" y="86.1719" stroke="none">+</text>
      <text xml:space="preserve" x="19" y="87.6875" onclick="umlload('#MAPIT_CACHE_URI')" stroke="none">MAPIT_CACHE_URI : Uri</text>
      <line y2="90.5156" fill="none" x1="19" x2="157" y1="90.5156"/>
    </g>
    <g font-family="sans-serif" transform="matrix(1,0,0,1,241,134)">
      <text xml:space="preserve" x="4" y="102.1719" stroke="none">+</text>
      <text xml:space="preserve" x="19" y="103.6562" onclick="umlload('#ONS_CACHE_URI')" stroke="none">ONS_CACHE_URI : Uri</text>
      <line y2="106.4844" fill="none" x1="19" x2="147" y1="106.4844"/>
    </g>
    <g font-family="sans-serif" transform="matrix(1,0,0,1,241,134)">
      <text xml:space="preserve" x="4" y="118.1719" stroke="none">+</text>
      <text xml:space="preserve" x="19" y="119.625" onclick="umlload('#POLICE_CACHE_URI')" stroke="none">POLICE_CACHE_URI : Uri</text>
      <line y2="122.4531" fill="none" x1="19" x2="163" y1="122.4531"/>
    </g>
    <g font-family="sans-serif" transform="matrix(1,0,0,1,241,134)">
      <text xml:space="preserve" x="4" y="135.1719" stroke="none">+</text>
      <text xml:space="preserve" x="19" y="136.5938" onclick="umlload('#CacheContentProvider()')" stroke="none">CacheContentProvider()</text>
    </g>
    <g font-family="sans-serif" transform="matrix(1,0,0,1,241,134)">
      <text xml:space="preserve" x="4" y="152.1719" stroke="none">+</text>
      <text xml:space="preserve" x="19" y="153.5625" onclick="umlload('#delete(Uri, java.lang.String, java.lang.String[])')" stroke="none">delete(Uri, String, String[]) : int</text>
    </g>
    <g font-family="sans-serif" transform="matrix(1,0,0,1,241,134)">
      <text xml:space="preserve" x="4" y="168.1719" stroke="none">+</text>
      <text xml:space="preserve" x="19" y="169.5312" onclick="umlload('#getType(Uri)')" stroke="none">getType(Uri) : String</text>
    </g>
    <g font-family="sans-serif" transform="matrix(1,0,0,1,241,134)">
      <text xml:space="preserve" x="4" y="184.1719" stroke="none">+</text>
      <text xml:space="preserve" x="19" y="185.5" onclick="umlload('#insert(Uri, ContentValues)')" stroke="none">insert(Uri, ContentValues) : Uri</text>
    </g>
    <g font-family="sans-serif" transform="matrix(1,0,0,1,241,134)">
      <text xml:space="preserve" x="4" y="200.1719" stroke="none">+</text>
      <text xml:space="preserve" x="19" y="201.4688" onclick="umlload('#onCreate()')" stroke="none">onCreate() : boolean</text>
    </g>
    <g font-family="sans-serif" transform="matrix(1,0,0,1,241,134)">
      <text xml:space="preserve" x="4" y="216.1719" stroke="none">+</text>
      <text xml:space="preserve" x="19" y="217.4375" onclick="umlload('#query(Uri, java.lang.String[], java.lang.String, java.lang.String[], java.lang.String)')" stroke="none">query(Uri, String[], String, String[], String) : Cursor</text>
    </g>
    <g font-family="sans-serif" transform="matrix(1,0,0,1,241,134)">
      <text xml:space="preserve" x="4" y="232.1719" stroke="none">+</text>
      <text xml:space="preserve" x="19" y="233.4062" onclick="umlload('#update(Uri, ContentValues, java.lang.String, java.lang.String[])')" stroke="none">update(Uri, ContentValues, String, String[]) : int</text>
    </g>
    <g font-family="sans-serif" transform="matrix(1,0,0,1,241,134)">
      <text xml:space="preserve" x="-235" y="270.1562" onclick="umlload('http://www.yworks.com/')" stroke="none">yWorks UML Doclet</text>
    </g>
    <g stroke-miterlimit="1.45" transform="matrix(1,0,0,1,241,134)" stroke-linecap="butt">
      <path fill="none" d="M174.07 0 L174.07 -69"/>
      <path fill="white" d="M174.07 -84 L168.07 -68 L180.07 -68 Z" stroke="none"/>
      <path fill="none" d="M174.07 -84 L168.07 -68 L180.07 -68 Z"/>
      <path fill="none" d="M0.0278 11.5625 L-76.48 11.5625"/>
      <line stroke-linecap="square" transform="matrix(-1,0,0,-1,-76.48,11.5625)" fill="none" x1="0" x2="-14" y1="0" y2="-4" stroke-miterlimit="10"/>
      <line stroke-linecap="square" transform="matrix(-1,0,0,-1,-76.48,11.5625)" fill="none" x1="0" x2="-14" y1="0" y2="4" stroke-miterlimit="10"/>
    </g>
    <g stroke-miterlimit="1.45" transform="matrix(1,0,0,1,241,134)" stroke-linecap="butt">
      <path fill="none" d="M0.0387 98.6875 L-66 98.6875"/>
      <line stroke-linecap="square" transform="matrix(-1,0,0,-1,-66,98.6875)" fill="none" x1="0" x2="-14" y1="0" y2="-4" stroke-miterlimit="10"/>
      <line stroke-linecap="square" transform="matrix(-1,0,0,-1,-66,98.6875)" fill="none" x1="0" x2="-14" y1="0" y2="4" stroke-miterlimit="10"/>
    </g>
  </g>
</svg>
