<?xml version="1.0" encoding="UTF-8"?>
<svg xmlns="http://www.w3.org/2000/svg" xmlns:xlink="http://www.w3.org/1999/xlink" fill-opacity="1" color-rendering="auto" color-interpolation="auto" stroke="black" text-rendering="auto" stroke-linecap="square" width="1045" stroke-miterlimit="10" stroke-opacity="1" shape-rendering="auto" fill="black" stroke-dasharray="none" font-weight="normal" stroke-width="1" height="512" font-family="'Dialog'" font-style="normal" stroke-linejoin="miter" font-size="12" stroke-dashoffset="0" image-rendering="auto">
  <!--Generated by ySVG-->
  <defs id="genericDefs"/>
  <g>
    <defs id="defs1">
      <clipPath clipPathUnits="userSpaceOnUse" id="clipPath1">
        <path d="M0 0 L1045 0 L1045 512 L0 512 L0 0 Z"/>
      </clipPath>
      <clipPath clipPathUnits="userSpaceOnUse" id="clipPath2">
        <path d="M487.27 0 L573.79 0 L573.79 23.125 L487.27 23.125 L487.27 0 Z"/>
      </clipPath>
      <clipPath clipPathUnits="userSpaceOnUse" id="clipPath3">
        <path d="M-184.45 261.375 L-141.19 261.375 L-141.19 284.5 L-184.45 284.5 L-184.45 261.375 Z"/>
      </clipPath>
      <clipPath clipPathUnits="userSpaceOnUse" id="clipPath4">
        <path d="M-184.45 294.5 L-66 294.5 L-66 317.625 L-184.45 317.625 L-184.45 294.5 Z"/>
      </clipPath>
      <clipPath clipPathUnits="userSpaceOnUse" id="clipPath5">
        <path d="M-256.73 174.25 L-122.83 174.25 L-122.83 197.375 L-256.73 197.375 L-256.73 174.25 Z"/>
      </clipPath>
      <clipPath clipPathUnits="userSpaceOnUse" id="clipPath6">
        <path d="M-198.87 87.125 L-66 87.125 L-66 110.25 L-198.87 110.25 L-198.87 87.125 Z"/>
      </clipPath>
      <clipPath clipPathUnits="userSpaceOnUse" id="clipPath7">
        <path d="M-130.04 0 L-76.48 0 L-76.48 23.125 L-130.04 23.125 L-130.04 0 Z"/>
      </clipPath>
      <clipPath clipPathUnits="userSpaceOnUse" id="clipPath8">
        <path d="M771.1018 -100.3518 C771.1018 -91.321 671.3214 -84 548.2359 -84 C425.1505 -84 325.37 -91.321 325.37 -100.3518 C325.37 -109.3827 425.1505 -116.7037 548.2359 -116.7037 C671.3214 -116.7037 771.1018 -109.3827 771.1018 -100.3518 Z"/>
      </clipPath>
      <clipPath clipPathUnits="userSpaceOnUse" id="clipPath9">
        <path d="M178.705 -107.125 L242.565 -107.125 L242.565 -84 L178.705 -84 L178.705 -107.125 Z"/>
      </clipPath>
      <clipPath clipPathUnits="userSpaceOnUse" id="clipPath10">
        <path d="M0 0 L421.27 0 L421.27 325.625 L0 325.625 L0 0 Z"/>
      </clipPath>
      <script type="text/ecmascript"><![CDATA[
function umlload(newLocation)
{
if (newLocation.charAt(0) != '#') {
if (newLocation.indexOf("://") > -1) {
window.parent.location.href = newLocation;
} else {
var tmp = window.parent.location.href;
tmp = tmp.substring(0, tmp.lastIndexOf("/") + 1);
window.parent.location.href = tmp.concat(newLocation);
}
} else {
window.parent.location.hash = newLocation;
}
}
]]></script>
    </defs>
    <g fill="rgb(238,238,255)" transform="matrix(1,0,0,1,265,143)" stroke="rgb(238,238,255)">
      <rect width="76.1412" x="479.27" height="17.9688" y="-26" stroke="none"/>
    </g>
    <g fill="rgb(166,166,178)" stroke-miterlimit="1.45" transform="matrix(1,0,0,1,265,143)" stroke-linecap="butt" stroke="rgb(166,166,178)">
      <rect fill="none" width="76.1412" x="479.27" height="17.9688" y="-26"/>
    </g>
    <g fill="rgb(238,238,255)" transform="matrix(1,0,0,1,265,143)" stroke="rgb(238,238,255)">
      <rect width="102.52" x="479.27" height="39.1562" y="-8.0312" stroke="none"/>
    </g>
    <g fill="rgb(166,166,178)" stroke-miterlimit="1.45" transform="matrix(1,0,0,1,265,143)" stroke-linecap="butt" stroke="rgb(166,166,178)">
      <rect fill="none" width="102.52" x="479.27" height="39.1562" y="-8.0312"/>
    </g>
    <g font-family="sans-serif" transform="matrix(1,0,0,1,265,143)">
      <text xml:space="preserve" x="485.27" y="-12.8594" stroke="none">java.lang</text>
    </g>
    <g fill="rgb(187,187,255)" transform="matrix(1,0,0,1,265,143)" stroke="rgb(187,187,255)">
      <rect x="487.27" y="0" clip-path="url(#clipPath2)" width="86.52" height="23.125" stroke="none"/>
    </g>
    <g fill="rgb(130,130,178)" stroke-miterlimit="1.45" transform="matrix(1,0,0,1,265,143)" stroke-linecap="butt" stroke="rgb(130,130,178)">
      <rect fill="none" width="86.52" x="487.27" height="23.125" y="0"/>
    </g>
    <g font-size="13" font-weight="bold" font-family="sans-serif" transform="matrix(1,0,0,1,265,143)">
      <text xml:space="preserve" x="492.53" y="16.0625" stroke="none">Throwable</text>
    </g>
    <g fill="rgb(238,238,255)" transform="matrix(1,0,0,1,265,143)" stroke="rgb(238,238,255)">
      <rect width="118.5772" x="-192.45" height="17.9688" y="235.375" stroke="none"/>
    </g>
    <g fill="rgb(166,166,178)" stroke-miterlimit="1.45" transform="matrix(1,0,0,1,265,143)" stroke-linecap="butt" stroke="rgb(166,166,178)">
      <rect fill="none" width="118.5772" x="-192.45" height="17.9688" y="235.375"/>
    </g>
    <g fill="rgb(238,238,255)" transform="matrix(1,0,0,1,265,143)" stroke="rgb(238,238,255)">
      <rect width="134.45" x="-192.45" height="72.2812" y="253.3438" stroke="none"/>
    </g>
    <g fill="rgb(166,166,178)" stroke-miterlimit="1.45" transform="matrix(1,0,0,1,265,143)" stroke-linecap="butt" stroke="rgb(166,166,178)">
      <rect fill="none" width="134.45" x="-192.45" height="72.2812" y="253.3438"/>
    </g>
    <g font-family="sans-serif" transform="matrix(1,0,0,1,265,143)">
      <text xml:space="preserve" x="-186.45" y="248.5156" stroke="none">nde2.pull.types</text>
    </g>
    <g fill="rgb(187,187,255)" transform="matrix(1,0,0,1,265,143)" stroke="rgb(187,187,255)">
      <rect x="-184.45" y="261.375" clip-path="url(#clipPath3)" width="43.26" height="23.125" stroke="none"/>
    </g>
    <g fill="rgb(130,130,178)" stroke-miterlimit="1.45" transform="matrix(1,0,0,1,265,143)" stroke-linecap="butt" stroke="rgb(130,130,178)">
      <rect fill="none" width="43.26" x="-184.45" height="23.125" y="261.375"/>
    </g>
    <g font-size="13" font-weight="bold" font-family="sans-serif" transform="matrix(1,0,0,1,265,143)">
      <text xml:space="preserve" x="-179.82" y="277.4375" stroke="none">Area</text>
    </g>
    <g fill="rgb(187,187,255)" transform="matrix(1,0,0,1,265,143)" stroke="rgb(187,187,255)">
      <rect x="-184.45" y="294.5" clip-path="url(#clipPath4)" width="118.45" height="23.125" stroke="none"/>
    </g>
    <g fill="rgb(130,130,178)" stroke-miterlimit="1.45" transform="matrix(1,0,0,1,265,143)" stroke-linecap="butt" stroke="rgb(130,130,178)">
      <rect fill="none" width="118.45" x="-184.45" height="23.125" y="294.5"/>
    </g>
    <g font-size="13" font-weight="bold" font-family="sans-serif" transform="matrix(1,0,0,1,265,143)">
      <text xml:space="preserve" x="-178.725" y="310.5625" stroke="none">DataSetFamily</text>
    </g>
    <g fill="rgb(238,238,255)" transform="matrix(1,0,0,1,265,143)" stroke="rgb(238,238,255)">
      <rect width="206.6319" x="-264.73" height="17.9688" y="148.25" stroke="none"/>
    </g>
    <g fill="rgb(166,166,178)" stroke-miterlimit="1.45" transform="matrix(1,0,0,1,265,143)" stroke-linecap="butt" stroke="rgb(166,166,178)">
      <rect fill="none" width="206.6319" x="-264.73" height="17.9688" y="148.25"/>
    </g>
    <g fill="rgb(238,238,255)" transform="matrix(1,0,0,1,265,143)" stroke="rgb(238,238,255)">
      <rect width="206.9" x="-264.73" height="39.1562" y="166.2188" stroke="none"/>
    </g>
    <g fill="rgb(166,166,178)" stroke-miterlimit="1.45" transform="matrix(1,0,0,1,265,143)" stroke-linecap="butt" stroke="rgb(166,166,178)">
      <rect fill="none" width="206.9" x="-264.73" height="39.1562" y="166.2188"/>
    </g>
    <g font-family="sans-serif" transform="matrix(1,0,0,1,265,143)">
      <text xml:space="preserve" x="-258.73" y="161.3906" onclick="umlload('../../lamparski/areabase/services/package-summary.html')" stroke="none">lamparski.areabase.services</text>
    </g>
    <g fill="rgb(187,187,255)" transform="matrix(1,0,0,1,265,143)" stroke="rgb(187,187,255)">
      <rect x="-256.73" y="174.25" clip-path="url(#clipPath5)" width="133.9" height="23.125" stroke="none"/>
    </g>
    <g fill="rgb(130,130,178)" stroke-miterlimit="1.45" transform="matrix(1,0,0,1,265,143)" stroke-linecap="butt" stroke="rgb(130,130,178)">
      <rect fill="none" width="133.9" x="-256.73" height="23.125" y="174.25"/>
    </g>
    <g font-size="13" font-weight="bold" font-family="sans-serif" transform="matrix(1,0,0,1,265,143)">
      <text xml:space="preserve" x="-250.78" y="190.3125" onclick="umlload('../../lamparski/areabase/services/AreaDataService.html')" stroke="none">AreaDataService</text>
    </g>
    <g fill="rgb(238,238,255)" transform="matrix(1,0,0,1,265,143)" stroke="rgb(238,238,255)">
      <rect width="67.654" x="-206.87" height="17.9688" y="61.125" stroke="none"/>
    </g>
    <g fill="rgb(166,166,178)" stroke-miterlimit="1.45" transform="matrix(1,0,0,1,265,143)" stroke-linecap="butt" stroke="rgb(166,166,178)">
      <rect fill="none" width="67.654" x="-206.87" height="17.9688" y="61.125"/>
    </g>
    <g fill="rgb(238,238,255)" transform="matrix(1,0,0,1,265,143)" stroke="rgb(238,238,255)">
      <rect width="148.87" x="-206.87" height="39.1562" y="79.0938" stroke="none"/>
    </g>
    <g fill="rgb(166,166,178)" stroke-miterlimit="1.45" transform="matrix(1,0,0,1,265,143)" stroke-linecap="butt" stroke="rgb(166,166,178)">
      <rect fill="none" width="148.87" x="-206.87" height="39.1562" y="79.0938"/>
    </g>
    <g font-family="sans-serif" transform="matrix(1,0,0,1,265,143)">
      <text xml:space="preserve" x="-200.87" y="74.2656" stroke="none">java.util</text>
    </g>
    <g fill="rgb(187,187,255)" transform="matrix(1,0,0,1,265,143)" stroke="rgb(187,187,255)">
      <rect x="-198.87" y="87.125" clip-path="url(#clipPath6)" width="132.87" height="23.125" stroke="none"/>
    </g>
    <g fill="rgb(130,130,178)" stroke-miterlimit="1.45" transform="matrix(1,0,0,1,265,143)" stroke-linecap="butt" stroke="rgb(130,130,178)">
      <rect fill="none" width="132.87" x="-198.87" height="23.125" y="87.125"/>
    </g>
    <g font-size="13" font-weight="bold" font-family="sans-serif" transform="matrix(1,0,0,1,265,143)">
      <text xml:space="preserve" x="-192.935" y="103.1875" stroke="none">HashMap&lt;K, V&gt;</text>
    </g>
    <g fill="rgb(238,238,255)" transform="matrix(1,0,0,1,265,143)" stroke="rgb(238,238,255)">
      <rect width="76.1412" x="-138.04" height="17.9688" y="-26" stroke="none"/>
    </g>
    <g fill="rgb(166,166,178)" stroke-miterlimit="1.45" transform="matrix(1,0,0,1,265,143)" stroke-linecap="butt" stroke="rgb(166,166,178)">
      <rect fill="none" width="76.1412" x="-138.04" height="17.9688" y="-26"/>
    </g>
    <g fill="rgb(238,238,255)" transform="matrix(1,0,0,1,265,143)" stroke="rgb(238,238,255)">
      <rect width="79.56" x="-138.04" height="39.1562" y="-8.0312" stroke="none"/>
    </g>
    <g fill="rgb(166,166,178)" stroke-miterlimit="1.45" transform="matrix(1,0,0,1,265,143)" stroke-linecap="butt" stroke="rgb(166,166,178)">
      <rect fill="none" width="79.56" x="-138.04" height="39.1562" y="-8.0312"/>
    </g>
    <g font-family="sans-serif" transform="matrix(1,0,0,1,265,143)">
      <text xml:space="preserve" x="-132.04" y="-12.8594" stroke="none">java.lang</text>
    </g>
    <g fill="rgb(187,187,255)" transform="matrix(1,0,0,1,265,143)" stroke="rgb(187,187,255)">
      <rect x="-130.04" y="0" clip-path="url(#clipPath7)" width="53.56" height="23.125" stroke="none"/>
    </g>
    <g fill="rgb(130,130,178)" stroke-miterlimit="1.45" transform="matrix(1,0,0,1,265,143)" stroke-linecap="butt" stroke="rgb(130,130,178)">
      <rect fill="none" width="53.56" x="-130.04" height="23.125" y="0"/>
    </g>
    <g font-size="13" font-weight="bold" font-family="sans-serif" transform="matrix(1,0,0,1,265,143)">
      <text xml:space="preserve" x="-125.26" y="16.0625" stroke="none">String</text>
    </g>
    <g fill="rgb(238,238,255)" transform="matrix(1,0,0,1,265,143)" stroke="rgb(238,238,255)">
      <rect width="206.6319" x="317.37" height="17.9688" y="-142.7037" stroke="none"/>
    </g>
    <g fill="rgb(166,166,178)" stroke-miterlimit="1.45" transform="matrix(1,0,0,1,265,143)" stroke-linecap="butt" stroke="rgb(166,166,178)">
      <rect fill="none" width="206.6319" x="317.37" height="17.9688" y="-142.7037"/>
    </g>
    <g fill="rgb(238,238,255)" transform="matrix(1,0,0,1,265,143)" stroke="rgb(238,238,255)">
      <rect width="461.7318" x="317.37" height="48.7349" y="-124.7349" stroke="none"/>
    </g>
    <g fill="rgb(166,166,178)" stroke-miterlimit="1.45" transform="matrix(1,0,0,1,265,143)" stroke-linecap="butt" stroke="rgb(166,166,178)">
      <rect fill="none" width="461.7318" x="317.37" height="48.7349" y="-124.7349"/>
    </g>
    <g font-family="sans-serif" transform="matrix(1,0,0,1,265,143)">
      <text xml:space="preserve" x="323.37" y="-129.5631" onclick="umlload('../../lamparski/areabase/services/package-summary.html')" stroke="none">lamparski.areabase.services</text>
    </g>
    <g fill="rgb(221,221,255)" transform="matrix(1,0,0,1,265,143)" stroke="rgb(221,221,255)">
      <rect x="325.37" y="-116.7037" clip-path="url(#clipPath8)" width="445.7318" height="32.7037" stroke="none"/>
    </g>
    <g fill="rgb(154,154,178)" stroke-miterlimit="1.45" transform="matrix(1,0,0,1,265,143)" stroke-linecap="butt" stroke="rgb(154,154,178)">
      <ellipse rx="222.8659" fill="none" ry="16.3518" cx="548.2359" cy="-100.3518"/>
    </g>
    <g font-style="italic" font-size="13" font-weight="bold" font-family="sans-serif" transform="matrix(1,0,0,1,265,143)">
      <text xml:space="preserve" x="399.2359" y="-95.8518" onclick="umlload('../../lamparski/areabase/services/AreaDataService.DatasetDumpCallbacks.html')" stroke="none">AreaDataService.DatasetDumpCallbacks</text>
    </g>
    <g fill="rgb(238,238,255)" transform="matrix(1,0,0,1,265,143)" stroke="rgb(238,238,255)">
      <rect width="162.0741" x="133.705" height="17.9688" y="-133.125" stroke="none"/>
    </g>
    <g fill="rgb(166,166,178)" stroke-miterlimit="1.45" transform="matrix(1,0,0,1,265,143)" stroke-linecap="butt" stroke="rgb(166,166,178)">
      <rect fill="none" width="162.0741" x="133.705" height="17.9688" y="-133.125"/>
    </g>
    <g fill="rgb(238,238,255)" transform="matrix(1,0,0,1,265,143)" stroke="rgb(238,238,255)">
      <rect width="162.0741" x="133.705" height="39.1562" y="-115.1562" stroke="none"/>
    </g>
    <g fill="rgb(166,166,178)" stroke-miterlimit="1.45" transform="matrix(1,0,0,1,265,143)" stroke-linecap="butt" stroke="rgb(166,166,178)">
      <rect fill="none" width="162.0741" x="133.705" height="39.1562" y="-115.1562"/>
    </g>
    <g font-family="sans-serif" transform="matrix(1,0,0,1,265,143)">
      <text xml:space="preserve" x="139.705" y="-119.9844" onclick="umlload('package-summary.html')" stroke="none">&lt;unnamed package&gt;</text>
    </g>
    <g fill="rgb(187,187,255)" transform="matrix(1,0,0,1,265,143)" stroke="rgb(187,187,255)">
      <rect x="178.705" y="-107.125" clip-path="url(#clipPath9)" width="63.86" height="23.125" stroke="none"/>
    </g>
    <g fill="rgb(130,130,178)" stroke-miterlimit="1.45" transform="matrix(1,0,0,1,265,143)" stroke-linecap="butt" stroke="rgb(130,130,178)">
      <rect fill="none" width="63.86" x="178.705" height="23.125" y="-107.125"/>
    </g>
    <g font-size="13" font-weight="bold" font-family="sans-serif" transform="matrix(1,0,0,1,265,143)">
      <text xml:space="preserve" x="183.635" y="-91.0625" stroke="none">Activity</text>
    </g>
    <g fill="rgb(238,238,255)" transform="matrix(1,0,0,1,265,143)" stroke="rgb(238,238,255)">
      <rect width="148.2824" x="-8" height="17.9688" y="-26" stroke="none"/>
    </g>
    <g fill="rgb(166,166,178)" stroke-miterlimit="1.45" transform="matrix(1,0,0,1,265,143)" stroke-linecap="butt" stroke="rgb(166,166,178)">
      <rect fill="none" width="148.2824" x="-8" height="17.9688" y="-26"/>
    </g>
    <g fill="rgb(238,238,255)" transform="matrix(1,0,0,1,265,143)" stroke="rgb(238,238,255)">
      <rect width="437.27" x="-8" height="341.6562" y="-8.0312" stroke="none"/>
    </g>
    <g fill="rgb(166,166,178)" stroke-miterlimit="1.45" transform="matrix(1,0,0,1,265,143)" stroke-linecap="butt" stroke="rgb(166,166,178)">
      <rect fill="none" width="437.27" x="-8" height="341.6562" y="-8.0312"/>
    </g>
    <g font-family="sans-serif" transform="matrix(1,0,0,1,265,143)">
      <text xml:space="preserve" x="-2" y="-12.8594" onclick="umlload('package-summary.html')" stroke="none">lamparski.areabase</text>
    </g>
    <g fill="rgb(187,187,255)" transform="matrix(1,0,0,1,265,143)" stroke="rgb(187,187,255)">
      <rect x="0" y="0" clip-path="url(#clipPath10)" width="421.27" height="26.6406" stroke="none"/>
      <line clip-path="url(#clipPath10)" fill="none" x1="0" x2="421.27" y1="26.6406" y2="26.6406" stroke="black"/>
      <rect x="0" y="27.6406" clip-path="url(#clipPath10)" width="421.27" height="47.9062" stroke="none"/>
      <line clip-path="url(#clipPath10)" fill="none" x1="0" x2="421.27" y1="75.5469" y2="75.5469" stroke="black"/>
      <rect x="0" y="76.5469" clip-path="url(#clipPath10)" width="421.27" height="15.9688" stroke="none"/>
      <line clip-path="url(#clipPath10)" fill="none" x1="0" x2="421.27" y1="92.5156" y2="92.5156" stroke="black"/>
      <rect x="0" y="93.5156" clip-path="url(#clipPath10)" width="421.27" height="232.1094" stroke="none"/>
    </g>
    <g fill="rgb(130,130,178)" stroke-miterlimit="1.45" transform="matrix(1,0,0,1,265,143)" stroke-linecap="butt" stroke="rgb(130,130,178)">
      <rect fill="none" width="421.27" x="0" height="325.625" y="0"/>
    </g>
    <g font-size="16" font-weight="bold" font-family="sans-serif" transform="matrix(1,0,0,1,265,143)">
      <text xml:space="preserve" x="151.135" y="18.8594" onclick="umlload('#')" stroke="none">GraphActivity</text>
    </g>
    <g font-family="sans-serif" transform="matrix(1,0,0,1,265,143)">
      <text xml:space="preserve" x="4" y="38.1719" stroke="none">+</text>
      <text xml:space="preserve" x="19" y="39.7812" onclick="umlload('#GRAPH_AREA')" stroke="none">GRAPH_AREA : String</text>
      <line y2="42.6094" fill="none" x1="19" x2="148" y1="42.6094"/>
    </g>
    <g font-family="sans-serif" transform="matrix(1,0,0,1,265,143)">
      <text xml:space="preserve" x="4" y="54.1719" stroke="none">+</text>
      <text xml:space="preserve" x="19" y="55.75" onclick="umlload('#GRAPH_DATASET_FAMILY')" stroke="none">GRAPH_DATASET_FAMILY : String</text>
      <line y2="58.5781" fill="none" x1="19" x2="218" y1="58.5781"/>
    </g>
    <g font-family="sans-serif" transform="matrix(1,0,0,1,265,143)">
      <text xml:space="preserve" x="4" y="70.1719" stroke="none">#</text>
      <text xml:space="preserve" x="19" y="71.7188" onclick="umlload('#mAreaDataServiceConnection')" stroke="none">mAreaDataServiceConnection : ServiceConnection</text>
    </g>
    <g font-family="sans-serif" transform="matrix(1,0,0,1,265,143)">
      <text xml:space="preserve" x="4" y="87.1719" stroke="none">+</text>
      <text xml:space="preserve" x="19" y="88.6875" onclick="umlload('#GraphActivity()')" stroke="none">GraphActivity()</text>
    </g>
    <g font-family="sans-serif" transform="matrix(1,0,0,1,265,143)">
      <text xml:space="preserve" x="4" y="104.1719" stroke="none">+</text>
      <text xml:space="preserve" x="19" y="105.6562" onclick="umlload('#datasetsDownloaded(java.util.HashMap)')" stroke="none">datasetsDownloaded(HashMap&lt;DateRange, Dataset&gt;) : void</text>
    </g>
    <g font-family="sans-serif" transform="matrix(1,0,0,1,265,143)">
      <text xml:space="preserve" x="4" y="120.1719" stroke="none">#</text>
      <text xml:space="preserve" x="19" y="121.625" onclick="umlload('#onCreate(Bundle)')" stroke="none">onCreate(Bundle) : void</text>
    </g>
    <g font-family="sans-serif" transform="matrix(1,0,0,1,265,143)">
      <text xml:space="preserve" x="4" y="136.1719" stroke="none">+</text>
      <text xml:space="preserve" x="19" y="137.5938" onclick="umlload('#onCreateOptionsMenu(Menu)')" stroke="none">onCreateOptionsMenu(Menu) : boolean</text>
    </g>
    <g font-family="sans-serif" transform="matrix(1,0,0,1,265,143)">
      <text xml:space="preserve" x="4" y="152.1719" stroke="none">+</text>
      <text xml:space="preserve" x="19" y="153.5625" onclick="umlload('#onError(java.lang.Throwable)')" stroke="none">onError(Throwable) : void</text>
    </g>
    <g font-family="sans-serif" transform="matrix(1,0,0,1,265,143)">
      <text xml:space="preserve" x="4" y="168.1719" stroke="none">+</text>
      <text xml:space="preserve" x="19" y="169.5312" onclick="umlload('#onNavigationItemSelected(int, long)')" stroke="none">onNavigationItemSelected(int, long) : boolean</text>
    </g>
    <g font-family="sans-serif" transform="matrix(1,0,0,1,265,143)">
      <text xml:space="preserve" x="4" y="184.1719" stroke="none">+</text>
      <text xml:space="preserve" x="19" y="185.5" onclick="umlload('#onOptionsItemSelected(MenuItem)')" stroke="none">onOptionsItemSelected(MenuItem) : boolean</text>
    </g>
    <g font-family="sans-serif" transform="matrix(1,0,0,1,265,143)">
      <text xml:space="preserve" x="4" y="200.1719" stroke="none">+</text>
      <text xml:space="preserve" x="19" y="201.4688" onclick="umlload('#onRestoreInstanceState(Bundle)')" stroke="none">onRestoreInstanceState(Bundle) : void</text>
    </g>
    <g font-family="sans-serif" transform="matrix(1,0,0,1,265,143)">
      <text xml:space="preserve" x="4" y="216.1719" stroke="none">+</text>
      <text xml:space="preserve" x="19" y="217.4375" onclick="umlload('#onSaveInstanceState(Bundle)')" stroke="none">onSaveInstanceState(Bundle) : void</text>
    </g>
    <g font-family="sans-serif" transform="matrix(1,0,0,1,265,143)">
      <text xml:space="preserve" x="-259" y="358.1562" onclick="umlload('http://www.yworks.com/')" stroke="none">yWorks UML Doclet</text>
    </g>
    <g stroke-miterlimit="1.45" transform="matrix(1,0,0,1,265,143)" stroke-linecap="butt">
      <path fill="none" d="M210.635 0.0092 L210.635 -69"/>
      <path fill="white" d="M210.635 -84 L204.635 -68 L216.635 -68 Z" stroke="none"/>
      <path fill="none" d="M210.635 -84 L204.635 -68 L216.635 -68 Z"/>
      <path fill="none" stroke-dasharray="6,2" d="M315.9525 0.0232 L315.9525 -51 L548.2359 -51 L548.2359 -69"/>
      <path fill="white" stroke-dasharray="6,2" d="M548.2359 -84 L542.2359 -68 L554.2359 -68 Z" stroke="none"/>
      <path fill="none" d="M548.2359 -84 L542.2359 -68 L554.2359 -68 Z"/>
      <path fill="none" d="M0.005 11.5625 L-76.48 11.5625"/>
      <line stroke-linecap="square" transform="matrix(-1,0,0,-1,-76.48,11.5625)" fill="none" x1="0" x2="-14" y1="0" y2="-4" stroke-miterlimit="10"/>
      <line stroke-linecap="square" transform="matrix(-1,0,0,-1,-76.48,11.5625)" fill="none" x1="0" x2="-14" y1="0" y2="4" stroke-miterlimit="10"/>
    </g>
    <g stroke-miterlimit="1.45" transform="matrix(1,0,0,1,265,143)" stroke-linecap="butt">
      <path fill="none" d="M0.0272 98.6875 L-66 98.6875"/>
      <line stroke-linecap="square" transform="matrix(-1,0,0,-1,-66,98.6875)" fill="none" x1="0" x2="-14" y1="0" y2="-4" stroke-miterlimit="10"/>
      <line stroke-linecap="square" transform="matrix(-1,0,0,-1,-66,98.6875)" fill="none" x1="0" x2="-14" y1="0" y2="4" stroke-miterlimit="10"/>
    </g>
    <g stroke-miterlimit="1.45" transform="matrix(1,0,0,1,265,143)" stroke-linecap="butt">
      <path fill="none" d="M0.0163 185.8125 L-122.83 185.8125"/>
      <line stroke-linecap="square" transform="matrix(-1,0,0,-1,-122.83,185.8125)" fill="none" x1="0" x2="-14" y1="0" y2="-4" stroke-miterlimit="10"/>
      <line stroke-linecap="square" transform="matrix(-1,0,0,-1,-122.83,185.8125)" fill="none" x1="0" x2="-14" y1="0" y2="4" stroke-miterlimit="10"/>
    </g>
    <g stroke-miterlimit="1.45" transform="matrix(1,0,0,1,265,143)" stroke-linecap="butt">
      <path fill="none" d="M-0.0261 272.9375 L-141.19 272.9375"/>
      <line stroke-linecap="square" transform="matrix(-1,0,0,-1,-141.19,272.9375)" fill="none" x1="0" x2="-14" y1="0" y2="-4" stroke-miterlimit="10"/>
      <line stroke-linecap="square" transform="matrix(-1,0,0,-1,-141.19,272.9375)" fill="none" x1="0" x2="-14" y1="0" y2="4" stroke-miterlimit="10"/>
    </g>
    <g stroke-miterlimit="1.45" transform="matrix(1,0,0,1,265,143)" stroke-linecap="butt">
      <path fill="none" d="M0.0255 306.0625 L-66 306.0625"/>
      <line stroke-linecap="square" transform="matrix(-1,0,0,-1,-66,306.0625)" fill="none" x1="0" x2="-14" y1="0" y2="-4" stroke-miterlimit="10"/>
      <line stroke-linecap="square" transform="matrix(-1,0,0,-1,-66,306.0625)" fill="none" x1="0" x2="-14" y1="0" y2="4" stroke-miterlimit="10"/>
    </g>
    <g stroke-dasharray="6,2" stroke-miterlimit="1.45" transform="matrix(1,0,0,1,265,143)" stroke-linecap="butt">
      <path fill="none" d="M421.308 11.5625 L487.27 11.5625"/>
      <line stroke-linecap="square" transform="matrix(1,0,0,1,487.27,11.5625)" fill="none" x1="0" x2="-14" y1="0" y2="-4" stroke-dasharray="none" stroke-miterlimit="10"/>
      <line stroke-linecap="square" transform="matrix(1,0,0,1,487.27,11.5625)" fill="none" x1="0" x2="-14" y1="0" y2="4" stroke-dasharray="none" stroke-miterlimit="10"/>
    </g>
  </g>
</svg>
