<?xml version="1.0" encoding="UTF-8"?>
<svg xmlns="http://www.w3.org/2000/svg" xmlns:xlink="http://www.w3.org/1999/xlink" fill-opacity="1" color-rendering="auto" color-interpolation="auto" stroke="black" text-rendering="auto" stroke-linecap="square" width="644" stroke-miterlimit="10" stroke-opacity="1" shape-rendering="auto" fill="black" stroke-dasharray="none" font-weight="normal" stroke-width="1" height="426" font-family="'Dialog'" font-style="normal" stroke-linejoin="miter" font-size="12" stroke-dashoffset="0" image-rendering="auto">
  <!--Generated by ySVG-->
  <defs id="genericDefs"/>
  <g>
    <defs id="defs1">
      <clipPath clipPathUnits="userSpaceOnUse" id="clipPath1">
        <path d="M0 0 L644 0 L644 426 L0 426 L0 0 Z"/>
      </clipPath>
      <clipPath clipPathUnits="userSpaceOnUse" id="clipPath2">
        <path d="M522.29 183.8287 L565.55 183.8287 L565.55 206.9537 L522.29 206.9537 L522.29 183.8287 Z"/>
      </clipPath>
      <clipPath clipPathUnits="userSpaceOnUse" id="clipPath3">
        <path d="M522.29 216.9537 L587.18 216.9537 L587.18 240.0787 L522.29 240.0787 L522.29 216.9537 Z"/>
      </clipPath>
      <clipPath clipPathUnits="userSpaceOnUse" id="clipPath4">
        <path d="M616.9716 103.4768 C616.9716 112.5077 595.7764 119.8287 569.6308 119.8287 C543.4852 119.8287 522.29 112.5077 522.29 103.4768 C522.29 94.446 543.4852 87.125 569.6308 87.125 C595.7764 87.125 616.9716 94.446 616.9716 103.4768 Z"/>
      </clipPath>
      <clipPath clipPathUnits="userSpaceOnUse" id="clipPath5">
        <path d="M522.29 0 L575.85 0 L575.85 23.125 L522.29 23.125 L522.29 0 Z"/>
      </clipPath>
      <clipPath clipPathUnits="userSpaceOnUse" id="clipPath6">
        <path d="M199.305 -107.125 L256.985 -107.125 L256.985 -84 L199.305 -84 L199.305 -107.125 Z"/>
      </clipPath>
      <clipPath clipPathUnits="userSpaceOnUse" id="clipPath7">
        <path d="M0 0 L456.29 0 L456.29 248.0787 L0 248.0787 L0 0 Z"/>
      </clipPath>
      <script type="text/ecmascript"><![CDATA[
function umlload(newLocation)
{
if (newLocation.charAt(0) != '#') {
if (newLocation.indexOf("://") > -1) {
window.parent.location.href = newLocation;
} else {
var tmp = window.parent.location.href;
tmp = tmp.substring(0, tmp.lastIndexOf("/") + 1);
window.parent.location.href = tmp.concat(newLocation);
}
} else {
window.parent.location.hash = newLocation;
}
}
]]></script>
    </defs>
    <g fill="rgb(238,238,255)" transform="matrix(1,0,0,1,8,134)" stroke="rgb(238,238,255)">
      <rect width="118.5772" x="514.29" height="17.9688" y="157.8287" stroke="none"/>
    </g>
    <g fill="rgb(166,166,178)" stroke-miterlimit="1.45" transform="matrix(1,0,0,1,8,134)" stroke-linecap="butt" stroke="rgb(166,166,178)">
      <rect fill="none" width="118.5772" x="514.29" height="17.9688" y="157.8287"/>
    </g>
    <g fill="rgb(238,238,255)" transform="matrix(1,0,0,1,8,134)" stroke="rgb(238,238,255)">
      <rect width="120.89" x="514.29" height="72.2812" y="175.7974" stroke="none"/>
    </g>
    <g fill="rgb(166,166,178)" stroke-miterlimit="1.45" transform="matrix(1,0,0,1,8,134)" stroke-linecap="butt" stroke="rgb(166,166,178)">
      <rect fill="none" width="120.89" x="514.29" height="72.2812" y="175.7974"/>
    </g>
    <g font-family="sans-serif" transform="matrix(1,0,0,1,8,134)">
      <text xml:space="preserve" x="520.29" y="170.9693" onclick="umlload('../../nde2/pull/types/package-summary.html')" stroke="none">nde2.pull.types</text>
    </g>
    <g fill="rgb(187,187,255)" transform="matrix(1,0,0,1,8,134)" stroke="rgb(187,187,255)">
      <rect x="522.29" y="183.8287" clip-path="url(#clipPath2)" width="43.26" height="23.125" stroke="none"/>
    </g>
    <g fill="rgb(130,130,178)" stroke-miterlimit="1.45" transform="matrix(1,0,0,1,8,134)" stroke-linecap="butt" stroke="rgb(130,130,178)">
      <rect fill="none" width="43.26" x="522.29" height="23.125" y="183.8287"/>
    </g>
    <g font-size="13" font-weight="bold" font-family="sans-serif" transform="matrix(1,0,0,1,8,134)">
      <text xml:space="preserve" x="526.92" y="199.8912" onclick="umlload('../../nde2/pull/types/Area.html')" stroke="none">Area</text>
    </g>
    <g fill="rgb(187,187,255)" transform="matrix(1,0,0,1,8,134)" stroke="rgb(187,187,255)">
      <rect x="522.29" y="216.9537" clip-path="url(#clipPath3)" width="64.89" height="23.125" stroke="none"/>
    </g>
    <g fill="rgb(130,130,178)" stroke-miterlimit="1.45" transform="matrix(1,0,0,1,8,134)" stroke-linecap="butt" stroke="rgb(130,130,178)">
      <rect fill="none" width="64.89" x="522.29" height="23.125" y="216.9537"/>
    </g>
    <g font-size="13" font-weight="bold" font-family="sans-serif" transform="matrix(1,0,0,1,8,134)">
      <text xml:space="preserve" x="527.235" y="233.0162" onclick="umlload('../../nde2/pull/types/Subject.html')" stroke="none">Subject</text>
    </g>
    <g fill="rgb(238,238,255)" transform="matrix(1,0,0,1,8,134)" stroke="rgb(238,238,255)">
      <rect width="67.654" x="514.29" height="17.9688" y="61.125" stroke="none"/>
    </g>
    <g fill="rgb(166,166,178)" stroke-miterlimit="1.45" transform="matrix(1,0,0,1,8,134)" stroke-linecap="butt" stroke="rgb(166,166,178)">
      <rect fill="none" width="67.654" x="514.29" height="17.9688" y="61.125"/>
    </g>
    <g fill="rgb(238,238,255)" transform="matrix(1,0,0,1,8,134)" stroke="rgb(238,238,255)">
      <rect width="110.6816" x="514.29" height="48.7349" y="79.0938" stroke="none"/>
    </g>
    <g fill="rgb(166,166,178)" stroke-miterlimit="1.45" transform="matrix(1,0,0,1,8,134)" stroke-linecap="butt" stroke="rgb(166,166,178)">
      <rect fill="none" width="110.6816" x="514.29" height="48.7349" y="79.0938"/>
    </g>
    <g font-family="sans-serif" transform="matrix(1,0,0,1,8,134)">
      <text xml:space="preserve" x="520.29" y="74.2656" stroke="none">java.util</text>
    </g>
    <g fill="rgb(221,221,255)" transform="matrix(1,0,0,1,8,134)" stroke="rgb(221,221,255)">
      <rect x="522.29" y="87.125" clip-path="url(#clipPath4)" width="94.6816" height="32.7037" stroke="none"/>
    </g>
    <g fill="rgb(154,154,178)" stroke-miterlimit="1.45" transform="matrix(1,0,0,1,8,134)" stroke-linecap="butt" stroke="rgb(154,154,178)">
      <ellipse rx="47.3408" fill="none" ry="16.3518" cx="569.6308" cy="103.4768"/>
    </g>
    <g font-style="italic" font-size="13" font-weight="bold" font-family="sans-serif" transform="matrix(1,0,0,1,8,134)">
      <text xml:space="preserve" x="541.1308" y="107.9768" stroke="none">List&lt;E&gt;</text>
    </g>
    <g fill="rgb(238,238,255)" transform="matrix(1,0,0,1,8,134)" stroke="rgb(238,238,255)">
      <rect width="76.1412" x="514.29" height="17.9688" y="-26" stroke="none"/>
    </g>
    <g fill="rgb(166,166,178)" stroke-miterlimit="1.45" transform="matrix(1,0,0,1,8,134)" stroke-linecap="butt" stroke="rgb(166,166,178)">
      <rect fill="none" width="76.1412" x="514.29" height="17.9688" y="-26"/>
    </g>
    <g fill="rgb(238,238,255)" transform="matrix(1,0,0,1,8,134)" stroke="rgb(238,238,255)">
      <rect width="79.56" x="514.29" height="39.1562" y="-8.0312" stroke="none"/>
    </g>
    <g fill="rgb(166,166,178)" stroke-miterlimit="1.45" transform="matrix(1,0,0,1,8,134)" stroke-linecap="butt" stroke="rgb(166,166,178)">
      <rect fill="none" width="79.56" x="514.29" height="39.1562" y="-8.0312"/>
    </g>
    <g font-family="sans-serif" transform="matrix(1,0,0,1,8,134)">
      <text xml:space="preserve" x="520.29" y="-12.8594" stroke="none">java.lang</text>
    </g>
    <g fill="rgb(187,187,255)" transform="matrix(1,0,0,1,8,134)" stroke="rgb(187,187,255)">
      <rect x="522.29" y="0" clip-path="url(#clipPath5)" width="53.56" height="23.125" stroke="none"/>
    </g>
    <g fill="rgb(130,130,178)" stroke-miterlimit="1.45" transform="matrix(1,0,0,1,8,134)" stroke-linecap="butt" stroke="rgb(130,130,178)">
      <rect fill="none" width="53.56" x="522.29" height="23.125" y="0"/>
    </g>
    <g font-size="13" font-weight="bold" font-family="sans-serif" transform="matrix(1,0,0,1,8,134)">
      <text xml:space="preserve" x="527.07" y="16.0625" stroke="none">String</text>
    </g>
    <g fill="rgb(238,238,255)" transform="matrix(1,0,0,1,8,134)" stroke="rgb(238,238,255)">
      <rect width="76.1412" x="191.305" height="17.9688" y="-133.125" stroke="none"/>
    </g>
    <g fill="rgb(166,166,178)" stroke-miterlimit="1.45" transform="matrix(1,0,0,1,8,134)" stroke-linecap="butt" stroke="rgb(166,166,178)">
      <rect fill="none" width="76.1412" x="191.305" height="17.9688" y="-133.125"/>
    </g>
    <g fill="rgb(238,238,255)" transform="matrix(1,0,0,1,8,134)" stroke="rgb(238,238,255)">
      <rect width="76.1412" x="191.305" height="39.1562" y="-115.1562" stroke="none"/>
    </g>
    <g fill="rgb(166,166,178)" stroke-miterlimit="1.45" transform="matrix(1,0,0,1,8,134)" stroke-linecap="butt" stroke="rgb(166,166,178)">
      <rect fill="none" width="76.1412" x="191.305" height="39.1562" y="-115.1562"/>
    </g>
    <g font-family="sans-serif" transform="matrix(1,0,0,1,8,134)">
      <text xml:space="preserve" x="197.305" y="-119.9844" stroke="none">java.lang</text>
    </g>
    <g fill="rgb(187,187,255)" transform="matrix(1,0,0,1,8,134)" stroke="rgb(187,187,255)">
      <rect x="199.305" y="-107.125" clip-path="url(#clipPath6)" width="57.68" height="23.125" stroke="none"/>
    </g>
    <g fill="rgb(130,130,178)" stroke-miterlimit="1.45" transform="matrix(1,0,0,1,8,134)" stroke-linecap="butt" stroke="rgb(130,130,178)">
      <rect fill="none" width="57.68" x="199.305" height="23.125" y="-107.125"/>
    </g>
    <g font-size="13" font-weight="bold" font-family="sans-serif" transform="matrix(1,0,0,1,8,134)">
      <text xml:space="preserve" x="204.145" y="-91.0625" stroke="none">Object</text>
    </g>
    <g fill="rgb(238,238,255)" transform="matrix(1,0,0,1,8,134)" stroke="rgb(238,238,255)">
      <rect width="104.7855" x="-8" height="17.9688" y="-26" stroke="none"/>
    </g>
    <g fill="rgb(166,166,178)" stroke-miterlimit="1.45" transform="matrix(1,0,0,1,8,134)" stroke-linecap="butt" stroke="rgb(166,166,178)">
      <rect fill="none" width="104.7855" x="-8" height="17.9688" y="-26"/>
    </g>
    <g fill="rgb(238,238,255)" transform="matrix(1,0,0,1,8,134)" stroke="rgb(238,238,255)">
      <rect width="472.29" x="-8" height="264.1099" y="-8.0312" stroke="none"/>
    </g>
    <g fill="rgb(166,166,178)" stroke-miterlimit="1.45" transform="matrix(1,0,0,1,8,134)" stroke-linecap="butt" stroke="rgb(166,166,178)">
      <rect fill="none" width="472.29" x="-8" height="264.1099" y="-8.0312"/>
    </g>
    <g font-family="sans-serif" transform="matrix(1,0,0,1,8,134)">
      <text xml:space="preserve" x="-2" y="-12.8594" onclick="umlload('package-summary.html')" stroke="none">nde2.helpers</text>
    </g>
    <g fill="rgb(187,187,255)" transform="matrix(1,0,0,1,8,134)" stroke="rgb(187,187,255)">
      <rect x="0" y="0" clip-path="url(#clipPath7)" width="456.29" height="26.6406" stroke="none"/>
      <line clip-path="url(#clipPath7)" fill="none" x1="0" x2="456.29" y1="26.6406" y2="26.6406" stroke="black"/>
      <rect x="0" y="27.6406" clip-path="url(#clipPath7)" width="456.29" height="15.9688" stroke="none"/>
      <line clip-path="url(#clipPath7)" fill="none" x1="0" x2="456.29" y1="43.6094" y2="43.6094" stroke="black"/>
      <rect x="0" y="44.6094" clip-path="url(#clipPath7)" width="456.29" height="203.4693" stroke="none"/>
    </g>
    <g fill="rgb(130,130,178)" stroke-miterlimit="1.45" transform="matrix(1,0,0,1,8,134)" stroke-linecap="butt" stroke="rgb(130,130,178)">
      <rect fill="none" width="456.29" x="0" height="248.0787" y="0"/>
    </g>
    <g font-size="16" font-weight="bold" font-family="sans-serif" transform="matrix(1,0,0,1,8,134)">
      <text xml:space="preserve" x="162.145" y="18.8594" onclick="umlload('#')" stroke="none">CensusHelpers</text>
    </g>
    <g font-family="sans-serif" transform="matrix(1,0,0,1,8,134)">
      <text xml:space="preserve" x="4" y="38.1719" stroke="none">+</text>
      <text xml:space="preserve" x="19" y="39.7812" onclick="umlload('#CensusHelpers()')" stroke="none">CensusHelpers()</text>
    </g>
    <g font-family="sans-serif" transform="matrix(1,0,0,1,8,134)">
      <text xml:space="preserve" x="4" y="55.1719" stroke="none">+</text>
      <text xml:space="preserve" x="19" y="56.75" onclick="umlload('#findRequiredFamilies(nde2.pull.types.Area, nde2.pull.types.Subject, java.lang.String[])')" stroke="none">findRequiredFamilies(Area, Subject, String[]) : List&lt;DataSetFamily&gt;</text>
      <line y2="59.5781" fill="none" x1="19" x2="439" y1="59.5781"/>
    </g>
    <g font-family="sans-serif" transform="matrix(1,0,0,1,8,134)">
      <text xml:space="preserve" x="4" y="71.1719" stroke="none">+</text>
      <text xml:space="preserve" x="19" y="72.7188" onclick="umlload('#findSubject(nde2.pull.types.Area, java.lang.String)')" stroke="none">findSubject(Area, String) : Subject</text>
      <line y2="75.5469" fill="none" x1="19" x2="232" y1="75.5469"/>
    </g>
    <g font-family="sans-serif" transform="matrix(1,0,0,1,8,134)">
      <text xml:space="preserve" x="4" y="87.1719" stroke="none">+</text>
      <text xml:space="preserve" x="19" y="88.6875" onclick="umlload('#getValueString(float, java.lang.String)')" stroke="none">getValueString(float, String) : String</text>
      <line y2="91.5156" fill="none" x1="19" x2="244" y1="91.5156"/>
    </g>
    <g font-family="sans-serif" transform="matrix(1,0,0,1,8,134)">
      <text xml:space="preserve" x="-2" y="281.1562" onclick="umlload('http://www.yworks.com/')" stroke="none">yWorks UML Doclet</text>
    </g>
    <g stroke-miterlimit="1.45" transform="matrix(1,0,0,1,8,134)" stroke-linecap="butt">
      <path fill="none" d="M228.145 -0.0346 L228.145 -69"/>
      <path fill="white" d="M228.145 -84 L222.145 -68 L234.145 -68 Z" stroke="none"/>
      <path fill="none" d="M228.145 -84 L222.145 -68 L234.145 -68 Z"/>
      <path fill="none" stroke-dasharray="6,2" d="M456.2634 11.5625 L522.29 11.5625"/>
      <line stroke-linecap="square" transform="matrix(1,0,0,1,522.29,11.5625)" fill="none" x1="0" x2="-14" y1="0" y2="-4" stroke-miterlimit="10"/>
      <line stroke-linecap="square" transform="matrix(1,0,0,1,522.29,11.5625)" fill="none" x1="0" x2="-14" y1="0" y2="4" stroke-miterlimit="10"/>
    </g>
    <g stroke-dasharray="6,2" stroke-miterlimit="1.45" transform="matrix(1,0,0,1,8,134)" stroke-linecap="butt">
      <path fill="none" d="M456.2885 103.4768 L522.29 103.4768"/>
      <line stroke-linecap="square" transform="matrix(1,0,0,1,522.29,103.4768)" fill="none" x1="0" x2="-14" y1="0" y2="-4" stroke-dasharray="none" stroke-miterlimit="10"/>
      <line stroke-linecap="square" transform="matrix(1,0,0,1,522.29,103.4768)" fill="none" x1="0" x2="-14" y1="0" y2="4" stroke-dasharray="none" stroke-miterlimit="10"/>
    </g>
    <g stroke-dasharray="6,2" stroke-miterlimit="1.45" transform="matrix(1,0,0,1,8,134)" stroke-linecap="butt">
      <path fill="none" d="M456.3032 195.3912 L522.29 195.3912"/>
      <line stroke-linecap="square" transform="matrix(1,0,0,1,522.29,195.3912)" fill="none" x1="0" x2="-14" y1="0" y2="-4" stroke-dasharray="none" stroke-miterlimit="10"/>
      <line stroke-linecap="square" transform="matrix(1,0,0,1,522.29,195.3912)" fill="none" x1="0" x2="-14" y1="0" y2="4" stroke-dasharray="none" stroke-miterlimit="10"/>
    </g>
    <g stroke-dasharray="6,2" stroke-miterlimit="1.45" transform="matrix(1,0,0,1,8,134)" stroke-linecap="butt">
      <path fill="none" d="M456.3035 228.5162 L522.29 228.5162"/>
      <line stroke-linecap="square" transform="matrix(1,0,0,1,522.29,228.5162)" fill="none" x1="0" x2="-14" y1="0" y2="-4" stroke-dasharray="none" stroke-miterlimit="10"/>
      <line stroke-linecap="square" transform="matrix(1,0,0,1,522.29,228.5162)" fill="none" x1="0" x2="-14" y1="0" y2="4" stroke-dasharray="none" stroke-miterlimit="10"/>
    </g>
  </g>
</svg>
