<?xml version="1.0" encoding="UTF-8"?>
<svg xmlns="http://www.w3.org/2000/svg" xmlns:xlink="http://www.w3.org/1999/xlink" fill-opacity="1" color-rendering="auto" color-interpolation="auto" stroke="black" text-rendering="auto" stroke-linecap="square" width="521" stroke-miterlimit="10" stroke-opacity="1" shape-rendering="auto" fill="black" stroke-dasharray="none" font-weight="normal" stroke-width="1" height="296" font-family="'Dialog'" font-style="normal" stroke-linejoin="miter" font-size="12" stroke-dashoffset="0" image-rendering="auto">
  <!--Generated by ySVG-->
  <defs id="genericDefs"/>
  <g>
    <defs id="defs1">
      <clipPath clipPathUnits="userSpaceOnUse" id="clipPath1">
        <path d="M0 0 L521 0 L521 296 L0 296 L0 0 Z"/>
      </clipPath>
      <clipPath clipPathUnits="userSpaceOnUse" id="clipPath2">
        <path d="M297.75 87.125 L342.04 87.125 L342.04 110.25 L297.75 110.25 L297.75 87.125 Z"/>
      </clipPath>
      <clipPath clipPathUnits="userSpaceOnUse" id="clipPath3">
        <path d="M297.75 0 L351.31 0 L351.31 23.125 L297.75 23.125 L297.75 0 Z"/>
      </clipPath>
      <clipPath clipPathUnits="userSpaceOnUse" id="clipPath4">
        <path d="M-142.22 0 L-66 0 L-66 23.125 L-142.22 23.125 L-142.22 0 Z"/>
      </clipPath>
      <clipPath clipPathUnits="userSpaceOnUse" id="clipPath5">
        <path d="M87.035 -107.125 L144.715 -107.125 L144.715 -84 L87.035 -84 L87.035 -107.125 Z"/>
      </clipPath>
      <clipPath clipPathUnits="userSpaceOnUse" id="clipPath6">
        <path d="M0 0 L231.75 0 L231.75 118.25 L0 118.25 L0 0 Z"/>
      </clipPath>
      <script type="text/ecmascript"><![CDATA[
function umlload(newLocation)
{
if (newLocation.charAt(0) != '#') {
if (newLocation.indexOf("://") > -1) {
window.parent.location.href = newLocation;
} else {
var tmp = window.parent.location.href;
tmp = tmp.substring(0, tmp.lastIndexOf("/") + 1);
window.parent.location.href = tmp.concat(newLocation);
}
} else {
window.parent.location.hash = newLocation;
}
}
]]></script>
    </defs>
    <g fill="rgb(238,238,255)" transform="matrix(1,0,0,1,151,134)" stroke="rgb(238,238,255)">
      <rect width="67.654" x="289.75" height="17.9688" y="61.125" stroke="none"/>
    </g>
    <g fill="rgb(166,166,178)" stroke-miterlimit="1.45" transform="matrix(1,0,0,1,151,134)" stroke-linecap="butt" stroke="rgb(166,166,178)">
      <rect fill="none" width="67.654" x="289.75" height="17.9688" y="61.125"/>
    </g>
    <g fill="rgb(238,238,255)" transform="matrix(1,0,0,1,151,134)" stroke="rgb(238,238,255)">
      <rect width="72.29" x="289.75" height="39.1562" y="79.0938" stroke="none"/>
    </g>
    <g fill="rgb(166,166,178)" stroke-miterlimit="1.45" transform="matrix(1,0,0,1,151,134)" stroke-linecap="butt" stroke="rgb(166,166,178)">
      <rect fill="none" width="72.29" x="289.75" height="39.1562" y="79.0938"/>
    </g>
    <g font-family="sans-serif" transform="matrix(1,0,0,1,151,134)">
      <text xml:space="preserve" x="295.75" y="74.2656" stroke="none">java.util</text>
    </g>
    <g fill="rgb(187,187,255)" transform="matrix(1,0,0,1,151,134)" stroke="rgb(187,187,255)">
      <rect x="297.75" y="87.125" clip-path="url(#clipPath2)" width="44.29" height="23.125" stroke="none"/>
    </g>
    <g fill="rgb(130,130,178)" stroke-miterlimit="1.45" transform="matrix(1,0,0,1,151,134)" stroke-linecap="butt" stroke="rgb(130,130,178)">
      <rect fill="none" width="44.29" x="297.75" height="23.125" y="87.125"/>
    </g>
    <g font-size="13" font-weight="bold" font-family="sans-serif" transform="matrix(1,0,0,1,151,134)">
      <text xml:space="preserve" x="302.395" y="103.1875" stroke="none">Date</text>
    </g>
    <g fill="rgb(238,238,255)" transform="matrix(1,0,0,1,151,134)" stroke="rgb(238,238,255)">
      <rect width="76.1412" x="289.75" height="17.9688" y="-26" stroke="none"/>
    </g>
    <g fill="rgb(166,166,178)" stroke-miterlimit="1.45" transform="matrix(1,0,0,1,151,134)" stroke-linecap="butt" stroke="rgb(166,166,178)">
      <rect fill="none" width="76.1412" x="289.75" height="17.9688" y="-26"/>
    </g>
    <g fill="rgb(238,238,255)" transform="matrix(1,0,0,1,151,134)" stroke="rgb(238,238,255)">
      <rect width="79.56" x="289.75" height="39.1562" y="-8.0312" stroke="none"/>
    </g>
    <g fill="rgb(166,166,178)" stroke-miterlimit="1.45" transform="matrix(1,0,0,1,151,134)" stroke-linecap="butt" stroke="rgb(166,166,178)">
      <rect fill="none" width="79.56" x="289.75" height="39.1562" y="-8.0312"/>
    </g>
    <g font-family="sans-serif" transform="matrix(1,0,0,1,151,134)">
      <text xml:space="preserve" x="295.75" y="-12.8594" stroke="none">java.lang</text>
    </g>
    <g fill="rgb(187,187,255)" transform="matrix(1,0,0,1,151,134)" stroke="rgb(187,187,255)">
      <rect x="297.75" y="0" clip-path="url(#clipPath3)" width="53.56" height="23.125" stroke="none"/>
    </g>
    <g fill="rgb(130,130,178)" stroke-miterlimit="1.45" transform="matrix(1,0,0,1,151,134)" stroke-linecap="butt" stroke="rgb(130,130,178)">
      <rect fill="none" width="53.56" x="297.75" height="23.125" y="0"/>
    </g>
    <g font-size="13" font-weight="bold" font-family="sans-serif" transform="matrix(1,0,0,1,151,134)">
      <text xml:space="preserve" x="302.53" y="16.0625" stroke="none">String</text>
    </g>
    <g fill="rgb(238,238,255)" transform="matrix(1,0,0,1,151,134)" stroke="rgb(238,238,255)">
      <rect width="67.654" x="-150.22" height="17.9688" y="-26" stroke="none"/>
    </g>
    <g fill="rgb(166,166,178)" stroke-miterlimit="1.45" transform="matrix(1,0,0,1,151,134)" stroke-linecap="butt" stroke="rgb(166,166,178)">
      <rect fill="none" width="67.654" x="-150.22" height="17.9688" y="-26"/>
    </g>
    <g fill="rgb(238,238,255)" transform="matrix(1,0,0,1,151,134)" stroke="rgb(238,238,255)">
      <rect width="92.22" x="-150.22" height="39.1562" y="-8.0312" stroke="none"/>
    </g>
    <g fill="rgb(166,166,178)" stroke-miterlimit="1.45" transform="matrix(1,0,0,1,151,134)" stroke-linecap="butt" stroke="rgb(166,166,178)">
      <rect fill="none" width="92.22" x="-150.22" height="39.1562" y="-8.0312"/>
    </g>
    <g font-family="sans-serif" transform="matrix(1,0,0,1,151,134)">
      <text xml:space="preserve" x="-144.22" y="-12.8594" stroke="none">java.util</text>
    </g>
    <g fill="rgb(204,204,255)" transform="matrix(1,0,0,1,151,134)" stroke="rgb(204,204,255)">
      <rect x="-142.22" y="0" clip-path="url(#clipPath4)" width="76.22" height="23.125" stroke="none"/>
    </g>
    <g fill="rgb(142,142,178)" stroke-miterlimit="1.45" transform="matrix(1,0,0,1,151,134)" stroke-linecap="butt" stroke="rgb(142,142,178)">
      <rect fill="none" width="76.22" x="-142.22" height="23.125" y="0"/>
    </g>
    <g font-size="13" font-weight="bold" font-family="sans-serif" transform="matrix(1,0,0,1,151,134)">
      <text xml:space="preserve" x="-137.11" y="16.0625" stroke="none">Calendar</text>
    </g>
    <g fill="rgb(238,238,255)" transform="matrix(1,0,0,1,151,134)" stroke="rgb(238,238,255)">
      <rect width="76.1412" x="79.035" height="17.9688" y="-133.125" stroke="none"/>
    </g>
    <g fill="rgb(166,166,178)" stroke-miterlimit="1.45" transform="matrix(1,0,0,1,151,134)" stroke-linecap="butt" stroke="rgb(166,166,178)">
      <rect fill="none" width="76.1412" x="79.035" height="17.9688" y="-133.125"/>
    </g>
    <g fill="rgb(238,238,255)" transform="matrix(1,0,0,1,151,134)" stroke="rgb(238,238,255)">
      <rect width="76.1412" x="79.035" height="39.1562" y="-115.1562" stroke="none"/>
    </g>
    <g fill="rgb(166,166,178)" stroke-miterlimit="1.45" transform="matrix(1,0,0,1,151,134)" stroke-linecap="butt" stroke="rgb(166,166,178)">
      <rect fill="none" width="76.1412" x="79.035" height="39.1562" y="-115.1562"/>
    </g>
    <g font-family="sans-serif" transform="matrix(1,0,0,1,151,134)">
      <text xml:space="preserve" x="85.035" y="-119.9844" stroke="none">java.lang</text>
    </g>
    <g fill="rgb(187,187,255)" transform="matrix(1,0,0,1,151,134)" stroke="rgb(187,187,255)">
      <rect x="87.035" y="-107.125" clip-path="url(#clipPath5)" width="57.68" height="23.125" stroke="none"/>
    </g>
    <g fill="rgb(130,130,178)" stroke-miterlimit="1.45" transform="matrix(1,0,0,1,151,134)" stroke-linecap="butt" stroke="rgb(130,130,178)">
      <rect fill="none" width="57.68" x="87.035" height="23.125" y="-107.125"/>
    </g>
    <g font-size="13" font-weight="bold" font-family="sans-serif" transform="matrix(1,0,0,1,151,134)">
      <text xml:space="preserve" x="91.875" y="-91.0625" stroke="none">Object</text>
    </g>
    <g fill="rgb(238,238,255)" transform="matrix(1,0,0,1,151,134)" stroke="rgb(238,238,255)">
      <rect width="104.7855" x="-8" height="17.9688" y="-26" stroke="none"/>
    </g>
    <g fill="rgb(166,166,178)" stroke-miterlimit="1.45" transform="matrix(1,0,0,1,151,134)" stroke-linecap="butt" stroke="rgb(166,166,178)">
      <rect fill="none" width="104.7855" x="-8" height="17.9688" y="-26"/>
    </g>
    <g fill="rgb(238,238,255)" transform="matrix(1,0,0,1,151,134)" stroke="rgb(238,238,255)">
      <rect width="247.75" x="-8" height="134.2812" y="-8.0312" stroke="none"/>
    </g>
    <g fill="rgb(166,166,178)" stroke-miterlimit="1.45" transform="matrix(1,0,0,1,151,134)" stroke-linecap="butt" stroke="rgb(166,166,178)">
      <rect fill="none" width="247.75" x="-8" height="134.2812" y="-8.0312"/>
    </g>
    <g font-family="sans-serif" transform="matrix(1,0,0,1,151,134)">
      <text xml:space="preserve" x="-2" y="-12.8594" onclick="umlload('package-summary.html')" stroke="none">nde2.helpers</text>
    </g>
    <g fill="rgb(187,187,255)" transform="matrix(1,0,0,1,151,134)" stroke="rgb(187,187,255)">
      <rect x="0" y="0" clip-path="url(#clipPath6)" width="231.75" height="26.6406" stroke="none"/>
      <line clip-path="url(#clipPath6)" fill="none" x1="0" x2="231.75" y1="26.6406" y2="26.6406" stroke="black"/>
      <rect x="0" y="27.6406" clip-path="url(#clipPath6)" width="231.75" height="15.9688" stroke="none"/>
      <line clip-path="url(#clipPath6)" fill="none" x1="0" x2="231.75" y1="43.6094" y2="43.6094" stroke="black"/>
      <rect x="0" y="44.6094" clip-path="url(#clipPath6)" width="231.75" height="73.6406" stroke="none"/>
    </g>
    <g fill="rgb(130,130,178)" stroke-miterlimit="1.45" transform="matrix(1,0,0,1,151,134)" stroke-linecap="butt" stroke="rgb(130,130,178)">
      <rect fill="none" width="231.75" x="0" height="118.25" y="0"/>
    </g>
    <g font-size="16" font-weight="bold" font-family="sans-serif" transform="matrix(1,0,0,1,151,134)">
      <text xml:space="preserve" x="63.375" y="18.8594" onclick="umlload('#')" stroke="none">DateFormat</text>
    </g>
    <g font-family="sans-serif" transform="matrix(1,0,0,1,151,134)">
      <text xml:space="preserve" x="4" y="38.1719" stroke="none">+</text>
      <text xml:space="preserve" x="19" y="39.7812" onclick="umlload('#DateFormat()')" stroke="none">DateFormat()</text>
    </g>
    <g font-family="sans-serif" transform="matrix(1,0,0,1,151,134)">
      <text xml:space="preserve" x="4" y="55.1719" stroke="none">+</text>
      <text xml:space="preserve" x="19" y="56.75" onclick="umlload('#fromNDEDateOnly(java.lang.String)')" stroke="none">fromNDEDateOnly(String) : Date</text>
      <line y2="59.5781" fill="none" x1="19" x2="218" y1="59.5781"/>
    </g>
    <g font-family="sans-serif" transform="matrix(1,0,0,1,151,134)">
      <text xml:space="preserve" x="4" y="71.1719" stroke="none">+</text>
      <text xml:space="preserve" x="19" y="72.7188" onclick="umlload('#fromNDEDateTime(java.lang.String)')" stroke="none">fromNDEDateTime(String) : Date</text>
      <line y2="75.5469" fill="none" x1="19" x2="221" y1="75.5469"/>
    </g>
    <g font-family="sans-serif" transform="matrix(1,0,0,1,151,134)">
      <text xml:space="preserve" x="4" y="87.1719" stroke="none">+</text>
      <text xml:space="preserve" x="19" y="88.6875" onclick="umlload('#getYear(java.util.Date)')" stroke="none">getYear(Date) : int</text>
      <line y2="91.5156" fill="none" x1="19" x2="136" y1="91.5156"/>
    </g>
    <g font-family="sans-serif" transform="matrix(1,0,0,1,151,134)">
      <text xml:space="preserve" x="4" y="103.1719" stroke="none">+</text>
      <text xml:space="preserve" x="19" y="104.6562" onclick="umlload('#toNDEDate(java.util.Date)')" stroke="none">toNDEDate(Date) : String</text>
      <line y2="107.4844" fill="none" x1="19" x2="177" y1="107.4844"/>
    </g>
    <g font-family="sans-serif" transform="matrix(1,0,0,1,151,134)">
      <text xml:space="preserve" x="-145" y="151.1562" onclick="umlload('http://www.yworks.com/')" stroke="none">yWorks UML Doclet</text>
    </g>
    <g stroke-miterlimit="1.45" transform="matrix(1,0,0,1,151,134)" stroke-linecap="butt">
      <path fill="none" d="M115.875 0.0038 L115.875 -69"/>
      <path fill="white" d="M115.875 -84 L109.875 -68 L121.875 -68 Z" stroke="none"/>
      <path fill="none" d="M115.875 -84 L109.875 -68 L121.875 -68 Z"/>
      <path fill="none" d="M0.0016 11.5625 L-66 11.5625"/>
      <line stroke-linecap="square" transform="matrix(-1,0,0,-1,-66,11.5625)" fill="none" x1="0" x2="-14" y1="0" y2="-4" stroke-miterlimit="10"/>
      <line stroke-linecap="square" transform="matrix(-1,0,0,-1,-66,11.5625)" fill="none" x1="0" x2="-14" y1="0" y2="4" stroke-miterlimit="10"/>
    </g>
    <g stroke-dasharray="6,2" stroke-miterlimit="1.45" transform="matrix(1,0,0,1,151,134)" stroke-linecap="butt">
      <path fill="none" d="M231.7407 11.5625 L297.75 11.5625"/>
      <line stroke-linecap="square" transform="matrix(1,0,0,1,297.75,11.5625)" fill="none" x1="0" x2="-14" y1="0" y2="-4" stroke-dasharray="none" stroke-miterlimit="10"/>
      <line stroke-linecap="square" transform="matrix(1,0,0,1,297.75,11.5625)" fill="none" x1="0" x2="-14" y1="0" y2="4" stroke-dasharray="none" stroke-miterlimit="10"/>
    </g>
    <g stroke-dasharray="6,2" stroke-miterlimit="1.45" transform="matrix(1,0,0,1,151,134)" stroke-linecap="butt">
      <path fill="none" d="M231.7819 98.6875 L297.75 98.6875"/>
      <line stroke-linecap="square" transform="matrix(1,0,0,1,297.75,98.6875)" fill="none" x1="0" x2="-14" y1="0" y2="-4" stroke-dasharray="none" stroke-miterlimit="10"/>
      <line stroke-linecap="square" transform="matrix(1,0,0,1,297.75,98.6875)" fill="none" x1="0" x2="-14" y1="0" y2="4" stroke-dasharray="none" stroke-miterlimit="10"/>
    </g>
  </g>
</svg>
