<?xml version="1.0" encoding="UTF-8"?>
<svg xmlns="http://www.w3.org/2000/svg" xmlns:xlink="http://www.w3.org/1999/xlink" fill-opacity="1" color-rendering="auto" color-interpolation="auto" stroke="black" text-rendering="auto" stroke-linecap="square" width="140" stroke-miterlimit="10" stroke-opacity="1" shape-rendering="auto" fill="black" stroke-dasharray="none" font-weight="normal" stroke-width="1" height="297" font-family="'Dialog'" font-style="normal" stroke-linejoin="miter" font-size="12" stroke-dashoffset="0" image-rendering="auto">
  <!--Generated by ySVG-->
  <defs id="genericDefs"/>
  <g>
    <defs id="defs1">
      <clipPath clipPathUnits="userSpaceOnUse" id="clipPath1">
        <path d="M0 0 L140 0 L140 297 L0 297 L0 0 Z"/>
      </clipPath>
      <clipPath clipPathUnits="userSpaceOnUse" id="clipPath2">
        <path d="M8 26 L115.12 26 L115.12 49.125 L8 49.125 L8 26 Z"/>
      </clipPath>
      <clipPath clipPathUnits="userSpaceOnUse" id="clipPath3">
        <path d="M8 94.125 L129.54 94.125 L129.54 117.25 L8 117.25 L8 94.125 Z"/>
      </clipPath>
      <clipPath clipPathUnits="userSpaceOnUse" id="clipPath4">
        <path d="M8 162.25 L106.88 162.25 L106.88 185.375 L8 185.375 L8 162.25 Z"/>
      </clipPath>
      <clipPath clipPathUnits="userSpaceOnUse" id="clipPath5">
        <path d="M8 230.375 L86.28 230.375 L86.28 253.5 L8 253.5 L8 230.375 Z"/>
      </clipPath>
      <script type="text/ecmascript"><![CDATA[
function umlload(newLocation)
{
if (newLocation.charAt(0) != '#') {
if (newLocation.indexOf("://") > -1) {
window.parent.location.href = newLocation;
} else {
var tmp = window.parent.location.href;
tmp = tmp.substring(0, tmp.lastIndexOf("/") + 1);
window.parent.location.href = tmp.concat(newLocation);
}
} else {
window.parent.location.hash = newLocation;
}
}
]]></script>
    </defs>
    <g fill="rgb(238,238,255)" transform="matrix(1,0,0,1,1,0)" stroke="rgb(238,238,255)">
      <rect width="104.7855" x="0" height="17.9688" y="0" stroke="none"/>
    </g>
    <g fill="rgb(166,166,178)" stroke-miterlimit="1.45" transform="matrix(1,0,0,1,1,0)" stroke-linecap="butt" stroke="rgb(166,166,178)">
      <rect fill="none" width="104.7855" x="0" height="17.9688" y="0"/>
    </g>
    <g fill="rgb(238,238,255)" transform="matrix(1,0,0,1,1,0)" stroke="rgb(238,238,255)">
      <rect width="137.54" x="0" height="243.5312" y="17.9688" stroke="none"/>
    </g>
    <g fill="rgb(166,166,178)" stroke-miterlimit="1.45" transform="matrix(1,0,0,1,1,0)" stroke-linecap="butt" stroke="rgb(166,166,178)">
      <rect fill="none" width="137.54" x="0" height="243.5312" y="17.9688"/>
    </g>
    <g font-family="sans-serif" transform="matrix(1,0,0,1,1,0)">
      <text xml:space="preserve" x="6" y="13.1406" onclick="umlload('#')" stroke="none">nde2.helpers</text>
    </g>
    <g fill="rgb(187,187,255)" transform="matrix(1,0,0,1,1,0)" stroke="rgb(187,187,255)">
      <rect x="8" y="26" clip-path="url(#clipPath2)" width="107.12" height="23.125" stroke="none"/>
    </g>
    <g fill="rgb(130,130,178)" stroke-miterlimit="1.45" transform="matrix(1,0,0,1,1,0)" stroke-linecap="butt" stroke="rgb(130,130,178)">
      <rect fill="none" width="107.12" x="8" height="23.125" y="26"/>
    </g>
    <g font-size="13" font-weight="bold" font-family="sans-serif" transform="matrix(1,0,0,1,1,0)">
      <text xml:space="preserve" x="13.56" y="42.0625" onclick="umlload('ArrayHelpers.html')" stroke="none">ArrayHelpers</text>
    </g>
    <g fill="rgb(187,187,255)" transform="matrix(1,0,0,1,1,0)" stroke="rgb(187,187,255)">
      <rect x="8" y="94.125" clip-path="url(#clipPath3)" width="121.54" height="23.125" stroke="none"/>
    </g>
    <g fill="rgb(130,130,178)" stroke-miterlimit="1.45" transform="matrix(1,0,0,1,1,0)" stroke-linecap="butt" stroke="rgb(130,130,178)">
      <rect fill="none" width="121.54" x="8" height="23.125" y="94.125"/>
    </g>
    <g font-size="13" font-weight="bold" font-family="sans-serif" transform="matrix(1,0,0,1,1,0)">
      <text xml:space="preserve" x="13.77" y="110.1875" onclick="umlload('CensusHelpers.html')" stroke="none">CensusHelpers</text>
    </g>
    <g fill="rgb(187,187,255)" transform="matrix(1,0,0,1,1,0)" stroke="rgb(187,187,255)">
      <rect x="8" y="162.25" clip-path="url(#clipPath4)" width="98.88" height="23.125" stroke="none"/>
    </g>
    <g fill="rgb(130,130,178)" stroke-miterlimit="1.45" transform="matrix(1,0,0,1,1,0)" stroke-linecap="butt" stroke="rgb(130,130,178)">
      <rect fill="none" width="98.88" x="8" height="23.125" y="162.25"/>
    </g>
    <g font-size="13" font-weight="bold" font-family="sans-serif" transform="matrix(1,0,0,1,1,0)">
      <text xml:space="preserve" x="13.44" y="178.3125" onclick="umlload('DateFormat.html')" stroke="none">DateFormat</text>
    </g>
    <g fill="rgb(187,187,255)" transform="matrix(1,0,0,1,1,0)" stroke="rgb(187,187,255)">
      <rect x="8" y="230.375" clip-path="url(#clipPath5)" width="78.28" height="23.125" stroke="none"/>
    </g>
    <g fill="rgb(130,130,178)" stroke-miterlimit="1.45" transform="matrix(1,0,0,1,1,0)" stroke-linecap="butt" stroke="rgb(130,130,178)">
      <rect fill="none" width="78.28" x="8" height="23.125" y="230.375"/>
    </g>
    <g font-size="13" font-weight="bold" font-family="sans-serif" transform="matrix(1,0,0,1,1,0)">
      <text xml:space="preserve" x="13.14" y="246.4375" onclick="umlload('Statistics.html')" stroke="none">Statistics</text>
    </g>
    <g font-family="sans-serif" transform="matrix(1,0,0,1,1,0)">
      <text xml:space="preserve" x="5" y="286.1562" onclick="umlload('http://www.yworks.com/')" stroke="none">yWorks UML Doclet</text>
    </g>
  </g>
</svg>
