<?xml version="1.0" encoding="UTF-8"?>
<svg xmlns="http://www.w3.org/2000/svg" xmlns:xlink="http://www.w3.org/1999/xlink" fill-opacity="1" color-rendering="auto" color-interpolation="auto" stroke="black" text-rendering="auto" stroke-linecap="square" width="994" stroke-miterlimit="10" stroke-opacity="1" shape-rendering="auto" fill="black" stroke-dasharray="none" font-weight="normal" stroke-width="1" height="286" font-family="'Dialog'" font-style="normal" stroke-linejoin="miter" font-size="12" stroke-dashoffset="0" image-rendering="auto">
  <!--Generated by ySVG-->
  <defs id="genericDefs"/>
  <g>
    <defs id="defs1">
      <clipPath clipPathUnits="userSpaceOnUse" id="clipPath1">
        <path d="M0 0 L994 0 L994 286 L0 286 L0 0 Z"/>
      </clipPath>
      <clipPath clipPathUnits="userSpaceOnUse" id="clipPath2">
        <path d="M-66 16.3518 C-66 25.3827 -162.8457 32.7037 -282.311 32.7037 C-401.7763 32.7037 -498.6221 25.3827 -498.6221 16.3518 C-498.6221 7.321 -401.7763 0 -282.311 0 C-162.8457 0 -66 7.321 -66 16.3518 Z"/>
      </clipPath>
      <clipPath clipPathUnits="userSpaceOnUse" id="clipPath3">
        <path d="M185.915 -107.125 L293.035 -107.125 L293.035 -84 L185.915 -84 L185.915 -107.125 Z"/>
      </clipPath>
      <clipPath clipPathUnits="userSpaceOnUse" id="clipPath4">
        <path d="M0 0 L478.95 0 L478.95 108.4844 L0 108.4844 L0 0 Z"/>
      </clipPath>
      <script type="text/ecmascript"><![CDATA[
function umlload(newLocation)
{
if (newLocation.charAt(0) != '#') {
if (newLocation.indexOf("://") > -1) {
window.parent.location.href = newLocation;
} else {
var tmp = window.parent.location.href;
tmp = tmp.substring(0, tmp.lastIndexOf("/") + 1);
window.parent.location.href = tmp.concat(newLocation);
}
} else {
window.parent.location.hash = newLocation;
}
}
]]></script>
    </defs>
    <g fill="rgb(238,238,255)" transform="matrix(1,0,0,1,507,134)" stroke="rgb(238,238,255)">
      <rect width="189.6575" x="-506.6221" height="17.9688" y="-26" stroke="none"/>
    </g>
    <g fill="rgb(166,166,178)" stroke-miterlimit="1.45" transform="matrix(1,0,0,1,507,134)" stroke-linecap="butt" stroke="rgb(166,166,178)">
      <rect fill="none" width="189.6575" x="-506.6221" height="17.9688" y="-26"/>
    </g>
    <g fill="rgb(238,238,255)" transform="matrix(1,0,0,1,507,134)" stroke="rgb(238,238,255)">
      <rect width="448.6221" x="-506.6221" height="48.7349" y="-8.0312" stroke="none"/>
    </g>
    <g fill="rgb(166,166,178)" stroke-miterlimit="1.45" transform="matrix(1,0,0,1,507,134)" stroke-linecap="butt" stroke="rgb(166,166,178)">
      <rect fill="none" width="448.6221" x="-506.6221" height="48.7349" y="-8.0312"/>
    </g>
    <g font-family="sans-serif" transform="matrix(1,0,0,1,507,134)">
      <text xml:space="preserve" x="-500.6221" y="-12.8594" onclick="umlload('../../../lamparski/areabase/cards/package-summary.html')" stroke="none">lamparski.areabase.cards</text>
    </g>
    <g fill="rgb(221,221,255)" transform="matrix(1,0,0,1,507,134)" stroke="rgb(221,221,255)">
      <rect x="-498.6221" y="0" clip-path="url(#clipPath2)" width="432.6221" height="32.7037" stroke="none"/>
    </g>
    <g fill="rgb(154,154,178)" stroke-miterlimit="1.45" transform="matrix(1,0,0,1,507,134)" stroke-linecap="butt" stroke="rgb(154,154,178)">
      <ellipse rx="216.311" fill="none" ry="16.3518" cx="-282.311" cy="16.3518"/>
    </g>
    <g font-style="italic" font-size="13" font-weight="bold" font-family="sans-serif" transform="matrix(1,0,0,1,507,134)">
      <text xml:space="preserve" x="-426.811" y="20.8518" onclick="umlload('../../../lamparski/areabase/cards/EventfulArrayList.OnItemAddedListener.html')" stroke="none">EventfulArrayList.OnItemAddedListener</text>
    </g>
    <g fill="rgb(238,238,255)" transform="matrix(1,0,0,1,507,134)" stroke="rgb(238,238,255)">
      <rect width="67.654" x="177.915" height="17.9688" y="-133.125" stroke="none"/>
    </g>
    <g fill="rgb(166,166,178)" stroke-miterlimit="1.45" transform="matrix(1,0,0,1,507,134)" stroke-linecap="butt" stroke="rgb(166,166,178)">
      <rect fill="none" width="67.654" x="177.915" height="17.9688" y="-133.125"/>
    </g>
    <g fill="rgb(238,238,255)" transform="matrix(1,0,0,1,507,134)" stroke="rgb(238,238,255)">
      <rect width="123.12" x="177.915" height="39.1562" y="-115.1562" stroke="none"/>
    </g>
    <g fill="rgb(166,166,178)" stroke-miterlimit="1.45" transform="matrix(1,0,0,1,507,134)" stroke-linecap="butt" stroke="rgb(166,166,178)">
      <rect fill="none" width="123.12" x="177.915" height="39.1562" y="-115.1562"/>
    </g>
    <g font-family="sans-serif" transform="matrix(1,0,0,1,507,134)">
      <text xml:space="preserve" x="183.915" y="-119.9844" stroke="none">java.util</text>
    </g>
    <g fill="rgb(187,187,255)" transform="matrix(1,0,0,1,507,134)" stroke="rgb(187,187,255)">
      <rect x="185.915" y="-107.125" clip-path="url(#clipPath3)" width="107.12" height="23.125" stroke="none"/>
    </g>
    <g fill="rgb(130,130,178)" stroke-miterlimit="1.45" transform="matrix(1,0,0,1,507,134)" stroke-linecap="butt" stroke="rgb(130,130,178)">
      <rect fill="none" width="107.12" x="185.915" height="23.125" y="-107.125"/>
    </g>
    <g font-size="13" font-weight="bold" font-family="sans-serif" transform="matrix(1,0,0,1,507,134)">
      <text xml:space="preserve" x="191.475" y="-91.0625" stroke="none">ArrayList&lt;E&gt;</text>
    </g>
    <g fill="rgb(238,238,255)" transform="matrix(1,0,0,1,507,134)" stroke="rgb(238,238,255)">
      <rect width="189.6575" x="-8" height="17.9688" y="-26" stroke="none"/>
    </g>
    <g fill="rgb(166,166,178)" stroke-miterlimit="1.45" transform="matrix(1,0,0,1,507,134)" stroke-linecap="butt" stroke="rgb(166,166,178)">
      <rect fill="none" width="189.6575" x="-8" height="17.9688" y="-26"/>
    </g>
    <g fill="rgb(238,238,255)" transform="matrix(1,0,0,1,507,134)" stroke="rgb(238,238,255)">
      <rect width="494.95" x="-8" height="124.5156" y="-8.0312" stroke="none"/>
    </g>
    <g fill="rgb(166,166,178)" stroke-miterlimit="1.45" transform="matrix(1,0,0,1,507,134)" stroke-linecap="butt" stroke="rgb(166,166,178)">
      <rect fill="none" width="494.95" x="-8" height="124.5156" y="-8.0312"/>
    </g>
    <g font-family="sans-serif" transform="matrix(1,0,0,1,507,134)">
      <text xml:space="preserve" x="-2" y="-12.8594" onclick="umlload('package-summary.html')" stroke="none">lamparski.areabase.cards</text>
    </g>
    <g fill="rgb(187,187,255)" transform="matrix(1,0,0,1,507,134)" stroke="rgb(187,187,255)">
      <rect x="0" y="0" clip-path="url(#clipPath4)" width="478.95" height="26.6406" stroke="none"/>
      <line clip-path="url(#clipPath4)" fill="none" x1="0" x2="478.95" y1="26.6406" y2="26.6406" stroke="black"/>
      <line clip-path="url(#clipPath4)" x1="0" x2="478.95" y1="27.6406" y2="27.6406" stroke="none"/>
      <line clip-path="url(#clipPath4)" fill="none" x1="0" x2="478.95" y1="27.6406" y2="27.6406" stroke="black"/>
      <rect x="0" y="28.6406" clip-path="url(#clipPath4)" width="478.95" height="79.8438" stroke="none"/>
    </g>
    <g fill="rgb(130,130,178)" stroke-miterlimit="1.45" transform="matrix(1,0,0,1,507,134)" stroke-linecap="butt" stroke="rgb(130,130,178)">
      <rect fill="none" width="478.95" x="0" height="108.4844" y="0"/>
    </g>
    <g font-size="16" font-weight="bold" font-family="sans-serif" transform="matrix(1,0,0,1,507,134)">
      <text xml:space="preserve" x="145.475" y="18.8594" onclick="umlload('#')" stroke="none">EventfulArrayList&lt;E&gt;</text>
    </g>
    <g font-family="sans-serif" transform="matrix(1,0,0,1,507,134)">
      <text xml:space="preserve" x="4" y="39.1719" stroke="none">+</text>
      <text xml:space="preserve" x="19" y="40.7812" stroke="none">EventfulArrayList()</text>
    </g>
    <g font-family="sans-serif" transform="matrix(1,0,0,1,507,134)">
      <text xml:space="preserve" x="4" y="55.1719" stroke="none">+</text>
      <text xml:space="preserve" x="19" y="56.75" onclick="umlload('#add(E)')" stroke="none">add(E) : boolean</text>
    </g>
    <g font-family="sans-serif" transform="matrix(1,0,0,1,507,134)">
      <text xml:space="preserve" x="4" y="71.1719" stroke="none">+</text>
      <text xml:space="preserve" x="19" y="72.7188" onclick="umlload('#add(int, E)')" stroke="none">add(int, E) : void</text>
    </g>
    <g font-family="sans-serif" transform="matrix(1,0,0,1,507,134)">
      <text xml:space="preserve" x="4" y="87.1719" stroke="none">+</text>
      <text xml:space="preserve" x="19" y="88.6875" onclick="umlload('#addSilent(E)')" stroke="none">addSilent(E) : boolean</text>
    </g>
    <g font-family="sans-serif" transform="matrix(1,0,0,1,507,134)">
      <text xml:space="preserve" x="4" y="103.1719" stroke="none">+</text>
      <text xml:space="preserve" x="19" y="104.6562" onclick="umlload('#setOnItemAddedListener(lamparski.areabase.cards.EventfulArrayList.OnItemAddedListener)')" stroke="none">setOnItemAddedListener(EventfulArrayList.OnItemAddedListener) : void</text>
    </g>
    <g font-family="sans-serif" transform="matrix(1,0,0,1,507,134)">
      <text xml:space="preserve" x="-501" y="141.1562" onclick="umlload('http://www.yworks.com/')" stroke="none">yWorks UML Doclet</text>
    </g>
    <g stroke-miterlimit="1.45" transform="matrix(1,0,0,1,507,134)" stroke-linecap="butt">
      <path fill="none" d="M239.475 0 L239.475 -69"/>
      <path fill="white" d="M239.475 -84 L233.475 -68 L245.475 -68 Z" stroke="none"/>
      <path fill="none" d="M239.475 -84 L233.475 -68 L245.475 -68 Z"/>
      <path fill="none" d="M0.0152 16.3518 L-66 16.3518"/>
      <line stroke-linecap="square" transform="matrix(-1,0,0,-1,-66,16.3518)" fill="none" x1="0" x2="-14" y1="0" y2="-4" stroke-miterlimit="10"/>
      <line stroke-linecap="square" transform="matrix(-1,0,0,-1,-66,16.3518)" fill="none" x1="0" x2="-14" y1="0" y2="4" stroke-miterlimit="10"/>
    </g>
  </g>
</svg>
