<?xml version="1.0" encoding="UTF-8"?>
<svg xmlns="http://www.w3.org/2000/svg" xmlns:xlink="http://www.w3.org/1999/xlink" fill-opacity="1" color-rendering="auto" color-interpolation="auto" stroke="black" text-rendering="auto" stroke-linecap="square" width="540" stroke-miterlimit="10" stroke-opacity="1" shape-rendering="auto" fill="black" stroke-dasharray="none" font-weight="normal" stroke-width="1" height="270" font-family="'Dialog'" font-style="normal" stroke-linejoin="miter" font-size="12" stroke-dashoffset="0" image-rendering="auto">
  <!--Generated by ySVG-->
  <defs id="genericDefs"/>
  <g>
    <defs id="defs1">
      <clipPath clipPathUnits="userSpaceOnUse" id="clipPath1">
        <path d="M0 0 L540 0 L540 270 L0 270 L0 0 Z"/>
      </clipPath>
      <clipPath clipPathUnits="userSpaceOnUse" id="clipPath2">
        <path d="M454.31 0 L523.32 0 L523.32 23.125 L454.31 23.125 L454.31 0 Z"/>
      </clipPath>
      <clipPath clipPathUnits="userSpaceOnUse" id="clipPath3">
        <path d="M454.31 33.125 L507.87 33.125 L507.87 56.25 L454.31 56.25 L454.31 33.125 Z"/>
      </clipPath>
      <clipPath clipPathUnits="userSpaceOnUse" id="clipPath4">
        <path d="M131.325 -107.125 L256.985 -107.125 L256.985 -84 L131.325 -84 L131.325 -107.125 Z"/>
      </clipPath>
      <clipPath clipPathUnits="userSpaceOnUse" id="clipPath5">
        <path d="M0 0 L388.31 0 L388.31 92.5156 L0 92.5156 L0 0 Z"/>
      </clipPath>
      <script type="text/ecmascript"><![CDATA[
function umlload(newLocation)
{
if (newLocation.charAt(0) != '#') {
if (newLocation.indexOf("://") > -1) {
window.parent.location.href = newLocation;
} else {
var tmp = window.parent.location.href;
tmp = tmp.substring(0, tmp.lastIndexOf("/") + 1);
window.parent.location.href = tmp.concat(newLocation);
}
} else {
window.parent.location.hash = newLocation;
}
}
]]></script>
    </defs>
    <g fill="rgb(238,238,255)" transform="matrix(1,0,0,1,8,134)" stroke="rgb(238,238,255)">
      <rect width="76.1412" x="446.31" height="17.9688" y="-26" stroke="none"/>
    </g>
    <g fill="rgb(166,166,178)" stroke-miterlimit="1.45" transform="matrix(1,0,0,1,8,134)" stroke-linecap="butt" stroke="rgb(166,166,178)">
      <rect fill="none" width="76.1412" x="446.31" height="17.9688" y="-26"/>
    </g>
    <g fill="rgb(238,238,255)" transform="matrix(1,0,0,1,8,134)" stroke="rgb(238,238,255)">
      <rect width="85.01" x="446.31" height="72.2812" y="-8.0312" stroke="none"/>
    </g>
    <g fill="rgb(166,166,178)" stroke-miterlimit="1.45" transform="matrix(1,0,0,1,8,134)" stroke-linecap="butt" stroke="rgb(166,166,178)">
      <rect fill="none" width="85.01" x="446.31" height="72.2812" y="-8.0312"/>
    </g>
    <g font-family="sans-serif" transform="matrix(1,0,0,1,8,134)">
      <text xml:space="preserve" x="452.31" y="-12.8594" stroke="none">java.lang</text>
    </g>
    <g fill="rgb(187,187,255)" transform="matrix(1,0,0,1,8,134)" stroke="rgb(187,187,255)">
      <rect x="454.31" y="0" clip-path="url(#clipPath2)" width="69.01" height="23.125" stroke="none"/>
    </g>
    <g fill="rgb(130,130,178)" stroke-miterlimit="1.45" transform="matrix(1,0,0,1,8,134)" stroke-linecap="butt" stroke="rgb(130,130,178)">
      <rect fill="none" width="69.01" x="454.31" height="23.125" y="0"/>
    </g>
    <g font-size="13" font-weight="bold" font-family="sans-serif" transform="matrix(1,0,0,1,8,134)">
      <text xml:space="preserve" x="459.315" y="16.0625" stroke="none">Boolean</text>
    </g>
    <g fill="rgb(187,187,255)" transform="matrix(1,0,0,1,8,134)" stroke="rgb(187,187,255)">
      <rect x="454.31" y="33.125" clip-path="url(#clipPath3)" width="53.56" height="23.125" stroke="none"/>
    </g>
    <g fill="rgb(130,130,178)" stroke-miterlimit="1.45" transform="matrix(1,0,0,1,8,134)" stroke-linecap="butt" stroke="rgb(130,130,178)">
      <rect fill="none" width="53.56" x="454.31" height="23.125" y="33.125"/>
    </g>
    <g font-size="13" font-weight="bold" font-family="sans-serif" transform="matrix(1,0,0,1,8,134)">
      <text xml:space="preserve" x="459.09" y="49.1875" stroke="none">String</text>
    </g>
    <g fill="rgb(238,238,255)" transform="matrix(1,0,0,1,8,134)" stroke="rgb(238,238,255)">
      <rect width="162.0741" x="117.325" height="17.9688" y="-133.125" stroke="none"/>
    </g>
    <g fill="rgb(166,166,178)" stroke-miterlimit="1.45" transform="matrix(1,0,0,1,8,134)" stroke-linecap="butt" stroke="rgb(166,166,178)">
      <rect fill="none" width="162.0741" x="117.325" height="17.9688" y="-133.125"/>
    </g>
    <g fill="rgb(238,238,255)" transform="matrix(1,0,0,1,8,134)" stroke="rgb(238,238,255)">
      <rect width="162.66" x="117.325" height="39.1562" y="-115.1562" stroke="none"/>
    </g>
    <g fill="rgb(166,166,178)" stroke-miterlimit="1.45" transform="matrix(1,0,0,1,8,134)" stroke-linecap="butt" stroke="rgb(166,166,178)">
      <rect fill="none" width="162.66" x="117.325" height="39.1562" y="-115.1562"/>
    </g>
    <g font-family="sans-serif" transform="matrix(1,0,0,1,8,134)">
      <text xml:space="preserve" x="123.325" y="-119.9844" onclick="umlload('package-summary.html')" stroke="none">&lt;unnamed package&gt;</text>
    </g>
    <g fill="rgb(187,187,255)" transform="matrix(1,0,0,1,8,134)" stroke="rgb(187,187,255)">
      <rect x="131.325" y="-107.125" clip-path="url(#clipPath4)" width="125.66" height="23.125" stroke="none"/>
    </g>
    <g fill="rgb(130,130,178)" stroke-miterlimit="1.45" transform="matrix(1,0,0,1,8,134)" stroke-linecap="butt" stroke="rgb(130,130,178)">
      <rect fill="none" width="125.66" x="131.325" height="23.125" y="-107.125"/>
    </g>
    <g font-size="13" font-weight="bold" font-family="sans-serif" transform="matrix(1,0,0,1,8,134)">
      <text xml:space="preserve" x="137.155" y="-91.0625" stroke="none">RecyclableCard</text>
    </g>
    <g fill="rgb(238,238,255)" transform="matrix(1,0,0,1,8,134)" stroke="rgb(238,238,255)">
      <rect width="189.6575" x="-8" height="17.9688" y="-26" stroke="none"/>
    </g>
    <g fill="rgb(166,166,178)" stroke-miterlimit="1.45" transform="matrix(1,0,0,1,8,134)" stroke-linecap="butt" stroke="rgb(166,166,178)">
      <rect fill="none" width="189.6575" x="-8" height="17.9688" y="-26"/>
    </g>
    <g fill="rgb(238,238,255)" transform="matrix(1,0,0,1,8,134)" stroke="rgb(238,238,255)">
      <rect width="404.31" x="-8" height="108.5469" y="-8.0312" stroke="none"/>
    </g>
    <g fill="rgb(166,166,178)" stroke-miterlimit="1.45" transform="matrix(1,0,0,1,8,134)" stroke-linecap="butt" stroke="rgb(166,166,178)">
      <rect fill="none" width="404.31" x="-8" height="108.5469" y="-8.0312"/>
    </g>
    <g font-family="sans-serif" transform="matrix(1,0,0,1,8,134)">
      <text xml:space="preserve" x="-2" y="-12.8594" onclick="umlload('package-summary.html')" stroke="none">lamparski.areabase.cards</text>
    </g>
    <g fill="rgb(187,187,255)" transform="matrix(1,0,0,1,8,134)" stroke="rgb(187,187,255)">
      <rect x="0" y="0" clip-path="url(#clipPath5)" width="388.31" height="26.6406" stroke="none"/>
      <line clip-path="url(#clipPath5)" fill="none" x1="0" x2="388.31" y1="26.6406" y2="26.6406" stroke="black"/>
      <rect x="0" y="27.6406" clip-path="url(#clipPath5)" width="388.31" height="31.9375" stroke="none"/>
      <line clip-path="url(#clipPath5)" fill="none" x1="0" x2="388.31" y1="59.5781" y2="59.5781" stroke="black"/>
      <rect x="0" y="60.5781" clip-path="url(#clipPath5)" width="388.31" height="31.9375" stroke="none"/>
    </g>
    <g fill="rgb(130,130,178)" stroke-miterlimit="1.45" transform="matrix(1,0,0,1,8,134)" stroke-linecap="butt" stroke="rgb(130,130,178)">
      <rect fill="none" width="388.31" x="0" height="92.5156" y="0"/>
    </g>
    <g font-size="16" font-weight="bold" font-family="sans-serif" transform="matrix(1,0,0,1,8,134)">
      <text xml:space="preserve" x="155.655" y="18.8594" onclick="umlload('#')" stroke="none">PlayCard</text>
    </g>
    <g font-family="sans-serif" transform="matrix(1,0,0,1,8,134)">
      <text xml:space="preserve" x="4" y="38.1719" stroke="none">+</text>
      <text xml:space="preserve" x="19" y="39.7812" onclick="umlload('#PlayCard()')" stroke="none">PlayCard()</text>
    </g>
    <g font-family="sans-serif" transform="matrix(1,0,0,1,8,134)">
      <text xml:space="preserve" x="4" y="54.1719" stroke="none">+</text>
      <text xml:space="preserve" x="19" y="55.75" onclick="umlload('#PlayCard(java.lang.String, java.lang.String, java.lang.String, java.lang.String, java.lang.Boolean, java.lang.Boolean)')" stroke="none">PlayCard(String, String, String, String, Boolean, Boolean)</text>
    </g>
    <g font-family="sans-serif" transform="matrix(1,0,0,1,8,134)">
      <text xml:space="preserve" x="4" y="71.1719" stroke="none">#</text>
      <text xml:space="preserve" x="19" y="72.7188" onclick="umlload('#applyTo(View)')" stroke="none">applyTo(View) : void</text>
    </g>
    <g font-family="sans-serif" transform="matrix(1,0,0,1,8,134)">
      <text xml:space="preserve" x="4" y="87.1719" stroke="none">#</text>
      <text xml:space="preserve" x="19" y="88.6875" onclick="umlload('#getCardLayoutId()')" stroke="none">getCardLayoutId() : int</text>
    </g>
    <g font-family="sans-serif" transform="matrix(1,0,0,1,8,134)">
      <text xml:space="preserve" x="-2" y="125.1562" onclick="umlload('http://www.yworks.com/')" stroke="none">yWorks UML Doclet</text>
    </g>
    <g stroke-miterlimit="1.45" transform="matrix(1,0,0,1,8,134)" stroke-linecap="butt">
      <path fill="none" d="M194.155 -0.0346 L194.155 -69"/>
      <path fill="white" d="M194.155 -84 L188.155 -68 L200.155 -68 Z" stroke="none"/>
      <path fill="none" d="M194.155 -84 L188.155 -68 L200.155 -68 Z"/>
      <path fill="none" stroke-dasharray="6,2" d="M388.281 11.5625 L454.31 11.5625"/>
      <line stroke-linecap="square" transform="matrix(1,0,0,1,454.31,11.5625)" fill="none" x1="0" x2="-14" y1="0" y2="-4" stroke-miterlimit="10"/>
      <line stroke-linecap="square" transform="matrix(1,0,0,1,454.31,11.5625)" fill="none" x1="0" x2="-14" y1="0" y2="4" stroke-miterlimit="10"/>
    </g>
    <g stroke-dasharray="6,2" stroke-miterlimit="1.45" transform="matrix(1,0,0,1,8,134)" stroke-linecap="butt">
      <path fill="none" d="M388.3055 44.6875 L454.31 44.6875"/>
      <line stroke-linecap="square" transform="matrix(1,0,0,1,454.31,44.6875)" fill="none" x1="0" x2="-14" y1="0" y2="-4" stroke-dasharray="none" stroke-miterlimit="10"/>
      <line stroke-linecap="square" transform="matrix(1,0,0,1,454.31,44.6875)" fill="none" x1="0" x2="-14" y1="0" y2="4" stroke-dasharray="none" stroke-miterlimit="10"/>
    </g>
  </g>
</svg>
