<?xml version="1.0" encoding="UTF-8"?>
<svg xmlns="http://www.w3.org/2000/svg" xmlns:xlink="http://www.w3.org/1999/xlink" fill-opacity="1" color-rendering="auto" color-interpolation="auto" stroke="black" text-rendering="auto" stroke-linecap="square" width="902" stroke-miterlimit="10" stroke-opacity="1" shape-rendering="auto" fill="black" stroke-dasharray="none" font-weight="normal" stroke-width="1" height="574" font-family="'Dialog'" font-style="normal" stroke-linejoin="miter" font-size="12" stroke-dashoffset="0" image-rendering="auto">
  <!--Generated by ySVG-->
  <defs id="genericDefs"/>
  <g>
    <defs id="defs1">
      <clipPath clipPathUnits="userSpaceOnUse" id="clipPath1">
        <path d="M0 0 L902 0 L902 574 L0 574 L0 0 Z"/>
      </clipPath>
      <clipPath clipPathUnits="userSpaceOnUse" id="clipPath2">
        <path d="M524.35 96.7037 L567.61 96.7037 L567.61 119.8287 L524.35 119.8287 L524.35 96.7037 Z"/>
      </clipPath>
      <clipPath clipPathUnits="userSpaceOnUse" id="clipPath3">
        <path d="M524.35 129.8287 L642.8 129.8287 L642.8 152.9537 L524.35 152.9537 L524.35 129.8287 Z"/>
      </clipPath>
      <clipPath clipPathUnits="userSpaceOnUse" id="clipPath4">
        <path d="M686.037 16.3518 C686.037 25.3827 649.8422 32.7037 605.1935 32.7037 C560.5449 32.7037 524.35 25.3827 524.35 16.3518 C524.35 7.321 560.5449 0 605.1935 0 C649.8422 0 686.037 7.321 686.037 16.3518 Z"/>
      </clipPath>
      <clipPath clipPathUnits="userSpaceOnUse" id="clipPath5">
        <path d="M-171.24 226.5324 L-78.54 226.5324 L-78.54 249.6574 L-171.24 249.6574 L-171.24 226.5324 Z"/>
      </clipPath>
      <clipPath clipPathUnits="userSpaceOnUse" id="clipPath6">
        <path d="M-66 103.4768 C-66 112.5077 -95.6733 119.8287 -132.2771 119.8287 C-168.881 119.8287 -198.5542 112.5077 -198.5542 103.4768 C-198.5542 94.446 -168.881 87.125 -132.2771 87.125 C-95.6733 87.125 -66 94.446 -66 103.4768 Z"/>
      </clipPath>
      <clipPath clipPathUnits="userSpaceOnUse" id="clipPath7">
        <path d="M-106.7859 146.1805 C-106.7859 155.2114 -127.329 162.5324 -152.6701 162.5324 C-178.0112 162.5324 -198.5542 155.2114 -198.5542 146.1805 C-198.5542 137.1497 -178.0112 129.8287 -152.6701 129.8287 C-127.329 129.8287 -106.7859 137.1497 -106.7859 146.1805 Z"/>
      </clipPath>
      <clipPath clipPathUnits="userSpaceOnUse" id="clipPath8">
        <path d="M-130.04 0 L-76.48 0 L-76.48 23.125 L-130.04 23.125 L-130.04 0 Z"/>
      </clipPath>
      <clipPath clipPathUnits="userSpaceOnUse" id="clipPath9">
        <path d="M151.925 -107.125 L306.425 -107.125 L306.425 -84 L151.925 -84 L151.925 -107.125 Z"/>
      </clipPath>
      <clipPath clipPathUnits="userSpaceOnUse" id="clipPath10">
        <path d="M0 0 L458.35 0 L458.35 396.9219 L0 396.9219 L0 0 Z"/>
      </clipPath>
      <script type="text/ecmascript"><![CDATA[
function umlload(newLocation)
{
if (newLocation.charAt(0) != '#') {
if (newLocation.indexOf("://") > -1) {
window.parent.location.href = newLocation;
} else {
var tmp = window.parent.location.href;
tmp = tmp.substring(0, tmp.lastIndexOf("/") + 1);
window.parent.location.href = tmp.concat(newLocation);
}
} else {
window.parent.location.hash = newLocation;
}
}
]]></script>
    </defs>
    <g fill="rgb(238,238,255)" transform="matrix(1,0,0,1,207,134)" stroke="rgb(238,238,255)">
      <rect width="118.5772" x="516.35" height="17.9688" y="70.7037" stroke="none"/>
    </g>
    <g fill="rgb(166,166,178)" stroke-miterlimit="1.45" transform="matrix(1,0,0,1,207,134)" stroke-linecap="butt" stroke="rgb(166,166,178)">
      <rect fill="none" width="118.5772" x="516.35" height="17.9688" y="70.7037"/>
    </g>
    <g fill="rgb(238,238,255)" transform="matrix(1,0,0,1,207,134)" stroke="rgb(238,238,255)">
      <rect width="134.45" x="516.35" height="72.2813" y="88.6724" stroke="none"/>
    </g>
    <g fill="rgb(166,166,178)" stroke-miterlimit="1.45" transform="matrix(1,0,0,1,207,134)" stroke-linecap="butt" stroke="rgb(166,166,178)">
      <rect fill="none" width="134.45" x="516.35" height="72.2813" y="88.6724"/>
    </g>
    <g font-family="sans-serif" transform="matrix(1,0,0,1,207,134)">
      <text xml:space="preserve" x="522.35" y="83.8443" onclick="umlload('../../../../nde2/pull/types/package-summary.html')" stroke="none">nde2.pull.types</text>
    </g>
    <g fill="rgb(187,187,255)" transform="matrix(1,0,0,1,207,134)" stroke="rgb(187,187,255)">
      <rect x="524.35" y="96.7037" clip-path="url(#clipPath2)" width="43.26" height="23.125" stroke="none"/>
    </g>
    <g fill="rgb(130,130,178)" stroke-miterlimit="1.45" transform="matrix(1,0,0,1,207,134)" stroke-linecap="butt" stroke="rgb(130,130,178)">
      <rect fill="none" width="43.26" x="524.35" height="23.125" y="96.7037"/>
    </g>
    <g font-size="13" font-weight="bold" font-family="sans-serif" transform="matrix(1,0,0,1,207,134)">
      <text xml:space="preserve" x="528.98" y="112.7662" onclick="umlload('../../../../nde2/pull/types/Area.html')" stroke="none">Area</text>
    </g>
    <g fill="rgb(187,187,255)" transform="matrix(1,0,0,1,207,134)" stroke="rgb(187,187,255)">
      <rect x="524.35" y="129.8287" clip-path="url(#clipPath3)" width="118.45" height="23.125" stroke="none"/>
    </g>
    <g fill="rgb(130,130,178)" stroke-miterlimit="1.45" transform="matrix(1,0,0,1,207,134)" stroke-linecap="butt" stroke="rgb(130,130,178)">
      <rect fill="none" width="118.45" x="524.35" height="23.125" y="129.8287"/>
    </g>
    <g font-size="13" font-weight="bold" font-family="sans-serif" transform="matrix(1,0,0,1,207,134)">
      <text xml:space="preserve" x="530.075" y="145.8912" onclick="umlload('../../../../nde2/pull/types/DataSetFamily.html')" stroke="none">DataSetFamily</text>
    </g>
    <g fill="rgb(238,238,255)" transform="matrix(1,0,0,1,207,134)" stroke="rgb(238,238,255)">
      <rect width="67.654" x="516.35" height="17.9688" y="-26" stroke="none"/>
    </g>
    <g fill="rgb(166,166,178)" stroke-miterlimit="1.45" transform="matrix(1,0,0,1,207,134)" stroke-linecap="butt" stroke="rgb(166,166,178)">
      <rect fill="none" width="67.654" x="516.35" height="17.9688" y="-26"/>
    </g>
    <g fill="rgb(238,238,255)" transform="matrix(1,0,0,1,207,134)" stroke="rgb(238,238,255)">
      <rect width="177.687" x="516.35" height="48.7349" y="-8.0312" stroke="none"/>
    </g>
    <g fill="rgb(166,166,178)" stroke-miterlimit="1.45" transform="matrix(1,0,0,1,207,134)" stroke-linecap="butt" stroke="rgb(166,166,178)">
      <rect fill="none" width="177.687" x="516.35" height="48.7349" y="-8.0312"/>
    </g>
    <g font-family="sans-serif" transform="matrix(1,0,0,1,207,134)">
      <text xml:space="preserve" x="522.35" y="-12.8594" stroke="none">java.util</text>
    </g>
    <g fill="rgb(221,221,255)" transform="matrix(1,0,0,1,207,134)" stroke="rgb(221,221,255)">
      <rect x="524.35" y="0" clip-path="url(#clipPath4)" width="161.687" height="32.7037" stroke="none"/>
    </g>
    <g fill="rgb(154,154,178)" stroke-miterlimit="1.45" transform="matrix(1,0,0,1,207,134)" stroke-linecap="butt" stroke="rgb(154,154,178)">
      <ellipse rx="80.8435" fill="none" ry="16.3518" cx="605.1935" cy="16.3518"/>
    </g>
    <g font-style="italic" font-size="13" font-weight="bold" font-family="sans-serif" transform="matrix(1,0,0,1,207,134)">
      <text xml:space="preserve" x="553.6935" y="20.8518" stroke="none">Collection&lt;E&gt;</text>
    </g>
    <g fill="rgb(238,238,255)" transform="matrix(1,0,0,1,207,134)" stroke="rgb(238,238,255)">
      <rect width="118.5772" x="-179.24" height="17.9688" y="200.5324" stroke="none"/>
    </g>
    <g fill="rgb(166,166,178)" stroke-miterlimit="1.45" transform="matrix(1,0,0,1,207,134)" stroke-linecap="butt" stroke="rgb(166,166,178)">
      <rect fill="none" width="118.5772" x="-179.24" height="17.9688" y="200.5324"/>
    </g>
    <g fill="rgb(238,238,255)" transform="matrix(1,0,0,1,207,134)" stroke="rgb(238,238,255)">
      <rect width="121.7" x="-179.24" height="39.1563" y="218.5011" stroke="none"/>
    </g>
    <g fill="rgb(166,166,178)" stroke-miterlimit="1.45" transform="matrix(1,0,0,1,207,134)" stroke-linecap="butt" stroke="rgb(166,166,178)">
      <rect fill="none" width="121.7" x="-179.24" height="39.1563" y="218.5011"/>
    </g>
    <g font-family="sans-serif" transform="matrix(1,0,0,1,207,134)">
      <text xml:space="preserve" x="-173.24" y="213.673" onclick="umlload('../../../../nde2/pull/types/package-summary.html')" stroke="none">nde2.pull.types</text>
    </g>
    <g fill="rgb(187,187,255)" transform="matrix(1,0,0,1,207,134)" stroke="rgb(187,187,255)">
      <rect x="-171.24" y="226.5324" clip-path="url(#clipPath5)" width="92.7" height="23.125" stroke="none"/>
    </g>
    <g fill="rgb(130,130,178)" stroke-miterlimit="1.45" transform="matrix(1,0,0,1,207,134)" stroke-linecap="butt" stroke="rgb(130,130,178)">
      <rect fill="none" width="92.7" x="-171.24" height="23.125" y="226.5324"/>
    </g>
    <g font-size="13" font-weight="bold" font-family="sans-serif" transform="matrix(1,0,0,1,207,134)">
      <text xml:space="preserve" x="-165.89" y="242.5949" onclick="umlload('../../../../nde2/pull/types/DateRange.html')" stroke="none">DateRange</text>
    </g>
    <g fill="rgb(238,238,255)" transform="matrix(1,0,0,1,207,134)" stroke="rgb(238,238,255)">
      <rect width="67.654" x="-206.5542" height="17.9688" y="61.125" stroke="none"/>
    </g>
    <g fill="rgb(166,166,178)" stroke-miterlimit="1.45" transform="matrix(1,0,0,1,207,134)" stroke-linecap="butt" stroke="rgb(166,166,178)">
      <rect fill="none" width="67.654" x="-206.5542" height="17.9688" y="61.125"/>
    </g>
    <g fill="rgb(238,238,255)" transform="matrix(1,0,0,1,207,134)" stroke="rgb(238,238,255)">
      <rect width="148.5542" x="-206.5542" height="91.4386" y="79.0938" stroke="none"/>
    </g>
    <g fill="rgb(166,166,178)" stroke-miterlimit="1.45" transform="matrix(1,0,0,1,207,134)" stroke-linecap="butt" stroke="rgb(166,166,178)">
      <rect fill="none" width="148.5542" x="-206.5542" height="91.4386" y="79.0938"/>
    </g>
    <g font-family="sans-serif" transform="matrix(1,0,0,1,207,134)">
      <text xml:space="preserve" x="-200.5542" y="74.2656" stroke="none">java.util</text>
    </g>
    <g fill="rgb(221,221,255)" transform="matrix(1,0,0,1,207,134)" stroke="rgb(221,221,255)">
      <rect x="-198.5542" y="87.125" clip-path="url(#clipPath6)" width="132.5542" height="32.7037" stroke="none"/>
    </g>
    <g fill="rgb(154,154,178)" stroke-miterlimit="1.45" transform="matrix(1,0,0,1,207,134)" stroke-linecap="butt" stroke="rgb(154,154,178)">
      <ellipse rx="66.2771" fill="none" ry="16.3518" cx="-132.2771" cy="103.4768"/>
    </g>
    <g font-style="italic" font-size="13" font-weight="bold" font-family="sans-serif" transform="matrix(1,0,0,1,207,134)">
      <text xml:space="preserve" x="-173.7771" y="107.9768" stroke="none">Map&lt;K, V&gt;</text>
    </g>
    <g fill="rgb(221,221,255)" transform="matrix(1,0,0,1,207,134)" stroke="rgb(221,221,255)">
      <rect x="-198.5542" y="129.8287" clip-path="url(#clipPath7)" width="91.7683" height="32.7037" stroke="none"/>
    </g>
    <g fill="rgb(154,154,178)" stroke-miterlimit="1.45" transform="matrix(1,0,0,1,207,134)" stroke-linecap="butt" stroke="rgb(154,154,178)">
      <ellipse rx="45.8842" fill="none" ry="16.3518" cx="-152.6701" cy="146.1805"/>
    </g>
    <g font-style="italic" font-size="13" font-weight="bold" font-family="sans-serif" transform="matrix(1,0,0,1,207,134)">
      <text xml:space="preserve" x="-180.1701" y="150.6805" stroke="none">Set&lt;E&gt;</text>
    </g>
    <g fill="rgb(238,238,255)" transform="matrix(1,0,0,1,207,134)" stroke="rgb(238,238,255)">
      <rect width="76.1412" x="-138.04" height="17.9688" y="-26" stroke="none"/>
    </g>
    <g fill="rgb(166,166,178)" stroke-miterlimit="1.45" transform="matrix(1,0,0,1,207,134)" stroke-linecap="butt" stroke="rgb(166,166,178)">
      <rect fill="none" width="76.1412" x="-138.04" height="17.9688" y="-26"/>
    </g>
    <g fill="rgb(238,238,255)" transform="matrix(1,0,0,1,207,134)" stroke="rgb(238,238,255)">
      <rect width="79.56" x="-138.04" height="39.1562" y="-8.0312" stroke="none"/>
    </g>
    <g fill="rgb(166,166,178)" stroke-miterlimit="1.45" transform="matrix(1,0,0,1,207,134)" stroke-linecap="butt" stroke="rgb(166,166,178)">
      <rect fill="none" width="79.56" x="-138.04" height="39.1562" y="-8.0312"/>
    </g>
    <g font-family="sans-serif" transform="matrix(1,0,0,1,207,134)">
      <text xml:space="preserve" x="-132.04" y="-12.8594" stroke="none">java.lang</text>
    </g>
    <g fill="rgb(187,187,255)" transform="matrix(1,0,0,1,207,134)" stroke="rgb(187,187,255)">
      <rect x="-130.04" y="0" clip-path="url(#clipPath8)" width="53.56" height="23.125" stroke="none"/>
    </g>
    <g fill="rgb(130,130,178)" stroke-miterlimit="1.45" transform="matrix(1,0,0,1,207,134)" stroke-linecap="butt" stroke="rgb(130,130,178)">
      <rect fill="none" width="53.56" x="-130.04" height="23.125" y="0"/>
    </g>
    <g font-size="13" font-weight="bold" font-family="sans-serif" transform="matrix(1,0,0,1,207,134)">
      <text xml:space="preserve" x="-125.26" y="16.0625" stroke="none">String</text>
    </g>
    <g fill="rgb(238,238,255)" transform="matrix(1,0,0,1,207,134)" stroke="rgb(238,238,255)">
      <rect width="217.2409" x="125.925" height="17.9688" y="-133.125" stroke="none"/>
    </g>
    <g fill="rgb(166,166,178)" stroke-miterlimit="1.45" transform="matrix(1,0,0,1,207,134)" stroke-linecap="butt" stroke="rgb(166,166,178)">
      <rect fill="none" width="217.2409" x="125.925" height="17.9688" y="-133.125"/>
    </g>
    <g fill="rgb(238,238,255)" transform="matrix(1,0,0,1,207,134)" stroke="rgb(238,238,255)">
      <rect width="217.2409" x="125.925" height="39.1562" y="-115.1562" stroke="none"/>
    </g>
    <g fill="rgb(166,166,178)" stroke-miterlimit="1.45" transform="matrix(1,0,0,1,207,134)" stroke-linecap="butt" stroke="rgb(166,166,178)">
      <rect fill="none" width="217.2409" x="125.925" height="39.1562" y="-115.1562"/>
    </g>
    <g font-family="sans-serif" transform="matrix(1,0,0,1,207,134)">
      <text xml:space="preserve" x="131.925" y="-119.9844" onclick="umlload('../../../../nde2/pull/methodcalls/delivery/package-summary.html')" stroke="none">nde2.pull.methodcalls.delivery</text>
    </g>
    <g fill="rgb(204,204,255)" transform="matrix(1,0,0,1,207,134)" stroke="rgb(204,204,255)">
      <rect x="151.925" y="-107.125" clip-path="url(#clipPath9)" width="154.5" height="23.125" stroke="none"/>
    </g>
    <g fill="rgb(142,142,178)" stroke-miterlimit="1.45" transform="matrix(1,0,0,1,207,134)" stroke-linecap="butt" stroke="rgb(142,142,178)">
      <rect fill="none" width="154.5" x="151.925" height="23.125" y="-107.125"/>
    </g>
    <g font-size="13" font-weight="bold" font-family="sans-serif" transform="matrix(1,0,0,1,207,134)">
      <text xml:space="preserve" x="158.175" y="-91.0625" onclick="umlload('../../../../nde2/pull/methodcalls/delivery/DeliveryMethodCall.html')" stroke="none">DeliveryMethodCall</text>
    </g>
    <g fill="rgb(238,238,255)" transform="matrix(1,0,0,1,207,134)" stroke="rgb(238,238,255)">
      <rect width="217.2409" x="-8" height="17.9688" y="-26" stroke="none"/>
    </g>
    <g fill="rgb(166,166,178)" stroke-miterlimit="1.45" transform="matrix(1,0,0,1,207,134)" stroke-linecap="butt" stroke="rgb(166,166,178)">
      <rect fill="none" width="217.2409" x="-8" height="17.9688" y="-26"/>
    </g>
    <g fill="rgb(238,238,255)" transform="matrix(1,0,0,1,207,134)" stroke="rgb(238,238,255)">
      <rect width="474.35" x="-8" height="412.9531" y="-8.0312" stroke="none"/>
    </g>
    <g fill="rgb(166,166,178)" stroke-miterlimit="1.45" transform="matrix(1,0,0,1,207,134)" stroke-linecap="butt" stroke="rgb(166,166,178)">
      <rect fill="none" width="474.35" x="-8" height="412.9531" y="-8.0312"/>
    </g>
    <g font-family="sans-serif" transform="matrix(1,0,0,1,207,134)">
      <text xml:space="preserve" x="-2" y="-12.8594" onclick="umlload('package-summary.html')" stroke="none">nde2.pull.methodcalls.delivery</text>
    </g>
    <g fill="rgb(187,187,255)" transform="matrix(1,0,0,1,207,134)" stroke="rgb(187,187,255)">
      <rect x="0" y="0" clip-path="url(#clipPath10)" width="458.35" height="26.6406" stroke="none"/>
      <line clip-path="url(#clipPath10)" fill="none" x1="0" x2="458.35" y1="26.6406" y2="26.6406" stroke="black"/>
      <rect x="0" y="27.6406" clip-path="url(#clipPath10)" width="458.35" height="47.9062" stroke="none"/>
      <line clip-path="url(#clipPath10)" fill="none" x1="0" x2="458.35" y1="75.5469" y2="75.5469" stroke="black"/>
      <rect x="0" y="76.5469" clip-path="url(#clipPath10)" width="458.35" height="15.9688" stroke="none"/>
      <line clip-path="url(#clipPath10)" fill="none" x1="0" x2="458.35" y1="92.5156" y2="92.5156" stroke="black"/>
      <rect x="0" y="93.5156" clip-path="url(#clipPath10)" width="458.35" height="303.4062" stroke="none"/>
    </g>
    <g fill="rgb(130,130,178)" stroke-miterlimit="1.45" transform="matrix(1,0,0,1,207,134)" stroke-linecap="butt" stroke="rgb(130,130,178)">
      <rect fill="none" width="458.35" x="0" height="396.9219" y="0"/>
    </g>
    <g font-size="16" font-weight="bold" font-family="sans-serif" transform="matrix(1,0,0,1,207,134)">
      <text xml:space="preserve" x="184.675" y="18.8594" onclick="umlload('#')" stroke="none">GetTables</text>
    </g>
    <g font-family="sans-serif" transform="matrix(1,0,0,1,207,134)">
      <text xml:space="preserve" x="4" y="38.1719" stroke="none">#</text>
      <text xml:space="preserve" x="19" y="39.7812" onclick="umlload('#areas')" stroke="none">areas : Set&lt;Area&gt;</text>
    </g>
    <g font-family="sans-serif" transform="matrix(1,0,0,1,207,134)">
      <text xml:space="preserve" x="4" y="54.1719" stroke="none">#</text>
      <text xml:space="preserve" x="19" y="55.75" onclick="umlload('#datasetFamilies')" stroke="none">datasetFamilies : Set&lt;DataSetFamily&gt;</text>
    </g>
    <g font-family="sans-serif" transform="matrix(1,0,0,1,207,134)">
      <text xml:space="preserve" x="4" y="70.1719" stroke="none">#</text>
      <text xml:space="preserve" x="19" y="71.7188" onclick="umlload('#dateRange')" stroke="none">dateRange : DateRange</text>
    </g>
    <g font-family="sans-serif" transform="matrix(1,0,0,1,207,134)">
      <text xml:space="preserve" x="4" y="87.1719" stroke="none">+</text>
      <text xml:space="preserve" x="19" y="88.6875" onclick="umlload('#GetTables()')" stroke="none">GetTables()</text>
    </g>
    <g font-family="sans-serif" transform="matrix(1,0,0,1,207,134)">
      <text xml:space="preserve" x="4" y="104.1719" stroke="none">#</text>
      <text xml:space="preserve" x="19" y="105.6562" onclick="umlload('#collectAreasToParams(java.util.Map)')" stroke="none">collectAreasToParams(Map&lt;String, String&gt;) : void</text>
    </g>
    <g font-family="sans-serif" transform="matrix(1,0,0,1,207,134)">
      <text xml:space="preserve" x="4" y="120.1719" stroke="none">#</text>
      <text xml:space="preserve" x="19" y="121.625" onclick="umlload('#collectDatasetFamiliesToParams(java.util.Map)')" stroke="none">collectDatasetFamiliesToParams(Map&lt;String, String&gt;) : void</text>
    </g>
    <g font-family="sans-serif" transform="matrix(1,0,0,1,207,134)">
      <text xml:space="preserve" x="4" y="136.1719" stroke="none">#</text>
      <text xml:space="preserve" x="19" y="137.5938" onclick="umlload('#collectDateRangeToParams(java.util.Map)')" stroke="none">collectDateRangeToParams(Map&lt;String, String&gt;) : void</text>
    </g>
    <g font-family="sans-serif" transform="matrix(1,0,0,1,207,134)">
      <text xml:space="preserve" x="4" y="152.1719" stroke="none">#</text>
      <text xml:space="preserve" x="19" y="153.5625" onclick="umlload('#collectParams()')" stroke="none">collectParams() : Map&lt;String, String&gt;</text>
    </g>
    <g font-family="sans-serif" transform="matrix(1,0,0,1,207,134)">
      <text xml:space="preserve" x="4" y="168.1719" stroke="none">+</text>
      <text xml:space="preserve" x="19" y="169.5312" onclick="umlload('#execute()')" stroke="none">execute() : Set&lt;Dataset&gt;</text>
    </g>
    <g font-family="sans-serif" transform="matrix(1,0,0,1,207,134)">
      <text xml:space="preserve" x="4" y="184.1719" stroke="none">#</text>
      <text xml:space="preserve" x="19" y="185.5" onclick="umlload('#execute(java.util.Map)')" stroke="none">execute(Map&lt;String, String&gt;) : XmlPullParser</text>
    </g>
    <g font-family="sans-serif" transform="matrix(1,0,0,1,207,134)">
      <text xml:space="preserve" x="4" y="200.1719" stroke="none">+</text>
      <text xml:space="preserve" x="19" y="201.4688" onclick="umlload('#forArea(nde2.pull.types.Area)')" stroke="none">forArea(Area) : GetTables</text>
    </g>
    <g font-family="sans-serif" transform="matrix(1,0,0,1,207,134)">
      <text xml:space="preserve" x="4" y="216.1719" stroke="none">+</text>
      <text xml:space="preserve" x="19" y="217.4375" onclick="umlload('#forAreas(java.util.Collection)')" stroke="none">forAreas(Collection&lt;Area&gt;) : GetTables</text>
    </g>
    <g font-family="sans-serif" transform="matrix(1,0,0,1,207,134)">
      <text xml:space="preserve" x="4" y="232.1719" stroke="none">+</text>
      <text xml:space="preserve" x="19" y="233.4062" onclick="umlload('#forAreas(nde2.pull.types.Area...)')" stroke="none">forAreas(Area...) : GetTables</text>
    </g>
    <g font-family="sans-serif" transform="matrix(1,0,0,1,207,134)">
      <text xml:space="preserve" x="4" y="248.1719" stroke="none">+</text>
      <text xml:space="preserve" x="19" y="249.375" onclick="umlload('#inDateRange(nde2.pull.types.DateRange)')" stroke="none">inDateRange(DateRange) : GetTables</text>
    </g>
    <g font-family="sans-serif" transform="matrix(1,0,0,1,207,134)">
      <text xml:space="preserve" x="4" y="264.1719" stroke="none">+</text>
      <text xml:space="preserve" x="19" y="265.3438" onclick="umlload('#inFamilies(java.util.Collection)')" stroke="none">inFamilies(Collection&lt;DataSetFamily&gt;) : GetTables</text>
    </g>
    <g font-family="sans-serif" transform="matrix(1,0,0,1,207,134)">
      <text xml:space="preserve" x="4" y="280.1719" stroke="none">+</text>
      <text xml:space="preserve" x="19" y="281.3125" onclick="umlload('#inFamilies(nde2.pull.types.DataSetFamily...)')" stroke="none">inFamilies(DataSetFamily...) : GetTables</text>
    </g>
    <g font-family="sans-serif" transform="matrix(1,0,0,1,207,134)">
      <text xml:space="preserve" x="4" y="296.1719" stroke="none">+</text>
      <text xml:space="preserve" x="19" y="297.2812" onclick="umlload('#inFamily(nde2.pull.types.DataSetFamily)')" stroke="none">inFamily(DataSetFamily) : GetTables</text>
    </g>
    <g font-family="sans-serif" transform="matrix(1,0,0,1,207,134)">
      <text xml:space="preserve" x="4" y="312.1719" stroke="none">#</text>
      <text xml:space="preserve" x="19" y="313.25" onclick="umlload('#processBoundaries(XmlPullParser)')" stroke="none">processBoundaries(XmlPullParser) : Map&lt;Integer, Boundary&gt;</text>
    </g>
    <g font-family="sans-serif" transform="matrix(1,0,0,1,207,134)">
      <text xml:space="preserve" x="4" y="328.1719" stroke="none">#</text>
      <text xml:space="preserve" x="19" y="329.2188" onclick="umlload('#processDataCubeResponseElement(XmlPullParser)')" stroke="none">processDataCubeResponseElement(XmlPullParser) : Set&lt;Dataset&gt;</text>
    </g>
    <g font-family="sans-serif" transform="matrix(1,0,0,1,207,134)">
      <text xml:space="preserve" x="4" y="344.1719" stroke="none">#</text>
      <text xml:space="preserve" x="19" y="345.1875" onclick="umlload('#processItems(XmlPullParser)')" stroke="none">processItems(XmlPullParser) : Set&lt;DataSetItem&gt;</text>
    </g>
    <g font-family="sans-serif" transform="matrix(1,0,0,1,207,134)">
      <text xml:space="preserve" x="4" y="360.1719" stroke="none">#</text>
      <text xml:space="preserve" x="19" y="361.1562" onclick="umlload('#processPeriods(XmlPullParser)')" stroke="none">processPeriods(XmlPullParser) : Map&lt;Integer, Period&gt;</text>
    </g>
    <g font-family="sans-serif" transform="matrix(1,0,0,1,207,134)">
      <text xml:space="preserve" x="4" y="375.1719" stroke="none">#</text>
      <text xml:space="preserve" x="19" y="377.125" onclick="umlload('#processTopics(XmlPullParser)')" stroke="none">processTopics(XmlPullParser) : Map&lt;Integer, Topic&gt;</text>
    </g>
    <g font-family="sans-serif" transform="matrix(1,0,0,1,207,134)">
      <text xml:space="preserve" x="4" y="391.1719" stroke="none">+</text>
      <text xml:space="preserve" x="19" y="393.0938" onclick="umlload('#toURLString()')" stroke="none">toURLString() : String</text>
    </g>
    <g font-family="sans-serif" transform="matrix(1,0,0,1,207,134)">
      <text xml:space="preserve" x="-201" y="429.1562" onclick="umlload('http://www.yworks.com/')" stroke="none">yWorks UML Doclet</text>
    </g>
    <g stroke-miterlimit="1.45" transform="matrix(1,0,0,1,207,134)" stroke-linecap="butt">
      <path fill="none" d="M229.175 0 L229.175 -69"/>
      <path fill="white" d="M229.175 -84 L223.175 -68 L235.175 -68 Z" stroke="none"/>
      <path fill="none" d="M229.175 -84 L223.175 -68 L235.175 -68 Z"/>
      <path fill="none" d="M0.0172 11.5625 L-76.48 11.5625"/>
      <line stroke-linecap="square" transform="matrix(-1,0,0,-1,-76.48,11.5625)" fill="none" x1="0" x2="-14" y1="0" y2="-4" stroke-miterlimit="10"/>
      <line stroke-linecap="square" transform="matrix(-1,0,0,-1,-76.48,11.5625)" fill="none" x1="0" x2="-14" y1="0" y2="4" stroke-miterlimit="10"/>
    </g>
    <g stroke-miterlimit="1.45" transform="matrix(1,0,0,1,207,134)" stroke-linecap="butt">
      <path fill="none" d="M-0.0418 103.4768 L-66 103.4768"/>
      <line stroke-linecap="square" transform="matrix(-1,0,0,-1,-66,103.4768)" fill="none" x1="0" x2="-14" y1="0" y2="-4" stroke-miterlimit="10"/>
      <line stroke-linecap="square" transform="matrix(-1,0,0,-1,-66,103.4768)" fill="none" x1="0" x2="-14" y1="0" y2="4" stroke-miterlimit="10"/>
    </g>
    <g stroke-miterlimit="1.45" transform="matrix(1,0,0,1,207,134)" stroke-linecap="butt">
      <path fill="none" d="M-0.0159 146.1805 L-106.7859 146.1805"/>
      <line stroke-linecap="square" transform="matrix(-1,0,0,-1,-106.7859,146.1805)" fill="none" x1="0" x2="-14" y1="0" y2="-4" stroke-miterlimit="10"/>
      <line stroke-linecap="square" transform="matrix(-1,0,0,-1,-106.7859,146.1805)" fill="none" x1="0" x2="-14" y1="0" y2="4" stroke-miterlimit="10"/>
    </g>
    <g stroke-miterlimit="1.45" transform="matrix(1,0,0,1,207,134)" stroke-linecap="butt">
      <path fill="none" d="M-0.025 238.0949 L-78.54 238.0949"/>
      <line stroke-linecap="square" transform="matrix(-1,0,0,-1,-78.54,238.0949)" fill="none" x1="0" x2="-14" y1="0" y2="-4" stroke-miterlimit="10"/>
      <line stroke-linecap="square" transform="matrix(-1,0,0,-1,-78.54,238.0949)" fill="none" x1="0" x2="-14" y1="0" y2="4" stroke-miterlimit="10"/>
    </g>
    <g stroke-dasharray="6,2" stroke-miterlimit="1.45" transform="matrix(1,0,0,1,207,134)" stroke-linecap="butt">
      <path fill="none" d="M458.3572 16.3518 L524.35 16.3518"/>
      <line stroke-linecap="square" transform="matrix(1,0,0,1,524.35,16.3518)" fill="none" x1="0" x2="-14" y1="0" y2="-4" stroke-dasharray="none" stroke-miterlimit="10"/>
      <line stroke-linecap="square" transform="matrix(1,0,0,1,524.35,16.3518)" fill="none" x1="0" x2="-14" y1="0" y2="4" stroke-dasharray="none" stroke-miterlimit="10"/>
    </g>
    <g stroke-dasharray="6,2" stroke-miterlimit="1.45" transform="matrix(1,0,0,1,207,134)" stroke-linecap="butt">
      <path fill="none" d="M458.3868 108.2662 L524.35 108.2662"/>
      <line stroke-linecap="square" transform="matrix(1,0,0,1,524.35,108.2662)" fill="none" x1="0" x2="-14" y1="0" y2="-4" stroke-dasharray="none" stroke-miterlimit="10"/>
      <line stroke-linecap="square" transform="matrix(1,0,0,1,524.35,108.2662)" fill="none" x1="0" x2="-14" y1="0" y2="4" stroke-dasharray="none" stroke-miterlimit="10"/>
    </g>
    <g stroke-dasharray="6,2" stroke-miterlimit="1.45" transform="matrix(1,0,0,1,207,134)" stroke-linecap="butt">
      <path fill="none" d="M458.3323 141.3912 L524.35 141.3912"/>
      <line stroke-linecap="square" transform="matrix(1,0,0,1,524.35,141.3912)" fill="none" x1="0" x2="-14" y1="0" y2="-4" stroke-dasharray="none" stroke-miterlimit="10"/>
      <line stroke-linecap="square" transform="matrix(1,0,0,1,524.35,141.3912)" fill="none" x1="0" x2="-14" y1="0" y2="4" stroke-dasharray="none" stroke-miterlimit="10"/>
    </g>
  </g>
</svg>
