<?xml version="1.0" encoding="UTF-8"?>
<svg xmlns="http://www.w3.org/2000/svg" xmlns:xlink="http://www.w3.org/1999/xlink" fill-opacity="1" color-rendering="auto" color-interpolation="auto" stroke="black" text-rendering="auto" stroke-linecap="square" width="512" stroke-miterlimit="10" stroke-opacity="1" shape-rendering="auto" fill="black" stroke-dasharray="none" font-weight="normal" stroke-width="1" height="243" font-family="'Dialog'" font-style="normal" stroke-linejoin="miter" font-size="12" stroke-dashoffset="0" image-rendering="auto">
  <!--Generated by ySVG-->
  <defs id="genericDefs"/>
  <g>
    <defs id="defs1">
      <clipPath clipPathUnits="userSpaceOnUse" id="clipPath1">
        <path d="M0 0 L512 0 L512 243 L0 243 L0 0 Z"/>
      </clipPath>
      <clipPath clipPathUnits="userSpaceOnUse" id="clipPath2">
        <path d="M495.4316 16.3518 C495.4316 25.3827 474.2364 32.7037 448.0908 32.7037 C421.9452 32.7037 400.75 25.3827 400.75 16.3518 C400.75 7.321 421.9452 0 448.0908 0 C474.2364 0 495.4316 7.321 495.4316 16.3518 Z"/>
      </clipPath>
      <clipPath clipPathUnits="userSpaceOnUse" id="clipPath3">
        <path d="M213.9875 -100.3518 C213.9875 -91.321 193.1184 -84 167.375 -84 C141.6316 -84 120.7625 -91.321 120.7625 -100.3518 C120.7625 -109.3827 141.6316 -116.7037 167.375 -116.7037 C193.1184 -116.7037 213.9875 -109.3827 213.9875 -100.3518 Z"/>
      </clipPath>
      <clipPath clipPathUnits="userSpaceOnUse" id="clipPath4">
        <path d="M0 0 L334.75 0 L334.75 56.5781 L0 56.5781 L0 0 Z"/>
      </clipPath>
      <script type="text/ecmascript"><![CDATA[
function umlload(newLocation)
{
if (newLocation.charAt(0) != '#') {
if (newLocation.indexOf("://") > -1) {
window.parent.location.href = newLocation;
} else {
var tmp = window.parent.location.href;
tmp = tmp.substring(0, tmp.lastIndexOf("/") + 1);
window.parent.location.href = tmp.concat(newLocation);
}
} else {
window.parent.location.hash = newLocation;
}
}
]]></script>
    </defs>
    <g fill="rgb(238,238,255)" transform="matrix(1,0,0,1,8,143)" stroke="rgb(238,238,255)">
      <rect width="67.654" x="392.75" height="17.9688" y="-26" stroke="none"/>
    </g>
    <g fill="rgb(166,166,178)" stroke-miterlimit="1.45" transform="matrix(1,0,0,1,8,143)" stroke-linecap="butt" stroke="rgb(166,166,178)">
      <rect fill="none" width="67.654" x="392.75" height="17.9688" y="-26"/>
    </g>
    <g fill="rgb(238,238,255)" transform="matrix(1,0,0,1,8,143)" stroke="rgb(238,238,255)">
      <rect width="110.6816" x="392.75" height="48.7349" y="-8.0312" stroke="none"/>
    </g>
    <g fill="rgb(166,166,178)" stroke-miterlimit="1.45" transform="matrix(1,0,0,1,8,143)" stroke-linecap="butt" stroke="rgb(166,166,178)">
      <rect fill="none" width="110.6816" x="392.75" height="48.7349" y="-8.0312"/>
    </g>
    <g font-family="sans-serif" transform="matrix(1,0,0,1,8,143)">
      <text xml:space="preserve" x="398.75" y="-12.8594" stroke="none">java.util</text>
    </g>
    <g fill="rgb(221,221,255)" transform="matrix(1,0,0,1,8,143)" stroke="rgb(221,221,255)">
      <rect x="400.75" y="0" clip-path="url(#clipPath2)" width="94.6816" height="32.7037" stroke="none"/>
    </g>
    <g fill="rgb(154,154,178)" stroke-miterlimit="1.45" transform="matrix(1,0,0,1,8,143)" stroke-linecap="butt" stroke="rgb(154,154,178)">
      <ellipse rx="47.3408" fill="none" ry="16.3518" cx="448.0908" cy="16.3518"/>
    </g>
    <g font-style="italic" font-size="13" font-weight="bold" font-family="sans-serif" transform="matrix(1,0,0,1,8,143)">
      <text xml:space="preserve" x="419.5908" y="20.8518" stroke="none">List&lt;E&gt;</text>
    </g>
    <g fill="rgb(238,238,255)" transform="matrix(1,0,0,1,8,143)" stroke="rgb(238,238,255)">
      <rect width="180.1094" x="81.7625" height="17.9688" y="-142.7037" stroke="none"/>
    </g>
    <g fill="rgb(166,166,178)" stroke-miterlimit="1.45" transform="matrix(1,0,0,1,8,143)" stroke-linecap="butt" stroke="rgb(166,166,178)">
      <rect fill="none" width="180.1094" x="81.7625" height="17.9688" y="-142.7037"/>
    </g>
    <g fill="rgb(238,238,255)" transform="matrix(1,0,0,1,8,143)" stroke="rgb(238,238,255)">
      <rect width="180.225" x="81.7625" height="48.7349" y="-124.7349" stroke="none"/>
    </g>
    <g fill="rgb(166,166,178)" stroke-miterlimit="1.45" transform="matrix(1,0,0,1,8,143)" stroke-linecap="butt" stroke="rgb(166,166,178)">
      <rect fill="none" width="180.225" x="81.7625" height="48.7349" y="-124.7349"/>
    </g>
    <g font-family="sans-serif" transform="matrix(1,0,0,1,8,143)">
      <text xml:space="preserve" x="87.7625" y="-129.5631" onclick="umlload('../../../lamparski/areabase/utils/package-summary.html')" stroke="none">lamparski.areabase.utils</text>
    </g>
    <g fill="rgb(221,221,255)" transform="matrix(1,0,0,1,8,143)" stroke="rgb(221,221,255)">
      <rect x="120.7625" y="-116.7037" clip-path="url(#clipPath3)" width="93.225" height="32.7037" stroke="none"/>
    </g>
    <g fill="rgb(154,154,178)" stroke-miterlimit="1.45" transform="matrix(1,0,0,1,8,143)" stroke-linecap="butt" stroke="rgb(154,154,178)">
      <ellipse rx="46.6125" fill="none" ry="16.3518" cx="167.375" cy="-100.3518"/>
    </g>
    <g font-style="italic" font-size="13" font-weight="bold" font-family="sans-serif" transform="matrix(1,0,0,1,8,143)">
      <text xml:space="preserve" x="139.375" y="-95.8518" onclick="umlload('../../../lamparski/areabase/utils/OnError.html')" stroke="none">OnError</text>
    </g>
    <g fill="rgb(238,238,255)" transform="matrix(1,0,0,1,8,143)" stroke="rgb(238,238,255)">
      <rect width="206.6319" x="-8" height="17.9688" y="-26" stroke="none"/>
    </g>
    <g fill="rgb(166,166,178)" stroke-miterlimit="1.45" transform="matrix(1,0,0,1,8,143)" stroke-linecap="butt" stroke="rgb(166,166,178)">
      <rect fill="none" width="206.6319" x="-8" height="17.9688" y="-26"/>
    </g>
    <g fill="rgb(238,238,255)" transform="matrix(1,0,0,1,8,143)" stroke="rgb(238,238,255)">
      <rect width="350.75" x="-8" height="72.6094" y="-8.0312" stroke="none"/>
    </g>
    <g fill="rgb(166,166,178)" stroke-miterlimit="1.45" transform="matrix(1,0,0,1,8,143)" stroke-linecap="butt" stroke="rgb(166,166,178)">
      <rect fill="none" width="350.75" x="-8" height="72.6094" y="-8.0312"/>
    </g>
    <g font-family="sans-serif" transform="matrix(1,0,0,1,8,143)">
      <text xml:space="preserve" x="-2" y="-12.8594" onclick="umlload('package-summary.html')" stroke="none">lamparski.areabase.services</text>
    </g>
    <g fill="rgb(221,221,255)" transform="matrix(1,0,0,1,8,143)" stroke="rgb(221,221,255)">
      <rect x="0" y="0" clip-path="url(#clipPath4)" width="334.75" height="38.6094" stroke="none"/>
      <line clip-path="url(#clipPath4)" fill="none" x1="0" x2="334.75" y1="38.6094" y2="38.6094" stroke="black"/>
      <line clip-path="url(#clipPath4)" x1="0" x2="334.75" y1="39.6094" y2="39.6094" stroke="none"/>
      <line clip-path="url(#clipPath4)" fill="none" x1="0" x2="334.75" y1="39.6094" y2="39.6094" stroke="black"/>
      <rect x="0" y="40.6094" clip-path="url(#clipPath4)" width="334.75" height="15.9688" stroke="none"/>
    </g>
    <g fill="rgb(154,154,178)" stroke-miterlimit="1.45" transform="matrix(1,0,0,1,8,143)" stroke-linecap="butt" stroke="rgb(154,154,178)">
      <rect fill="none" width="334.75" x="0" height="56.5781" y="0"/>
    </g>
    <g font-style="italic" font-size="16" font-weight="bold" font-family="sans-serif" transform="matrix(1,0,0,1,8,143)">
      <text xml:space="preserve" x="8.875" y="32.8281" onclick="umlload('#')" stroke="none">AreaDataService.AreaListCallbacks</text>
    </g>
    <g font-family="sans-serif" transform="matrix(1,0,0,1,8,143)">
      <text xml:space="preserve" x="132.375" y="13.1406" stroke="none">«interface»</text>
    </g>
    <g font-family="sans-serif" transform="matrix(1,0,0,1,8,143)">
      <text xml:space="preserve" x="4" y="51.1719" stroke="none">+</text>
      <text xml:space="preserve" x="19" y="52.75" onclick="umlload('#areasReady(java.util.List)')" stroke="none">areasReady(List&lt;Area&gt;) : void</text>
    </g>
    <g font-family="sans-serif" transform="matrix(1,0,0,1,8,143)">
      <text xml:space="preserve" x="-2" y="89.1562" onclick="umlload('http://www.yworks.com/')" stroke="none">yWorks UML Doclet</text>
    </g>
    <g stroke-miterlimit="1.45" transform="matrix(1,0,0,1,8,143)" stroke-linecap="butt">
      <path fill="none" d="M167.375 0 L167.375 -69"/>
      <path fill="white" d="M167.375 -84 L161.375 -68 L173.375 -68 Z" stroke="none"/>
      <path fill="none" d="M167.375 -84 L161.375 -68 L173.375 -68 Z"/>
      <path fill="none" stroke-dasharray="6,2" d="M334.7696 16.3518 L400.75 16.3518"/>
      <line stroke-linecap="square" transform="matrix(1,0,0,1,400.75,16.3518)" fill="none" x1="0" x2="-14" y1="0" y2="-4" stroke-miterlimit="10"/>
      <line stroke-linecap="square" transform="matrix(1,0,0,1,400.75,16.3518)" fill="none" x1="0" x2="-14" y1="0" y2="4" stroke-miterlimit="10"/>
    </g>
  </g>
</svg>
