<?xml version="1.0" encoding="UTF-8"?>
<svg xmlns="http://www.w3.org/2000/svg" xmlns:xlink="http://www.w3.org/1999/xlink" fill-opacity="1" color-rendering="auto" color-interpolation="auto" stroke="black" text-rendering="auto" stroke-linecap="square" width="610" stroke-miterlimit="10" stroke-opacity="1" shape-rendering="auto" fill="black" stroke-dasharray="none" font-weight="normal" stroke-width="1" height="259" font-family="'Dialog'" font-style="normal" stroke-linejoin="miter" font-size="12" stroke-dashoffset="0" image-rendering="auto">
  <!--Generated by ySVG-->
  <defs id="genericDefs"/>
  <g>
    <defs id="defs1">
      <clipPath clipPathUnits="userSpaceOnUse" id="clipPath1">
        <path d="M0 0 L610 0 L610 259 L0 259 L0 0 Z"/>
      </clipPath>
      <clipPath clipPathUnits="userSpaceOnUse" id="clipPath2">
        <path d="M593.0443 16.3518 C593.0443 25.3827 563.371 32.7037 526.7671 32.7037 C490.1633 32.7037 460.49 25.3827 460.49 16.3518 C460.49 7.321 490.1633 0 526.7671 0 C563.371 0 593.0443 7.321 593.0443 16.3518 Z"/>
      </clipPath>
      <clipPath clipPathUnits="userSpaceOnUse" id="clipPath3">
        <path d="M243.8575 -100.3518 C243.8575 -91.321 222.9884 -84 197.245 -84 C171.5016 -84 150.6325 -91.321 150.6325 -100.3518 C150.6325 -109.3827 171.5016 -116.7037 197.245 -116.7037 C222.9884 -116.7037 243.8575 -109.3827 243.8575 -100.3518 Z"/>
      </clipPath>
      <clipPath clipPathUnits="userSpaceOnUse" id="clipPath4">
        <path d="M0 0 L394.49 0 L394.49 72.5469 L0 72.5469 L0 0 Z"/>
      </clipPath>
      <script type="text/ecmascript"><![CDATA[
function umlload(newLocation)
{
if (newLocation.charAt(0) != '#') {
if (newLocation.indexOf("://") > -1) {
window.parent.location.href = newLocation;
} else {
var tmp = window.parent.location.href;
tmp = tmp.substring(0, tmp.lastIndexOf("/") + 1);
window.parent.location.href = tmp.concat(newLocation);
}
} else {
window.parent.location.hash = newLocation;
}
}
]]></script>
    </defs>
    <g fill="rgb(238,238,255)" transform="matrix(1,0,0,1,8,143)" stroke="rgb(238,238,255)">
      <rect width="67.654" x="452.49" height="17.9688" y="-26" stroke="none"/>
    </g>
    <g fill="rgb(166,166,178)" stroke-miterlimit="1.45" transform="matrix(1,0,0,1,8,143)" stroke-linecap="butt" stroke="rgb(166,166,178)">
      <rect fill="none" width="67.654" x="452.49" height="17.9688" y="-26"/>
    </g>
    <g fill="rgb(238,238,255)" transform="matrix(1,0,0,1,8,143)" stroke="rgb(238,238,255)">
      <rect width="148.5542" x="452.49" height="48.7349" y="-8.0312" stroke="none"/>
    </g>
    <g fill="rgb(166,166,178)" stroke-miterlimit="1.45" transform="matrix(1,0,0,1,8,143)" stroke-linecap="butt" stroke="rgb(166,166,178)">
      <rect fill="none" width="148.5542" x="452.49" height="48.7349" y="-8.0312"/>
    </g>
    <g font-family="sans-serif" transform="matrix(1,0,0,1,8,143)">
      <text xml:space="preserve" x="458.49" y="-12.8594" stroke="none">java.util</text>
    </g>
    <g fill="rgb(221,221,255)" transform="matrix(1,0,0,1,8,143)" stroke="rgb(221,221,255)">
      <rect x="460.49" y="0" clip-path="url(#clipPath2)" width="132.5542" height="32.7037" stroke="none"/>
    </g>
    <g fill="rgb(154,154,178)" stroke-miterlimit="1.45" transform="matrix(1,0,0,1,8,143)" stroke-linecap="butt" stroke="rgb(154,154,178)">
      <ellipse rx="66.2771" fill="none" ry="16.3518" cx="526.7671" cy="16.3518"/>
    </g>
    <g font-style="italic" font-size="13" font-weight="bold" font-family="sans-serif" transform="matrix(1,0,0,1,8,143)">
      <text xml:space="preserve" x="485.2671" y="20.8518" stroke="none">Map&lt;K, V&gt;</text>
    </g>
    <g fill="rgb(238,238,255)" transform="matrix(1,0,0,1,8,143)" stroke="rgb(238,238,255)">
      <rect width="180.1094" x="111.6325" height="17.9688" y="-142.7037" stroke="none"/>
    </g>
    <g fill="rgb(166,166,178)" stroke-miterlimit="1.45" transform="matrix(1,0,0,1,8,143)" stroke-linecap="butt" stroke="rgb(166,166,178)">
      <rect fill="none" width="180.1094" x="111.6325" height="17.9688" y="-142.7037"/>
    </g>
    <g fill="rgb(238,238,255)" transform="matrix(1,0,0,1,8,143)" stroke="rgb(238,238,255)">
      <rect width="180.225" x="111.6325" height="48.7349" y="-124.7349" stroke="none"/>
    </g>
    <g fill="rgb(166,166,178)" stroke-miterlimit="1.45" transform="matrix(1,0,0,1,8,143)" stroke-linecap="butt" stroke="rgb(166,166,178)">
      <rect fill="none" width="180.225" x="111.6325" height="48.7349" y="-124.7349"/>
    </g>
    <g font-family="sans-serif" transform="matrix(1,0,0,1,8,143)">
      <text xml:space="preserve" x="117.6325" y="-129.5631" onclick="umlload('../../../lamparski/areabase/utils/package-summary.html')" stroke="none">lamparski.areabase.utils</text>
    </g>
    <g fill="rgb(221,221,255)" transform="matrix(1,0,0,1,8,143)" stroke="rgb(221,221,255)">
      <rect x="150.6325" y="-116.7037" clip-path="url(#clipPath3)" width="93.225" height="32.7037" stroke="none"/>
    </g>
    <g fill="rgb(154,154,178)" stroke-miterlimit="1.45" transform="matrix(1,0,0,1,8,143)" stroke-linecap="butt" stroke="rgb(154,154,178)">
      <ellipse rx="46.6125" fill="none" ry="16.3518" cx="197.245" cy="-100.3518"/>
    </g>
    <g font-style="italic" font-size="13" font-weight="bold" font-family="sans-serif" transform="matrix(1,0,0,1,8,143)">
      <text xml:space="preserve" x="169.245" y="-95.8518" onclick="umlload('../../../lamparski/areabase/utils/OnError.html')" stroke="none">OnError</text>
    </g>
    <g fill="rgb(238,238,255)" transform="matrix(1,0,0,1,8,143)" stroke="rgb(238,238,255)">
      <rect width="206.6319" x="-8" height="17.9688" y="-26" stroke="none"/>
    </g>
    <g fill="rgb(166,166,178)" stroke-miterlimit="1.45" transform="matrix(1,0,0,1,8,143)" stroke-linecap="butt" stroke="rgb(166,166,178)">
      <rect fill="none" width="206.6319" x="-8" height="17.9688" y="-26"/>
    </g>
    <g fill="rgb(238,238,255)" transform="matrix(1,0,0,1,8,143)" stroke="rgb(238,238,255)">
      <rect width="410.49" x="-8" height="88.5781" y="-8.0312" stroke="none"/>
    </g>
    <g fill="rgb(166,166,178)" stroke-miterlimit="1.45" transform="matrix(1,0,0,1,8,143)" stroke-linecap="butt" stroke="rgb(166,166,178)">
      <rect fill="none" width="410.49" x="-8" height="88.5781" y="-8.0312"/>
    </g>
    <g font-family="sans-serif" transform="matrix(1,0,0,1,8,143)">
      <text xml:space="preserve" x="-2" y="-12.8594" onclick="umlload('package-summary.html')" stroke="none">lamparski.areabase.services</text>
    </g>
    <g fill="rgb(221,221,255)" transform="matrix(1,0,0,1,8,143)" stroke="rgb(221,221,255)">
      <rect x="0" y="0" clip-path="url(#clipPath4)" width="394.49" height="38.6094" stroke="none"/>
      <line clip-path="url(#clipPath4)" fill="none" x1="0" x2="394.49" y1="38.6094" y2="38.6094" stroke="black"/>
      <line clip-path="url(#clipPath4)" x1="0" x2="394.49" y1="39.6094" y2="39.6094" stroke="none"/>
      <line clip-path="url(#clipPath4)" fill="none" x1="0" x2="394.49" y1="39.6094" y2="39.6094" stroke="black"/>
      <rect x="0" y="40.6094" clip-path="url(#clipPath4)" width="394.49" height="31.9375" stroke="none"/>
    </g>
    <g fill="rgb(154,154,178)" stroke-miterlimit="1.45" transform="matrix(1,0,0,1,8,143)" stroke-linecap="butt" stroke="rgb(154,154,178)">
      <rect fill="none" width="394.49" x="0" height="72.5469" y="0"/>
    </g>
    <g font-style="italic" font-size="16" font-weight="bold" font-family="sans-serif" transform="matrix(1,0,0,1,8,143)">
      <text xml:space="preserve" x="37.245" y="32.8281" onclick="umlload('#')" stroke="none">AreaDataService.SubjectDumpIface</text>
    </g>
    <g font-family="sans-serif" transform="matrix(1,0,0,1,8,143)">
      <text xml:space="preserve" x="162.245" y="13.1406" stroke="none">«interface»</text>
    </g>
    <g font-family="sans-serif" transform="matrix(1,0,0,1,8,143)">
      <text xml:space="preserve" x="4" y="51.1719" stroke="none">+</text>
      <text xml:space="preserve" x="19" y="52.75" onclick="umlload('#onProgress(int, int)')" stroke="none">onProgress(int, int) : void</text>
    </g>
    <g font-family="sans-serif" transform="matrix(1,0,0,1,8,143)">
      <text xml:space="preserve" x="4" y="67.1719" stroke="none">+</text>
      <text xml:space="preserve" x="19" y="68.7188" onclick="umlload('#subjectDumpReady(java.util.Map)')" stroke="none">subjectDumpReady(Map&lt;DataSetFamily, Dataset&gt;) : void</text>
    </g>
    <g font-family="sans-serif" transform="matrix(1,0,0,1,8,143)">
      <text xml:space="preserve" x="-2" y="105.1562" onclick="umlload('http://www.yworks.com/')" stroke="none">yWorks UML Doclet</text>
    </g>
    <g stroke-miterlimit="1.45" transform="matrix(1,0,0,1,8,143)" stroke-linecap="butt">
      <path fill="none" d="M197.245 0 L197.245 -69"/>
      <path fill="white" d="M197.245 -84 L191.245 -68 L203.245 -68 Z" stroke="none"/>
      <path fill="none" d="M197.245 -84 L191.245 -68 L203.245 -68 Z"/>
      <path fill="none" stroke-dasharray="6,2" d="M394.4675 16.3518 L460.49 16.3518"/>
      <line stroke-linecap="square" transform="matrix(1,0,0,1,460.49,16.3518)" fill="none" x1="0" x2="-14" y1="0" y2="-4" stroke-miterlimit="10"/>
      <line stroke-linecap="square" transform="matrix(1,0,0,1,460.49,16.3518)" fill="none" x1="0" x2="-14" y1="0" y2="4" stroke-miterlimit="10"/>
    </g>
  </g>
</svg>
