<?xml version="1.0" encoding="UTF-8"?>
<svg xmlns="http://www.w3.org/2000/svg" xmlns:xlink="http://www.w3.org/1999/xlink" fill-opacity="1" color-rendering="auto" color-interpolation="auto" stroke="black" text-rendering="auto" stroke-linecap="square" width="462" stroke-miterlimit="10" stroke-opacity="1" shape-rendering="auto" fill="black" stroke-dasharray="none" font-weight="normal" stroke-width="1" height="549" font-family="'Dialog'" font-style="normal" stroke-linejoin="miter" font-size="12" stroke-dashoffset="0" image-rendering="auto">
  <!--Generated by ySVG-->
  <defs id="genericDefs"/>
  <g>
    <defs id="defs1">
      <clipPath clipPathUnits="userSpaceOnUse" id="clipPath1">
        <path d="M0 0 L462 0 L462 549 L0 549 L0 0 Z"/>
      </clipPath>
      <clipPath clipPathUnits="userSpaceOnUse" id="clipPath2">
        <path d="M394.0096 42.3518 C394.0096 51.3827 307.5984 58.7037 201.0048 58.7037 C94.4112 58.7037 8 51.3827 8 42.3518 C8 33.321 94.4112 26 201.0048 26 C307.5984 26 394.0096 33.321 394.0096 42.3518 Z"/>
      </clipPath>
      <clipPath clipPathUnits="userSpaceOnUse" id="clipPath3">
        <path d="M433.3389 120.0555 C433.3389 129.0864 338.1235 136.4074 220.6694 136.4074 C103.2153 136.4074 8 129.0864 8 120.0555 C8 111.0247 103.2153 103.7037 220.6694 103.7037 C338.1235 103.7037 433.3389 111.0247 433.3389 120.0555 Z"/>
      </clipPath>
      <clipPath clipPathUnits="userSpaceOnUse" id="clipPath4">
        <path d="M407.1194 197.7592 C407.1194 206.7901 317.7734 214.1111 207.5597 214.1111 C97.3459 214.1111 8 206.7901 8 197.7592 C8 188.7283 97.3459 181.4074 207.5597 181.4074 C317.7734 181.4074 407.1194 188.7283 407.1194 197.7592 Z"/>
      </clipPath>
      <clipPath clipPathUnits="userSpaceOnUse" id="clipPath5">
        <path d="M453.7318 275.4629 C453.7318 284.4938 353.9514 291.8148 230.8659 291.8148 C107.7805 291.8148 8 284.4938 8 275.4629 C8 266.432 107.7805 259.1111 230.8659 259.1111 C353.9514 259.1111 453.7318 266.432 453.7318 275.4629 Z"/>
      </clipPath>
      <clipPath clipPathUnits="userSpaceOnUse" id="clipPath6">
        <path d="M399.8362 353.1666 C399.8362 362.1975 312.1206 369.5184 203.9181 369.5184 C95.7155 369.5184 8 362.1975 8 353.1666 C8 344.1357 95.7155 336.8148 203.9181 336.8148 C312.1206 336.8148 399.8362 344.1357 399.8362 353.1666 Z"/>
      </clipPath>
      <clipPath clipPathUnits="userSpaceOnUse" id="clipPath7">
        <path d="M8 414.5184 L141.9 414.5184 L141.9 437.6434 L8 437.6434 L8 414.5184 Z"/>
      </clipPath>
      <clipPath clipPathUnits="userSpaceOnUse" id="clipPath8">
        <path d="M186.9 414.5184 L446.46 414.5184 L446.46 437.6434 L186.9 437.6434 L186.9 414.5184 Z"/>
      </clipPath>
      <clipPath clipPathUnits="userSpaceOnUse" id="clipPath9">
        <path d="M8 482.6434 L89.37 482.6434 L89.37 505.7684 L8 505.7684 L8 482.6434 Z"/>
      </clipPath>
      <script type="text/ecmascript"><![CDATA[
function umlload(newLocation)
{
if (newLocation.charAt(0) != '#') {
if (newLocation.indexOf("://") > -1) {
window.parent.location.href = newLocation;
} else {
var tmp = window.parent.location.href;
tmp = tmp.substring(0, tmp.lastIndexOf("/") + 1);
window.parent.location.href = tmp.concat(newLocation);
}
} else {
window.parent.location.hash = newLocation;
}
}
]]></script>
    </defs>
    <g fill="rgb(238,238,255)" stroke="rgb(238,238,255)">
      <rect width="206.6319" x="0" height="17.9688" y="0" stroke="none"/>
    </g>
    <g fill="rgb(166,166,178)" stroke-miterlimit="1.45" stroke-linecap="butt" stroke="rgb(166,166,178)">
      <rect fill="none" width="206.6319" x="0" height="17.9688" y="0"/>
    </g>
    <g fill="rgb(238,238,255)" stroke="rgb(238,238,255)">
      <rect width="461.7318" x="0" height="495.7997" y="17.9688" stroke="none"/>
    </g>
    <g fill="rgb(166,166,178)" stroke-miterlimit="1.45" stroke-linecap="butt" stroke="rgb(166,166,178)">
      <rect fill="none" width="461.7318" x="0" height="495.7997" y="17.9688"/>
    </g>
    <g font-family="sans-serif">
      <text xml:space="preserve" x="6" y="13.1406" onclick="umlload('#')" stroke="none">lamparski.areabase.services</text>
    </g>
    <g fill="rgb(221,221,255)" stroke="rgb(221,221,255)">
      <rect x="8" y="26" clip-path="url(#clipPath2)" width="386.0096" height="32.7037" stroke="none"/>
    </g>
    <g fill="rgb(154,154,178)" stroke-miterlimit="1.45" stroke-linecap="butt" stroke="rgb(154,154,178)">
      <ellipse rx="193.0048" fill="none" ry="16.3518" cx="201.0048" cy="42.3518"/>
    </g>
    <g font-style="italic" font-size="13" font-weight="bold" font-family="sans-serif">
      <text xml:space="preserve" x="72.5048" y="46.8518" onclick="umlload('AreaDataService.AreaListCallbacks.html')" stroke="none">AreaDataService.AreaListCallbacks</text>
    </g>
    <g fill="rgb(221,221,255)" stroke="rgb(221,221,255)">
      <rect x="8" y="103.7037" clip-path="url(#clipPath3)" width="425.3389" height="32.7037" stroke="none"/>
    </g>
    <g fill="rgb(154,154,178)" stroke-miterlimit="1.45" stroke-linecap="butt" stroke="rgb(154,154,178)">
      <ellipse rx="212.6694" fill="none" ry="16.3518" cx="220.6694" cy="120.0555"/>
    </g>
    <g font-style="italic" font-size="13" font-weight="bold" font-family="sans-serif">
      <text xml:space="preserve" x="78.6694" y="124.5555" onclick="umlload('AreaDataService.AreaLookupCallbacks.html')" stroke="none">AreaDataService.AreaLookupCallbacks</text>
    </g>
    <g fill="rgb(221,221,255)" stroke="rgb(221,221,255)">
      <rect x="8" y="181.4074" clip-path="url(#clipPath4)" width="399.1194" height="32.7037" stroke="none"/>
    </g>
    <g fill="rgb(154,154,178)" stroke-miterlimit="1.45" stroke-linecap="butt" stroke="rgb(154,154,178)">
      <ellipse rx="199.5597" fill="none" ry="16.3518" cx="207.5597" cy="197.7592"/>
    </g>
    <g font-style="italic" font-size="13" font-weight="bold" font-family="sans-serif">
      <text xml:space="preserve" x="74.5597" y="202.2592" onclick="umlload('AreaDataService.BasicAreaInfoIface.html')" stroke="none">AreaDataService.BasicAreaInfoIface</text>
    </g>
    <g fill="rgb(221,221,255)" stroke="rgb(221,221,255)">
      <rect x="8" y="259.1111" clip-path="url(#clipPath5)" width="445.7318" height="32.7037" stroke="none"/>
    </g>
    <g fill="rgb(154,154,178)" stroke-miterlimit="1.45" stroke-linecap="butt" stroke="rgb(154,154,178)">
      <ellipse rx="222.8659" fill="none" ry="16.3518" cx="230.8659" cy="275.4629"/>
    </g>
    <g font-style="italic" font-size="13" font-weight="bold" font-family="sans-serif">
      <text xml:space="preserve" x="81.8659" y="279.9629" onclick="umlload('AreaDataService.DatasetDumpCallbacks.html')" stroke="none">AreaDataService.DatasetDumpCallbacks</text>
    </g>
    <g fill="rgb(221,221,255)" stroke="rgb(221,221,255)">
      <rect x="8" y="336.8148" clip-path="url(#clipPath6)" width="391.8362" height="32.7037" stroke="none"/>
    </g>
    <g fill="rgb(154,154,178)" stroke-miterlimit="1.45" stroke-linecap="butt" stroke="rgb(154,154,178)">
      <ellipse rx="195.9181" fill="none" ry="16.3518" cx="203.9181" cy="353.1666"/>
    </g>
    <g font-style="italic" font-size="13" font-weight="bold" font-family="sans-serif">
      <text xml:space="preserve" x="73.4181" y="357.6666" onclick="umlload('AreaDataService.SubjectDumpIface.html')" stroke="none">AreaDataService.SubjectDumpIface</text>
    </g>
    <g fill="rgb(187,187,255)" stroke="rgb(187,187,255)">
      <rect x="8" y="414.5184" clip-path="url(#clipPath7)" width="133.9" height="23.125" stroke="none"/>
    </g>
    <g fill="rgb(130,130,178)" stroke-miterlimit="1.45" stroke-linecap="butt" stroke="rgb(130,130,178)">
      <rect fill="none" width="133.9" x="8" height="23.125" y="414.5184"/>
    </g>
    <g font-size="13" font-weight="bold" font-family="sans-serif">
      <text xml:space="preserve" x="13.95" y="430.5809" onclick="umlload('AreaDataService.html')" stroke="none">AreaDataService</text>
    </g>
    <g fill="rgb(187,187,255)" stroke="rgb(187,187,255)">
      <rect x="186.9" y="414.5184" clip-path="url(#clipPath8)" width="259.56" height="23.125" stroke="none"/>
    </g>
    <g fill="rgb(130,130,178)" stroke-miterlimit="1.45" stroke-linecap="butt" stroke="rgb(130,130,178)">
      <rect fill="none" width="259.56" x="186.9" height="23.125" y="414.5184"/>
    </g>
    <g font-size="13" font-weight="bold" font-family="sans-serif">
      <text xml:space="preserve" x="194.68" y="430.5809" onclick="umlload('AreaDataService.AreaDataBinder.html')" stroke="none">AreaDataService.AreaDataBinder</text>
    </g>
    <g fill="rgb(187,187,255)" stroke="rgb(187,187,255)">
      <rect x="8" y="482.6434" clip-path="url(#clipPath9)" width="81.37" height="23.125" stroke="none"/>
    </g>
    <g fill="rgb(130,130,178)" stroke-miterlimit="1.45" stroke-linecap="butt" stroke="rgb(130,130,178)">
      <rect fill="none" width="81.37" x="8" height="23.125" y="482.6434"/>
    </g>
    <g font-size="13" font-weight="bold" font-family="sans-serif">
      <text xml:space="preserve" x="13.185" y="498.7059" onclick="umlload('AreaRank.html')" stroke="none">AreaRank</text>
    </g>
    <g font-family="sans-serif">
      <text xml:space="preserve" x="6" y="538.1562" onclick="umlload('http://www.yworks.com/')" stroke="none">yWorks UML Doclet</text>
    </g>
  </g>
</svg>
