<?xml version="1.0" encoding="UTF-8"?>
<svg xmlns="http://www.w3.org/2000/svg" xmlns:xlink="http://www.w3.org/1999/xlink" fill-opacity="1" color-rendering="auto" color-interpolation="auto" stroke="black" text-rendering="auto" stroke-linecap="square" width="722" stroke-miterlimit="10" stroke-opacity="1" shape-rendering="auto" fill="black" stroke-dasharray="none" font-weight="normal" stroke-width="1" height="734" font-family="'Dialog'" font-style="normal" stroke-linejoin="miter" font-size="12" stroke-dashoffset="0" image-rendering="auto">
  <!--Generated by ySVG-->
  <defs id="genericDefs"/>
  <g>
    <defs id="defs1">
      <clipPath clipPathUnits="userSpaceOnUse" id="clipPath1">
        <path d="M0 0 L722 0 L722 734 L0 734 L0 0 Z"/>
      </clipPath>
      <clipPath clipPathUnits="userSpaceOnUse" id="clipPath2">
        <path d="M202.74 416.8744 L387.11 416.8744 L387.11 439.9994 L202.74 439.9994 L202.74 416.8744 Z"/>
      </clipPath>
      <clipPath clipPathUnits="userSpaceOnUse" id="clipPath3">
        <path d="M202.74 363.7494 L422.13 363.7494 L422.13 386.8744 L202.74 386.8744 L202.74 363.7494 Z"/>
      </clipPath>
      <clipPath clipPathUnits="userSpaceOnUse" id="clipPath4">
        <path d="M10 284.0619 L140.81 284.0619 L140.81 307.1869 L10 307.1869 L10 284.0619 Z"/>
      </clipPath>
      <clipPath clipPathUnits="userSpaceOnUse" id="clipPath5">
        <path d="M202.74 310.6244 L346.94 310.6244 L346.94 333.7494 L202.74 333.7494 L202.74 310.6244 Z"/>
      </clipPath>
      <clipPath clipPathUnits="userSpaceOnUse" id="clipPath6">
        <path d="M202.74 257.4994 L423.16 257.4994 L423.16 280.6244 L202.74 280.6244 L202.74 257.4994 Z"/>
      </clipPath>
      <clipPath clipPathUnits="userSpaceOnUse" id="clipPath7">
        <path d="M202.74 151.2494 L423.16 151.2494 L423.16 174.3744 L202.74 174.3744 L202.74 151.2494 Z"/>
      </clipPath>
      <clipPath clipPathUnits="userSpaceOnUse" id="clipPath8">
        <path d="M456.25 204.3744 L711.69 204.3744 L711.69 227.4994 L456.25 227.4994 L456.25 204.3744 Z"/>
      </clipPath>
      <clipPath clipPathUnits="userSpaceOnUse" id="clipPath9">
        <path d="M202.74 204.3744 L426.25 204.3744 L426.25 227.4994 L202.74 227.4994 L202.74 204.3744 Z"/>
      </clipPath>
      <clipPath clipPathUnits="userSpaceOnUse" id="clipPath10">
        <path d="M10 62.1242 L117.12 62.1242 L117.12 85.2492 L10 85.2492 L10 62.1242 Z"/>
      </clipPath>
      <clipPath clipPathUnits="userSpaceOnUse" id="clipPath11">
        <path d="M456.25 559.125 L601.48 559.125 L601.48 582.25 L456.25 582.25 L456.25 559.125 Z"/>
      </clipPath>
      <clipPath clipPathUnits="userSpaceOnUse" id="clipPath12">
        <path d="M456.25 665.375 L510.84 665.375 L510.84 688.5 L456.25 688.5 L456.25 665.375 Z"/>
      </clipPath>
      <clipPath clipPathUnits="userSpaceOnUse" id="clipPath13">
        <path d="M10 506 L108.88 506 L108.88 529.125 L10 529.125 L10 506 Z"/>
      </clipPath>
      <clipPath clipPathUnits="userSpaceOnUse" id="clipPath14">
        <path d="M10 559.125 L62.53 559.125 L62.53 582.25 L10 582.25 L10 559.125 Z"/>
      </clipPath>
      <clipPath clipPathUnits="userSpaceOnUse" id="clipPath15">
        <path d="M10 612.25 L172.74 612.25 L172.74 635.375 L10 635.375 L10 612.25 Z"/>
      </clipPath>
      <clipPath clipPathUnits="userSpaceOnUse" id="clipPath16">
        <path d="M202.74 612.25 L274.84 612.25 L274.84 635.375 L202.74 635.375 L202.74 612.25 Z"/>
      </clipPath>
      <clipPath clipPathUnits="userSpaceOnUse" id="clipPath17">
        <path d="M10 665.375 L148.02 665.375 L148.02 688.5 L10 688.5 L10 665.375 Z"/>
      </clipPath>
      <clipPath clipPathUnits="userSpaceOnUse" id="clipPath18">
        <path d="M456.25 612.25 L580.88 612.25 L580.88 635.375 L456.25 635.375 L456.25 612.25 Z"/>
      </clipPath>
      <clipPath clipPathUnits="userSpaceOnUse" id="clipPath19">
        <path d="M202.74 559.125 L364.45 559.125 L364.45 582.25 L202.74 582.25 L202.74 559.125 Z"/>
      </clipPath>
      <clipPath clipPathUnits="userSpaceOnUse" id="clipPath20">
        <path d="M202.74 665.375 L278.96 665.375 L278.96 688.5 L202.74 688.5 L202.74 665.375 Z"/>
      </clipPath>
      <script type="text/ecmascript"><![CDATA[
function umlload(newLocation)
{
if (newLocation.charAt(0) != '#') {
if (newLocation.indexOf("://") > -1) {
window.parent.location.href = newLocation;
} else {
var tmp = window.parent.location.href;
tmp = tmp.substring(0, tmp.lastIndexOf("/") + 1);
window.parent.location.href = tmp.concat(newLocation);
}
} else {
window.parent.location.hash = newLocation;
}
}
]]></script>
    </defs>
    <g fill="rgb(238,238,255)" transform="matrix(1,0,0,1,0,1)" stroke="rgb(238,238,255)">
      <rect width="140.8561" x="0" height="17.9688" y="124.2494" stroke="none"/>
    </g>
    <g fill="rgb(166,166,178)" stroke-miterlimit="1.45" transform="matrix(1,0,0,1,0,1)" stroke-linecap="butt" stroke="rgb(166,166,178)">
      <rect fill="none" width="140.8561" x="0" height="17.9688" y="124.2494"/>
    </g>
    <g fill="rgb(238,238,255)" transform="matrix(1,0,0,1,0,1)" stroke="rgb(238,238,255)">
      <rect width="721.69" x="0" height="306.7812" y="142.2182" stroke="none"/>
    </g>
    <g fill="rgb(166,166,178)" stroke-miterlimit="1.45" transform="matrix(1,0,0,1,0,1)" stroke-linecap="butt" stroke="rgb(166,166,178)">
      <rect fill="none" width="721.69" x="0" height="306.7812" y="142.2182"/>
    </g>
    <g font-family="sans-serif" transform="matrix(1,0,0,1,0,1)">
      <text xml:space="preserve" x="6" y="137.39" onclick="umlload('police/methodcalls/package-summary.html')" stroke="none">police.methodcalls</text>
    </g>
    <g fill="rgb(187,187,255)" transform="matrix(1,0,0,1,0,1)" stroke="rgb(187,187,255)">
      <rect x="202.74" y="416.8744" clip-path="url(#clipPath2)" width="184.37" height="23.125" stroke="none"/>
    </g>
    <g fill="rgb(130,130,178)" stroke-miterlimit="1.45" transform="matrix(1,0,0,1,0,1)" stroke-linecap="butt" stroke="rgb(130,130,178)">
      <rect fill="none" width="184.37" x="202.74" height="23.125" y="416.8744"/>
    </g>
    <g font-size="13" font-weight="bold" font-family="sans-serif" transform="matrix(1,0,0,1,0,1)">
      <text xml:space="preserve" x="209.425" y="432.9369" onclick="umlload('police/methodcalls/CaseHistoryMethodCall.html')" stroke="none">CaseHistoryMethodCall</text>
    </g>
    <g fill="rgb(187,187,255)" transform="matrix(1,0,0,1,0,1)" stroke="rgb(187,187,255)">
      <rect x="202.74" y="363.7494" clip-path="url(#clipPath3)" width="219.39" height="23.125" stroke="none"/>
    </g>
    <g fill="rgb(130,130,178)" stroke-miterlimit="1.45" transform="matrix(1,0,0,1,0,1)" stroke-linecap="butt" stroke="rgb(130,130,178)">
      <rect fill="none" width="219.39" x="202.74" height="23.125" y="363.7494"/>
    </g>
    <g font-size="13" font-weight="bold" font-family="sans-serif" transform="matrix(1,0,0,1,0,1)">
      <text xml:space="preserve" x="209.935" y="379.8119" onclick="umlload('police/methodcalls/NeighbourhoodsMethodCall.html')" stroke="none">NeighbourhoodsMethodCall</text>
    </g>
    <g fill="rgb(204,204,255)" transform="matrix(1,0,0,1,0,1)" stroke="rgb(204,204,255)">
      <rect x="10" y="284.0619" clip-path="url(#clipPath4)" width="130.81" height="23.125" stroke="none"/>
    </g>
    <g fill="rgb(142,142,178)" stroke-miterlimit="1.45" transform="matrix(1,0,0,1,0,1)" stroke-linecap="butt" stroke="rgb(142,142,178)">
      <rect fill="none" width="130.81" x="10" height="23.125" y="284.0619"/>
    </g>
    <g font-size="13" font-weight="bold" font-family="sans-serif" transform="matrix(1,0,0,1,0,1)">
      <text xml:space="preserve" x="15.905" y="300.1244" onclick="umlload('police/methodcalls/BaseMethodCall.html')" stroke="none">BaseMethodCall</text>
    </g>
    <g fill="rgb(187,187,255)" transform="matrix(1,0,0,1,0,1)" stroke="rgb(187,187,255)">
      <rect x="202.74" y="310.6244" clip-path="url(#clipPath5)" width="144.2" height="23.125" stroke="none"/>
    </g>
    <g fill="rgb(130,130,178)" stroke-miterlimit="1.45" transform="matrix(1,0,0,1,0,1)" stroke-linecap="butt" stroke="rgb(130,130,178)">
      <rect fill="none" width="144.2" x="202.74" height="23.125" y="310.6244"/>
    </g>
    <g font-size="13" font-weight="bold" font-family="sans-serif" transform="matrix(1,0,0,1,0,1)">
      <text xml:space="preserve" x="208.84" y="326.6869" onclick="umlload('police/methodcalls/ForcesMethodCall.html')" stroke="none">ForcesMethodCall</text>
    </g>
    <g fill="rgb(187,187,255)" transform="matrix(1,0,0,1,0,1)" stroke="rgb(187,187,255)">
      <rect x="202.74" y="257.4994" clip-path="url(#clipPath6)" width="220.42" height="23.125" stroke="none"/>
    </g>
    <g fill="rgb(130,130,178)" stroke-miterlimit="1.45" transform="matrix(1,0,0,1,0,1)" stroke-linecap="butt" stroke="rgb(130,130,178)">
      <rect fill="none" width="220.42" x="202.74" height="23.125" y="257.4994"/>
    </g>
    <g font-size="13" font-weight="bold" font-family="sans-serif" transform="matrix(1,0,0,1,0,1)">
      <text xml:space="preserve" x="209.95" y="273.5619" onclick="umlload('police/methodcalls/CrimeAvailabilityMethodCall.html')" stroke="none">CrimeAvailabilityMethodCall</text>
    </g>
    <g fill="rgb(187,187,255)" transform="matrix(1,0,0,1,0,1)" stroke="rgb(187,187,255)">
      <rect x="202.74" y="151.2494" clip-path="url(#clipPath7)" width="220.42" height="23.125" stroke="none"/>
    </g>
    <g fill="rgb(130,130,178)" stroke-miterlimit="1.45" transform="matrix(1,0,0,1,0,1)" stroke-linecap="butt" stroke="rgb(130,130,178)">
      <rect fill="none" width="220.42" x="202.74" height="23.125" y="151.2494"/>
    </g>
    <g font-size="13" font-weight="bold" font-family="sans-serif" transform="matrix(1,0,0,1,0,1)">
      <text xml:space="preserve" x="209.95" y="167.3119" onclick="umlload('police/methodcalls/CrimeCategoriesMethodCall.html')" stroke="none">CrimeCategoriesMethodCall</text>
    </g>
    <g fill="rgb(187,187,255)" transform="matrix(1,0,0,1,0,1)" stroke="rgb(187,187,255)">
      <rect x="456.25" y="204.3744" clip-path="url(#clipPath8)" width="255.44" height="23.125" stroke="none"/>
    </g>
    <g fill="rgb(130,130,178)" stroke-miterlimit="1.45" transform="matrix(1,0,0,1,0,1)" stroke-linecap="butt" stroke="rgb(130,130,178)">
      <rect fill="none" width="255.44" x="456.25" height="23.125" y="204.3744"/>
    </g>
    <g font-size="13" font-weight="bold" font-family="sans-serif" transform="matrix(1,0,0,1,0,1)">
      <text xml:space="preserve" x="463.97" y="220.4369" onclick="umlload('police/methodcalls/StreetLevelOutcomesMethodCall.html')" stroke="none">StreetLevelOutcomesMethodCall</text>
    </g>
    <g fill="rgb(187,187,255)" transform="matrix(1,0,0,1,0,1)" stroke="rgb(187,187,255)">
      <rect x="202.74" y="204.3744" clip-path="url(#clipPath9)" width="223.51" height="23.125" stroke="none"/>
    </g>
    <g fill="rgb(130,130,178)" stroke-miterlimit="1.45" transform="matrix(1,0,0,1,0,1)" stroke-linecap="butt" stroke="rgb(130,130,178)">
      <rect fill="none" width="223.51" x="202.74" height="23.125" y="204.3744"/>
    </g>
    <g font-size="13" font-weight="bold" font-family="sans-serif" transform="matrix(1,0,0,1,0,1)">
      <text xml:space="preserve" x="209.995" y="220.4369" onclick="umlload('police/methodcalls/StreetLevelCrimeMethodCall.html')" stroke="none">StreetLevelCrimeMethodCall</text>
    </g>
    <g fill="rgb(238,238,255)" transform="matrix(1,0,0,1,0,1)" stroke="rgb(238,238,255)">
      <rect width="100.5419" x="0" height="17.9688" y="-0.8758" stroke="none"/>
    </g>
    <g fill="rgb(166,166,178)" stroke-miterlimit="1.45" transform="matrix(1,0,0,1,0,1)" stroke-linecap="butt" stroke="rgb(166,166,178)">
      <rect fill="none" width="100.5419" x="0" height="17.9688" y="-0.8758"/>
    </g>
    <g fill="rgb(238,238,255)" transform="matrix(1,0,0,1,0,1)" stroke="rgb(238,238,255)">
      <rect width="155.12" x="0" height="77.1562" y="17.093" stroke="none"/>
    </g>
    <g fill="rgb(166,166,178)" stroke-miterlimit="1.45" transform="matrix(1,0,0,1,0,1)" stroke-linecap="butt" stroke="rgb(166,166,178)">
      <rect fill="none" width="155.12" x="0" height="77.1562" y="17.093"/>
    </g>
    <g font-family="sans-serif" transform="matrix(1,0,0,1,0,1)">
      <text xml:space="preserve" x="6" y="12.2648" onclick="umlload('police/errors/package-summary.html')" stroke="none">police.errors</text>
    </g>
    <g fill="rgb(153,153,255)" transform="matrix(1,0,0,1,0,1)" stroke="rgb(153,153,255)">
      <rect x="10" y="62.1242" clip-path="url(#clipPath10)" width="107.12" height="23.125" stroke="none"/>
    </g>
    <g fill="rgb(106,106,178)" stroke-miterlimit="1.45" transform="matrix(1,0,0,1,0,1)" stroke-linecap="butt" stroke="rgb(106,106,178)">
      <rect fill="none" width="107.12" x="10" height="23.125" y="62.1242"/>
    </g>
    <g font-size="13" font-weight="bold" font-family="sans-serif" transform="matrix(1,0,0,1,0,1)">
      <text xml:space="preserve" x="15.56" y="78.1867" onclick="umlload('police/errors/APIException.html')" stroke="none">APIException</text>
    </g>
    <g fill="rgb(238,238,255)" transform="matrix(1,0,0,1,0,1)" stroke="rgb(238,238,255)">
      <rect width="96.2983" x="0" height="17.9688" y="479" stroke="none"/>
    </g>
    <g fill="rgb(166,166,178)" stroke-miterlimit="1.45" transform="matrix(1,0,0,1,0,1)" stroke-linecap="butt" stroke="rgb(166,166,178)">
      <rect fill="none" width="96.2983" x="0" height="17.9688" y="479"/>
    </g>
    <g fill="rgb(238,238,255)" transform="matrix(1,0,0,1,0,1)" stroke="rgb(238,238,255)">
      <rect width="666.48" x="0" height="200.5312" y="496.9688" stroke="none"/>
    </g>
    <g fill="rgb(166,166,178)" stroke-miterlimit="1.45" transform="matrix(1,0,0,1,0,1)" stroke-linecap="butt" stroke="rgb(166,166,178)">
      <rect fill="none" width="666.48" x="0" height="200.5312" y="496.9688"/>
    </g>
    <g font-family="sans-serif" transform="matrix(1,0,0,1,0,1)">
      <text xml:space="preserve" x="6" y="492.1406" onclick="umlload('police/types/package-summary.html')" stroke="none">police.types</text>
    </g>
    <g fill="rgb(187,187,255)" transform="matrix(1,0,0,1,0,1)" stroke="rgb(187,187,255)">
      <rect x="456.25" y="559.125" clip-path="url(#clipPath11)" width="145.23" height="23.125" stroke="none"/>
    </g>
    <g fill="rgb(130,130,178)" stroke-miterlimit="1.45" transform="matrix(1,0,0,1,0,1)" stroke-linecap="butt" stroke="rgb(130,130,178)">
      <rect fill="none" width="145.23" x="456.25" height="23.125" y="559.125"/>
    </g>
    <g font-size="13" font-weight="bold" font-family="sans-serif" transform="matrix(1,0,0,1,0,1)">
      <text xml:space="preserve" x="462.365" y="575.1875" onclick="umlload('police/types/OutcomeCategory.html')" stroke="none">OutcomeCategory</text>
    </g>
    <g fill="rgb(187,187,255)" transform="matrix(1,0,0,1,0,1)" stroke="rgb(187,187,255)">
      <rect x="456.25" y="665.375" clip-path="url(#clipPath12)" width="54.59" height="23.125" stroke="none"/>
    </g>
    <g fill="rgb(130,130,178)" stroke-miterlimit="1.45" transform="matrix(1,0,0,1,0,1)" stroke-linecap="butt" stroke="rgb(130,130,178)">
      <rect fill="none" width="54.59" x="456.25" height="23.125" y="665.375"/>
    </g>
    <g font-size="13" font-weight="bold" font-family="sans-serif" transform="matrix(1,0,0,1,0,1)">
      <text xml:space="preserve" x="461.045" y="681.4375" onclick="umlload('police/types/Street.html')" stroke="none">Street</text>
    </g>
    <g fill="rgb(187,187,255)" transform="matrix(1,0,0,1,0,1)" stroke="rgb(187,187,255)">
      <rect x="10" y="506" clip-path="url(#clipPath13)" width="98.88" height="23.125" stroke="none"/>
    </g>
    <g fill="rgb(130,130,178)" stroke-miterlimit="1.45" transform="matrix(1,0,0,1,0,1)" stroke-linecap="butt" stroke="rgb(130,130,178)">
      <rect fill="none" width="98.88" x="10" height="23.125" y="506"/>
    </g>
    <g font-size="13" font-weight="bold" font-family="sans-serif" transform="matrix(1,0,0,1,0,1)">
      <text xml:space="preserve" x="15.44" y="522.0625" onclick="umlload('police/types/CaseHistory.html')" stroke="none">CaseHistory</text>
    </g>
    <g fill="rgb(187,187,255)" transform="matrix(1,0,0,1,0,1)" stroke="rgb(187,187,255)">
      <rect x="10" y="559.125" clip-path="url(#clipPath14)" width="52.53" height="23.125" stroke="none"/>
    </g>
    <g fill="rgb(130,130,178)" stroke-miterlimit="1.45" transform="matrix(1,0,0,1,0,1)" stroke-linecap="butt" stroke="rgb(130,130,178)">
      <rect fill="none" width="52.53" x="10" height="23.125" y="559.125"/>
    </g>
    <g font-size="13" font-weight="bold" font-family="sans-serif" transform="matrix(1,0,0,1,0,1)">
      <text xml:space="preserve" x="14.765" y="575.1875" onclick="umlload('police/types/Crime.html')" stroke="none">Crime</text>
    </g>
    <g fill="rgb(187,187,255)" transform="matrix(1,0,0,1,0,1)" stroke="rgb(187,187,255)">
      <rect x="10" y="612.25" clip-path="url(#clipPath15)" width="162.74" height="23.125" stroke="none"/>
    </g>
    <g fill="rgb(130,130,178)" stroke-miterlimit="1.45" transform="matrix(1,0,0,1,0,1)" stroke-linecap="butt" stroke="rgb(130,130,178)">
      <rect fill="none" width="162.74" x="10" height="23.125" y="612.25"/>
    </g>
    <g font-size="13" font-weight="bold" font-family="sans-serif" transform="matrix(1,0,0,1,0,1)">
      <text xml:space="preserve" x="16.37" y="628.3125" onclick="umlload('police/types/EngagementMethod.html')" stroke="none">EngagementMethod</text>
    </g>
    <g fill="rgb(187,187,255)" transform="matrix(1,0,0,1,0,1)" stroke="rgb(187,187,255)">
      <rect x="202.74" y="612.25" clip-path="url(#clipPath16)" width="72.1" height="23.125" stroke="none"/>
    </g>
    <g fill="rgb(130,130,178)" stroke-miterlimit="1.45" transform="matrix(1,0,0,1,0,1)" stroke-linecap="butt" stroke="rgb(130,130,178)">
      <rect fill="none" width="72.1" x="202.74" height="23.125" y="612.25"/>
    </g>
    <g font-size="13" font-weight="bold" font-family="sans-serif" transform="matrix(1,0,0,1,0,1)">
      <text xml:space="preserve" x="207.79" y="628.3125" onclick="umlload('police/types/Location.html')" stroke="none">Location</text>
    </g>
    <g fill="rgb(187,187,255)" transform="matrix(1,0,0,1,0,1)" stroke="rgb(187,187,255)">
      <rect x="10" y="665.375" clip-path="url(#clipPath17)" width="138.02" height="23.125" stroke="none"/>
    </g>
    <g fill="rgb(130,130,178)" stroke-miterlimit="1.45" transform="matrix(1,0,0,1,0,1)" stroke-linecap="butt" stroke="rgb(130,130,178)">
      <rect fill="none" width="138.02" x="10" height="23.125" y="665.375"/>
    </g>
    <g font-size="13" font-weight="bold" font-family="sans-serif" transform="matrix(1,0,0,1,0,1)">
      <text xml:space="preserve" x="16.01" y="681.4375" onclick="umlload('police/types/ForceInformation.html')" stroke="none">ForceInformation</text>
    </g>
    <g fill="rgb(187,187,255)" transform="matrix(1,0,0,1,0,1)" stroke="rgb(187,187,255)">
      <rect x="456.25" y="612.25" clip-path="url(#clipPath18)" width="124.63" height="23.125" stroke="none"/>
    </g>
    <g fill="rgb(130,130,178)" stroke-miterlimit="1.45" transform="matrix(1,0,0,1,0,1)" stroke-linecap="butt" stroke="rgb(130,130,178)">
      <rect fill="none" width="124.63" x="456.25" height="23.125" y="612.25"/>
    </g>
    <g font-size="13" font-weight="bold" font-family="sans-serif" transform="matrix(1,0,0,1,0,1)">
      <text xml:space="preserve" x="462.065" y="628.3125" onclick="umlload('police/types/OutcomeStatus.html')" stroke="none">OutcomeStatus</text>
    </g>
    <g fill="rgb(187,187,255)" transform="matrix(1,0,0,1,0,1)" stroke="rgb(187,187,255)">
      <rect x="202.74" y="559.125" clip-path="url(#clipPath19)" width="161.71" height="23.125" stroke="none"/>
    </g>
    <g fill="rgb(130,130,178)" stroke-miterlimit="1.45" transform="matrix(1,0,0,1,0,1)" stroke-linecap="butt" stroke="rgb(130,130,178)">
      <rect fill="none" width="161.71" x="202.74" height="23.125" y="559.125"/>
    </g>
    <g font-size="13" font-weight="bold" font-family="sans-serif" transform="matrix(1,0,0,1,0,1)">
      <text xml:space="preserve" x="209.095" y="575.1875" onclick="umlload('police/types/KeyValuePair.html')" stroke="none">KeyValuePair&lt;K, V&gt;</text>
    </g>
    <g fill="rgb(187,187,255)" transform="matrix(1,0,0,1,0,1)" stroke="rgb(187,187,255)">
      <rect x="202.74" y="665.375" clip-path="url(#clipPath20)" width="76.22" height="23.125" stroke="none"/>
    </g>
    <g fill="rgb(130,130,178)" stroke-miterlimit="1.45" transform="matrix(1,0,0,1,0,1)" stroke-linecap="butt" stroke="rgb(130,130,178)">
      <rect fill="none" width="76.22" x="202.74" height="23.125" y="665.375"/>
    </g>
    <g font-size="13" font-weight="bold" font-family="sans-serif" transform="matrix(1,0,0,1,0,1)">
      <text xml:space="preserve" x="207.85" y="681.4375" onclick="umlload('police/types/Outcome.html')" stroke="none">Outcome</text>
    </g>
    <g font-family="sans-serif" transform="matrix(1,0,0,1,0,1)">
      <text xml:space="preserve" x="6" y="722.1562" onclick="umlload('http://www.yworks.com/')" stroke="none">yWorks UML Doclet</text>
    </g>
    <g stroke-miterlimit="1.45" transform="matrix(1,0,0,1,0,1)" stroke-linecap="butt">
      <path fill="none" d="M202.74 428.4369 L177.74 428.4369 L177.74 295.6244 L155.81 295.6244"/>
      <path fill="white" d="M140.81 295.6244 L156.81 301.6244 L156.81 289.6244 Z" stroke="none"/>
      <path fill="none" d="M140.81 295.6244 L156.81 301.6244 L156.81 289.6244 Z"/>
      <path fill="none" d="M202.74 375.3119 L177.74 375.3119 L177.74 295.6244 L155.81 295.6244"/>
      <path fill="white" d="M140.81 295.6244 L156.81 301.6244 L156.81 289.6244 Z" stroke="none"/>
      <path fill="none" d="M140.81 295.6244 L156.81 301.6244 L156.81 289.6244 Z"/>
      <path fill="none" d="M202.74 322.1869 L177.74 322.1869 L177.74 295.6244 L155.81 295.6244"/>
      <path fill="white" d="M140.81 295.6244 L156.81 301.6244 L156.81 289.6244 Z" stroke="none"/>
      <path fill="none" d="M140.81 295.6244 L156.81 301.6244 L156.81 289.6244 Z"/>
      <path fill="none" d="M202.74 269.0619 L177.74 269.0619 L177.74 295.6244 L155.81 295.6244"/>
      <path fill="white" d="M140.81 295.6244 L156.81 301.6244 L156.81 289.6244 Z" stroke="none"/>
      <path fill="none" d="M140.81 295.6244 L156.81 301.6244 L156.81 289.6244 Z"/>
      <path fill="none" d="M202.74 162.8119 L177.74 162.8119 L177.74 295.6244 L155.81 295.6244"/>
      <path fill="white" d="M140.81 295.6244 L156.81 301.6244 L156.81 289.6244 Z" stroke="none"/>
      <path fill="none" d="M140.81 295.6244 L156.81 301.6244 L156.81 289.6244 Z"/>
      <path fill="none" d="M456.25 215.9369 L441.25 215.9369"/>
      <path fill="white" d="M426.25 215.9369 L442.25 221.9369 L442.25 209.9369 Z" stroke="none"/>
      <path fill="none" d="M426.25 215.9369 L442.25 221.9369 L442.25 209.9369 Z"/>
      <path fill="none" d="M202.74 215.9369 L177.74 215.9369 L177.74 295.6244 L155.81 295.6244"/>
      <path fill="white" d="M140.81 295.6244 L156.81 301.6244 L156.81 289.6244 Z" stroke="none"/>
      <path fill="none" d="M140.81 295.6244 L156.81 301.6244 L156.81 289.6244 Z"/>
    </g>
  </g>
</svg>
