<?xml version="1.0" encoding="UTF-8"?>
<svg xmlns="http://www.w3.org/2000/svg" xmlns:xlink="http://www.w3.org/1999/xlink" fill-opacity="1" color-rendering="auto" color-interpolation="auto" stroke="black" text-rendering="auto" stroke-linecap="square" width="2061" stroke-miterlimit="10" stroke-opacity="1" shape-rendering="auto" fill="black" stroke-dasharray="none" font-weight="normal" stroke-width="1" height="235" font-family="'Dialog'" font-style="normal" stroke-linejoin="miter" font-size="12" stroke-dashoffset="0" image-rendering="auto">
  <!--Generated by ySVG-->
  <defs id="genericDefs"/>
  <g>
    <defs id="defs1">
      <linearGradient x1="685.6306" gradientUnits="userSpaceOnUse" x2="2055.8916" y1="-0.8906" y2="-0.8906" id="linearGradient1" spreadMethod="reflect">
        <stop stop-opacity="1" stop-color="rgb(212,223,255)" offset="0%"/>
        <stop stop-opacity="1" stop-color="white" offset="100%"/>
      </linearGradient>
      <linearGradient x1="1544.325" gradientUnits="userSpaceOnUse" x2="1648.0117" y1="156.7031" y2="156.7031" id="linearGradient2" spreadMethod="reflect">
        <stop stop-opacity="1" stop-color="rgb(211,221,239)" offset="0%"/>
        <stop stop-opacity="1" stop-color="white" offset="100%"/>
      </linearGradient>
      <linearGradient x1="1860.4517" gradientUnits="userSpaceOnUse" x2="1899.5917" y1="156.7031" y2="156.7031" id="linearGradient3" spreadMethod="reflect">
        <stop stop-opacity="1" stop-color="rgb(211,221,239)" offset="0%"/>
        <stop stop-opacity="1" stop-color="white" offset="100%"/>
      </linearGradient>
      <linearGradient x1="1686.595" gradientUnits="userSpaceOnUse" x2="1757.3217" y1="28.1094" y2="28.1094" id="linearGradient4" spreadMethod="reflect">
        <stop stop-opacity="1" stop-color="rgb(211,221,239)" offset="0%"/>
        <stop stop-opacity="1" stop-color="white" offset="100%"/>
      </linearGradient>
      <linearGradient x1="1805.8617" gradientUnits="userSpaceOnUse" x2="1842.9417" y1="28.1094" y2="28.1094" id="linearGradient5" spreadMethod="reflect">
        <stop stop-opacity="1" stop-color="rgb(211,221,239)" offset="0%"/>
        <stop stop-opacity="1" stop-color="white" offset="100%"/>
      </linearGradient>
      <linearGradient x1="1929.5917" gradientUnits="userSpaceOnUse" x2="2042.8917" y1="28.1094" y2="28.1094" id="linearGradient6" spreadMethod="reflect">
        <stop stop-opacity="1" stop-color="rgb(211,221,239)" offset="0%"/>
        <stop stop-opacity="1" stop-color="white" offset="100%"/>
      </linearGradient>
      <linearGradient x1="1880.0216" gradientUnits="userSpaceOnUse" x2="1931.5216" y1="82.4062" y2="82.4062" id="linearGradient7" spreadMethod="reflect">
        <stop stop-opacity="1" stop-color="rgb(211,221,239)" offset="0%"/>
        <stop stop-opacity="1" stop-color="white" offset="100%"/>
      </linearGradient>
      <linearGradient x1="1523.0383" gradientUnits="userSpaceOnUse" x2="1621.2317" y1="82.4062" y2="82.4062" id="linearGradient8" spreadMethod="reflect">
        <stop stop-opacity="1" stop-color="rgb(211,221,239)" offset="0%"/>
        <stop stop-opacity="1" stop-color="white" offset="100%"/>
      </linearGradient>
      <linearGradient x1="1722.3016" gradientUnits="userSpaceOnUse" x2="1810.8817" y1="156.7031" y2="156.7031" id="linearGradient9" spreadMethod="reflect">
        <stop stop-opacity="1" stop-color="rgb(211,221,239)" offset="0%"/>
        <stop stop-opacity="1" stop-color="white" offset="100%"/>
      </linearGradient>
      <linearGradient x1="1708.9116" gradientUnits="userSpaceOnUse" x2="1824.2716" y1="82.4062" y2="82.4062" id="linearGradient10" spreadMethod="reflect">
        <stop stop-opacity="1" stop-color="rgb(211,221,239)" offset="0%"/>
        <stop stop-opacity="1" stop-color="white" offset="100%"/>
      </linearGradient>
      <linearGradient x1="1988.645" gradientUnits="userSpaceOnUse" x2="2042.8917" y1="82.4062" y2="82.4062" id="linearGradient11" spreadMethod="reflect">
        <stop stop-opacity="1" stop-color="rgb(211,221,239)" offset="0%"/>
        <stop stop-opacity="1" stop-color="white" offset="100%"/>
      </linearGradient>
      <linearGradient x1="1967.3583" gradientUnits="userSpaceOnUse" x2="2042.8917" y1="156.7031" y2="156.7031" id="linearGradient12" spreadMethod="reflect">
        <stop stop-opacity="1" stop-color="rgb(211,221,239)" offset="0%"/>
        <stop stop-opacity="1" stop-color="white" offset="100%"/>
      </linearGradient>
      <linearGradient x1="73.7333" gradientUnits="userSpaceOnUse" x2="204.2" y1="82.4062" y2="82.4062" id="linearGradient13" spreadMethod="reflect">
        <stop stop-opacity="1" stop-color="rgb(211,221,239)" offset="0%"/>
        <stop stop-opacity="1" stop-color="white" offset="100%"/>
      </linearGradient>
      <linearGradient x1="311.7934" gradientUnits="userSpaceOnUse" x2="466.9801" y1="82.4062" y2="82.4062" id="linearGradient14" spreadMethod="reflect">
        <stop stop-opacity="1" stop-color="rgb(211,221,239)" offset="0%"/>
        <stop stop-opacity="1" stop-color="white" offset="100%"/>
      </linearGradient>
      <linearGradient x1="661.416" gradientUnits="userSpaceOnUse" x2="754.8027" y1="156.7031" y2="156.7031" id="linearGradient15" spreadMethod="reflect">
        <stop stop-opacity="1" stop-color="rgb(211,221,239)" offset="0%"/>
        <stop stop-opacity="1" stop-color="white" offset="100%"/>
      </linearGradient>
      <linearGradient x1="548.1367" gradientUnits="userSpaceOnUse" x2="650.4501" y1="82.4062" y2="82.4062" id="linearGradient16" spreadMethod="reflect">
        <stop stop-opacity="1" stop-color="rgb(211,221,239)" offset="0%"/>
        <stop stop-opacity="1" stop-color="white" offset="100%"/>
      </linearGradient>
      <linearGradient x1="757.357" gradientUnits="userSpaceOnUse" x2="911.1703" y1="82.4062" y2="82.4062" id="linearGradient17" spreadMethod="reflect">
        <stop stop-opacity="1" stop-color="rgb(211,221,239)" offset="0%"/>
        <stop stop-opacity="1" stop-color="white" offset="100%"/>
      </linearGradient>
      <linearGradient x1="1019.1071" gradientUnits="userSpaceOnUse" x2="1174.9803" y1="82.4062" y2="82.4062" id="linearGradient18" spreadMethod="reflect">
        <stop stop-opacity="1" stop-color="rgb(211,221,239)" offset="0%"/>
        <stop stop-opacity="1" stop-color="white" offset="100%"/>
      </linearGradient>
      <linearGradient x1="1278.7974" gradientUnits="userSpaceOnUse" x2="1461.4507" y1="28.1094" y2="28.1094" id="linearGradient19" spreadMethod="reflect">
        <stop stop-opacity="1" stop-color="rgb(211,221,239)" offset="0%"/>
        <stop stop-opacity="1" stop-color="white" offset="100%"/>
      </linearGradient>
      <linearGradient x1="1284.634" gradientUnits="userSpaceOnUse" x2="1443.9407" y1="82.4062" y2="82.4062" id="linearGradient20" spreadMethod="reflect">
        <stop stop-opacity="1" stop-color="rgb(211,221,239)" offset="0%"/>
        <stop stop-opacity="1" stop-color="white" offset="100%"/>
      </linearGradient>
      <clipPath clipPathUnits="userSpaceOnUse" id="clipPath1">
        <path d="M0 0 L2061 0 L2061 235 L0 235 L0 0 Z"/>
      </clipPath>
      <clipPath clipPathUnits="userSpaceOnUse" id="clipPath2">
        <path d="M1492.4817 160.7031 L1492.4817 177 C1492.4817 179.2091 1494.2726 181 1496.4817 181 L1644.0117 181 C1646.2208 181 1648.0117 179.2091 1648.0117 177 L1648.0117 160.7031 C1648.0117 158.494 1646.2208 156.7031 1644.0117 156.7031 L1496.4817 156.7031 C1494.2726 156.7031 1492.4817 158.494 1492.4817 160.7031 Z"/>
      </clipPath>
      <clipPath clipPathUnits="userSpaceOnUse" id="clipPath3">
        <path d="M1840.8817 160.7031 L1840.8817 177 C1840.8817 179.2091 1842.6725 181 1844.8817 181 L1895.5917 181 C1897.8008 181 1899.5917 179.2091 1899.5917 177 L1899.5917 160.7031 C1899.5917 158.494 1897.8008 156.7031 1895.5917 156.7031 L1844.8817 156.7031 C1842.6725 156.7031 1840.8817 158.494 1840.8817 160.7031 Z"/>
      </clipPath>
      <clipPath clipPathUnits="userSpaceOnUse" id="clipPath4">
        <path d="M1651.2317 32.1094 L1651.2317 48.4062 C1651.2317 50.6154 1653.0226 52.4062 1655.2317 52.4062 L1753.3217 52.4062 C1755.5308 52.4062 1757.3217 50.6154 1757.3217 48.4062 L1757.3217 32.1094 C1757.3217 29.9002 1755.5308 28.1094 1753.3217 28.1094 L1655.2317 28.1094 C1653.0226 28.1094 1651.2317 29.9002 1651.2317 32.1094 Z"/>
      </clipPath>
      <clipPath clipPathUnits="userSpaceOnUse" id="clipPath5">
        <path d="M1787.3217 32.1094 L1787.3217 48.4062 C1787.3217 50.6154 1789.1125 52.4062 1791.3217 52.4062 L1838.9417 52.4062 C1841.1508 52.4062 1842.9417 50.6154 1842.9417 48.4062 L1842.9417 32.1094 C1842.9417 29.9002 1841.1508 28.1094 1838.9417 28.1094 L1791.3217 28.1094 C1789.1125 28.1094 1787.3217 29.9002 1787.3217 32.1094 Z"/>
      </clipPath>
      <clipPath clipPathUnits="userSpaceOnUse" id="clipPath6">
        <path d="M1872.9417 32.1094 L1872.9417 48.4062 C1872.9417 50.6154 1874.7325 52.4062 1876.9417 52.4062 L2038.8917 52.4062 C2041.1008 52.4062 2042.8917 50.6154 2042.8917 48.4062 L2042.8917 32.1094 C2042.8917 29.9002 2041.1008 28.1094 2038.8917 28.1094 L1876.9417 28.1094 C1874.7325 28.1094 1872.9417 29.9002 1872.9417 32.1094 Z"/>
      </clipPath>
      <clipPath clipPathUnits="userSpaceOnUse" id="clipPath7">
        <path d="M1854.2716 86.4062 L1854.2716 102.7031 C1854.2716 104.9123 1856.0625 106.7031 1858.2716 106.7031 L1927.5216 106.7031 C1929.7308 106.7031 1931.5216 104.9123 1931.5216 102.7031 L1931.5216 86.4062 C1931.5216 84.1971 1929.7308 82.4062 1927.5216 82.4062 L1858.2716 82.4062 C1856.0625 82.4062 1854.2716 84.1971 1854.2716 86.4062 Z"/>
      </clipPath>
      <clipPath clipPathUnits="userSpaceOnUse" id="clipPath8">
        <path d="M1473.9417 86.4062 L1473.9417 102.7031 C1473.9417 104.9123 1475.7325 106.7031 1477.9417 106.7031 L1617.2317 106.7031 C1619.4408 106.7031 1621.2317 104.9123 1621.2317 102.7031 L1621.2317 86.4062 C1621.2317 84.1971 1619.4408 82.4062 1617.2317 82.4062 L1477.9417 82.4062 C1475.7325 82.4062 1473.9417 84.1971 1473.9417 86.4062 Z"/>
      </clipPath>
      <clipPath clipPathUnits="userSpaceOnUse" id="clipPath9">
        <path d="M1678.0117 160.7031 L1678.0117 177 C1678.0117 179.2091 1679.8025 181 1682.0117 181 L1806.8817 181 C1809.0908 181 1810.8817 179.2091 1810.8817 177 L1810.8817 160.7031 C1810.8817 158.494 1809.0908 156.7031 1806.8817 156.7031 L1682.0117 156.7031 C1679.8025 156.7031 1678.0117 158.494 1678.0117 160.7031 Z"/>
      </clipPath>
      <clipPath clipPathUnits="userSpaceOnUse" id="clipPath10">
        <path d="M1651.2317 86.4062 L1651.2317 102.7031 C1651.2317 104.9123 1653.0226 106.7031 1655.2317 106.7031 L1820.2716 106.7031 C1822.4808 106.7031 1824.2716 104.9123 1824.2716 102.7031 L1824.2716 86.4062 C1824.2716 84.1971 1822.4808 82.4062 1820.2716 82.4062 L1655.2317 82.4062 C1653.0226 82.4062 1651.2317 84.1971 1651.2317 86.4062 Z"/>
      </clipPath>
      <clipPath clipPathUnits="userSpaceOnUse" id="clipPath11">
        <path d="M1961.5216 86.4062 L1961.5216 102.7031 C1961.5216 104.9123 1963.3125 106.7031 1965.5216 106.7031 L2038.8917 106.7031 C2041.1008 106.7031 2042.8917 104.9123 2042.8917 102.7031 L2042.8917 86.4062 C2042.8917 84.1971 2041.1008 82.4062 2038.8917 82.4062 L1965.5216 82.4062 C1963.3125 82.4062 1961.5216 84.1971 1961.5216 86.4062 Z"/>
      </clipPath>
      <clipPath clipPathUnits="userSpaceOnUse" id="clipPath12">
        <path d="M1929.5917 160.7031 L1929.5917 177 C1929.5917 179.2091 1931.3826 181 1933.5917 181 L2038.8917 181 C2041.1008 181 2042.8917 179.2091 2042.8917 177 L2042.8917 160.7031 C2042.8917 158.494 2041.1008 156.7031 2038.8917 156.7031 L1933.5917 156.7031 C1931.3826 156.7031 1929.5917 158.494 1929.5917 160.7031 Z"/>
      </clipPath>
      <clipPath clipPathUnits="userSpaceOnUse" id="clipPath13">
        <path d="M8.5 86.4062 L8.5 102.7031 C8.5 104.9123 10.2909 106.7031 12.5 106.7031 L200.2 106.7031 C202.4091 106.7031 204.2 104.9123 204.2 102.7031 L204.2 86.4062 C204.2 84.1971 202.4091 82.4062 200.2 82.4062 L12.5 82.4062 C10.2909 82.4062 8.5 84.1971 8.5 86.4062 Z"/>
      </clipPath>
      <clipPath clipPathUnits="userSpaceOnUse" id="clipPath14">
        <path d="M234.2001 86.4062 L234.2001 102.7031 C234.2001 104.9123 235.9909 106.7031 238.2001 106.7031 L462.9801 106.7031 C465.1892 106.7031 466.9801 104.9123 466.9801 102.7031 L466.9801 86.4062 C466.9801 84.1971 465.1892 82.4062 462.9801 82.4062 L238.2001 82.4062 C235.9909 82.4062 234.2001 84.1971 234.2001 86.4062 Z"/>
      </clipPath>
      <clipPath clipPathUnits="userSpaceOnUse" id="clipPath15">
        <path d="M614.7227 160.7031 L614.7227 177 C614.7227 179.2091 616.5135 181 618.7227 181 L750.8027 181 C753.0118 181 754.8027 179.2091 754.8027 177 L754.8027 160.7031 C754.8027 158.494 753.0118 156.7031 750.8027 156.7031 L618.7227 156.7031 C616.5135 156.7031 614.7227 158.494 614.7227 160.7031 Z"/>
      </clipPath>
      <clipPath clipPathUnits="userSpaceOnUse" id="clipPath16">
        <path d="M496.9801 86.4062 L496.9801 102.7031 C496.9801 104.9123 498.7709 106.7031 500.9801 106.7031 L646.4501 106.7031 C648.6592 106.7031 650.4501 104.9123 650.4501 102.7031 L650.4501 86.4062 C650.4501 84.1971 648.6592 82.4062 646.4501 82.4062 L500.9801 82.4062 C498.7709 82.4062 496.9801 84.1971 496.9801 86.4062 Z"/>
      </clipPath>
      <clipPath clipPathUnits="userSpaceOnUse" id="clipPath17">
        <path d="M680.4503 86.4062 L680.4503 102.7031 C680.4503 104.9123 682.2411 106.7031 684.4503 106.7031 L907.1703 106.7031 C909.3795 106.7031 911.1703 104.9123 911.1703 102.7031 L911.1703 86.4062 C911.1703 84.1971 909.3795 82.4062 907.1703 82.4062 L684.4503 82.4062 C682.2411 82.4062 680.4503 84.1971 680.4503 86.4062 Z"/>
      </clipPath>
      <clipPath clipPathUnits="userSpaceOnUse" id="clipPath18">
        <path d="M941.1704 86.4062 L941.1704 102.7031 C941.1704 104.9123 942.9612 106.7031 945.1704 106.7031 L1170.9803 106.7031 C1173.1896 106.7031 1174.9803 104.9123 1174.9803 102.7031 L1174.9803 86.4062 C1174.9803 84.1971 1173.1896 82.4062 1170.9803 82.4062 L945.1704 82.4062 C942.9612 82.4062 941.1704 84.1971 941.1704 86.4062 Z"/>
      </clipPath>
      <clipPath clipPathUnits="userSpaceOnUse" id="clipPath19">
        <path d="M1187.4707 32.1094 L1187.4707 48.4062 C1187.4707 50.6154 1189.2616 52.4062 1191.4707 52.4062 L1457.4507 52.4062 C1459.6599 52.4062 1461.4507 50.6154 1461.4507 48.4062 L1461.4507 32.1094 C1461.4507 29.9002 1459.6599 28.1094 1457.4507 28.1094 L1191.4707 28.1094 C1189.2616 28.1094 1187.4707 29.9002 1187.4707 32.1094 Z"/>
      </clipPath>
      <clipPath clipPathUnits="userSpaceOnUse" id="clipPath20">
        <path d="M1204.9807 86.4062 L1204.9807 102.7031 C1204.9807 104.9123 1206.7716 106.7031 1208.9807 106.7031 L1439.9407 106.7031 C1442.1499 106.7031 1443.9407 104.9123 1443.9407 102.7031 L1443.9407 86.4062 C1443.9407 84.1971 1442.1499 82.4062 1439.9407 82.4062 L1208.9807 82.4062 C1206.7716 82.4062 1204.9807 84.1971 1204.9807 86.4062 Z"/>
      </clipPath>
      <script type="text/ecmascript"><![CDATA[
function umlload(newLocation)
{
if (newLocation.charAt(0) != '#') {
if (newLocation.indexOf("://") > -1) {
window.parent.location.href = newLocation;
} else {
var tmp = window.parent.location.href;
tmp = tmp.substring(0, tmp.lastIndexOf("/") + 1);
window.parent.location.href = tmp.concat(newLocation);
}
} else {
window.parent.location.hash = newLocation;
}
}
]]></script>
    </defs>
    <g fill="rgb(216,216,216)" transform="matrix(1,0,0,1,0,1) translate(5,5)" stroke="rgb(216,216,216)">
      <rect x="0.5" y="-0.8906" width="2055.3917" rx="4" ry="4" height="38.2969" stroke="none"/>
    </g>
    <g fill="url(#linearGradient1)" transform="matrix(1,0,0,1,0,1)" stroke="url(#linearGradient1)">
      <rect x="0.5" y="-0.8906" width="2055.3917" rx="4" ry="4" height="38.2969" stroke="none"/>
    </g>
    <g fill="rgb(200,205,222)" stroke-miterlimit="1.45" transform="matrix(1,0,0,1,0,1)" stroke-linecap="butt" stroke="rgb(200,205,222)">
      <rect x="0.5" y="-0.8906" fill="none" width="2055.3917" rx="4" ry="4" height="38.2969"/>
    </g>
    <g fill="rgb(216,216,216)" transform="matrix(1,0,0,1,0,1) translate(5,5)" stroke="rgb(216,216,216)">
      <rect x="0.5" y="19.4062" width="2055.3917" rx="4" ry="4" height="174.5938" stroke="none"/>
    </g>
    <g fill="rgb(240,244,255)" transform="matrix(1,0,0,1,0,1)" stroke="rgb(240,244,255)">
      <rect x="0.5" y="19.4062" width="2055.3917" rx="4" ry="4" height="174.5938" stroke="none"/>
    </g>
    <g fill="rgb(200,205,222)" stroke-miterlimit="1.45" transform="matrix(1,0,0,1,0,1)" stroke-linecap="butt" stroke="rgb(200,205,222)">
      <rect x="0.5" y="19.4062" fill="none" width="2055.3917" rx="4" ry="4" height="174.5938"/>
    </g>
    <g font-size="14" font-weight="bold" font-family="sans-serif" transform="matrix(1,0,0,1,0,1)">
      <text xml:space="preserve" x="990.6959" y="14.1094" stroke="none">Packages</text>
    </g>
    <g fill="rgb(216,216,216)" transform="matrix(1,0,0,1,0,1) translate(5,5)" stroke="rgb(216,216,216)">
      <rect x="1492.4817" y="156.7031" width="155.53" rx="4" ry="4" height="24.2969" stroke="none"/>
    </g>
    <g fill="url(#linearGradient2)" transform="matrix(1,0,0,1,0,1)" stroke="url(#linearGradient2)">
      <rect x="1492.4817" y="156.7031" clip-path="url(#clipPath2)" width="155.53" height="24.2969" stroke="none"/>
    </g>
    <g fill="rgb(154,152,146)" stroke-miterlimit="1.45" transform="matrix(1,0,0,1,0,1)" stroke-linecap="butt" stroke="rgb(154,152,146)">
      <rect x="1492.4817" y="156.7031" fill="none" width="155.53" rx="4" ry="4" height="24.2969"/>
    </g>
    <g font-size="14" font-weight="bold" font-family="sans-serif" transform="matrix(1,0,0,1,0,1)">
      <text xml:space="preserve" x="1498.7467" y="173.7031" onclick="umlload('police/types/OutcomeCategory.html')" stroke="none">OutcomeCategory</text>
    </g>
    <g fill="rgb(216,216,216)" transform="matrix(1,0,0,1,0,1) translate(5,5)" stroke="rgb(216,216,216)">
      <rect x="1840.8817" y="156.7031" width="58.71" rx="4" ry="4" height="24.2969" stroke="none"/>
    </g>
    <g fill="url(#linearGradient3)" transform="matrix(1,0,0,1,0,1)" stroke="url(#linearGradient3)">
      <rect x="1840.8817" y="156.7031" clip-path="url(#clipPath3)" width="58.71" height="24.2969" stroke="none"/>
    </g>
    <g fill="rgb(154,152,146)" stroke-miterlimit="1.45" transform="matrix(1,0,0,1,0,1)" stroke-linecap="butt" stroke="rgb(154,152,146)">
      <rect x="1840.8817" y="156.7031" fill="none" width="58.71" rx="4" ry="4" height="24.2969"/>
    </g>
    <g font-size="14" font-weight="bold" font-family="sans-serif" transform="matrix(1,0,0,1,0,1)">
      <text xml:space="preserve" x="1845.7367" y="173.7031" onclick="umlload('police/types/Street.html')" stroke="none">Street</text>
    </g>
    <g fill="rgb(216,216,216)" transform="matrix(1,0,0,1,0,1) translate(5,5)" stroke="rgb(216,216,216)">
      <rect x="1651.2317" y="28.1094" width="106.09" rx="4" ry="4" height="24.2969" stroke="none"/>
    </g>
    <g fill="url(#linearGradient4)" transform="matrix(1,0,0,1,0,1)" stroke="url(#linearGradient4)">
      <rect x="1651.2317" y="28.1094" clip-path="url(#clipPath4)" width="106.09" height="24.2969" stroke="none"/>
    </g>
    <g fill="rgb(154,152,146)" stroke-miterlimit="1.45" transform="matrix(1,0,0,1,0,1)" stroke-linecap="butt" stroke="rgb(154,152,146)">
      <rect x="1651.2317" y="28.1094" fill="none" width="106.09" rx="4" ry="4" height="24.2969"/>
    </g>
    <g font-size="14" font-weight="bold" font-family="sans-serif" transform="matrix(1,0,0,1,0,1)">
      <text xml:space="preserve" x="1656.7766" y="45.1094" onclick="umlload('police/types/CaseHistory.html')" stroke="none">CaseHistory</text>
    </g>
    <g fill="rgb(216,216,216)" transform="matrix(1,0,0,1,0,1) translate(5,5)" stroke="rgb(216,216,216)">
      <rect x="1787.3217" y="28.1094" width="55.62" rx="4" ry="4" height="24.2969" stroke="none"/>
    </g>
    <g fill="url(#linearGradient5)" transform="matrix(1,0,0,1,0,1)" stroke="url(#linearGradient5)">
      <rect x="1787.3217" y="28.1094" clip-path="url(#clipPath5)" width="55.62" height="24.2969" stroke="none"/>
    </g>
    <g fill="rgb(154,152,146)" stroke-miterlimit="1.45" transform="matrix(1,0,0,1,0,1)" stroke-linecap="butt" stroke="rgb(154,152,146)">
      <rect x="1787.3217" y="28.1094" fill="none" width="55.62" rx="4" ry="4" height="24.2969"/>
    </g>
    <g font-size="14" font-weight="bold" font-family="sans-serif" transform="matrix(1,0,0,1,0,1)">
      <text xml:space="preserve" x="1792.1317" y="45.1094" onclick="umlload('police/types/Crime.html')" stroke="none">Crime</text>
    </g>
    <g fill="rgb(216,216,216)" transform="matrix(1,0,0,1,0,1) translate(5,5)" stroke="rgb(216,216,216)">
      <rect x="1872.9417" y="28.1094" width="169.95" rx="4" ry="4" height="24.2969" stroke="none"/>
    </g>
    <g fill="url(#linearGradient6)" transform="matrix(1,0,0,1,0,1)" stroke="url(#linearGradient6)">
      <rect x="1872.9417" y="28.1094" clip-path="url(#clipPath6)" width="169.95" height="24.2969" stroke="none"/>
    </g>
    <g fill="rgb(154,152,146)" stroke-miterlimit="1.45" transform="matrix(1,0,0,1,0,1)" stroke-linecap="butt" stroke="rgb(154,152,146)">
      <rect x="1872.9417" y="28.1094" fill="none" width="169.95" rx="4" ry="4" height="24.2969"/>
    </g>
    <g font-size="14" font-weight="bold" font-family="sans-serif" transform="matrix(1,0,0,1,0,1)">
      <text xml:space="preserve" x="1879.4166" y="45.1094" onclick="umlload('police/types/EngagementMethod.html')" stroke="none">EngagementMethod</text>
    </g>
    <g fill="rgb(216,216,216)" transform="matrix(1,0,0,1,0,1) translate(5,5)" stroke="rgb(216,216,216)">
      <rect x="1854.2717" y="82.4062" width="77.25" rx="4" ry="4" height="24.2969" stroke="none"/>
    </g>
    <g fill="url(#linearGradient7)" transform="matrix(1,0,0,1,0,1)" stroke="url(#linearGradient7)">
      <rect x="1854.2717" y="82.4062" clip-path="url(#clipPath7)" width="77.25" height="24.2969" stroke="none"/>
    </g>
    <g fill="rgb(154,152,146)" stroke-miterlimit="1.45" transform="matrix(1,0,0,1,0,1)" stroke-linecap="butt" stroke="rgb(154,152,146)">
      <rect x="1854.2717" y="82.4062" fill="none" width="77.25" rx="4" ry="4" height="24.2969"/>
    </g>
    <g font-size="14" font-weight="bold" font-family="sans-serif" transform="matrix(1,0,0,1,0,1)">
      <text xml:space="preserve" x="1859.3966" y="99.4062" onclick="umlload('police/types/Location.html')" stroke="none">Location</text>
    </g>
    <g fill="rgb(216,216,216)" transform="matrix(1,0,0,1,0,1) translate(5,5)" stroke="rgb(216,216,216)">
      <rect x="1473.9417" y="82.4062" width="147.29" rx="4" ry="4" height="24.2969" stroke="none"/>
    </g>
    <g fill="url(#linearGradient8)" transform="matrix(1,0,0,1,0,1)" stroke="url(#linearGradient8)">
      <rect x="1473.9417" y="82.4062" clip-path="url(#clipPath8)" width="147.29" height="24.2969" stroke="none"/>
    </g>
    <g fill="rgb(154,152,146)" stroke-miterlimit="1.45" transform="matrix(1,0,0,1,0,1)" stroke-linecap="butt" stroke="rgb(154,152,146)">
      <rect x="1473.9417" y="82.4062" fill="none" width="147.29" rx="4" ry="4" height="24.2969"/>
    </g>
    <g font-size="14" font-weight="bold" font-family="sans-serif" transform="matrix(1,0,0,1,0,1)">
      <text xml:space="preserve" x="1480.0867" y="99.4062" onclick="umlload('police/types/ForceInformation.html')" stroke="none">ForceInformation</text>
    </g>
    <g fill="rgb(216,216,216)" transform="matrix(1,0,0,1,0,1) translate(5,5)" stroke="rgb(216,216,216)">
      <rect x="1678.0117" y="156.7031" width="132.87" rx="4" ry="4" height="24.2969" stroke="none"/>
    </g>
    <g fill="url(#linearGradient9)" transform="matrix(1,0,0,1,0,1)" stroke="url(#linearGradient9)">
      <rect x="1678.0117" y="156.7031" clip-path="url(#clipPath9)" width="132.87" height="24.2969" stroke="none"/>
    </g>
    <g fill="rgb(154,152,146)" stroke-miterlimit="1.45" transform="matrix(1,0,0,1,0,1)" stroke-linecap="butt" stroke="rgb(154,152,146)">
      <rect x="1678.0117" y="156.7031" fill="none" width="132.87" rx="4" ry="4" height="24.2969"/>
    </g>
    <g font-size="14" font-weight="bold" font-family="sans-serif" transform="matrix(1,0,0,1,0,1)">
      <text xml:space="preserve" x="1683.9467" y="173.7031" onclick="umlload('police/types/OutcomeStatus.html')" stroke="none">OutcomeStatus</text>
    </g>
    <g fill="rgb(216,216,216)" transform="matrix(1,0,0,1,0,1) translate(5,5)" stroke="rgb(216,216,216)">
      <rect x="1651.2317" y="82.4062" width="173.04" rx="4" ry="4" height="24.2969" stroke="none"/>
    </g>
    <g fill="url(#linearGradient10)" transform="matrix(1,0,0,1,0,1)" stroke="url(#linearGradient10)">
      <rect x="1651.2317" y="82.4062" clip-path="url(#clipPath10)" width="173.04" height="24.2969" stroke="none"/>
    </g>
    <g fill="rgb(154,152,146)" stroke-miterlimit="1.45" transform="matrix(1,0,0,1,0,1)" stroke-linecap="butt" stroke="rgb(154,152,146)">
      <rect x="1651.2317" y="82.4062" fill="none" width="173.04" rx="4" ry="4" height="24.2969"/>
    </g>
    <g font-size="14" font-weight="bold" font-family="sans-serif" transform="matrix(1,0,0,1,0,1)">
      <text xml:space="preserve" x="1657.7517" y="99.4062" onclick="umlload('police/types/KeyValuePair.html')" stroke="none">KeyValuePair&lt;K, V&gt;</text>
    </g>
    <g fill="rgb(216,216,216)" transform="matrix(1,0,0,1,0,1) translate(5,5)" stroke="rgb(216,216,216)">
      <rect x="1961.5217" y="82.4062" width="81.37" rx="4" ry="4" height="24.2969" stroke="none"/>
    </g>
    <g fill="url(#linearGradient11)" transform="matrix(1,0,0,1,0,1)" stroke="url(#linearGradient11)">
      <rect x="1961.5217" y="82.4062" clip-path="url(#clipPath11)" width="81.37" height="24.2969" stroke="none"/>
    </g>
    <g fill="rgb(154,152,146)" stroke-miterlimit="1.45" transform="matrix(1,0,0,1,0,1)" stroke-linecap="butt" stroke="rgb(154,152,146)">
      <rect x="1961.5217" y="82.4062" fill="none" width="81.37" rx="4" ry="4" height="24.2969"/>
    </g>
    <g font-size="14" font-weight="bold" font-family="sans-serif" transform="matrix(1,0,0,1,0,1)">
      <text xml:space="preserve" x="1966.7067" y="99.4062" onclick="umlload('police/types/Outcome.html')" stroke="none">Outcome</text>
    </g>
    <g fill="rgb(216,216,216)" transform="matrix(1,0,0,1,0,1) translate(5,5)" stroke="rgb(216,216,216)">
      <rect x="1929.5917" y="156.7031" width="113.3" rx="4" ry="4" height="24.2969" stroke="none"/>
    </g>
    <g fill="url(#linearGradient12)" transform="matrix(1,0,0,1,0,1)" stroke="url(#linearGradient12)">
      <rect x="1929.5917" y="156.7031" clip-path="url(#clipPath12)" width="113.3" height="24.2969" stroke="none"/>
    </g>
    <g fill="rgb(154,152,146)" stroke-miterlimit="1.45" transform="matrix(1,0,0,1,0,1)" stroke-linecap="butt" stroke="rgb(154,152,146)">
      <rect x="1929.5917" y="156.7031" fill="none" width="113.3" rx="4" ry="4" height="24.2969"/>
    </g>
    <g font-size="14" font-weight="bold" font-family="sans-serif" transform="matrix(1,0,0,1,0,1)">
      <text xml:space="preserve" x="1935.2417" y="173.7031" onclick="umlload('police/errors/APIException.html')" stroke="none">APIException</text>
    </g>
    <g fill="rgb(216,216,216)" transform="matrix(1,0,0,1,0,1) translate(5,5)" stroke="rgb(216,216,216)">
      <rect x="8.5" y="82.4062" width="195.7" rx="4" ry="4" height="24.2969" stroke="none"/>
    </g>
    <g fill="url(#linearGradient13)" transform="matrix(1,0,0,1,0,1)" stroke="url(#linearGradient13)">
      <rect x="8.5" y="82.4062" clip-path="url(#clipPath13)" width="195.7" height="24.2969" stroke="none"/>
    </g>
    <g fill="rgb(154,152,146)" stroke-miterlimit="1.45" transform="matrix(1,0,0,1,0,1)" stroke-linecap="butt" stroke="rgb(154,152,146)">
      <rect x="8.5" y="82.4062" fill="none" width="195.7" rx="4" ry="4" height="24.2969"/>
    </g>
    <g font-size="14" font-weight="bold" font-family="sans-serif" transform="matrix(1,0,0,1,0,1)">
      <text xml:space="preserve" x="15.35" y="99.4062" onclick="umlload('police/methodcalls/CaseHistoryMethodCall.html')" stroke="none">CaseHistoryMethodCall</text>
    </g>
    <g fill="rgb(216,216,216)" transform="matrix(1,0,0,1,0,1) translate(5,5)" stroke="rgb(216,216,216)">
      <rect x="234.2001" y="82.4062" width="232.78" rx="4" ry="4" height="24.2969" stroke="none"/>
    </g>
    <g fill="url(#linearGradient14)" transform="matrix(1,0,0,1,0,1)" stroke="url(#linearGradient14)">
      <rect x="234.2001" y="82.4062" clip-path="url(#clipPath14)" width="232.78" height="24.2969" stroke="none"/>
    </g>
    <g fill="rgb(154,152,146)" stroke-miterlimit="1.45" transform="matrix(1,0,0,1,0,1)" stroke-linecap="butt" stroke="rgb(154,152,146)">
      <rect x="234.2001" y="82.4062" fill="none" width="232.78" rx="4" ry="4" height="24.2969"/>
    </g>
    <g font-size="14" font-weight="bold" font-family="sans-serif" transform="matrix(1,0,0,1,0,1)">
      <text xml:space="preserve" x="241.5901" y="99.4062" onclick="umlload('police/methodcalls/NeighbourhoodsMethodCall.html')" stroke="none">NeighbourhoodsMethodCall</text>
    </g>
    <g fill="rgb(216,216,216)" transform="matrix(1,0,0,1,0,1) translate(5,5)" stroke="rgb(216,216,216)">
      <rect x="614.7227" y="156.7031" width="140.08" rx="4" ry="4" height="24.2969" stroke="none"/>
    </g>
    <g fill="url(#linearGradient15)" transform="matrix(1,0,0,1,0,1)" stroke="url(#linearGradient15)">
      <rect x="614.7227" y="156.7031" clip-path="url(#clipPath15)" width="140.08" height="24.2969" stroke="none"/>
    </g>
    <g stroke-linecap="butt" transform="matrix(1,0,0,1,0,1)" fill="rgb(154,152,146)" stroke-dasharray="6,2" stroke="rgb(154,152,146)" stroke-miterlimit="1.45">
      <rect x="614.7227" y="156.7031" fill="none" width="140.08" rx="4" ry="4" height="24.2969"/>
    </g>
    <g font-style="italic" font-size="14" font-weight="bold" font-family="sans-serif" transform="matrix(1,0,0,1,0,1)">
      <text xml:space="preserve" x="620.7627" y="173.7031" onclick="umlload('police/methodcalls/BaseMethodCall.html')" stroke="none">BaseMethodCall</text>
    </g>
    <g fill="rgb(216,216,216)" transform="matrix(1,0,0,1,0,1) translate(5,5)" stroke="rgb(216,216,216)">
      <rect x="496.9801" y="82.4062" width="153.47" rx="4" ry="4" height="24.2969" stroke="none"/>
    </g>
    <g fill="url(#linearGradient16)" transform="matrix(1,0,0,1,0,1)" stroke="url(#linearGradient16)">
      <rect x="496.9801" y="82.4062" clip-path="url(#clipPath16)" width="153.47" height="24.2969" stroke="none"/>
    </g>
    <g fill="rgb(154,152,146)" stroke-miterlimit="1.45" transform="matrix(1,0,0,1,0,1)" stroke-linecap="butt" stroke="rgb(154,152,146)">
      <rect x="496.9801" y="82.4062" fill="none" width="153.47" rx="4" ry="4" height="24.2969"/>
    </g>
    <g font-size="14" font-weight="bold" font-family="sans-serif" transform="matrix(1,0,0,1,0,1)">
      <text xml:space="preserve" x="503.2151" y="99.4062" onclick="umlload('police/methodcalls/ForcesMethodCall.html')" stroke="none">ForcesMethodCall</text>
    </g>
    <g fill="rgb(216,216,216)" transform="matrix(1,0,0,1,0,1) translate(5,5)" stroke="rgb(216,216,216)">
      <rect x="680.4503" y="82.4062" width="230.72" rx="4" ry="4" height="24.2969" stroke="none"/>
    </g>
    <g fill="url(#linearGradient17)" transform="matrix(1,0,0,1,0,1)" stroke="url(#linearGradient17)">
      <rect x="680.4503" y="82.4062" clip-path="url(#clipPath17)" width="230.72" height="24.2969" stroke="none"/>
    </g>
    <g fill="rgb(154,152,146)" stroke-miterlimit="1.45" transform="matrix(1,0,0,1,0,1)" stroke-linecap="butt" stroke="rgb(154,152,146)">
      <rect x="680.4503" y="82.4062" fill="none" width="230.72" rx="4" ry="4" height="24.2969"/>
    </g>
    <g font-size="14" font-weight="bold" font-family="sans-serif" transform="matrix(1,0,0,1,0,1)">
      <text xml:space="preserve" x="687.8103" y="99.4062" onclick="umlload('police/methodcalls/CrimeAvailabilityMethodCall.html')" stroke="none">CrimeAvailabilityMethodCall</text>
    </g>
    <g fill="rgb(216,216,216)" transform="matrix(1,0,0,1,0,1) translate(5,5)" stroke="rgb(216,216,216)">
      <rect x="941.1704" y="82.4062" width="233.81" rx="4" ry="4" height="24.2969" stroke="none"/>
    </g>
    <g fill="url(#linearGradient18)" transform="matrix(1,0,0,1,0,1)" stroke="url(#linearGradient18)">
      <rect x="941.1704" y="82.4062" clip-path="url(#clipPath18)" width="233.81" height="24.2969" stroke="none"/>
    </g>
    <g fill="rgb(154,152,146)" stroke-miterlimit="1.45" transform="matrix(1,0,0,1,0,1)" stroke-linecap="butt" stroke="rgb(154,152,146)">
      <rect x="941.1704" y="82.4062" fill="none" width="233.81" rx="4" ry="4" height="24.2969"/>
    </g>
    <g font-size="14" font-weight="bold" font-family="sans-serif" transform="matrix(1,0,0,1,0,1)">
      <text xml:space="preserve" x="948.5754" y="99.4062" onclick="umlload('police/methodcalls/CrimeCategoriesMethodCall.html')" stroke="none">CrimeCategoriesMethodCall</text>
    </g>
    <g fill="rgb(216,216,216)" transform="matrix(1,0,0,1,0,1) translate(5,5)" stroke="rgb(216,216,216)">
      <rect x="1187.4707" y="28.1094" width="273.98" rx="4" ry="4" height="24.2969" stroke="none"/>
    </g>
    <g fill="url(#linearGradient19)" transform="matrix(1,0,0,1,0,1)" stroke="url(#linearGradient19)">
      <rect x="1187.4707" y="28.1094" clip-path="url(#clipPath19)" width="273.98" height="24.2969" stroke="none"/>
    </g>
    <g fill="rgb(154,152,146)" stroke-miterlimit="1.45" transform="matrix(1,0,0,1,0,1)" stroke-linecap="butt" stroke="rgb(154,152,146)">
      <rect x="1187.4707" y="28.1094" fill="none" width="273.98" rx="4" ry="4" height="24.2969"/>
    </g>
    <g font-size="14" font-weight="bold" font-family="sans-serif" transform="matrix(1,0,0,1,0,1)">
      <text xml:space="preserve" x="1195.4607" y="45.1094" onclick="umlload('police/methodcalls/StreetLevelOutcomesMethodCall.html')" stroke="none">StreetLevelOutcomesMethodCall</text>
    </g>
    <g fill="rgb(216,216,216)" transform="matrix(1,0,0,1,0,1) translate(5,5)" stroke="rgb(216,216,216)">
      <rect x="1204.9807" y="82.4062" width="238.96" rx="4" ry="4" height="24.2969" stroke="none"/>
    </g>
    <g fill="url(#linearGradient20)" transform="matrix(1,0,0,1,0,1)" stroke="url(#linearGradient20)">
      <rect x="1204.9807" y="82.4062" clip-path="url(#clipPath20)" width="238.96" height="24.2969" stroke="none"/>
    </g>
    <g fill="rgb(154,152,146)" stroke-miterlimit="1.45" transform="matrix(1,0,0,1,0,1)" stroke-linecap="butt" stroke="rgb(154,152,146)">
      <rect x="1204.9807" y="82.4062" fill="none" width="238.96" rx="4" ry="4" height="24.2969"/>
    </g>
    <g font-size="14" font-weight="bold" font-family="sans-serif" transform="matrix(1,0,0,1,0,1)">
      <text xml:space="preserve" x="1212.4607" y="99.4062" onclick="umlload('police/methodcalls/StreetLevelCrimeMethodCall.html')" stroke="none">StreetLevelCrimeMethodCall</text>
    </g>
    <g font-family="sans-serif" transform="matrix(1,0,0,1,0,1)">
      <text xml:space="preserve" x="6" y="223.1562" onclick="umlload('http://www.yworks.com/')" stroke="none">yWorks UML Doclet</text>
    </g>
    <g fill="rgb(154,154,154)" stroke-miterlimit="1.45" transform="matrix(1,0,0,1,0,1)" stroke-linecap="butt" stroke="rgb(154,154,154)">
      <path fill="none" d="M106.35 106.7077 L106.35 131.7031 L684.7627 131.7031 L684.7627 141.6985"/>
      <path fill="white" d="M684.7627 156.6985 L690.7627 140.6985 L678.7627 140.6985 Z" stroke="none"/>
      <path fill="none" d="M684.7627 156.6985 L690.7627 140.6985 L678.7627 140.6985 Z"/>
      <path fill="none" d="M350.5901 106.7077 L350.5901 131.7031 L684.7627 131.7031 L684.7627 141.6985"/>
      <path fill="white" d="M684.7627 156.6985 L690.7627 140.6985 L678.7627 140.6985 Z" stroke="none"/>
      <path fill="none" d="M684.7627 156.6985 L690.7627 140.6985 L678.7627 140.6985 Z"/>
      <path fill="none" d="M573.7151 106.7077 L573.7151 131.7031 L684.7627 131.7031 L684.7627 141.6985"/>
      <path fill="white" d="M684.7627 156.6985 L690.7627 140.6985 L678.7627 140.6985 Z" stroke="none"/>
      <path fill="none" d="M684.7627 156.6985 L690.7627 140.6985 L678.7627 140.6985 Z"/>
      <path fill="none" d="M795.8103 106.7077 L795.8103 131.7031 L684.7627 131.7031 L684.7627 141.6985"/>
      <path fill="white" d="M684.7627 156.6985 L690.7627 140.6985 L678.7627 140.6985 Z" stroke="none"/>
      <path fill="none" d="M684.7627 156.6985 L690.7627 140.6985 L678.7627 140.6985 Z"/>
      <path fill="none" d="M1058.0754 106.7077 L1058.0754 131.7031 L684.7627 131.7031 L684.7627 141.6985"/>
      <path fill="white" d="M684.7627 156.6985 L690.7627 140.6985 L678.7627 140.6985 Z" stroke="none"/>
      <path fill="none" d="M684.7627 156.6985 L690.7627 140.6985 L678.7627 140.6985 Z"/>
      <path fill="none" d="M1324.4607 52.4269 L1324.4607 67.4183"/>
      <path fill="white" d="M1324.4607 82.4183 L1330.4607 66.4183 L1318.4607 66.4183 Z" stroke="none"/>
      <path fill="none" d="M1324.4607 82.4183 L1330.4607 66.4183 L1318.4607 66.4183 Z"/>
      <path fill="none" d="M1324.4607 106.7077 L1324.4607 131.7031 L684.7627 131.7031 L684.7627 141.6985"/>
      <path fill="white" d="M684.7627 156.6985 L690.7627 140.6985 L678.7627 140.6985 Z" stroke="none"/>
      <path fill="none" d="M684.7627 156.6985 L690.7627 140.6985 L678.7627 140.6985 Z"/>
    </g>
  </g>
</svg>
