<?xml version="1.0" encoding="UTF-8"?>
<svg xmlns="http://www.w3.org/2000/svg" xmlns:xlink="http://www.w3.org/1999/xlink" fill-opacity="1" color-rendering="auto" color-interpolation="auto" stroke="black" text-rendering="auto" stroke-linecap="square" width="1358" stroke-miterlimit="10" stroke-opacity="1" shape-rendering="auto" fill="black" stroke-dasharray="none" font-weight="normal" stroke-width="1" height="382" font-family="'Dialog'" font-style="normal" stroke-linejoin="miter" font-size="12" stroke-dashoffset="0" image-rendering="auto">
  <!--Generated by ySVG-->
  <defs id="genericDefs"/>
  <g>
    <defs id="defs1">
      <clipPath clipPathUnits="userSpaceOnUse" id="clipPath1">
        <path d="M0 0 L1358 0 L1358 382 L0 382 L0 0 Z"/>
      </clipPath>
      <clipPath clipPathUnits="userSpaceOnUse" id="clipPath2">
        <path d="M600.57 120.25 L770.52 120.25 L770.52 143.375 L600.57 143.375 L600.57 120.25 Z"/>
      </clipPath>
      <clipPath clipPathUnits="userSpaceOnUse" id="clipPath3">
        <path d="M1052.1284 169.7268 C1052.1284 178.7577 951.0436 186.0787 826.3492 186.0787 C701.6548 186.0787 600.57 178.7577 600.57 169.7268 C600.57 160.696 701.6548 153.375 826.3492 153.375 C951.0436 153.375 1052.1284 160.696 1052.1284 169.7268 Z"/>
      </clipPath>
      <clipPath clipPathUnits="userSpaceOnUse" id="clipPath4">
        <path d="M600.57 0 L662.37 0 L662.37 23.125 L600.57 23.125 L600.57 0 Z"/>
      </clipPath>
      <clipPath clipPathUnits="userSpaceOnUse" id="clipPath5">
        <path d="M600.57 33.125 L654.13 33.125 L654.13 56.25 L600.57 56.25 L600.57 33.125 Z"/>
      </clipPath>
      <clipPath clipPathUnits="userSpaceOnUse" id="clipPath6">
        <path d="M-288.66 0 L-113.56 0 L-113.56 23.125 L-288.66 23.125 L-288.66 0 Z"/>
      </clipPath>
      <clipPath clipPathUnits="userSpaceOnUse" id="clipPath7">
        <path d="M-288.66 33.125 L-143.43 33.125 L-143.43 56.25 L-288.66 56.25 L-288.66 33.125 Z"/>
      </clipPath>
      <clipPath clipPathUnits="userSpaceOnUse" id="clipPath8">
        <path d="M228.145 -107.125 L306.425 -107.125 L306.425 -84 L228.145 -84 L228.145 -107.125 Z"/>
      </clipPath>
      <clipPath clipPathUnits="userSpaceOnUse" id="clipPath9">
        <path d="M0 0 L534.57 0 L534.57 204.2969 L0 204.2969 L0 0 Z"/>
      </clipPath>
      <script type="text/ecmascript"><![CDATA[
function umlload(newLocation)
{
if (newLocation.charAt(0) != '#') {
if (newLocation.indexOf("://") > -1) {
window.parent.location.href = newLocation;
} else {
var tmp = window.parent.location.href;
tmp = tmp.substring(0, tmp.lastIndexOf("/") + 1);
window.parent.location.href = tmp.concat(newLocation);
}
} else {
window.parent.location.hash = newLocation;
}
}
]]></script>
    </defs>
    <g fill="rgb(238,238,255)" transform="matrix(1,0,0,1,297,134)" stroke="rgb(238,238,255)">
      <rect width="239.5198" x="592.57" height="17.9688" y="94.25" stroke="none"/>
    </g>
    <g fill="rgb(166,166,178)" stroke-miterlimit="1.45" transform="matrix(1,0,0,1,297,134)" stroke-linecap="butt" stroke="rgb(166,166,178)">
      <rect fill="none" width="239.5198" x="592.57" height="17.9688" y="94.25"/>
    </g>
    <g fill="rgb(238,238,255)" transform="matrix(1,0,0,1,297,134)" stroke="rgb(238,238,255)">
      <rect width="467.5584" x="592.57" height="81.8599" y="112.2188" stroke="none"/>
    </g>
    <g fill="rgb(166,166,178)" stroke-miterlimit="1.45" transform="matrix(1,0,0,1,297,134)" stroke-linecap="butt" stroke="rgb(166,166,178)">
      <rect fill="none" width="467.5584" x="592.57" height="81.8599" y="112.2188"/>
    </g>
    <g font-family="sans-serif" transform="matrix(1,0,0,1,297,134)">
      <text xml:space="preserve" x="598.57" y="107.3906" onclick="umlload('../../../lamparski/areabase/map_support/package-summary.html')" stroke="none">lamparski.areabase.map_support</text>
    </g>
    <g fill="rgb(170,170,255)" transform="matrix(1,0,0,1,297,134)" stroke="rgb(170,170,255)">
      <rect x="600.57" y="120.25" clip-path="url(#clipPath2)" width="169.95" height="23.125" stroke="none"/>
    </g>
    <g fill="rgb(118,118,178)" stroke-miterlimit="1.45" transform="matrix(1,0,0,1,297,134)" stroke-linecap="butt" stroke="rgb(118,118,178)">
      <rect fill="none" width="169.95" x="600.57" height="23.125" y="120.25"/>
    </g>
    <g font-size="13" font-weight="bold" font-family="sans-serif" transform="matrix(1,0,0,1,297,134)">
      <text xml:space="preserve" x="607.045" y="136.3125" onclick="umlload('../../../lamparski/areabase/map_support/HoloCSSColourValues.html')" stroke="none">HoloCSSColourValues</text>
    </g>
    <g fill="rgb(221,221,255)" transform="matrix(1,0,0,1,297,134)" stroke="rgb(221,221,255)">
      <rect x="600.57" y="153.375" clip-path="url(#clipPath3)" width="451.5584" height="32.7037" stroke="none"/>
    </g>
    <g fill="rgb(154,154,178)" stroke-miterlimit="1.45" transform="matrix(1,0,0,1,297,134)" stroke-linecap="butt" stroke="rgb(154,154,178)">
      <ellipse rx="225.7792" fill="none" ry="16.3518" cx="826.3492" cy="169.7268"/>
    </g>
    <g font-style="italic" font-size="13" font-weight="bold" font-family="sans-serif" transform="matrix(1,0,0,1,297,134)">
      <text xml:space="preserve" x="675.3492" y="174.2268" onclick="umlload('../../../lamparski/areabase/map_support/OSNativeInterface.OnMapLoadedListener.html')" stroke="none">OSNativeInterface.OnMapLoadedListener</text>
    </g>
    <g fill="rgb(238,238,255)" transform="matrix(1,0,0,1,297,134)" stroke="rgb(238,238,255)">
      <rect width="76.1412" x="592.57" height="17.9688" y="-26" stroke="none"/>
    </g>
    <g fill="rgb(166,166,178)" stroke-miterlimit="1.45" transform="matrix(1,0,0,1,297,134)" stroke-linecap="butt" stroke="rgb(166,166,178)">
      <rect fill="none" width="76.1412" x="592.57" height="17.9688" y="-26"/>
    </g>
    <g fill="rgb(238,238,255)" transform="matrix(1,0,0,1,297,134)" stroke="rgb(238,238,255)">
      <rect width="79.8" x="592.57" height="72.2812" y="-8.0312" stroke="none"/>
    </g>
    <g fill="rgb(166,166,178)" stroke-miterlimit="1.45" transform="matrix(1,0,0,1,297,134)" stroke-linecap="butt" stroke="rgb(166,166,178)">
      <rect fill="none" width="79.8" x="592.57" height="72.2812" y="-8.0312"/>
    </g>
    <g font-family="sans-serif" transform="matrix(1,0,0,1,297,134)">
      <text xml:space="preserve" x="598.57" y="-12.8594" stroke="none">java.lang</text>
    </g>
    <g fill="rgb(187,187,255)" transform="matrix(1,0,0,1,297,134)" stroke="rgb(187,187,255)">
      <rect x="600.57" y="0" clip-path="url(#clipPath4)" width="61.8" height="23.125" stroke="none"/>
    </g>
    <g fill="rgb(130,130,178)" stroke-miterlimit="1.45" transform="matrix(1,0,0,1,297,134)" stroke-linecap="butt" stroke="rgb(130,130,178)">
      <rect fill="none" width="61.8" x="600.57" height="23.125" y="0"/>
    </g>
    <g font-size="13" font-weight="bold" font-family="sans-serif" transform="matrix(1,0,0,1,297,134)">
      <text xml:space="preserve" x="605.47" y="16.0625" stroke="none">Double</text>
    </g>
    <g fill="rgb(187,187,255)" transform="matrix(1,0,0,1,297,134)" stroke="rgb(187,187,255)">
      <rect x="600.57" y="33.125" clip-path="url(#clipPath5)" width="53.56" height="23.125" stroke="none"/>
    </g>
    <g fill="rgb(130,130,178)" stroke-miterlimit="1.45" transform="matrix(1,0,0,1,297,134)" stroke-linecap="butt" stroke="rgb(130,130,178)">
      <rect fill="none" width="53.56" x="600.57" height="23.125" y="33.125"/>
    </g>
    <g font-size="13" font-weight="bold" font-family="sans-serif" transform="matrix(1,0,0,1,297,134)">
      <text xml:space="preserve" x="605.35" y="49.1875" stroke="none">String</text>
    </g>
    <g fill="rgb(238,238,255)" transform="matrix(1,0,0,1,297,134)" stroke="rgb(238,238,255)">
      <rect width="239.5198" x="-296.66" height="17.9688" y="-26" stroke="none"/>
    </g>
    <g fill="rgb(166,166,178)" stroke-miterlimit="1.45" transform="matrix(1,0,0,1,297,134)" stroke-linecap="butt" stroke="rgb(166,166,178)">
      <rect fill="none" width="239.5198" x="-296.66" height="17.9688" y="-26"/>
    </g>
    <g fill="rgb(238,238,255)" transform="matrix(1,0,0,1,297,134)" stroke="rgb(238,238,255)">
      <rect width="239.5198" x="-296.66" height="72.2812" y="-8.0312" stroke="none"/>
    </g>
    <g fill="rgb(166,166,178)" stroke-miterlimit="1.45" transform="matrix(1,0,0,1,297,134)" stroke-linecap="butt" stroke="rgb(166,166,178)">
      <rect fill="none" width="239.5198" x="-296.66" height="72.2812" y="-8.0312"/>
    </g>
    <g font-family="sans-serif" transform="matrix(1,0,0,1,297,134)">
      <text xml:space="preserve" x="-290.66" y="-12.8594" onclick="umlload('../../../lamparski/areabase/map_support/package-summary.html')" stroke="none">lamparski.areabase.map_support</text>
    </g>
    <g fill="rgb(187,187,255)" transform="matrix(1,0,0,1,297,134)" stroke="rgb(187,187,255)">
      <rect x="-288.66" y="0" clip-path="url(#clipPath6)" width="175.1" height="23.125" stroke="none"/>
    </g>
    <g fill="rgb(130,130,178)" stroke-miterlimit="1.45" transform="matrix(1,0,0,1,297,134)" stroke-linecap="butt" stroke="rgb(130,130,178)">
      <rect fill="none" width="175.1" x="-288.66" height="23.125" y="0"/>
    </g>
    <g font-size="13" font-weight="bold" font-family="sans-serif" transform="matrix(1,0,0,1,297,134)">
      <text xml:space="preserve" x="-282.11" y="16.0625" onclick="umlload('../../../lamparski/areabase/map_support/OSMapWebViewClient.html')" stroke="none">OSMapWebViewClient</text>
    </g>
    <g fill="rgb(187,187,255)" transform="matrix(1,0,0,1,297,134)" stroke="rgb(187,187,255)">
      <rect x="-288.66" y="33.125" clip-path="url(#clipPath7)" width="145.23" height="23.125" stroke="none"/>
    </g>
    <g fill="rgb(130,130,178)" stroke-miterlimit="1.45" transform="matrix(1,0,0,1,297,134)" stroke-linecap="butt" stroke="rgb(130,130,178)">
      <rect fill="none" width="145.23" x="-288.66" height="23.125" y="33.125"/>
    </g>
    <g font-size="13" font-weight="bold" font-family="sans-serif" transform="matrix(1,0,0,1,297,134)">
      <text xml:space="preserve" x="-282.545" y="49.1875" onclick="umlload('../../../lamparski/areabase/map_support/OSNativeInterface.html')" stroke="none">OSNativeInterface</text>
    </g>
    <g fill="rgb(238,238,255)" transform="matrix(1,0,0,1,297,134)" stroke="rgb(238,238,255)">
      <rect width="162.0741" x="190.145" height="17.9688" y="-133.125" stroke="none"/>
    </g>
    <g fill="rgb(166,166,178)" stroke-miterlimit="1.45" transform="matrix(1,0,0,1,297,134)" stroke-linecap="butt" stroke="rgb(166,166,178)">
      <rect fill="none" width="162.0741" x="190.145" height="17.9688" y="-133.125"/>
    </g>
    <g fill="rgb(238,238,255)" transform="matrix(1,0,0,1,297,134)" stroke="rgb(238,238,255)">
      <rect width="162.28" x="190.145" height="39.1562" y="-115.1562" stroke="none"/>
    </g>
    <g fill="rgb(166,166,178)" stroke-miterlimit="1.45" transform="matrix(1,0,0,1,297,134)" stroke-linecap="butt" stroke="rgb(166,166,178)">
      <rect fill="none" width="162.28" x="190.145" height="39.1562" y="-115.1562"/>
    </g>
    <g font-family="sans-serif" transform="matrix(1,0,0,1,297,134)">
      <text xml:space="preserve" x="196.145" y="-119.9844" onclick="umlload('package-summary.html')" stroke="none">&lt;unnamed package&gt;</text>
    </g>
    <g fill="rgb(187,187,255)" transform="matrix(1,0,0,1,297,134)" stroke="rgb(187,187,255)">
      <rect x="228.145" y="-107.125" clip-path="url(#clipPath8)" width="78.28" height="23.125" stroke="none"/>
    </g>
    <g fill="rgb(130,130,178)" stroke-miterlimit="1.45" transform="matrix(1,0,0,1,297,134)" stroke-linecap="butt" stroke="rgb(130,130,178)">
      <rect fill="none" width="78.28" x="228.145" height="23.125" y="-107.125"/>
    </g>
    <g font-size="13" font-weight="bold" font-family="sans-serif" transform="matrix(1,0,0,1,297,134)">
      <text xml:space="preserve" x="233.285" y="-91.0625" stroke="none">WebView</text>
    </g>
    <g fill="rgb(238,238,255)" transform="matrix(1,0,0,1,297,134)" stroke="rgb(238,238,255)">
      <rect width="239.5198" x="-8" height="17.9688" y="-26" stroke="none"/>
    </g>
    <g fill="rgb(166,166,178)" stroke-miterlimit="1.45" transform="matrix(1,0,0,1,297,134)" stroke-linecap="butt" stroke="rgb(166,166,178)">
      <rect fill="none" width="239.5198" x="-8" height="17.9688" y="-26"/>
    </g>
    <g fill="rgb(238,238,255)" transform="matrix(1,0,0,1,297,134)" stroke="rgb(238,238,255)">
      <rect width="550.57" x="-8" height="220.3281" y="-8.0312" stroke="none"/>
    </g>
    <g fill="rgb(166,166,178)" stroke-miterlimit="1.45" transform="matrix(1,0,0,1,297,134)" stroke-linecap="butt" stroke="rgb(166,166,178)">
      <rect fill="none" width="550.57" x="-8" height="220.3281" y="-8.0312"/>
    </g>
    <g font-family="sans-serif" transform="matrix(1,0,0,1,297,134)">
      <text xml:space="preserve" x="-2" y="-12.8594" onclick="umlload('package-summary.html')" stroke="none">lamparski.areabase.map_support</text>
    </g>
    <g fill="rgb(187,187,255)" transform="matrix(1,0,0,1,297,134)" stroke="rgb(187,187,255)">
      <rect x="0" y="0" clip-path="url(#clipPath9)" width="534.57" height="26.6406" stroke="none"/>
      <line clip-path="url(#clipPath9)" fill="none" x1="0" x2="534.57" y1="26.6406" y2="26.6406" stroke="black"/>
      <rect x="0" y="27.6406" clip-path="url(#clipPath9)" width="534.57" height="47.9062" stroke="none"/>
      <line clip-path="url(#clipPath9)" fill="none" x1="0" x2="534.57" y1="75.5469" y2="75.5469" stroke="black"/>
      <rect x="0" y="76.5469" clip-path="url(#clipPath9)" width="534.57" height="127.75" stroke="none"/>
    </g>
    <g fill="rgb(130,130,178)" stroke-miterlimit="1.45" transform="matrix(1,0,0,1,297,134)" stroke-linecap="butt" stroke="rgb(130,130,178)">
      <rect fill="none" width="534.57" x="0" height="204.2969" y="0"/>
    </g>
    <g font-size="16" font-weight="bold" font-family="sans-serif" transform="matrix(1,0,0,1,297,134)">
      <text xml:space="preserve" x="154.285" y="18.8594" onclick="umlload('#')" stroke="none">OrdnanceSurveyMapView</text>
    </g>
    <g font-family="sans-serif" transform="matrix(1,0,0,1,297,134)">
      <text xml:space="preserve" x="4" y="38.1719" stroke="none">+</text>
      <text xml:space="preserve" x="19" y="39.7812" onclick="umlload('#OrdnanceSurveyMapView(Context)')" stroke="none">OrdnanceSurveyMapView(Context)</text>
    </g>
    <g font-family="sans-serif" transform="matrix(1,0,0,1,297,134)">
      <text xml:space="preserve" x="4" y="54.1719" stroke="none">+</text>
      <text xml:space="preserve" x="19" y="55.75" onclick="umlload('#OrdnanceSurveyMapView(Context, AttributeSet)')" stroke="none">OrdnanceSurveyMapView(Context, AttributeSet)</text>
    </g>
    <g font-family="sans-serif" transform="matrix(1,0,0,1,297,134)">
      <text xml:space="preserve" x="4" y="70.1719" stroke="none">+</text>
      <text xml:space="preserve" x="19" y="71.7188" onclick="umlload('#OrdnanceSurveyMapView(Context, AttributeSet, int)')" stroke="none">OrdnanceSurveyMapView(Context, AttributeSet, int)</text>
    </g>
    <g font-family="sans-serif" transform="matrix(1,0,0,1,297,134)">
      <text xml:space="preserve" x="4" y="87.1719" stroke="none">+</text>
      <text xml:space="preserve" x="19" y="88.6875" onclick="umlload('#highlightArea(java.lang.String, java.lang.String)')" stroke="none">highlightArea(String, String) : void</text>
    </g>
    <g font-family="sans-serif" transform="matrix(1,0,0,1,297,134)">
      <text xml:space="preserve" x="4" y="103.1719" stroke="none">+</text>
      <text xml:space="preserve" x="19" y="104.6562" onclick="umlload('#highlightArea(java.lang.String, java.lang.String, lamparski.areabase.map_support.HoloCSSColourValues, lamparski.areabase.map_support.HoloCSSColourValues)')" stroke="none">highlightArea(String, String, HoloCSSColourValues, HoloCSSColourValues) : void</text>
    </g>
    <g font-family="sans-serif" transform="matrix(1,0,0,1,297,134)">
      <text xml:space="preserve" x="4" y="119.1719" stroke="none">+</text>
      <text xml:space="preserve" x="19" y="120.625" onclick="umlload('#highlightBoundary(double[][])')" stroke="none">highlightBoundary(double[][]) : void</text>
    </g>
    <g font-family="sans-serif" transform="matrix(1,0,0,1,297,134)">
      <text xml:space="preserve" x="4" y="135.1719" stroke="none">+</text>
      <text xml:space="preserve" x="19" y="136.5938" onclick="umlload('#setCentre(java.lang.Double, java.lang.Double)')" stroke="none">setCentre(Double, Double) : void</text>
    </g>
    <g font-family="sans-serif" transform="matrix(1,0,0,1,297,134)">
      <text xml:space="preserve" x="4" y="151.1719" stroke="none">+</text>
      <text xml:space="preserve" x="19" y="152.5625" onclick="umlload('#setCentre(Location)')" stroke="none">setCentre(Location) : void</text>
    </g>
    <g font-family="sans-serif" transform="matrix(1,0,0,1,297,134)">
      <text xml:space="preserve" x="4" y="167.1719" stroke="none">+</text>
      <text xml:space="preserve" x="19" y="168.5312" onclick="umlload('#setCentre_byEastingNorthing(java.lang.Double, java.lang.Double)')" stroke="none">setCentre_byEastingNorthing(Double, Double) : void</text>
    </g>
    <g font-family="sans-serif" transform="matrix(1,0,0,1,297,134)">
      <text xml:space="preserve" x="4" y="183.1719" stroke="none">+</text>
      <text xml:space="preserve" x="19" y="184.5" onclick="umlload('#setOnMapLoadedListener(lamparski.areabase.map_support.OSNativeInterface.OnMapLoadedListener)')" stroke="none">setOnMapLoadedListener(OSNativeInterface.OnMapLoadedListener) : void</text>
    </g>
    <g font-family="sans-serif" transform="matrix(1,0,0,1,297,134)">
      <text xml:space="preserve" x="4" y="199.1719" stroke="none">+</text>
      <text xml:space="preserve" x="19" y="200.4688" onclick="umlload('#setZoom(int)')" stroke="none">setZoom(int) : void</text>
    </g>
    <g font-family="sans-serif" transform="matrix(1,0,0,1,297,134)">
      <text xml:space="preserve" x="-291" y="237.1562" onclick="umlload('http://www.yworks.com/')" stroke="none">yWorks UML Doclet</text>
    </g>
    <g stroke-miterlimit="1.45" transform="matrix(1,0,0,1,297,134)" stroke-linecap="butt">
      <path fill="none" d="M267.285 -0.0376 L267.285 -69"/>
      <path fill="white" d="M267.285 -84 L261.285 -68 L273.285 -68 Z" stroke="none"/>
      <path fill="none" d="M267.285 -84 L261.285 -68 L273.285 -68 Z"/>
      <path fill="none" d="M0.0105 11.5625 L-113.56 11.5625"/>
      <line stroke-linecap="square" transform="matrix(-1,0,0,-1,-113.56,11.5625)" fill="none" x1="0" x2="-14" y1="0" y2="-4" stroke-miterlimit="10"/>
      <line stroke-linecap="square" transform="matrix(-1,0,0,-1,-113.56,11.5625)" fill="none" x1="0" x2="-14" y1="0" y2="4" stroke-miterlimit="10"/>
    </g>
    <g stroke-miterlimit="1.45" transform="matrix(1,0,0,1,297,134)" stroke-linecap="butt">
      <path fill="none" d="M-0.0156 44.6875 L-143.43 44.6875"/>
      <line stroke-linecap="square" transform="matrix(-1,0,0,-1,-143.43,44.6875)" fill="none" x1="0" x2="-14" y1="0" y2="-4" stroke-miterlimit="10"/>
      <line stroke-linecap="square" transform="matrix(-1,0,0,-1,-143.43,44.6875)" fill="none" x1="0" x2="-14" y1="0" y2="4" stroke-miterlimit="10"/>
    </g>
    <g stroke-dasharray="6,2" stroke-miterlimit="1.45" transform="matrix(1,0,0,1,297,134)" stroke-linecap="butt">
      <path fill="none" d="M534.6 11.5625 L600.57 11.5625"/>
      <line stroke-linecap="square" transform="matrix(1,0,0,1,600.57,11.5625)" fill="none" x1="0" x2="-14" y1="0" y2="-4" stroke-dasharray="none" stroke-miterlimit="10"/>
      <line stroke-linecap="square" transform="matrix(1,0,0,1,600.57,11.5625)" fill="none" x1="0" x2="-14" y1="0" y2="4" stroke-dasharray="none" stroke-miterlimit="10"/>
    </g>
    <g stroke-dasharray="6,2" stroke-miterlimit="1.45" transform="matrix(1,0,0,1,297,134)" stroke-linecap="butt">
      <path fill="none" d="M534.5647 44.6875 L600.57 44.6875"/>
      <line stroke-linecap="square" transform="matrix(1,0,0,1,600.57,44.6875)" fill="none" x1="0" x2="-14" y1="0" y2="-4" stroke-dasharray="none" stroke-miterlimit="10"/>
      <line stroke-linecap="square" transform="matrix(1,0,0,1,600.57,44.6875)" fill="none" x1="0" x2="-14" y1="0" y2="4" stroke-dasharray="none" stroke-miterlimit="10"/>
    </g>
    <g stroke-dasharray="6,2" stroke-miterlimit="1.45" transform="matrix(1,0,0,1,297,134)" stroke-linecap="butt">
      <path fill="none" d="M534.5946 131.8125 L600.57 131.8125"/>
      <line stroke-linecap="square" transform="matrix(1,0,0,1,600.57,131.8125)" fill="none" x1="0" x2="-14" y1="0" y2="-4" stroke-dasharray="none" stroke-miterlimit="10"/>
      <line stroke-linecap="square" transform="matrix(1,0,0,1,600.57,131.8125)" fill="none" x1="0" x2="-14" y1="0" y2="4" stroke-dasharray="none" stroke-miterlimit="10"/>
    </g>
    <g stroke-dasharray="6,2" stroke-miterlimit="1.45" transform="matrix(1,0,0,1,297,134)" stroke-linecap="butt">
      <path fill="none" d="M534.5671 169.7268 L600.57 169.7268"/>
      <line stroke-linecap="square" transform="matrix(1,0,0,1,600.57,169.7268)" fill="none" x1="0" x2="-14" y1="0" y2="-4" stroke-dasharray="none" stroke-miterlimit="10"/>
      <line stroke-linecap="square" transform="matrix(1,0,0,1,600.57,169.7268)" fill="none" x1="0" x2="-14" y1="0" y2="4" stroke-dasharray="none" stroke-miterlimit="10"/>
    </g>
  </g>
</svg>
