<?xml version="1.0" encoding="UTF-8"?>
<svg xmlns="http://www.w3.org/2000/svg" xmlns:xlink="http://www.w3.org/1999/xlink" fill-opacity="1" color-rendering="auto" color-interpolation="auto" stroke="black" text-rendering="auto" stroke-linecap="square" width="1335" stroke-miterlimit="10" stroke-opacity="1" shape-rendering="auto" fill="black" stroke-dasharray="none" font-weight="normal" stroke-width="1" height="254" font-family="'Dialog'" font-style="normal" stroke-linejoin="miter" font-size="12" stroke-dashoffset="0" image-rendering="auto">
  <!--Generated by ySVG-->
  <defs id="genericDefs"/>
  <g>
    <defs id="defs1">
      <clipPath clipPathUnits="userSpaceOnUse" id="clipPath1">
        <path d="M0 0 L1335 0 L1335 254 L0 254 L0 0 Z"/>
      </clipPath>
      <clipPath clipPathUnits="userSpaceOnUse" id="clipPath2">
        <path d="M619.11 0 L672.67 0 L672.67 23.125 L619.11 23.125 L619.11 0 Z"/>
      </clipPath>
      <clipPath clipPathUnits="userSpaceOnUse" id="clipPath3">
        <path d="M-66 16.3518 C-66 25.3827 -193.4973 32.7037 -350.7731 32.7037 C-508.049 32.7037 -635.5462 25.3827 -635.5462 16.3518 C-635.5462 7.321 -508.049 0 -350.7731 0 C-193.4973 0 -66 7.321 -66 16.3518 Z"/>
      </clipPath>
      <clipPath clipPathUnits="userSpaceOnUse" id="clipPath4">
        <path d="M215.785 -107.125 L337.325 -107.125 L337.325 -84 L215.785 -84 L215.785 -107.125 Z"/>
      </clipPath>
      <clipPath clipPathUnits="userSpaceOnUse" id="clipPath5">
        <path d="M0 0 L553.11 0 L553.11 76.5469 L0 76.5469 L0 0 Z"/>
      </clipPath>
      <script type="text/ecmascript"><![CDATA[
function umlload(newLocation)
{
if (newLocation.charAt(0) != '#') {
if (newLocation.indexOf("://") > -1) {
window.parent.location.href = newLocation;
} else {
var tmp = window.parent.location.href;
tmp = tmp.substring(0, tmp.lastIndexOf("/") + 1);
window.parent.location.href = tmp.concat(newLocation);
}
} else {
window.parent.location.hash = newLocation;
}
}
]]></script>
    </defs>
    <g fill="rgb(238,238,255)" transform="matrix(1,0,0,1,644,134)" stroke="rgb(238,238,255)">
      <rect width="76.1412" x="611.11" height="17.9688" y="-26" stroke="none"/>
    </g>
    <g fill="rgb(166,166,178)" stroke-miterlimit="1.45" transform="matrix(1,0,0,1,644,134)" stroke-linecap="butt" stroke="rgb(166,166,178)">
      <rect fill="none" width="76.1412" x="611.11" height="17.9688" y="-26"/>
    </g>
    <g fill="rgb(238,238,255)" transform="matrix(1,0,0,1,644,134)" stroke="rgb(238,238,255)">
      <rect width="79.56" x="611.11" height="39.1562" y="-8.0312" stroke="none"/>
    </g>
    <g fill="rgb(166,166,178)" stroke-miterlimit="1.45" transform="matrix(1,0,0,1,644,134)" stroke-linecap="butt" stroke="rgb(166,166,178)">
      <rect fill="none" width="79.56" x="611.11" height="39.1562" y="-8.0312"/>
    </g>
    <g font-family="sans-serif" transform="matrix(1,0,0,1,644,134)">
      <text xml:space="preserve" x="617.11" y="-12.8594" stroke="none">java.lang</text>
    </g>
    <g fill="rgb(187,187,255)" transform="matrix(1,0,0,1,644,134)" stroke="rgb(187,187,255)">
      <rect x="619.11" y="0" clip-path="url(#clipPath2)" width="53.56" height="23.125" stroke="none"/>
    </g>
    <g fill="rgb(130,130,178)" stroke-miterlimit="1.45" transform="matrix(1,0,0,1,644,134)" stroke-linecap="butt" stroke="rgb(130,130,178)">
      <rect fill="none" width="53.56" x="619.11" height="23.125" y="0"/>
    </g>
    <g font-size="13" font-weight="bold" font-family="sans-serif" transform="matrix(1,0,0,1,644,134)">
      <text xml:space="preserve" x="623.89" y="16.0625" stroke="none">String</text>
    </g>
    <g fill="rgb(238,238,255)" transform="matrix(1,0,0,1,644,134)" stroke="rgb(238,238,255)">
      <rect width="239.5198" x="-643.5462" height="17.9688" y="-26" stroke="none"/>
    </g>
    <g fill="rgb(166,166,178)" stroke-miterlimit="1.45" transform="matrix(1,0,0,1,644,134)" stroke-linecap="butt" stroke="rgb(166,166,178)">
      <rect fill="none" width="239.5198" x="-643.5462" height="17.9688" y="-26"/>
    </g>
    <g fill="rgb(238,238,255)" transform="matrix(1,0,0,1,644,134)" stroke="rgb(238,238,255)">
      <rect width="585.5462" x="-643.5462" height="48.7349" y="-8.0312" stroke="none"/>
    </g>
    <g fill="rgb(166,166,178)" stroke-miterlimit="1.45" transform="matrix(1,0,0,1,644,134)" stroke-linecap="butt" stroke="rgb(166,166,178)">
      <rect fill="none" width="585.5462" x="-643.5462" height="48.7349" y="-8.0312"/>
    </g>
    <g font-family="sans-serif" transform="matrix(1,0,0,1,644,134)">
      <text xml:space="preserve" x="-637.5462" y="-12.8594" onclick="umlload('../../../lamparski/areabase/map_support/package-summary.html')" stroke="none">lamparski.areabase.map_support</text>
    </g>
    <g fill="rgb(221,221,255)" transform="matrix(1,0,0,1,644,134)" stroke="rgb(221,221,255)">
      <rect x="-635.5462" y="0" clip-path="url(#clipPath3)" width="569.5462" height="32.7037" stroke="none"/>
    </g>
    <g fill="rgb(154,154,178)" stroke-miterlimit="1.45" transform="matrix(1,0,0,1,644,134)" stroke-linecap="butt" stroke="rgb(154,154,178)">
      <ellipse rx="284.7731" fill="none" ry="16.3518" cx="-350.7731" cy="16.3518"/>
    </g>
    <g font-style="italic" font-size="13" font-weight="bold" font-family="sans-serif" transform="matrix(1,0,0,1,644,134)">
      <text xml:space="preserve" x="-542.2731" y="20.8518" onclick="umlload('../../../lamparski/areabase/map_support/OSMapWebViewClient.OnNonApplicationURLListener.html')" stroke="none">OSMapWebViewClient.OnNonApplicationURLListener</text>
    </g>
    <g fill="rgb(238,238,255)" transform="matrix(1,0,0,1,644,134)" stroke="rgb(238,238,255)">
      <rect width="162.0741" x="199.785" height="17.9688" y="-133.125" stroke="none"/>
    </g>
    <g fill="rgb(166,166,178)" stroke-miterlimit="1.45" transform="matrix(1,0,0,1,644,134)" stroke-linecap="butt" stroke="rgb(166,166,178)">
      <rect fill="none" width="162.0741" x="199.785" height="17.9688" y="-133.125"/>
    </g>
    <g fill="rgb(238,238,255)" transform="matrix(1,0,0,1,644,134)" stroke="rgb(238,238,255)">
      <rect width="162.54" x="199.785" height="39.1562" y="-115.1562" stroke="none"/>
    </g>
    <g fill="rgb(166,166,178)" stroke-miterlimit="1.45" transform="matrix(1,0,0,1,644,134)" stroke-linecap="butt" stroke="rgb(166,166,178)">
      <rect fill="none" width="162.54" x="199.785" height="39.1562" y="-115.1562"/>
    </g>
    <g font-family="sans-serif" transform="matrix(1,0,0,1,644,134)">
      <text xml:space="preserve" x="205.785" y="-119.9844" onclick="umlload('package-summary.html')" stroke="none">&lt;unnamed package&gt;</text>
    </g>
    <g fill="rgb(187,187,255)" transform="matrix(1,0,0,1,644,134)" stroke="rgb(187,187,255)">
      <rect x="215.785" y="-107.125" clip-path="url(#clipPath4)" width="121.54" height="23.125" stroke="none"/>
    </g>
    <g fill="rgb(130,130,178)" stroke-miterlimit="1.45" transform="matrix(1,0,0,1,644,134)" stroke-linecap="butt" stroke="rgb(130,130,178)">
      <rect fill="none" width="121.54" x="215.785" height="23.125" y="-107.125"/>
    </g>
    <g font-size="13" font-weight="bold" font-family="sans-serif" transform="matrix(1,0,0,1,644,134)">
      <text xml:space="preserve" x="221.555" y="-91.0625" stroke="none">WebViewClient</text>
    </g>
    <g fill="rgb(238,238,255)" transform="matrix(1,0,0,1,644,134)" stroke="rgb(238,238,255)">
      <rect width="239.5198" x="-8" height="17.9688" y="-26" stroke="none"/>
    </g>
    <g fill="rgb(166,166,178)" stroke-miterlimit="1.45" transform="matrix(1,0,0,1,644,134)" stroke-linecap="butt" stroke="rgb(166,166,178)">
      <rect fill="none" width="239.5198" x="-8" height="17.9688" y="-26"/>
    </g>
    <g fill="rgb(238,238,255)" transform="matrix(1,0,0,1,644,134)" stroke="rgb(238,238,255)">
      <rect width="569.11" x="-8" height="92.5781" y="-8.0312" stroke="none"/>
    </g>
    <g fill="rgb(166,166,178)" stroke-miterlimit="1.45" transform="matrix(1,0,0,1,644,134)" stroke-linecap="butt" stroke="rgb(166,166,178)">
      <rect fill="none" width="569.11" x="-8" height="92.5781" y="-8.0312"/>
    </g>
    <g font-family="sans-serif" transform="matrix(1,0,0,1,644,134)">
      <text xml:space="preserve" x="-2" y="-12.8594" onclick="umlload('package-summary.html')" stroke="none">lamparski.areabase.map_support</text>
    </g>
    <g fill="rgb(187,187,255)" transform="matrix(1,0,0,1,644,134)" stroke="rgb(187,187,255)">
      <rect x="0" y="0" clip-path="url(#clipPath5)" width="553.11" height="26.6406" stroke="none"/>
      <line clip-path="url(#clipPath5)" fill="none" x1="0" x2="553.11" y1="26.6406" y2="26.6406" stroke="black"/>
      <rect x="0" y="27.6406" clip-path="url(#clipPath5)" width="553.11" height="15.9688" stroke="none"/>
      <line clip-path="url(#clipPath5)" fill="none" x1="0" x2="553.11" y1="43.6094" y2="43.6094" stroke="black"/>
      <rect x="0" y="44.6094" clip-path="url(#clipPath5)" width="553.11" height="31.9375" stroke="none"/>
    </g>
    <g fill="rgb(130,130,178)" stroke-miterlimit="1.45" transform="matrix(1,0,0,1,644,134)" stroke-linecap="butt" stroke="rgb(130,130,178)">
      <rect fill="none" width="553.11" x="0" height="76.5469" y="0"/>
    </g>
    <g font-size="16" font-weight="bold" font-family="sans-serif" transform="matrix(1,0,0,1,644,134)">
      <text xml:space="preserve" x="179.555" y="18.8594" onclick="umlload('#')" stroke="none">OSMapWebViewClient</text>
    </g>
    <g font-family="sans-serif" transform="matrix(1,0,0,1,644,134)">
      <text xml:space="preserve" x="4" y="38.1719" stroke="none">+</text>
      <text xml:space="preserve" x="19" y="39.7812" onclick="umlload('#OSMapWebViewClient()')" stroke="none">OSMapWebViewClient()</text>
    </g>
    <g font-family="sans-serif" transform="matrix(1,0,0,1,644,134)">
      <text xml:space="preserve" x="4" y="55.1719" stroke="none">+</text>
      <text xml:space="preserve" x="19" y="56.75" onclick="umlload('#setOnIllegalURLListener(lamparski.areabase.map_support.OSMapWebViewClient.OnNonApplicationURLListener)')" stroke="none">setOnIllegalURLListener(OSMapWebViewClient.OnNonApplicationURLListener) : void</text>
    </g>
    <g font-family="sans-serif" transform="matrix(1,0,0,1,644,134)">
      <text xml:space="preserve" x="4" y="71.1719" stroke="none">+</text>
      <text xml:space="preserve" x="19" y="72.7188" onclick="umlload('#shouldOverrideUrlLoading(WebView, java.lang.String)')" stroke="none">shouldOverrideUrlLoading(WebView, String) : boolean</text>
    </g>
    <g font-family="sans-serif" transform="matrix(1,0,0,1,644,134)">
      <text xml:space="preserve" x="-638" y="109.1562" onclick="umlload('http://www.yworks.com/')" stroke="none">yWorks UML Doclet</text>
    </g>
    <g stroke-miterlimit="1.45" transform="matrix(1,0,0,1,644,134)" stroke-linecap="butt">
      <path fill="none" d="M276.555 0 L276.555 -69"/>
      <path fill="white" d="M276.555 -84 L270.555 -68 L282.555 -68 Z" stroke="none"/>
      <path fill="none" d="M276.555 -84 L270.555 -68 L282.555 -68 Z"/>
      <path fill="none" d="M-0.0069 16.3518 L-66 16.3518"/>
      <line stroke-linecap="square" transform="matrix(-1,0,0,-1,-66,16.3518)" fill="none" x1="0" x2="-14" y1="0" y2="-4" stroke-miterlimit="10"/>
      <line stroke-linecap="square" transform="matrix(-1,0,0,-1,-66,16.3518)" fill="none" x1="0" x2="-14" y1="0" y2="4" stroke-miterlimit="10"/>
    </g>
    <g stroke-dasharray="6,2" stroke-miterlimit="1.45" transform="matrix(1,0,0,1,644,134)" stroke-linecap="butt">
      <path fill="none" d="M553.1505 11.5625 L619.11 11.5625"/>
      <line stroke-linecap="square" transform="matrix(1,0,0,1,619.11,11.5625)" fill="none" x1="0" x2="-14" y1="0" y2="-4" stroke-dasharray="none" stroke-miterlimit="10"/>
      <line stroke-linecap="square" transform="matrix(1,0,0,1,619.11,11.5625)" fill="none" x1="0" x2="-14" y1="0" y2="4" stroke-dasharray="none" stroke-miterlimit="10"/>
    </g>
  </g>
</svg>
