<?xml version="1.0" encoding="UTF-8"?>
<svg xmlns="http://www.w3.org/2000/svg" xmlns:xlink="http://www.w3.org/1999/xlink" fill-opacity="1" color-rendering="auto" color-interpolation="auto" stroke="black" text-rendering="auto" stroke-linecap="square" width="409" stroke-miterlimit="10" stroke-opacity="1" shape-rendering="auto" fill="black" stroke-dasharray="none" font-weight="normal" stroke-width="1" height="126" font-family="'Dialog'" font-style="normal" stroke-linejoin="miter" font-size="12" stroke-dashoffset="0" image-rendering="auto">
  <!--Generated by ySVG-->
  <defs id="genericDefs"/>
  <g>
    <defs id="defs1">
      <clipPath clipPathUnits="userSpaceOnUse" id="clipPath1">
        <path d="M0 0 L409 0 L409 126 L0 126 L0 0 Z"/>
      </clipPath>
      <clipPath clipPathUnits="userSpaceOnUse" id="clipPath2">
        <path d="M0 0 L392.43 0 L392.43 56.5781 L0 56.5781 L0 0 Z"/>
      </clipPath>
      <script type="text/ecmascript"><![CDATA[
function umlload(newLocation)
{
if (newLocation.charAt(0) != '#') {
if (newLocation.indexOf("://") > -1) {
window.parent.location.href = newLocation;
} else {
var tmp = window.parent.location.href;
tmp = tmp.substring(0, tmp.lastIndexOf("/") + 1);
window.parent.location.href = tmp.concat(newLocation);
}
} else {
window.parent.location.hash = newLocation;
}
}
]]></script>
    </defs>
    <g fill="rgb(238,238,255)" transform="matrix(1,0,0,1,8,26)" stroke="rgb(238,238,255)">
      <rect width="239.5198" x="-8" height="17.9688" y="-26" stroke="none"/>
    </g>
    <g fill="rgb(166,166,178)" stroke-miterlimit="1.45" transform="matrix(1,0,0,1,8,26)" stroke-linecap="butt" stroke="rgb(166,166,178)">
      <rect fill="none" width="239.5198" x="-8" height="17.9688" y="-26"/>
    </g>
    <g fill="rgb(238,238,255)" transform="matrix(1,0,0,1,8,26)" stroke="rgb(238,238,255)">
      <rect width="408.43" x="-8" height="72.6094" y="-8.0312" stroke="none"/>
    </g>
    <g fill="rgb(166,166,178)" stroke-miterlimit="1.45" transform="matrix(1,0,0,1,8,26)" stroke-linecap="butt" stroke="rgb(166,166,178)">
      <rect fill="none" width="408.43" x="-8" height="72.6094" y="-8.0312"/>
    </g>
    <g font-family="sans-serif" transform="matrix(1,0,0,1,8,26)">
      <text xml:space="preserve" x="-2" y="-12.8594" onclick="umlload('package-summary.html')" stroke="none">lamparski.areabase.map_support</text>
    </g>
    <g fill="rgb(221,221,255)" transform="matrix(1,0,0,1,8,26)" stroke="rgb(221,221,255)">
      <rect x="0" y="0" clip-path="url(#clipPath2)" width="392.43" height="38.6094" stroke="none"/>
      <line clip-path="url(#clipPath2)" fill="none" x1="0" x2="392.43" y1="38.6094" y2="38.6094" stroke="black"/>
      <line clip-path="url(#clipPath2)" x1="0" x2="392.43" y1="39.6094" y2="39.6094" stroke="none"/>
      <line clip-path="url(#clipPath2)" fill="none" x1="0" x2="392.43" y1="39.6094" y2="39.6094" stroke="black"/>
      <rect x="0" y="40.6094" clip-path="url(#clipPath2)" width="392.43" height="15.9688" stroke="none"/>
    </g>
    <g fill="rgb(154,154,178)" stroke-miterlimit="1.45" transform="matrix(1,0,0,1,8,26)" stroke-linecap="butt" stroke="rgb(154,154,178)">
      <rect fill="none" width="392.43" x="0" height="56.5781" y="0"/>
    </g>
    <g font-style="italic" font-size="16" font-weight="bold" font-family="sans-serif" transform="matrix(1,0,0,1,8,26)">
      <text xml:space="preserve" x="9.715" y="32.8281" onclick="umlload('#')" stroke="none">OSNativeInterface.OnMapLoadedListener</text>
    </g>
    <g font-family="sans-serif" transform="matrix(1,0,0,1,8,26)">
      <text xml:space="preserve" x="161.215" y="13.1406" stroke="none">«interface»</text>
    </g>
    <g font-family="sans-serif" transform="matrix(1,0,0,1,8,26)">
      <text xml:space="preserve" x="4" y="51.1719" stroke="none">+</text>
      <text xml:space="preserve" x="19" y="52.75" onclick="umlload('#onMapLoaded()')" stroke="none">onMapLoaded() : void</text>
    </g>
    <g font-family="sans-serif" transform="matrix(1,0,0,1,8,26)">
      <text xml:space="preserve" x="-2" y="89.1562" onclick="umlload('http://www.yworks.com/')" stroke="none">yWorks UML Doclet</text>
    </g>
  </g>
</svg>
