<?xml version="1.0" encoding="UTF-8"?>
<svg xmlns="http://www.w3.org/2000/svg" xmlns:xlink="http://www.w3.org/1999/xlink" fill-opacity="1" color-rendering="auto" color-interpolation="auto" stroke="black" text-rendering="auto" stroke-linecap="square" width="1169" stroke-miterlimit="10" stroke-opacity="1" shape-rendering="auto" fill="black" stroke-dasharray="none" font-weight="normal" stroke-width="1" height="318" font-family="'Dialog'" font-style="normal" stroke-linejoin="miter" font-size="12" stroke-dashoffset="0" image-rendering="auto">
  <!--Generated by ySVG-->
  <defs id="genericDefs"/>
  <g>
    <defs id="defs1">
      <clipPath clipPathUnits="userSpaceOnUse" id="clipPath1">
        <path d="M0 0 L1169 0 L1169 318 L0 318 L0 0 Z"/>
      </clipPath>
      <clipPath clipPathUnits="userSpaceOnUse" id="clipPath2">
        <path d="M570.7 0 L624.26 0 L624.26 23.125 L570.7 23.125 L570.7 0 Z"/>
      </clipPath>
      <clipPath clipPathUnits="userSpaceOnUse" id="clipPath3">
        <path d="M-66 16.3518 C-66 25.3827 -167.0848 32.7037 -291.7792 32.7037 C-416.4736 32.7037 -517.5584 25.3827 -517.5584 16.3518 C-517.5584 7.321 -416.4736 0 -291.7792 0 C-167.0848 0 -66 7.321 -66 16.3518 Z"/>
      </clipPath>
      <clipPath clipPathUnits="userSpaceOnUse" id="clipPath4">
        <path d="M223.51 -107.125 L281.19 -107.125 L281.19 -84 L223.51 -84 L223.51 -107.125 Z"/>
      </clipPath>
      <clipPath clipPathUnits="userSpaceOnUse" id="clipPath5">
        <path d="M0 0 L504.7 0 L504.7 140.4219 L0 140.4219 L0 0 Z"/>
      </clipPath>
      <script type="text/ecmascript"><![CDATA[
function umlload(newLocation)
{
if (newLocation.charAt(0) != '#') {
if (newLocation.indexOf("://") > -1) {
window.parent.location.href = newLocation;
} else {
var tmp = window.parent.location.href;
tmp = tmp.substring(0, tmp.lastIndexOf("/") + 1);
window.parent.location.href = tmp.concat(newLocation);
}
} else {
window.parent.location.hash = newLocation;
}
}
]]></script>
    </defs>
    <g fill="rgb(238,238,255)" transform="matrix(1,0,0,1,526,134)" stroke="rgb(238,238,255)">
      <rect width="76.1412" x="562.7" height="17.9688" y="-26" stroke="none"/>
    </g>
    <g fill="rgb(166,166,178)" stroke-miterlimit="1.45" transform="matrix(1,0,0,1,526,134)" stroke-linecap="butt" stroke="rgb(166,166,178)">
      <rect fill="none" width="76.1412" x="562.7" height="17.9688" y="-26"/>
    </g>
    <g fill="rgb(238,238,255)" transform="matrix(1,0,0,1,526,134)" stroke="rgb(238,238,255)">
      <rect width="79.56" x="562.7" height="39.1562" y="-8.0312" stroke="none"/>
    </g>
    <g fill="rgb(166,166,178)" stroke-miterlimit="1.45" transform="matrix(1,0,0,1,526,134)" stroke-linecap="butt" stroke="rgb(166,166,178)">
      <rect fill="none" width="79.56" x="562.7" height="39.1562" y="-8.0312"/>
    </g>
    <g font-family="sans-serif" transform="matrix(1,0,0,1,526,134)">
      <text xml:space="preserve" x="568.7" y="-12.8594" stroke="none">java.lang</text>
    </g>
    <g fill="rgb(187,187,255)" transform="matrix(1,0,0,1,526,134)" stroke="rgb(187,187,255)">
      <rect x="570.7" y="0" clip-path="url(#clipPath2)" width="53.56" height="23.125" stroke="none"/>
    </g>
    <g fill="rgb(130,130,178)" stroke-miterlimit="1.45" transform="matrix(1,0,0,1,526,134)" stroke-linecap="butt" stroke="rgb(130,130,178)">
      <rect fill="none" width="53.56" x="570.7" height="23.125" y="0"/>
    </g>
    <g font-size="13" font-weight="bold" font-family="sans-serif" transform="matrix(1,0,0,1,526,134)">
      <text xml:space="preserve" x="575.48" y="16.0625" stroke="none">String</text>
    </g>
    <g fill="rgb(238,238,255)" transform="matrix(1,0,0,1,526,134)" stroke="rgb(238,238,255)">
      <rect width="239.5198" x="-525.5584" height="17.9688" y="-26" stroke="none"/>
    </g>
    <g fill="rgb(166,166,178)" stroke-miterlimit="1.45" transform="matrix(1,0,0,1,526,134)" stroke-linecap="butt" stroke="rgb(166,166,178)">
      <rect fill="none" width="239.5198" x="-525.5584" height="17.9688" y="-26"/>
    </g>
    <g fill="rgb(238,238,255)" transform="matrix(1,0,0,1,526,134)" stroke="rgb(238,238,255)">
      <rect width="467.5584" x="-525.5584" height="48.7349" y="-8.0312" stroke="none"/>
    </g>
    <g fill="rgb(166,166,178)" stroke-miterlimit="1.45" transform="matrix(1,0,0,1,526,134)" stroke-linecap="butt" stroke="rgb(166,166,178)">
      <rect fill="none" width="467.5584" x="-525.5584" height="48.7349" y="-8.0312"/>
    </g>
    <g font-family="sans-serif" transform="matrix(1,0,0,1,526,134)">
      <text xml:space="preserve" x="-519.5584" y="-12.8594" onclick="umlload('../../../lamparski/areabase/map_support/package-summary.html')" stroke="none">lamparski.areabase.map_support</text>
    </g>
    <g fill="rgb(221,221,255)" transform="matrix(1,0,0,1,526,134)" stroke="rgb(221,221,255)">
      <rect x="-517.5584" y="0" clip-path="url(#clipPath3)" width="451.5584" height="32.7037" stroke="none"/>
    </g>
    <g fill="rgb(154,154,178)" stroke-miterlimit="1.45" transform="matrix(1,0,0,1,526,134)" stroke-linecap="butt" stroke="rgb(154,154,178)">
      <ellipse rx="225.7792" fill="none" ry="16.3518" cx="-291.7792" cy="16.3518"/>
    </g>
    <g font-style="italic" font-size="13" font-weight="bold" font-family="sans-serif" transform="matrix(1,0,0,1,526,134)">
      <text xml:space="preserve" x="-442.7792" y="20.8518" onclick="umlload('../../../lamparski/areabase/map_support/OSNativeInterface.OnMapLoadedListener.html')" stroke="none">OSNativeInterface.OnMapLoadedListener</text>
    </g>
    <g fill="rgb(238,238,255)" transform="matrix(1,0,0,1,526,134)" stroke="rgb(238,238,255)">
      <rect width="76.1412" x="215.51" height="17.9688" y="-133.125" stroke="none"/>
    </g>
    <g fill="rgb(166,166,178)" stroke-miterlimit="1.45" transform="matrix(1,0,0,1,526,134)" stroke-linecap="butt" stroke="rgb(166,166,178)">
      <rect fill="none" width="76.1412" x="215.51" height="17.9688" y="-133.125"/>
    </g>
    <g fill="rgb(238,238,255)" transform="matrix(1,0,0,1,526,134)" stroke="rgb(238,238,255)">
      <rect width="76.1412" x="215.51" height="39.1562" y="-115.1562" stroke="none"/>
    </g>
    <g fill="rgb(166,166,178)" stroke-miterlimit="1.45" transform="matrix(1,0,0,1,526,134)" stroke-linecap="butt" stroke="rgb(166,166,178)">
      <rect fill="none" width="76.1412" x="215.51" height="39.1562" y="-115.1562"/>
    </g>
    <g font-family="sans-serif" transform="matrix(1,0,0,1,526,134)">
      <text xml:space="preserve" x="221.51" y="-119.9844" stroke="none">java.lang</text>
    </g>
    <g fill="rgb(187,187,255)" transform="matrix(1,0,0,1,526,134)" stroke="rgb(187,187,255)">
      <rect x="223.51" y="-107.125" clip-path="url(#clipPath4)" width="57.68" height="23.125" stroke="none"/>
    </g>
    <g fill="rgb(130,130,178)" stroke-miterlimit="1.45" transform="matrix(1,0,0,1,526,134)" stroke-linecap="butt" stroke="rgb(130,130,178)">
      <rect fill="none" width="57.68" x="223.51" height="23.125" y="-107.125"/>
    </g>
    <g font-size="13" font-weight="bold" font-family="sans-serif" transform="matrix(1,0,0,1,526,134)">
      <text xml:space="preserve" x="228.35" y="-91.0625" stroke="none">Object</text>
    </g>
    <g fill="rgb(238,238,255)" transform="matrix(1,0,0,1,526,134)" stroke="rgb(238,238,255)">
      <rect width="239.5198" x="-8" height="17.9688" y="-26" stroke="none"/>
    </g>
    <g fill="rgb(166,166,178)" stroke-miterlimit="1.45" transform="matrix(1,0,0,1,526,134)" stroke-linecap="butt" stroke="rgb(166,166,178)">
      <rect fill="none" width="239.5198" x="-8" height="17.9688" y="-26"/>
    </g>
    <g fill="rgb(238,238,255)" transform="matrix(1,0,0,1,526,134)" stroke="rgb(238,238,255)">
      <rect width="520.7" x="-8" height="156.4531" y="-8.0312" stroke="none"/>
    </g>
    <g fill="rgb(166,166,178)" stroke-miterlimit="1.45" transform="matrix(1,0,0,1,526,134)" stroke-linecap="butt" stroke="rgb(166,166,178)">
      <rect fill="none" width="520.7" x="-8" height="156.4531" y="-8.0312"/>
    </g>
    <g font-family="sans-serif" transform="matrix(1,0,0,1,526,134)">
      <text xml:space="preserve" x="-2" y="-12.8594" onclick="umlload('package-summary.html')" stroke="none">lamparski.areabase.map_support</text>
    </g>
    <g fill="rgb(187,187,255)" transform="matrix(1,0,0,1,526,134)" stroke="rgb(187,187,255)">
      <rect x="0" y="0" clip-path="url(#clipPath5)" width="504.7" height="26.6406" stroke="none"/>
      <line clip-path="url(#clipPath5)" fill="none" x1="0" x2="504.7" y1="26.6406" y2="26.6406" stroke="black"/>
      <rect x="0" y="27.6406" clip-path="url(#clipPath5)" width="504.7" height="15.9688" stroke="none"/>
      <line clip-path="url(#clipPath5)" fill="none" x1="0" x2="504.7" y1="43.6094" y2="43.6094" stroke="black"/>
      <rect x="0" y="44.6094" clip-path="url(#clipPath5)" width="504.7" height="95.8125" stroke="none"/>
    </g>
    <g fill="rgb(130,130,178)" stroke-miterlimit="1.45" transform="matrix(1,0,0,1,526,134)" stroke-linecap="butt" stroke="rgb(130,130,178)">
      <rect fill="none" width="504.7" x="0" height="140.4219" y="0"/>
    </g>
    <g font-size="16" font-weight="bold" font-family="sans-serif" transform="matrix(1,0,0,1,526,134)">
      <text xml:space="preserve" x="170.85" y="18.8594" onclick="umlload('#')" stroke="none">OSNativeInterface</text>
    </g>
    <g font-family="sans-serif" transform="matrix(1,0,0,1,526,134)">
      <text xml:space="preserve" x="4" y="38.1719" stroke="none">+</text>
      <text xml:space="preserve" x="19" y="39.7812" onclick="umlload('#OSNativeInterface(Context)')" stroke="none">OSNativeInterface(Context)</text>
    </g>
    <g font-family="sans-serif" transform="matrix(1,0,0,1,526,134)">
      <text xml:space="preserve" x="4" y="55.1719" stroke="none">+</text>
      <text xml:space="preserve" x="19" y="56.75" onclick="umlload('#_setOnMapLoadedListener(lamparski.areabase.map_support.OSNativeInterface.OnMapLoadedListener)')" stroke="none">_setOnMapLoadedListener(OSNativeInterface.OnMapLoadedListener) : void</text>
    </g>
    <g font-family="sans-serif" transform="matrix(1,0,0,1,526,134)">
      <text xml:space="preserve" x="4" y="71.1719" stroke="none">+</text>
      <text xml:space="preserve" x="19" y="72.7188" onclick="umlload('#consoleErr(java.lang.String)')" stroke="none">consoleErr(String) : void</text>
    </g>
    <g font-family="sans-serif" transform="matrix(1,0,0,1,526,134)">
      <text xml:space="preserve" x="4" y="87.1719" stroke="none">+</text>
      <text xml:space="preserve" x="19" y="88.6875" onclick="umlload('#consoleInfo(java.lang.String)')" stroke="none">consoleInfo(String) : void</text>
    </g>
    <g font-family="sans-serif" transform="matrix(1,0,0,1,526,134)">
      <text xml:space="preserve" x="4" y="103.1719" stroke="none">+</text>
      <text xml:space="preserve" x="19" y="104.6562" onclick="umlload('#consoleLog(java.lang.String)')" stroke="none">consoleLog(String) : void</text>
    </g>
    <g font-family="sans-serif" transform="matrix(1,0,0,1,526,134)">
      <text xml:space="preserve" x="4" y="119.1719" stroke="none">+</text>
      <text xml:space="preserve" x="19" y="120.625" onclick="umlload('#consoleWarn(java.lang.String)')" stroke="none">consoleWarn(String) : void</text>
    </g>
    <g font-family="sans-serif" transform="matrix(1,0,0,1,526,134)">
      <text xml:space="preserve" x="4" y="135.1719" stroke="none">+</text>
      <text xml:space="preserve" x="19" y="136.5938" onclick="umlload('#onMapLoaded()')" stroke="none">onMapLoaded() : void</text>
    </g>
    <g font-family="sans-serif" transform="matrix(1,0,0,1,526,134)">
      <text xml:space="preserve" x="-520" y="173.1562" onclick="umlload('http://www.yworks.com/')" stroke="none">yWorks UML Doclet</text>
    </g>
    <g stroke-miterlimit="1.45" transform="matrix(1,0,0,1,526,134)" stroke-linecap="butt">
      <path fill="none" d="M252.35 0 L252.35 -69"/>
      <path fill="white" d="M252.35 -84 L246.35 -68 L258.35 -68 Z" stroke="none"/>
      <path fill="none" d="M252.35 -84 L246.35 -68 L258.35 -68 Z"/>
      <path fill="none" d="M-0.0205 16.3518 L-66 16.3518"/>
      <line stroke-linecap="square" transform="matrix(-1,0,0,-1,-66,16.3518)" fill="none" x1="0" x2="-14" y1="0" y2="-4" stroke-miterlimit="10"/>
      <line stroke-linecap="square" transform="matrix(-1,0,0,-1,-66,16.3518)" fill="none" x1="0" x2="-14" y1="0" y2="4" stroke-miterlimit="10"/>
    </g>
    <g stroke-dasharray="6,2" stroke-miterlimit="1.45" transform="matrix(1,0,0,1,526,134)" stroke-linecap="butt">
      <path fill="none" d="M504.6673 11.5625 L570.7 11.5625"/>
      <line stroke-linecap="square" transform="matrix(1,0,0,1,570.7,11.5625)" fill="none" x1="0" x2="-14" y1="0" y2="-4" stroke-dasharray="none" stroke-miterlimit="10"/>
      <line stroke-linecap="square" transform="matrix(1,0,0,1,570.7,11.5625)" fill="none" x1="0" x2="-14" y1="0" y2="4" stroke-dasharray="none" stroke-miterlimit="10"/>
    </g>
  </g>
</svg>
