<?xml version="1.0" encoding="UTF-8"?>
<svg xmlns="http://www.w3.org/2000/svg" xmlns:xlink="http://www.w3.org/1999/xlink" fill-opacity="1" color-rendering="auto" color-interpolation="auto" stroke="black" text-rendering="auto" stroke-linecap="square" width="586" stroke-miterlimit="10" stroke-opacity="1" shape-rendering="auto" fill="black" stroke-dasharray="none" font-weight="normal" stroke-width="1" height="452" font-family="'Dialog'" font-style="normal" stroke-linejoin="miter" font-size="12" stroke-dashoffset="0" image-rendering="auto">
  <!--Generated by ySVG-->
  <defs id="genericDefs"/>
  <g>
    <defs id="defs1">
      <clipPath clipPathUnits="userSpaceOnUse" id="clipPath1">
        <path d="M0 0 L586 0 L586 452 L0 452 L0 0 Z"/>
      </clipPath>
      <clipPath clipPathUnits="userSpaceOnUse" id="clipPath2">
        <path d="M577.5462 42.3518 C577.5462 51.3827 450.049 58.7037 292.7731 58.7037 C135.4973 58.7037 8 51.3827 8 42.3518 C8 33.321 135.4973 26 292.7731 26 C450.049 26 577.5462 33.321 577.5462 42.3518 Z"/>
      </clipPath>
      <clipPath clipPathUnits="userSpaceOnUse" id="clipPath3">
        <path d="M459.5584 120.0555 C459.5584 129.0864 358.4736 136.4074 233.7792 136.4074 C109.0848 136.4074 8 129.0864 8 120.0555 C8 111.0247 109.0848 103.7037 233.7792 103.7037 C358.4736 103.7037 459.5584 111.0247 459.5584 120.0555 Z"/>
      </clipPath>
      <clipPath clipPathUnits="userSpaceOnUse" id="clipPath4">
        <path d="M8 181.4074 L183.1 181.4074 L183.1 204.5324 L8 204.5324 L8 181.4074 Z"/>
      </clipPath>
      <clipPath clipPathUnits="userSpaceOnUse" id="clipPath5">
        <path d="M8 249.5324 L153.23 249.5324 L153.23 272.6574 L8 272.6574 L8 249.5324 Z"/>
      </clipPath>
      <clipPath clipPathUnits="userSpaceOnUse" id="clipPath6">
        <path d="M8 317.6574 L208.85 317.6574 L208.85 340.7824 L8 340.7824 L8 317.6574 Z"/>
      </clipPath>
      <clipPath clipPathUnits="userSpaceOnUse" id="clipPath7">
        <path d="M8 385.7824 L177.95 385.7824 L177.95 408.9074 L8 408.9074 L8 385.7824 Z"/>
      </clipPath>
      <clipPath clipPathUnits="userSpaceOnUse" id="clipPath8">
        <path d="M222.95 385.7824 L338.31 385.7824 L338.31 408.9074 L222.95 408.9074 L222.95 385.7824 Z"/>
      </clipPath>
      <script type="text/ecmascript"><![CDATA[
function umlload(newLocation)
{
if (newLocation.charAt(0) != '#') {
if (newLocation.indexOf("://") > -1) {
window.parent.location.href = newLocation;
} else {
var tmp = window.parent.location.href;
tmp = tmp.substring(0, tmp.lastIndexOf("/") + 1);
window.parent.location.href = tmp.concat(newLocation);
}
} else {
window.parent.location.hash = newLocation;
}
}
]]></script>
    </defs>
    <g fill="rgb(238,238,255)" stroke="rgb(238,238,255)">
      <rect width="239.5198" x="0" height="17.9688" y="0" stroke="none"/>
    </g>
    <g fill="rgb(166,166,178)" stroke-miterlimit="1.45" stroke-linecap="butt" stroke="rgb(166,166,178)">
      <rect fill="none" width="239.5198" x="0" height="17.9688" y="0"/>
    </g>
    <g fill="rgb(238,238,255)" stroke="rgb(238,238,255)">
      <rect width="585.5462" x="0" height="398.9386" y="17.9688" stroke="none"/>
    </g>
    <g fill="rgb(166,166,178)" stroke-miterlimit="1.45" stroke-linecap="butt" stroke="rgb(166,166,178)">
      <rect fill="none" width="585.5462" x="0" height="398.9386" y="17.9688"/>
    </g>
    <g font-family="sans-serif">
      <text xml:space="preserve" x="6" y="13.1406" onclick="umlload('#')" stroke="none">lamparski.areabase.map_support</text>
    </g>
    <g fill="rgb(221,221,255)" stroke="rgb(221,221,255)">
      <rect x="8" y="26" clip-path="url(#clipPath2)" width="569.5462" height="32.7037" stroke="none"/>
    </g>
    <g fill="rgb(154,154,178)" stroke-miterlimit="1.45" stroke-linecap="butt" stroke="rgb(154,154,178)">
      <ellipse rx="284.7731" fill="none" ry="16.3518" cx="292.7731" cy="42.3518"/>
    </g>
    <g font-style="italic" font-size="13" font-weight="bold" font-family="sans-serif">
      <text xml:space="preserve" x="101.2731" y="46.8518" onclick="umlload('OSMapWebViewClient.OnNonApplicationURLListener.html')" stroke="none">OSMapWebViewClient.OnNonApplicationURLListener</text>
    </g>
    <g fill="rgb(221,221,255)" stroke="rgb(221,221,255)">
      <rect x="8" y="103.7037" clip-path="url(#clipPath3)" width="451.5584" height="32.7037" stroke="none"/>
    </g>
    <g fill="rgb(154,154,178)" stroke-miterlimit="1.45" stroke-linecap="butt" stroke="rgb(154,154,178)">
      <ellipse rx="225.7792" fill="none" ry="16.3518" cx="233.7792" cy="120.0555"/>
    </g>
    <g font-style="italic" font-size="13" font-weight="bold" font-family="sans-serif">
      <text xml:space="preserve" x="82.7792" y="124.5555" onclick="umlload('OSNativeInterface.OnMapLoadedListener.html')" stroke="none">OSNativeInterface.OnMapLoadedListener</text>
    </g>
    <g fill="rgb(187,187,255)" stroke="rgb(187,187,255)">
      <rect x="8" y="181.4074" clip-path="url(#clipPath4)" width="175.1" height="23.125" stroke="none"/>
    </g>
    <g fill="rgb(130,130,178)" stroke-miterlimit="1.45" stroke-linecap="butt" stroke="rgb(130,130,178)">
      <rect fill="none" width="175.1" x="8" height="23.125" y="181.4074"/>
    </g>
    <g font-size="13" font-weight="bold" font-family="sans-serif">
      <text xml:space="preserve" x="14.55" y="197.4699" onclick="umlload('OSMapWebViewClient.html')" stroke="none">OSMapWebViewClient</text>
    </g>
    <g fill="rgb(187,187,255)" stroke="rgb(187,187,255)">
      <rect x="8" y="249.5324" clip-path="url(#clipPath5)" width="145.23" height="23.125" stroke="none"/>
    </g>
    <g fill="rgb(130,130,178)" stroke-miterlimit="1.45" stroke-linecap="butt" stroke="rgb(130,130,178)">
      <rect fill="none" width="145.23" x="8" height="23.125" y="249.5324"/>
    </g>
    <g font-size="13" font-weight="bold" font-family="sans-serif">
      <text xml:space="preserve" x="14.115" y="265.5949" onclick="umlload('OSNativeInterface.html')" stroke="none">OSNativeInterface</text>
    </g>
    <g fill="rgb(187,187,255)" stroke="rgb(187,187,255)">
      <rect x="8" y="317.6574" clip-path="url(#clipPath6)" width="200.85" height="23.125" stroke="none"/>
    </g>
    <g fill="rgb(130,130,178)" stroke-miterlimit="1.45" stroke-linecap="butt" stroke="rgb(130,130,178)">
      <rect fill="none" width="200.85" x="8" height="23.125" y="317.6574"/>
    </g>
    <g font-size="13" font-weight="bold" font-family="sans-serif">
      <text xml:space="preserve" x="14.925" y="333.7199" onclick="umlload('OrdnanceSurveyMapView.html')" stroke="none">OrdnanceSurveyMapView</text>
    </g>
    <g fill="rgb(170,170,255)" stroke="rgb(170,170,255)">
      <rect x="8" y="385.7824" clip-path="url(#clipPath7)" width="169.95" height="23.125" stroke="none"/>
    </g>
    <g fill="rgb(118,118,178)" stroke-miterlimit="1.45" stroke-linecap="butt" stroke="rgb(118,118,178)">
      <rect fill="none" width="169.95" x="8" height="23.125" y="385.7824"/>
    </g>
    <g font-size="13" font-weight="bold" font-family="sans-serif">
      <text xml:space="preserve" x="14.475" y="401.8449" onclick="umlload('HoloCSSColourValues.html')" stroke="none">HoloCSSColourValues</text>
    </g>
    <g fill="rgb(170,170,255)" stroke="rgb(170,170,255)">
      <rect x="222.95" y="385.7824" clip-path="url(#clipPath8)" width="115.36" height="23.125" stroke="none"/>
    </g>
    <g fill="rgb(118,118,178)" stroke-miterlimit="1.45" stroke-linecap="butt" stroke="rgb(118,118,178)">
      <rect fill="none" width="115.36" x="222.95" height="23.125" y="385.7824"/>
    </g>
    <g font-size="13" font-weight="bold" font-family="sans-serif">
      <text xml:space="preserve" x="228.63" y="401.8449" onclick="umlload('OSAdminUnits.html')" stroke="none">OSAdminUnits</text>
    </g>
    <g font-family="sans-serif">
      <text xml:space="preserve" x="6" y="441.1562" onclick="umlload('http://www.yworks.com/')" stroke="none">yWorks UML Doclet</text>
    </g>
  </g>
</svg>
