<?xml version="1.0" encoding="UTF-8"?>
<svg xmlns="http://www.w3.org/2000/svg" xmlns:xlink="http://www.w3.org/1999/xlink" fill-opacity="1" color-rendering="auto" color-interpolation="auto" stroke="black" text-rendering="auto" stroke-linecap="square" width="656" stroke-miterlimit="10" stroke-opacity="1" shape-rendering="auto" fill="black" stroke-dasharray="none" font-weight="normal" stroke-width="1" height="296" font-family="'Dialog'" font-style="normal" stroke-linejoin="miter" font-size="12" stroke-dashoffset="0" image-rendering="auto">
  <!--Generated by ySVG-->
  <defs id="genericDefs"/>
  <g>
    <defs id="defs1">
      <clipPath clipPathUnits="userSpaceOnUse" id="clipPath1">
        <path d="M0 0 L656 0 L656 296 L0 296 L0 0 Z"/>
      </clipPath>
      <clipPath clipPathUnits="userSpaceOnUse" id="clipPath2">
        <path d="M508.5842 16.3518 C508.5842 25.3827 478.9109 32.7037 442.3071 32.7037 C405.7033 32.7037 376.03 25.3827 376.03 16.3518 C376.03 7.321 405.7033 0 442.3071 0 C478.9109 0 508.5842 7.321 508.5842 16.3518 Z"/>
      </clipPath>
      <clipPath clipPathUnits="userSpaceOnUse" id="clipPath3">
        <path d="M-121.8 87.125 L-77.51 87.125 L-77.51 110.25 L-121.8 110.25 L-121.8 87.125 Z"/>
      </clipPath>
      <clipPath clipPathUnits="userSpaceOnUse" id="clipPath4">
        <path d="M-130.04 0 L-76.48 0 L-76.48 23.125 L-130.04 23.125 L-130.04 0 Z"/>
      </clipPath>
      <clipPath clipPathUnits="userSpaceOnUse" id="clipPath5">
        <path d="M89.61 -107.125 L220.42 -107.125 L220.42 -84 L89.61 -84 L89.61 -107.125 Z"/>
      </clipPath>
      <clipPath clipPathUnits="userSpaceOnUse" id="clipPath6">
        <path d="M0 0 L310.03 0 L310.03 118.25 L0 118.25 L0 0 Z"/>
      </clipPath>
      <script type="text/ecmascript"><![CDATA[
function umlload(newLocation)
{
if (newLocation.charAt(0) != '#') {
if (newLocation.indexOf("://") > -1) {
window.parent.location.href = newLocation;
} else {
var tmp = window.parent.location.href;
tmp = tmp.substring(0, tmp.lastIndexOf("/") + 1);
window.parent.location.href = tmp.concat(newLocation);
}
} else {
window.parent.location.hash = newLocation;
}
}
]]></script>
    </defs>
    <g fill="rgb(238,238,255)" transform="matrix(1,0,0,1,139,134)" stroke="rgb(238,238,255)">
      <rect width="67.654" x="368.03" height="17.9688" y="-26" stroke="none"/>
    </g>
    <g fill="rgb(166,166,178)" stroke-miterlimit="1.45" transform="matrix(1,0,0,1,139,134)" stroke-linecap="butt" stroke="rgb(166,166,178)">
      <rect fill="none" width="67.654" x="368.03" height="17.9688" y="-26"/>
    </g>
    <g fill="rgb(238,238,255)" transform="matrix(1,0,0,1,139,134)" stroke="rgb(238,238,255)">
      <rect width="148.5542" x="368.03" height="48.7349" y="-8.0312" stroke="none"/>
    </g>
    <g fill="rgb(166,166,178)" stroke-miterlimit="1.45" transform="matrix(1,0,0,1,139,134)" stroke-linecap="butt" stroke="rgb(166,166,178)">
      <rect fill="none" width="148.5542" x="368.03" height="48.7349" y="-8.0312"/>
    </g>
    <g font-family="sans-serif" transform="matrix(1,0,0,1,139,134)">
      <text xml:space="preserve" x="374.03" y="-12.8594" stroke="none">java.util</text>
    </g>
    <g fill="rgb(221,221,255)" transform="matrix(1,0,0,1,139,134)" stroke="rgb(221,221,255)">
      <rect x="376.03" y="0" clip-path="url(#clipPath2)" width="132.5542" height="32.7037" stroke="none"/>
    </g>
    <g fill="rgb(154,154,178)" stroke-miterlimit="1.45" transform="matrix(1,0,0,1,139,134)" stroke-linecap="butt" stroke="rgb(154,154,178)">
      <ellipse rx="66.2771" fill="none" ry="16.3518" cx="442.3071" cy="16.3518"/>
    </g>
    <g font-style="italic" font-size="13" font-weight="bold" font-family="sans-serif" transform="matrix(1,0,0,1,139,134)">
      <text xml:space="preserve" x="400.8071" y="20.8518" stroke="none">Map&lt;K, V&gt;</text>
    </g>
    <g fill="rgb(238,238,255)" transform="matrix(1,0,0,1,139,134)" stroke="rgb(238,238,255)">
      <rect width="67.654" x="-129.8" height="17.9688" y="61.125" stroke="none"/>
    </g>
    <g fill="rgb(166,166,178)" stroke-miterlimit="1.45" transform="matrix(1,0,0,1,139,134)" stroke-linecap="butt" stroke="rgb(166,166,178)">
      <rect fill="none" width="67.654" x="-129.8" height="17.9688" y="61.125"/>
    </g>
    <g fill="rgb(238,238,255)" transform="matrix(1,0,0,1,139,134)" stroke="rgb(238,238,255)">
      <rect width="72.29" x="-129.8" height="39.1562" y="79.0938" stroke="none"/>
    </g>
    <g fill="rgb(166,166,178)" stroke-miterlimit="1.45" transform="matrix(1,0,0,1,139,134)" stroke-linecap="butt" stroke="rgb(166,166,178)">
      <rect fill="none" width="72.29" x="-129.8" height="39.1562" y="79.0938"/>
    </g>
    <g font-family="sans-serif" transform="matrix(1,0,0,1,139,134)">
      <text xml:space="preserve" x="-123.8" y="74.2656" stroke="none">java.util</text>
    </g>
    <g fill="rgb(187,187,255)" transform="matrix(1,0,0,1,139,134)" stroke="rgb(187,187,255)">
      <rect x="-121.8" y="87.125" clip-path="url(#clipPath3)" width="44.29" height="23.125" stroke="none"/>
    </g>
    <g fill="rgb(130,130,178)" stroke-miterlimit="1.45" transform="matrix(1,0,0,1,139,134)" stroke-linecap="butt" stroke="rgb(130,130,178)">
      <rect fill="none" width="44.29" x="-121.8" height="23.125" y="87.125"/>
    </g>
    <g font-size="13" font-weight="bold" font-family="sans-serif" transform="matrix(1,0,0,1,139,134)">
      <text xml:space="preserve" x="-117.155" y="103.1875" stroke="none">Date</text>
    </g>
    <g fill="rgb(238,238,255)" transform="matrix(1,0,0,1,139,134)" stroke="rgb(238,238,255)">
      <rect width="76.1412" x="-138.04" height="17.9688" y="-26" stroke="none"/>
    </g>
    <g fill="rgb(166,166,178)" stroke-miterlimit="1.45" transform="matrix(1,0,0,1,139,134)" stroke-linecap="butt" stroke="rgb(166,166,178)">
      <rect fill="none" width="76.1412" x="-138.04" height="17.9688" y="-26"/>
    </g>
    <g fill="rgb(238,238,255)" transform="matrix(1,0,0,1,139,134)" stroke="rgb(238,238,255)">
      <rect width="79.56" x="-138.04" height="39.1562" y="-8.0312" stroke="none"/>
    </g>
    <g fill="rgb(166,166,178)" stroke-miterlimit="1.45" transform="matrix(1,0,0,1,139,134)" stroke-linecap="butt" stroke="rgb(166,166,178)">
      <rect fill="none" width="79.56" x="-138.04" height="39.1562" y="-8.0312"/>
    </g>
    <g font-family="sans-serif" transform="matrix(1,0,0,1,139,134)">
      <text xml:space="preserve" x="-132.04" y="-12.8594" stroke="none">java.lang</text>
    </g>
    <g fill="rgb(187,187,255)" transform="matrix(1,0,0,1,139,134)" stroke="rgb(187,187,255)">
      <rect x="-130.04" y="0" clip-path="url(#clipPath4)" width="53.56" height="23.125" stroke="none"/>
    </g>
    <g fill="rgb(130,130,178)" stroke-miterlimit="1.45" transform="matrix(1,0,0,1,139,134)" stroke-linecap="butt" stroke="rgb(130,130,178)">
      <rect fill="none" width="53.56" x="-130.04" height="23.125" y="0"/>
    </g>
    <g font-size="13" font-weight="bold" font-family="sans-serif" transform="matrix(1,0,0,1,139,134)">
      <text xml:space="preserve" x="-125.26" y="16.0625" stroke="none">String</text>
    </g>
    <g fill="rgb(238,238,255)" transform="matrix(1,0,0,1,139,134)" stroke="rgb(238,238,255)">
      <rect width="140.8561" x="81.61" height="17.9688" y="-133.125" stroke="none"/>
    </g>
    <g fill="rgb(166,166,178)" stroke-miterlimit="1.45" transform="matrix(1,0,0,1,139,134)" stroke-linecap="butt" stroke="rgb(166,166,178)">
      <rect fill="none" width="140.8561" x="81.61" height="17.9688" y="-133.125"/>
    </g>
    <g fill="rgb(238,238,255)" transform="matrix(1,0,0,1,139,134)" stroke="rgb(238,238,255)">
      <rect width="146.81" x="81.61" height="39.1562" y="-115.1562" stroke="none"/>
    </g>
    <g fill="rgb(166,166,178)" stroke-miterlimit="1.45" transform="matrix(1,0,0,1,139,134)" stroke-linecap="butt" stroke="rgb(166,166,178)">
      <rect fill="none" width="146.81" x="81.61" height="39.1562" y="-115.1562"/>
    </g>
    <g font-family="sans-serif" transform="matrix(1,0,0,1,139,134)">
      <text xml:space="preserve" x="87.61" y="-119.9844" onclick="umlload('../../police/methodcalls/package-summary.html')" stroke="none">police.methodcalls</text>
    </g>
    <g fill="rgb(204,204,255)" transform="matrix(1,0,0,1,139,134)" stroke="rgb(204,204,255)">
      <rect x="89.61" y="-107.125" clip-path="url(#clipPath5)" width="130.81" height="23.125" stroke="none"/>
    </g>
    <g fill="rgb(142,142,178)" stroke-miterlimit="1.45" transform="matrix(1,0,0,1,139,134)" stroke-linecap="butt" stroke="rgb(142,142,178)">
      <rect fill="none" width="130.81" x="89.61" height="23.125" y="-107.125"/>
    </g>
    <g font-size="13" font-weight="bold" font-family="sans-serif" transform="matrix(1,0,0,1,139,134)">
      <text xml:space="preserve" x="95.515" y="-91.0625" onclick="umlload('../../police/methodcalls/BaseMethodCall.html')" stroke="none">BaseMethodCall</text>
    </g>
    <g fill="rgb(238,238,255)" transform="matrix(1,0,0,1,139,134)" stroke="rgb(238,238,255)">
      <rect width="140.8561" x="-8" height="17.9688" y="-26" stroke="none"/>
    </g>
    <g fill="rgb(166,166,178)" stroke-miterlimit="1.45" transform="matrix(1,0,0,1,139,134)" stroke-linecap="butt" stroke="rgb(166,166,178)">
      <rect fill="none" width="140.8561" x="-8" height="17.9688" y="-26"/>
    </g>
    <g fill="rgb(238,238,255)" transform="matrix(1,0,0,1,139,134)" stroke="rgb(238,238,255)">
      <rect width="326.03" x="-8" height="134.2812" y="-8.0312" stroke="none"/>
    </g>
    <g fill="rgb(166,166,178)" stroke-miterlimit="1.45" transform="matrix(1,0,0,1,139,134)" stroke-linecap="butt" stroke="rgb(166,166,178)">
      <rect fill="none" width="326.03" x="-8" height="134.2812" y="-8.0312"/>
    </g>
    <g font-family="sans-serif" transform="matrix(1,0,0,1,139,134)">
      <text xml:space="preserve" x="-2" y="-12.8594" onclick="umlload('package-summary.html')" stroke="none">police.methodcalls</text>
    </g>
    <g fill="rgb(187,187,255)" transform="matrix(1,0,0,1,139,134)" stroke="rgb(187,187,255)">
      <rect x="0" y="0" clip-path="url(#clipPath6)" width="310.03" height="26.6406" stroke="none"/>
      <line clip-path="url(#clipPath6)" fill="none" x1="0" x2="310.03" y1="26.6406" y2="26.6406" stroke="black"/>
      <rect x="0" y="27.6406" clip-path="url(#clipPath6)" width="310.03" height="15.9688" stroke="none"/>
      <line clip-path="url(#clipPath6)" fill="none" x1="0" x2="310.03" y1="43.6094" y2="43.6094" stroke="black"/>
      <rect x="0" y="44.6094" clip-path="url(#clipPath6)" width="310.03" height="73.6406" stroke="none"/>
    </g>
    <g fill="rgb(130,130,178)" stroke-miterlimit="1.45" transform="matrix(1,0,0,1,139,134)" stroke-linecap="butt" stroke="rgb(130,130,178)">
      <rect fill="none" width="310.03" x="0" height="118.25" y="0"/>
    </g>
    <g font-size="16" font-weight="bold" font-family="sans-serif" transform="matrix(1,0,0,1,139,134)">
      <text xml:space="preserve" x="32.515" y="18.8594" onclick="umlload('#')" stroke="none">CrimeCategoriesMethodCall</text>
    </g>
    <g font-family="sans-serif" transform="matrix(1,0,0,1,139,134)">
      <text xml:space="preserve" x="4" y="38.1719" stroke="none">+</text>
      <text xml:space="preserve" x="19" y="39.7812" onclick="umlload('#CrimeCategoriesMethodCall()')" stroke="none">CrimeCategoriesMethodCall()</text>
    </g>
    <g font-family="sans-serif" transform="matrix(1,0,0,1,139,134)">
      <text xml:space="preserve" x="4" y="55.1719" stroke="none">+</text>
      <text xml:space="preserve" x="19" y="56.75" onclick="umlload('#addDate(java.util.Date)')" stroke="none">addDate(Date) : CrimeCategoriesMethodCall</text>
    </g>
    <g font-family="sans-serif" transform="matrix(1,0,0,1,139,134)">
      <text xml:space="preserve" x="4" y="71.1719" stroke="none">+</text>
      <text xml:space="preserve" x="19" y="72.7188" onclick="umlload('#getCrimeCategories()')" stroke="none">getCrimeCategories() : Map&lt;String, String&gt;</text>
    </g>
    <g font-family="sans-serif" transform="matrix(1,0,0,1,139,134)">
      <text xml:space="preserve" x="-133" y="151.1562" onclick="umlload('http://www.yworks.com/')" stroke="none">yWorks UML Doclet</text>
    </g>
    <g stroke-miterlimit="1.45" transform="matrix(1,0,0,1,139,134)" stroke-linecap="butt">
      <path fill="none" d="M155.015 0.0113 L155.015 -69"/>
      <path fill="white" d="M155.015 -84 L149.015 -68 L161.015 -68 Z" stroke="none"/>
      <path fill="none" d="M155.015 -84 L149.015 -68 L161.015 -68 Z"/>
      <path fill="none" d="M-0.0067 11.5625 L-76.48 11.5625"/>
      <line stroke-linecap="square" transform="matrix(-1,0,0,-1,-76.48,11.5625)" fill="none" x1="0" x2="-14" y1="0" y2="-4" stroke-miterlimit="10"/>
      <line stroke-linecap="square" transform="matrix(-1,0,0,-1,-76.48,11.5625)" fill="none" x1="0" x2="-14" y1="0" y2="4" stroke-miterlimit="10"/>
    </g>
    <g stroke-miterlimit="1.45" transform="matrix(1,0,0,1,139,134)" stroke-linecap="butt">
      <path fill="none" d="M-0.0191 98.6875 L-77.51 98.6875"/>
      <line stroke-linecap="square" transform="matrix(-1,0,0,-1,-77.51,98.6875)" fill="none" x1="0" x2="-14" y1="0" y2="-4" stroke-miterlimit="10"/>
      <line stroke-linecap="square" transform="matrix(-1,0,0,-1,-77.51,98.6875)" fill="none" x1="0" x2="-14" y1="0" y2="4" stroke-miterlimit="10"/>
    </g>
    <g stroke-dasharray="6,2" stroke-miterlimit="1.45" transform="matrix(1,0,0,1,139,134)" stroke-linecap="butt">
      <path fill="none" d="M310.0587 16.3518 L376.03 16.3518"/>
      <line stroke-linecap="square" transform="matrix(1,0,0,1,376.03,16.3518)" fill="none" x1="0" x2="-14" y1="0" y2="-4" stroke-dasharray="none" stroke-miterlimit="10"/>
      <line stroke-linecap="square" transform="matrix(1,0,0,1,376.03,16.3518)" fill="none" x1="0" x2="-14" y1="0" y2="4" stroke-dasharray="none" stroke-miterlimit="10"/>
    </g>
  </g>
</svg>
