<?xml version="1.0" encoding="UTF-8"?>
<svg xmlns="http://www.w3.org/2000/svg" xmlns:xlink="http://www.w3.org/1999/xlink" fill-opacity="1" color-rendering="auto" color-interpolation="auto" stroke="black" text-rendering="auto" stroke-linecap="square" width="1495" stroke-miterlimit="10" stroke-opacity="1" shape-rendering="auto" fill="black" stroke-dasharray="none" font-weight="normal" stroke-width="1" height="239" font-family="'Dialog'" font-style="normal" stroke-linejoin="miter" font-size="12" stroke-dashoffset="0" image-rendering="auto">
  <!--Generated by ySVG-->
  <defs id="genericDefs"/>
  <g>
    <defs id="defs1">
      <clipPath clipPathUnits="userSpaceOnUse" id="clipPath1">
        <path d="M0 0 L1495 0 L1495 239 L0 239 L0 0 Z"/>
      </clipPath>
      <clipPath clipPathUnits="userSpaceOnUse" id="clipPath2">
        <path d="M711.8604 26 L842.6704 26 L842.6704 49.125 L711.8604 49.125 L711.8604 26 Z"/>
      </clipPath>
      <clipPath clipPathUnits="userSpaceOnUse" id="clipPath3">
        <path d="M297.4751 99.125 L481.8451 99.125 L481.8451 122.25 L297.4751 122.25 L297.4751 99.125 Z"/>
      </clipPath>
      <clipPath clipPathUnits="userSpaceOnUse" id="clipPath4">
        <path d="M531.8453 99.125 L752.2653 99.125 L752.2653 122.25 L531.8453 122.25 L531.8453 99.125 Z"/>
      </clipPath>
      <clipPath clipPathUnits="userSpaceOnUse" id="clipPath5">
        <path d="M802.2656 99.125 L1022.6855 99.125 L1022.6855 122.25 L802.2656 122.25 L802.2656 99.125 Z"/>
      </clipPath>
      <clipPath clipPathUnits="userSpaceOnUse" id="clipPath6">
        <path d="M1072.6859 99.125 L1216.8859 99.125 L1216.8859 122.25 L1072.6859 122.25 L1072.6859 99.125 Z"/>
      </clipPath>
      <clipPath clipPathUnits="userSpaceOnUse" id="clipPath7">
        <path d="M1266.8861 99.125 L1486.2761 99.125 L1486.2761 122.25 L1266.8861 122.25 L1266.8861 99.125 Z"/>
      </clipPath>
      <clipPath clipPathUnits="userSpaceOnUse" id="clipPath8">
        <path d="M23.965 99.125 L247.475 99.125 L247.475 122.25 L23.965 122.25 L23.965 99.125 Z"/>
      </clipPath>
      <clipPath clipPathUnits="userSpaceOnUse" id="clipPath9">
        <path d="M8 172.25 L263.44 172.25 L263.44 195.375 L8 195.375 L8 172.25 Z"/>
      </clipPath>
      <script type="text/ecmascript"><![CDATA[
function umlload(newLocation)
{
if (newLocation.charAt(0) != '#') {
if (newLocation.indexOf("://") > -1) {
window.parent.location.href = newLocation;
} else {
var tmp = window.parent.location.href;
tmp = tmp.substring(0, tmp.lastIndexOf("/") + 1);
window.parent.location.href = tmp.concat(newLocation);
}
} else {
window.parent.location.hash = newLocation;
}
}
]]></script>
    </defs>
    <g fill="rgb(238,238,255)" stroke="rgb(238,238,255)">
      <rect width="140.8561" x="0" height="17.9688" y="0" stroke="none"/>
    </g>
    <g fill="rgb(166,166,178)" stroke-miterlimit="1.45" stroke-linecap="butt" stroke="rgb(166,166,178)">
      <rect fill="none" width="140.8561" x="0" height="17.9688" y="0"/>
    </g>
    <g fill="rgb(238,238,255)" stroke="rgb(238,238,255)">
      <rect width="1494.2761" x="0" height="185.4062" y="17.9688" stroke="none"/>
    </g>
    <g fill="rgb(166,166,178)" stroke-miterlimit="1.45" stroke-linecap="butt" stroke="rgb(166,166,178)">
      <rect fill="none" width="1494.2761" x="0" height="185.4062" y="17.9688"/>
    </g>
    <g font-family="sans-serif">
      <text xml:space="preserve" x="6" y="13.1406" onclick="umlload('#')" stroke="none">police.methodcalls</text>
    </g>
    <g fill="rgb(204,204,255)" stroke="rgb(204,204,255)">
      <rect x="711.8604" y="26" clip-path="url(#clipPath2)" width="130.81" height="23.125" stroke="none"/>
    </g>
    <g fill="rgb(142,142,178)" stroke-miterlimit="1.45" stroke-linecap="butt" stroke="rgb(142,142,178)">
      <rect fill="none" width="130.81" x="711.8604" height="23.125" y="26"/>
    </g>
    <g font-size="13" font-weight="bold" font-family="sans-serif">
      <text xml:space="preserve" x="717.7654" y="42.0625" onclick="umlload('BaseMethodCall.html')" stroke="none">BaseMethodCall</text>
    </g>
    <g fill="rgb(187,187,255)" stroke="rgb(187,187,255)">
      <rect x="297.4751" y="99.125" clip-path="url(#clipPath3)" width="184.37" height="23.125" stroke="none"/>
    </g>
    <g fill="rgb(130,130,178)" stroke-miterlimit="1.45" stroke-linecap="butt" stroke="rgb(130,130,178)">
      <rect fill="none" width="184.37" x="297.4751" height="23.125" y="99.125"/>
    </g>
    <g font-size="13" font-weight="bold" font-family="sans-serif">
      <text xml:space="preserve" x="304.1601" y="115.1875" onclick="umlload('CaseHistoryMethodCall.html')" stroke="none">CaseHistoryMethodCall</text>
    </g>
    <g fill="rgb(187,187,255)" stroke="rgb(187,187,255)">
      <rect x="531.8453" y="99.125" clip-path="url(#clipPath4)" width="220.42" height="23.125" stroke="none"/>
    </g>
    <g fill="rgb(130,130,178)" stroke-miterlimit="1.45" stroke-linecap="butt" stroke="rgb(130,130,178)">
      <rect fill="none" width="220.42" x="531.8453" height="23.125" y="99.125"/>
    </g>
    <g font-size="13" font-weight="bold" font-family="sans-serif">
      <text xml:space="preserve" x="539.0553" y="115.1875" onclick="umlload('CrimeAvailabilityMethodCall.html')" stroke="none">CrimeAvailabilityMethodCall</text>
    </g>
    <g fill="rgb(187,187,255)" stroke="rgb(187,187,255)">
      <rect x="802.2656" y="99.125" clip-path="url(#clipPath5)" width="220.42" height="23.125" stroke="none"/>
    </g>
    <g fill="rgb(130,130,178)" stroke-miterlimit="1.45" stroke-linecap="butt" stroke="rgb(130,130,178)">
      <rect fill="none" width="220.42" x="802.2656" height="23.125" y="99.125"/>
    </g>
    <g font-size="13" font-weight="bold" font-family="sans-serif">
      <text xml:space="preserve" x="809.4756" y="115.1875" onclick="umlload('CrimeCategoriesMethodCall.html')" stroke="none">CrimeCategoriesMethodCall</text>
    </g>
    <g fill="rgb(187,187,255)" stroke="rgb(187,187,255)">
      <rect x="1072.6859" y="99.125" clip-path="url(#clipPath6)" width="144.2" height="23.125" stroke="none"/>
    </g>
    <g fill="rgb(130,130,178)" stroke-miterlimit="1.45" stroke-linecap="butt" stroke="rgb(130,130,178)">
      <rect fill="none" width="144.2" x="1072.6859" height="23.125" y="99.125"/>
    </g>
    <g font-size="13" font-weight="bold" font-family="sans-serif">
      <text xml:space="preserve" x="1078.7859" y="115.1875" onclick="umlload('ForcesMethodCall.html')" stroke="none">ForcesMethodCall</text>
    </g>
    <g fill="rgb(187,187,255)" stroke="rgb(187,187,255)">
      <rect x="1266.8861" y="99.125" clip-path="url(#clipPath7)" width="219.39" height="23.125" stroke="none"/>
    </g>
    <g fill="rgb(130,130,178)" stroke-miterlimit="1.45" stroke-linecap="butt" stroke="rgb(130,130,178)">
      <rect fill="none" width="219.39" x="1266.8861" height="23.125" y="99.125"/>
    </g>
    <g font-size="13" font-weight="bold" font-family="sans-serif">
      <text xml:space="preserve" x="1274.0811" y="115.1875" onclick="umlload('NeighbourhoodsMethodCall.html')" stroke="none">NeighbourhoodsMethodCall</text>
    </g>
    <g fill="rgb(187,187,255)" stroke="rgb(187,187,255)">
      <rect x="23.965" y="99.125" clip-path="url(#clipPath8)" width="223.51" height="23.125" stroke="none"/>
    </g>
    <g fill="rgb(130,130,178)" stroke-miterlimit="1.45" stroke-linecap="butt" stroke="rgb(130,130,178)">
      <rect fill="none" width="223.51" x="23.965" height="23.125" y="99.125"/>
    </g>
    <g font-size="13" font-weight="bold" font-family="sans-serif">
      <text xml:space="preserve" x="31.22" y="115.1875" onclick="umlload('StreetLevelCrimeMethodCall.html')" stroke="none">StreetLevelCrimeMethodCall</text>
    </g>
    <g fill="rgb(187,187,255)" stroke="rgb(187,187,255)">
      <rect x="8" y="172.25" clip-path="url(#clipPath9)" width="255.44" height="23.125" stroke="none"/>
    </g>
    <g fill="rgb(130,130,178)" stroke-miterlimit="1.45" stroke-linecap="butt" stroke="rgb(130,130,178)">
      <rect fill="none" width="255.44" x="8" height="23.125" y="172.25"/>
    </g>
    <g font-size="13" font-weight="bold" font-family="sans-serif">
      <text xml:space="preserve" x="15.72" y="188.3125" onclick="umlload('StreetLevelOutcomesMethodCall.html')" stroke="none">StreetLevelOutcomesMethodCall</text>
    </g>
    <g font-family="sans-serif">
      <text xml:space="preserve" x="6" y="228.1562" onclick="umlload('http://www.yworks.com/')" stroke="none">yWorks UML Doclet</text>
    </g>
    <g stroke-linecap="butt" stroke-miterlimit="1.45">
      <path fill="none" d="M389.6601 99.125 L389.6601 74.125 L777.2654 74.125 L777.2654 64.125"/>
      <path fill="white" d="M777.2654 49.125 L771.2654 65.125 L783.2654 65.125 Z" stroke="none"/>
      <path fill="none" d="M777.2654 49.125 L771.2654 65.125 L783.2654 65.125 Z"/>
      <path fill="none" d="M642.0553 99.125 L642.0553 74.125 L777.2654 74.125 L777.2654 64.125"/>
      <path fill="white" d="M777.2654 49.125 L771.2654 65.125 L783.2654 65.125 Z" stroke="none"/>
      <path fill="none" d="M777.2654 49.125 L771.2654 65.125 L783.2654 65.125 Z"/>
      <path fill="none" d="M912.4756 99.125 L912.4756 74.125 L777.2654 74.125 L777.2654 64.125"/>
      <path fill="white" d="M777.2654 49.125 L771.2654 65.125 L783.2654 65.125 Z" stroke="none"/>
      <path fill="none" d="M777.2654 49.125 L771.2654 65.125 L783.2654 65.125 Z"/>
      <path fill="none" d="M1144.7859 99.125 L1144.7859 74.125 L777.2654 74.125 L777.2654 64.125"/>
      <path fill="white" d="M777.2654 49.125 L771.2654 65.125 L783.2654 65.125 Z" stroke="none"/>
      <path fill="none" d="M777.2654 49.125 L771.2654 65.125 L783.2654 65.125 Z"/>
      <path fill="none" d="M1376.5811 99.125 L1376.5811 74.125 L777.2654 74.125 L777.2654 64.125"/>
      <path fill="white" d="M777.2654 49.125 L771.2654 65.125 L783.2654 65.125 Z" stroke="none"/>
      <path fill="none" d="M777.2654 49.125 L771.2654 65.125 L783.2654 65.125 Z"/>
      <path fill="none" d="M135.72 99.125 L135.72 74.125 L777.2654 74.125 L777.2654 64.125"/>
      <path fill="white" d="M777.2654 49.125 L771.2654 65.125 L783.2654 65.125 Z" stroke="none"/>
      <path fill="none" d="M777.2654 49.125 L771.2654 65.125 L783.2654 65.125 Z"/>
      <path fill="none" d="M135.72 172.25 L135.72 137.25"/>
      <path fill="white" d="M135.72 122.25 L129.72 138.25 L141.72 138.25 Z" stroke="none"/>
      <path fill="none" d="M135.72 122.25 L129.72 138.25 L141.72 138.25 Z"/>
    </g>
  </g>
</svg>
