<?xml version="1.0" encoding="UTF-8"?>
<svg xmlns="http://www.w3.org/2000/svg" xmlns:xlink="http://www.w3.org/1999/xlink" fill-opacity="1" color-rendering="auto" color-interpolation="auto" stroke="black" text-rendering="auto" stroke-linecap="square" width="571" stroke-miterlimit="10" stroke-opacity="1" shape-rendering="auto" fill="black" stroke-dasharray="none" font-weight="normal" stroke-width="1" height="338" font-family="'Dialog'" font-style="normal" stroke-linejoin="miter" font-size="12" stroke-dashoffset="0" image-rendering="auto">
  <!--Generated by ySVG-->
  <defs id="genericDefs"/>
  <g>
    <defs id="defs1">
      <clipPath clipPathUnits="userSpaceOnUse" id="clipPath1">
        <path d="M0 0 L571 0 L571 338 L0 338 L0 0 Z"/>
      </clipPath>
      <clipPath clipPathUnits="userSpaceOnUse" id="clipPath2">
        <path d="M-171.24 129.8287 L-103.26 129.8287 L-103.26 152.9537 L-171.24 152.9537 L-171.24 129.8287 Z"/>
      </clipPath>
      <clipPath clipPathUnits="userSpaceOnUse" id="clipPath3">
        <path d="M-173.12 0 L-66 0 L-66 23.125 L-173.12 23.125 L-173.12 0 Z"/>
      </clipPath>
      <clipPath clipPathUnits="userSpaceOnUse" id="clipPath4">
        <path d="M-78.4384 49.4768 C-78.4384 58.5077 -99.6336 65.8287 -125.7792 65.8287 C-151.9248 65.8287 -173.12 58.5077 -173.12 49.4768 C-173.12 40.446 -151.9248 33.125 -125.7792 33.125 C-99.6336 33.125 -78.4384 40.446 -78.4384 49.4768 Z"/>
      </clipPath>
      <clipPath clipPathUnits="userSpaceOnUse" id="clipPath5">
        <path d="M148.835 -107.125 L231.235 -107.125 L231.235 -84 L148.835 -84 L148.835 -107.125 Z"/>
      </clipPath>
      <clipPath clipPathUnits="userSpaceOnUse" id="clipPath6">
        <path d="M0 0 L380.07 0 L380.07 160.9537 L0 160.9537 L0 0 Z"/>
      </clipPath>
      <script type="text/ecmascript"><![CDATA[
function umlload(newLocation)
{
if (newLocation.charAt(0) != '#') {
if (newLocation.indexOf("://") > -1) {
window.parent.location.href = newLocation;
} else {
var tmp = window.parent.location.href;
tmp = tmp.substring(0, tmp.lastIndexOf("/") + 1);
window.parent.location.href = tmp.concat(newLocation);
}
} else {
window.parent.location.hash = newLocation;
}
}
]]></script>
    </defs>
    <g fill="rgb(238,238,255)" transform="matrix(1,0,0,1,182,134)" stroke="rgb(238,238,255)">
      <rect width="118.5772" x="-179.24" height="17.9688" y="103.8287" stroke="none"/>
    </g>
    <g fill="rgb(166,166,178)" stroke-miterlimit="1.45" transform="matrix(1,0,0,1,182,134)" stroke-linecap="butt" stroke="rgb(166,166,178)">
      <rect fill="none" width="118.5772" x="-179.24" height="17.9688" y="103.8287"/>
    </g>
    <g fill="rgb(238,238,255)" transform="matrix(1,0,0,1,182,134)" stroke="rgb(238,238,255)">
      <rect width="120.98" x="-179.24" height="39.1562" y="121.7974" stroke="none"/>
    </g>
    <g fill="rgb(166,166,178)" stroke-miterlimit="1.45" transform="matrix(1,0,0,1,182,134)" stroke-linecap="butt" stroke="rgb(166,166,178)">
      <rect fill="none" width="120.98" x="-179.24" height="39.1562" y="121.7974"/>
    </g>
    <g font-family="sans-serif" transform="matrix(1,0,0,1,182,134)">
      <text xml:space="preserve" x="-173.24" y="116.9693" stroke="none">nde2.pull.types</text>
    </g>
    <g fill="rgb(187,187,255)" transform="matrix(1,0,0,1,182,134)" stroke="rgb(187,187,255)">
      <rect x="-171.24" y="129.8287" clip-path="url(#clipPath2)" width="67.98" height="23.125" stroke="none"/>
    </g>
    <g fill="rgb(130,130,178)" stroke-miterlimit="1.45" transform="matrix(1,0,0,1,182,134)" stroke-linecap="butt" stroke="rgb(130,130,178)">
      <rect fill="none" width="67.98" x="-171.24" height="23.125" y="129.8287"/>
    </g>
    <g font-size="13" font-weight="bold" font-family="sans-serif" transform="matrix(1,0,0,1,182,134)">
      <text xml:space="preserve" x="-166.25" y="145.8912" stroke="none">Dataset</text>
    </g>
    <g fill="rgb(238,238,255)" transform="matrix(1,0,0,1,182,134)" stroke="rgb(238,238,255)">
      <rect width="67.654" x="-181.12" height="17.9688" y="-26" stroke="none"/>
    </g>
    <g fill="rgb(166,166,178)" stroke-miterlimit="1.45" transform="matrix(1,0,0,1,182,134)" stroke-linecap="butt" stroke="rgb(166,166,178)">
      <rect fill="none" width="67.654" x="-181.12" height="17.9688" y="-26"/>
    </g>
    <g fill="rgb(238,238,255)" transform="matrix(1,0,0,1,182,134)" stroke="rgb(238,238,255)">
      <rect width="123.12" x="-181.12" height="81.8599" y="-8.0312" stroke="none"/>
    </g>
    <g fill="rgb(166,166,178)" stroke-miterlimit="1.45" transform="matrix(1,0,0,1,182,134)" stroke-linecap="butt" stroke="rgb(166,166,178)">
      <rect fill="none" width="123.12" x="-181.12" height="81.8599" y="-8.0312"/>
    </g>
    <g font-family="sans-serif" transform="matrix(1,0,0,1,182,134)">
      <text xml:space="preserve" x="-175.12" y="-12.8594" stroke="none">java.util</text>
    </g>
    <g fill="rgb(187,187,255)" transform="matrix(1,0,0,1,182,134)" stroke="rgb(187,187,255)">
      <rect x="-173.12" y="0" clip-path="url(#clipPath3)" width="107.12" height="23.125" stroke="none"/>
    </g>
    <g fill="rgb(130,130,178)" stroke-miterlimit="1.45" transform="matrix(1,0,0,1,182,134)" stroke-linecap="butt" stroke="rgb(130,130,178)">
      <rect fill="none" width="107.12" x="-173.12" height="23.125" y="0"/>
    </g>
    <g font-size="13" font-weight="bold" font-family="sans-serif" transform="matrix(1,0,0,1,182,134)">
      <text xml:space="preserve" x="-167.56" y="16.0625" stroke="none">ArrayList&lt;E&gt;</text>
    </g>
    <g fill="rgb(221,221,255)" transform="matrix(1,0,0,1,182,134)" stroke="rgb(221,221,255)">
      <rect x="-173.12" y="33.125" clip-path="url(#clipPath4)" width="94.6816" height="32.7037" stroke="none"/>
    </g>
    <g fill="rgb(154,154,178)" stroke-miterlimit="1.45" transform="matrix(1,0,0,1,182,134)" stroke-linecap="butt" stroke="rgb(154,154,178)">
      <ellipse rx="47.3408" fill="none" ry="16.3518" cx="-125.7792" cy="49.4768"/>
    </g>
    <g font-style="italic" font-size="13" font-weight="bold" font-family="sans-serif" transform="matrix(1,0,0,1,182,134)">
      <text xml:space="preserve" x="-154.2792" y="53.9768" stroke="none">List&lt;E&gt;</text>
    </g>
    <g fill="rgb(238,238,255)" transform="matrix(1,0,0,1,182,134)" stroke="rgb(238,238,255)">
      <rect width="162.0741" x="112.835" height="17.9688" y="-133.125" stroke="none"/>
    </g>
    <g fill="rgb(166,166,178)" stroke-miterlimit="1.45" transform="matrix(1,0,0,1,182,134)" stroke-linecap="butt" stroke="rgb(166,166,178)">
      <rect fill="none" width="162.0741" x="112.835" height="17.9688" y="-133.125"/>
    </g>
    <g fill="rgb(238,238,255)" transform="matrix(1,0,0,1,182,134)" stroke="rgb(238,238,255)">
      <rect width="162.4" x="112.835" height="39.1562" y="-115.1562" stroke="none"/>
    </g>
    <g fill="rgb(166,166,178)" stroke-miterlimit="1.45" transform="matrix(1,0,0,1,182,134)" stroke-linecap="butt" stroke="rgb(166,166,178)">
      <rect fill="none" width="162.4" x="112.835" height="39.1562" y="-115.1562"/>
    </g>
    <g font-family="sans-serif" transform="matrix(1,0,0,1,182,134)">
      <text xml:space="preserve" x="118.835" y="-119.9844" onclick="umlload('package-summary.html')" stroke="none">&lt;unnamed package&gt;</text>
    </g>
    <g fill="rgb(187,187,255)" transform="matrix(1,0,0,1,182,134)" stroke="rgb(187,187,255)">
      <rect x="148.835" y="-107.125" clip-path="url(#clipPath5)" width="82.4" height="23.125" stroke="none"/>
    </g>
    <g fill="rgb(130,130,178)" stroke-miterlimit="1.45" transform="matrix(1,0,0,1,182,134)" stroke-linecap="butt" stroke="rgb(130,130,178)">
      <rect fill="none" width="82.4" x="148.835" height="23.125" y="-107.125"/>
    </g>
    <g font-size="13" font-weight="bold" font-family="sans-serif" transform="matrix(1,0,0,1,182,134)">
      <text xml:space="preserve" x="154.035" y="-91.0625" stroke="none">Fragment</text>
    </g>
    <g fill="rgb(238,238,255)" transform="matrix(1,0,0,1,182,134)" stroke="rgb(238,238,255)">
      <rect width="220.4236" x="-8" height="17.9688" y="-26" stroke="none"/>
    </g>
    <g fill="rgb(166,166,178)" stroke-miterlimit="1.45" transform="matrix(1,0,0,1,182,134)" stroke-linecap="butt" stroke="rgb(166,166,178)">
      <rect fill="none" width="220.4236" x="-8" height="17.9688" y="-26"/>
    </g>
    <g fill="rgb(238,238,255)" transform="matrix(1,0,0,1,182,134)" stroke="rgb(238,238,255)">
      <rect width="396.07" x="-8" height="176.9849" y="-8.0312" stroke="none"/>
    </g>
    <g fill="rgb(166,166,178)" stroke-miterlimit="1.45" transform="matrix(1,0,0,1,182,134)" stroke-linecap="butt" stroke="rgb(166,166,178)">
      <rect fill="none" width="396.07" x="-8" height="176.9849" y="-8.0312"/>
    </g>
    <g font-family="sans-serif" transform="matrix(1,0,0,1,182,134)">
      <text xml:space="preserve" x="-2" y="-12.8594" onclick="umlload('package-summary.html')" stroke="none">lamparski.areabase.fragments</text>
    </g>
    <g fill="rgb(187,187,255)" transform="matrix(1,0,0,1,182,134)" stroke="rgb(187,187,255)">
      <rect x="0" y="0" clip-path="url(#clipPath6)" width="380.07" height="26.6406" stroke="none"/>
      <line clip-path="url(#clipPath6)" fill="none" x1="0" x2="380.07" y1="26.6406" y2="26.6406" stroke="black"/>
      <rect x="0" y="27.6406" clip-path="url(#clipPath6)" width="380.07" height="15.9688" stroke="none"/>
      <line clip-path="url(#clipPath6)" fill="none" x1="0" x2="380.07" y1="43.6094" y2="43.6094" stroke="black"/>
      <rect x="0" y="44.6094" clip-path="url(#clipPath6)" width="380.07" height="116.3443" stroke="none"/>
    </g>
    <g fill="rgb(130,130,178)" stroke-miterlimit="1.45" transform="matrix(1,0,0,1,182,134)" stroke-linecap="butt" stroke="rgb(130,130,178)">
      <rect fill="none" width="380.07" x="0" height="160.9537" y="0"/>
    </g>
    <g font-size="16" font-weight="bold" font-family="sans-serif" transform="matrix(1,0,0,1,182,134)">
      <text xml:space="preserve" x="86.035" y="18.8594" onclick="umlload('#')" stroke="none">DatasetGraphFragment</text>
    </g>
    <g font-family="sans-serif" transform="matrix(1,0,0,1,182,134)">
      <text xml:space="preserve" x="4" y="38.1719" stroke="none">+</text>
      <text xml:space="preserve" x="19" y="39.7812" onclick="umlload('#DatasetGraphFragment()')" stroke="none">DatasetGraphFragment()</text>
    </g>
    <g font-family="sans-serif" transform="matrix(1,0,0,1,182,134)">
      <text xml:space="preserve" x="4" y="55.1719" stroke="none">+</text>
      <text xml:space="preserve" x="19" y="56.75" onclick="umlload('#newInstance(nde2.pull.types.Dataset)')" stroke="none">newInstance(Dataset) : DatasetGraphFragment</text>
      <line y2="59.5781" fill="none" x1="19" x2="318" y1="59.5781"/>
    </g>
    <g font-family="sans-serif" transform="matrix(1,0,0,1,182,134)">
      <text xml:space="preserve" x="4" y="71.1719" stroke="none">+</text>
      <text xml:space="preserve" x="19" y="72.7188" onclick="umlload('#onActivityCreated(Bundle)')" stroke="none">onActivityCreated(Bundle) : void</text>
    </g>
    <g font-family="sans-serif" transform="matrix(1,0,0,1,182,134)">
      <text xml:space="preserve" x="4" y="87.1719" stroke="none">+</text>
      <text xml:space="preserve" x="19" y="88.6875" onclick="umlload('#onClick(int)')" stroke="none">onClick(int) : void</text>
    </g>
    <g font-family="sans-serif" transform="matrix(1,0,0,1,182,134)">
      <text xml:space="preserve" x="4" y="103.1719" stroke="none">+</text>
      <text xml:space="preserve" x="19" y="104.6562" onclick="umlload('#onCreateView(LayoutInflater, ViewGroup, Bundle)')" stroke="none">onCreateView(LayoutInflater, ViewGroup, Bundle) : View</text>
    </g>
    <g font-family="sans-serif" transform="matrix(1,0,0,1,182,134)">
      <text xml:space="preserve" x="4" y="119.1719" stroke="none">+</text>
      <text xml:space="preserve" x="19" y="120.625" onclick="umlload('#onItemSelected(, View, int, long)')" stroke="none">onItemSelected(&lt;any&gt;, View, int, long) : void</text>
    </g>
    <g font-family="sans-serif" transform="matrix(1,0,0,1,182,134)">
      <text xml:space="preserve" x="4" y="135.1719" stroke="none">+</text>
      <text xml:space="preserve" x="19" y="136.5938" onclick="umlload('#onNothingSelected()')" stroke="none">onNothingSelected(&lt;any&gt;) : void</text>
    </g>
    <g font-family="sans-serif" transform="matrix(1,0,0,1,182,134)">
      <text xml:space="preserve" x="4" y="151.1719" stroke="none">+</text>
      <text xml:space="preserve" x="19" y="152.5625" onclick="umlload('#onSaveInstanceState(Bundle)')" stroke="none">onSaveInstanceState(Bundle) : void</text>
    </g>
    <g font-family="sans-serif" transform="matrix(1,0,0,1,182,134)">
      <text xml:space="preserve" x="-176" y="193.1562" onclick="umlload('http://www.yworks.com/')" stroke="none">yWorks UML Doclet</text>
    </g>
    <g stroke-miterlimit="1.45" transform="matrix(1,0,0,1,182,134)" stroke-linecap="butt">
      <path fill="none" d="M190.035 0.0128 L190.035 -69"/>
      <path fill="white" d="M190.035 -84 L184.035 -68 L196.035 -68 Z" stroke="none"/>
      <path fill="none" d="M190.035 -84 L184.035 -68 L196.035 -68 Z"/>
      <path fill="none" d="M-0.0228 11.5625 L-66 11.5625"/>
      <line stroke-linecap="square" transform="matrix(-1,0,0,-1,-66,11.5625)" fill="none" x1="0" x2="-14" y1="0" y2="-4" stroke-miterlimit="10"/>
      <line stroke-linecap="square" transform="matrix(-1,0,0,-1,-66,11.5625)" fill="none" x1="0" x2="-14" y1="0" y2="4" stroke-miterlimit="10"/>
    </g>
    <g stroke-miterlimit="1.45" transform="matrix(1,0,0,1,182,134)" stroke-linecap="butt">
      <path fill="none" d="M0.0145 49.4768 L-78.4384 49.4768"/>
      <line stroke-linecap="square" transform="matrix(-1,0,0,-1,-78.4384,49.4768)" fill="none" x1="0" x2="-14" y1="0" y2="-4" stroke-miterlimit="10"/>
      <line stroke-linecap="square" transform="matrix(-1,0,0,-1,-78.4384,49.4768)" fill="none" x1="0" x2="-14" y1="0" y2="4" stroke-miterlimit="10"/>
    </g>
    <g stroke-miterlimit="1.45" transform="matrix(1,0,0,1,182,134)" stroke-linecap="butt">
      <path fill="none" d="M-0.0156 141.3912 L-103.26 141.3912"/>
      <line stroke-linecap="square" transform="matrix(-1,0,0,-1,-103.26,141.3912)" fill="none" x1="0" x2="-14" y1="0" y2="-4" stroke-miterlimit="10"/>
      <line stroke-linecap="square" transform="matrix(-1,0,0,-1,-103.26,141.3912)" fill="none" x1="0" x2="-14" y1="0" y2="4" stroke-miterlimit="10"/>
    </g>
  </g>
</svg>
