<?xml version="1.0" encoding="UTF-8"?>
<svg xmlns="http://www.w3.org/2000/svg" xmlns:xlink="http://www.w3.org/1999/xlink" fill-opacity="1" color-rendering="auto" color-interpolation="auto" stroke="black" text-rendering="auto" stroke-linecap="square" width="1172" stroke-miterlimit="10" stroke-opacity="1" shape-rendering="auto" fill="black" stroke-dasharray="none" font-weight="normal" stroke-width="1" height="484" font-family="'Dialog'" font-style="normal" stroke-linejoin="miter" font-size="12" stroke-dashoffset="0" image-rendering="auto">
  <!--Generated by ySVG-->
  <defs id="genericDefs"/>
  <g>
    <defs id="defs1">
      <clipPath clipPathUnits="userSpaceOnUse" id="clipPath1">
        <path d="M0 0 L1172 0 L1172 484 L0 484 L0 0 Z"/>
      </clipPath>
      <clipPath clipPathUnits="userSpaceOnUse" id="clipPath2">
        <path d="M663.2003 16.3518 C663.2003 25.3827 626.3533 32.7037 580.9001 32.7037 C535.447 32.7037 498.6 25.3827 498.6 16.3518 C498.6 7.321 535.447 0 580.9001 0 C626.3533 0 663.2003 7.321 663.2003 16.3518 Z"/>
      </clipPath>
      <clipPath clipPathUnits="userSpaceOnUse" id="clipPath3">
        <path d="M-171.24 216.9537 L-127.98 216.9537 L-127.98 240.0787 L-171.24 240.0787 L-171.24 216.9537 Z"/>
      </clipPath>
      <clipPath clipPathUnits="userSpaceOnUse" id="clipPath4">
        <path d="M-491.3389 87.125 L-357.4389 87.125 L-357.4389 110.25 L-491.3389 110.25 L-491.3389 87.125 Z"/>
      </clipPath>
      <clipPath clipPathUnits="userSpaceOnUse" id="clipPath5">
        <path d="M-66 136.6018 C-66 145.6327 -161.2153 152.9537 -278.6694 152.9537 C-396.1235 152.9537 -491.3389 145.6327 -491.3389 136.6018 C-491.3389 127.571 -396.1235 120.25 -278.6694 120.25 C-161.2153 120.25 -66 127.571 -66 136.6018 Z"/>
      </clipPath>
      <clipPath clipPathUnits="userSpaceOnUse" id="clipPath6">
        <path d="M-130.04 0 L-76.48 0 L-76.48 23.125 L-130.04 23.125 L-130.04 0 Z"/>
      </clipPath>
      <clipPath clipPathUnits="userSpaceOnUse" id="clipPath7">
        <path d="M553.9009 -100.3518 C553.9009 -91.321 504.0107 -84 442.468 -84 C380.9252 -84 331.035 -91.321 331.035 -100.3518 C331.035 -109.3827 380.9252 -116.7037 442.468 -116.7037 C504.0107 -116.7037 553.9009 -109.3827 553.9009 -100.3518 Z"/>
      </clipPath>
      <clipPath clipPathUnits="userSpaceOnUse" id="clipPath8">
        <path d="M175.1 -107.125 L257.5 -107.125 L257.5 -84 L175.1 -84 L175.1 -107.125 Z"/>
      </clipPath>
      <clipPath clipPathUnits="userSpaceOnUse" id="clipPath9">
        <path d="M0 0 L432.6 0 L432.6 297.1094 L0 297.1094 L0 0 Z"/>
      </clipPath>
      <script type="text/ecmascript"><![CDATA[
function umlload(newLocation)
{
if (newLocation.charAt(0) != '#') {
if (newLocation.indexOf("://") > -1) {
window.parent.location.href = newLocation;
} else {
var tmp = window.parent.location.href;
tmp = tmp.substring(0, tmp.lastIndexOf("/") + 1);
window.parent.location.href = tmp.concat(newLocation);
}
} else {
window.parent.location.hash = newLocation;
}
}
]]></script>
    </defs>
    <g fill="rgb(238,238,255)" transform="matrix(1,0,0,1,500,143)" stroke="rgb(238,238,255)">
      <rect width="76.1412" x="490.6" height="17.9688" y="-26" stroke="none"/>
    </g>
    <g fill="rgb(166,166,178)" stroke-miterlimit="1.45" transform="matrix(1,0,0,1,500,143)" stroke-linecap="butt" stroke="rgb(166,166,178)">
      <rect fill="none" width="76.1412" x="490.6" height="17.9688" y="-26"/>
    </g>
    <g fill="rgb(238,238,255)" transform="matrix(1,0,0,1,500,143)" stroke="rgb(238,238,255)">
      <rect width="180.6003" x="490.6" height="48.7349" y="-8.0312" stroke="none"/>
    </g>
    <g fill="rgb(166,166,178)" stroke-miterlimit="1.45" transform="matrix(1,0,0,1,500,143)" stroke-linecap="butt" stroke="rgb(166,166,178)">
      <rect fill="none" width="180.6003" x="490.6" height="48.7349" y="-8.0312"/>
    </g>
    <g font-family="sans-serif" transform="matrix(1,0,0,1,500,143)">
      <text xml:space="preserve" x="496.6" y="-12.8594" stroke="none">java.lang</text>
    </g>
    <g fill="rgb(221,221,255)" transform="matrix(1,0,0,1,500,143)" stroke="rgb(221,221,255)">
      <rect x="498.6" y="0" clip-path="url(#clipPath2)" width="164.6003" height="32.7037" stroke="none"/>
    </g>
    <g fill="rgb(154,154,178)" stroke-miterlimit="1.45" transform="matrix(1,0,0,1,500,143)" stroke-linecap="butt" stroke="rgb(154,154,178)">
      <ellipse rx="82.3002" fill="none" ry="16.3518" cx="580.9002" cy="16.3518"/>
    </g>
    <g font-style="italic" font-size="13" font-weight="bold" font-family="sans-serif" transform="matrix(1,0,0,1,500,143)">
      <text xml:space="preserve" x="528.4001" y="20.8518" stroke="none">CharSequence</text>
    </g>
    <g fill="rgb(238,238,255)" transform="matrix(1,0,0,1,500,143)" stroke="rgb(238,238,255)">
      <rect width="118.5772" x="-179.24" height="17.9688" y="190.9537" stroke="none"/>
    </g>
    <g fill="rgb(166,166,178)" stroke-miterlimit="1.45" transform="matrix(1,0,0,1,500,143)" stroke-linecap="butt" stroke="rgb(166,166,178)">
      <rect fill="none" width="118.5772" x="-179.24" height="17.9688" y="190.9537"/>
    </g>
    <g fill="rgb(238,238,255)" transform="matrix(1,0,0,1,500,143)" stroke="rgb(238,238,255)">
      <rect width="121.26" x="-179.24" height="39.1562" y="208.9224" stroke="none"/>
    </g>
    <g fill="rgb(166,166,178)" stroke-miterlimit="1.45" transform="matrix(1,0,0,1,500,143)" stroke-linecap="butt" stroke="rgb(166,166,178)">
      <rect fill="none" width="121.26" x="-179.24" height="39.1562" y="208.9224"/>
    </g>
    <g font-family="sans-serif" transform="matrix(1,0,0,1,500,143)">
      <text xml:space="preserve" x="-173.24" y="204.0943" stroke="none">nde2.pull.types</text>
    </g>
    <g fill="rgb(187,187,255)" transform="matrix(1,0,0,1,500,143)" stroke="rgb(187,187,255)">
      <rect x="-171.24" y="216.9537" clip-path="url(#clipPath3)" width="43.26" height="23.125" stroke="none"/>
    </g>
    <g fill="rgb(130,130,178)" stroke-miterlimit="1.45" transform="matrix(1,0,0,1,500,143)" stroke-linecap="butt" stroke="rgb(130,130,178)">
      <rect fill="none" width="43.26" x="-171.24" height="23.125" y="216.9537"/>
    </g>
    <g font-size="13" font-weight="bold" font-family="sans-serif" transform="matrix(1,0,0,1,500,143)">
      <text xml:space="preserve" x="-166.61" y="233.0162" stroke="none">Area</text>
    </g>
    <g fill="rgb(238,238,255)" transform="matrix(1,0,0,1,500,143)" stroke="rgb(238,238,255)">
      <rect width="206.6319" x="-499.3389" height="17.9688" y="61.125" stroke="none"/>
    </g>
    <g fill="rgb(166,166,178)" stroke-miterlimit="1.45" transform="matrix(1,0,0,1,500,143)" stroke-linecap="butt" stroke="rgb(166,166,178)">
      <rect fill="none" width="206.6319" x="-499.3389" height="17.9688" y="61.125"/>
    </g>
    <g fill="rgb(238,238,255)" transform="matrix(1,0,0,1,500,143)" stroke="rgb(238,238,255)">
      <rect width="441.3389" x="-499.3389" height="81.8599" y="79.0938" stroke="none"/>
    </g>
    <g fill="rgb(166,166,178)" stroke-miterlimit="1.45" transform="matrix(1,0,0,1,500,143)" stroke-linecap="butt" stroke="rgb(166,166,178)">
      <rect fill="none" width="441.3389" x="-499.3389" height="81.8599" y="79.0938"/>
    </g>
    <g font-family="sans-serif" transform="matrix(1,0,0,1,500,143)">
      <text xml:space="preserve" x="-493.3389" y="74.2656" onclick="umlload('../../../lamparski/areabase/services/package-summary.html')" stroke="none">lamparski.areabase.services</text>
    </g>
    <g fill="rgb(187,187,255)" transform="matrix(1,0,0,1,500,143)" stroke="rgb(187,187,255)">
      <rect x="-491.3389" y="87.125" clip-path="url(#clipPath4)" width="133.9" height="23.125" stroke="none"/>
    </g>
    <g fill="rgb(130,130,178)" stroke-miterlimit="1.45" transform="matrix(1,0,0,1,500,143)" stroke-linecap="butt" stroke="rgb(130,130,178)">
      <rect fill="none" width="133.9" x="-491.3389" height="23.125" y="87.125"/>
    </g>
    <g font-size="13" font-weight="bold" font-family="sans-serif" transform="matrix(1,0,0,1,500,143)">
      <text xml:space="preserve" x="-485.3889" y="103.1875" onclick="umlload('../../../lamparski/areabase/services/AreaDataService.html')" stroke="none">AreaDataService</text>
    </g>
    <g fill="rgb(221,221,255)" transform="matrix(1,0,0,1,500,143)" stroke="rgb(221,221,255)">
      <rect x="-491.3389" y="120.25" clip-path="url(#clipPath5)" width="425.3389" height="32.7037" stroke="none"/>
    </g>
    <g fill="rgb(154,154,178)" stroke-miterlimit="1.45" transform="matrix(1,0,0,1,500,143)" stroke-linecap="butt" stroke="rgb(154,154,178)">
      <ellipse rx="212.6694" fill="none" ry="16.3518" cx="-278.6694" cy="136.6018"/>
    </g>
    <g font-style="italic" font-size="13" font-weight="bold" font-family="sans-serif" transform="matrix(1,0,0,1,500,143)">
      <text xml:space="preserve" x="-420.6694" y="141.1018" onclick="umlload('../../../lamparski/areabase/services/AreaDataService.AreaLookupCallbacks.html')" stroke="none">AreaDataService.AreaLookupCallbacks</text>
    </g>
    <g fill="rgb(238,238,255)" transform="matrix(1,0,0,1,500,143)" stroke="rgb(238,238,255)">
      <rect width="76.1412" x="-138.04" height="17.9688" y="-26" stroke="none"/>
    </g>
    <g fill="rgb(166,166,178)" stroke-miterlimit="1.45" transform="matrix(1,0,0,1,500,143)" stroke-linecap="butt" stroke="rgb(166,166,178)">
      <rect fill="none" width="76.1412" x="-138.04" height="17.9688" y="-26"/>
    </g>
    <g fill="rgb(238,238,255)" transform="matrix(1,0,0,1,500,143)" stroke="rgb(238,238,255)">
      <rect width="79.56" x="-138.04" height="39.1562" y="-8.0312" stroke="none"/>
    </g>
    <g fill="rgb(166,166,178)" stroke-miterlimit="1.45" transform="matrix(1,0,0,1,500,143)" stroke-linecap="butt" stroke="rgb(166,166,178)">
      <rect fill="none" width="79.56" x="-138.04" height="39.1562" y="-8.0312"/>
    </g>
    <g font-family="sans-serif" transform="matrix(1,0,0,1,500,143)">
      <text xml:space="preserve" x="-132.04" y="-12.8594" stroke="none">java.lang</text>
    </g>
    <g fill="rgb(187,187,255)" transform="matrix(1,0,0,1,500,143)" stroke="rgb(187,187,255)">
      <rect x="-130.04" y="0" clip-path="url(#clipPath6)" width="53.56" height="23.125" stroke="none"/>
    </g>
    <g fill="rgb(130,130,178)" stroke-miterlimit="1.45" transform="matrix(1,0,0,1,500,143)" stroke-linecap="butt" stroke="rgb(130,130,178)">
      <rect fill="none" width="53.56" x="-130.04" height="23.125" y="0"/>
    </g>
    <g font-size="13" font-weight="bold" font-family="sans-serif" transform="matrix(1,0,0,1,500,143)">
      <text xml:space="preserve" x="-125.26" y="16.0625" stroke="none">String</text>
    </g>
    <g fill="rgb(238,238,255)" transform="matrix(1,0,0,1,500,143)" stroke="rgb(238,238,255)">
      <rect width="220.4236" x="323.035" height="17.9688" y="-142.7037" stroke="none"/>
    </g>
    <g fill="rgb(166,166,178)" stroke-miterlimit="1.45" transform="matrix(1,0,0,1,500,143)" stroke-linecap="butt" stroke="rgb(166,166,178)">
      <rect fill="none" width="220.4236" x="323.035" height="17.9688" y="-142.7037"/>
    </g>
    <g fill="rgb(238,238,255)" transform="matrix(1,0,0,1,500,143)" stroke="rgb(238,238,255)">
      <rect width="238.8659" x="323.035" height="48.7349" y="-124.7349" stroke="none"/>
    </g>
    <g fill="rgb(166,166,178)" stroke-miterlimit="1.45" transform="matrix(1,0,0,1,500,143)" stroke-linecap="butt" stroke="rgb(166,166,178)">
      <rect fill="none" width="238.8659" x="323.035" height="48.7349" y="-124.7349"/>
    </g>
    <g font-family="sans-serif" transform="matrix(1,0,0,1,500,143)">
      <text xml:space="preserve" x="329.035" y="-129.5631" onclick="umlload('../../../lamparski/areabase/fragments/package-summary.html')" stroke="none">lamparski.areabase.fragments</text>
    </g>
    <g fill="rgb(221,221,255)" transform="matrix(1,0,0,1,500,143)" stroke="rgb(221,221,255)">
      <rect x="331.035" y="-116.7037" clip-path="url(#clipPath7)" width="222.8659" height="32.7037" stroke="none"/>
    </g>
    <g fill="rgb(154,154,178)" stroke-miterlimit="1.45" transform="matrix(1,0,0,1,500,143)" stroke-linecap="butt" stroke="rgb(154,154,178)">
      <ellipse rx="111.433" fill="none" ry="16.3518" cx="442.468" cy="-100.3518"/>
    </g>
    <g font-style="italic" font-size="13" font-weight="bold" font-family="sans-serif" transform="matrix(1,0,0,1,500,143)">
      <text xml:space="preserve" x="369.968" y="-95.8518" onclick="umlload('../../../lamparski/areabase/fragments/IAreabaseFragment.html')" stroke="none">IAreabaseFragment</text>
    </g>
    <g fill="rgb(238,238,255)" transform="matrix(1,0,0,1,500,143)" stroke="rgb(238,238,255)">
      <rect width="162.0741" x="139.1" height="17.9688" y="-133.125" stroke="none"/>
    </g>
    <g fill="rgb(166,166,178)" stroke-miterlimit="1.45" transform="matrix(1,0,0,1,500,143)" stroke-linecap="butt" stroke="rgb(166,166,178)">
      <rect fill="none" width="162.0741" x="139.1" height="17.9688" y="-133.125"/>
    </g>
    <g fill="rgb(238,238,255)" transform="matrix(1,0,0,1,500,143)" stroke="rgb(238,238,255)">
      <rect width="162.4" x="139.1" height="39.1562" y="-115.1562" stroke="none"/>
    </g>
    <g fill="rgb(166,166,178)" stroke-miterlimit="1.45" transform="matrix(1,0,0,1,500,143)" stroke-linecap="butt" stroke="rgb(166,166,178)">
      <rect fill="none" width="162.4" x="139.1" height="39.1562" y="-115.1562"/>
    </g>
    <g font-family="sans-serif" transform="matrix(1,0,0,1,500,143)">
      <text xml:space="preserve" x="145.1" y="-119.9844" onclick="umlload('package-summary.html')" stroke="none">&lt;unnamed package&gt;</text>
    </g>
    <g fill="rgb(187,187,255)" transform="matrix(1,0,0,1,500,143)" stroke="rgb(187,187,255)">
      <rect x="175.1" y="-107.125" clip-path="url(#clipPath8)" width="82.4" height="23.125" stroke="none"/>
    </g>
    <g fill="rgb(130,130,178)" stroke-miterlimit="1.45" transform="matrix(1,0,0,1,500,143)" stroke-linecap="butt" stroke="rgb(130,130,178)">
      <rect fill="none" width="82.4" x="175.1" height="23.125" y="-107.125"/>
    </g>
    <g font-size="13" font-weight="bold" font-family="sans-serif" transform="matrix(1,0,0,1,500,143)">
      <text xml:space="preserve" x="180.3" y="-91.0625" stroke="none">Fragment</text>
    </g>
    <g fill="rgb(238,238,255)" transform="matrix(1,0,0,1,500,143)" stroke="rgb(238,238,255)">
      <rect width="220.4236" x="-8" height="17.9688" y="-26" stroke="none"/>
    </g>
    <g fill="rgb(166,166,178)" stroke-miterlimit="1.45" transform="matrix(1,0,0,1,500,143)" stroke-linecap="butt" stroke="rgb(166,166,178)">
      <rect fill="none" width="220.4236" x="-8" height="17.9688" y="-26"/>
    </g>
    <g fill="rgb(238,238,255)" transform="matrix(1,0,0,1,500,143)" stroke="rgb(238,238,255)">
      <rect width="448.6" x="-8" height="313.1406" y="-8.0312" stroke="none"/>
    </g>
    <g fill="rgb(166,166,178)" stroke-miterlimit="1.45" transform="matrix(1,0,0,1,500,143)" stroke-linecap="butt" stroke="rgb(166,166,178)">
      <rect fill="none" width="448.6" x="-8" height="313.1406" y="-8.0312"/>
    </g>
    <g font-family="sans-serif" transform="matrix(1,0,0,1,500,143)">
      <text xml:space="preserve" x="-2" y="-12.8594" onclick="umlload('package-summary.html')" stroke="none">lamparski.areabase.fragments</text>
    </g>
    <g fill="rgb(204,204,255)" transform="matrix(1,0,0,1,500,143)" stroke="rgb(204,204,255)">
      <rect x="0" y="0" clip-path="url(#clipPath9)" width="432.6" height="38.6094" stroke="none"/>
      <line clip-path="url(#clipPath9)" fill="none" x1="0" x2="432.6" y1="38.6094" y2="38.6094" stroke="black"/>
      <rect x="0" y="39.6094" clip-path="url(#clipPath9)" width="432.6" height="111.7812" stroke="none"/>
      <line clip-path="url(#clipPath9)" fill="none" x1="0" x2="432.6" y1="151.3906" y2="151.3906" stroke="black"/>
      <rect x="0" y="152.3906" clip-path="url(#clipPath9)" width="432.6" height="15.9688" stroke="none"/>
      <line clip-path="url(#clipPath9)" fill="none" x1="0" x2="432.6" y1="168.3594" y2="168.3594" stroke="black"/>
      <rect x="0" y="169.3594" clip-path="url(#clipPath9)" width="432.6" height="127.75" stroke="none"/>
    </g>
    <g fill="rgb(142,142,178)" stroke-miterlimit="1.45" transform="matrix(1,0,0,1,500,143)" stroke-linecap="butt" stroke="rgb(142,142,178)">
      <rect fill="none" width="432.6" x="0" height="297.1094" y="0"/>
    </g>
    <g font-size="16" font-weight="bold" font-family="sans-serif" transform="matrix(1,0,0,1,500,143)">
      <text xml:space="preserve" x="127.8" y="16.8594" onclick="umlload('#')" stroke="none">DetailViewFragment</text>
    </g>
    <g font-family="sans-serif" transform="matrix(1,0,0,1,500,143)">
      <text xml:space="preserve" x="359.6" y="33.7812" stroke="none">{abstract}</text>
    </g>
    <g font-family="sans-serif" transform="matrix(1,0,0,1,500,143)">
      <text xml:space="preserve" x="4" y="50.1719" stroke="none">#</text>
      <text xml:space="preserve" x="19" y="51.75" onclick="umlload('#area')" stroke="none">area : Area</text>
    </g>
    <g font-family="sans-serif" transform="matrix(1,0,0,1,500,143)">
      <text xml:space="preserve" x="4" y="66.1719" stroke="none">#</text>
      <text xml:space="preserve" x="19" y="67.7188" onclick="umlload('#isServiceBound')" stroke="none">isServiceBound : boolean</text>
    </g>
    <g font-family="sans-serif" transform="matrix(1,0,0,1,500,143)">
      <text xml:space="preserve" x="4" y="82.1719" stroke="none">#</text>
      <text xml:space="preserve" x="19" y="83.6875" onclick="umlload('#is_live')" stroke="none">is_live : boolean</text>
    </g>
    <g font-family="sans-serif" transform="matrix(1,0,0,1,500,143)">
      <text xml:space="preserve" x="4" y="98.1719" stroke="none">#</text>
      <text xml:space="preserve" x="19" y="99.6562" onclick="umlload('#mAreaLookupCallbacks')" stroke="none">mAreaLookupCallbacks : AreaDataService.AreaLookupCallbacks</text>
    </g>
    <g font-family="sans-serif" transform="matrix(1,0,0,1,500,143)">
      <text xml:space="preserve" x="4" y="114.1719" stroke="none">#</text>
      <text xml:space="preserve" x="19" y="115.625" onclick="umlload('#mService')" stroke="none">mService : AreaDataService</text>
    </g>
    <g font-family="sans-serif" transform="matrix(1,0,0,1,500,143)">
      <text xml:space="preserve" x="4" y="130.1719" stroke="none">#</text>
      <text xml:space="preserve" x="19" y="131.5938" onclick="umlload('#mServiceConnection')" stroke="none">mServiceConnection : ServiceConnection</text>
    </g>
    <g font-family="sans-serif" transform="matrix(1,0,0,1,500,143)">
      <text xml:space="preserve" x="4" y="146.1719" stroke="none">#</text>
      <text xml:space="preserve" x="19" y="147.5625" onclick="umlload('#subjectName')" stroke="none">subjectName : String</text>
    </g>
    <g font-family="sans-serif" transform="matrix(1,0,0,1,500,143)">
      <text xml:space="preserve" x="4" y="163.1719" stroke="none">+</text>
      <text xml:space="preserve" x="19" y="164.5312" onclick="umlload('#DetailViewFragment()')" stroke="none">DetailViewFragment()</text>
    </g>
    <g font-family="sans-serif" transform="matrix(1,0,0,1,500,143)">
      <text xml:space="preserve" x="4" y="180.1719" stroke="none">+</text>
      <text xml:space="preserve" x="19" y="181.5" onclick="umlload('#onCreate(Bundle)')" stroke="none">onCreate(Bundle) : void</text>
    </g>
    <g font-family="sans-serif" transform="matrix(1,0,0,1,500,143)">
      <text xml:space="preserve" x="4" y="196.1719" stroke="none">+</text>
      <text xml:space="preserve" x="19" y="197.4688" onclick="umlload('#onCreateView(LayoutInflater, ViewGroup, Bundle)')" stroke="none">onCreateView(LayoutInflater, ViewGroup, Bundle) : View</text>
    </g>
    <g font-family="sans-serif" transform="matrix(1,0,0,1,500,143)">
      <text xml:space="preserve" x="4" y="212.1719" stroke="none">#</text>
      <text xml:space="preserve" x="19" y="213.4375" onclick="umlload('#onIOError()')" stroke="none">onIOError() : void</text>
    </g>
    <g font-family="sans-serif" transform="matrix(1,0,0,1,500,143)">
      <text xml:space="preserve" x="4" y="228.1719" stroke="none">+</text>
      <text xml:space="preserve" x="19" y="229.4062" onclick="umlload('#onSaveInstanceState(Bundle)')" stroke="none">onSaveInstanceState(Bundle) : void</text>
    </g>
    <g font-family="sans-serif" transform="matrix(1,0,0,1,500,143)">
      <text xml:space="preserve" x="4" y="244.1719" stroke="none">+</text>
      <text xml:space="preserve" x="19" y="245.375" onclick="umlload('#onStart()')" stroke="none">onStart() : void</text>
    </g>
    <g font-family="sans-serif" transform="matrix(1,0,0,1,500,143)">
      <text xml:space="preserve" x="4" y="260.1719" stroke="none">+</text>
      <text xml:space="preserve" x="19" y="261.3438" onclick="umlload('#refreshContent()')" stroke="none">refreshContent() : void</text>
    </g>
    <g font-family="sans-serif" transform="matrix(1,0,0,1,500,143)">
      <text xml:space="preserve" x="4" y="276.1719" stroke="none">+</text>
      <text xml:space="preserve" x="19" y="277.3125" onclick="umlload('#searchByText(java.lang.String)')" stroke="none">searchByText(String) : void</text>
    </g>
    <g font-family="sans-serif" transform="matrix(1,0,0,1,500,143)">
      <text xml:space="preserve" x="4" y="292.1719" stroke="none">#</text>
      <text xml:space="preserve" x="19" y="293.2812" onclick="umlload('#showCroutonCrossThread(java.lang.CharSequence)')" stroke="none">showCroutonCrossThread(CharSequence) : void</text>
    </g>
    <g font-family="sans-serif" transform="matrix(1,0,0,1,500,143)">
      <text xml:space="preserve" x="-494" y="330.1562" onclick="umlload('http://www.yworks.com/')" stroke="none">yWorks UML Doclet</text>
    </g>
    <g stroke-miterlimit="1.45" transform="matrix(1,0,0,1,500,143)" stroke-linecap="butt">
      <path fill="none" d="M216.3 0.0044 L216.3 -69"/>
      <path fill="white" d="M216.3 -84 L210.3 -68 L222.3 -68 Z" stroke="none"/>
      <path fill="none" d="M216.3 -84 L210.3 -68 L222.3 -68 Z"/>
      <path fill="none" stroke-dasharray="6,2" d="M324.45 0.0092 L324.45 -51 L442.468 -51 L442.468 -69"/>
      <path fill="white" stroke-dasharray="6,2" d="M442.468 -84 L436.468 -68 L448.468 -68 Z" stroke="none"/>
      <path fill="none" d="M442.468 -84 L436.468 -68 L448.468 -68 Z"/>
      <path fill="none" d="M-0.0037 11.5625 L-76.48 11.5625"/>
      <line stroke-linecap="square" transform="matrix(-1,0,0,-1,-76.48,11.5625)" fill="none" x1="0" x2="-14" y1="0" y2="-4" stroke-miterlimit="10"/>
      <line stroke-linecap="square" transform="matrix(-1,0,0,-1,-76.48,11.5625)" fill="none" x1="0" x2="-14" y1="0" y2="4" stroke-miterlimit="10"/>
    </g>
    <g stroke-miterlimit="1.45" transform="matrix(1,0,0,1,500,143)" stroke-linecap="butt">
      <path fill="none" d="M0.0128 98.6875 L-357.4389 98.6875"/>
      <line stroke-linecap="square" transform="matrix(-1,0,0,-1,-357.4389,98.6875)" fill="none" x1="0" x2="-14" y1="0" y2="-4" stroke-miterlimit="10"/>
      <line stroke-linecap="square" transform="matrix(-1,0,0,-1,-357.4389,98.6875)" fill="none" x1="0" x2="-14" y1="0" y2="4" stroke-miterlimit="10"/>
    </g>
    <g stroke-miterlimit="1.45" transform="matrix(1,0,0,1,500,143)" stroke-linecap="butt">
      <path fill="none" d="M0.0228 136.6018 L-66 136.6018"/>
      <line stroke-linecap="square" transform="matrix(-1,0,0,-1,-66,136.6018)" fill="none" x1="0" x2="-14" y1="0" y2="-4" stroke-miterlimit="10"/>
      <line stroke-linecap="square" transform="matrix(-1,0,0,-1,-66,136.6018)" fill="none" x1="0" x2="-14" y1="0" y2="4" stroke-miterlimit="10"/>
    </g>
    <g stroke-miterlimit="1.45" transform="matrix(1,0,0,1,500,143)" stroke-linecap="butt">
      <path fill="none" d="M-0.0211 228.5162 L-127.98 228.5162"/>
      <line stroke-linecap="square" transform="matrix(-1,0,0,-1,-127.98,228.5162)" fill="none" x1="0" x2="-14" y1="0" y2="-4" stroke-miterlimit="10"/>
      <line stroke-linecap="square" transform="matrix(-1,0,0,-1,-127.98,228.5162)" fill="none" x1="0" x2="-14" y1="0" y2="4" stroke-miterlimit="10"/>
    </g>
    <g stroke-dasharray="6,2" stroke-miterlimit="1.45" transform="matrix(1,0,0,1,500,143)" stroke-linecap="butt">
      <path fill="none" d="M432.5588 16.3518 L498.6 16.3518"/>
      <line stroke-linecap="square" transform="matrix(1,0,0,1,498.6,16.3518)" fill="none" x1="0" x2="-14" y1="0" y2="-4" stroke-dasharray="none" stroke-miterlimit="10"/>
      <line stroke-linecap="square" transform="matrix(1,0,0,1,498.6,16.3518)" fill="none" x1="0" x2="-14" y1="0" y2="4" stroke-dasharray="none" stroke-miterlimit="10"/>
    </g>
  </g>
</svg>
