<?xml version="1.0" encoding="UTF-8"?>
<svg xmlns="http://www.w3.org/2000/svg" xmlns:xlink="http://www.w3.org/1999/xlink" fill-opacity="1" color-rendering="auto" color-interpolation="auto" stroke="black" text-rendering="auto" stroke-linecap="square" width="342" stroke-miterlimit="10" stroke-opacity="1" shape-rendering="auto" fill="black" stroke-dasharray="none" font-weight="normal" stroke-width="1" height="142" font-family="'Dialog'" font-style="normal" stroke-linejoin="miter" font-size="12" stroke-dashoffset="0" image-rendering="auto">
  <!--Generated by ySVG-->
  <defs id="genericDefs"/>
  <g>
    <defs id="defs1">
      <clipPath clipPathUnits="userSpaceOnUse" id="clipPath1">
        <path d="M0 0 L342 0 L342 142 L0 142 L0 0 Z"/>
      </clipPath>
      <clipPath clipPathUnits="userSpaceOnUse" id="clipPath2">
        <path d="M261.7 0 L315.26 0 L315.26 23.125 L261.7 23.125 L261.7 0 Z"/>
      </clipPath>
      <clipPath clipPathUnits="userSpaceOnUse" id="clipPath3">
        <path d="M0 0 L195.7 0 L195.7 72.5469 L0 72.5469 L0 0 Z"/>
      </clipPath>
      <script type="text/ecmascript"><![CDATA[
function umlload(newLocation)
{
if (newLocation.charAt(0) != '#') {
if (newLocation.indexOf("://") > -1) {
window.parent.location.href = newLocation;
} else {
var tmp = window.parent.location.href;
tmp = tmp.substring(0, tmp.lastIndexOf("/") + 1);
window.parent.location.href = tmp.concat(newLocation);
}
} else {
window.parent.location.hash = newLocation;
}
}
]]></script>
    </defs>
    <g fill="rgb(238,238,255)" transform="matrix(1,0,0,1,8,26)" stroke="rgb(238,238,255)">
      <rect width="76.1412" x="253.7" height="17.9688" y="-26" stroke="none"/>
    </g>
    <g fill="rgb(166,166,178)" stroke-miterlimit="1.45" transform="matrix(1,0,0,1,8,26)" stroke-linecap="butt" stroke="rgb(166,166,178)">
      <rect fill="none" width="76.1412" x="253.7" height="17.9688" y="-26"/>
    </g>
    <g fill="rgb(238,238,255)" transform="matrix(1,0,0,1,8,26)" stroke="rgb(238,238,255)">
      <rect width="79.56" x="253.7" height="39.1562" y="-8.0312" stroke="none"/>
    </g>
    <g fill="rgb(166,166,178)" stroke-miterlimit="1.45" transform="matrix(1,0,0,1,8,26)" stroke-linecap="butt" stroke="rgb(166,166,178)">
      <rect fill="none" width="79.56" x="253.7" height="39.1562" y="-8.0312"/>
    </g>
    <g font-family="sans-serif" transform="matrix(1,0,0,1,8,26)">
      <text xml:space="preserve" x="259.7" y="-12.8594" stroke="none">java.lang</text>
    </g>
    <g fill="rgb(187,187,255)" transform="matrix(1,0,0,1,8,26)" stroke="rgb(187,187,255)">
      <rect x="261.7" y="0" clip-path="url(#clipPath2)" width="53.56" height="23.125" stroke="none"/>
    </g>
    <g fill="rgb(130,130,178)" stroke-miterlimit="1.45" transform="matrix(1,0,0,1,8,26)" stroke-linecap="butt" stroke="rgb(130,130,178)">
      <rect fill="none" width="53.56" x="261.7" height="23.125" y="0"/>
    </g>
    <g font-size="13" font-weight="bold" font-family="sans-serif" transform="matrix(1,0,0,1,8,26)">
      <text xml:space="preserve" x="266.48" y="16.0625" stroke="none">String</text>
    </g>
    <g fill="rgb(238,238,255)" transform="matrix(1,0,0,1,8,26)" stroke="rgb(238,238,255)">
      <rect width="220.4236" x="-8" height="17.9688" y="-26" stroke="none"/>
    </g>
    <g fill="rgb(166,166,178)" stroke-miterlimit="1.45" transform="matrix(1,0,0,1,8,26)" stroke-linecap="butt" stroke="rgb(166,166,178)">
      <rect fill="none" width="220.4236" x="-8" height="17.9688" y="-26"/>
    </g>
    <g fill="rgb(238,238,255)" transform="matrix(1,0,0,1,8,26)" stroke="rgb(238,238,255)">
      <rect width="220.7" x="-8" height="88.5781" y="-8.0312" stroke="none"/>
    </g>
    <g fill="rgb(166,166,178)" stroke-miterlimit="1.45" transform="matrix(1,0,0,1,8,26)" stroke-linecap="butt" stroke="rgb(166,166,178)">
      <rect fill="none" width="220.7" x="-8" height="88.5781" y="-8.0312"/>
    </g>
    <g font-family="sans-serif" transform="matrix(1,0,0,1,8,26)">
      <text xml:space="preserve" x="-2" y="-12.8594" onclick="umlload('package-summary.html')" stroke="none">lamparski.areabase.fragments</text>
    </g>
    <g fill="rgb(221,221,255)" transform="matrix(1,0,0,1,8,26)" stroke="rgb(221,221,255)">
      <rect x="0" y="0" clip-path="url(#clipPath3)" width="195.7" height="38.6094" stroke="none"/>
      <line clip-path="url(#clipPath3)" fill="none" x1="0" x2="195.7" y1="38.6094" y2="38.6094" stroke="black"/>
      <line clip-path="url(#clipPath3)" x1="0" x2="195.7" y1="39.6094" y2="39.6094" stroke="none"/>
      <line clip-path="url(#clipPath3)" fill="none" x1="0" x2="195.7" y1="39.6094" y2="39.6094" stroke="black"/>
      <rect x="0" y="40.6094" clip-path="url(#clipPath3)" width="195.7" height="31.9375" stroke="none"/>
    </g>
    <g fill="rgb(154,154,178)" stroke-miterlimit="1.45" transform="matrix(1,0,0,1,8,26)" stroke-linecap="butt" stroke="rgb(154,154,178)">
      <rect fill="none" width="195.7" x="0" height="72.5469" y="0"/>
    </g>
    <g font-style="italic" font-size="16" font-weight="bold" font-family="sans-serif" transform="matrix(1,0,0,1,8,26)">
      <text xml:space="preserve" x="8.35" y="32.8281" onclick="umlload('#')" stroke="none">IAreabaseFragment</text>
    </g>
    <g font-family="sans-serif" transform="matrix(1,0,0,1,8,26)">
      <text xml:space="preserve" x="62.85" y="13.1406" stroke="none">«interface»</text>
    </g>
    <g font-family="sans-serif" transform="matrix(1,0,0,1,8,26)">
      <text xml:space="preserve" x="4" y="51.1719" stroke="none">+</text>
      <text xml:space="preserve" x="19" y="52.75" onclick="umlload('#refreshContent()')" stroke="none">refreshContent() : void</text>
    </g>
    <g font-family="sans-serif" transform="matrix(1,0,0,1,8,26)">
      <text xml:space="preserve" x="4" y="67.1719" stroke="none">+</text>
      <text xml:space="preserve" x="19" y="68.7188" onclick="umlload('#searchByText(java.lang.String)')" stroke="none">searchByText(String) : void</text>
    </g>
    <g font-family="sans-serif" transform="matrix(1,0,0,1,8,26)">
      <text xml:space="preserve" x="-2" y="105.1562" onclick="umlload('http://www.yworks.com/')" stroke="none">yWorks UML Doclet</text>
    </g>
    <g stroke-dasharray="6,2" stroke-miterlimit="1.45" transform="matrix(1,0,0,1,8,26)" stroke-linecap="butt">
      <path fill="none" d="M195.7247 11.5625 L261.7 11.5625"/>
      <line stroke-linecap="square" transform="matrix(1,0,0,1,261.7,11.5625)" fill="none" x1="0" x2="-14" y1="0" y2="-4" stroke-dasharray="none" stroke-miterlimit="10"/>
      <line stroke-linecap="square" transform="matrix(1,0,0,1,261.7,11.5625)" fill="none" x1="0" x2="-14" y1="0" y2="4" stroke-dasharray="none" stroke-miterlimit="10"/>
    </g>
  </g>
</svg>
