<?xml version="1.0" encoding="UTF-8"?>
<svg xmlns="http://www.w3.org/2000/svg" xmlns:xlink="http://www.w3.org/1999/xlink" fill-opacity="1" color-rendering="auto" color-interpolation="auto" stroke="black" text-rendering="auto" stroke-linecap="square" width="842" stroke-miterlimit="10" stroke-opacity="1" shape-rendering="auto" fill="black" stroke-dasharray="none" font-weight="normal" stroke-width="1" height="348" font-family="'Dialog'" font-style="normal" stroke-linejoin="miter" font-size="12" stroke-dashoffset="0" image-rendering="auto">
  <!--Generated by ySVG-->
  <defs id="genericDefs"/>
  <g>
    <defs id="defs1">
      <clipPath clipPathUnits="userSpaceOnUse" id="clipPath1">
        <path d="M0 0 L842 0 L842 348 L0 348 L0 0 Z"/>
      </clipPath>
      <clipPath clipPathUnits="userSpaceOnUse" id="clipPath2">
        <path d="M464.61 96.7037 L571.73 96.7037 L571.73 119.8287 L464.61 119.8287 L464.61 96.7037 Z"/>
      </clipPath>
      <clipPath clipPathUnits="userSpaceOnUse" id="clipPath3">
        <path d="M626.2971 16.3518 C626.2971 25.3827 590.1022 32.7037 545.4535 32.7037 C500.8049 32.7037 464.61 25.3827 464.61 16.3518 C464.61 7.321 500.8049 0 545.4535 0 C590.1022 0 626.2971 7.321 626.2971 16.3518 Z"/>
      </clipPath>
      <clipPath clipPathUnits="userSpaceOnUse" id="clipPath4">
        <path d="M-198.5542 96.7037 L-91.4342 96.7037 L-91.4342 119.8287 L-198.5542 119.8287 L-198.5542 96.7037 Z"/>
      </clipPath>
      <clipPath clipPathUnits="userSpaceOnUse" id="clipPath5">
        <path d="M-66 146.1805 C-66 155.2114 -95.6733 162.5324 -132.2771 162.5324 C-168.881 162.5324 -198.5542 155.2114 -198.5542 146.1805 C-198.5542 137.1497 -168.881 129.8287 -132.2771 129.8287 C-95.6733 129.8287 -66 137.1497 -66 146.1805 Z"/>
      </clipPath>
      <clipPath clipPathUnits="userSpaceOnUse" id="clipPath6">
        <path d="M-66 16.3518 C-66 25.3827 -90.7821 32.7037 -121.3523 32.7037 C-151.9226 32.7037 -176.7046 25.3827 -176.7046 16.3518 C-176.7046 7.321 -151.9226 0 -121.3523 0 C-90.7821 0 -66 7.321 -66 16.3518 Z"/>
      </clipPath>
      <clipPath clipPathUnits="userSpaceOnUse" id="clipPath7">
        <path d="M117.935 -107.125 L280.675 -107.125 L280.675 -84 L117.935 -84 L117.935 -107.125 Z"/>
      </clipPath>
      <clipPath clipPathUnits="userSpaceOnUse" id="clipPath8">
        <path d="M0 0 L398.61 0 L398.61 170.5324 L0 170.5324 L0 0 Z"/>
      </clipPath>
      <script type="text/ecmascript"><![CDATA[
function umlload(newLocation)
{
if (newLocation.charAt(0) != '#') {
if (newLocation.indexOf("://") > -1) {
window.parent.location.href = newLocation;
} else {
var tmp = window.parent.location.href;
tmp = tmp.substring(0, tmp.lastIndexOf("/") + 1);
window.parent.location.href = tmp.concat(newLocation);
}
} else {
window.parent.location.hash = newLocation;
}
}
]]></script>
    </defs>
    <g fill="rgb(238,238,255)" transform="matrix(1,0,0,1,207,134)" stroke="rgb(238,238,255)">
      <rect width="100.5419" x="456.61" height="17.9688" y="70.7037" stroke="none"/>
    </g>
    <g fill="rgb(166,166,178)" stroke-miterlimit="1.45" transform="matrix(1,0,0,1,207,134)" stroke-linecap="butt" stroke="rgb(166,166,178)">
      <rect fill="none" width="100.5419" x="456.61" height="17.9688" y="70.7037"/>
    </g>
    <g fill="rgb(238,238,255)" transform="matrix(1,0,0,1,207,134)" stroke="rgb(238,238,255)">
      <rect width="123.12" x="456.61" height="39.1562" y="88.6724" stroke="none"/>
    </g>
    <g fill="rgb(166,166,178)" stroke-miterlimit="1.45" transform="matrix(1,0,0,1,207,134)" stroke-linecap="butt" stroke="rgb(166,166,178)">
      <rect fill="none" width="123.12" x="456.61" height="39.1562" y="88.6724"/>
    </g>
    <g font-family="sans-serif" transform="matrix(1,0,0,1,207,134)">
      <text xml:space="preserve" x="462.61" y="83.8443" stroke="none">police.errors</text>
    </g>
    <g fill="rgb(153,153,255)" transform="matrix(1,0,0,1,207,134)" stroke="rgb(153,153,255)">
      <rect x="464.61" y="96.7037" clip-path="url(#clipPath2)" width="107.12" height="23.125" stroke="none"/>
    </g>
    <g fill="rgb(106,106,178)" stroke-miterlimit="1.45" transform="matrix(1,0,0,1,207,134)" stroke-linecap="butt" stroke="rgb(106,106,178)">
      <rect fill="none" width="107.12" x="464.61" height="23.125" y="96.7037"/>
    </g>
    <g font-size="13" font-weight="bold" font-family="sans-serif" transform="matrix(1,0,0,1,207,134)">
      <text xml:space="preserve" x="470.17" y="112.7662" stroke="none">APIException</text>
    </g>
    <g fill="rgb(238,238,255)" transform="matrix(1,0,0,1,207,134)" stroke="rgb(238,238,255)">
      <rect width="67.654" x="456.61" height="17.9688" y="-26" stroke="none"/>
    </g>
    <g fill="rgb(166,166,178)" stroke-miterlimit="1.45" transform="matrix(1,0,0,1,207,134)" stroke-linecap="butt" stroke="rgb(166,166,178)">
      <rect fill="none" width="67.654" x="456.61" height="17.9688" y="-26"/>
    </g>
    <g fill="rgb(238,238,255)" transform="matrix(1,0,0,1,207,134)" stroke="rgb(238,238,255)">
      <rect width="177.687" x="456.61" height="48.7349" y="-8.0312" stroke="none"/>
    </g>
    <g fill="rgb(166,166,178)" stroke-miterlimit="1.45" transform="matrix(1,0,0,1,207,134)" stroke-linecap="butt" stroke="rgb(166,166,178)">
      <rect fill="none" width="177.687" x="456.61" height="48.7349" y="-8.0312"/>
    </g>
    <g font-family="sans-serif" transform="matrix(1,0,0,1,207,134)">
      <text xml:space="preserve" x="462.61" y="-12.8594" stroke="none">java.util</text>
    </g>
    <g fill="rgb(221,221,255)" transform="matrix(1,0,0,1,207,134)" stroke="rgb(221,221,255)">
      <rect x="464.61" y="0" clip-path="url(#clipPath3)" width="161.687" height="32.7037" stroke="none"/>
    </g>
    <g fill="rgb(154,154,178)" stroke-miterlimit="1.45" transform="matrix(1,0,0,1,207,134)" stroke-linecap="butt" stroke="rgb(154,154,178)">
      <ellipse rx="80.8435" fill="none" ry="16.3518" cx="545.4535" cy="16.3518"/>
    </g>
    <g font-style="italic" font-size="13" font-weight="bold" font-family="sans-serif" transform="matrix(1,0,0,1,207,134)">
      <text xml:space="preserve" x="493.9535" y="20.8518" stroke="none">Collection&lt;E&gt;</text>
    </g>
    <g fill="rgb(238,238,255)" transform="matrix(1,0,0,1,207,134)" stroke="rgb(238,238,255)">
      <rect width="67.654" x="-206.5542" height="17.9688" y="70.7037" stroke="none"/>
    </g>
    <g fill="rgb(166,166,178)" stroke-miterlimit="1.45" transform="matrix(1,0,0,1,207,134)" stroke-linecap="butt" stroke="rgb(166,166,178)">
      <rect fill="none" width="67.654" x="-206.5542" height="17.9688" y="70.7037"/>
    </g>
    <g fill="rgb(238,238,255)" transform="matrix(1,0,0,1,207,134)" stroke="rgb(238,238,255)">
      <rect width="148.5542" x="-206.5542" height="81.8599" y="88.6724" stroke="none"/>
    </g>
    <g fill="rgb(166,166,178)" stroke-miterlimit="1.45" transform="matrix(1,0,0,1,207,134)" stroke-linecap="butt" stroke="rgb(166,166,178)">
      <rect fill="none" width="148.5542" x="-206.5542" height="81.8599" y="88.6724"/>
    </g>
    <g font-family="sans-serif" transform="matrix(1,0,0,1,207,134)">
      <text xml:space="preserve" x="-200.5542" y="83.8443" stroke="none">java.util</text>
    </g>
    <g fill="rgb(187,187,255)" transform="matrix(1,0,0,1,207,134)" stroke="rgb(187,187,255)">
      <rect x="-198.5542" y="96.7037" clip-path="url(#clipPath4)" width="107.12" height="23.125" stroke="none"/>
    </g>
    <g fill="rgb(130,130,178)" stroke-miterlimit="1.45" transform="matrix(1,0,0,1,207,134)" stroke-linecap="butt" stroke="rgb(130,130,178)">
      <rect fill="none" width="107.12" x="-198.5542" height="23.125" y="96.7037"/>
    </g>
    <g font-size="13" font-weight="bold" font-family="sans-serif" transform="matrix(1,0,0,1,207,134)">
      <text xml:space="preserve" x="-192.9942" y="112.7662" stroke="none">ArrayList&lt;E&gt;</text>
    </g>
    <g fill="rgb(221,221,255)" transform="matrix(1,0,0,1,207,134)" stroke="rgb(221,221,255)">
      <rect x="-198.5542" y="129.8287" clip-path="url(#clipPath5)" width="132.5542" height="32.7037" stroke="none"/>
    </g>
    <g fill="rgb(154,154,178)" stroke-miterlimit="1.45" transform="matrix(1,0,0,1,207,134)" stroke-linecap="butt" stroke="rgb(154,154,178)">
      <ellipse rx="66.2771" fill="none" ry="16.3518" cx="-132.2771" cy="146.1805"/>
    </g>
    <g font-style="italic" font-size="13" font-weight="bold" font-family="sans-serif" transform="matrix(1,0,0,1,207,134)">
      <text xml:space="preserve" x="-173.7771" y="150.6805" stroke="none">Map&lt;K, V&gt;</text>
    </g>
    <g fill="rgb(238,238,255)" transform="matrix(1,0,0,1,207,134)" stroke="rgb(238,238,255)">
      <rect width="76.1412" x="-184.7046" height="17.9688" y="-26" stroke="none"/>
    </g>
    <g fill="rgb(166,166,178)" stroke-miterlimit="1.45" transform="matrix(1,0,0,1,207,134)" stroke-linecap="butt" stroke="rgb(166,166,178)">
      <rect fill="none" width="76.1412" x="-184.7046" height="17.9688" y="-26"/>
    </g>
    <g fill="rgb(238,238,255)" transform="matrix(1,0,0,1,207,134)" stroke="rgb(238,238,255)">
      <rect width="126.7046" x="-184.7046" height="48.7349" y="-8.0312" stroke="none"/>
    </g>
    <g fill="rgb(166,166,178)" stroke-miterlimit="1.45" transform="matrix(1,0,0,1,207,134)" stroke-linecap="butt" stroke="rgb(166,166,178)">
      <rect fill="none" width="126.7046" x="-184.7046" height="48.7349" y="-8.0312"/>
    </g>
    <g font-family="sans-serif" transform="matrix(1,0,0,1,207,134)">
      <text xml:space="preserve" x="-178.7046" y="-12.8594" stroke="none">java.lang</text>
    </g>
    <g fill="rgb(221,221,255)" transform="matrix(1,0,0,1,207,134)" stroke="rgb(221,221,255)">
      <rect x="-176.7046" y="0" clip-path="url(#clipPath6)" width="110.7046" height="32.7037" stroke="none"/>
    </g>
    <g fill="rgb(154,154,178)" stroke-miterlimit="1.45" transform="matrix(1,0,0,1,207,134)" stroke-linecap="butt" stroke="rgb(154,154,178)">
      <ellipse rx="55.3523" fill="none" ry="16.3518" cx="-121.3523" cy="16.3518"/>
    </g>
    <g font-style="italic" font-size="13" font-weight="bold" font-family="sans-serif" transform="matrix(1,0,0,1,207,134)">
      <text xml:space="preserve" x="-155.3523" y="20.8518" stroke="none">Runnable</text>
    </g>
    <g fill="rgb(238,238,255)" transform="matrix(1,0,0,1,207,134)" stroke="rgb(238,238,255)">
      <rect width="220.4236" x="93.935" height="17.9688" y="-133.125" stroke="none"/>
    </g>
    <g fill="rgb(166,166,178)" stroke-miterlimit="1.45" transform="matrix(1,0,0,1,207,134)" stroke-linecap="butt" stroke="rgb(166,166,178)">
      <rect fill="none" width="220.4236" x="93.935" height="17.9688" y="-133.125"/>
    </g>
    <g fill="rgb(238,238,255)" transform="matrix(1,0,0,1,207,134)" stroke="rgb(238,238,255)">
      <rect width="220.74" x="93.935" height="39.1562" y="-115.1562" stroke="none"/>
    </g>
    <g fill="rgb(166,166,178)" stroke-miterlimit="1.45" transform="matrix(1,0,0,1,207,134)" stroke-linecap="butt" stroke="rgb(166,166,178)">
      <rect fill="none" width="220.74" x="93.935" height="39.1562" y="-115.1562"/>
    </g>
    <g font-family="sans-serif" transform="matrix(1,0,0,1,207,134)">
      <text xml:space="preserve" x="99.935" y="-119.9844" onclick="umlload('../../../lamparski/areabase/fragments/package-summary.html')" stroke="none">lamparski.areabase.fragments</text>
    </g>
    <g fill="rgb(204,204,255)" transform="matrix(1,0,0,1,207,134)" stroke="rgb(204,204,255)">
      <rect x="117.935" y="-107.125" clip-path="url(#clipPath7)" width="162.74" height="23.125" stroke="none"/>
    </g>
    <g fill="rgb(142,142,178)" stroke-miterlimit="1.45" transform="matrix(1,0,0,1,207,134)" stroke-linecap="butt" stroke="rgb(142,142,178)">
      <rect fill="none" width="162.74" x="117.935" height="23.125" y="-107.125"/>
    </g>
    <g font-size="13" font-weight="bold" font-family="sans-serif" transform="matrix(1,0,0,1,207,134)">
      <text xml:space="preserve" x="124.305" y="-91.0625" onclick="umlload('../../../lamparski/areabase/fragments/DetailViewFragment.html')" stroke="none">DetailViewFragment</text>
    </g>
    <g fill="rgb(238,238,255)" transform="matrix(1,0,0,1,207,134)" stroke="rgb(238,238,255)">
      <rect width="220.4236" x="-8" height="17.9688" y="-26" stroke="none"/>
    </g>
    <g fill="rgb(166,166,178)" stroke-miterlimit="1.45" transform="matrix(1,0,0,1,207,134)" stroke-linecap="butt" stroke="rgb(166,166,178)">
      <rect fill="none" width="220.4236" x="-8" height="17.9688" y="-26"/>
    </g>
    <g fill="rgb(238,238,255)" transform="matrix(1,0,0,1,207,134)" stroke="rgb(238,238,255)">
      <rect width="414.61" x="-8" height="186.5636" y="-8.0312" stroke="none"/>
    </g>
    <g fill="rgb(166,166,178)" stroke-miterlimit="1.45" transform="matrix(1,0,0,1,207,134)" stroke-linecap="butt" stroke="rgb(166,166,178)">
      <rect fill="none" width="414.61" x="-8" height="186.5636" y="-8.0312"/>
    </g>
    <g font-family="sans-serif" transform="matrix(1,0,0,1,207,134)">
      <text xml:space="preserve" x="-2" y="-12.8594" onclick="umlload('package-summary.html')" stroke="none">lamparski.areabase.fragments</text>
    </g>
    <g fill="rgb(187,187,255)" transform="matrix(1,0,0,1,207,134)" stroke="rgb(187,187,255)">
      <rect x="0" y="0" clip-path="url(#clipPath8)" width="398.61" height="26.6406" stroke="none"/>
      <line clip-path="url(#clipPath8)" fill="none" x1="0" x2="398.61" y1="26.6406" y2="26.6406" stroke="black"/>
      <rect x="0" y="27.6406" clip-path="url(#clipPath8)" width="398.61" height="15.9688" stroke="none"/>
      <line clip-path="url(#clipPath8)" fill="none" x1="0" x2="398.61" y1="43.6094" y2="43.6094" stroke="black"/>
      <rect x="0" y="44.6094" clip-path="url(#clipPath8)" width="398.61" height="125.923" stroke="none"/>
    </g>
    <g fill="rgb(130,130,178)" stroke-miterlimit="1.45" transform="matrix(1,0,0,1,207,134)" stroke-linecap="butt" stroke="rgb(130,130,178)">
      <rect fill="none" width="398.61" x="0" height="170.5324" y="0"/>
    </g>
    <g font-size="16" font-weight="bold" font-family="sans-serif" transform="matrix(1,0,0,1,207,134)">
      <text xml:space="preserve" x="110.305" y="18.8594" onclick="umlload('#')" stroke="none">PoliceDataFragment</text>
    </g>
    <g font-family="sans-serif" transform="matrix(1,0,0,1,207,134)">
      <text xml:space="preserve" x="4" y="38.1719" stroke="none">+</text>
      <text xml:space="preserve" x="19" y="39.7812" onclick="umlload('#PoliceDataFragment()')" stroke="none">PoliceDataFragment()</text>
    </g>
    <g font-family="sans-serif" transform="matrix(1,0,0,1,207,134)">
      <text xml:space="preserve" x="4" y="55.1719" stroke="none">#</text>
      <text xml:space="preserve" x="19" y="56.75" onclick="umlload('#onCategoryDescriptionsFound(java.util.Map)')" stroke="none">onCategoryDescriptionsFound(Map&lt;String, String&gt;) : void</text>
    </g>
    <g font-family="sans-serif" transform="matrix(1,0,0,1,207,134)">
      <text xml:space="preserve" x="4" y="71.1719" stroke="none">+</text>
      <text xml:space="preserve" x="19" y="72.7188" onclick="umlload('#onCreate(Bundle)')" stroke="none">onCreate(Bundle) : void</text>
    </g>
    <g font-family="sans-serif" transform="matrix(1,0,0,1,207,134)">
      <text xml:space="preserve" x="4" y="87.1719" stroke="none">+</text>
      <text xml:space="preserve" x="19" y="88.6875" onclick="umlload('#onCreateView(LayoutInflater, ViewGroup, Bundle)')" stroke="none">onCreateView(LayoutInflater, ViewGroup, Bundle) : View</text>
    </g>
    <g font-family="sans-serif" transform="matrix(1,0,0,1,207,134)">
      <text xml:space="preserve" x="4" y="103.1719" stroke="none">#</text>
      <text xml:space="preserve" x="19" y="104.6562" onclick="umlload('#onCrimeDataFound(java.util.Collection)')" stroke="none">onCrimeDataFound(Collection&lt;Crime&gt;) : void</text>
    </g>
    <g font-family="sans-serif" transform="matrix(1,0,0,1,207,134)">
      <text xml:space="preserve" x="4" y="119.1719" stroke="none">#</text>
      <text xml:space="preserve" x="19" y="120.625" onclick="umlload('#onPoliceApiError(police.errors.APIException)')" stroke="none">onPoliceApiError(APIException) : void</text>
    </g>
    <g font-family="sans-serif" transform="matrix(1,0,0,1,207,134)">
      <text xml:space="preserve" x="4" y="135.1719" stroke="none">+</text>
      <text xml:space="preserve" x="19" y="136.5938" onclick="umlload('#refreshContent()')" stroke="none">refreshContent() : void</text>
    </g>
    <g font-family="sans-serif" transform="matrix(1,0,0,1,207,134)">
      <text xml:space="preserve" x="-201" y="203.1562" onclick="umlload('http://www.yworks.com/')" stroke="none">yWorks UML Doclet</text>
    </g>
    <g stroke-miterlimit="1.45" transform="matrix(1,0,0,1,207,134)" stroke-linecap="butt">
      <path fill="none" d="M199.305 -0.008 L199.305 -69"/>
      <path fill="white" d="M199.305 -84 L193.305 -68 L205.305 -68 Z" stroke="none"/>
      <path fill="none" d="M199.305 -84 L193.305 -68 L205.305 -68 Z"/>
      <path fill="none" d="M0.0293 16.3518 L-66 16.3518"/>
      <line stroke-linecap="square" transform="matrix(-1,0,0,-1,-66,16.3518)" fill="none" x1="0" x2="-14" y1="0" y2="-4" stroke-miterlimit="10"/>
      <line stroke-linecap="square" transform="matrix(-1,0,0,-1,-66,16.3518)" fill="none" x1="0" x2="-14" y1="0" y2="4" stroke-miterlimit="10"/>
    </g>
    <g stroke-miterlimit="1.45" transform="matrix(1,0,0,1,207,134)" stroke-linecap="butt">
      <path fill="none" d="M-0.0372 108.2662 L-91.4342 108.2662"/>
      <line stroke-linecap="square" transform="matrix(-1,0,0,-1,-91.4342,108.2662)" fill="none" x1="0" x2="-14" y1="0" y2="-4" stroke-miterlimit="10"/>
      <line stroke-linecap="square" transform="matrix(-1,0,0,-1,-91.4342,108.2662)" fill="none" x1="0" x2="-14" y1="0" y2="4" stroke-miterlimit="10"/>
    </g>
    <g stroke-miterlimit="1.45" transform="matrix(1,0,0,1,207,134)" stroke-linecap="butt">
      <path fill="none" d="M0.04 146.1805 L-66 146.1805"/>
      <line stroke-linecap="square" transform="matrix(-1,0,0,-1,-66,146.1805)" fill="none" x1="0" x2="-14" y1="0" y2="-4" stroke-miterlimit="10"/>
      <line stroke-linecap="square" transform="matrix(-1,0,0,-1,-66,146.1805)" fill="none" x1="0" x2="-14" y1="0" y2="4" stroke-miterlimit="10"/>
    </g>
    <g stroke-dasharray="6,2" stroke-miterlimit="1.45" transform="matrix(1,0,0,1,207,134)" stroke-linecap="butt">
      <path fill="none" d="M398.6193 16.3518 L464.61 16.3518"/>
      <line stroke-linecap="square" transform="matrix(1,0,0,1,464.61,16.3518)" fill="none" x1="0" x2="-14" y1="0" y2="-4" stroke-dasharray="none" stroke-miterlimit="10"/>
      <line stroke-linecap="square" transform="matrix(1,0,0,1,464.61,16.3518)" fill="none" x1="0" x2="-14" y1="0" y2="4" stroke-dasharray="none" stroke-miterlimit="10"/>
    </g>
    <g stroke-dasharray="6,2" stroke-miterlimit="1.45" transform="matrix(1,0,0,1,207,134)" stroke-linecap="butt">
      <path fill="none" d="M398.6346 108.2662 L464.61 108.2662"/>
      <line stroke-linecap="square" transform="matrix(1,0,0,1,464.61,108.2662)" fill="none" x1="0" x2="-14" y1="0" y2="-4" stroke-dasharray="none" stroke-miterlimit="10"/>
      <line stroke-linecap="square" transform="matrix(1,0,0,1,464.61,108.2662)" fill="none" x1="0" x2="-14" y1="0" y2="4" stroke-dasharray="none" stroke-miterlimit="10"/>
    </g>
  </g>
</svg>
