<?xml version="1.0" encoding="UTF-8"?>
<svg xmlns="http://www.w3.org/2000/svg" xmlns:xlink="http://www.w3.org/1999/xlink" fill-opacity="1" color-rendering="auto" color-interpolation="auto" stroke="black" text-rendering="auto" stroke-linecap="square" width="855" stroke-miterlimit="10" stroke-opacity="1" shape-rendering="auto" fill="black" stroke-dasharray="none" font-weight="normal" stroke-width="1" height="489" font-family="'Dialog'" font-style="normal" stroke-linejoin="miter" font-size="12" stroke-dashoffset="0" image-rendering="auto">
  <!--Generated by ySVG-->
  <defs id="genericDefs"/>
  <g>
    <defs id="defs1">
      <clipPath clipPathUnits="userSpaceOnUse" id="clipPath1">
        <path d="M0 0 L855 0 L855 489 L0 489 L0 0 Z"/>
      </clipPath>
      <clipPath clipPathUnits="userSpaceOnUse" id="clipPath2">
        <path d="M-309.08 280.5324 L-66 280.5324 L-66 303.6574 L-309.08 303.6574 L-309.08 280.5324 Z"/>
      </clipPath>
      <clipPath clipPathUnits="userSpaceOnUse" id="clipPath3">
        <path d="M-66 200.1805 C-66 209.2114 -153.7155 216.5324 -261.9181 216.5324 C-370.1206 216.5324 -457.8362 209.2114 -457.8362 200.1805 C-457.8362 191.1497 -370.1206 183.8287 -261.9181 183.8287 C-153.7155 183.8287 -66 191.1497 -66 200.1805 Z"/>
      </clipPath>
      <clipPath clipPathUnits="userSpaceOnUse" id="clipPath4">
        <path d="M-198.87 96.7037 L-66 96.7037 L-66 119.8287 L-198.87 119.8287 L-198.87 96.7037 Z"/>
      </clipPath>
      <clipPath clipPathUnits="userSpaceOnUse" id="clipPath5">
        <path d="M-66 16.3518 C-66 25.3827 -90.7821 32.7037 -121.3523 32.7037 C-151.9226 32.7037 -176.7046 25.3827 -176.7046 16.3518 C-176.7046 7.321 -151.9226 0 -121.3523 0 C-90.7821 0 -66 7.321 -66 16.3518 Z"/>
      </clipPath>
      <clipPath clipPathUnits="userSpaceOnUse" id="clipPath6">
        <path d="M108.665 -107.125 L271.405 -107.125 L271.405 -84 L108.665 -84 L108.665 -107.125 Z"/>
      </clipPath>
      <clipPath clipPathUnits="userSpaceOnUse" id="clipPath7">
        <path d="M0 0 L380.07 0 L380.07 311.6574 L0 311.6574 L0 0 Z"/>
      </clipPath>
      <script type="text/ecmascript"><![CDATA[
function umlload(newLocation)
{
if (newLocation.charAt(0) != '#') {
if (newLocation.indexOf("://") > -1) {
window.parent.location.href = newLocation;
} else {
var tmp = window.parent.location.href;
tmp = tmp.substring(0, tmp.lastIndexOf("/") + 1);
window.parent.location.href = tmp.concat(newLocation);
}
} else {
window.parent.location.hash = newLocation;
}
}
]]></script>
    </defs>
    <g fill="rgb(238,238,255)" transform="matrix(1,0,0,1,466,134)" stroke="rgb(238,238,255)">
      <rect width="203.4492" x="-317.08" height="17.9688" y="254.5324" stroke="none"/>
    </g>
    <g fill="rgb(166,166,178)" stroke-miterlimit="1.45" transform="matrix(1,0,0,1,466,134)" stroke-linecap="butt" stroke="rgb(166,166,178)">
      <rect fill="none" width="203.4492" x="-317.08" height="17.9688" y="254.5324"/>
    </g>
    <g fill="rgb(238,238,255)" transform="matrix(1,0,0,1,466,134)" stroke="rgb(238,238,255)">
      <rect width="259.08" x="-317.08" height="39.1562" y="272.5011" stroke="none"/>
    </g>
    <g fill="rgb(166,166,178)" stroke-miterlimit="1.45" transform="matrix(1,0,0,1,466,134)" stroke-linecap="butt" stroke="rgb(166,166,178)">
      <rect fill="none" width="259.08" x="-317.08" height="39.1562" y="272.5011"/>
    </g>
    <g font-family="sans-serif" transform="matrix(1,0,0,1,466,134)">
      <text xml:space="preserve" x="-311.08" y="267.673" onclick="umlload('../../../lamparski/areabase/widgets/package-summary.html')" stroke="none">lamparski.areabase.widgets</text>
    </g>
    <g fill="rgb(187,187,255)" transform="matrix(1,0,0,1,466,134)" stroke="rgb(187,187,255)">
      <rect x="-309.08" y="280.5324" clip-path="url(#clipPath2)" width="243.08" height="23.125" stroke="none"/>
    </g>
    <g fill="rgb(130,130,178)" stroke-miterlimit="1.45" transform="matrix(1,0,0,1,466,134)" stroke-linecap="butt" stroke="rgb(130,130,178)">
      <rect fill="none" width="243.08" x="-309.08" height="23.125" y="280.5324"/>
    </g>
    <g font-size="13" font-weight="bold" font-family="sans-serif" transform="matrix(1,0,0,1,466,134)">
      <text xml:space="preserve" x="-301.54" y="296.5949" onclick="umlload('../../../lamparski/areabase/widgets/SubjectExpandableListAdapter.html')" stroke="none">SubjectExpandableListAdapter</text>
    </g>
    <g fill="rgb(238,238,255)" transform="matrix(1,0,0,1,466,134)" stroke="rgb(238,238,255)">
      <rect width="206.6319" x="-465.8362" height="17.9688" y="157.8287" stroke="none"/>
    </g>
    <g fill="rgb(166,166,178)" stroke-miterlimit="1.45" transform="matrix(1,0,0,1,466,134)" stroke-linecap="butt" stroke="rgb(166,166,178)">
      <rect fill="none" width="206.6319" x="-465.8362" height="17.9688" y="157.8287"/>
    </g>
    <g fill="rgb(238,238,255)" transform="matrix(1,0,0,1,466,134)" stroke="rgb(238,238,255)">
      <rect width="407.8362" x="-465.8362" height="48.7349" y="175.7974" stroke="none"/>
    </g>
    <g fill="rgb(166,166,178)" stroke-miterlimit="1.45" transform="matrix(1,0,0,1,466,134)" stroke-linecap="butt" stroke="rgb(166,166,178)">
      <rect fill="none" width="407.8362" x="-465.8362" height="48.7349" y="175.7974"/>
    </g>
    <g font-family="sans-serif" transform="matrix(1,0,0,1,466,134)">
      <text xml:space="preserve" x="-459.8362" y="170.9693" onclick="umlload('../../../lamparski/areabase/services/package-summary.html')" stroke="none">lamparski.areabase.services</text>
    </g>
    <g fill="rgb(221,221,255)" transform="matrix(1,0,0,1,466,134)" stroke="rgb(221,221,255)">
      <rect x="-457.8362" y="183.8287" clip-path="url(#clipPath3)" width="391.8362" height="32.7037" stroke="none"/>
    </g>
    <g fill="rgb(154,154,178)" stroke-miterlimit="1.45" transform="matrix(1,0,0,1,466,134)" stroke-linecap="butt" stroke="rgb(154,154,178)">
      <ellipse rx="195.9181" fill="none" ry="16.3518" cx="-261.9181" cy="200.1805"/>
    </g>
    <g font-style="italic" font-size="13" font-weight="bold" font-family="sans-serif" transform="matrix(1,0,0,1,466,134)">
      <text xml:space="preserve" x="-392.4181" y="204.6805" onclick="umlload('../../../lamparski/areabase/services/AreaDataService.SubjectDumpIface.html')" stroke="none">AreaDataService.SubjectDumpIface</text>
    </g>
    <g fill="rgb(238,238,255)" transform="matrix(1,0,0,1,466,134)" stroke="rgb(238,238,255)">
      <rect width="67.654" x="-206.87" height="17.9688" y="70.7037" stroke="none"/>
    </g>
    <g fill="rgb(166,166,178)" stroke-miterlimit="1.45" transform="matrix(1,0,0,1,466,134)" stroke-linecap="butt" stroke="rgb(166,166,178)">
      <rect fill="none" width="67.654" x="-206.87" height="17.9688" y="70.7037"/>
    </g>
    <g fill="rgb(238,238,255)" transform="matrix(1,0,0,1,466,134)" stroke="rgb(238,238,255)">
      <rect width="148.87" x="-206.87" height="39.1562" y="88.6724" stroke="none"/>
    </g>
    <g fill="rgb(166,166,178)" stroke-miterlimit="1.45" transform="matrix(1,0,0,1,466,134)" stroke-linecap="butt" stroke="rgb(166,166,178)">
      <rect fill="none" width="148.87" x="-206.87" height="39.1562" y="88.6724"/>
    </g>
    <g font-family="sans-serif" transform="matrix(1,0,0,1,466,134)">
      <text xml:space="preserve" x="-200.87" y="83.8443" stroke="none">java.util</text>
    </g>
    <g fill="rgb(187,187,255)" transform="matrix(1,0,0,1,466,134)" stroke="rgb(187,187,255)">
      <rect x="-198.87" y="96.7037" clip-path="url(#clipPath4)" width="132.87" height="23.125" stroke="none"/>
    </g>
    <g fill="rgb(130,130,178)" stroke-miterlimit="1.45" transform="matrix(1,0,0,1,466,134)" stroke-linecap="butt" stroke="rgb(130,130,178)">
      <rect fill="none" width="132.87" x="-198.87" height="23.125" y="96.7037"/>
    </g>
    <g font-size="13" font-weight="bold" font-family="sans-serif" transform="matrix(1,0,0,1,466,134)">
      <text xml:space="preserve" x="-192.935" y="112.7662" stroke="none">HashMap&lt;K, V&gt;</text>
    </g>
    <g fill="rgb(238,238,255)" transform="matrix(1,0,0,1,466,134)" stroke="rgb(238,238,255)">
      <rect width="76.1412" x="-184.7046" height="17.9688" y="-26" stroke="none"/>
    </g>
    <g fill="rgb(166,166,178)" stroke-miterlimit="1.45" transform="matrix(1,0,0,1,466,134)" stroke-linecap="butt" stroke="rgb(166,166,178)">
      <rect fill="none" width="76.1412" x="-184.7046" height="17.9688" y="-26"/>
    </g>
    <g fill="rgb(238,238,255)" transform="matrix(1,0,0,1,466,134)" stroke="rgb(238,238,255)">
      <rect width="126.7046" x="-184.7046" height="48.7349" y="-8.0312" stroke="none"/>
    </g>
    <g fill="rgb(166,166,178)" stroke-miterlimit="1.45" transform="matrix(1,0,0,1,466,134)" stroke-linecap="butt" stroke="rgb(166,166,178)">
      <rect fill="none" width="126.7046" x="-184.7046" height="48.7349" y="-8.0312"/>
    </g>
    <g font-family="sans-serif" transform="matrix(1,0,0,1,466,134)">
      <text xml:space="preserve" x="-178.7046" y="-12.8594" stroke="none">java.lang</text>
    </g>
    <g fill="rgb(221,221,255)" transform="matrix(1,0,0,1,466,134)" stroke="rgb(221,221,255)">
      <rect x="-176.7046" y="0" clip-path="url(#clipPath5)" width="110.7046" height="32.7037" stroke="none"/>
    </g>
    <g fill="rgb(154,154,178)" stroke-miterlimit="1.45" transform="matrix(1,0,0,1,466,134)" stroke-linecap="butt" stroke="rgb(154,154,178)">
      <ellipse rx="55.3523" fill="none" ry="16.3518" cx="-121.3523" cy="16.3518"/>
    </g>
    <g font-style="italic" font-size="13" font-weight="bold" font-family="sans-serif" transform="matrix(1,0,0,1,466,134)">
      <text xml:space="preserve" x="-155.3523" y="20.8518" stroke="none">Runnable</text>
    </g>
    <g fill="rgb(238,238,255)" transform="matrix(1,0,0,1,466,134)" stroke="rgb(238,238,255)">
      <rect width="220.4236" x="84.665" height="17.9688" y="-133.125" stroke="none"/>
    </g>
    <g fill="rgb(166,166,178)" stroke-miterlimit="1.45" transform="matrix(1,0,0,1,466,134)" stroke-linecap="butt" stroke="rgb(166,166,178)">
      <rect fill="none" width="220.4236" x="84.665" height="17.9688" y="-133.125"/>
    </g>
    <g fill="rgb(238,238,255)" transform="matrix(1,0,0,1,466,134)" stroke="rgb(238,238,255)">
      <rect width="220.74" x="84.665" height="39.1562" y="-115.1562" stroke="none"/>
    </g>
    <g fill="rgb(166,166,178)" stroke-miterlimit="1.45" transform="matrix(1,0,0,1,466,134)" stroke-linecap="butt" stroke="rgb(166,166,178)">
      <rect fill="none" width="220.74" x="84.665" height="39.1562" y="-115.1562"/>
    </g>
    <g font-family="sans-serif" transform="matrix(1,0,0,1,466,134)">
      <text xml:space="preserve" x="90.665" y="-119.9844" onclick="umlload('../../../lamparski/areabase/fragments/package-summary.html')" stroke="none">lamparski.areabase.fragments</text>
    </g>
    <g fill="rgb(204,204,255)" transform="matrix(1,0,0,1,466,134)" stroke="rgb(204,204,255)">
      <rect x="108.665" y="-107.125" clip-path="url(#clipPath6)" width="162.74" height="23.125" stroke="none"/>
    </g>
    <g fill="rgb(142,142,178)" stroke-miterlimit="1.45" transform="matrix(1,0,0,1,466,134)" stroke-linecap="butt" stroke="rgb(142,142,178)">
      <rect fill="none" width="162.74" x="108.665" height="23.125" y="-107.125"/>
    </g>
    <g font-size="13" font-weight="bold" font-family="sans-serif" transform="matrix(1,0,0,1,466,134)">
      <text xml:space="preserve" x="115.035" y="-91.0625" onclick="umlload('../../../lamparski/areabase/fragments/DetailViewFragment.html')" stroke="none">DetailViewFragment</text>
    </g>
    <g fill="rgb(238,238,255)" transform="matrix(1,0,0,1,466,134)" stroke="rgb(238,238,255)">
      <rect width="220.4236" x="-8" height="17.9688" y="-26" stroke="none"/>
    </g>
    <g fill="rgb(166,166,178)" stroke-miterlimit="1.45" transform="matrix(1,0,0,1,466,134)" stroke-linecap="butt" stroke="rgb(166,166,178)">
      <rect fill="none" width="220.4236" x="-8" height="17.9688" y="-26"/>
    </g>
    <g fill="rgb(238,238,255)" transform="matrix(1,0,0,1,466,134)" stroke="rgb(238,238,255)">
      <rect width="396.07" x="-8" height="327.6886" y="-8.0312" stroke="none"/>
    </g>
    <g fill="rgb(166,166,178)" stroke-miterlimit="1.45" transform="matrix(1,0,0,1,466,134)" stroke-linecap="butt" stroke="rgb(166,166,178)">
      <rect fill="none" width="396.07" x="-8" height="327.6886" y="-8.0312"/>
    </g>
    <g font-family="sans-serif" transform="matrix(1,0,0,1,466,134)">
      <text xml:space="preserve" x="-2" y="-12.8594" onclick="umlload('package-summary.html')" stroke="none">lamparski.areabase.fragments</text>
    </g>
    <g fill="rgb(187,187,255)" transform="matrix(1,0,0,1,466,134)" stroke="rgb(187,187,255)">
      <rect x="0" y="0" clip-path="url(#clipPath7)" width="380.07" height="26.6406" stroke="none"/>
      <line clip-path="url(#clipPath7)" fill="none" x1="0" x2="380.07" y1="26.6406" y2="26.6406" stroke="black"/>
      <rect x="0" y="27.6406" clip-path="url(#clipPath7)" width="380.07" height="15.9688" stroke="none"/>
      <line clip-path="url(#clipPath7)" fill="none" x1="0" x2="380.07" y1="43.6094" y2="43.6094" stroke="black"/>
      <rect x="0" y="44.6094" clip-path="url(#clipPath7)" width="380.07" height="267.048" stroke="none"/>
    </g>
    <g fill="rgb(130,130,178)" stroke-miterlimit="1.45" transform="matrix(1,0,0,1,466,134)" stroke-linecap="butt" stroke="rgb(130,130,178)">
      <rect fill="none" width="380.07" x="0" height="311.6574" y="0"/>
    </g>
    <g font-size="16" font-weight="bold" font-family="sans-serif" transform="matrix(1,0,0,1,466,134)">
      <text xml:space="preserve" x="93.535" y="18.8594" onclick="umlload('#')" stroke="none">SubjectViewFragment</text>
    </g>
    <g font-family="sans-serif" transform="matrix(1,0,0,1,466,134)">
      <text xml:space="preserve" x="4" y="38.1719" stroke="none">+</text>
      <text xml:space="preserve" x="19" y="39.7812" onclick="umlload('#SubjectViewFragment()')" stroke="none">SubjectViewFragment()</text>
    </g>
    <g font-family="sans-serif" transform="matrix(1,0,0,1,466,134)">
      <text xml:space="preserve" x="4" y="55.1719" stroke="none">+</text>
      <text xml:space="preserve" x="19" y="56.75" onclick="umlload('#onCreateView(LayoutInflater, ViewGroup, Bundle)')" stroke="none">onCreateView(LayoutInflater, ViewGroup, Bundle) : View</text>
    </g>
    <g font-family="sans-serif" transform="matrix(1,0,0,1,466,134)">
      <text xml:space="preserve" x="4" y="71.1719" stroke="none">+</text>
      <text xml:space="preserve" x="19" y="72.7188" onclick="umlload('#refreshContent()')" stroke="none">refreshContent() : void</text>
    </g>
    <g font-family="sans-serif" transform="matrix(1,0,0,1,466,134)">
      <text xml:space="preserve" x="-460" y="344.1562" onclick="umlload('http://www.yworks.com/')" stroke="none">yWorks UML Doclet</text>
    </g>
    <g stroke-miterlimit="1.45" transform="matrix(1,0,0,1,466,134)" stroke-linecap="butt">
      <path fill="none" d="M190.035 0.0113 L190.035 -69"/>
      <path fill="white" d="M190.035 -84 L184.035 -68 L196.035 -68 Z" stroke="none"/>
      <path fill="none" d="M190.035 -84 L184.035 -68 L196.035 -68 Z"/>
      <path fill="none" d="M0.0173 16.3518 L-66 16.3518"/>
      <line stroke-linecap="square" transform="matrix(-1,0,0,-1,-66,16.3518)" fill="none" x1="0" x2="-14" y1="0" y2="-4" stroke-miterlimit="10"/>
      <line stroke-linecap="square" transform="matrix(-1,0,0,-1,-66,16.3518)" fill="none" x1="0" x2="-14" y1="0" y2="4" stroke-miterlimit="10"/>
    </g>
    <g stroke-miterlimit="1.45" transform="matrix(1,0,0,1,466,134)" stroke-linecap="butt">
      <path fill="none" d="M0.0249 108.2662 L-66 108.2662"/>
      <line stroke-linecap="square" transform="matrix(-1,0,0,-1,-66,108.2662)" fill="none" x1="0" x2="-14" y1="0" y2="-4" stroke-miterlimit="10"/>
      <line stroke-linecap="square" transform="matrix(-1,0,0,-1,-66,108.2662)" fill="none" x1="0" x2="-14" y1="0" y2="4" stroke-miterlimit="10"/>
    </g>
    <g stroke-miterlimit="1.45" transform="matrix(1,0,0,1,466,134)" stroke-linecap="butt">
      <path fill="none" d="M0.0018 200.1805 L-66 200.1805"/>
      <line stroke-linecap="square" transform="matrix(-1,0,0,-1,-66,200.1805)" fill="none" x1="0" x2="-14" y1="0" y2="-4" stroke-miterlimit="10"/>
      <line stroke-linecap="square" transform="matrix(-1,0,0,-1,-66,200.1805)" fill="none" x1="0" x2="-14" y1="0" y2="4" stroke-miterlimit="10"/>
    </g>
    <g stroke-miterlimit="1.45" transform="matrix(1,0,0,1,466,134)" stroke-linecap="butt">
      <path fill="none" d="M0.0031 292.0949 L-66 292.0949"/>
      <line stroke-linecap="square" transform="matrix(-1,0,0,-1,-66,292.0949)" fill="none" x1="0" x2="-14" y1="0" y2="-4" stroke-miterlimit="10"/>
      <line stroke-linecap="square" transform="matrix(-1,0,0,-1,-66,292.0949)" fill="none" x1="0" x2="-14" y1="0" y2="4" stroke-miterlimit="10"/>
    </g>
  </g>
</svg>
