<?xml version="1.0" encoding="UTF-8"?>
<svg xmlns="http://www.w3.org/2000/svg" xmlns:xlink="http://www.w3.org/1999/xlink" fill-opacity="1" color-rendering="auto" color-interpolation="auto" stroke="black" text-rendering="auto" stroke-linecap="square" width="1488" stroke-miterlimit="10" stroke-opacity="1" shape-rendering="auto" fill="black" stroke-dasharray="none" font-weight="normal" stroke-width="1" height="618" font-family="'Dialog'" font-style="normal" stroke-linejoin="miter" font-size="12" stroke-dashoffset="0" image-rendering="auto">
  <!--Generated by ySVG-->
  <defs id="genericDefs"/>
  <g>
    <defs id="defs1">
      <clipPath clipPathUnits="userSpaceOnUse" id="clipPath1">
        <path d="M0 0 L1488 0 L1488 618 L0 618 L0 0 Z"/>
      </clipPath>
      <clipPath clipPathUnits="userSpaceOnUse" id="clipPath2">
        <path d="M446.07 0 L492.42 0 L492.42 23.125 L446.07 23.125 L446.07 0 Z"/>
      </clipPath>
      <clipPath clipPathUnits="userSpaceOnUse" id="clipPath3">
        <path d="M446.07 33.125 L499.63 33.125 L499.63 56.25 L446.07 56.25 L446.07 33.125 Z"/>
      </clipPath>
      <clipPath clipPathUnits="userSpaceOnUse" id="clipPath4">
        <path d="M446.07 66.25 L532.59 66.25 L532.59 89.375 L446.07 89.375 L446.07 66.25 Z"/>
      </clipPath>
      <clipPath clipPathUnits="userSpaceOnUse" id="clipPath5">
        <path d="M-171.24 400.7824 L-127.98 400.7824 L-127.98 423.9074 L-171.24 423.9074 L-171.24 400.7824 Z"/>
      </clipPath>
      <clipPath clipPathUnits="userSpaceOnUse" id="clipPath6">
        <path d="M-256.73 313.6574 L-122.83 313.6574 L-122.83 336.7824 L-256.73 336.7824 L-256.73 313.6574 Z"/>
      </clipPath>
      <clipPath clipPathUnits="userSpaceOnUse" id="clipPath7">
        <path d="M-288.66 226.5324 L-87.81 226.5324 L-87.81 249.6574 L-288.66 249.6574 L-288.66 226.5324 Z"/>
      </clipPath>
      <clipPath clipPathUnits="userSpaceOnUse" id="clipPath8">
        <path d="M-498.6221 96.7037 L-329.7021 96.7037 L-329.7021 119.8287 L-498.6221 119.8287 L-498.6221 96.7037 Z"/>
      </clipPath>
      <clipPath clipPathUnits="userSpaceOnUse" id="clipPath9">
        <path d="M-66 146.1805 C-66 155.2114 -162.8457 162.5324 -282.311 162.5324 C-401.7763 162.5324 -498.6221 155.2114 -498.6221 146.1805 C-498.6221 137.1497 -401.7763 129.8287 -282.311 129.8287 C-162.8457 129.8287 -66 137.1497 -66 146.1805 Z"/>
      </clipPath>
      <clipPath clipPathUnits="userSpaceOnUse" id="clipPath10">
        <path d="M-66 16.3518 C-66 25.3827 -90.7821 32.7037 -121.3523 32.7037 C-151.9226 32.7037 -176.7046 25.3827 -176.7046 16.3518 C-176.7046 7.321 -151.9226 0 -121.3523 0 C-90.7821 0 -66 7.321 -66 16.3518 Z"/>
      </clipPath>
      <clipPath clipPathUnits="userSpaceOnUse" id="clipPath11">
        <path d="M972.7552 -100.3518 C972.7552 -91.321 883.4094 -84 773.1956 -84 C662.9818 -84 573.6359 -91.321 573.6359 -100.3518 C573.6359 -109.3827 662.9818 -116.7037 773.1956 -116.7037 C883.4094 -116.7037 972.7552 -109.3827 972.7552 -100.3518 Z"/>
      </clipPath>
      <clipPath clipPathUnits="userSpaceOnUse" id="clipPath12">
        <path d="M527.6359 -100.3518 C527.6359 -91.321 477.7457 -84 416.203 -84 C354.6602 -84 304.77 -91.321 304.77 -100.3518 C304.77 -109.3827 354.6602 -116.7037 416.203 -116.7037 C477.7457 -116.7037 527.6359 -109.3827 527.6359 -100.3518 Z"/>
      </clipPath>
      <clipPath clipPathUnits="userSpaceOnUse" id="clipPath13">
        <path d="M148.835 -107.125 L231.235 -107.125 L231.235 -84 L148.835 -84 L148.835 -107.125 Z"/>
      </clipPath>
      <clipPath clipPathUnits="userSpaceOnUse" id="clipPath14">
        <path d="M0 0 L380.07 0 L380.07 431.9074 L0 431.9074 L0 0 Z"/>
      </clipPath>
      <script type="text/ecmascript"><![CDATA[
function umlload(newLocation)
{
if (newLocation.charAt(0) != '#') {
if (newLocation.indexOf("://") > -1) {
window.parent.location.href = newLocation;
} else {
var tmp = window.parent.location.href;
tmp = tmp.substring(0, tmp.lastIndexOf("/") + 1);
window.parent.location.href = tmp.concat(newLocation);
}
} else {
window.parent.location.hash = newLocation;
}
}
]]></script>
    </defs>
    <g fill="rgb(238,238,255)" transform="matrix(1,0,0,1,507,143)" stroke="rgb(238,238,255)">
      <rect width="76.1412" x="438.07" height="17.9688" y="-26" stroke="none"/>
    </g>
    <g fill="rgb(166,166,178)" stroke-miterlimit="1.45" transform="matrix(1,0,0,1,507,143)" stroke-linecap="butt" stroke="rgb(166,166,178)">
      <rect fill="none" width="76.1412" x="438.07" height="17.9688" y="-26"/>
    </g>
    <g fill="rgb(238,238,255)" transform="matrix(1,0,0,1,507,143)" stroke="rgb(238,238,255)">
      <rect width="102.52" x="438.07" height="105.4062" y="-8.0312" stroke="none"/>
    </g>
    <g fill="rgb(166,166,178)" stroke-miterlimit="1.45" transform="matrix(1,0,0,1,507,143)" stroke-linecap="butt" stroke="rgb(166,166,178)">
      <rect fill="none" width="102.52" x="438.07" height="105.4062" y="-8.0312"/>
    </g>
    <g font-family="sans-serif" transform="matrix(1,0,0,1,507,143)">
      <text xml:space="preserve" x="444.07" y="-12.8594" stroke="none">java.lang</text>
    </g>
    <g fill="rgb(187,187,255)" transform="matrix(1,0,0,1,507,143)" stroke="rgb(187,187,255)">
      <rect x="446.07" y="0" clip-path="url(#clipPath2)" width="46.35" height="23.125" stroke="none"/>
    </g>
    <g fill="rgb(130,130,178)" stroke-miterlimit="1.45" transform="matrix(1,0,0,1,507,143)" stroke-linecap="butt" stroke="rgb(130,130,178)">
      <rect fill="none" width="46.35" x="446.07" height="23.125" y="0"/>
    </g>
    <g font-size="13" font-weight="bold" font-family="sans-serif" transform="matrix(1,0,0,1,507,143)">
      <text xml:space="preserve" x="450.745" y="16.0625" stroke="none">Float</text>
    </g>
    <g fill="rgb(187,187,255)" transform="matrix(1,0,0,1,507,143)" stroke="rgb(187,187,255)">
      <rect x="446.07" y="33.125" clip-path="url(#clipPath3)" width="53.56" height="23.125" stroke="none"/>
    </g>
    <g fill="rgb(130,130,178)" stroke-miterlimit="1.45" transform="matrix(1,0,0,1,507,143)" stroke-linecap="butt" stroke="rgb(130,130,178)">
      <rect fill="none" width="53.56" x="446.07" height="23.125" y="33.125"/>
    </g>
    <g font-size="13" font-weight="bold" font-family="sans-serif" transform="matrix(1,0,0,1,507,143)">
      <text xml:space="preserve" x="450.85" y="49.1875" stroke="none">String</text>
    </g>
    <g fill="rgb(187,187,255)" transform="matrix(1,0,0,1,507,143)" stroke="rgb(187,187,255)">
      <rect x="446.07" y="66.25" clip-path="url(#clipPath4)" width="86.52" height="23.125" stroke="none"/>
    </g>
    <g fill="rgb(130,130,178)" stroke-miterlimit="1.45" transform="matrix(1,0,0,1,507,143)" stroke-linecap="butt" stroke="rgb(130,130,178)">
      <rect fill="none" width="86.52" x="446.07" height="23.125" y="66.25"/>
    </g>
    <g font-size="13" font-weight="bold" font-family="sans-serif" transform="matrix(1,0,0,1,507,143)">
      <text xml:space="preserve" x="451.33" y="82.3125" stroke="none">Throwable</text>
    </g>
    <g fill="rgb(238,238,255)" transform="matrix(1,0,0,1,507,143)" stroke="rgb(238,238,255)">
      <rect width="118.5772" x="-179.24" height="17.9688" y="374.7824" stroke="none"/>
    </g>
    <g fill="rgb(166,166,178)" stroke-miterlimit="1.45" transform="matrix(1,0,0,1,507,143)" stroke-linecap="butt" stroke="rgb(166,166,178)">
      <rect fill="none" width="118.5772" x="-179.24" height="17.9688" y="374.7824"/>
    </g>
    <g fill="rgb(238,238,255)" transform="matrix(1,0,0,1,507,143)" stroke="rgb(238,238,255)">
      <rect width="121.26" x="-179.24" height="39.1562" y="392.7511" stroke="none"/>
    </g>
    <g fill="rgb(166,166,178)" stroke-miterlimit="1.45" transform="matrix(1,0,0,1,507,143)" stroke-linecap="butt" stroke="rgb(166,166,178)">
      <rect fill="none" width="121.26" x="-179.24" height="39.1562" y="392.7511"/>
    </g>
    <g font-family="sans-serif" transform="matrix(1,0,0,1,507,143)">
      <text xml:space="preserve" x="-173.24" y="387.923" stroke="none">nde2.pull.types</text>
    </g>
    <g fill="rgb(187,187,255)" transform="matrix(1,0,0,1,507,143)" stroke="rgb(187,187,255)">
      <rect x="-171.24" y="400.7824" clip-path="url(#clipPath5)" width="43.26" height="23.125" stroke="none"/>
    </g>
    <g fill="rgb(130,130,178)" stroke-miterlimit="1.45" transform="matrix(1,0,0,1,507,143)" stroke-linecap="butt" stroke="rgb(130,130,178)">
      <rect fill="none" width="43.26" x="-171.24" height="23.125" y="400.7824"/>
    </g>
    <g font-size="13" font-weight="bold" font-family="sans-serif" transform="matrix(1,0,0,1,507,143)">
      <text xml:space="preserve" x="-166.61" y="416.8449" stroke="none">Area</text>
    </g>
    <g fill="rgb(238,238,255)" transform="matrix(1,0,0,1,507,143)" stroke="rgb(238,238,255)">
      <rect width="206.6319" x="-264.73" height="17.9688" y="287.6574" stroke="none"/>
    </g>
    <g fill="rgb(166,166,178)" stroke-miterlimit="1.45" transform="matrix(1,0,0,1,507,143)" stroke-linecap="butt" stroke="rgb(166,166,178)">
      <rect fill="none" width="206.6319" x="-264.73" height="17.9688" y="287.6574"/>
    </g>
    <g fill="rgb(238,238,255)" transform="matrix(1,0,0,1,507,143)" stroke="rgb(238,238,255)">
      <rect width="206.9" x="-264.73" height="39.1562" y="305.6261" stroke="none"/>
    </g>
    <g fill="rgb(166,166,178)" stroke-miterlimit="1.45" transform="matrix(1,0,0,1,507,143)" stroke-linecap="butt" stroke="rgb(166,166,178)">
      <rect fill="none" width="206.9" x="-264.73" height="39.1562" y="305.6261"/>
    </g>
    <g font-family="sans-serif" transform="matrix(1,0,0,1,507,143)">
      <text xml:space="preserve" x="-258.73" y="300.798" onclick="umlload('../../../lamparski/areabase/services/package-summary.html')" stroke="none">lamparski.areabase.services</text>
    </g>
    <g fill="rgb(187,187,255)" transform="matrix(1,0,0,1,507,143)" stroke="rgb(187,187,255)">
      <rect x="-256.73" y="313.6574" clip-path="url(#clipPath6)" width="133.9" height="23.125" stroke="none"/>
    </g>
    <g fill="rgb(130,130,178)" stroke-miterlimit="1.45" transform="matrix(1,0,0,1,507,143)" stroke-linecap="butt" stroke="rgb(130,130,178)">
      <rect fill="none" width="133.9" x="-256.73" height="23.125" y="313.6574"/>
    </g>
    <g font-size="13" font-weight="bold" font-family="sans-serif" transform="matrix(1,0,0,1,507,143)">
      <text xml:space="preserve" x="-250.78" y="329.7199" onclick="umlload('../../../lamparski/areabase/services/AreaDataService.html')" stroke="none">AreaDataService</text>
    </g>
    <g fill="rgb(238,238,255)" transform="matrix(1,0,0,1,507,143)" stroke="rgb(238,238,255)">
      <rect width="239.5198" x="-296.66" height="17.9688" y="200.5324" stroke="none"/>
    </g>
    <g fill="rgb(166,166,178)" stroke-miterlimit="1.45" transform="matrix(1,0,0,1,507,143)" stroke-linecap="butt" stroke="rgb(166,166,178)">
      <rect fill="none" width="239.5198" x="-296.66" height="17.9688" y="200.5324"/>
    </g>
    <g fill="rgb(238,238,255)" transform="matrix(1,0,0,1,507,143)" stroke="rgb(238,238,255)">
      <rect width="239.85" x="-296.66" height="39.1562" y="218.5011" stroke="none"/>
    </g>
    <g fill="rgb(166,166,178)" stroke-miterlimit="1.45" transform="matrix(1,0,0,1,507,143)" stroke-linecap="butt" stroke="rgb(166,166,178)">
      <rect fill="none" width="239.85" x="-296.66" height="39.1562" y="218.5011"/>
    </g>
    <g font-family="sans-serif" transform="matrix(1,0,0,1,507,143)">
      <text xml:space="preserve" x="-290.66" y="213.673" onclick="umlload('../../../lamparski/areabase/map_support/package-summary.html')" stroke="none">lamparski.areabase.map_support</text>
    </g>
    <g fill="rgb(187,187,255)" transform="matrix(1,0,0,1,507,143)" stroke="rgb(187,187,255)">
      <rect x="-288.66" y="226.5324" clip-path="url(#clipPath7)" width="200.85" height="23.125" stroke="none"/>
    </g>
    <g fill="rgb(130,130,178)" stroke-miterlimit="1.45" transform="matrix(1,0,0,1,507,143)" stroke-linecap="butt" stroke="rgb(130,130,178)">
      <rect fill="none" width="200.85" x="-288.66" height="23.125" y="226.5324"/>
    </g>
    <g font-size="13" font-weight="bold" font-family="sans-serif" transform="matrix(1,0,0,1,507,143)">
      <text xml:space="preserve" x="-281.735" y="242.5949" onclick="umlload('../../../lamparski/areabase/map_support/OrdnanceSurveyMapView.html')" stroke="none">OrdnanceSurveyMapView</text>
    </g>
    <g fill="rgb(238,238,255)" transform="matrix(1,0,0,1,507,143)" stroke="rgb(238,238,255)">
      <rect width="189.6575" x="-506.6221" height="17.9688" y="70.7037" stroke="none"/>
    </g>
    <g fill="rgb(166,166,178)" stroke-miterlimit="1.45" transform="matrix(1,0,0,1,507,143)" stroke-linecap="butt" stroke="rgb(166,166,178)">
      <rect fill="none" width="189.6575" x="-506.6221" height="17.9688" y="70.7037"/>
    </g>
    <g fill="rgb(238,238,255)" transform="matrix(1,0,0,1,507,143)" stroke="rgb(238,238,255)">
      <rect width="448.6221" x="-506.6221" height="81.8599" y="88.6724" stroke="none"/>
    </g>
    <g fill="rgb(166,166,178)" stroke-miterlimit="1.45" transform="matrix(1,0,0,1,507,143)" stroke-linecap="butt" stroke="rgb(166,166,178)">
      <rect fill="none" width="448.6221" x="-506.6221" height="81.8599" y="88.6724"/>
    </g>
    <g font-family="sans-serif" transform="matrix(1,0,0,1,507,143)">
      <text xml:space="preserve" x="-500.6221" y="83.8443" onclick="umlload('../../../lamparski/areabase/cards/package-summary.html')" stroke="none">lamparski.areabase.cards</text>
    </g>
    <g fill="rgb(187,187,255)" transform="matrix(1,0,0,1,507,143)" stroke="rgb(187,187,255)">
      <rect x="-498.6221" y="96.7037" clip-path="url(#clipPath8)" width="168.92" height="23.125" stroke="none"/>
    </g>
    <g fill="rgb(130,130,178)" stroke-miterlimit="1.45" transform="matrix(1,0,0,1,507,143)" stroke-linecap="butt" stroke="rgb(130,130,178)">
      <rect fill="none" width="168.92" x="-498.6221" height="23.125" y="96.7037"/>
    </g>
    <g font-size="13" font-weight="bold" font-family="sans-serif" transform="matrix(1,0,0,1,507,143)">
      <text xml:space="preserve" x="-492.1621" y="112.7662" onclick="umlload('../../../lamparski/areabase/cards/EventfulArrayList.html')" stroke="none">EventfulArrayList&lt;E&gt;</text>
    </g>
    <g fill="rgb(221,221,255)" transform="matrix(1,0,0,1,507,143)" stroke="rgb(221,221,255)">
      <rect x="-498.6221" y="129.8287" clip-path="url(#clipPath9)" width="432.6221" height="32.7037" stroke="none"/>
    </g>
    <g fill="rgb(154,154,178)" stroke-miterlimit="1.45" transform="matrix(1,0,0,1,507,143)" stroke-linecap="butt" stroke="rgb(154,154,178)">
      <ellipse rx="216.311" fill="none" ry="16.3518" cx="-282.311" cy="146.1805"/>
    </g>
    <g font-style="italic" font-size="13" font-weight="bold" font-family="sans-serif" transform="matrix(1,0,0,1,507,143)">
      <text xml:space="preserve" x="-426.811" y="150.6805" onclick="umlload('../../../lamparski/areabase/cards/EventfulArrayList.OnItemAddedListener.html')" stroke="none">EventfulArrayList.OnItemAddedListener</text>
    </g>
    <g fill="rgb(238,238,255)" transform="matrix(1,0,0,1,507,143)" stroke="rgb(238,238,255)">
      <rect width="76.1412" x="-184.7046" height="17.9688" y="-26" stroke="none"/>
    </g>
    <g fill="rgb(166,166,178)" stroke-miterlimit="1.45" transform="matrix(1,0,0,1,507,143)" stroke-linecap="butt" stroke="rgb(166,166,178)">
      <rect fill="none" width="76.1412" x="-184.7046" height="17.9688" y="-26"/>
    </g>
    <g fill="rgb(238,238,255)" transform="matrix(1,0,0,1,507,143)" stroke="rgb(238,238,255)">
      <rect width="126.7046" x="-184.7046" height="48.7349" y="-8.0312" stroke="none"/>
    </g>
    <g fill="rgb(166,166,178)" stroke-miterlimit="1.45" transform="matrix(1,0,0,1,507,143)" stroke-linecap="butt" stroke="rgb(166,166,178)">
      <rect fill="none" width="126.7046" x="-184.7046" height="48.7349" y="-8.0312"/>
    </g>
    <g font-family="sans-serif" transform="matrix(1,0,0,1,507,143)">
      <text xml:space="preserve" x="-178.7046" y="-12.8594" stroke="none">java.lang</text>
    </g>
    <g fill="rgb(221,221,255)" transform="matrix(1,0,0,1,507,143)" stroke="rgb(221,221,255)">
      <rect x="-176.7046" y="0" clip-path="url(#clipPath10)" width="110.7046" height="32.7037" stroke="none"/>
    </g>
    <g fill="rgb(154,154,178)" stroke-miterlimit="1.45" transform="matrix(1,0,0,1,507,143)" stroke-linecap="butt" stroke="rgb(154,154,178)">
      <ellipse rx="55.3523" fill="none" ry="16.3518" cx="-121.3523" cy="16.3518"/>
    </g>
    <g font-style="italic" font-size="13" font-weight="bold" font-family="sans-serif" transform="matrix(1,0,0,1,507,143)">
      <text xml:space="preserve" x="-155.3523" y="20.8518" stroke="none">Runnable</text>
    </g>
    <g fill="rgb(238,238,255)" transform="matrix(1,0,0,1,507,143)" stroke="rgb(238,238,255)">
      <rect width="206.6319" x="565.6359" height="17.9688" y="-142.7037" stroke="none"/>
    </g>
    <g fill="rgb(166,166,178)" stroke-miterlimit="1.45" transform="matrix(1,0,0,1,507,143)" stroke-linecap="butt" stroke="rgb(166,166,178)">
      <rect fill="none" width="206.6319" x="565.6359" height="17.9688" y="-142.7037"/>
    </g>
    <g fill="rgb(238,238,255)" transform="matrix(1,0,0,1,507,143)" stroke="rgb(238,238,255)">
      <rect width="415.1194" x="565.6359" height="48.7349" y="-124.7349" stroke="none"/>
    </g>
    <g fill="rgb(166,166,178)" stroke-miterlimit="1.45" transform="matrix(1,0,0,1,507,143)" stroke-linecap="butt" stroke="rgb(166,166,178)">
      <rect fill="none" width="415.1194" x="565.6359" height="48.7349" y="-124.7349"/>
    </g>
    <g font-family="sans-serif" transform="matrix(1,0,0,1,507,143)">
      <text xml:space="preserve" x="571.6359" y="-129.5631" onclick="umlload('../../../lamparski/areabase/services/package-summary.html')" stroke="none">lamparski.areabase.services</text>
    </g>
    <g fill="rgb(221,221,255)" transform="matrix(1,0,0,1,507,143)" stroke="rgb(221,221,255)">
      <rect x="573.6359" y="-116.7037" clip-path="url(#clipPath11)" width="399.1194" height="32.7037" stroke="none"/>
    </g>
    <g fill="rgb(154,154,178)" stroke-miterlimit="1.45" transform="matrix(1,0,0,1,507,143)" stroke-linecap="butt" stroke="rgb(154,154,178)">
      <ellipse rx="199.5597" fill="none" ry="16.3518" cx="773.1956" cy="-100.3518"/>
    </g>
    <g font-style="italic" font-size="13" font-weight="bold" font-family="sans-serif" transform="matrix(1,0,0,1,507,143)">
      <text xml:space="preserve" x="640.1956" y="-95.8518" onclick="umlload('../../../lamparski/areabase/services/AreaDataService.BasicAreaInfoIface.html')" stroke="none">AreaDataService.BasicAreaInfoIface</text>
    </g>
    <g fill="rgb(238,238,255)" transform="matrix(1,0,0,1,507,143)" stroke="rgb(238,238,255)">
      <rect width="220.4236" x="296.77" height="17.9688" y="-142.7037" stroke="none"/>
    </g>
    <g fill="rgb(166,166,178)" stroke-miterlimit="1.45" transform="matrix(1,0,0,1,507,143)" stroke-linecap="butt" stroke="rgb(166,166,178)">
      <rect fill="none" width="220.4236" x="296.77" height="17.9688" y="-142.7037"/>
    </g>
    <g fill="rgb(238,238,255)" transform="matrix(1,0,0,1,507,143)" stroke="rgb(238,238,255)">
      <rect width="238.8659" x="296.77" height="48.7349" y="-124.7349" stroke="none"/>
    </g>
    <g fill="rgb(166,166,178)" stroke-miterlimit="1.45" transform="matrix(1,0,0,1,507,143)" stroke-linecap="butt" stroke="rgb(166,166,178)">
      <rect fill="none" width="238.8659" x="296.77" height="48.7349" y="-124.7349"/>
    </g>
    <g font-family="sans-serif" transform="matrix(1,0,0,1,507,143)">
      <text xml:space="preserve" x="302.77" y="-129.5631" onclick="umlload('../../../lamparski/areabase/fragments/package-summary.html')" stroke="none">lamparski.areabase.fragments</text>
    </g>
    <g fill="rgb(221,221,255)" transform="matrix(1,0,0,1,507,143)" stroke="rgb(221,221,255)">
      <rect x="304.77" y="-116.7037" clip-path="url(#clipPath12)" width="222.8659" height="32.7037" stroke="none"/>
    </g>
    <g fill="rgb(154,154,178)" stroke-miterlimit="1.45" transform="matrix(1,0,0,1,507,143)" stroke-linecap="butt" stroke="rgb(154,154,178)">
      <ellipse rx="111.433" fill="none" ry="16.3518" cx="416.203" cy="-100.3518"/>
    </g>
    <g font-style="italic" font-size="13" font-weight="bold" font-family="sans-serif" transform="matrix(1,0,0,1,507,143)">
      <text xml:space="preserve" x="343.703" y="-95.8518" onclick="umlload('../../../lamparski/areabase/fragments/IAreabaseFragment.html')" stroke="none">IAreabaseFragment</text>
    </g>
    <g fill="rgb(238,238,255)" transform="matrix(1,0,0,1,507,143)" stroke="rgb(238,238,255)">
      <rect width="162.0741" x="112.835" height="17.9688" y="-133.125" stroke="none"/>
    </g>
    <g fill="rgb(166,166,178)" stroke-miterlimit="1.45" transform="matrix(1,0,0,1,507,143)" stroke-linecap="butt" stroke="rgb(166,166,178)">
      <rect fill="none" width="162.0741" x="112.835" height="17.9688" y="-133.125"/>
    </g>
    <g fill="rgb(238,238,255)" transform="matrix(1,0,0,1,507,143)" stroke="rgb(238,238,255)">
      <rect width="162.4" x="112.835" height="39.1562" y="-115.1562" stroke="none"/>
    </g>
    <g fill="rgb(166,166,178)" stroke-miterlimit="1.45" transform="matrix(1,0,0,1,507,143)" stroke-linecap="butt" stroke="rgb(166,166,178)">
      <rect fill="none" width="162.4" x="112.835" height="39.1562" y="-115.1562"/>
    </g>
    <g font-family="sans-serif" transform="matrix(1,0,0,1,507,143)">
      <text xml:space="preserve" x="118.835" y="-119.9844" onclick="umlload('package-summary.html')" stroke="none">&lt;unnamed package&gt;</text>
    </g>
    <g fill="rgb(187,187,255)" transform="matrix(1,0,0,1,507,143)" stroke="rgb(187,187,255)">
      <rect x="148.835" y="-107.125" clip-path="url(#clipPath13)" width="82.4" height="23.125" stroke="none"/>
    </g>
    <g fill="rgb(130,130,178)" stroke-miterlimit="1.45" transform="matrix(1,0,0,1,507,143)" stroke-linecap="butt" stroke="rgb(130,130,178)">
      <rect fill="none" width="82.4" x="148.835" height="23.125" y="-107.125"/>
    </g>
    <g font-size="13" font-weight="bold" font-family="sans-serif" transform="matrix(1,0,0,1,507,143)">
      <text xml:space="preserve" x="154.035" y="-91.0625" stroke="none">Fragment</text>
    </g>
    <g fill="rgb(238,238,255)" transform="matrix(1,0,0,1,507,143)" stroke="rgb(238,238,255)">
      <rect width="220.4236" x="-8" height="17.9688" y="-26" stroke="none"/>
    </g>
    <g fill="rgb(166,166,178)" stroke-miterlimit="1.45" transform="matrix(1,0,0,1,507,143)" stroke-linecap="butt" stroke="rgb(166,166,178)">
      <rect fill="none" width="220.4236" x="-8" height="17.9688" y="-26"/>
    </g>
    <g fill="rgb(238,238,255)" transform="matrix(1,0,0,1,507,143)" stroke="rgb(238,238,255)">
      <rect width="396.07" x="-8" height="447.9386" y="-8.0312" stroke="none"/>
    </g>
    <g fill="rgb(166,166,178)" stroke-miterlimit="1.45" transform="matrix(1,0,0,1,507,143)" stroke-linecap="butt" stroke="rgb(166,166,178)">
      <rect fill="none" width="396.07" x="-8" height="447.9386" y="-8.0312"/>
    </g>
    <g font-family="sans-serif" transform="matrix(1,0,0,1,507,143)">
      <text xml:space="preserve" x="-2" y="-12.8594" onclick="umlload('package-summary.html')" stroke="none">lamparski.areabase.fragments</text>
    </g>
    <g fill="rgb(187,187,255)" transform="matrix(1,0,0,1,507,143)" stroke="rgb(187,187,255)">
      <rect x="0" y="0" clip-path="url(#clipPath14)" width="380.07" height="26.6406" stroke="none"/>
      <line clip-path="url(#clipPath14)" fill="none" x1="0" x2="380.07" y1="26.6406" y2="26.6406" stroke="black"/>
      <rect x="0" y="27.6406" clip-path="url(#clipPath14)" width="380.07" height="15.9688" stroke="none"/>
      <line clip-path="url(#clipPath14)" fill="none" x1="0" x2="380.07" y1="43.6094" y2="43.6094" stroke="black"/>
      <rect x="0" y="44.6094" clip-path="url(#clipPath14)" width="380.07" height="387.298" stroke="none"/>
    </g>
    <g fill="rgb(130,130,178)" stroke-miterlimit="1.45" transform="matrix(1,0,0,1,507,143)" stroke-linecap="butt" stroke="rgb(130,130,178)">
      <rect fill="none" width="380.07" x="0" height="431.9074" y="0"/>
    </g>
    <g font-size="16" font-weight="bold" font-family="sans-serif" transform="matrix(1,0,0,1,507,143)">
      <text xml:space="preserve" x="106.535" y="18.8594" onclick="umlload('#')" stroke="none">SummaryFragment</text>
    </g>
    <g font-family="sans-serif" transform="matrix(1,0,0,1,507,143)">
      <text xml:space="preserve" x="4" y="38.1719" stroke="none">+</text>
      <text xml:space="preserve" x="19" y="39.7812" onclick="umlload('#SummaryFragment()')" stroke="none">SummaryFragment()</text>
    </g>
    <g font-family="sans-serif" transform="matrix(1,0,0,1,507,143)">
      <text xml:space="preserve" x="4" y="55.1719" stroke="none">+</text>
      <text xml:space="preserve" x="19" y="56.75" onclick="umlload('#allDone(java.lang.Float)')" stroke="none">allDone(Float) : void</text>
    </g>
    <g font-family="sans-serif" transform="matrix(1,0,0,1,507,143)">
      <text xml:space="preserve" x="4" y="71.1719" stroke="none">+</text>
      <text xml:space="preserve" x="19" y="72.7188" onclick="umlload('#cardReady(CardModel)')" stroke="none">cardReady(CardModel) : void</text>
    </g>
    <g font-family="sans-serif" transform="matrix(1,0,0,1,507,143)">
      <text xml:space="preserve" x="4" y="87.1719" stroke="none">+</text>
      <text xml:space="preserve" x="19" y="88.6875" onclick="umlload('#onActivityCreated(Bundle)')" stroke="none">onActivityCreated(Bundle) : void</text>
    </g>
    <g font-family="sans-serif" transform="matrix(1,0,0,1,507,143)">
      <text xml:space="preserve" x="4" y="103.1719" stroke="none">+</text>
      <text xml:space="preserve" x="19" y="104.6562" onclick="umlload('#onAreaBoundaryFound(double[][])')" stroke="none">onAreaBoundaryFound(double[][]) : void</text>
    </g>
    <g font-family="sans-serif" transform="matrix(1,0,0,1,507,143)">
      <text xml:space="preserve" x="4" y="119.1719" stroke="none">+</text>
      <text xml:space="preserve" x="19" y="120.625" onclick="umlload('#onAreaNameFound(java.lang.String)')" stroke="none">onAreaNameFound(String) : void</text>
    </g>
    <g font-family="sans-serif" transform="matrix(1,0,0,1,507,143)">
      <text xml:space="preserve" x="4" y="135.1719" stroke="none">+</text>
      <text xml:space="preserve" x="19" y="136.5938" onclick="umlload('#onCreateView(LayoutInflater, ViewGroup, Bundle)')" stroke="none">onCreateView(LayoutInflater, ViewGroup, Bundle) : View</text>
    </g>
    <g font-family="sans-serif" transform="matrix(1,0,0,1,507,143)">
      <text xml:space="preserve" x="4" y="151.1719" stroke="none">+</text>
      <text xml:space="preserve" x="19" y="152.5625" onclick="umlload('#onError(java.lang.Throwable)')" stroke="none">onError(Throwable) : void</text>
    </g>
    <g font-family="sans-serif" transform="matrix(1,0,0,1,507,143)">
      <text xml:space="preserve" x="4" y="167.1719" stroke="none">+</text>
      <text xml:space="preserve" x="19" y="168.5312" onclick="umlload('#onSaveInstanceState(Bundle)')" stroke="none">onSaveInstanceState(Bundle) : void</text>
    </g>
    <g font-family="sans-serif" transform="matrix(1,0,0,1,507,143)">
      <text xml:space="preserve" x="4" y="183.1719" stroke="none">+</text>
      <text xml:space="preserve" x="19" y="184.5" onclick="umlload('#onStart()')" stroke="none">onStart() : void</text>
    </g>
    <g font-family="sans-serif" transform="matrix(1,0,0,1,507,143)">
      <text xml:space="preserve" x="4" y="199.1719" stroke="none">+</text>
      <text xml:space="preserve" x="19" y="200.4688" onclick="umlload('#onStop()')" stroke="none">onStop() : void</text>
    </g>
    <g font-family="sans-serif" transform="matrix(1,0,0,1,507,143)">
      <text xml:space="preserve" x="4" y="215.1719" stroke="none">+</text>
      <text xml:space="preserve" x="19" y="216.4375" onclick="umlload('#refreshContent()')" stroke="none">refreshContent() : void</text>
    </g>
    <g font-family="sans-serif" transform="matrix(1,0,0,1,507,143)">
      <text xml:space="preserve" x="4" y="231.1719" stroke="none">+</text>
      <text xml:space="preserve" x="19" y="232.4062" onclick="umlload('#searchByText(java.lang.String)')" stroke="none">searchByText(String) : void</text>
    </g>
    <g font-family="sans-serif" transform="matrix(1,0,0,1,507,143)">
      <text xml:space="preserve" x="-501" y="464.1562" onclick="umlload('http://www.yworks.com/')" stroke="none">yWorks UML Doclet</text>
    </g>
    <g stroke-miterlimit="1.45" transform="matrix(1,0,0,1,507,143)" stroke-linecap="butt">
      <path fill="none" d="M190.035 -0.017 L190.035 -69"/>
      <path fill="white" d="M190.035 -84 L184.035 -68 L196.035 -68 Z" stroke="none"/>
      <path fill="none" d="M190.035 -84 L184.035 -68 L196.035 -68 Z"/>
      <path fill="none" stroke-dasharray="6,2" d="M285.0525 -0.0089 L285.0525 -51 L416.203 -51 L416.203 -69"/>
      <path fill="white" stroke-dasharray="6,2" d="M416.203 -84 L410.203 -68 L422.203 -68 Z" stroke="none"/>
      <path fill="none" d="M416.203 -84 L410.203 -68 L422.203 -68 Z"/>
      <path fill="none" stroke-dasharray="6,2" d="M285.0525 -0.0089 L285.0525 -51 L773.1956 -51 L773.1956 -69"/>
      <path fill="white" stroke-dasharray="6,2" d="M773.1956 -84 L767.1956 -68 L779.1956 -68 Z" stroke="none"/>
      <path fill="none" d="M773.1956 -84 L767.1956 -68 L779.1956 -68 Z"/>
      <path fill="none" d="M0.0173 16.3518 L-66 16.3518"/>
      <line stroke-linecap="square" transform="matrix(-1,0,0,-1,-66,16.3518)" fill="none" x1="0" x2="-14" y1="0" y2="-4" stroke-miterlimit="10"/>
      <line stroke-linecap="square" transform="matrix(-1,0,0,-1,-66,16.3518)" fill="none" x1="0" x2="-14" y1="0" y2="4" stroke-miterlimit="10"/>
    </g>
    <g stroke-miterlimit="1.45" transform="matrix(1,0,0,1,507,143)" stroke-linecap="butt">
      <path fill="none" d="M0.0065 108.2662 L-329.7021 108.2662"/>
      <line stroke-linecap="square" transform="matrix(-1,0,0,-1,-329.7021,108.2662)" fill="none" x1="0" x2="-14" y1="0" y2="-4" stroke-miterlimit="10"/>
      <line stroke-linecap="square" transform="matrix(-1,0,0,-1,-329.7021,108.2662)" fill="none" x1="0" x2="-14" y1="0" y2="4" stroke-miterlimit="10"/>
    </g>
    <g stroke-miterlimit="1.45" transform="matrix(1,0,0,1,507,143)" stroke-linecap="butt">
      <path fill="none" d="M0.0184 146.1805 L-66 146.1805"/>
      <line stroke-linecap="square" transform="matrix(-1,0,0,-1,-66,146.1805)" fill="none" x1="0" x2="-14" y1="0" y2="-4" stroke-miterlimit="10"/>
      <line stroke-linecap="square" transform="matrix(-1,0,0,-1,-66,146.1805)" fill="none" x1="0" x2="-14" y1="0" y2="4" stroke-miterlimit="10"/>
    </g>
    <g stroke-miterlimit="1.45" transform="matrix(1,0,0,1,507,143)" stroke-linecap="butt">
      <path fill="none" d="M0.0227 238.0949 L-87.81 238.0949"/>
      <line stroke-linecap="square" transform="matrix(-1,0,0,-1,-87.81,238.0949)" fill="none" x1="0" x2="-14" y1="0" y2="-4" stroke-miterlimit="10"/>
      <line stroke-linecap="square" transform="matrix(-1,0,0,-1,-87.81,238.0949)" fill="none" x1="0" x2="-14" y1="0" y2="4" stroke-miterlimit="10"/>
    </g>
    <g stroke-miterlimit="1.45" transform="matrix(1,0,0,1,507,143)" stroke-linecap="butt">
      <path fill="none" d="M-0.0116 325.2199 L-122.83 325.2199"/>
      <line stroke-linecap="square" transform="matrix(-1,0,0,-1,-122.83,325.2199)" fill="none" x1="0" x2="-14" y1="0" y2="-4" stroke-miterlimit="10"/>
      <line stroke-linecap="square" transform="matrix(-1,0,0,-1,-122.83,325.2199)" fill="none" x1="0" x2="-14" y1="0" y2="4" stroke-miterlimit="10"/>
    </g>
    <g stroke-miterlimit="1.45" transform="matrix(1,0,0,1,507,143)" stroke-linecap="butt">
      <path fill="none" d="M0.0212 412.3449 L-127.98 412.3449"/>
      <line stroke-linecap="square" transform="matrix(-1,0,0,-1,-127.98,412.3449)" fill="none" x1="0" x2="-14" y1="0" y2="-4" stroke-miterlimit="10"/>
      <line stroke-linecap="square" transform="matrix(-1,0,0,-1,-127.98,412.3449)" fill="none" x1="0" x2="-14" y1="0" y2="4" stroke-miterlimit="10"/>
    </g>
    <g stroke-dasharray="6,2" stroke-miterlimit="1.45" transform="matrix(1,0,0,1,507,143)" stroke-linecap="butt">
      <path fill="none" d="M380.0491 11.5625 L446.07 11.5625"/>
      <line stroke-linecap="square" transform="matrix(1,0,0,1,446.07,11.5625)" fill="none" x1="0" x2="-14" y1="0" y2="-4" stroke-dasharray="none" stroke-miterlimit="10"/>
      <line stroke-linecap="square" transform="matrix(1,0,0,1,446.07,11.5625)" fill="none" x1="0" x2="-14" y1="0" y2="4" stroke-dasharray="none" stroke-miterlimit="10"/>
    </g>
    <g stroke-dasharray="6,2" stroke-miterlimit="1.45" transform="matrix(1,0,0,1,507,143)" stroke-linecap="butt">
      <path fill="none" d="M380.0858 44.6875 L446.07 44.6875"/>
      <line stroke-linecap="square" transform="matrix(1,0,0,1,446.07,44.6875)" fill="none" x1="0" x2="-14" y1="0" y2="-4" stroke-dasharray="none" stroke-miterlimit="10"/>
      <line stroke-linecap="square" transform="matrix(1,0,0,1,446.07,44.6875)" fill="none" x1="0" x2="-14" y1="0" y2="4" stroke-dasharray="none" stroke-miterlimit="10"/>
    </g>
    <g stroke-dasharray="6,2" stroke-miterlimit="1.45" transform="matrix(1,0,0,1,507,143)" stroke-linecap="butt">
      <path fill="none" d="M380.0537 77.8125 L446.07 77.8125"/>
      <line stroke-linecap="square" transform="matrix(1,0,0,1,446.07,77.8125)" fill="none" x1="0" x2="-14" y1="0" y2="-4" stroke-dasharray="none" stroke-miterlimit="10"/>
      <line stroke-linecap="square" transform="matrix(1,0,0,1,446.07,77.8125)" fill="none" x1="0" x2="-14" y1="0" y2="4" stroke-dasharray="none" stroke-miterlimit="10"/>
    </g>
  </g>
</svg>
