<?xml version="1.0" encoding="UTF-8"?>
<svg xmlns="http://www.w3.org/2000/svg" xmlns:xlink="http://www.w3.org/1999/xlink" fill-opacity="1" color-rendering="auto" color-interpolation="auto" stroke="black" text-rendering="auto" stroke-linecap="square" width="823" stroke-miterlimit="10" stroke-opacity="1" shape-rendering="auto" fill="black" stroke-dasharray="none" font-weight="normal" stroke-width="1" height="1446" font-family="'Dialog'" font-style="normal" stroke-linejoin="miter" font-size="12" stroke-dashoffset="0" image-rendering="auto">
  <!--Generated by ySVG-->
  <defs id="genericDefs"/>
  <g>
    <defs id="defs1">
      <clipPath clipPathUnits="userSpaceOnUse" id="clipPath1">
        <path d="M0 0 L823 0 L823 1446 L0 1446 L0 0 Z"/>
      </clipPath>
      <clipPath clipPathUnits="userSpaceOnUse" id="clipPath2">
        <path d="M543.92 0 L601.6 0 L601.6 23.125 L543.92 23.125 L543.92 0 Z"/>
      </clipPath>
      <clipPath clipPathUnits="userSpaceOnUse" id="clipPath3">
        <path d="M-66 103.4768 C-66 112.5077 -95.6733 119.8287 -132.2771 119.8287 C-168.881 119.8287 -198.5542 112.5077 -198.5542 103.4768 C-198.5542 94.446 -168.881 87.125 -132.2771 87.125 C-95.6733 87.125 -66 94.446 -66 103.4768 Z"/>
      </clipPath>
      <clipPath clipPathUnits="userSpaceOnUse" id="clipPath4">
        <path d="M-106.7859 146.1805 C-106.7859 155.2114 -127.329 162.5324 -152.6701 162.5324 C-178.0112 162.5324 -198.5542 155.2114 -198.5542 146.1805 C-198.5542 137.1497 -178.0112 129.8287 -152.6701 129.8287 C-127.329 129.8287 -106.7859 137.1497 -106.7859 146.1805 Z"/>
      </clipPath>
      <clipPath clipPathUnits="userSpaceOnUse" id="clipPath5">
        <path d="M-130.04 0 L-76.48 0 L-76.48 23.125 L-130.04 23.125 L-130.04 0 Z"/>
      </clipPath>
      <clipPath clipPathUnits="userSpaceOnUse" id="clipPath6">
        <path d="M447.8109 -100.3518 C447.8109 -91.321 417.8115 -84 380.8055 -84 C343.7993 -84 313.8 -91.321 313.8 -100.3518 C313.8 -109.3827 343.7993 -116.7037 380.8055 -116.7037 C417.8115 -116.7037 447.8109 -109.3827 447.8109 -100.3518 Z"/>
      </clipPath>
      <clipPath clipPathUnits="userSpaceOnUse" id="clipPath7">
        <path d="M210.12 -107.125 L267.8 -107.125 L267.8 -84 L210.12 -84 L210.12 -107.125 Z"/>
      </clipPath>
      <clipPath clipPathUnits="userSpaceOnUse" id="clipPath8">
        <path d="M0 0 L477.92 0 L477.92 1259.2344 L0 1259.2344 L0 0 Z"/>
      </clipPath>
      <script type="text/ecmascript"><![CDATA[
function umlload(newLocation)
{
if (newLocation.charAt(0) != '#') {
if (newLocation.indexOf("://") > -1) {
window.parent.location.href = newLocation;
} else {
var tmp = window.parent.location.href;
tmp = tmp.substring(0, tmp.lastIndexOf("/") + 1);
window.parent.location.href = tmp.concat(newLocation);
}
} else {
window.parent.location.hash = newLocation;
}
}
]]></script>
    </defs>
    <g fill="rgb(238,238,255)" transform="matrix(1,0,0,1,207,143)" stroke="rgb(238,238,255)">
      <rect width="76.1412" x="535.92" height="17.9688" y="-26" stroke="none"/>
    </g>
    <g fill="rgb(166,166,178)" stroke-miterlimit="1.45" transform="matrix(1,0,0,1,207,143)" stroke-linecap="butt" stroke="rgb(166,166,178)">
      <rect fill="none" width="76.1412" x="535.92" height="17.9688" y="-26"/>
    </g>
    <g fill="rgb(238,238,255)" transform="matrix(1,0,0,1,207,143)" stroke="rgb(238,238,255)">
      <rect width="79.68" x="535.92" height="39.1562" y="-8.0312" stroke="none"/>
    </g>
    <g fill="rgb(166,166,178)" stroke-miterlimit="1.45" transform="matrix(1,0,0,1,207,143)" stroke-linecap="butt" stroke="rgb(166,166,178)">
      <rect fill="none" width="79.68" x="535.92" height="39.1562" y="-8.0312"/>
    </g>
    <g font-family="sans-serif" transform="matrix(1,0,0,1,207,143)">
      <text xml:space="preserve" x="541.92" y="-12.8594" stroke="none">java.lang</text>
    </g>
    <g fill="rgb(187,187,255)" transform="matrix(1,0,0,1,207,143)" stroke="rgb(187,187,255)">
      <rect x="543.92" y="0" clip-path="url(#clipPath2)" width="57.68" height="23.125" stroke="none"/>
    </g>
    <g fill="rgb(130,130,178)" stroke-miterlimit="1.45" transform="matrix(1,0,0,1,207,143)" stroke-linecap="butt" stroke="rgb(130,130,178)">
      <rect fill="none" width="57.68" x="543.92" height="23.125" y="0"/>
    </g>
    <g font-size="13" font-weight="bold" font-family="sans-serif" transform="matrix(1,0,0,1,207,143)">
      <text xml:space="preserve" x="548.76" y="16.0625" stroke="none">Object</text>
    </g>
    <g fill="rgb(238,238,255)" transform="matrix(1,0,0,1,207,143)" stroke="rgb(238,238,255)">
      <rect width="67.654" x="-206.5542" height="17.9688" y="61.125" stroke="none"/>
    </g>
    <g fill="rgb(166,166,178)" stroke-miterlimit="1.45" transform="matrix(1,0,0,1,207,143)" stroke-linecap="butt" stroke="rgb(166,166,178)">
      <rect fill="none" width="67.654" x="-206.5542" height="17.9688" y="61.125"/>
    </g>
    <g fill="rgb(238,238,255)" transform="matrix(1,0,0,1,207,143)" stroke="rgb(238,238,255)">
      <rect width="148.5542" x="-206.5542" height="91.4386" y="79.0938" stroke="none"/>
    </g>
    <g fill="rgb(166,166,178)" stroke-miterlimit="1.45" transform="matrix(1,0,0,1,207,143)" stroke-linecap="butt" stroke="rgb(166,166,178)">
      <rect fill="none" width="148.5542" x="-206.5542" height="91.4386" y="79.0938"/>
    </g>
    <g font-family="sans-serif" transform="matrix(1,0,0,1,207,143)">
      <text xml:space="preserve" x="-200.5542" y="74.2656" stroke="none">java.util</text>
    </g>
    <g fill="rgb(221,221,255)" transform="matrix(1,0,0,1,207,143)" stroke="rgb(221,221,255)">
      <rect x="-198.5542" y="87.125" clip-path="url(#clipPath3)" width="132.5542" height="32.7037" stroke="none"/>
    </g>
    <g fill="rgb(154,154,178)" stroke-miterlimit="1.45" transform="matrix(1,0,0,1,207,143)" stroke-linecap="butt" stroke="rgb(154,154,178)">
      <ellipse rx="66.2771" fill="none" ry="16.3518" cx="-132.2771" cy="103.4768"/>
    </g>
    <g font-style="italic" font-size="13" font-weight="bold" font-family="sans-serif" transform="matrix(1,0,0,1,207,143)">
      <text xml:space="preserve" x="-173.7771" y="107.9768" stroke="none">Map&lt;K, V&gt;</text>
    </g>
    <g fill="rgb(221,221,255)" transform="matrix(1,0,0,1,207,143)" stroke="rgb(221,221,255)">
      <rect x="-198.5542" y="129.8287" clip-path="url(#clipPath4)" width="91.7683" height="32.7037" stroke="none"/>
    </g>
    <g fill="rgb(154,154,178)" stroke-miterlimit="1.45" transform="matrix(1,0,0,1,207,143)" stroke-linecap="butt" stroke="rgb(154,154,178)">
      <ellipse rx="45.8842" fill="none" ry="16.3518" cx="-152.6701" cy="146.1805"/>
    </g>
    <g font-style="italic" font-size="13" font-weight="bold" font-family="sans-serif" transform="matrix(1,0,0,1,207,143)">
      <text xml:space="preserve" x="-180.1701" y="150.6805" stroke="none">Set&lt;E&gt;</text>
    </g>
    <g fill="rgb(238,238,255)" transform="matrix(1,0,0,1,207,143)" stroke="rgb(238,238,255)">
      <rect width="76.1412" x="-138.04" height="17.9688" y="-26" stroke="none"/>
    </g>
    <g fill="rgb(166,166,178)" stroke-miterlimit="1.45" transform="matrix(1,0,0,1,207,143)" stroke-linecap="butt" stroke="rgb(166,166,178)">
      <rect fill="none" width="76.1412" x="-138.04" height="17.9688" y="-26"/>
    </g>
    <g fill="rgb(238,238,255)" transform="matrix(1,0,0,1,207,143)" stroke="rgb(238,238,255)">
      <rect width="79.56" x="-138.04" height="39.1562" y="-8.0312" stroke="none"/>
    </g>
    <g fill="rgb(166,166,178)" stroke-miterlimit="1.45" transform="matrix(1,0,0,1,207,143)" stroke-linecap="butt" stroke="rgb(166,166,178)">
      <rect fill="none" width="79.56" x="-138.04" height="39.1562" y="-8.0312"/>
    </g>
    <g font-family="sans-serif" transform="matrix(1,0,0,1,207,143)">
      <text xml:space="preserve" x="-132.04" y="-12.8594" stroke="none">java.lang</text>
    </g>
    <g fill="rgb(187,187,255)" transform="matrix(1,0,0,1,207,143)" stroke="rgb(187,187,255)">
      <rect x="-130.04" y="0" clip-path="url(#clipPath5)" width="53.56" height="23.125" stroke="none"/>
    </g>
    <g fill="rgb(130,130,178)" stroke-miterlimit="1.45" transform="matrix(1,0,0,1,207,143)" stroke-linecap="butt" stroke="rgb(130,130,178)">
      <rect fill="none" width="53.56" x="-130.04" height="23.125" y="0"/>
    </g>
    <g font-size="13" font-weight="bold" font-family="sans-serif" transform="matrix(1,0,0,1,207,143)">
      <text xml:space="preserve" x="-125.26" y="16.0625" stroke="none">String</text>
    </g>
    <g fill="rgb(238,238,255)" transform="matrix(1,0,0,1,207,143)" stroke="rgb(238,238,255)">
      <rect width="59.1668" x="305.8" height="17.9688" y="-142.7037" stroke="none"/>
    </g>
    <g fill="rgb(166,166,178)" stroke-miterlimit="1.45" transform="matrix(1,0,0,1,207,143)" stroke-linecap="butt" stroke="rgb(166,166,178)">
      <rect fill="none" width="59.1668" x="305.8" height="17.9688" y="-142.7037"/>
    </g>
    <g fill="rgb(238,238,255)" transform="matrix(1,0,0,1,207,143)" stroke="rgb(238,238,255)">
      <rect width="150.0109" x="305.8" height="48.7349" y="-124.7349" stroke="none"/>
    </g>
    <g fill="rgb(166,166,178)" stroke-miterlimit="1.45" transform="matrix(1,0,0,1,207,143)" stroke-linecap="butt" stroke="rgb(166,166,178)">
      <rect fill="none" width="150.0109" x="305.8" height="48.7349" y="-124.7349"/>
    </g>
    <g font-family="sans-serif" transform="matrix(1,0,0,1,207,143)">
      <text xml:space="preserve" x="311.8" y="-129.5631" stroke="none">java.io</text>
    </g>
    <g fill="rgb(221,221,255)" transform="matrix(1,0,0,1,207,143)" stroke="rgb(221,221,255)">
      <rect x="313.8" y="-116.7037" clip-path="url(#clipPath6)" width="134.0109" height="32.7037" stroke="none"/>
    </g>
    <g fill="rgb(154,154,178)" stroke-miterlimit="1.45" transform="matrix(1,0,0,1,207,143)" stroke-linecap="butt" stroke="rgb(154,154,178)">
      <ellipse rx="67.0054" fill="none" ry="16.3518" cx="380.8054" cy="-100.3518"/>
    </g>
    <g font-style="italic" font-size="13" font-weight="bold" font-family="sans-serif" transform="matrix(1,0,0,1,207,143)">
      <text xml:space="preserve" x="338.8055" y="-95.8518" stroke="none">Serializable</text>
    </g>
    <g fill="rgb(238,238,255)" transform="matrix(1,0,0,1,207,143)" stroke="rgb(238,238,255)">
      <rect width="76.1412" x="202.12" height="17.9688" y="-133.125" stroke="none"/>
    </g>
    <g fill="rgb(166,166,178)" stroke-miterlimit="1.45" transform="matrix(1,0,0,1,207,143)" stroke-linecap="butt" stroke="rgb(166,166,178)">
      <rect fill="none" width="76.1412" x="202.12" height="17.9688" y="-133.125"/>
    </g>
    <g fill="rgb(238,238,255)" transform="matrix(1,0,0,1,207,143)" stroke="rgb(238,238,255)">
      <rect width="76.1412" x="202.12" height="39.1562" y="-115.1562" stroke="none"/>
    </g>
    <g fill="rgb(166,166,178)" stroke-miterlimit="1.45" transform="matrix(1,0,0,1,207,143)" stroke-linecap="butt" stroke="rgb(166,166,178)">
      <rect fill="none" width="76.1412" x="202.12" height="39.1562" y="-115.1562"/>
    </g>
    <g font-family="sans-serif" transform="matrix(1,0,0,1,207,143)">
      <text xml:space="preserve" x="208.12" y="-119.9844" stroke="none">java.lang</text>
    </g>
    <g fill="rgb(187,187,255)" transform="matrix(1,0,0,1,207,143)" stroke="rgb(187,187,255)">
      <rect x="210.12" y="-107.125" clip-path="url(#clipPath7)" width="57.68" height="23.125" stroke="none"/>
    </g>
    <g fill="rgb(130,130,178)" stroke-miterlimit="1.45" transform="matrix(1,0,0,1,207,143)" stroke-linecap="butt" stroke="rgb(130,130,178)">
      <rect fill="none" width="57.68" x="210.12" height="23.125" y="-107.125"/>
    </g>
    <g font-size="13" font-weight="bold" font-family="sans-serif" transform="matrix(1,0,0,1,207,143)">
      <text xml:space="preserve" x="214.96" y="-91.0625" stroke="none">Object</text>
    </g>
    <g fill="rgb(238,238,255)" transform="matrix(1,0,0,1,207,143)" stroke="rgb(238,238,255)">
      <rect width="118.5772" x="-8" height="17.9688" y="-26" stroke="none"/>
    </g>
    <g fill="rgb(166,166,178)" stroke-miterlimit="1.45" transform="matrix(1,0,0,1,207,143)" stroke-linecap="butt" stroke="rgb(166,166,178)">
      <rect fill="none" width="118.5772" x="-8" height="17.9688" y="-26"/>
    </g>
    <g fill="rgb(238,238,255)" transform="matrix(1,0,0,1,207,143)" stroke="rgb(238,238,255)">
      <rect width="493.92" x="-8" height="1275.2656" y="-8.0312" stroke="none"/>
    </g>
    <g fill="rgb(166,166,178)" stroke-miterlimit="1.45" transform="matrix(1,0,0,1,207,143)" stroke-linecap="butt" stroke="rgb(166,166,178)">
      <rect fill="none" width="493.92" x="-8" height="1275.2656" y="-8.0312"/>
    </g>
    <g font-family="sans-serif" transform="matrix(1,0,0,1,207,143)">
      <text xml:space="preserve" x="-2" y="-12.8594" onclick="umlload('package-summary.html')" stroke="none">nde2.pull.types</text>
    </g>
    <g fill="rgb(187,187,255)" transform="matrix(1,0,0,1,207,143)" stroke="rgb(187,187,255)">
      <rect x="0" y="0" clip-path="url(#clipPath8)" width="477.92" height="26.6406" stroke="none"/>
      <line clip-path="url(#clipPath8)" fill="none" x1="0" x2="477.92" y1="26.6406" y2="26.6406" stroke="black"/>
      <rect x="0" y="27.6406" clip-path="url(#clipPath8)" width="477.92" height="942.1562" stroke="none"/>
      <line clip-path="url(#clipPath8)" fill="none" x1="0" x2="477.92" y1="969.7969" y2="969.7969" stroke="black"/>
      <rect x="0" y="970.7969" clip-path="url(#clipPath8)" width="477.92" height="47.9062" stroke="none"/>
      <line clip-path="url(#clipPath8)" fill="none" x1="0" x2="477.92" y1="1018.7031" y2="1018.7031" stroke="black"/>
      <rect x="0" y="1019.7031" clip-path="url(#clipPath8)" width="477.92" height="239.5312" stroke="none"/>
    </g>
    <g fill="rgb(130,130,178)" stroke-miterlimit="1.45" transform="matrix(1,0,0,1,207,143)" stroke-linecap="butt" stroke="rgb(130,130,178)">
      <rect fill="none" width="477.92" x="0" height="1259.2344" y="0"/>
    </g>
    <g font-size="16" font-weight="bold" font-family="sans-serif" transform="matrix(1,0,0,1,207,143)">
      <text xml:space="preserve" x="218.46" y="18.8594" onclick="umlload('#')" stroke="none">Area</text>
    </g>
    <g font-family="sans-serif" transform="matrix(1,0,0,1,207,143)">
      <text xml:space="preserve" x="4" y="38.1719" stroke="none">+</text>
      <text xml:space="preserve" x="19" y="39.7812" onclick="umlload('#HIERARCHY_1998_ADMINISTRATIVE')" stroke="none">HIERARCHY_1998_ADMINISTRATIVE : int</text>
      <line y2="42.6094" fill="none" x1="19" x2="258" y1="42.6094"/>
    </g>
    <g font-family="sans-serif" transform="matrix(1,0,0,1,207,143)">
      <text xml:space="preserve" x="4" y="54.1719" stroke="none">+</text>
      <text xml:space="preserve" x="19" y="55.75" onclick="umlload('#HIERARCHY_2001_STATISTICAL_GEOGRAPHY')" stroke="none">HIERARCHY_2001_STATISTICAL_GEOGRAPHY : int</text>
      <line y2="58.5781" fill="none" x1="19" x2="313" y1="58.5781"/>
    </g>
    <g font-family="sans-serif" transform="matrix(1,0,0,1,207,143)">
      <text xml:space="preserve" x="4" y="70.1719" stroke="none">+</text>
      <text xml:space="preserve" x="19" y="71.7188" onclick="umlload('#HIERARCHY_2003_ADMINISTRATIVE')" stroke="none">HIERARCHY_2003_ADMINISTRATIVE : int</text>
      <line y2="74.5469" fill="none" x1="19" x2="258" y1="74.5469"/>
    </g>
    <g font-family="sans-serif" transform="matrix(1,0,0,1,207,143)">
      <text xml:space="preserve" x="4" y="86.1719" stroke="none">+</text>
      <text xml:space="preserve" x="19" y="87.6875" onclick="umlload('#HIERARCHY_2003_EDUCATION')" stroke="none">HIERARCHY_2003_EDUCATION : int</text>
      <line y2="90.5156" fill="none" x1="19" x2="229" y1="90.5156"/>
    </g>
    <g font-family="sans-serif" transform="matrix(1,0,0,1,207,143)">
      <text xml:space="preserve" x="4" y="102.1719" stroke="none">+</text>
      <text xml:space="preserve" x="19" y="103.6562" onclick="umlload('#HIERARCHY_2003_ELECTORAL')" stroke="none">HIERARCHY_2003_ELECTORAL : int</text>
      <line y2="106.4844" fill="none" x1="19" x2="227" y1="106.4844"/>
    </g>
    <g font-family="sans-serif" transform="matrix(1,0,0,1,207,143)">
      <text xml:space="preserve" x="4" y="118.1719" stroke="none">+</text>
      <text xml:space="preserve" x="19" y="119.625" onclick="umlload('#HIERARCHY_2003_HEALTH')" stroke="none">HIERARCHY_2003_HEALTH : int</text>
      <line y2="122.4531" fill="none" x1="19" x2="206" y1="122.4531"/>
    </g>
    <g font-family="sans-serif" transform="matrix(1,0,0,1,207,143)">
      <text xml:space="preserve" x="4" y="134.1719" stroke="none">+</text>
      <text xml:space="preserve" x="19" y="135.5938" onclick="umlload('#HIERARCHY_2003_PARISH')" stroke="none">HIERARCHY_2003_PARISH : int</text>
      <line y2="138.4219" fill="none" x1="19" x2="203" y1="138.4219"/>
    </g>
    <g font-family="sans-serif" transform="matrix(1,0,0,1,207,143)">
      <text xml:space="preserve" x="4" y="150.1719" stroke="none">+</text>
      <text xml:space="preserve" x="19" y="151.5625" onclick="umlload('#HIERARCHY_2004_ADMINISTRATIVE')" stroke="none">HIERARCHY_2004_ADMINISTRATIVE : int</text>
      <line y2="154.3906" fill="none" x1="19" x2="258" y1="154.3906"/>
    </g>
    <g font-family="sans-serif" transform="matrix(1,0,0,1,207,143)">
      <text xml:space="preserve" x="4" y="166.1719" stroke="none">+</text>
      <text xml:space="preserve" x="19" y="167.5312" onclick="umlload('#HIERARCHY_2005_ADMINISTRATIVE')" stroke="none">HIERARCHY_2005_ADMINISTRATIVE : int</text>
      <line y2="170.3594" fill="none" x1="19" x2="258" y1="170.3594"/>
    </g>
    <g font-family="sans-serif" transform="matrix(1,0,0,1,207,143)">
      <text xml:space="preserve" x="4" y="182.1719" stroke="none">+</text>
      <text xml:space="preserve" x="19" y="183.5" onclick="umlload('#HIERARCHY_2006_ADMINISTRATIVE')" stroke="none">HIERARCHY_2006_ADMINISTRATIVE : int</text>
      <line y2="186.3281" fill="none" x1="19" x2="258" y1="186.3281"/>
    </g>
    <g font-family="sans-serif" transform="matrix(1,0,0,1,207,143)">
      <text xml:space="preserve" x="4" y="198.1719" stroke="none">+</text>
      <text xml:space="preserve" x="19" y="199.4688" onclick="umlload('#HIERARCHY_2006_HEALTH')" stroke="none">HIERARCHY_2006_HEALTH : int</text>
      <line y2="202.2969" fill="none" x1="19" x2="206" y1="202.2969"/>
    </g>
    <g font-family="sans-serif" transform="matrix(1,0,0,1,207,143)">
      <text xml:space="preserve" x="4" y="214.1719" stroke="none">+</text>
      <text xml:space="preserve" x="19" y="215.4375" onclick="umlload('#HIERARCHY_2007_ADMINISTRATIVE')" stroke="none">HIERARCHY_2007_ADMINISTRATIVE : int</text>
      <line y2="218.2656" fill="none" x1="19" x2="258" y1="218.2656"/>
    </g>
    <g font-family="sans-serif" transform="matrix(1,0,0,1,207,143)">
      <text xml:space="preserve" x="4" y="230.1719" stroke="none">+</text>
      <text xml:space="preserve" x="19" y="231.4062" onclick="umlload('#HIERARCHY_2008_ADMINISTRATIVE')" stroke="none">HIERARCHY_2008_ADMINISTRATIVE : int</text>
      <line y2="234.2344" fill="none" x1="19" x2="258" y1="234.2344"/>
    </g>
    <g font-family="sans-serif" transform="matrix(1,0,0,1,207,143)">
      <text xml:space="preserve" x="4" y="246.1719" stroke="none">+</text>
      <text xml:space="preserve" x="19" y="247.375" onclick="umlload('#HIERARCHY_2009_ADMINISTRATIVE')" stroke="none">HIERARCHY_2009_ADMINISTRATIVE : int</text>
      <line y2="250.2031" fill="none" x1="19" x2="258" y1="250.2031"/>
    </g>
    <g font-family="sans-serif" transform="matrix(1,0,0,1,207,143)">
      <text xml:space="preserve" x="4" y="262.1719" stroke="none">+</text>
      <text xml:space="preserve" x="19" y="263.3438" onclick="umlload('#HIERARCHY_2010_ADMINISTRATIVE')" stroke="none">HIERARCHY_2010_ADMINISTRATIVE : int</text>
      <line y2="266.1719" fill="none" x1="19" x2="258" y1="266.1719"/>
    </g>
    <g font-family="sans-serif" transform="matrix(1,0,0,1,207,143)">
      <text xml:space="preserve" x="4" y="278.1719" stroke="none">+</text>
      <text xml:space="preserve" x="19" y="279.3125" onclick="umlload('#HIERARCHY_2010_WESTMINSTER_PARLIAMENTARY_CONSTITUENCIES')" stroke="none">HIERARCHY_2010_WESTMINSTER_PARLIAMENTARY_CONSTITUENCIES : int</text>
      <line y2="282.1406" fill="none" x1="19" x2="460" y1="282.1406"/>
    </g>
    <g font-family="sans-serif" transform="matrix(1,0,0,1,207,143)">
      <text xml:space="preserve" x="4" y="294.1719" stroke="none">+</text>
      <text xml:space="preserve" x="19" y="295.2812" onclick="umlload('#HIERARCHY_2011_ADMINISTRATIVE')" stroke="none">HIERARCHY_2011_ADMINISTRATIVE : int</text>
      <line y2="298.1094" fill="none" x1="19" x2="258" y1="298.1094"/>
    </g>
    <g font-family="sans-serif" transform="matrix(1,0,0,1,207,143)">
      <text xml:space="preserve" x="4" y="310.1719" stroke="none">+</text>
      <text xml:space="preserve" x="19" y="311.25" onclick="umlload('#HIERARCHY_2011_PARISH')" stroke="none">HIERARCHY_2011_PARISH : int</text>
      <line y2="314.0781" fill="none" x1="19" x2="203" y1="314.0781"/>
    </g>
    <g font-family="sans-serif" transform="matrix(1,0,0,1,207,143)">
      <text xml:space="preserve" x="4" y="326.1719" stroke="none">+</text>
      <text xml:space="preserve" x="19" y="327.2188" onclick="umlload('#HIERARCHY_2011_STATISTICAL_GEOGRAPHY')" stroke="none">HIERARCHY_2011_STATISTICAL_GEOGRAPHY : int</text>
      <line y2="330.0469" fill="none" x1="19" x2="313" y1="330.0469"/>
    </g>
    <g font-family="sans-serif" transform="matrix(1,0,0,1,207,143)">
      <text xml:space="preserve" x="4" y="342.1719" stroke="none">+</text>
      <text xml:space="preserve" x="19" y="343.1875" onclick="umlload('#HIERARCHY_2011_WESTMINSTER_PARLIAMENTARY_CONSTITUENCIES')" stroke="none">HIERARCHY_2011_WESTMINSTER_PARLIAMENTARY_CONSTITUENCIES : int</text>
      <line y2="346.0156" fill="none" x1="19" x2="460" y1="346.0156"/>
    </g>
    <g font-family="sans-serif" transform="matrix(1,0,0,1,207,143)">
      <text xml:space="preserve" x="4" y="358.1719" stroke="none">+</text>
      <text xml:space="preserve" x="19" y="359.1562" onclick="umlload('#HIERARCHY_NEW_DEAL_FOR_COMMUNITIES_BEST_FIT')" stroke="none">HIERARCHY_NEW_DEAL_FOR_COMMUNITIES_BEST_FIT : int</text>
      <line y2="361.9844" fill="none" x1="19" x2="366" y1="361.9844"/>
    </g>
    <g font-family="sans-serif" transform="matrix(1,0,0,1,207,143)">
      <text xml:space="preserve" x="4" y="373.1719" stroke="none">+</text>
      <text xml:space="preserve" x="19" y="375.125" onclick="umlload('#HIERARCHY_NULL')" stroke="none">HIERARCHY_NULL : int</text>
      <line y2="377.9531" fill="none" x1="19" x2="151" y1="377.9531"/>
    </g>
    <g font-family="sans-serif" transform="matrix(1,0,0,1,207,143)">
      <text xml:space="preserve" x="4" y="389.1719" stroke="none">+</text>
      <text xml:space="preserve" x="19" y="391.0938" onclick="umlload('#HIERARCHY_PROVISIONAL_PARLIAMENTARY_CONSTITUENCIES_2007')" stroke="none">HIERARCHY_PROVISIONAL_PARLIAMENTARY_CONSTITUENCIES_2007 : int</text>
      <line y2="393.9219" fill="none" x1="19" x2="452" y1="393.9219"/>
    </g>
    <g font-family="sans-serif" transform="matrix(1,0,0,1,207,143)">
      <text xml:space="preserve" x="4" y="405.1719" stroke="none">+</text>
      <text xml:space="preserve" x="19" y="407.0625" onclick="umlload('#LEVELTYPE_COMMUNITY')" stroke="none">LEVELTYPE_COMMUNITY : int</text>
      <line y2="409.8906" fill="none" x1="19" x2="191" y1="409.8906"/>
    </g>
    <g font-family="sans-serif" transform="matrix(1,0,0,1,207,143)">
      <text xml:space="preserve" x="4" y="421.1719" stroke="none">+</text>
      <text xml:space="preserve" x="19" y="423.0312" onclick="umlload('#LEVELTYPE_COUNTRY')" stroke="none">LEVELTYPE_COUNTRY : int</text>
      <line y2="425.8594" fill="none" x1="19" x2="176" y1="425.8594"/>
    </g>
    <g font-family="sans-serif" transform="matrix(1,0,0,1,207,143)">
      <text xml:space="preserve" x="4" y="437.1719" stroke="none">+</text>
      <text xml:space="preserve" x="19" y="439" onclick="umlload('#LEVELTYPE_COUNTY')" stroke="none">LEVELTYPE_COUNTY : int</text>
      <line y2="441.8281" fill="none" x1="19" x2="168" y1="441.8281"/>
    </g>
    <g font-family="sans-serif" transform="matrix(1,0,0,1,207,143)">
      <text xml:space="preserve" x="4" y="453.1719" stroke="none">+</text>
      <text xml:space="preserve" x="19" y="454.9688" onclick="umlload('#LEVELTYPE_EDUCATION_AREA')" stroke="none">LEVELTYPE_EDUCATION_AREA : int</text>
      <line y2="457.7969" fill="none" x1="19" x2="227" y1="457.7969"/>
    </g>
    <g font-family="sans-serif" transform="matrix(1,0,0,1,207,143)">
      <text xml:space="preserve" x="4" y="469.1719" stroke="none">+</text>
      <text xml:space="preserve" x="19" y="470.9375" onclick="umlload('#LEVELTYPE_ENGLAND_WALES')" stroke="none">LEVELTYPE_ENGLAND_WALES : int</text>
      <line y2="473.7656" fill="none" x1="19" x2="224" y1="473.7656"/>
    </g>
    <g font-family="sans-serif" transform="matrix(1,0,0,1,207,143)">
      <text xml:space="preserve" x="4" y="485.1719" stroke="none">+</text>
      <text xml:space="preserve" x="19" y="486.9062" onclick="umlload('#LEVELTYPE_FLA')" stroke="none">LEVELTYPE_FLA : int</text>
      <line y2="489.7344" fill="none" x1="19" x2="140" y1="489.7344"/>
    </g>
    <g font-family="sans-serif" transform="matrix(1,0,0,1,207,143)">
      <text xml:space="preserve" x="4" y="501.1719" stroke="none">+</text>
      <text xml:space="preserve" x="19" y="502.875" onclick="umlload('#LEVELTYPE_FORMER_COUNTY')" stroke="none">LEVELTYPE_FORMER_COUNTY : int</text>
      <line y2="505.7031" fill="none" x1="19" x2="224" y1="505.7031"/>
    </g>
    <g font-family="sans-serif" transform="matrix(1,0,0,1,207,143)">
      <text xml:space="preserve" x="4" y="517.1719" stroke="none">+</text>
      <text xml:space="preserve" x="19" y="518.8438" onclick="umlload('#LEVELTYPE_GAZ')" stroke="none">LEVELTYPE_GAZ : int</text>
      <line y2="521.6719" fill="none" x1="19" x2="145" y1="521.6719"/>
    </g>
    <g font-family="sans-serif" transform="matrix(1,0,0,1,207,143)">
      <text xml:space="preserve" x="4" y="533.1719" stroke="none">+</text>
      <text xml:space="preserve" x="19" y="534.8125" onclick="umlload('#LEVELTYPE_GAZ2')" stroke="none">LEVELTYPE_GAZ2 : int</text>
      <line y2="537.6406" fill="none" x1="19" x2="153" y1="537.6406"/>
    </g>
    <g font-family="sans-serif" transform="matrix(1,0,0,1,207,143)">
      <text xml:space="preserve" x="4" y="549.1719" stroke="none">+</text>
      <text xml:space="preserve" x="19" y="550.7812" onclick="umlload('#LEVELTYPE_GOV_OFFICE_REGION')" stroke="none">LEVELTYPE_GOV_OFFICE_REGION : int</text>
      <line y2="553.6094" fill="none" x1="19" x2="245" y1="553.6094"/>
    </g>
    <g font-family="sans-serif" transform="matrix(1,0,0,1,207,143)">
      <text xml:space="preserve" x="4" y="565.1719" stroke="none">+</text>
      <text xml:space="preserve" x="19" y="566.75" onclick="umlload('#LEVELTYPE_GREAT_BRITAIN')" stroke="none">LEVELTYPE_GREAT_BRITAIN : int</text>
      <line y2="569.5781" fill="none" x1="19" x2="211" y1="569.5781"/>
    </g>
    <g font-family="sans-serif" transform="matrix(1,0,0,1,207,143)">
      <text xml:space="preserve" x="4" y="581.1719" stroke="none">+</text>
      <text xml:space="preserve" x="19" y="582.7188" onclick="umlload('#LEVELTYPE_HEALTH_AUTHORITY')" stroke="none">LEVELTYPE_HEALTH_AUTHORITY : int</text>
      <line y2="585.5469" fill="none" x1="19" x2="239" y1="585.5469"/>
    </g>
    <g font-family="sans-serif" transform="matrix(1,0,0,1,207,143)">
      <text xml:space="preserve" x="4" y="597.1719" stroke="none">+</text>
      <text xml:space="preserve" x="19" y="598.6875" onclick="umlload('#LEVELTYPE_LOCAL_AUTHORITY')" stroke="none">LEVELTYPE_LOCAL_AUTHORITY : int</text>
      <line y2="601.5156" fill="none" x1="19" x2="229" y1="601.5156"/>
    </g>
    <g font-family="sans-serif" transform="matrix(1,0,0,1,207,143)">
      <text xml:space="preserve" x="4" y="613.1719" stroke="none">+</text>
      <text xml:space="preserve" x="19" y="614.6562" onclick="umlload('#LEVELTYPE_LSOA')" stroke="none">LEVELTYPE_LSOA : int</text>
      <line y2="617.4844" fill="none" x1="19" x2="150" y1="617.4844"/>
    </g>
    <g font-family="sans-serif" transform="matrix(1,0,0,1,207,143)">
      <text xml:space="preserve" x="4" y="629.1719" stroke="none">+</text>
      <text xml:space="preserve" x="19" y="630.625" onclick="umlload('#LEVELTYPE_MSOA')" stroke="none">LEVELTYPE_MSOA : int</text>
      <line y2="633.4531" fill="none" x1="19" x2="154" y1="633.4531"/>
    </g>
    <g font-family="sans-serif" transform="matrix(1,0,0,1,207,143)">
      <text xml:space="preserve" x="4" y="645.1719" stroke="none">+</text>
      <text xml:space="preserve" x="19" y="646.5938" onclick="umlload('#LEVELTYPE_NATIONAL_PARK')" stroke="none">LEVELTYPE_NATIONAL_PARK : int</text>
      <line y2="649.4219" fill="none" x1="19" x2="215" y1="649.4219"/>
    </g>
    <g font-family="sans-serif" transform="matrix(1,0,0,1,207,143)">
      <text xml:space="preserve" x="4" y="661.1719" stroke="none">+</text>
      <text xml:space="preserve" x="19" y="662.5625" onclick="umlload('#LEVELTYPE_NEW_DEAL_FOR_COMMUNITY')" stroke="none">LEVELTYPE_NEW_DEAL_FOR_COMMUNITY : int</text>
      <line y2="665.3906" fill="none" x1="19" x2="292" y1="665.3906"/>
    </g>
    <g font-family="sans-serif" transform="matrix(1,0,0,1,207,143)">
      <text xml:space="preserve" x="4" y="677.1719" stroke="none">+</text>
      <text xml:space="preserve" x="19" y="678.5312" onclick="umlload('#LEVELTYPE_NULL')" stroke="none">LEVELTYPE_NULL : int</text>
      <line y2="681.3594" fill="none" x1="19" x2="149" y1="681.3594"/>
    </g>
    <g font-family="sans-serif" transform="matrix(1,0,0,1,207,143)">
      <text xml:space="preserve" x="4" y="693.1719" stroke="none">+</text>
      <text xml:space="preserve" x="19" y="694.5" onclick="umlload('#LEVELTYPE_OA')" stroke="none">LEVELTYPE_OA : int</text>
      <line y2="697.3281" fill="none" x1="19" x2="136" y1="697.3281"/>
    </g>
    <g font-family="sans-serif" transform="matrix(1,0,0,1,207,143)">
      <text xml:space="preserve" x="4" y="709.1719" stroke="none">+</text>
      <text xml:space="preserve" x="19" y="710.4688" onclick="umlload('#LEVELTYPE_PARISH')" stroke="none">LEVELTYPE_PARISH : int</text>
      <line y2="713.2969" fill="none" x1="19" x2="163" y1="713.2969"/>
    </g>
    <g font-family="sans-serif" transform="matrix(1,0,0,1,207,143)">
      <text xml:space="preserve" x="4" y="725.1719" stroke="none">+</text>
      <text xml:space="preserve" x="19" y="726.4375" onclick="umlload('#LEVELTYPE_POSTCODE')" stroke="none">LEVELTYPE_POSTCODE : int</text>
      <line y2="729.2656" fill="none" x1="19" x2="185" y1="729.2656"/>
    </g>
    <g font-family="sans-serif" transform="matrix(1,0,0,1,207,143)">
      <text xml:space="preserve" x="4" y="741.1719" stroke="none">+</text>
      <text xml:space="preserve" x="19" y="742.4062" onclick="umlload('#LEVELTYPE_POSTCODE2')" stroke="none">LEVELTYPE_POSTCODE2 : int</text>
      <line y2="745.2344" fill="none" x1="19" x2="193" y1="745.2344"/>
    </g>
    <g font-family="sans-serif" transform="matrix(1,0,0,1,207,143)">
      <text xml:space="preserve" x="4" y="757.1719" stroke="none">+</text>
      <text xml:space="preserve" x="19" y="758.375" onclick="umlload('#LEVELTYPE_POSTCODE_AREA')" stroke="none">LEVELTYPE_POSTCODE_AREA : int</text>
      <line y2="761.2031" fill="none" x1="19" x2="223" y1="761.2031"/>
    </g>
    <g font-family="sans-serif" transform="matrix(1,0,0,1,207,143)">
      <text xml:space="preserve" x="4" y="773.1719" stroke="none">+</text>
      <text xml:space="preserve" x="19" y="774.3438" onclick="umlload('#LEVELTYPE_POSTCODE_DISTRICT')" stroke="none">LEVELTYPE_POSTCODE_DISTRICT : int</text>
      <line y2="777.1719" fill="none" x1="19" x2="244" y1="777.1719"/>
    </g>
    <g font-family="sans-serif" transform="matrix(1,0,0,1,207,143)">
      <text xml:space="preserve" x="4" y="789.1719" stroke="none">+</text>
      <text xml:space="preserve" x="19" y="790.3125" onclick="umlload('#LEVELTYPE_POSTCODE_SECTOR')" stroke="none">LEVELTYPE_POSTCODE_SECTOR : int</text>
      <line y2="793.1406" fill="none" x1="19" x2="239" y1="793.1406"/>
    </g>
    <g font-family="sans-serif" transform="matrix(1,0,0,1,207,143)">
      <text xml:space="preserve" x="4" y="805.1719" stroke="none">+</text>
      <text xml:space="preserve" x="19" y="806.2812" onclick="umlload('#LEVELTYPE_PRIMARY_CARE_ORG')" stroke="none">LEVELTYPE_PRIMARY_CARE_ORG : int</text>
      <line y2="809.1094" fill="none" x1="19" x2="241" y1="809.1094"/>
    </g>
    <g font-family="sans-serif" transform="matrix(1,0,0,1,207,143)">
      <text xml:space="preserve" x="4" y="821.1719" stroke="none">+</text>
      <text xml:space="preserve" x="19" y="822.25" onclick="umlload('#LEVELTYPE_REGIONAL_OFFICE')" stroke="none">LEVELTYPE_REGIONAL_OFFICE : int</text>
      <line y2="825.0781" fill="none" x1="19" x2="227" y1="825.0781"/>
    </g>
    <g font-family="sans-serif" transform="matrix(1,0,0,1,207,143)">
      <text xml:space="preserve" x="4" y="837.1719" stroke="none">+</text>
      <text xml:space="preserve" x="19" y="838.2188" onclick="umlload('#LEVELTYPE_SCOTTISH_PARL_REGION')" stroke="none">LEVELTYPE_SCOTTISH_PARL_REGION : int</text>
      <line y2="841.0469" fill="none" x1="19" x2="266" y1="841.0469"/>
    </g>
    <g font-family="sans-serif" transform="matrix(1,0,0,1,207,143)">
      <text xml:space="preserve" x="4" y="853.1719" stroke="none">+</text>
      <text xml:space="preserve" x="19" y="854.1875" onclick="umlload('#LEVELTYPE_STAT_NEIGHBOURHOOD')" stroke="none">LEVELTYPE_STAT_NEIGHBOURHOOD : int</text>
      <line y2="857.0156" fill="none" x1="19" x2="263" y1="857.0156"/>
    </g>
    <g font-family="sans-serif" transform="matrix(1,0,0,1,207,143)">
      <text xml:space="preserve" x="4" y="869.1719" stroke="none">+</text>
      <text xml:space="preserve" x="19" y="870.1562" onclick="umlload('#LEVELTYPE_STRATEGIC_HEALTH_AUTHORITY')" stroke="none">LEVELTYPE_STRATEGIC_HEALTH_AUTHORITY : int</text>
      <line y2="872.9844" fill="none" x1="19" x2="311" y1="872.9844"/>
    </g>
    <g font-family="sans-serif" transform="matrix(1,0,0,1,207,143)">
      <text xml:space="preserve" x="4" y="884.1719" stroke="none">+</text>
      <text xml:space="preserve" x="19" y="886.125" onclick="umlload('#LEVELTYPE_UK')" stroke="none">LEVELTYPE_UK : int</text>
      <line y2="888.9531" fill="none" x1="19" x2="135" y1="888.9531"/>
    </g>
    <g font-family="sans-serif" transform="matrix(1,0,0,1,207,143)">
      <text xml:space="preserve" x="4" y="900.1719" stroke="none">+</text>
      <text xml:space="preserve" x="19" y="902.0938" onclick="umlload('#LEVELTYPE_URBAN_AREA')" stroke="none">LEVELTYPE_URBAN_AREA : int</text>
      <line y2="904.9219" fill="none" x1="19" x2="199" y1="904.9219"/>
    </g>
    <g font-family="sans-serif" transform="matrix(1,0,0,1,207,143)">
      <text xml:space="preserve" x="4" y="916.1719" stroke="none">+</text>
      <text xml:space="preserve" x="19" y="918.0625" onclick="umlload('#LEVELTYPE_URBAN_SUBDIV')" stroke="none">LEVELTYPE_URBAN_SUBDIV : int</text>
      <line y2="920.8906" fill="none" x1="19" x2="212" y1="920.8906"/>
    </g>
    <g font-family="sans-serif" transform="matrix(1,0,0,1,207,143)">
      <text xml:space="preserve" x="4" y="932.1719" stroke="none">+</text>
      <text xml:space="preserve" x="19" y="934.0312" onclick="umlload('#LEVELTYPE_USOA')" stroke="none">LEVELTYPE_USOA : int</text>
      <line y2="936.8594" fill="none" x1="19" x2="153" y1="936.8594"/>
    </g>
    <g font-family="sans-serif" transform="matrix(1,0,0,1,207,143)">
      <text xml:space="preserve" x="4" y="948.1719" stroke="none">+</text>
      <text xml:space="preserve" x="19" y="950" onclick="umlload('#LEVELTYPE_WARD')" stroke="none">LEVELTYPE_WARD : int</text>
      <line y2="952.8281" fill="none" x1="19" x2="155" y1="952.8281"/>
    </g>
    <g font-family="sans-serif" transform="matrix(1,0,0,1,207,143)">
      <text xml:space="preserve" x="4" y="964.1719" stroke="none">+</text>
      <text xml:space="preserve" x="19" y="965.9688" onclick="umlload('#LEVELTYPE_WESTMINSTER_PARL_CONSTITUENCY')" stroke="none">LEVELTYPE_WESTMINSTER_PARL_CONSTITUENCY : int</text>
      <line y2="968.7969" fill="none" x1="19" x2="340" y1="968.7969"/>
    </g>
    <g font-family="sans-serif" transform="matrix(1,0,0,1,207,143)">
      <text xml:space="preserve" x="4" y="981.1719" stroke="none">+</text>
      <text xml:space="preserve" x="19" y="982.9375" onclick="umlload('#Area()')" stroke="none">Area()</text>
    </g>
    <g font-family="sans-serif" transform="matrix(1,0,0,1,207,143)">
      <text xml:space="preserve" x="4" y="997.1719" stroke="none">+</text>
      <text xml:space="preserve" x="19" y="998.9062" onclick="umlload('#Area(java.lang.String, int, int, int)')" stroke="none">Area(String, int, int, int)</text>
    </g>
    <g font-family="sans-serif" transform="matrix(1,0,0,1,207,143)">
      <text xml:space="preserve" x="4" y="1013.1719" stroke="none">#</text>
      <text xml:space="preserve" x="19" y="1014.875" onclick="umlload('#Area(nde2.pull.types.Area)')" stroke="none">Area(Area)</text>
    </g>
    <g font-family="sans-serif" transform="matrix(1,0,0,1,207,143)">
      <text xml:space="preserve" x="4" y="1030.1719" stroke="none">+</text>
      <text xml:space="preserve" x="19" y="1031.8438" onclick="umlload('#equals(java.lang.Object)')" stroke="none">equals(Object) : boolean</text>
    </g>
    <g font-family="sans-serif" transform="matrix(1,0,0,1,207,143)">
      <text xml:space="preserve" x="4" y="1046.1719" stroke="none">+</text>
      <text xml:space="preserve" x="19" y="1047.8125" onclick="umlload('#getAreaId()')" stroke="none">getAreaId() : int</text>
    </g>
    <g font-family="sans-serif" transform="matrix(1,0,0,1,207,143)">
      <text xml:space="preserve" x="4" y="1062.1719" stroke="none">+</text>
      <text xml:space="preserve" x="19" y="1063.7812" onclick="umlload('#getChildren()')" stroke="none">getChildren() : Set&lt;Area&gt;</text>
    </g>
    <g font-family="sans-serif" transform="matrix(1,0,0,1,207,143)">
      <text xml:space="preserve" x="4" y="1078.1719" stroke="none">+</text>
      <text xml:space="preserve" x="19" y="1079.75" onclick="umlload('#getCompatibleSubjects()')" stroke="none">getCompatibleSubjects() : Map&lt;Subject, Integer&gt;</text>
    </g>
    <g font-family="sans-serif" transform="matrix(1,0,0,1,207,143)">
      <text xml:space="preserve" x="4" y="1094.1719" stroke="none">+</text>
      <text xml:space="preserve" x="19" y="1095.7188" onclick="umlload('#getHierarchyId()')" stroke="none">getHierarchyId() : int</text>
    </g>
    <g font-family="sans-serif" transform="matrix(1,0,0,1,207,143)">
      <text xml:space="preserve" x="4" y="1110.1719" stroke="none">+</text>
      <text xml:space="preserve" x="19" y="1111.6875" onclick="umlload('#getLevelTypeId()')" stroke="none">getLevelTypeId() : int</text>
    </g>
    <g font-family="sans-serif" transform="matrix(1,0,0,1,207,143)">
      <text xml:space="preserve" x="4" y="1126.1719" stroke="none">+</text>
      <text xml:space="preserve" x="19" y="1127.6562" onclick="umlload('#getName()')" stroke="none">getName() : String</text>
    </g>
    <g font-family="sans-serif" transform="matrix(1,0,0,1,207,143)">
      <text xml:space="preserve" x="4" y="1142.1719" stroke="none">+</text>
      <text xml:space="preserve" x="19" y="1143.625" onclick="umlload('#getParent()')" stroke="none">getParent() : Area</text>
    </g>
    <g font-family="sans-serif" transform="matrix(1,0,0,1,207,143)">
      <text xml:space="preserve" x="4" y="1158.1719" stroke="none">+</text>
      <text xml:space="preserve" x="19" y="1159.5938" onclick="umlload('#hashCode()')" stroke="none">hashCode() : int</text>
    </g>
    <g font-family="sans-serif" transform="matrix(1,0,0,1,207,143)">
      <text xml:space="preserve" x="4" y="1174.1719" stroke="none">+</text>
      <text xml:space="preserve" x="19" y="1175.5625" onclick="umlload('#setAreaId(int)')" stroke="none">setAreaId(int) : void</text>
    </g>
    <g font-family="sans-serif" transform="matrix(1,0,0,1,207,143)">
      <text xml:space="preserve" x="4" y="1190.1719" stroke="none">+</text>
      <text xml:space="preserve" x="19" y="1191.5312" onclick="umlload('#setCompatibleSubjects(java.util.Map)')" stroke="none">setCompatibleSubjects(Map&lt;Subject, Integer&gt;) : void</text>
    </g>
    <g font-family="sans-serif" transform="matrix(1,0,0,1,207,143)">
      <text xml:space="preserve" x="4" y="1206.1719" stroke="none">+</text>
      <text xml:space="preserve" x="19" y="1207.5" onclick="umlload('#setHierarchyId(int)')" stroke="none">setHierarchyId(int) : void</text>
    </g>
    <g font-family="sans-serif" transform="matrix(1,0,0,1,207,143)">
      <text xml:space="preserve" x="4" y="1222.1719" stroke="none">+</text>
      <text xml:space="preserve" x="19" y="1223.4688" onclick="umlload('#setLevelTypeId(int)')" stroke="none">setLevelTypeId(int) : void</text>
    </g>
    <g font-family="sans-serif" transform="matrix(1,0,0,1,207,143)">
      <text xml:space="preserve" x="4" y="1238.1719" stroke="none">+</text>
      <text xml:space="preserve" x="19" y="1239.4375" onclick="umlload('#setName(java.lang.String)')" stroke="none">setName(String) : void</text>
    </g>
    <g font-family="sans-serif" transform="matrix(1,0,0,1,207,143)">
      <text xml:space="preserve" x="4" y="1254.1719" stroke="none">+</text>
      <text xml:space="preserve" x="19" y="1255.4062" onclick="umlload('#setParent(nde2.pull.types.Area)')" stroke="none">setParent(Area) : void</text>
    </g>
    <g font-family="sans-serif" transform="matrix(1,0,0,1,207,143)">
      <text xml:space="preserve" x="-201" y="1292.1562" onclick="umlload('http://www.yworks.com/')" stroke="none">yWorks UML Doclet</text>
    </g>
    <g stroke-miterlimit="1.45" transform="matrix(1,0,0,1,207,143)" stroke-linecap="butt">
      <path fill="none" d="M238.96 0 L238.96 -69"/>
      <path fill="white" d="M238.96 -84 L232.96 -68 L244.96 -68 Z" stroke="none"/>
      <path fill="none" d="M238.96 -84 L232.96 -68 L244.96 -68 Z"/>
      <path fill="none" stroke-dasharray="6,2" d="M358.44 -0.0285 L358.44 -51 L380.8055 -51 L380.8055 -69"/>
      <path fill="white" stroke-dasharray="6,2" d="M380.8055 -84 L374.8055 -68 L386.8055 -68 Z" stroke="none"/>
      <path fill="none" d="M380.8055 -84 L374.8055 -68 L386.8055 -68 Z"/>
      <path fill="none" d="M-0.0342 11.5625 L-76.48 11.5625"/>
      <line stroke-linecap="square" transform="matrix(-1,0,0,-1,-76.48,11.5625)" fill="none" x1="0" x2="-14" y1="0" y2="-4" stroke-miterlimit="10"/>
      <line stroke-linecap="square" transform="matrix(-1,0,0,-1,-76.48,11.5625)" fill="none" x1="0" x2="-14" y1="0" y2="4" stroke-miterlimit="10"/>
    </g>
    <g stroke-miterlimit="1.45" transform="matrix(1,0,0,1,207,143)" stroke-linecap="butt">
      <path fill="none" d="M0.0033 103.4768 L-66 103.4768"/>
      <line stroke-linecap="square" transform="matrix(-1,0,0,-1,-66,103.4768)" fill="none" x1="0" x2="-14" y1="0" y2="-4" stroke-miterlimit="10"/>
      <line stroke-linecap="square" transform="matrix(-1,0,0,-1,-66,103.4768)" fill="none" x1="0" x2="-14" y1="0" y2="4" stroke-miterlimit="10"/>
    </g>
    <g stroke-miterlimit="1.45" transform="matrix(1,0,0,1,207,143)" stroke-linecap="butt">
      <path fill="none" d="M-0.0242 146.1805 L-106.7859 146.1805"/>
      <line stroke-linecap="square" transform="matrix(-1,0,0,-1,-106.7859,146.1805)" fill="none" x1="0" x2="-14" y1="0" y2="-4" stroke-miterlimit="10"/>
      <line stroke-linecap="square" transform="matrix(-1,0,0,-1,-106.7859,146.1805)" fill="none" x1="0" x2="-14" y1="0" y2="4" stroke-miterlimit="10"/>
    </g>
    <g stroke-dasharray="6,2" stroke-miterlimit="1.45" transform="matrix(1,0,0,1,207,143)" stroke-linecap="butt">
      <path fill="none" d="M477.9416 11.5625 L543.92 11.5625"/>
      <line stroke-linecap="square" transform="matrix(1,0,0,1,543.92,11.5625)" fill="none" x1="0" x2="-14" y1="0" y2="-4" stroke-dasharray="none" stroke-miterlimit="10"/>
      <line stroke-linecap="square" transform="matrix(1,0,0,1,543.92,11.5625)" fill="none" x1="0" x2="-14" y1="0" y2="4" stroke-dasharray="none" stroke-miterlimit="10"/>
    </g>
  </g>
</svg>
