<?xml version="1.0" encoding="UTF-8"?>
<svg xmlns="http://www.w3.org/2000/svg" xmlns:xlink="http://www.w3.org/1999/xlink" fill-opacity="1" color-rendering="auto" color-interpolation="auto" stroke="black" text-rendering="auto" stroke-linecap="square" width="573" stroke-miterlimit="10" stroke-opacity="1" shape-rendering="auto" fill="black" stroke-dasharray="none" font-weight="normal" stroke-width="1" height="359" font-family="'Dialog'" font-style="normal" stroke-linejoin="miter" font-size="12" stroke-dashoffset="0" image-rendering="auto">
  <!--Generated by ySVG-->
  <defs id="genericDefs"/>
  <g>
    <defs id="defs1">
      <clipPath clipPathUnits="userSpaceOnUse" id="clipPath1">
        <path d="M0 0 L573 0 L573 359 L0 359 L0 0 Z"/>
      </clipPath>
      <clipPath clipPathUnits="userSpaceOnUse" id="clipPath2">
        <path d="M320.41 0 L378.09 0 L378.09 23.125 L320.41 23.125 L320.41 0 Z"/>
      </clipPath>
      <clipPath clipPathUnits="userSpaceOnUse" id="clipPath3">
        <path d="M-171.24 87.125 L-78.54 87.125 L-78.54 110.25 L-171.24 110.25 L-171.24 87.125 Z"/>
      </clipPath>
      <clipPath clipPathUnits="userSpaceOnUse" id="clipPath4">
        <path d="M-130.04 0 L-76.48 0 L-76.48 23.125 L-130.04 23.125 L-130.04 0 Z"/>
      </clipPath>
      <clipPath clipPathUnits="userSpaceOnUse" id="clipPath5">
        <path d="M336.0559 -100.3518 C336.0559 -91.321 306.0565 -84 269.0504 -84 C232.0444 -84 202.045 -91.321 202.045 -100.3518 C202.045 -109.3827 232.0444 -116.7037 269.0504 -116.7037 C306.0565 -116.7037 336.0559 -109.3827 336.0559 -100.3518 Z"/>
      </clipPath>
      <clipPath clipPathUnits="userSpaceOnUse" id="clipPath6">
        <path d="M98.365 -107.125 L156.045 -107.125 L156.045 -84 L98.365 -84 L98.365 -107.125 Z"/>
      </clipPath>
      <clipPath clipPathUnits="userSpaceOnUse" id="clipPath7">
        <path d="M0 0 L254.41 0 L254.41 172.3594 L0 172.3594 L0 0 Z"/>
      </clipPath>
      <script type="text/ecmascript"><![CDATA[
function umlload(newLocation)
{
if (newLocation.charAt(0) != '#') {
if (newLocation.indexOf("://") > -1) {
window.parent.location.href = newLocation;
} else {
var tmp = window.parent.location.href;
tmp = tmp.substring(0, tmp.lastIndexOf("/") + 1);
window.parent.location.href = tmp.concat(newLocation);
}
} else {
window.parent.location.hash = newLocation;
}
}
]]></script>
    </defs>
    <g fill="rgb(238,238,255)" transform="matrix(1,0,0,1,180,143)" stroke="rgb(238,238,255)">
      <rect width="76.1412" x="312.41" height="17.9688" y="-26" stroke="none"/>
    </g>
    <g fill="rgb(166,166,178)" stroke-miterlimit="1.45" transform="matrix(1,0,0,1,180,143)" stroke-linecap="butt" stroke="rgb(166,166,178)">
      <rect fill="none" width="76.1412" x="312.41" height="17.9688" y="-26"/>
    </g>
    <g fill="rgb(238,238,255)" transform="matrix(1,0,0,1,180,143)" stroke="rgb(238,238,255)">
      <rect width="79.68" x="312.41" height="39.1562" y="-8.0312" stroke="none"/>
    </g>
    <g fill="rgb(166,166,178)" stroke-miterlimit="1.45" transform="matrix(1,0,0,1,180,143)" stroke-linecap="butt" stroke="rgb(166,166,178)">
      <rect fill="none" width="79.68" x="312.41" height="39.1562" y="-8.0312"/>
    </g>
    <g font-family="sans-serif" transform="matrix(1,0,0,1,180,143)">
      <text xml:space="preserve" x="318.41" y="-12.8594" stroke="none">java.lang</text>
    </g>
    <g fill="rgb(187,187,255)" transform="matrix(1,0,0,1,180,143)" stroke="rgb(187,187,255)">
      <rect x="320.41" y="0" clip-path="url(#clipPath2)" width="57.68" height="23.125" stroke="none"/>
    </g>
    <g fill="rgb(130,130,178)" stroke-miterlimit="1.45" transform="matrix(1,0,0,1,180,143)" stroke-linecap="butt" stroke="rgb(130,130,178)">
      <rect fill="none" width="57.68" x="320.41" height="23.125" y="0"/>
    </g>
    <g font-size="13" font-weight="bold" font-family="sans-serif" transform="matrix(1,0,0,1,180,143)">
      <text xml:space="preserve" x="325.25" y="16.0625" stroke="none">Object</text>
    </g>
    <g fill="rgb(238,238,255)" transform="matrix(1,0,0,1,180,143)" stroke="rgb(238,238,255)">
      <rect width="118.5772" x="-179.24" height="17.9688" y="61.125" stroke="none"/>
    </g>
    <g fill="rgb(166,166,178)" stroke-miterlimit="1.45" transform="matrix(1,0,0,1,180,143)" stroke-linecap="butt" stroke="rgb(166,166,178)">
      <rect fill="none" width="118.5772" x="-179.24" height="17.9688" y="61.125"/>
    </g>
    <g fill="rgb(238,238,255)" transform="matrix(1,0,0,1,180,143)" stroke="rgb(238,238,255)">
      <rect width="121.7" x="-179.24" height="39.1562" y="79.0938" stroke="none"/>
    </g>
    <g fill="rgb(166,166,178)" stroke-miterlimit="1.45" transform="matrix(1,0,0,1,180,143)" stroke-linecap="butt" stroke="rgb(166,166,178)">
      <rect fill="none" width="121.7" x="-179.24" height="39.1562" y="79.0938"/>
    </g>
    <g font-family="sans-serif" transform="matrix(1,0,0,1,180,143)">
      <text xml:space="preserve" x="-173.24" y="74.2656" onclick="umlload('../../../nde2/pull/types/package-summary.html')" stroke="none">nde2.pull.types</text>
    </g>
    <g fill="rgb(187,187,255)" transform="matrix(1,0,0,1,180,143)" stroke="rgb(187,187,255)">
      <rect x="-171.24" y="87.125" clip-path="url(#clipPath3)" width="92.7" height="23.125" stroke="none"/>
    </g>
    <g fill="rgb(130,130,178)" stroke-miterlimit="1.45" transform="matrix(1,0,0,1,180,143)" stroke-linecap="butt" stroke="rgb(130,130,178)">
      <rect fill="none" width="92.7" x="-171.24" height="23.125" y="87.125"/>
    </g>
    <g font-size="13" font-weight="bold" font-family="sans-serif" transform="matrix(1,0,0,1,180,143)">
      <text xml:space="preserve" x="-165.89" y="103.1875" onclick="umlload('../../../nde2/pull/types/DateRange.html')" stroke="none">DateRange</text>
    </g>
    <g fill="rgb(238,238,255)" transform="matrix(1,0,0,1,180,143)" stroke="rgb(238,238,255)">
      <rect width="76.1412" x="-138.04" height="17.9688" y="-26" stroke="none"/>
    </g>
    <g fill="rgb(166,166,178)" stroke-miterlimit="1.45" transform="matrix(1,0,0,1,180,143)" stroke-linecap="butt" stroke="rgb(166,166,178)">
      <rect fill="none" width="76.1412" x="-138.04" height="17.9688" y="-26"/>
    </g>
    <g fill="rgb(238,238,255)" transform="matrix(1,0,0,1,180,143)" stroke="rgb(238,238,255)">
      <rect width="79.56" x="-138.04" height="39.1562" y="-8.0312" stroke="none"/>
    </g>
    <g fill="rgb(166,166,178)" stroke-miterlimit="1.45" transform="matrix(1,0,0,1,180,143)" stroke-linecap="butt" stroke="rgb(166,166,178)">
      <rect fill="none" width="79.56" x="-138.04" height="39.1562" y="-8.0312"/>
    </g>
    <g font-family="sans-serif" transform="matrix(1,0,0,1,180,143)">
      <text xml:space="preserve" x="-132.04" y="-12.8594" stroke="none">java.lang</text>
    </g>
    <g fill="rgb(187,187,255)" transform="matrix(1,0,0,1,180,143)" stroke="rgb(187,187,255)">
      <rect x="-130.04" y="0" clip-path="url(#clipPath4)" width="53.56" height="23.125" stroke="none"/>
    </g>
    <g fill="rgb(130,130,178)" stroke-miterlimit="1.45" transform="matrix(1,0,0,1,180,143)" stroke-linecap="butt" stroke="rgb(130,130,178)">
      <rect fill="none" width="53.56" x="-130.04" height="23.125" y="0"/>
    </g>
    <g font-size="13" font-weight="bold" font-family="sans-serif" transform="matrix(1,0,0,1,180,143)">
      <text xml:space="preserve" x="-125.26" y="16.0625" stroke="none">String</text>
    </g>
    <g fill="rgb(238,238,255)" transform="matrix(1,0,0,1,180,143)" stroke="rgb(238,238,255)">
      <rect width="59.1668" x="194.045" height="17.9688" y="-142.7037" stroke="none"/>
    </g>
    <g fill="rgb(166,166,178)" stroke-miterlimit="1.45" transform="matrix(1,0,0,1,180,143)" stroke-linecap="butt" stroke="rgb(166,166,178)">
      <rect fill="none" width="59.1668" x="194.045" height="17.9688" y="-142.7037"/>
    </g>
    <g fill="rgb(238,238,255)" transform="matrix(1,0,0,1,180,143)" stroke="rgb(238,238,255)">
      <rect width="150.0109" x="194.045" height="48.7349" y="-124.7349" stroke="none"/>
    </g>
    <g fill="rgb(166,166,178)" stroke-miterlimit="1.45" transform="matrix(1,0,0,1,180,143)" stroke-linecap="butt" stroke="rgb(166,166,178)">
      <rect fill="none" width="150.0109" x="194.045" height="48.7349" y="-124.7349"/>
    </g>
    <g font-family="sans-serif" transform="matrix(1,0,0,1,180,143)">
      <text xml:space="preserve" x="200.045" y="-129.5631" stroke="none">java.io</text>
    </g>
    <g fill="rgb(221,221,255)" transform="matrix(1,0,0,1,180,143)" stroke="rgb(221,221,255)">
      <rect x="202.045" y="-116.7037" clip-path="url(#clipPath5)" width="134.0109" height="32.7037" stroke="none"/>
    </g>
    <g fill="rgb(154,154,178)" stroke-miterlimit="1.45" transform="matrix(1,0,0,1,180,143)" stroke-linecap="butt" stroke="rgb(154,154,178)">
      <ellipse rx="67.0054" fill="none" ry="16.3518" cx="269.0504" cy="-100.3518"/>
    </g>
    <g font-style="italic" font-size="13" font-weight="bold" font-family="sans-serif" transform="matrix(1,0,0,1,180,143)">
      <text xml:space="preserve" x="227.0504" y="-95.8518" stroke="none">Serializable</text>
    </g>
    <g fill="rgb(238,238,255)" transform="matrix(1,0,0,1,180,143)" stroke="rgb(238,238,255)">
      <rect width="76.1412" x="90.365" height="17.9688" y="-133.125" stroke="none"/>
    </g>
    <g fill="rgb(166,166,178)" stroke-miterlimit="1.45" transform="matrix(1,0,0,1,180,143)" stroke-linecap="butt" stroke="rgb(166,166,178)">
      <rect fill="none" width="76.1412" x="90.365" height="17.9688" y="-133.125"/>
    </g>
    <g fill="rgb(238,238,255)" transform="matrix(1,0,0,1,180,143)" stroke="rgb(238,238,255)">
      <rect width="76.1412" x="90.365" height="39.1562" y="-115.1562" stroke="none"/>
    </g>
    <g fill="rgb(166,166,178)" stroke-miterlimit="1.45" transform="matrix(1,0,0,1,180,143)" stroke-linecap="butt" stroke="rgb(166,166,178)">
      <rect fill="none" width="76.1412" x="90.365" height="39.1562" y="-115.1562"/>
    </g>
    <g font-family="sans-serif" transform="matrix(1,0,0,1,180,143)">
      <text xml:space="preserve" x="96.365" y="-119.9844" stroke="none">java.lang</text>
    </g>
    <g fill="rgb(187,187,255)" transform="matrix(1,0,0,1,180,143)" stroke="rgb(187,187,255)">
      <rect x="98.365" y="-107.125" clip-path="url(#clipPath6)" width="57.68" height="23.125" stroke="none"/>
    </g>
    <g fill="rgb(130,130,178)" stroke-miterlimit="1.45" transform="matrix(1,0,0,1,180,143)" stroke-linecap="butt" stroke="rgb(130,130,178)">
      <rect fill="none" width="57.68" x="98.365" height="23.125" y="-107.125"/>
    </g>
    <g font-size="13" font-weight="bold" font-family="sans-serif" transform="matrix(1,0,0,1,180,143)">
      <text xml:space="preserve" x="103.205" y="-91.0625" stroke="none">Object</text>
    </g>
    <g fill="rgb(238,238,255)" transform="matrix(1,0,0,1,180,143)" stroke="rgb(238,238,255)">
      <rect width="118.5772" x="-8" height="17.9688" y="-26" stroke="none"/>
    </g>
    <g fill="rgb(166,166,178)" stroke-miterlimit="1.45" transform="matrix(1,0,0,1,180,143)" stroke-linecap="butt" stroke="rgb(166,166,178)">
      <rect fill="none" width="118.5772" x="-8" height="17.9688" y="-26"/>
    </g>
    <g fill="rgb(238,238,255)" transform="matrix(1,0,0,1,180,143)" stroke="rgb(238,238,255)">
      <rect width="270.41" x="-8" height="188.3906" y="-8.0312" stroke="none"/>
    </g>
    <g fill="rgb(166,166,178)" stroke-miterlimit="1.45" transform="matrix(1,0,0,1,180,143)" stroke-linecap="butt" stroke="rgb(166,166,178)">
      <rect fill="none" width="270.41" x="-8" height="188.3906" y="-8.0312"/>
    </g>
    <g font-family="sans-serif" transform="matrix(1,0,0,1,180,143)">
      <text xml:space="preserve" x="-2" y="-12.8594" onclick="umlload('package-summary.html')" stroke="none">nde2.pull.types</text>
    </g>
    <g fill="rgb(187,187,255)" transform="matrix(1,0,0,1,180,143)" stroke="rgb(187,187,255)">
      <rect x="0" y="0" clip-path="url(#clipPath7)" width="254.41" height="26.6406" stroke="none"/>
      <line clip-path="url(#clipPath7)" fill="none" x1="0" x2="254.41" y1="26.6406" y2="26.6406" stroke="black"/>
      <rect x="0" y="27.6406" clip-path="url(#clipPath7)" width="254.41" height="15.9688" stroke="none"/>
      <line clip-path="url(#clipPath7)" fill="none" x1="0" x2="254.41" y1="43.6094" y2="43.6094" stroke="black"/>
      <rect x="0" y="44.6094" clip-path="url(#clipPath7)" width="254.41" height="127.75" stroke="none"/>
    </g>
    <g fill="rgb(130,130,178)" stroke-miterlimit="1.45" transform="matrix(1,0,0,1,180,143)" stroke-linecap="butt" stroke="rgb(130,130,178)">
      <rect fill="none" width="254.41" x="0" height="172.3594" y="0"/>
    </g>
    <g font-size="16" font-weight="bold" font-family="sans-serif" transform="matrix(1,0,0,1,180,143)">
      <text xml:space="preserve" x="64.705" y="18.8594" onclick="umlload('#')" stroke="none">DataSetFamily</text>
    </g>
    <g font-family="sans-serif" transform="matrix(1,0,0,1,180,143)">
      <text xml:space="preserve" x="4" y="38.1719" stroke="none">+</text>
      <text xml:space="preserve" x="19" y="39.7812" onclick="umlload('#DataSetFamily()')" stroke="none">DataSetFamily()</text>
    </g>
    <g font-family="sans-serif" transform="matrix(1,0,0,1,180,143)">
      <text xml:space="preserve" x="4" y="55.1719" stroke="none">+</text>
      <text xml:space="preserve" x="19" y="56.75" onclick="umlload('#equals(java.lang.Object)')" stroke="none">equals(Object) : boolean</text>
    </g>
    <g font-family="sans-serif" transform="matrix(1,0,0,1,180,143)">
      <text xml:space="preserve" x="4" y="71.1719" stroke="none">+</text>
      <text xml:space="preserve" x="19" y="72.7188" onclick="umlload('#getDateRanges()')" stroke="none">getDateRanges() : DateRange[]</text>
    </g>
    <g font-family="sans-serif" transform="matrix(1,0,0,1,180,143)">
      <text xml:space="preserve" x="4" y="87.1719" stroke="none">+</text>
      <text xml:space="preserve" x="19" y="88.6875" onclick="umlload('#getFamilyId()')" stroke="none">getFamilyId() : int</text>
    </g>
    <g font-family="sans-serif" transform="matrix(1,0,0,1,180,143)">
      <text xml:space="preserve" x="4" y="103.1719" stroke="none">+</text>
      <text xml:space="preserve" x="19" y="104.6562" onclick="umlload('#getName()')" stroke="none">getName() : String</text>
    </g>
    <g font-family="sans-serif" transform="matrix(1,0,0,1,180,143)">
      <text xml:space="preserve" x="4" y="119.1719" stroke="none">+</text>
      <text xml:space="preserve" x="19" y="120.625" onclick="umlload('#hashCode()')" stroke="none">hashCode() : int</text>
    </g>
    <g font-family="sans-serif" transform="matrix(1,0,0,1,180,143)">
      <text xml:space="preserve" x="4" y="135.1719" stroke="none">+</text>
      <text xml:space="preserve" x="19" y="136.5938" onclick="umlload('#setDateRanges(nde2.pull.types.DateRange[])')" stroke="none">setDateRanges(DateRange[]) : void</text>
    </g>
    <g font-family="sans-serif" transform="matrix(1,0,0,1,180,143)">
      <text xml:space="preserve" x="4" y="151.1719" stroke="none">+</text>
      <text xml:space="preserve" x="19" y="152.5625" onclick="umlload('#setFamilyId(int)')" stroke="none">setFamilyId(int) : void</text>
    </g>
    <g font-family="sans-serif" transform="matrix(1,0,0,1,180,143)">
      <text xml:space="preserve" x="4" y="167.1719" stroke="none">+</text>
      <text xml:space="preserve" x="19" y="168.5312" onclick="umlload('#setName(java.lang.String)')" stroke="none">setName(String) : void</text>
    </g>
    <g font-family="sans-serif" transform="matrix(1,0,0,1,180,143)">
      <text xml:space="preserve" x="-174" y="205.1562" onclick="umlload('http://www.yworks.com/')" stroke="none">yWorks UML Doclet</text>
    </g>
    <g stroke-miterlimit="1.45" transform="matrix(1,0,0,1,180,143)" stroke-linecap="butt">
      <path fill="none" d="M127.205 0 L127.205 -69"/>
      <path fill="white" d="M127.205 -84 L121.205 -68 L133.205 -68 Z" stroke="none"/>
      <path fill="none" d="M127.205 -84 L121.205 -68 L133.205 -68 Z"/>
      <path fill="none" stroke-dasharray="6,2" d="M190.8075 0.007 L190.8075 -51 L269.0504 -51 L269.0504 -69"/>
      <path fill="white" stroke-dasharray="6,2" d="M269.0504 -84 L263.0504 -68 L275.0504 -68 Z" stroke="none"/>
      <path fill="none" d="M269.0504 -84 L263.0504 -68 L275.0504 -68 Z"/>
      <path fill="none" d="M0.016 11.5625 L-76.48 11.5625"/>
      <line stroke-linecap="square" transform="matrix(-1,0,0,-1,-76.48,11.5625)" fill="none" x1="0" x2="-14" y1="0" y2="-4" stroke-miterlimit="10"/>
      <line stroke-linecap="square" transform="matrix(-1,0,0,-1,-76.48,11.5625)" fill="none" x1="0" x2="-14" y1="0" y2="4" stroke-miterlimit="10"/>
    </g>
    <g stroke-miterlimit="1.45" transform="matrix(1,0,0,1,180,143)" stroke-linecap="butt">
      <path fill="none" d="M0.0189 98.6875 L-78.54 98.6875"/>
      <line stroke-linecap="square" transform="matrix(-1,0,0,-1,-78.54,98.6875)" fill="none" x1="0" x2="-14" y1="0" y2="-4" stroke-miterlimit="10"/>
      <line stroke-linecap="square" transform="matrix(-1,0,0,-1,-78.54,98.6875)" fill="none" x1="0" x2="-14" y1="0" y2="4" stroke-miterlimit="10"/>
    </g>
    <g stroke-dasharray="6,2" stroke-miterlimit="1.45" transform="matrix(1,0,0,1,180,143)" stroke-linecap="butt">
      <path fill="none" d="M254.4092 11.5625 L320.41 11.5625"/>
      <line stroke-linecap="square" transform="matrix(1,0,0,1,320.41,11.5625)" fill="none" x1="0" x2="-14" y1="0" y2="-4" stroke-dasharray="none" stroke-miterlimit="10"/>
      <line stroke-linecap="square" transform="matrix(1,0,0,1,320.41,11.5625)" fill="none" x1="0" x2="-14" y1="0" y2="4" stroke-dasharray="none" stroke-miterlimit="10"/>
    </g>
  </g>
</svg>
