<?xml version="1.0" encoding="UTF-8"?>
<svg xmlns="http://www.w3.org/2000/svg" xmlns:xlink="http://www.w3.org/1999/xlink" fill-opacity="1" color-rendering="auto" color-interpolation="auto" stroke="black" text-rendering="auto" stroke-linecap="square" width="532" stroke-miterlimit="10" stroke-opacity="1" shape-rendering="auto" fill="black" stroke-dasharray="none" font-weight="normal" stroke-width="1" height="391" font-family="'Dialog'" font-style="normal" stroke-linejoin="miter" font-size="12" stroke-dashoffset="0" image-rendering="auto">
  <!--Generated by ySVG-->
  <defs id="genericDefs"/>
  <g>
    <defs id="defs1">
      <clipPath clipPathUnits="userSpaceOnUse" id="clipPath1">
        <path d="M0 0 L532 0 L532 391 L0 391 L0 0 Z"/>
      </clipPath>
      <clipPath clipPathUnits="userSpaceOnUse" id="clipPath2">
        <path d="M280.24 0 L337.92 0 L337.92 23.125 L280.24 23.125 L280.24 0 Z"/>
      </clipPath>
      <clipPath clipPathUnits="userSpaceOnUse" id="clipPath3">
        <path d="M-171.24 0 L-90.9 0 L-90.9 23.125 L-171.24 23.125 L-171.24 0 Z"/>
      </clipPath>
      <clipPath clipPathUnits="userSpaceOnUse" id="clipPath4">
        <path d="M-171.24 33.125 L-113.56 33.125 L-113.56 56.25 L-171.24 56.25 L-171.24 33.125 Z"/>
      </clipPath>
      <clipPath clipPathUnits="userSpaceOnUse" id="clipPath5">
        <path d="M-171.24 66.25 L-122.83 66.25 L-122.83 89.375 L-171.24 89.375 L-171.24 66.25 Z"/>
      </clipPath>
      <clipPath clipPathUnits="userSpaceOnUse" id="clipPath6">
        <path d="M315.9709 -100.3518 C315.9709 -91.321 285.9715 -84 248.9654 -84 C211.9594 -84 181.96 -91.321 181.96 -100.3518 C181.96 -109.3827 211.9594 -116.7037 248.9654 -116.7037 C285.9715 -116.7037 315.9709 -109.3827 315.9709 -100.3518 Z"/>
      </clipPath>
      <clipPath clipPathUnits="userSpaceOnUse" id="clipPath7">
        <path d="M78.28 -107.125 L135.96 -107.125 L135.96 -84 L78.28 -84 L78.28 -107.125 Z"/>
      </clipPath>
      <clipPath clipPathUnits="userSpaceOnUse" id="clipPath8">
        <path d="M0 0 L214.24 0 L214.24 204.2969 L0 204.2969 L0 0 Z"/>
      </clipPath>
      <script type="text/ecmascript"><![CDATA[
function umlload(newLocation)
{
if (newLocation.charAt(0) != '#') {
if (newLocation.indexOf("://") > -1) {
window.parent.location.href = newLocation;
} else {
var tmp = window.parent.location.href;
tmp = tmp.substring(0, tmp.lastIndexOf("/") + 1);
window.parent.location.href = tmp.concat(newLocation);
}
} else {
window.parent.location.hash = newLocation;
}
}
]]></script>
    </defs>
    <g fill="rgb(238,238,255)" transform="matrix(1,0,0,1,180,143)" stroke="rgb(238,238,255)">
      <rect width="76.1412" x="272.24" height="17.9688" y="-26" stroke="none"/>
    </g>
    <g fill="rgb(166,166,178)" stroke-miterlimit="1.45" transform="matrix(1,0,0,1,180,143)" stroke-linecap="butt" stroke="rgb(166,166,178)">
      <rect fill="none" width="76.1412" x="272.24" height="17.9688" y="-26"/>
    </g>
    <g fill="rgb(238,238,255)" transform="matrix(1,0,0,1,180,143)" stroke="rgb(238,238,255)">
      <rect width="79.68" x="272.24" height="39.1562" y="-8.0312" stroke="none"/>
    </g>
    <g fill="rgb(166,166,178)" stroke-miterlimit="1.45" transform="matrix(1,0,0,1,180,143)" stroke-linecap="butt" stroke="rgb(166,166,178)">
      <rect fill="none" width="79.68" x="272.24" height="39.1562" y="-8.0312"/>
    </g>
    <g font-family="sans-serif" transform="matrix(1,0,0,1,180,143)">
      <text xml:space="preserve" x="278.24" y="-12.8594" stroke="none">java.lang</text>
    </g>
    <g fill="rgb(187,187,255)" transform="matrix(1,0,0,1,180,143)" stroke="rgb(187,187,255)">
      <rect x="280.24" y="0" clip-path="url(#clipPath2)" width="57.68" height="23.125" stroke="none"/>
    </g>
    <g fill="rgb(130,130,178)" stroke-miterlimit="1.45" transform="matrix(1,0,0,1,180,143)" stroke-linecap="butt" stroke="rgb(130,130,178)">
      <rect fill="none" width="57.68" x="280.24" height="23.125" y="0"/>
    </g>
    <g font-size="13" font-weight="bold" font-family="sans-serif" transform="matrix(1,0,0,1,180,143)">
      <text xml:space="preserve" x="285.08" y="16.0625" stroke="none">Object</text>
    </g>
    <g fill="rgb(238,238,255)" transform="matrix(1,0,0,1,180,143)" stroke="rgb(238,238,255)">
      <rect width="118.5772" x="-179.24" height="17.9688" y="-26" stroke="none"/>
    </g>
    <g fill="rgb(166,166,178)" stroke-miterlimit="1.45" transform="matrix(1,0,0,1,180,143)" stroke-linecap="butt" stroke="rgb(166,166,178)">
      <rect fill="none" width="118.5772" x="-179.24" height="17.9688" y="-26"/>
    </g>
    <g fill="rgb(238,238,255)" transform="matrix(1,0,0,1,180,143)" stroke="rgb(238,238,255)">
      <rect width="121.34" x="-179.24" height="105.4062" y="-8.0312" stroke="none"/>
    </g>
    <g fill="rgb(166,166,178)" stroke-miterlimit="1.45" transform="matrix(1,0,0,1,180,143)" stroke-linecap="butt" stroke="rgb(166,166,178)">
      <rect fill="none" width="121.34" x="-179.24" height="105.4062" y="-8.0312"/>
    </g>
    <g font-family="sans-serif" transform="matrix(1,0,0,1,180,143)">
      <text xml:space="preserve" x="-173.24" y="-12.8594" onclick="umlload('../../../nde2/pull/types/package-summary.html')" stroke="none">nde2.pull.types</text>
    </g>
    <g fill="rgb(187,187,255)" transform="matrix(1,0,0,1,180,143)" stroke="rgb(187,187,255)">
      <rect x="-171.24" y="0" clip-path="url(#clipPath3)" width="80.34" height="23.125" stroke="none"/>
    </g>
    <g fill="rgb(130,130,178)" stroke-miterlimit="1.45" transform="matrix(1,0,0,1,180,143)" stroke-linecap="butt" stroke="rgb(130,130,178)">
      <rect fill="none" width="80.34" x="-171.24" height="23.125" y="0"/>
    </g>
    <g font-size="13" font-weight="bold" font-family="sans-serif" transform="matrix(1,0,0,1,180,143)">
      <text xml:space="preserve" x="-166.07" y="16.0625" onclick="umlload('../../../nde2/pull/types/Boundary.html')" stroke="none">Boundary</text>
    </g>
    <g fill="rgb(187,187,255)" transform="matrix(1,0,0,1,180,143)" stroke="rgb(187,187,255)">
      <rect x="-171.24" y="33.125" clip-path="url(#clipPath4)" width="57.68" height="23.125" stroke="none"/>
    </g>
    <g fill="rgb(130,130,178)" stroke-miterlimit="1.45" transform="matrix(1,0,0,1,180,143)" stroke-linecap="butt" stroke="rgb(130,130,178)">
      <rect fill="none" width="57.68" x="-171.24" height="23.125" y="33.125"/>
    </g>
    <g font-size="13" font-weight="bold" font-family="sans-serif" transform="matrix(1,0,0,1,180,143)">
      <text xml:space="preserve" x="-166.4" y="49.1875" onclick="umlload('../../../nde2/pull/types/Period.html')" stroke="none">Period</text>
    </g>
    <g fill="rgb(187,187,255)" transform="matrix(1,0,0,1,180,143)" stroke="rgb(187,187,255)">
      <rect x="-171.24" y="66.25" clip-path="url(#clipPath5)" width="48.41" height="23.125" stroke="none"/>
    </g>
    <g fill="rgb(130,130,178)" stroke-miterlimit="1.45" transform="matrix(1,0,0,1,180,143)" stroke-linecap="butt" stroke="rgb(130,130,178)">
      <rect fill="none" width="48.41" x="-171.24" height="23.125" y="66.25"/>
    </g>
    <g font-size="13" font-weight="bold" font-family="sans-serif" transform="matrix(1,0,0,1,180,143)">
      <text xml:space="preserve" x="-166.535" y="82.3125" onclick="umlload('../../../nde2/pull/types/Topic.html')" stroke="none">Topic</text>
    </g>
    <g fill="rgb(238,238,255)" transform="matrix(1,0,0,1,180,143)" stroke="rgb(238,238,255)">
      <rect width="59.1668" x="173.96" height="17.9688" y="-142.7037" stroke="none"/>
    </g>
    <g fill="rgb(166,166,178)" stroke-miterlimit="1.45" transform="matrix(1,0,0,1,180,143)" stroke-linecap="butt" stroke="rgb(166,166,178)">
      <rect fill="none" width="59.1668" x="173.96" height="17.9688" y="-142.7037"/>
    </g>
    <g fill="rgb(238,238,255)" transform="matrix(1,0,0,1,180,143)" stroke="rgb(238,238,255)">
      <rect width="150.0109" x="173.96" height="48.7349" y="-124.7349" stroke="none"/>
    </g>
    <g fill="rgb(166,166,178)" stroke-miterlimit="1.45" transform="matrix(1,0,0,1,180,143)" stroke-linecap="butt" stroke="rgb(166,166,178)">
      <rect fill="none" width="150.0109" x="173.96" height="48.7349" y="-124.7349"/>
    </g>
    <g font-family="sans-serif" transform="matrix(1,0,0,1,180,143)">
      <text xml:space="preserve" x="179.96" y="-129.5631" stroke="none">java.io</text>
    </g>
    <g fill="rgb(221,221,255)" transform="matrix(1,0,0,1,180,143)" stroke="rgb(221,221,255)">
      <rect x="181.96" y="-116.7037" clip-path="url(#clipPath6)" width="134.0109" height="32.7037" stroke="none"/>
    </g>
    <g fill="rgb(154,154,178)" stroke-miterlimit="1.45" transform="matrix(1,0,0,1,180,143)" stroke-linecap="butt" stroke="rgb(154,154,178)">
      <ellipse rx="67.0054" fill="none" ry="16.3518" cx="248.9654" cy="-100.3518"/>
    </g>
    <g font-style="italic" font-size="13" font-weight="bold" font-family="sans-serif" transform="matrix(1,0,0,1,180,143)">
      <text xml:space="preserve" x="206.9654" y="-95.8518" stroke="none">Serializable</text>
    </g>
    <g fill="rgb(238,238,255)" transform="matrix(1,0,0,1,180,143)" stroke="rgb(238,238,255)">
      <rect width="76.1412" x="70.28" height="17.9688" y="-133.125" stroke="none"/>
    </g>
    <g fill="rgb(166,166,178)" stroke-miterlimit="1.45" transform="matrix(1,0,0,1,180,143)" stroke-linecap="butt" stroke="rgb(166,166,178)">
      <rect fill="none" width="76.1412" x="70.28" height="17.9688" y="-133.125"/>
    </g>
    <g fill="rgb(238,238,255)" transform="matrix(1,0,0,1,180,143)" stroke="rgb(238,238,255)">
      <rect width="76.1412" x="70.28" height="39.1562" y="-115.1562" stroke="none"/>
    </g>
    <g fill="rgb(166,166,178)" stroke-miterlimit="1.45" transform="matrix(1,0,0,1,180,143)" stroke-linecap="butt" stroke="rgb(166,166,178)">
      <rect fill="none" width="76.1412" x="70.28" height="39.1562" y="-115.1562"/>
    </g>
    <g font-family="sans-serif" transform="matrix(1,0,0,1,180,143)">
      <text xml:space="preserve" x="76.28" y="-119.9844" stroke="none">java.lang</text>
    </g>
    <g fill="rgb(187,187,255)" transform="matrix(1,0,0,1,180,143)" stroke="rgb(187,187,255)">
      <rect x="78.28" y="-107.125" clip-path="url(#clipPath7)" width="57.68" height="23.125" stroke="none"/>
    </g>
    <g fill="rgb(130,130,178)" stroke-miterlimit="1.45" transform="matrix(1,0,0,1,180,143)" stroke-linecap="butt" stroke="rgb(130,130,178)">
      <rect fill="none" width="57.68" x="78.28" height="23.125" y="-107.125"/>
    </g>
    <g font-size="13" font-weight="bold" font-family="sans-serif" transform="matrix(1,0,0,1,180,143)">
      <text xml:space="preserve" x="83.12" y="-91.0625" stroke="none">Object</text>
    </g>
    <g fill="rgb(238,238,255)" transform="matrix(1,0,0,1,180,143)" stroke="rgb(238,238,255)">
      <rect width="118.5772" x="-8" height="17.9688" y="-26" stroke="none"/>
    </g>
    <g fill="rgb(166,166,178)" stroke-miterlimit="1.45" transform="matrix(1,0,0,1,180,143)" stroke-linecap="butt" stroke="rgb(166,166,178)">
      <rect fill="none" width="118.5772" x="-8" height="17.9688" y="-26"/>
    </g>
    <g fill="rgb(238,238,255)" transform="matrix(1,0,0,1,180,143)" stroke="rgb(238,238,255)">
      <rect width="230.24" x="-8" height="220.3281" y="-8.0312" stroke="none"/>
    </g>
    <g fill="rgb(166,166,178)" stroke-miterlimit="1.45" transform="matrix(1,0,0,1,180,143)" stroke-linecap="butt" stroke="rgb(166,166,178)">
      <rect fill="none" width="230.24" x="-8" height="220.3281" y="-8.0312"/>
    </g>
    <g font-family="sans-serif" transform="matrix(1,0,0,1,180,143)">
      <text xml:space="preserve" x="-2" y="-12.8594" onclick="umlload('package-summary.html')" stroke="none">nde2.pull.types</text>
    </g>
    <g fill="rgb(187,187,255)" transform="matrix(1,0,0,1,180,143)" stroke="rgb(187,187,255)">
      <rect x="0" y="0" clip-path="url(#clipPath8)" width="214.24" height="26.6406" stroke="none"/>
      <line clip-path="url(#clipPath8)" fill="none" x1="0" x2="214.24" y1="26.6406" y2="26.6406" stroke="black"/>
      <rect x="0" y="27.6406" clip-path="url(#clipPath8)" width="214.24" height="15.9688" stroke="none"/>
      <line clip-path="url(#clipPath8)" fill="none" x1="0" x2="214.24" y1="43.6094" y2="43.6094" stroke="black"/>
      <rect x="0" y="44.6094" clip-path="url(#clipPath8)" width="214.24" height="159.6875" stroke="none"/>
    </g>
    <g fill="rgb(130,130,178)" stroke-miterlimit="1.45" transform="matrix(1,0,0,1,180,143)" stroke-linecap="butt" stroke="rgb(130,130,178)">
      <rect fill="none" width="214.24" x="0" height="204.2969" y="0"/>
    </g>
    <g font-size="16" font-weight="bold" font-family="sans-serif" transform="matrix(1,0,0,1,180,143)">
      <text xml:space="preserve" x="51.12" y="18.8594" onclick="umlload('#')" stroke="none">DataSetItem</text>
    </g>
    <g font-family="sans-serif" transform="matrix(1,0,0,1,180,143)">
      <text xml:space="preserve" x="4" y="38.1719" stroke="none">+</text>
      <text xml:space="preserve" x="19" y="39.7812" onclick="umlload('#DataSetItem()')" stroke="none">DataSetItem()</text>
    </g>
    <g font-family="sans-serif" transform="matrix(1,0,0,1,180,143)">
      <text xml:space="preserve" x="4" y="55.1719" stroke="none">+</text>
      <text xml:space="preserve" x="19" y="56.75" onclick="umlload('#equals(java.lang.Object)')" stroke="none">equals(Object) : boolean</text>
    </g>
    <g font-family="sans-serif" transform="matrix(1,0,0,1,180,143)">
      <text xml:space="preserve" x="4" y="71.1719" stroke="none">+</text>
      <text xml:space="preserve" x="19" y="72.7188" onclick="umlload('#getBoundary()')" stroke="none">getBoundary() : Boundary</text>
    </g>
    <g font-family="sans-serif" transform="matrix(1,0,0,1,180,143)">
      <text xml:space="preserve" x="4" y="87.1719" stroke="none">+</text>
      <text xml:space="preserve" x="19" y="88.6875" onclick="umlload('#getPeriod()')" stroke="none">getPeriod() : Period</text>
    </g>
    <g font-family="sans-serif" transform="matrix(1,0,0,1,180,143)">
      <text xml:space="preserve" x="4" y="103.1719" stroke="none">+</text>
      <text xml:space="preserve" x="19" y="104.6562" onclick="umlload('#getTopic()')" stroke="none">getTopic() : Topic</text>
    </g>
    <g font-family="sans-serif" transform="matrix(1,0,0,1,180,143)">
      <text xml:space="preserve" x="4" y="119.1719" stroke="none">+</text>
      <text xml:space="preserve" x="19" y="120.625" onclick="umlload('#getValue()')" stroke="none">getValue() : float</text>
    </g>
    <g font-family="sans-serif" transform="matrix(1,0,0,1,180,143)">
      <text xml:space="preserve" x="4" y="135.1719" stroke="none">+</text>
      <text xml:space="preserve" x="19" y="136.5938" onclick="umlload('#hashCode()')" stroke="none">hashCode() : int</text>
    </g>
    <g font-family="sans-serif" transform="matrix(1,0,0,1,180,143)">
      <text xml:space="preserve" x="4" y="151.1719" stroke="none">+</text>
      <text xml:space="preserve" x="19" y="152.5625" onclick="umlload('#setBoundary(nde2.pull.types.Boundary)')" stroke="none">setBoundary(Boundary) : void</text>
    </g>
    <g font-family="sans-serif" transform="matrix(1,0,0,1,180,143)">
      <text xml:space="preserve" x="4" y="167.1719" stroke="none">+</text>
      <text xml:space="preserve" x="19" y="168.5312" onclick="umlload('#setPeriod(nde2.pull.types.Period)')" stroke="none">setPeriod(Period) : void</text>
    </g>
    <g font-family="sans-serif" transform="matrix(1,0,0,1,180,143)">
      <text xml:space="preserve" x="4" y="183.1719" stroke="none">+</text>
      <text xml:space="preserve" x="19" y="184.5" onclick="umlload('#setTopic(nde2.pull.types.Topic)')" stroke="none">setTopic(Topic) : void</text>
    </g>
    <g font-family="sans-serif" transform="matrix(1,0,0,1,180,143)">
      <text xml:space="preserve" x="4" y="199.1719" stroke="none">+</text>
      <text xml:space="preserve" x="19" y="200.4688" onclick="umlload('#setValue(float)')" stroke="none">setValue(float) : void</text>
    </g>
    <g font-family="sans-serif" transform="matrix(1,0,0,1,180,143)">
      <text xml:space="preserve" x="-174" y="237.1562" onclick="umlload('http://www.yworks.com/')" stroke="none">yWorks UML Doclet</text>
    </g>
    <g stroke-miterlimit="1.45" transform="matrix(1,0,0,1,180,143)" stroke-linecap="butt">
      <path fill="none" d="M107.12 0 L107.12 -69"/>
      <path fill="white" d="M107.12 -84 L101.12 -68 L113.12 -68 Z" stroke="none"/>
      <path fill="none" d="M107.12 -84 L101.12 -68 L113.12 -68 Z"/>
      <path fill="none" stroke-dasharray="6,2" d="M160.68 0.037 L160.68 -51 L248.9654 -51 L248.9654 -69"/>
      <path fill="white" stroke-dasharray="6,2" d="M248.9654 -84 L242.9654 -68 L254.9654 -68 Z" stroke="none"/>
      <path fill="none" d="M248.9654 -84 L242.9654 -68 L254.9654 -68 Z"/>
      <path fill="none" d="M-0.0248 11.5625 L-90.9 11.5625"/>
      <line stroke-linecap="square" transform="matrix(-1,0,0,-1,-90.9,11.5625)" fill="none" x1="0" x2="-14" y1="0" y2="-4" stroke-miterlimit="10"/>
      <line stroke-linecap="square" transform="matrix(-1,0,0,-1,-90.9,11.5625)" fill="none" x1="0" x2="-14" y1="0" y2="4" stroke-miterlimit="10"/>
    </g>
    <g stroke-miterlimit="1.45" transform="matrix(1,0,0,1,180,143)" stroke-linecap="butt">
      <path fill="none" d="M-0.0042 44.6875 L-113.56 44.6875"/>
      <line stroke-linecap="square" transform="matrix(-1,0,0,-1,-113.56,44.6875)" fill="none" x1="0" x2="-14" y1="0" y2="-4" stroke-miterlimit="10"/>
      <line stroke-linecap="square" transform="matrix(-1,0,0,-1,-113.56,44.6875)" fill="none" x1="0" x2="-14" y1="0" y2="4" stroke-miterlimit="10"/>
    </g>
    <g stroke-miterlimit="1.45" transform="matrix(1,0,0,1,180,143)" stroke-linecap="butt">
      <path fill="none" d="M-0.0086 77.8125 L-122.83 77.8125"/>
      <line stroke-linecap="square" transform="matrix(-1,0,0,-1,-122.83,77.8125)" fill="none" x1="0" x2="-14" y1="0" y2="-4" stroke-miterlimit="10"/>
      <line stroke-linecap="square" transform="matrix(-1,0,0,-1,-122.83,77.8125)" fill="none" x1="0" x2="-14" y1="0" y2="4" stroke-miterlimit="10"/>
    </g>
    <g stroke-dasharray="6,2" stroke-miterlimit="1.45" transform="matrix(1,0,0,1,180,143)" stroke-linecap="butt">
      <path fill="none" d="M214.2633 11.5625 L280.24 11.5625"/>
      <line stroke-linecap="square" transform="matrix(1,0,0,1,280.24,11.5625)" fill="none" x1="0" x2="-14" y1="0" y2="-4" stroke-dasharray="none" stroke-miterlimit="10"/>
      <line stroke-linecap="square" transform="matrix(1,0,0,1,280.24,11.5625)" fill="none" x1="0" x2="-14" y1="0" y2="4" stroke-dasharray="none" stroke-miterlimit="10"/>
    </g>
  </g>
</svg>
