<?xml version="1.0" encoding="UTF-8"?>
<svg xmlns="http://www.w3.org/2000/svg" xmlns:xlink="http://www.w3.org/1999/xlink" fill-opacity="1" color-rendering="auto" color-interpolation="auto" stroke="black" text-rendering="auto" stroke-linecap="square" width="715" stroke-miterlimit="10" stroke-opacity="1" shape-rendering="auto" fill="black" stroke-dasharray="none" font-weight="normal" stroke-width="1" height="598" font-family="'Dialog'" font-style="normal" stroke-linejoin="miter" font-size="12" stroke-dashoffset="0" image-rendering="auto">
  <!--Generated by ySVG-->
  <defs id="genericDefs"/>
  <g>
    <defs id="defs1">
      <clipPath clipPathUnits="userSpaceOnUse" id="clipPath1">
        <path d="M0 0 L715 0 L715 598 L0 598 L0 0 Z"/>
      </clipPath>
      <clipPath clipPathUnits="userSpaceOnUse" id="clipPath2">
        <path d="M394.57 87.125 L474.91 87.125 L474.91 110.25 L394.57 110.25 L394.57 87.125 Z"/>
      </clipPath>
      <clipPath clipPathUnits="userSpaceOnUse" id="clipPath3">
        <path d="M394.57 120.25 L452.25 120.25 L452.25 143.375 L394.57 143.375 L394.57 120.25 Z"/>
      </clipPath>
      <clipPath clipPathUnits="userSpaceOnUse" id="clipPath4">
        <path d="M394.57 153.375 L442.98 153.375 L442.98 176.5 L394.57 176.5 L394.57 153.375 Z"/>
      </clipPath>
      <clipPath clipPathUnits="userSpaceOnUse" id="clipPath5">
        <path d="M394.57 0 L452.25 0 L452.25 23.125 L394.57 23.125 L394.57 0 Z"/>
      </clipPath>
      <clipPath clipPathUnits="userSpaceOnUse" id="clipPath6">
        <path d="M-66 103.4768 C-66 112.5077 -95.6733 119.8287 -132.2771 119.8287 C-168.881 119.8287 -198.5542 112.5077 -198.5542 103.4768 C-198.5542 94.446 -168.881 87.125 -132.2771 87.125 C-95.6733 87.125 -66 94.446 -66 103.4768 Z"/>
      </clipPath>
      <clipPath clipPathUnits="userSpaceOnUse" id="clipPath7">
        <path d="M-106.7859 146.1805 C-106.7859 155.2114 -127.329 162.5324 -152.6701 162.5324 C-178.0112 162.5324 -198.5542 155.2114 -198.5542 146.1805 C-198.5542 137.1497 -178.0112 129.8287 -152.6701 129.8287 C-127.329 129.8287 -106.7859 137.1497 -106.7859 146.1805 Z"/>
      </clipPath>
      <clipPath clipPathUnits="userSpaceOnUse" id="clipPath8">
        <path d="M-130.04 0 L-76.48 0 L-76.48 23.125 L-130.04 23.125 L-130.04 0 Z"/>
      </clipPath>
      <clipPath clipPathUnits="userSpaceOnUse" id="clipPath9">
        <path d="M373.1359 -100.3518 C373.1359 -91.321 343.1365 -84 306.1304 -84 C269.1244 -84 239.125 -91.321 239.125 -100.3518 C239.125 -109.3827 269.1244 -116.7037 306.1304 -116.7037 C343.1365 -116.7037 373.1359 -109.3827 373.1359 -100.3518 Z"/>
      </clipPath>
      <clipPath clipPathUnits="userSpaceOnUse" id="clipPath10">
        <path d="M135.445 -107.125 L193.125 -107.125 L193.125 -84 L135.445 -84 L135.445 -107.125 Z"/>
      </clipPath>
      <clipPath clipPathUnits="userSpaceOnUse" id="clipPath11">
        <path d="M0 0 L328.57 0 L328.57 411.8906 L0 411.8906 L0 0 Z"/>
      </clipPath>
      <script type="text/ecmascript"><![CDATA[
function umlload(newLocation)
{
if (newLocation.charAt(0) != '#') {
if (newLocation.indexOf("://") > -1) {
window.parent.location.href = newLocation;
} else {
var tmp = window.parent.location.href;
tmp = tmp.substring(0, tmp.lastIndexOf("/") + 1);
window.parent.location.href = tmp.concat(newLocation);
}
} else {
window.parent.location.hash = newLocation;
}
}
]]></script>
    </defs>
    <g fill="rgb(238,238,255)" transform="matrix(1,0,0,1,207,143)" stroke="rgb(238,238,255)">
      <rect width="118.5772" x="386.57" height="17.9688" y="61.125" stroke="none"/>
    </g>
    <g fill="rgb(166,166,178)" stroke-miterlimit="1.45" transform="matrix(1,0,0,1,207,143)" stroke-linecap="butt" stroke="rgb(166,166,178)">
      <rect fill="none" width="118.5772" x="386.57" height="17.9688" y="61.125"/>
    </g>
    <g fill="rgb(238,238,255)" transform="matrix(1,0,0,1,207,143)" stroke="rgb(238,238,255)">
      <rect width="121.34" x="386.57" height="105.4062" y="79.0938" stroke="none"/>
    </g>
    <g fill="rgb(166,166,178)" stroke-miterlimit="1.45" transform="matrix(1,0,0,1,207,143)" stroke-linecap="butt" stroke="rgb(166,166,178)">
      <rect fill="none" width="121.34" x="386.57" height="105.4062" y="79.0938"/>
    </g>
    <g font-family="sans-serif" transform="matrix(1,0,0,1,207,143)">
      <text xml:space="preserve" x="392.57" y="74.2656" onclick="umlload('../../../nde2/pull/types/package-summary.html')" stroke="none">nde2.pull.types</text>
    </g>
    <g fill="rgb(187,187,255)" transform="matrix(1,0,0,1,207,143)" stroke="rgb(187,187,255)">
      <rect x="394.57" y="87.125" clip-path="url(#clipPath2)" width="80.34" height="23.125" stroke="none"/>
    </g>
    <g fill="rgb(130,130,178)" stroke-miterlimit="1.45" transform="matrix(1,0,0,1,207,143)" stroke-linecap="butt" stroke="rgb(130,130,178)">
      <rect fill="none" width="80.34" x="394.57" height="23.125" y="87.125"/>
    </g>
    <g font-size="13" font-weight="bold" font-family="sans-serif" transform="matrix(1,0,0,1,207,143)">
      <text xml:space="preserve" x="399.74" y="103.1875" onclick="umlload('../../../nde2/pull/types/Boundary.html')" stroke="none">Boundary</text>
    </g>
    <g fill="rgb(187,187,255)" transform="matrix(1,0,0,1,207,143)" stroke="rgb(187,187,255)">
      <rect x="394.57" y="120.25" clip-path="url(#clipPath3)" width="57.68" height="23.125" stroke="none"/>
    </g>
    <g fill="rgb(130,130,178)" stroke-miterlimit="1.45" transform="matrix(1,0,0,1,207,143)" stroke-linecap="butt" stroke="rgb(130,130,178)">
      <rect fill="none" width="57.68" x="394.57" height="23.125" y="120.25"/>
    </g>
    <g font-size="13" font-weight="bold" font-family="sans-serif" transform="matrix(1,0,0,1,207,143)">
      <text xml:space="preserve" x="399.41" y="136.3125" onclick="umlload('../../../nde2/pull/types/Period.html')" stroke="none">Period</text>
    </g>
    <g fill="rgb(187,187,255)" transform="matrix(1,0,0,1,207,143)" stroke="rgb(187,187,255)">
      <rect x="394.57" y="153.375" clip-path="url(#clipPath4)" width="48.41" height="23.125" stroke="none"/>
    </g>
    <g fill="rgb(130,130,178)" stroke-miterlimit="1.45" transform="matrix(1,0,0,1,207,143)" stroke-linecap="butt" stroke="rgb(130,130,178)">
      <rect fill="none" width="48.41" x="394.57" height="23.125" y="153.375"/>
    </g>
    <g font-size="13" font-weight="bold" font-family="sans-serif" transform="matrix(1,0,0,1,207,143)">
      <text xml:space="preserve" x="399.275" y="169.4375" onclick="umlload('../../../nde2/pull/types/Topic.html')" stroke="none">Topic</text>
    </g>
    <g fill="rgb(238,238,255)" transform="matrix(1,0,0,1,207,143)" stroke="rgb(238,238,255)">
      <rect width="76.1412" x="386.57" height="17.9688" y="-26" stroke="none"/>
    </g>
    <g fill="rgb(166,166,178)" stroke-miterlimit="1.45" transform="matrix(1,0,0,1,207,143)" stroke-linecap="butt" stroke="rgb(166,166,178)">
      <rect fill="none" width="76.1412" x="386.57" height="17.9688" y="-26"/>
    </g>
    <g fill="rgb(238,238,255)" transform="matrix(1,0,0,1,207,143)" stroke="rgb(238,238,255)">
      <rect width="79.68" x="386.57" height="39.1562" y="-8.0312" stroke="none"/>
    </g>
    <g fill="rgb(166,166,178)" stroke-miterlimit="1.45" transform="matrix(1,0,0,1,207,143)" stroke-linecap="butt" stroke="rgb(166,166,178)">
      <rect fill="none" width="79.68" x="386.57" height="39.1562" y="-8.0312"/>
    </g>
    <g font-family="sans-serif" transform="matrix(1,0,0,1,207,143)">
      <text xml:space="preserve" x="392.57" y="-12.8594" stroke="none">java.lang</text>
    </g>
    <g fill="rgb(187,187,255)" transform="matrix(1,0,0,1,207,143)" stroke="rgb(187,187,255)">
      <rect x="394.57" y="0" clip-path="url(#clipPath5)" width="57.68" height="23.125" stroke="none"/>
    </g>
    <g fill="rgb(130,130,178)" stroke-miterlimit="1.45" transform="matrix(1,0,0,1,207,143)" stroke-linecap="butt" stroke="rgb(130,130,178)">
      <rect fill="none" width="57.68" x="394.57" height="23.125" y="0"/>
    </g>
    <g font-size="13" font-weight="bold" font-family="sans-serif" transform="matrix(1,0,0,1,207,143)">
      <text xml:space="preserve" x="399.41" y="16.0625" stroke="none">Object</text>
    </g>
    <g fill="rgb(238,238,255)" transform="matrix(1,0,0,1,207,143)" stroke="rgb(238,238,255)">
      <rect width="67.654" x="-206.5542" height="17.9688" y="61.125" stroke="none"/>
    </g>
    <g fill="rgb(166,166,178)" stroke-miterlimit="1.45" transform="matrix(1,0,0,1,207,143)" stroke-linecap="butt" stroke="rgb(166,166,178)">
      <rect fill="none" width="67.654" x="-206.5542" height="17.9688" y="61.125"/>
    </g>
    <g fill="rgb(238,238,255)" transform="matrix(1,0,0,1,207,143)" stroke="rgb(238,238,255)">
      <rect width="148.5542" x="-206.5542" height="91.4386" y="79.0938" stroke="none"/>
    </g>
    <g fill="rgb(166,166,178)" stroke-miterlimit="1.45" transform="matrix(1,0,0,1,207,143)" stroke-linecap="butt" stroke="rgb(166,166,178)">
      <rect fill="none" width="148.5542" x="-206.5542" height="91.4386" y="79.0938"/>
    </g>
    <g font-family="sans-serif" transform="matrix(1,0,0,1,207,143)">
      <text xml:space="preserve" x="-200.5542" y="74.2656" stroke="none">java.util</text>
    </g>
    <g fill="rgb(221,221,255)" transform="matrix(1,0,0,1,207,143)" stroke="rgb(221,221,255)">
      <rect x="-198.5542" y="87.125" clip-path="url(#clipPath6)" width="132.5542" height="32.7037" stroke="none"/>
    </g>
    <g fill="rgb(154,154,178)" stroke-miterlimit="1.45" transform="matrix(1,0,0,1,207,143)" stroke-linecap="butt" stroke="rgb(154,154,178)">
      <ellipse rx="66.2771" fill="none" ry="16.3518" cx="-132.2771" cy="103.4768"/>
    </g>
    <g font-style="italic" font-size="13" font-weight="bold" font-family="sans-serif" transform="matrix(1,0,0,1,207,143)">
      <text xml:space="preserve" x="-173.7771" y="107.9768" stroke="none">Map&lt;K, V&gt;</text>
    </g>
    <g fill="rgb(221,221,255)" transform="matrix(1,0,0,1,207,143)" stroke="rgb(221,221,255)">
      <rect x="-198.5542" y="129.8287" clip-path="url(#clipPath7)" width="91.7683" height="32.7037" stroke="none"/>
    </g>
    <g fill="rgb(154,154,178)" stroke-miterlimit="1.45" transform="matrix(1,0,0,1,207,143)" stroke-linecap="butt" stroke="rgb(154,154,178)">
      <ellipse rx="45.8842" fill="none" ry="16.3518" cx="-152.6701" cy="146.1805"/>
    </g>
    <g font-style="italic" font-size="13" font-weight="bold" font-family="sans-serif" transform="matrix(1,0,0,1,207,143)">
      <text xml:space="preserve" x="-180.1701" y="150.6805" stroke="none">Set&lt;E&gt;</text>
    </g>
    <g fill="rgb(238,238,255)" transform="matrix(1,0,0,1,207,143)" stroke="rgb(238,238,255)">
      <rect width="76.1412" x="-138.04" height="17.9688" y="-26" stroke="none"/>
    </g>
    <g fill="rgb(166,166,178)" stroke-miterlimit="1.45" transform="matrix(1,0,0,1,207,143)" stroke-linecap="butt" stroke="rgb(166,166,178)">
      <rect fill="none" width="76.1412" x="-138.04" height="17.9688" y="-26"/>
    </g>
    <g fill="rgb(238,238,255)" transform="matrix(1,0,0,1,207,143)" stroke="rgb(238,238,255)">
      <rect width="79.56" x="-138.04" height="39.1562" y="-8.0312" stroke="none"/>
    </g>
    <g fill="rgb(166,166,178)" stroke-miterlimit="1.45" transform="matrix(1,0,0,1,207,143)" stroke-linecap="butt" stroke="rgb(166,166,178)">
      <rect fill="none" width="79.56" x="-138.04" height="39.1562" y="-8.0312"/>
    </g>
    <g font-family="sans-serif" transform="matrix(1,0,0,1,207,143)">
      <text xml:space="preserve" x="-132.04" y="-12.8594" stroke="none">java.lang</text>
    </g>
    <g fill="rgb(187,187,255)" transform="matrix(1,0,0,1,207,143)" stroke="rgb(187,187,255)">
      <rect x="-130.04" y="0" clip-path="url(#clipPath8)" width="53.56" height="23.125" stroke="none"/>
    </g>
    <g fill="rgb(130,130,178)" stroke-miterlimit="1.45" transform="matrix(1,0,0,1,207,143)" stroke-linecap="butt" stroke="rgb(130,130,178)">
      <rect fill="none" width="53.56" x="-130.04" height="23.125" y="0"/>
    </g>
    <g font-size="13" font-weight="bold" font-family="sans-serif" transform="matrix(1,0,0,1,207,143)">
      <text xml:space="preserve" x="-125.26" y="16.0625" stroke="none">String</text>
    </g>
    <g fill="rgb(238,238,255)" transform="matrix(1,0,0,1,207,143)" stroke="rgb(238,238,255)">
      <rect width="59.1668" x="231.125" height="17.9688" y="-142.7037" stroke="none"/>
    </g>
    <g fill="rgb(166,166,178)" stroke-miterlimit="1.45" transform="matrix(1,0,0,1,207,143)" stroke-linecap="butt" stroke="rgb(166,166,178)">
      <rect fill="none" width="59.1668" x="231.125" height="17.9688" y="-142.7037"/>
    </g>
    <g fill="rgb(238,238,255)" transform="matrix(1,0,0,1,207,143)" stroke="rgb(238,238,255)">
      <rect width="150.0109" x="231.125" height="48.7349" y="-124.7349" stroke="none"/>
    </g>
    <g fill="rgb(166,166,178)" stroke-miterlimit="1.45" transform="matrix(1,0,0,1,207,143)" stroke-linecap="butt" stroke="rgb(166,166,178)">
      <rect fill="none" width="150.0109" x="231.125" height="48.7349" y="-124.7349"/>
    </g>
    <g font-family="sans-serif" transform="matrix(1,0,0,1,207,143)">
      <text xml:space="preserve" x="237.125" y="-129.5631" stroke="none">java.io</text>
    </g>
    <g fill="rgb(221,221,255)" transform="matrix(1,0,0,1,207,143)" stroke="rgb(221,221,255)">
      <rect x="239.125" y="-116.7037" clip-path="url(#clipPath9)" width="134.0109" height="32.7037" stroke="none"/>
    </g>
    <g fill="rgb(154,154,178)" stroke-miterlimit="1.45" transform="matrix(1,0,0,1,207,143)" stroke-linecap="butt" stroke="rgb(154,154,178)">
      <ellipse rx="67.0054" fill="none" ry="16.3518" cx="306.1304" cy="-100.3518"/>
    </g>
    <g font-style="italic" font-size="13" font-weight="bold" font-family="sans-serif" transform="matrix(1,0,0,1,207,143)">
      <text xml:space="preserve" x="264.1304" y="-95.8518" stroke="none">Serializable</text>
    </g>
    <g fill="rgb(238,238,255)" transform="matrix(1,0,0,1,207,143)" stroke="rgb(238,238,255)">
      <rect width="76.1412" x="127.445" height="17.9688" y="-133.125" stroke="none"/>
    </g>
    <g fill="rgb(166,166,178)" stroke-miterlimit="1.45" transform="matrix(1,0,0,1,207,143)" stroke-linecap="butt" stroke="rgb(166,166,178)">
      <rect fill="none" width="76.1412" x="127.445" height="17.9688" y="-133.125"/>
    </g>
    <g fill="rgb(238,238,255)" transform="matrix(1,0,0,1,207,143)" stroke="rgb(238,238,255)">
      <rect width="76.1412" x="127.445" height="39.1562" y="-115.1562" stroke="none"/>
    </g>
    <g fill="rgb(166,166,178)" stroke-miterlimit="1.45" transform="matrix(1,0,0,1,207,143)" stroke-linecap="butt" stroke="rgb(166,166,178)">
      <rect fill="none" width="76.1412" x="127.445" height="39.1562" y="-115.1562"/>
    </g>
    <g font-family="sans-serif" transform="matrix(1,0,0,1,207,143)">
      <text xml:space="preserve" x="133.445" y="-119.9844" stroke="none">java.lang</text>
    </g>
    <g fill="rgb(187,187,255)" transform="matrix(1,0,0,1,207,143)" stroke="rgb(187,187,255)">
      <rect x="135.445" y="-107.125" clip-path="url(#clipPath10)" width="57.68" height="23.125" stroke="none"/>
    </g>
    <g fill="rgb(130,130,178)" stroke-miterlimit="1.45" transform="matrix(1,0,0,1,207,143)" stroke-linecap="butt" stroke="rgb(130,130,178)">
      <rect fill="none" width="57.68" x="135.445" height="23.125" y="-107.125"/>
    </g>
    <g font-size="13" font-weight="bold" font-family="sans-serif" transform="matrix(1,0,0,1,207,143)">
      <text xml:space="preserve" x="140.285" y="-91.0625" stroke="none">Object</text>
    </g>
    <g fill="rgb(238,238,255)" transform="matrix(1,0,0,1,207,143)" stroke="rgb(238,238,255)">
      <rect width="118.5772" x="-8" height="17.9688" y="-26" stroke="none"/>
    </g>
    <g fill="rgb(166,166,178)" stroke-miterlimit="1.45" transform="matrix(1,0,0,1,207,143)" stroke-linecap="butt" stroke="rgb(166,166,178)">
      <rect fill="none" width="118.5772" x="-8" height="17.9688" y="-26"/>
    </g>
    <g fill="rgb(238,238,255)" transform="matrix(1,0,0,1,207,143)" stroke="rgb(238,238,255)">
      <rect width="344.57" x="-8" height="427.9219" y="-8.0312" stroke="none"/>
    </g>
    <g fill="rgb(166,166,178)" stroke-miterlimit="1.45" transform="matrix(1,0,0,1,207,143)" stroke-linecap="butt" stroke="rgb(166,166,178)">
      <rect fill="none" width="344.57" x="-8" height="427.9219" y="-8.0312"/>
    </g>
    <g font-family="sans-serif" transform="matrix(1,0,0,1,207,143)">
      <text xml:space="preserve" x="-2" y="-12.8594" onclick="umlload('package-summary.html')" stroke="none">nde2.pull.types</text>
    </g>
    <g fill="rgb(187,187,255)" transform="matrix(1,0,0,1,207,143)" stroke="rgb(187,187,255)">
      <rect x="0" y="0" clip-path="url(#clipPath11)" width="328.57" height="26.6406" stroke="none"/>
      <line clip-path="url(#clipPath11)" fill="none" x1="0" x2="328.57" y1="26.6406" y2="26.6406" stroke="black"/>
      <rect x="0" y="27.6406" clip-path="url(#clipPath11)" width="328.57" height="15.9688" stroke="none"/>
      <line clip-path="url(#clipPath11)" fill="none" x1="0" x2="328.57" y1="43.6094" y2="43.6094" stroke="black"/>
      <rect x="0" y="44.6094" clip-path="url(#clipPath11)" width="328.57" height="367.2812" stroke="none"/>
    </g>
    <g fill="rgb(130,130,178)" stroke-miterlimit="1.45" transform="matrix(1,0,0,1,207,143)" stroke-linecap="butt" stroke="rgb(130,130,178)">
      <rect fill="none" width="328.57" x="0" height="411.8906" y="0"/>
    </g>
    <g font-size="16" font-weight="bold" font-family="sans-serif" transform="matrix(1,0,0,1,207,143)">
      <text xml:space="preserve" x="129.285" y="18.8594" onclick="umlload('#')" stroke="none">Dataset</text>
    </g>
    <g font-family="sans-serif" transform="matrix(1,0,0,1,207,143)">
      <text xml:space="preserve" x="4" y="38.1719" stroke="none">+</text>
      <text xml:space="preserve" x="19" y="39.7812" onclick="umlload('#Dataset()')" stroke="none">Dataset()</text>
    </g>
    <g font-family="sans-serif" transform="matrix(1,0,0,1,207,143)">
      <text xml:space="preserve" x="4" y="55.1719" stroke="none">+</text>
      <text xml:space="preserve" x="19" y="56.75" onclick="umlload('#equals(java.lang.Object)')" stroke="none">equals(Object) : boolean</text>
    </g>
    <g font-family="sans-serif" transform="matrix(1,0,0,1,207,143)">
      <text xml:space="preserve" x="4" y="71.1719" stroke="none">+</text>
      <text xml:space="preserve" x="19" y="72.7188" onclick="umlload('#getBoundaries()')" stroke="none">getBoundaries() : Map&lt;Integer, Boundary&gt;</text>
    </g>
    <g font-family="sans-serif" transform="matrix(1,0,0,1,207,143)">
      <text xml:space="preserve" x="4" y="87.1719" stroke="none">+</text>
      <text xml:space="preserve" x="19" y="88.6875" onclick="umlload('#getCreator()')" stroke="none">getCreator() : String</text>
    </g>
    <g font-family="sans-serif" transform="matrix(1,0,0,1,207,143)">
      <text xml:space="preserve" x="4" y="103.1719" stroke="none">+</text>
      <text xml:space="preserve" x="19" y="104.6562" onclick="umlload('#getDescription()')" stroke="none">getDescription() : String</text>
    </g>
    <g font-family="sans-serif" transform="matrix(1,0,0,1,207,143)">
      <text xml:space="preserve" x="4" y="119.1719" stroke="none">+</text>
      <text xml:space="preserve" x="19" y="120.625" onclick="umlload('#getFamilyId()')" stroke="none">getFamilyId() : int</text>
    </g>
    <g font-family="sans-serif" transform="matrix(1,0,0,1,207,143)">
      <text xml:space="preserve" x="4" y="135.1719" stroke="none">+</text>
      <text xml:space="preserve" x="19" y="136.5938" onclick="umlload('#getItems()')" stroke="none">getItems() : Set&lt;DataSetItem&gt;</text>
    </g>
    <g font-family="sans-serif" transform="matrix(1,0,0,1,207,143)">
      <text xml:space="preserve" x="4" y="151.1719" stroke="none">+</text>
      <text xml:space="preserve" x="19" y="152.5625" onclick="umlload('#getItems(nde2.pull.types.Boundary)')" stroke="none">getItems(Boundary) : Set&lt;DataSetItem&gt;</text>
    </g>
    <g font-family="sans-serif" transform="matrix(1,0,0,1,207,143)">
      <text xml:space="preserve" x="4" y="167.1719" stroke="none">+</text>
      <text xml:space="preserve" x="19" y="168.5312" onclick="umlload('#getItems(nde2.pull.types.Period)')" stroke="none">getItems(Period) : Set&lt;DataSetItem&gt;</text>
    </g>
    <g font-family="sans-serif" transform="matrix(1,0,0,1,207,143)">
      <text xml:space="preserve" x="4" y="183.1719" stroke="none">+</text>
      <text xml:space="preserve" x="19" y="184.5" onclick="umlload('#getItems(nde2.pull.types.Topic)')" stroke="none">getItems(Topic) : Set&lt;DataSetItem&gt;</text>
    </g>
    <g font-family="sans-serif" transform="matrix(1,0,0,1,207,143)">
      <text xml:space="preserve" x="4" y="199.1719" stroke="none">+</text>
      <text xml:space="preserve" x="19" y="200.4688" onclick="umlload('#getPeriods()')" stroke="none">getPeriods() : Map&lt;Integer, Period&gt;</text>
    </g>
    <g font-family="sans-serif" transform="matrix(1,0,0,1,207,143)">
      <text xml:space="preserve" x="4" y="215.1719" stroke="none">+</text>
      <text xml:space="preserve" x="19" y="216.4375" onclick="umlload('#getSubjectCategory()')" stroke="none">getSubjectCategory() : String</text>
    </g>
    <g font-family="sans-serif" transform="matrix(1,0,0,1,207,143)">
      <text xml:space="preserve" x="4" y="231.1719" stroke="none">+</text>
      <text xml:space="preserve" x="19" y="232.4062" onclick="umlload('#getTitle()')" stroke="none">getTitle() : String</text>
    </g>
    <g font-family="sans-serif" transform="matrix(1,0,0,1,207,143)">
      <text xml:space="preserve" x="4" y="247.1719" stroke="none">+</text>
      <text xml:space="preserve" x="19" y="248.375" onclick="umlload('#getTopics()')" stroke="none">getTopics() : Map&lt;Integer, Topic&gt;</text>
    </g>
    <g font-family="sans-serif" transform="matrix(1,0,0,1,207,143)">
      <text xml:space="preserve" x="4" y="263.1719" stroke="none">+</text>
      <text xml:space="preserve" x="19" y="264.3438" onclick="umlload('#hashCode()')" stroke="none">hashCode() : int</text>
    </g>
    <g font-family="sans-serif" transform="matrix(1,0,0,1,207,143)">
      <text xml:space="preserve" x="4" y="279.1719" stroke="none">+</text>
      <text xml:space="preserve" x="19" y="280.3125" onclick="umlload('#setBoundaries(java.util.Map)')" stroke="none">setBoundaries(Map&lt;Integer, Boundary&gt;) : void</text>
    </g>
    <g font-family="sans-serif" transform="matrix(1,0,0,1,207,143)">
      <text xml:space="preserve" x="4" y="295.1719" stroke="none">+</text>
      <text xml:space="preserve" x="19" y="296.2812" onclick="umlload('#setCreator(java.lang.String)')" stroke="none">setCreator(String) : void</text>
    </g>
    <g font-family="sans-serif" transform="matrix(1,0,0,1,207,143)">
      <text xml:space="preserve" x="4" y="311.1719" stroke="none">+</text>
      <text xml:space="preserve" x="19" y="312.25" onclick="umlload('#setDescription(java.lang.String)')" stroke="none">setDescription(String) : void</text>
    </g>
    <g font-family="sans-serif" transform="matrix(1,0,0,1,207,143)">
      <text xml:space="preserve" x="4" y="327.1719" stroke="none">+</text>
      <text xml:space="preserve" x="19" y="328.2188" onclick="umlload('#setFamilyId(int)')" stroke="none">setFamilyId(int) : void</text>
    </g>
    <g font-family="sans-serif" transform="matrix(1,0,0,1,207,143)">
      <text xml:space="preserve" x="4" y="343.1719" stroke="none">+</text>
      <text xml:space="preserve" x="19" y="344.1875" onclick="umlload('#setItems(java.util.Set)')" stroke="none">setItems(Set&lt;DataSetItem&gt;) : void</text>
    </g>
    <g font-family="sans-serif" transform="matrix(1,0,0,1,207,143)">
      <text xml:space="preserve" x="4" y="359.1719" stroke="none">+</text>
      <text xml:space="preserve" x="19" y="360.1562" onclick="umlload('#setPeriods(java.util.Map)')" stroke="none">setPeriods(Map&lt;Integer, Period&gt;) : void</text>
    </g>
    <g font-family="sans-serif" transform="matrix(1,0,0,1,207,143)">
      <text xml:space="preserve" x="4" y="374.1719" stroke="none">+</text>
      <text xml:space="preserve" x="19" y="376.125" onclick="umlload('#setSubjectCategory(java.lang.String)')" stroke="none">setSubjectCategory(String) : void</text>
    </g>
    <g font-family="sans-serif" transform="matrix(1,0,0,1,207,143)">
      <text xml:space="preserve" x="4" y="390.1719" stroke="none">+</text>
      <text xml:space="preserve" x="19" y="392.0938" onclick="umlload('#setTitle(java.lang.String)')" stroke="none">setTitle(String) : void</text>
    </g>
    <g font-family="sans-serif" transform="matrix(1,0,0,1,207,143)">
      <text xml:space="preserve" x="4" y="406.1719" stroke="none">+</text>
      <text xml:space="preserve" x="19" y="408.0625" onclick="umlload('#setTopics(java.util.Map)')" stroke="none">setTopics(Map&lt;Integer, Topic&gt;) : void</text>
    </g>
    <g font-family="sans-serif" transform="matrix(1,0,0,1,207,143)">
      <text xml:space="preserve" x="-201" y="444.1562" onclick="umlload('http://www.yworks.com/')" stroke="none">yWorks UML Doclet</text>
    </g>
    <g stroke-miterlimit="1.45" transform="matrix(1,0,0,1,207,143)" stroke-linecap="butt">
      <path fill="none" d="M164.285 0 L164.285 -69"/>
      <path fill="white" d="M164.285 -84 L158.285 -68 L170.285 -68 Z" stroke="none"/>
      <path fill="none" d="M164.285 -84 L158.285 -68 L170.285 -68 Z"/>
      <path fill="none" stroke-dasharray="6,2" d="M246.4275 -0.0312 L246.4275 -51 L306.1304 -51 L306.1304 -69"/>
      <path fill="white" stroke-dasharray="6,2" d="M306.1304 -84 L300.1304 -68 L312.1304 -68 Z" stroke="none"/>
      <path fill="none" d="M306.1304 -84 L300.1304 -68 L312.1304 -68 Z"/>
      <path fill="none" d="M-0.0239 11.5625 L-76.48 11.5625"/>
      <line stroke-linecap="square" transform="matrix(-1,0,0,-1,-76.48,11.5625)" fill="none" x1="0" x2="-14" y1="0" y2="-4" stroke-miterlimit="10"/>
      <line stroke-linecap="square" transform="matrix(-1,0,0,-1,-76.48,11.5625)" fill="none" x1="0" x2="-14" y1="0" y2="4" stroke-miterlimit="10"/>
    </g>
    <g stroke-miterlimit="1.45" transform="matrix(1,0,0,1,207,143)" stroke-linecap="butt">
      <path fill="none" d="M-0.0333 103.4768 L-66 103.4768"/>
      <line stroke-linecap="square" transform="matrix(-1,0,0,-1,-66,103.4768)" fill="none" x1="0" x2="-14" y1="0" y2="-4" stroke-miterlimit="10"/>
      <line stroke-linecap="square" transform="matrix(-1,0,0,-1,-66,103.4768)" fill="none" x1="0" x2="-14" y1="0" y2="4" stroke-miterlimit="10"/>
    </g>
    <g stroke-miterlimit="1.45" transform="matrix(1,0,0,1,207,143)" stroke-linecap="butt">
      <path fill="none" d="M-0.0349 146.1805 L-106.7859 146.1805"/>
      <line stroke-linecap="square" transform="matrix(-1,0,0,-1,-106.7859,146.1805)" fill="none" x1="0" x2="-14" y1="0" y2="-4" stroke-miterlimit="10"/>
      <line stroke-linecap="square" transform="matrix(-1,0,0,-1,-106.7859,146.1805)" fill="none" x1="0" x2="-14" y1="0" y2="4" stroke-miterlimit="10"/>
    </g>
    <g stroke-dasharray="6,2" stroke-miterlimit="1.45" transform="matrix(1,0,0,1,207,143)" stroke-linecap="butt">
      <path fill="none" d="M328.5472 11.5625 L394.57 11.5625"/>
      <line stroke-linecap="square" transform="matrix(1,0,0,1,394.57,11.5625)" fill="none" x1="0" x2="-14" y1="0" y2="-4" stroke-dasharray="none" stroke-miterlimit="10"/>
      <line stroke-linecap="square" transform="matrix(1,0,0,1,394.57,11.5625)" fill="none" x1="0" x2="-14" y1="0" y2="4" stroke-dasharray="none" stroke-miterlimit="10"/>
    </g>
    <g stroke-dasharray="6,2" stroke-miterlimit="1.45" transform="matrix(1,0,0,1,207,143)" stroke-linecap="butt">
      <path fill="none" d="M328.5983 98.6875 L394.57 98.6875"/>
      <line stroke-linecap="square" transform="matrix(1,0,0,1,394.57,98.6875)" fill="none" x1="0" x2="-14" y1="0" y2="-4" stroke-dasharray="none" stroke-miterlimit="10"/>
      <line stroke-linecap="square" transform="matrix(1,0,0,1,394.57,98.6875)" fill="none" x1="0" x2="-14" y1="0" y2="4" stroke-dasharray="none" stroke-miterlimit="10"/>
    </g>
    <g stroke-dasharray="6,2" stroke-miterlimit="1.45" transform="matrix(1,0,0,1,207,143)" stroke-linecap="butt">
      <path fill="none" d="M328.5472 131.8125 L394.57 131.8125"/>
      <line stroke-linecap="square" transform="matrix(1,0,0,1,394.57,131.8125)" fill="none" x1="0" x2="-14" y1="0" y2="-4" stroke-dasharray="none" stroke-miterlimit="10"/>
      <line stroke-linecap="square" transform="matrix(1,0,0,1,394.57,131.8125)" fill="none" x1="0" x2="-14" y1="0" y2="4" stroke-dasharray="none" stroke-miterlimit="10"/>
    </g>
    <g stroke-dasharray="6,2" stroke-miterlimit="1.45" transform="matrix(1,0,0,1,207,143)" stroke-linecap="butt">
      <path fill="none" d="M328.5913 164.9375 L394.57 164.9375"/>
      <line stroke-linecap="square" transform="matrix(1,0,0,1,394.57,164.9375)" fill="none" x1="0" x2="-14" y1="0" y2="-4" stroke-dasharray="none" stroke-miterlimit="10"/>
      <line stroke-linecap="square" transform="matrix(1,0,0,1,394.57,164.9375)" fill="none" x1="0" x2="-14" y1="0" y2="4" stroke-dasharray="none" stroke-miterlimit="10"/>
    </g>
  </g>
</svg>
