<?xml version="1.0" encoding="UTF-8"?>
<svg xmlns="http://www.w3.org/2000/svg" xmlns:xlink="http://www.w3.org/1999/xlink" fill-opacity="1" color-rendering="auto" color-interpolation="auto" stroke="black" text-rendering="auto" stroke-linecap="square" width="546" stroke-miterlimit="10" stroke-opacity="1" shape-rendering="auto" fill="black" stroke-dasharray="none" font-weight="normal" stroke-width="1" height="391" font-family="'Dialog'" font-style="normal" stroke-linejoin="miter" font-size="12" stroke-dashoffset="0" image-rendering="auto">
  <!--Generated by ySVG-->
  <defs id="genericDefs"/>
  <g>
    <defs id="defs1">
      <clipPath clipPathUnits="userSpaceOnUse" id="clipPath1">
        <path d="M0 0 L546 0 L546 391 L0 391 L0 0 Z"/>
      </clipPath>
      <clipPath clipPathUnits="userSpaceOnUse" id="clipPath2">
        <path d="M344.1 0 L401.78 0 L401.78 23.125 L344.1 23.125 L344.1 0 Z"/>
      </clipPath>
      <clipPath clipPathUnits="userSpaceOnUse" id="clipPath3">
        <path d="M344.1 33.125 L397.66 33.125 L397.66 56.25 L344.1 56.25 L344.1 33.125 Z"/>
      </clipPath>
      <clipPath clipPathUnits="userSpaceOnUse" id="clipPath4">
        <path d="M-121.8 0 L-77.51 0 L-77.51 23.125 L-121.8 23.125 L-121.8 0 Z"/>
      </clipPath>
      <clipPath clipPathUnits="userSpaceOnUse" id="clipPath5">
        <path d="M347.9009 -100.3518 C347.9009 -91.321 317.9015 -84 280.8954 -84 C243.8894 -84 213.89 -91.321 213.89 -100.3518 C213.89 -109.3827 243.8894 -116.7037 280.8954 -116.7037 C317.9015 -116.7037 347.9009 -109.3827 347.9009 -100.3518 Z"/>
      </clipPath>
      <clipPath clipPathUnits="userSpaceOnUse" id="clipPath6">
        <path d="M110.21 -107.125 L167.89 -107.125 L167.89 -84 L110.21 -84 L110.21 -107.125 Z"/>
      </clipPath>
      <clipPath clipPathUnits="userSpaceOnUse" id="clipPath7">
        <path d="M0 0 L278.1 0 L278.1 204.2969 L0 204.2969 L0 0 Z"/>
      </clipPath>
      <script type="text/ecmascript"><![CDATA[
function umlload(newLocation)
{
if (newLocation.charAt(0) != '#') {
if (newLocation.indexOf("://") > -1) {
window.parent.location.href = newLocation;
} else {
var tmp = window.parent.location.href;
tmp = tmp.substring(0, tmp.lastIndexOf("/") + 1);
window.parent.location.href = tmp.concat(newLocation);
}
} else {
window.parent.location.hash = newLocation;
}
}
]]></script>
    </defs>
    <g fill="rgb(238,238,255)" transform="matrix(1,0,0,1,130,143)" stroke="rgb(238,238,255)">
      <rect width="76.1412" x="336.1" height="17.9688" y="-26" stroke="none"/>
    </g>
    <g fill="rgb(166,166,178)" stroke-miterlimit="1.45" transform="matrix(1,0,0,1,130,143)" stroke-linecap="butt" stroke="rgb(166,166,178)">
      <rect fill="none" width="76.1412" x="336.1" height="17.9688" y="-26"/>
    </g>
    <g fill="rgb(238,238,255)" transform="matrix(1,0,0,1,130,143)" stroke="rgb(238,238,255)">
      <rect width="79.68" x="336.1" height="72.2812" y="-8.0312" stroke="none"/>
    </g>
    <g fill="rgb(166,166,178)" stroke-miterlimit="1.45" transform="matrix(1,0,0,1,130,143)" stroke-linecap="butt" stroke="rgb(166,166,178)">
      <rect fill="none" width="79.68" x="336.1" height="72.2812" y="-8.0312"/>
    </g>
    <g font-family="sans-serif" transform="matrix(1,0,0,1,130,143)">
      <text xml:space="preserve" x="342.1" y="-12.8594" stroke="none">java.lang</text>
    </g>
    <g fill="rgb(187,187,255)" transform="matrix(1,0,0,1,130,143)" stroke="rgb(187,187,255)">
      <rect x="344.1" y="0" clip-path="url(#clipPath2)" width="57.68" height="23.125" stroke="none"/>
    </g>
    <g fill="rgb(130,130,178)" stroke-miterlimit="1.45" transform="matrix(1,0,0,1,130,143)" stroke-linecap="butt" stroke="rgb(130,130,178)">
      <rect fill="none" width="57.68" x="344.1" height="23.125" y="0"/>
    </g>
    <g font-size="13" font-weight="bold" font-family="sans-serif" transform="matrix(1,0,0,1,130,143)">
      <text xml:space="preserve" x="348.94" y="16.0625" stroke="none">Object</text>
    </g>
    <g fill="rgb(187,187,255)" transform="matrix(1,0,0,1,130,143)" stroke="rgb(187,187,255)">
      <rect x="344.1" y="33.125" clip-path="url(#clipPath3)" width="53.56" height="23.125" stroke="none"/>
    </g>
    <g fill="rgb(130,130,178)" stroke-miterlimit="1.45" transform="matrix(1,0,0,1,130,143)" stroke-linecap="butt" stroke="rgb(130,130,178)">
      <rect fill="none" width="53.56" x="344.1" height="23.125" y="33.125"/>
    </g>
    <g font-size="13" font-weight="bold" font-family="sans-serif" transform="matrix(1,0,0,1,130,143)">
      <text xml:space="preserve" x="348.88" y="49.1875" stroke="none">String</text>
    </g>
    <g fill="rgb(238,238,255)" transform="matrix(1,0,0,1,130,143)" stroke="rgb(238,238,255)">
      <rect width="67.654" x="-129.8" height="17.9688" y="-26" stroke="none"/>
    </g>
    <g fill="rgb(166,166,178)" stroke-miterlimit="1.45" transform="matrix(1,0,0,1,130,143)" stroke-linecap="butt" stroke="rgb(166,166,178)">
      <rect fill="none" width="67.654" x="-129.8" height="17.9688" y="-26"/>
    </g>
    <g fill="rgb(238,238,255)" transform="matrix(1,0,0,1,130,143)" stroke="rgb(238,238,255)">
      <rect width="72.29" x="-129.8" height="39.1562" y="-8.0312" stroke="none"/>
    </g>
    <g fill="rgb(166,166,178)" stroke-miterlimit="1.45" transform="matrix(1,0,0,1,130,143)" stroke-linecap="butt" stroke="rgb(166,166,178)">
      <rect fill="none" width="72.29" x="-129.8" height="39.1562" y="-8.0312"/>
    </g>
    <g font-family="sans-serif" transform="matrix(1,0,0,1,130,143)">
      <text xml:space="preserve" x="-123.8" y="-12.8594" stroke="none">java.util</text>
    </g>
    <g fill="rgb(187,187,255)" transform="matrix(1,0,0,1,130,143)" stroke="rgb(187,187,255)">
      <rect x="-121.8" y="0" clip-path="url(#clipPath4)" width="44.29" height="23.125" stroke="none"/>
    </g>
    <g fill="rgb(130,130,178)" stroke-miterlimit="1.45" transform="matrix(1,0,0,1,130,143)" stroke-linecap="butt" stroke="rgb(130,130,178)">
      <rect fill="none" width="44.29" x="-121.8" height="23.125" y="0"/>
    </g>
    <g font-size="13" font-weight="bold" font-family="sans-serif" transform="matrix(1,0,0,1,130,143)">
      <text xml:space="preserve" x="-117.155" y="16.0625" stroke="none">Date</text>
    </g>
    <g fill="rgb(238,238,255)" transform="matrix(1,0,0,1,130,143)" stroke="rgb(238,238,255)">
      <rect width="59.1668" x="205.89" height="17.9688" y="-142.7037" stroke="none"/>
    </g>
    <g fill="rgb(166,166,178)" stroke-miterlimit="1.45" transform="matrix(1,0,0,1,130,143)" stroke-linecap="butt" stroke="rgb(166,166,178)">
      <rect fill="none" width="59.1668" x="205.89" height="17.9688" y="-142.7037"/>
    </g>
    <g fill="rgb(238,238,255)" transform="matrix(1,0,0,1,130,143)" stroke="rgb(238,238,255)">
      <rect width="150.0109" x="205.89" height="48.7349" y="-124.7349" stroke="none"/>
    </g>
    <g fill="rgb(166,166,178)" stroke-miterlimit="1.45" transform="matrix(1,0,0,1,130,143)" stroke-linecap="butt" stroke="rgb(166,166,178)">
      <rect fill="none" width="150.0109" x="205.89" height="48.7349" y="-124.7349"/>
    </g>
    <g font-family="sans-serif" transform="matrix(1,0,0,1,130,143)">
      <text xml:space="preserve" x="211.89" y="-129.5631" stroke="none">java.io</text>
    </g>
    <g fill="rgb(221,221,255)" transform="matrix(1,0,0,1,130,143)" stroke="rgb(221,221,255)">
      <rect x="213.89" y="-116.7037" clip-path="url(#clipPath5)" width="134.0109" height="32.7037" stroke="none"/>
    </g>
    <g fill="rgb(154,154,178)" stroke-miterlimit="1.45" transform="matrix(1,0,0,1,130,143)" stroke-linecap="butt" stroke="rgb(154,154,178)">
      <ellipse rx="67.0054" fill="none" ry="16.3518" cx="280.8954" cy="-100.3518"/>
    </g>
    <g font-style="italic" font-size="13" font-weight="bold" font-family="sans-serif" transform="matrix(1,0,0,1,130,143)">
      <text xml:space="preserve" x="238.8954" y="-95.8518" stroke="none">Serializable</text>
    </g>
    <g fill="rgb(238,238,255)" transform="matrix(1,0,0,1,130,143)" stroke="rgb(238,238,255)">
      <rect width="76.1412" x="102.21" height="17.9688" y="-133.125" stroke="none"/>
    </g>
    <g fill="rgb(166,166,178)" stroke-miterlimit="1.45" transform="matrix(1,0,0,1,130,143)" stroke-linecap="butt" stroke="rgb(166,166,178)">
      <rect fill="none" width="76.1412" x="102.21" height="17.9688" y="-133.125"/>
    </g>
    <g fill="rgb(238,238,255)" transform="matrix(1,0,0,1,130,143)" stroke="rgb(238,238,255)">
      <rect width="76.1412" x="102.21" height="39.1562" y="-115.1562" stroke="none"/>
    </g>
    <g fill="rgb(166,166,178)" stroke-miterlimit="1.45" transform="matrix(1,0,0,1,130,143)" stroke-linecap="butt" stroke="rgb(166,166,178)">
      <rect fill="none" width="76.1412" x="102.21" height="39.1562" y="-115.1562"/>
    </g>
    <g font-family="sans-serif" transform="matrix(1,0,0,1,130,143)">
      <text xml:space="preserve" x="108.21" y="-119.9844" stroke="none">java.lang</text>
    </g>
    <g fill="rgb(187,187,255)" transform="matrix(1,0,0,1,130,143)" stroke="rgb(187,187,255)">
      <rect x="110.21" y="-107.125" clip-path="url(#clipPath6)" width="57.68" height="23.125" stroke="none"/>
    </g>
    <g fill="rgb(130,130,178)" stroke-miterlimit="1.45" transform="matrix(1,0,0,1,130,143)" stroke-linecap="butt" stroke="rgb(130,130,178)">
      <rect fill="none" width="57.68" x="110.21" height="23.125" y="-107.125"/>
    </g>
    <g font-size="13" font-weight="bold" font-family="sans-serif" transform="matrix(1,0,0,1,130,143)">
      <text xml:space="preserve" x="115.05" y="-91.0625" stroke="none">Object</text>
    </g>
    <g fill="rgb(238,238,255)" transform="matrix(1,0,0,1,130,143)" stroke="rgb(238,238,255)">
      <rect width="118.5772" x="-8" height="17.9688" y="-26" stroke="none"/>
    </g>
    <g fill="rgb(166,166,178)" stroke-miterlimit="1.45" transform="matrix(1,0,0,1,130,143)" stroke-linecap="butt" stroke="rgb(166,166,178)">
      <rect fill="none" width="118.5772" x="-8" height="17.9688" y="-26"/>
    </g>
    <g fill="rgb(238,238,255)" transform="matrix(1,0,0,1,130,143)" stroke="rgb(238,238,255)">
      <rect width="294.1" x="-8" height="220.3281" y="-8.0312" stroke="none"/>
    </g>
    <g fill="rgb(166,166,178)" stroke-miterlimit="1.45" transform="matrix(1,0,0,1,130,143)" stroke-linecap="butt" stroke="rgb(166,166,178)">
      <rect fill="none" width="294.1" x="-8" height="220.3281" y="-8.0312"/>
    </g>
    <g font-family="sans-serif" transform="matrix(1,0,0,1,130,143)">
      <text xml:space="preserve" x="-2" y="-12.8594" onclick="umlload('package-summary.html')" stroke="none">nde2.pull.types</text>
    </g>
    <g fill="rgb(187,187,255)" transform="matrix(1,0,0,1,130,143)" stroke="rgb(187,187,255)">
      <rect x="0" y="0" clip-path="url(#clipPath7)" width="278.1" height="26.6406" stroke="none"/>
      <line clip-path="url(#clipPath7)" fill="none" x1="0" x2="278.1" y1="26.6406" y2="26.6406" stroke="black"/>
      <rect x="0" y="27.6406" clip-path="url(#clipPath7)" width="278.1" height="47.9062" stroke="none"/>
      <line clip-path="url(#clipPath7)" fill="none" x1="0" x2="278.1" y1="75.5469" y2="75.5469" stroke="black"/>
      <rect x="0" y="76.5469" clip-path="url(#clipPath7)" width="278.1" height="127.75" stroke="none"/>
    </g>
    <g fill="rgb(130,130,178)" stroke-miterlimit="1.45" transform="matrix(1,0,0,1,130,143)" stroke-linecap="butt" stroke="rgb(130,130,178)">
      <rect fill="none" width="278.1" x="0" height="204.2969" y="0"/>
    </g>
    <g font-size="16" font-weight="bold" font-family="sans-serif" transform="matrix(1,0,0,1,130,143)">
      <text xml:space="preserve" x="90.55" y="18.8594" onclick="umlload('#')" stroke="none">DateRange</text>
    </g>
    <g font-family="sans-serif" transform="matrix(1,0,0,1,130,143)">
      <text xml:space="preserve" x="4" y="38.1719" stroke="none">+</text>
      <text xml:space="preserve" x="19" y="39.7812" onclick="umlload('#DateRange()')" stroke="none">DateRange()</text>
    </g>
    <g font-family="sans-serif" transform="matrix(1,0,0,1,130,143)">
      <text xml:space="preserve" x="4" y="54.1719" stroke="none">+</text>
      <text xml:space="preserve" x="19" y="55.75" onclick="umlload('#DateRange(java.lang.String, java.lang.String)')" stroke="none">DateRange(String, String)</text>
    </g>
    <g font-family="sans-serif" transform="matrix(1,0,0,1,130,143)">
      <text xml:space="preserve" x="4" y="70.1719" stroke="none">+</text>
      <text xml:space="preserve" x="19" y="71.7188" onclick="umlload('#DateRange(java.util.Date, java.util.Date)')" stroke="none">DateRange(Date, Date)</text>
    </g>
    <g font-family="sans-serif" transform="matrix(1,0,0,1,130,143)">
      <text xml:space="preserve" x="4" y="87.1719" stroke="none">+</text>
      <text xml:space="preserve" x="19" y="88.6875" onclick="umlload('#equals(java.lang.Object)')" stroke="none">equals(Object) : boolean</text>
    </g>
    <g font-family="sans-serif" transform="matrix(1,0,0,1,130,143)">
      <text xml:space="preserve" x="4" y="103.1719" stroke="none">+</text>
      <text xml:space="preserve" x="19" y="104.6562" onclick="umlload('#getDuration()')" stroke="none">getDuration() : Date</text>
    </g>
    <g font-family="sans-serif" transform="matrix(1,0,0,1,130,143)">
      <text xml:space="preserve" x="4" y="119.1719" stroke="none">+</text>
      <text xml:space="preserve" x="19" y="120.625" onclick="umlload('#getEndDate()')" stroke="none">getEndDate() : Date</text>
    </g>
    <g font-family="sans-serif" transform="matrix(1,0,0,1,130,143)">
      <text xml:space="preserve" x="4" y="135.1719" stroke="none">+</text>
      <text xml:space="preserve" x="19" y="136.5938" onclick="umlload('#getStartDate()')" stroke="none">getStartDate() : Date</text>
    </g>
    <g font-family="sans-serif" transform="matrix(1,0,0,1,130,143)">
      <text xml:space="preserve" x="4" y="151.1719" stroke="none">+</text>
      <text xml:space="preserve" x="19" y="152.5625" onclick="umlload('#hashCode()')" stroke="none">hashCode() : int</text>
    </g>
    <g font-family="sans-serif" transform="matrix(1,0,0,1,130,143)">
      <text xml:space="preserve" x="4" y="167.1719" stroke="none">+</text>
      <text xml:space="preserve" x="19" y="168.5312" onclick="umlload('#mostRecent(nde2.pull.types.DateRange[])')" stroke="none">mostRecent(DateRange[]) : DateRange</text>
      <line y2="171.3594" fill="none" x1="19" x2="266" y1="171.3594"/>
    </g>
    <g font-family="sans-serif" transform="matrix(1,0,0,1,130,143)">
      <text xml:space="preserve" x="4" y="183.1719" stroke="none">+</text>
      <text xml:space="preserve" x="19" y="184.5" onclick="umlload('#setEndDate(java.util.Date)')" stroke="none">setEndDate(Date) : void</text>
    </g>
    <g font-family="sans-serif" transform="matrix(1,0,0,1,130,143)">
      <text xml:space="preserve" x="4" y="199.1719" stroke="none">+</text>
      <text xml:space="preserve" x="19" y="200.4688" onclick="umlload('#setStartDate(java.util.Date)')" stroke="none">setStartDate(Date) : void</text>
    </g>
    <g font-family="sans-serif" transform="matrix(1,0,0,1,130,143)">
      <text xml:space="preserve" x="-124" y="237.1562" onclick="umlload('http://www.yworks.com/')" stroke="none">yWorks UML Doclet</text>
    </g>
    <g stroke-miterlimit="1.45" transform="matrix(1,0,0,1,130,143)" stroke-linecap="butt">
      <path fill="none" d="M139.05 0 L139.05 -69"/>
      <path fill="white" d="M139.05 -84 L133.05 -68 L145.05 -68 Z" stroke="none"/>
      <path fill="none" d="M139.05 -84 L133.05 -68 L145.05 -68 Z"/>
      <path fill="none" stroke-dasharray="6,2" d="M208.575 0.037 L208.575 -51 L280.8954 -51 L280.8954 -69"/>
      <path fill="white" stroke-dasharray="6,2" d="M280.8954 -84 L274.8954 -68 L286.8954 -68 Z" stroke="none"/>
      <path fill="none" d="M280.8954 -84 L274.8954 -68 L286.8954 -68 Z"/>
      <path fill="none" d="M0.0288 11.5625 L-77.51 11.5625"/>
      <line stroke-linecap="square" transform="matrix(-1,0,0,-1,-77.51,11.5625)" fill="none" x1="0" x2="-14" y1="0" y2="-4" stroke-miterlimit="10"/>
      <line stroke-linecap="square" transform="matrix(-1,0,0,-1,-77.51,11.5625)" fill="none" x1="0" x2="-14" y1="0" y2="4" stroke-miterlimit="10"/>
    </g>
    <g stroke-dasharray="6,2" stroke-miterlimit="1.45" transform="matrix(1,0,0,1,130,143)" stroke-linecap="butt">
      <path fill="none" d="M278.122 11.5625 L344.1 11.5625"/>
      <line stroke-linecap="square" transform="matrix(1,0,0,1,344.1,11.5625)" fill="none" x1="0" x2="-14" y1="0" y2="-4" stroke-dasharray="none" stroke-miterlimit="10"/>
      <line stroke-linecap="square" transform="matrix(1,0,0,1,344.1,11.5625)" fill="none" x1="0" x2="-14" y1="0" y2="4" stroke-dasharray="none" stroke-miterlimit="10"/>
    </g>
    <g stroke-dasharray="6,2" stroke-miterlimit="1.45" transform="matrix(1,0,0,1,130,143)" stroke-linecap="butt">
      <path fill="none" d="M278.0858 44.6875 L344.1 44.6875"/>
      <line stroke-linecap="square" transform="matrix(1,0,0,1,344.1,44.6875)" fill="none" x1="0" x2="-14" y1="0" y2="-4" stroke-dasharray="none" stroke-miterlimit="10"/>
      <line stroke-linecap="square" transform="matrix(1,0,0,1,344.1,44.6875)" fill="none" x1="0" x2="-14" y1="0" y2="4" stroke-dasharray="none" stroke-miterlimit="10"/>
    </g>
  </g>
</svg>
