<?xml version="1.0" encoding="UTF-8"?>
<svg xmlns="http://www.w3.org/2000/svg" xmlns:xlink="http://www.w3.org/1999/xlink" fill-opacity="1" color-rendering="auto" color-interpolation="auto" stroke="black" text-rendering="auto" stroke-linecap="square" width="305" stroke-miterlimit="10" stroke-opacity="1" shape-rendering="auto" fill="black" stroke-dasharray="none" font-weight="normal" stroke-width="1" height="370" font-family="'Dialog'" font-style="normal" stroke-linejoin="miter" font-size="12" stroke-dashoffset="0" image-rendering="auto">
  <!--Generated by ySVG-->
  <defs id="genericDefs"/>
  <g>
    <defs id="defs1">
      <clipPath clipPathUnits="userSpaceOnUse" id="clipPath1">
        <path d="M0 0 L305 0 L305 370 L0 370 L0 0 Z"/>
      </clipPath>
      <clipPath clipPathUnits="userSpaceOnUse" id="clipPath2">
        <path d="M39.93 26 L83.19 26 L83.19 49.125 L39.93 49.125 L39.93 26 Z"/>
      </clipPath>
      <clipPath clipPathUnits="userSpaceOnUse" id="clipPath3">
        <path d="M8 167.25 L88.34 167.25 L88.34 190.375 L8 190.375 L8 167.25 Z"/>
      </clipPath>
      <clipPath clipPathUnits="userSpaceOnUse" id="clipPath4">
        <path d="M133.34 167.25 L251.79 167.25 L251.79 190.375 L133.34 190.375 L133.34 167.25 Z"/>
      </clipPath>
      <clipPath clipPathUnits="userSpaceOnUse" id="clipPath5">
        <path d="M8 235.375 L111 235.375 L111 258.5 L8 258.5 L8 235.375 Z"/>
      </clipPath>
      <clipPath clipPathUnits="userSpaceOnUse" id="clipPath6">
        <path d="M156 235.375 L223.98 235.375 L223.98 258.5 L156 258.5 L156 235.375 Z"/>
      </clipPath>
      <clipPath clipPathUnits="userSpaceOnUse" id="clipPath7">
        <path d="M8 303.5 L100.7 303.5 L100.7 326.625 L8 326.625 L8 303.5 Z"/>
      </clipPath>
      <clipPath clipPathUnits="userSpaceOnUse" id="clipPath8">
        <path d="M8 99.125 L115.12 99.125 L115.12 122.25 L8 122.25 L8 99.125 Z"/>
      </clipPath>
      <clipPath clipPathUnits="userSpaceOnUse" id="clipPath9">
        <path d="M160.12 99.125 L288.87 99.125 L288.87 122.25 L160.12 122.25 L160.12 99.125 Z"/>
      </clipPath>
      <clipPath clipPathUnits="userSpaceOnUse" id="clipPath10">
        <path d="M145.7 303.5 L203.38 303.5 L203.38 326.625 L145.7 326.625 L145.7 303.5 Z"/>
      </clipPath>
      <clipPath clipPathUnits="userSpaceOnUse" id="clipPath11">
        <path d="M192.05 26 L256.94 26 L256.94 49.125 L192.05 49.125 L192.05 26 Z"/>
      </clipPath>
      <clipPath clipPathUnits="userSpaceOnUse" id="clipPath12">
        <path d="M248.38 303.5 L296.79 303.5 L296.79 326.625 L248.38 326.625 L248.38 303.5 Z"/>
      </clipPath>
      <script type="text/ecmascript"><![CDATA[
function umlload(newLocation)
{
if (newLocation.charAt(0) != '#') {
if (newLocation.indexOf("://") > -1) {
window.parent.location.href = newLocation;
} else {
var tmp = window.parent.location.href;
tmp = tmp.substring(0, tmp.lastIndexOf("/") + 1);
window.parent.location.href = tmp.concat(newLocation);
}
} else {
window.parent.location.hash = newLocation;
}
}
]]></script>
    </defs>
    <g fill="rgb(238,238,255)" stroke="rgb(238,238,255)">
      <rect width="118.5772" x="0" height="17.9688" y="0" stroke="none"/>
    </g>
    <g fill="rgb(166,166,178)" stroke-miterlimit="1.45" stroke-linecap="butt" stroke="rgb(166,166,178)">
      <rect fill="none" width="118.5772" x="0" height="17.9688" y="0"/>
    </g>
    <g fill="rgb(238,238,255)" stroke="rgb(238,238,255)">
      <rect width="304.79" x="0" height="316.6562" y="17.9688" stroke="none"/>
    </g>
    <g fill="rgb(166,166,178)" stroke-miterlimit="1.45" stroke-linecap="butt" stroke="rgb(166,166,178)">
      <rect fill="none" width="304.79" x="0" height="316.6562" y="17.9688"/>
    </g>
    <g font-family="sans-serif">
      <text xml:space="preserve" x="6" y="13.1406" onclick="umlload('#')" stroke="none">nde2.pull.types</text>
    </g>
    <g fill="rgb(187,187,255)" stroke="rgb(187,187,255)">
      <rect x="39.93" y="26" clip-path="url(#clipPath2)" width="43.26" height="23.125" stroke="none"/>
    </g>
    <g fill="rgb(130,130,178)" stroke-miterlimit="1.45" stroke-linecap="butt" stroke="rgb(130,130,178)">
      <rect fill="none" width="43.26" x="39.93" height="23.125" y="26"/>
    </g>
    <g font-size="13" font-weight="bold" font-family="sans-serif">
      <text xml:space="preserve" x="44.56" y="42.0625" onclick="umlload('Area.html')" stroke="none">Area</text>
    </g>
    <g fill="rgb(187,187,255)" stroke="rgb(187,187,255)">
      <rect x="8" y="167.25" clip-path="url(#clipPath3)" width="80.34" height="23.125" stroke="none"/>
    </g>
    <g fill="rgb(130,130,178)" stroke-miterlimit="1.45" stroke-linecap="butt" stroke="rgb(130,130,178)">
      <rect fill="none" width="80.34" x="8" height="23.125" y="167.25"/>
    </g>
    <g font-size="13" font-weight="bold" font-family="sans-serif">
      <text xml:space="preserve" x="13.17" y="183.3125" onclick="umlload('Boundary.html')" stroke="none">Boundary</text>
    </g>
    <g fill="rgb(187,187,255)" stroke="rgb(187,187,255)">
      <rect x="133.34" y="167.25" clip-path="url(#clipPath4)" width="118.45" height="23.125" stroke="none"/>
    </g>
    <g fill="rgb(130,130,178)" stroke-miterlimit="1.45" stroke-linecap="butt" stroke="rgb(130,130,178)">
      <rect fill="none" width="118.45" x="133.34" height="23.125" y="167.25"/>
    </g>
    <g font-size="13" font-weight="bold" font-family="sans-serif">
      <text xml:space="preserve" x="139.065" y="183.3125" onclick="umlload('DataSetFamily.html')" stroke="none">DataSetFamily</text>
    </g>
    <g fill="rgb(187,187,255)" stroke="rgb(187,187,255)">
      <rect x="8" y="235.375" clip-path="url(#clipPath5)" width="103" height="23.125" stroke="none"/>
    </g>
    <g fill="rgb(130,130,178)" stroke-miterlimit="1.45" stroke-linecap="butt" stroke="rgb(130,130,178)">
      <rect fill="none" width="103" x="8" height="23.125" y="235.375"/>
    </g>
    <g font-size="13" font-weight="bold" font-family="sans-serif">
      <text xml:space="preserve" x="13.5" y="251.4375" onclick="umlload('DataSetItem.html')" stroke="none">DataSetItem</text>
    </g>
    <g fill="rgb(187,187,255)" stroke="rgb(187,187,255)">
      <rect x="156" y="235.375" clip-path="url(#clipPath6)" width="67.98" height="23.125" stroke="none"/>
    </g>
    <g fill="rgb(130,130,178)" stroke-miterlimit="1.45" stroke-linecap="butt" stroke="rgb(130,130,178)">
      <rect fill="none" width="67.98" x="156" height="23.125" y="235.375"/>
    </g>
    <g font-size="13" font-weight="bold" font-family="sans-serif">
      <text xml:space="preserve" x="160.99" y="251.4375" onclick="umlload('Dataset.html')" stroke="none">Dataset</text>
    </g>
    <g fill="rgb(187,187,255)" stroke="rgb(187,187,255)">
      <rect x="8" y="303.5" clip-path="url(#clipPath7)" width="92.7" height="23.125" stroke="none"/>
    </g>
    <g fill="rgb(130,130,178)" stroke-miterlimit="1.45" stroke-linecap="butt" stroke="rgb(130,130,178)">
      <rect fill="none" width="92.7" x="8" height="23.125" y="303.5"/>
    </g>
    <g font-size="13" font-weight="bold" font-family="sans-serif">
      <text xml:space="preserve" x="13.35" y="319.5625" onclick="umlload('DateRange.html')" stroke="none">DateRange</text>
    </g>
    <g fill="rgb(187,187,255)" stroke="rgb(187,187,255)">
      <rect x="8" y="99.125" clip-path="url(#clipPath8)" width="107.12" height="23.125" stroke="none"/>
    </g>
    <g fill="rgb(130,130,178)" stroke-miterlimit="1.45" stroke-linecap="butt" stroke="rgb(130,130,178)">
      <rect fill="none" width="107.12" x="8" height="23.125" y="99.125"/>
    </g>
    <g font-size="13" font-weight="bold" font-family="sans-serif">
      <text xml:space="preserve" x="13.56" y="115.1875" onclick="umlload('DetailedArea.html')" stroke="none">DetailedArea</text>
    </g>
    <g fill="rgb(187,187,255)" stroke="rgb(187,187,255)">
      <rect x="160.12" y="99.125" clip-path="url(#clipPath9)" width="128.75" height="23.125" stroke="none"/>
    </g>
    <g fill="rgb(130,130,178)" stroke-miterlimit="1.45" stroke-linecap="butt" stroke="rgb(130,130,178)">
      <rect fill="none" width="128.75" x="160.12" height="23.125" y="99.125"/>
    </g>
    <g font-size="13" font-weight="bold" font-family="sans-serif">
      <text xml:space="preserve" x="165.995" y="115.1875" onclick="umlload('DetailedSubject.html')" stroke="none">DetailedSubject</text>
    </g>
    <g fill="rgb(187,187,255)" stroke="rgb(187,187,255)">
      <rect x="145.7" y="303.5" clip-path="url(#clipPath10)" width="57.68" height="23.125" stroke="none"/>
    </g>
    <g fill="rgb(130,130,178)" stroke-miterlimit="1.45" stroke-linecap="butt" stroke="rgb(130,130,178)">
      <rect fill="none" width="57.68" x="145.7" height="23.125" y="303.5"/>
    </g>
    <g font-size="13" font-weight="bold" font-family="sans-serif">
      <text xml:space="preserve" x="150.54" y="319.5625" onclick="umlload('Period.html')" stroke="none">Period</text>
    </g>
    <g fill="rgb(187,187,255)" stroke="rgb(187,187,255)">
      <rect x="192.05" y="26" clip-path="url(#clipPath11)" width="64.89" height="23.125" stroke="none"/>
    </g>
    <g fill="rgb(130,130,178)" stroke-miterlimit="1.45" stroke-linecap="butt" stroke="rgb(130,130,178)">
      <rect fill="none" width="64.89" x="192.05" height="23.125" y="26"/>
    </g>
    <g font-size="13" font-weight="bold" font-family="sans-serif">
      <text xml:space="preserve" x="196.995" y="42.0625" onclick="umlload('Subject.html')" stroke="none">Subject</text>
    </g>
    <g fill="rgb(187,187,255)" stroke="rgb(187,187,255)">
      <rect x="248.38" y="303.5" clip-path="url(#clipPath12)" width="48.41" height="23.125" stroke="none"/>
    </g>
    <g fill="rgb(130,130,178)" stroke-miterlimit="1.45" stroke-linecap="butt" stroke="rgb(130,130,178)">
      <rect fill="none" width="48.41" x="248.38" height="23.125" y="303.5"/>
    </g>
    <g font-size="13" font-weight="bold" font-family="sans-serif">
      <text xml:space="preserve" x="253.085" y="319.5625" onclick="umlload('Topic.html')" stroke="none">Topic</text>
    </g>
    <g font-family="sans-serif">
      <text xml:space="preserve" x="6" y="359.1562" onclick="umlload('http://www.yworks.com/')" stroke="none">yWorks UML Doclet</text>
    </g>
    <g stroke-linecap="butt" stroke-miterlimit="1.45">
      <path fill="none" d="M61.56 99.125 L61.56 64.125"/>
      <path fill="white" d="M61.56 49.125 L55.56 65.125 L67.56 65.125 Z" stroke="none"/>
      <path fill="none" d="M61.56 49.125 L55.56 65.125 L67.56 65.125 Z"/>
      <path fill="none" d="M224.495 99.125 L224.495 64.125"/>
      <path fill="white" d="M224.495 49.125 L218.495 65.125 L230.495 65.125 Z" stroke="none"/>
      <path fill="none" d="M224.495 49.125 L218.495 65.125 L230.495 65.125 Z"/>
    </g>
  </g>
</svg>
