<?xml version="1.0" encoding="UTF-8"?>
<svg xmlns="http://www.w3.org/2000/svg" xmlns:xlink="http://www.w3.org/1999/xlink" fill-opacity="1" color-rendering="auto" color-interpolation="auto" stroke="black" text-rendering="auto" stroke-linecap="square" width="461" stroke-miterlimit="10" stroke-opacity="1" shape-rendering="auto" fill="black" stroke-dasharray="none" font-weight="normal" stroke-width="1" height="424" font-family="'Dialog'" font-style="normal" stroke-linejoin="miter" font-size="12" stroke-dashoffset="0" image-rendering="auto">
  <!--Generated by ySVG-->
  <defs id="genericDefs"/>
  <g>
    <defs id="defs1">
      <clipPath clipPathUnits="userSpaceOnUse" id="clipPath1">
        <path d="M0 0 L461 0 L461 424 L0 424 L0 0 Z"/>
      </clipPath>
      <clipPath clipPathUnits="userSpaceOnUse" id="clipPath2">
        <path d="M258.61 0 L316.29 0 L316.29 23.125 L258.61 23.125 L258.61 0 Z"/>
      </clipPath>
      <clipPath clipPathUnits="userSpaceOnUse" id="clipPath3">
        <path d="M-121.8 0 L-77.51 0 L-77.51 23.125 L-121.8 23.125 L-121.8 0 Z"/>
      </clipPath>
      <clipPath clipPathUnits="userSpaceOnUse" id="clipPath4">
        <path d="M305.1559 -100.3518 C305.1559 -91.321 275.1565 -84 238.1504 -84 C201.1444 -84 171.145 -91.321 171.145 -100.3518 C171.145 -109.3827 201.1444 -116.7037 238.1504 -116.7037 C275.1565 -116.7037 305.1559 -109.3827 305.1559 -100.3518 Z"/>
      </clipPath>
      <clipPath clipPathUnits="userSpaceOnUse" id="clipPath5">
        <path d="M67.465 -107.125 L125.145 -107.125 L125.145 -84 L67.465 -84 L67.465 -107.125 Z"/>
      </clipPath>
      <clipPath clipPathUnits="userSpaceOnUse" id="clipPath6">
        <path d="M0 0 L192.61 0 L192.61 237.2344 L0 237.2344 L0 0 Z"/>
      </clipPath>
      <script type="text/ecmascript"><![CDATA[
function umlload(newLocation)
{
if (newLocation.charAt(0) != '#') {
if (newLocation.indexOf("://") > -1) {
window.parent.location.href = newLocation;
} else {
var tmp = window.parent.location.href;
tmp = tmp.substring(0, tmp.lastIndexOf("/") + 1);
window.parent.location.href = tmp.concat(newLocation);
}
} else {
window.parent.location.hash = newLocation;
}
}
]]></script>
    </defs>
    <g fill="rgb(238,238,255)" transform="matrix(1,0,0,1,130,143)" stroke="rgb(238,238,255)">
      <rect width="76.1412" x="250.61" height="17.9688" y="-26" stroke="none"/>
    </g>
    <g fill="rgb(166,166,178)" stroke-miterlimit="1.45" transform="matrix(1,0,0,1,130,143)" stroke-linecap="butt" stroke="rgb(166,166,178)">
      <rect fill="none" width="76.1412" x="250.61" height="17.9688" y="-26"/>
    </g>
    <g fill="rgb(238,238,255)" transform="matrix(1,0,0,1,130,143)" stroke="rgb(238,238,255)">
      <rect width="79.68" x="250.61" height="39.1562" y="-8.0312" stroke="none"/>
    </g>
    <g fill="rgb(166,166,178)" stroke-miterlimit="1.45" transform="matrix(1,0,0,1,130,143)" stroke-linecap="butt" stroke="rgb(166,166,178)">
      <rect fill="none" width="79.68" x="250.61" height="39.1562" y="-8.0312"/>
    </g>
    <g font-family="sans-serif" transform="matrix(1,0,0,1,130,143)">
      <text xml:space="preserve" x="256.61" y="-12.8594" stroke="none">java.lang</text>
    </g>
    <g fill="rgb(187,187,255)" transform="matrix(1,0,0,1,130,143)" stroke="rgb(187,187,255)">
      <rect x="258.61" y="0" clip-path="url(#clipPath2)" width="57.68" height="23.125" stroke="none"/>
    </g>
    <g fill="rgb(130,130,178)" stroke-miterlimit="1.45" transform="matrix(1,0,0,1,130,143)" stroke-linecap="butt" stroke="rgb(130,130,178)">
      <rect fill="none" width="57.68" x="258.61" height="23.125" y="0"/>
    </g>
    <g font-size="13" font-weight="bold" font-family="sans-serif" transform="matrix(1,0,0,1,130,143)">
      <text xml:space="preserve" x="263.45" y="16.0625" stroke="none">Object</text>
    </g>
    <g fill="rgb(238,238,255)" transform="matrix(1,0,0,1,130,143)" stroke="rgb(238,238,255)">
      <rect width="67.654" x="-129.8" height="17.9688" y="-26" stroke="none"/>
    </g>
    <g fill="rgb(166,166,178)" stroke-miterlimit="1.45" transform="matrix(1,0,0,1,130,143)" stroke-linecap="butt" stroke="rgb(166,166,178)">
      <rect fill="none" width="67.654" x="-129.8" height="17.9688" y="-26"/>
    </g>
    <g fill="rgb(238,238,255)" transform="matrix(1,0,0,1,130,143)" stroke="rgb(238,238,255)">
      <rect width="72.29" x="-129.8" height="39.1562" y="-8.0312" stroke="none"/>
    </g>
    <g fill="rgb(166,166,178)" stroke-miterlimit="1.45" transform="matrix(1,0,0,1,130,143)" stroke-linecap="butt" stroke="rgb(166,166,178)">
      <rect fill="none" width="72.29" x="-129.8" height="39.1562" y="-8.0312"/>
    </g>
    <g font-family="sans-serif" transform="matrix(1,0,0,1,130,143)">
      <text xml:space="preserve" x="-123.8" y="-12.8594" stroke="none">java.util</text>
    </g>
    <g fill="rgb(187,187,255)" transform="matrix(1,0,0,1,130,143)" stroke="rgb(187,187,255)">
      <rect x="-121.8" y="0" clip-path="url(#clipPath3)" width="44.29" height="23.125" stroke="none"/>
    </g>
    <g fill="rgb(130,130,178)" stroke-miterlimit="1.45" transform="matrix(1,0,0,1,130,143)" stroke-linecap="butt" stroke="rgb(130,130,178)">
      <rect fill="none" width="44.29" x="-121.8" height="23.125" y="0"/>
    </g>
    <g font-size="13" font-weight="bold" font-family="sans-serif" transform="matrix(1,0,0,1,130,143)">
      <text xml:space="preserve" x="-117.155" y="16.0625" stroke="none">Date</text>
    </g>
    <g fill="rgb(238,238,255)" transform="matrix(1,0,0,1,130,143)" stroke="rgb(238,238,255)">
      <rect width="59.1668" x="163.145" height="17.9688" y="-142.7037" stroke="none"/>
    </g>
    <g fill="rgb(166,166,178)" stroke-miterlimit="1.45" transform="matrix(1,0,0,1,130,143)" stroke-linecap="butt" stroke="rgb(166,166,178)">
      <rect fill="none" width="59.1668" x="163.145" height="17.9688" y="-142.7037"/>
    </g>
    <g fill="rgb(238,238,255)" transform="matrix(1,0,0,1,130,143)" stroke="rgb(238,238,255)">
      <rect width="150.0109" x="163.145" height="48.7349" y="-124.7349" stroke="none"/>
    </g>
    <g fill="rgb(166,166,178)" stroke-miterlimit="1.45" transform="matrix(1,0,0,1,130,143)" stroke-linecap="butt" stroke="rgb(166,166,178)">
      <rect fill="none" width="150.0109" x="163.145" height="48.7349" y="-124.7349"/>
    </g>
    <g font-family="sans-serif" transform="matrix(1,0,0,1,130,143)">
      <text xml:space="preserve" x="169.145" y="-129.5631" stroke="none">java.io</text>
    </g>
    <g fill="rgb(221,221,255)" transform="matrix(1,0,0,1,130,143)" stroke="rgb(221,221,255)">
      <rect x="171.145" y="-116.7037" clip-path="url(#clipPath4)" width="134.0109" height="32.7037" stroke="none"/>
    </g>
    <g fill="rgb(154,154,178)" stroke-miterlimit="1.45" transform="matrix(1,0,0,1,130,143)" stroke-linecap="butt" stroke="rgb(154,154,178)">
      <ellipse rx="67.0054" fill="none" ry="16.3518" cx="238.1504" cy="-100.3518"/>
    </g>
    <g font-style="italic" font-size="13" font-weight="bold" font-family="sans-serif" transform="matrix(1,0,0,1,130,143)">
      <text xml:space="preserve" x="196.1504" y="-95.8518" stroke="none">Serializable</text>
    </g>
    <g fill="rgb(238,238,255)" transform="matrix(1,0,0,1,130,143)" stroke="rgb(238,238,255)">
      <rect width="76.1412" x="59.465" height="17.9688" y="-133.125" stroke="none"/>
    </g>
    <g fill="rgb(166,166,178)" stroke-miterlimit="1.45" transform="matrix(1,0,0,1,130,143)" stroke-linecap="butt" stroke="rgb(166,166,178)">
      <rect fill="none" width="76.1412" x="59.465" height="17.9688" y="-133.125"/>
    </g>
    <g fill="rgb(238,238,255)" transform="matrix(1,0,0,1,130,143)" stroke="rgb(238,238,255)">
      <rect width="76.1412" x="59.465" height="39.1562" y="-115.1562" stroke="none"/>
    </g>
    <g fill="rgb(166,166,178)" stroke-miterlimit="1.45" transform="matrix(1,0,0,1,130,143)" stroke-linecap="butt" stroke="rgb(166,166,178)">
      <rect fill="none" width="76.1412" x="59.465" height="39.1562" y="-115.1562"/>
    </g>
    <g font-family="sans-serif" transform="matrix(1,0,0,1,130,143)">
      <text xml:space="preserve" x="65.465" y="-119.9844" stroke="none">java.lang</text>
    </g>
    <g fill="rgb(187,187,255)" transform="matrix(1,0,0,1,130,143)" stroke="rgb(187,187,255)">
      <rect x="67.465" y="-107.125" clip-path="url(#clipPath5)" width="57.68" height="23.125" stroke="none"/>
    </g>
    <g fill="rgb(130,130,178)" stroke-miterlimit="1.45" transform="matrix(1,0,0,1,130,143)" stroke-linecap="butt" stroke="rgb(130,130,178)">
      <rect fill="none" width="57.68" x="67.465" height="23.125" y="-107.125"/>
    </g>
    <g font-size="13" font-weight="bold" font-family="sans-serif" transform="matrix(1,0,0,1,130,143)">
      <text xml:space="preserve" x="72.305" y="-91.0625" stroke="none">Object</text>
    </g>
    <g fill="rgb(238,238,255)" transform="matrix(1,0,0,1,130,143)" stroke="rgb(238,238,255)">
      <rect width="118.5772" x="-8" height="17.9688" y="-26" stroke="none"/>
    </g>
    <g fill="rgb(166,166,178)" stroke-miterlimit="1.45" transform="matrix(1,0,0,1,130,143)" stroke-linecap="butt" stroke="rgb(166,166,178)">
      <rect fill="none" width="118.5772" x="-8" height="17.9688" y="-26"/>
    </g>
    <g fill="rgb(238,238,255)" transform="matrix(1,0,0,1,130,143)" stroke="rgb(238,238,255)">
      <rect width="208.61" x="-8" height="253.2656" y="-8.0312" stroke="none"/>
    </g>
    <g fill="rgb(166,166,178)" stroke-miterlimit="1.45" transform="matrix(1,0,0,1,130,143)" stroke-linecap="butt" stroke="rgb(166,166,178)">
      <rect fill="none" width="208.61" x="-8" height="253.2656" y="-8.0312"/>
    </g>
    <g font-family="sans-serif" transform="matrix(1,0,0,1,130,143)">
      <text xml:space="preserve" x="-2" y="-12.8594" onclick="umlload('package-summary.html')" stroke="none">nde2.pull.types</text>
    </g>
    <g fill="rgb(187,187,255)" transform="matrix(1,0,0,1,130,143)" stroke="rgb(187,187,255)">
      <rect x="0" y="0" clip-path="url(#clipPath6)" width="192.61" height="26.6406" stroke="none"/>
      <line clip-path="url(#clipPath6)" fill="none" x1="0" x2="192.61" y1="26.6406" y2="26.6406" stroke="black"/>
      <rect x="0" y="27.6406" clip-path="url(#clipPath6)" width="192.61" height="31.9375" stroke="none"/>
      <line clip-path="url(#clipPath6)" fill="none" x1="0" x2="192.61" y1="59.5781" y2="59.5781" stroke="black"/>
      <rect x="0" y="60.5781" clip-path="url(#clipPath6)" width="192.61" height="15.9688" stroke="none"/>
      <line clip-path="url(#clipPath6)" fill="none" x1="0" x2="192.61" y1="76.5469" y2="76.5469" stroke="black"/>
      <rect x="0" y="77.5469" clip-path="url(#clipPath6)" width="192.61" height="159.6875" stroke="none"/>
    </g>
    <g fill="rgb(130,130,178)" stroke-miterlimit="1.45" transform="matrix(1,0,0,1,130,143)" stroke-linecap="butt" stroke="rgb(130,130,178)">
      <rect fill="none" width="192.61" x="0" height="237.2344" y="0"/>
    </g>
    <g font-size="16" font-weight="bold" font-family="sans-serif" transform="matrix(1,0,0,1,130,143)">
      <text xml:space="preserve" x="67.805" y="18.8594" onclick="umlload('#')" stroke="none">Period</text>
    </g>
    <g font-family="sans-serif" transform="matrix(1,0,0,1,130,143)">
      <text xml:space="preserve" x="4" y="38.1719" stroke="none">+</text>
      <text xml:space="preserve" x="19" y="39.7812" onclick="umlload('#DATE_RANGE')" stroke="none">DATE_RANGE : char</text>
      <line y2="42.6094" fill="none" x1="19" x2="139" y1="42.6094"/>
    </g>
    <g font-family="sans-serif" transform="matrix(1,0,0,1,130,143)">
      <text xml:space="preserve" x="4" y="54.1719" stroke="none">+</text>
      <text xml:space="preserve" x="19" y="55.75" onclick="umlload('#SINGLE_DATE')" stroke="none">SINGLE_DATE : char</text>
      <line y2="58.5781" fill="none" x1="19" x2="140" y1="58.5781"/>
    </g>
    <g font-family="sans-serif" transform="matrix(1,0,0,1,130,143)">
      <text xml:space="preserve" x="4" y="71.1719" stroke="none">+</text>
      <text xml:space="preserve" x="19" y="72.7188" onclick="umlload('#Period()')" stroke="none">Period()</text>
    </g>
    <g font-family="sans-serif" transform="matrix(1,0,0,1,130,143)">
      <text xml:space="preserve" x="4" y="88.1719" stroke="none">+</text>
      <text xml:space="preserve" x="19" y="89.6875" onclick="umlload('#equals(java.lang.Object)')" stroke="none">equals(Object) : boolean</text>
    </g>
    <g font-family="sans-serif" transform="matrix(1,0,0,1,130,143)">
      <text xml:space="preserve" x="4" y="104.1719" stroke="none">+</text>
      <text xml:space="preserve" x="19" y="105.6562" onclick="umlload('#get__pointer()')" stroke="none">get__pointer() : int</text>
    </g>
    <g font-family="sans-serif" transform="matrix(1,0,0,1,130,143)">
      <text xml:space="preserve" x="4" y="120.1719" stroke="none">+</text>
      <text xml:space="preserve" x="19" y="121.625" onclick="umlload('#getEndDate()')" stroke="none">getEndDate() : Date</text>
    </g>
    <g font-family="sans-serif" transform="matrix(1,0,0,1,130,143)">
      <text xml:space="preserve" x="4" y="136.1719" stroke="none">+</text>
      <text xml:space="preserve" x="19" y="137.5938" onclick="umlload('#getPeriodType()')" stroke="none">getPeriodType() : char</text>
    </g>
    <g font-family="sans-serif" transform="matrix(1,0,0,1,130,143)">
      <text xml:space="preserve" x="4" y="152.1719" stroke="none">+</text>
      <text xml:space="preserve" x="19" y="153.5625" onclick="umlload('#getStartDate()')" stroke="none">getStartDate() : Date</text>
    </g>
    <g font-family="sans-serif" transform="matrix(1,0,0,1,130,143)">
      <text xml:space="preserve" x="4" y="168.1719" stroke="none">+</text>
      <text xml:space="preserve" x="19" y="169.5312" onclick="umlload('#hashCode()')" stroke="none">hashCode() : int</text>
    </g>
    <g font-family="sans-serif" transform="matrix(1,0,0,1,130,143)">
      <text xml:space="preserve" x="4" y="184.1719" stroke="none">+</text>
      <text xml:space="preserve" x="19" y="185.5" onclick="umlload('#set__pointer(int)')" stroke="none">set__pointer(int) : void</text>
    </g>
    <g font-family="sans-serif" transform="matrix(1,0,0,1,130,143)">
      <text xml:space="preserve" x="4" y="200.1719" stroke="none">+</text>
      <text xml:space="preserve" x="19" y="201.4688" onclick="umlload('#setEndDate(java.util.Date)')" stroke="none">setEndDate(Date) : void</text>
    </g>
    <g font-family="sans-serif" transform="matrix(1,0,0,1,130,143)">
      <text xml:space="preserve" x="4" y="216.1719" stroke="none">+</text>
      <text xml:space="preserve" x="19" y="217.4375" onclick="umlload('#setPeriodType(char)')" stroke="none">setPeriodType(char) : void</text>
    </g>
    <g font-family="sans-serif" transform="matrix(1,0,0,1,130,143)">
      <text xml:space="preserve" x="4" y="232.1719" stroke="none">+</text>
      <text xml:space="preserve" x="19" y="233.4062" onclick="umlload('#setStartDate(java.util.Date)')" stroke="none">setStartDate(Date) : void</text>
    </g>
    <g font-family="sans-serif" transform="matrix(1,0,0,1,130,143)">
      <text xml:space="preserve" x="-124" y="270.1562" onclick="umlload('http://www.yworks.com/')" stroke="none">yWorks UML Doclet</text>
    </g>
    <g stroke-miterlimit="1.45" transform="matrix(1,0,0,1,130,143)" stroke-linecap="butt">
      <path fill="none" d="M96.305 0 L96.305 -69"/>
      <path fill="white" d="M96.305 -84 L90.305 -68 L102.305 -68 Z" stroke="none"/>
      <path fill="none" d="M96.305 -84 L90.305 -68 L102.305 -68 Z"/>
      <path fill="none" stroke-dasharray="6,2" d="M144.4575 -0.0237 L144.4575 -51 L238.1504 -51 L238.1504 -69"/>
      <path fill="white" stroke-dasharray="6,2" d="M238.1504 -84 L232.1504 -68 L244.1504 -68 Z" stroke="none"/>
      <path fill="none" d="M238.1504 -84 L232.1504 -68 L244.1504 -68 Z"/>
      <path fill="none" d="M-0.0005 11.5625 L-77.51 11.5625"/>
      <line stroke-linecap="square" transform="matrix(-1,0,0,-1,-77.51,11.5625)" fill="none" x1="0" x2="-14" y1="0" y2="-4" stroke-miterlimit="10"/>
      <line stroke-linecap="square" transform="matrix(-1,0,0,-1,-77.51,11.5625)" fill="none" x1="0" x2="-14" y1="0" y2="4" stroke-miterlimit="10"/>
    </g>
    <g stroke-dasharray="6,2" stroke-miterlimit="1.45" transform="matrix(1,0,0,1,130,143)" stroke-linecap="butt">
      <path fill="none" d="M192.5775 11.5625 L258.61 11.5625"/>
      <line stroke-linecap="square" transform="matrix(1,0,0,1,258.61,11.5625)" fill="none" x1="0" x2="-14" y1="0" y2="-4" stroke-dasharray="none" stroke-miterlimit="10"/>
      <line stroke-linecap="square" transform="matrix(1,0,0,1,258.61,11.5625)" fill="none" x1="0" x2="-14" y1="0" y2="4" stroke-dasharray="none" stroke-miterlimit="10"/>
    </g>
  </g>
</svg>
